<svg width="512" height="512" viewBox="0 0 512 512" fill="none" xmlns="http://www.w3.org/2000/svg">
<path d="M255.95 78.8057C260.93 77.2116 266.905 76.9687 273.092 77.5107C279.275 78.0525 285.653 79.3768 291.43 80.9033C297.206 82.4298 302.375 84.1577 306.142 85.5039C308.025 86.177 309.557 86.7544 310.639 87.1641C311.179 87.3686 311.609 87.5325 311.913 87.6445C312.065 87.7004 312.188 87.7441 312.279 87.7744C312.324 87.7894 312.364 87.8024 312.397 87.8115C312.42 87.8176 312.471 87.831 312.52 87.8311C312.52 87.8311 312.525 87.8316 312.535 87.832C312.546 87.8325 312.56 87.833 312.578 87.834C312.615 87.8359 312.667 87.8387 312.731 87.8428C312.861 87.8509 313.045 87.8635 313.28 87.8809C313.751 87.9155 314.426 87.9699 315.282 88.0469C316.994 88.2008 319.428 88.4464 322.396 88.8145C328.332 89.5507 336.404 90.7757 345.104 92.7295C353.803 94.6834 363.125 97.365 371.564 101.014C379.822 104.584 387.217 109.074 392.362 114.698C384.232 115.288 376.228 114.434 368.349 112.134L368.277 112.113L368.207 112.135C367.705 112.284 367.306 112.456 367.027 112.659C366.747 112.863 366.557 113.124 366.557 113.446C366.557 113.756 366.734 114.044 366.998 114.307C367.199 114.506 367.469 114.71 367.802 114.918L368.155 115.128C381.434 123.828 395.661 130.592 410.834 135.421C414.948 138.047 418.617 141.253 421.848 145.038C416.297 144.581 412.001 144.467 408.965 144.704C407.394 144.827 406.146 145.043 405.233 145.36C404.33 145.675 403.698 146.107 403.451 146.701C403.198 147.31 403.386 147.99 403.88 148.698C404.376 149.409 405.213 150.199 406.373 151.069C408.696 152.812 412.375 154.919 417.396 157.392L417.468 157.428L417.547 157.415C426.649 155.95 434.655 156.832 441.575 160.047C448.495 163.262 454.351 168.818 459.137 176.735V176.736L459.141 176.741C459.733 177.666 459.945 178.507 459.821 179.273C459.704 179.997 459.278 180.691 458.511 181.36C453.005 177.543 446.996 175.591 440.483 175.512L439.754 175.503L440.324 175.957C449.02 182.883 455.062 190.901 458.463 200.009C461.862 209.113 462.627 219.321 460.747 230.642C458.925 236.628 457.391 241.11 456.143 244.094C455.517 245.589 454.969 246.698 454.496 247.429C454.26 247.795 454.048 248.056 453.864 248.223C453.676 248.393 453.546 248.438 453.466 248.438C453.402 248.438 453.316 248.408 453.21 248.261C453.101 248.109 452.993 247.862 452.896 247.5C452.705 246.778 452.577 245.676 452.521 244.182C452.408 241.198 452.579 236.711 453.036 230.716L452.542 230.646C451.708 234.643 450.62 238.567 449.28 242.414C442.07 252.667 435.508 263.373 429.593 274.528L429.585 274.544L429.579 274.561C427.998 278.939 427.172 283.473 427.103 288.164V288.184L427.104 288.202C427.802 293.164 428.078 298.083 427.935 302.958C403.179 289.011 387.478 267.729 380.829 239.092L380.336 239.144C379.826 265.231 387.498 288.383 403.348 308.587C414.315 328.396 416.547 348.987 410.049 370.374C406.505 364.301 402.213 358.811 397.169 353.911L396.543 353.303L396.752 354.15C403.594 381.827 397.216 405.795 377.614 426.092C378.492 416.293 378.474 406.371 377.553 396.325L377.549 396.29L377.536 396.256L377.067 395.106C374.676 389.389 371.538 384.114 367.652 379.288L367.298 378.848L367.211 379.407C365.717 389.009 361.836 397.198 355.572 403.984C358.362 390.304 359.127 376.483 357.861 362.52L357.858 362.488L357.848 362.459L357.441 361.318C355.41 355.687 353.107 350.199 350.535 344.855C363.019 334.002 370.443 322.159 372.771 309.32C375.109 296.432 372.307 282.578 364.396 267.767V267.766L364.391 267.756L364.124 267.336C362.781 265.341 360.919 264.309 358.559 264.257C356.486 261.501 353.734 259.53 350.31 258.351L350.274 258.339L350.238 258.338L348.974 258.276C335.966 257.549 323.872 253.931 312.688 247.427C310.201 240.59 307.2 233.847 303.682 227.199L303.676 227.187L303.667 227.175C297.179 217.672 290.071 208.658 282.342 200.135C271.675 175.803 268.95 150.512 274.169 124.255L274.17 124.251C275.611 116.318 278.575 109.914 283.05 105.025C287.524 100.138 293.522 96.7489 301.06 94.8682L301.795 94.6855L301.096 94.3945C285.47 87.9095 270.388 88.7359 255.87 96.876C241.18 88.9792 226.1 88.1506 210.653 94.3936L209.969 94.6709L210.681 94.8672C219.219 97.2184 225.854 101.262 230.602 106.991C235.201 112.542 238.044 119.69 239.117 128.451L239.216 129.305C241.485 151.188 239.302 172.555 232.67 193.407C226.28 204.489 218.64 214.608 209.748 223.762L209.732 223.777L209.72 223.796C204.833 231.051 201.276 238.924 199.05 247.419C185.401 253.489 171.238 257.694 156.557 260.03L156.488 260.042L156.435 260.087C147.234 267.885 141.317 276.673 138.703 286.45C136.09 296.227 136.785 306.971 140.771 318.674L140.771 318.677C144.682 329.835 151.487 338.569 161.179 344.869C157.818 350.306 155.388 356.178 153.892 362.484L153.888 362.502L153.886 362.52C152.62 376.482 153.384 390.303 156.174 403.984C149.91 397.198 146.03 389.008 144.536 379.407L144.448 378.838L144.093 379.291C133.67 392.582 129.776 407.578 132.414 424.26C115.386 404.71 109.034 381.906 113.358 355.821L113.515 354.878L112.916 355.624C108.901 360.633 104.901 365.577 100.918 370.457C95.0624 348.797 97.5538 328.178 108.396 308.591C124.559 289.116 132.232 266.526 131.411 240.831L130.921 240.771C125.038 261.622 114.398 279.328 99 293.894C93.5983 298.047 87.7768 300.81 81.5312 302.188C85.3797 293.149 85.5942 283.936 82.168 274.56L82.1621 274.543L82.1543 274.528L81.0361 272.439C75.4153 262.035 69.2248 252.026 62.4658 242.414C61.1258 238.567 60.039 234.643 59.2051 230.646L58.7109 230.671C58.0876 236.558 58.0479 242.376 58.5908 248.127C52.7738 237.633 50.004 227.231 50.2676 216.919C50.5398 206.27 54.0473 195.699 60.8047 185.203C63.8583 181.496 67.3899 178.421 71.3975 175.975L72.0723 175.562L71.2832 175.512C64.5119 175.076 58.3306 176.938 52.752 181.093C54.1845 173.287 58.204 167.08 64.8203 162.462C74.3087 159.122 84.1156 157.442 94.2412 157.418H94.2998L94.3535 157.391C99.6529 154.717 103.505 152.493 105.897 150.721C107.091 149.837 107.939 149.052 108.42 148.368C108.897 147.689 109.058 147.031 108.7 146.478C108.366 145.962 107.633 145.639 106.622 145.443C105.593 145.244 104.204 145.165 102.462 145.199C99.1104 145.266 94.4118 145.758 88.3711 146.669C91.4673 143.48 94.563 140.29 97.6592 137.101C114.625 131.454 130.49 123.564 145.251 113.426L145.735 113.093L145.16 112.975C144.477 112.833 143.793 112.692 143.109 112.552C142.425 112.411 141.741 112.27 141.058 112.129L141.01 112.119L140.961 112.129C133.132 113.609 125.429 114.978 117.853 116.239C123.026 110.317 130.503 105.572 138.867 101.788C147.473 97.8947 157.003 95.0265 165.894 92.9385C174.783 90.8506 183.028 89.5448 189.062 88.7754C192.08 88.3907 194.544 88.1402 196.259 87.9932C197.116 87.9197 197.785 87.8713 198.242 87.8457C198.471 87.8329 198.645 87.8265 198.762 87.8242H198.888C198.891 87.825 198.893 87.8266 198.896 87.8271C198.924 87.8338 198.948 87.834 198.961 87.834C198.988 87.8339 199.013 87.8308 199.028 87.8281C199.061 87.8223 199.101 87.812 199.141 87.8008C199.222 87.7777 199.337 87.7411 199.479 87.6934C199.764 87.5973 200.179 87.4509 200.706 87.2637C201.763 86.8887 203.282 86.3464 205.163 85.708C208.926 84.431 214.134 82.7668 219.965 81.2725C225.797 79.7779 232.249 78.4545 238.501 77.8594C244.756 77.264 250.793 77.3995 255.806 78.8086L255.878 78.8291L255.95 78.8057Z" fill="#0D2231" stroke="#F8F4F0" stroke-width="0.5"/>
<path d="M255.996 97.3788C270.199 89.3746 284.927 88.4383 300.207 94.5722C292.932 96.5069 287.085 99.8759 282.681 104.687C278.131 109.658 275.134 116.153 273.679 124.158C268.438 150.528 271.178 175.934 281.9 200.371L281.916 200.409L281.944 200.439C289.664 208.951 296.763 217.953 303.243 227.442C306.763 234.094 309.765 240.838 312.248 247.677V247.678C313.307 250.924 313.85 254.279 313.877 257.744V257.752L313.878 257.76C314.654 268.666 312.86 277.96 308.513 285.655C304.171 293.342 297.269 299.454 287.791 303.986C281.816 305.102 275.843 305.1 269.867 303.98L269.86 303.978L269.104 303.855C267.392 303.56 266.035 303.206 265.028 302.798C263.866 302.327 263.22 301.804 262.988 301.265C262.766 300.752 262.886 300.138 263.489 299.383C264.088 298.631 265.132 297.785 266.641 296.851C273.463 295.043 279.013 291.875 283.281 287.337C287.555 282.791 290.532 276.885 292.218 269.631L292.217 269.63C294.113 262.765 294.173 256.556 292.378 251.009C290.582 245.458 286.937 240.594 281.46 236.414L281.439 236.397L281.413 236.387L280.615 236.02C263.858 228.468 247.09 228.591 230.333 236.387L230.304 236.4L230.279 236.421C224.845 240.974 221.224 246.165 219.43 251.994C217.636 257.822 217.674 264.27 219.531 271.328L219.532 271.335C221.972 279.665 225.878 285.974 231.261 290.239C236.592 294.463 243.351 296.665 251.521 296.862V311.735C245.281 318.624 238.513 322.822 231.217 324.352C223.899 325.888 216.023 324.746 207.579 320.905C201.937 317.294 197.606 312.557 194.584 306.692C194.482 304.821 193.936 303.125 192.943 301.609C191.793 283.654 193.808 266.222 198.988 249.312L199.499 247.676L199.503 247.663C201.711 239.185 205.25 231.33 210.121 224.094C219.041 214.908 226.707 204.755 233.116 193.635L233.13 193.611L233.139 193.586C239.798 172.659 241.991 151.213 239.713 129.252L239.712 129.251L239.614 128.391C238.532 119.556 235.66 112.311 230.987 106.672C226.295 101.011 219.803 96.9859 211.525 94.5859C226.636 88.6798 241.374 89.6107 255.755 97.3808L255.876 97.4472L255.996 97.3788Z" fill="#FAFBFB" stroke="#F8F4F0" stroke-width="0.5"/>
<path d="M197.685 134.596C210.216 134.19 218.497 136.94 222.654 142.742C226.816 148.55 226.918 157.516 222.829 169.727C221.158 171.984 219.077 173.608 216.583 174.608C212.878 169.081 208.247 164.326 202.688 160.345L202.638 160.309L202.577 160.301L201.45 160.149C195.894 159.433 190.317 159.199 184.719 159.444C184.193 153.714 185.004 148.797 187.136 144.679C189.289 140.521 192.799 137.158 197.685 134.596Z" fill="#C48659" stroke="#F8F4F0" stroke-width="0.5"/>
<path d="M297.812 134.589C307.207 133.377 314.297 134.877 319.134 139.029C323.926 143.143 326.56 149.906 326.989 159.378C320.317 157.709 314.518 157.984 309.61 160.231C304.633 162.51 300.604 166.801 297.515 173.07C296.51 173.989 295.509 174.428 294.506 174.428C293.498 174.428 292.445 173.985 291.341 173.056C286.255 165.424 284.28 158.421 285.358 152.035C286.434 145.657 290.567 139.839 297.812 134.589Z" fill="#C48659" stroke="#F8F4F0" stroke-width="0.5"/>
<path d="M192.836 185.309C195.021 185.307 196.78 185.525 198.122 185.957C199.492 186.398 200.407 187.053 200.912 187.899C201.417 188.744 201.538 189.821 201.237 191.158C200.94 192.472 200.237 194.018 199.115 195.803C196.824 195.966 194.987 195.867 193.594 195.514C192.176 195.154 191.245 194.539 190.743 193.7C190.242 192.861 190.14 191.746 190.492 190.322C190.838 188.925 191.615 187.255 192.836 185.309Z" fill="#FAFBFB" stroke="#F8F4F0" stroke-width="0.5"/>
<path d="M307.703 185.306C311.571 185.231 313.925 186.101 314.932 187.787C315.943 189.481 315.675 192.124 313.961 195.807C311.652 196.009 309.802 195.94 308.4 195.607C306.971 195.268 306.035 194.664 305.535 193.827C305.035 192.989 304.938 191.864 305.303 190.418C305.661 188.998 306.457 187.295 307.703 185.306Z" fill="#FAFBFB" stroke="#F8F4F0" stroke-width="0.5"/>
<path d="M372.305 155.92C382.219 167.99 389.821 181.67 395.113 196.958C398.707 213.18 402.457 229.19 406.356 244.988C399.575 237.268 394.346 228.537 390.672 218.796C385.996 197.313 379.874 176.356 372.305 155.92Z" fill="#FAFBFB" stroke="#F8F4F0" stroke-width="0.5"/>
<path d="M181.256 197.947C182.957 202.597 185.56 206.246 189.243 209.749L189.285 209.789L189.34 209.807C194.319 211.374 198.687 211.408 202.425 209.875C204.528 209.012 206.423 207.657 208.107 205.815C209.256 204.56 210.304 203.077 211.258 201.372C211.007 204.722 210.058 207.548 208.412 209.859C206.588 212.421 203.901 214.369 200.332 215.695C199.962 215.833 199.582 215.964 199.193 216.088C196.744 216.673 194.394 216.944 192.143 216.905C189.951 216.867 187.851 216.534 185.844 215.907C183.166 215.071 180.648 213.709 178.287 211.82C177.561 211.239 176.849 210.607 176.152 209.926C175.751 209.534 175.357 209.124 174.966 208.698C175.637 207.737 176.28 206.764 176.893 205.778C177.632 204.587 178.33 203.378 178.983 202.152C179.582 201.031 180.144 199.895 180.67 198.744C180.785 198.492 180.918 198.344 181.07 198.172C181.131 198.103 181.193 198.029 181.256 197.947Z" fill="#FAFBFB" stroke="#F8F4F0" stroke-width="0.5"/>
<path d="M329.205 197.582C332.208 200.804 334.738 204.499 336.795 208.671C332.168 213.218 327.314 215.824 322.231 216.512C317.105 217.207 311.716 215.958 306.057 212.737C301.955 209.782 300.062 205.924 300.355 201.137C302.706 205.429 305.656 208.337 309.213 209.83C312.974 211.408 317.379 211.389 322.407 209.806L322.43 209.8L322.45 209.788C324.979 208.436 326.813 206.68 327.935 204.514C328.963 202.528 329.382 200.214 329.205 197.582Z" fill="#FAFBFB" stroke="#F8F4F0" stroke-width="0.5"/>
<path d="M137.873 156.122C132.247 176.41 126.647 197.298 121.077 218.785C117.031 228.397 111.762 237.163 105.268 245.079C109.53 212.836 120.398 183.184 137.873 156.122Z" fill="#FAFBFB" stroke="#F8F4F0" stroke-width="0.5"/>
<path d="M312.916 248.134C324.388 254.707 336.81 258.276 350.178 258.835C353.446 259.967 356.071 261.834 358.063 264.433C345.866 271.797 332.931 277.349 319.256 281.09C318.084 272.995 316.458 265.201 314.376 257.705C314.346 254.418 313.86 251.228 312.916 248.134Z" fill="#C48659" stroke="#F8F4F0" stroke-width="0.5"/>
<path d="M314.504 260.097C316.311 266.959 317.745 274.068 318.801 281.428V301.673C317.826 315.199 313.931 324.497 307.177 329.645C300.431 334.788 290.762 335.842 278.11 332.723C270.713 329.09 265.54 324.274 262.564 318.284C259.609 312.335 258.811 305.202 260.189 296.869H265.689C264.517 297.648 263.648 298.381 263.098 299.071C262.44 299.896 262.203 300.708 262.529 301.463C262.843 302.191 263.649 302.779 264.841 303.262C266.044 303.749 267.695 304.152 269.784 304.473V304.472C275.829 305.604 281.873 305.604 287.918 304.471L287.95 304.466L287.98 304.452C297.547 299.883 304.543 293.701 308.949 285.901C313.033 278.67 314.879 270.065 314.504 260.097Z" fill="#CFD0CB" stroke="#F8F4F0" stroke-width="0.5"/>
<path d="M198.858 248.05C193.423 265.303 191.281 283.099 192.431 301.437C189.623 301.402 187.03 300.578 184.647 298.957C180 294.808 176.747 289.778 174.885 283.867L174.841 283.726L174.696 283.697C171.115 282.978 168.417 283.383 166.689 285.015C164.965 286.643 164.282 289.42 164.552 293.256V293.263C165.37 301.722 169.484 307.971 176.879 311.991C178.785 325.379 184.478 336.589 193.954 345.617C178.853 357.035 167.69 371.661 160.467 389.494L160.455 389.523L160.45 389.554C159.646 395.616 159.369 401.701 159.614 407.812C158.244 407.243 157.321 406.223 156.837 404.734C153.915 390.829 153.097 376.779 154.382 362.582C155.886 356.254 158.336 350.37 161.732 344.926L161.862 344.717L161.655 344.583C152.252 338.53 145.573 330.187 141.617 319.547L141.243 318.511C137.283 306.882 136.603 296.241 139.186 286.58C141.764 276.937 147.597 268.248 156.705 260.513C171.264 258.19 185.313 254.035 198.858 248.05Z" fill="#C48659" stroke="#F8F4F0" stroke-width="0.5"/>
<path d="M252.021 296.374L251.776 296.369C243.582 296.212 236.853 294.033 231.572 289.848C226.454 285.793 222.674 279.838 220.244 271.962L220.013 271.194C218.177 264.21 218.147 257.862 219.908 252.141C221.666 246.428 225.217 241.322 230.575 236.825C247.446 228.985 264.308 228.987 281.179 236.829C286.578 240.955 290.146 245.733 291.903 251.162C293.662 256.6 293.613 262.712 291.734 269.508H291.733L291.731 269.518C290.061 276.703 287.12 282.525 282.917 286.994C278.72 291.456 273.255 294.583 266.508 296.369H259.765L259.73 296.577C258.291 305.075 259.078 312.39 262.116 318.506C265.154 324.623 270.43 329.513 277.917 333.186L277.941 333.197L277.966 333.204C290.698 336.347 300.557 335.321 307.48 330.043C314.37 324.791 318.284 315.378 319.285 301.884C322.681 300.956 325.929 299.556 329.026 297.679L329.079 297.647L329.11 297.593C331.969 292.821 335.222 288.35 338.869 284.176C341.515 283.771 343.443 284.196 344.717 285.377C346.008 286.574 346.688 288.602 346.696 291.533C345.583 300.771 340.984 307.453 332.884 311.609L332.762 311.673L332.75 311.809C331.512 325.008 326.345 336.214 317.252 345.44C313.489 347.595 309.67 349.844 305.793 352.186L305.692 352.247L305.675 352.364C303.54 367.156 297.012 379.207 286.092 388.53C270.428 396.057 254.093 398.018 237.077 394.417C218.95 386.892 208.618 372.891 206.073 352.369L206.058 352.248L205.953 352.186L203.065 350.469C200.192 348.766 197.333 347.09 194.492 345.44C184.954 336.433 179.242 325.224 177.356 311.798L177.338 311.672L177.227 311.612L176.55 311.236C169.882 307.417 166.081 301.676 165.135 293.99L165.05 293.215C164.785 289.431 165.474 286.849 167.032 285.379C168.564 283.932 171.01 283.495 174.455 284.161C176.353 290.102 179.644 295.164 184.326 299.342L184.338 299.353L184.352 299.361C186.856 301.068 189.594 301.927 192.559 301.939C193.489 303.378 193.999 304.987 194.088 306.774L194.09 306.793C195.671 319.05 199.759 327.433 206.41 331.858C213.063 336.284 222.209 336.702 233.793 333.2H233.794C239.037 331.598 243.188 329.019 246.232 325.456C249.276 321.893 251.202 317.36 252.019 311.869L252.021 311.851V296.374Z" fill="#0D2231" stroke="#F8F4F0" stroke-width="0.5"/>
<path d="M194.778 308.109C197.805 313.516 201.991 317.926 207.331 321.339L207.346 321.349L207.363 321.357C215.884 325.235 223.873 326.405 231.321 324.842C238.546 323.326 245.235 319.243 251.39 312.618C250.52 317.662 248.672 321.83 245.852 325.131C243.065 328.393 239.32 330.822 234.604 332.415L233.648 332.722C222.13 336.204 213.161 335.748 206.687 331.441C200.458 327.297 196.472 319.544 194.778 308.109Z" fill="#CFD0CB" stroke="#F8F4F0" stroke-width="0.5"/>
<path d="M255.831 251.232C261.025 251.258 266.219 251.538 271.414 252.072C273.645 252.747 275.812 253.585 277.919 254.587L278.039 254.644L278.153 254.577C278.636 254.292 279.028 253.956 279.323 253.567C279.631 253.16 279.828 252.7 279.914 252.191C279.937 252.056 279.948 251.917 279.955 251.775C280.367 252.348 280.732 252.934 281.047 253.533C281.472 254.343 281.808 255.176 282.055 256.034C282.672 258.171 282.741 260.466 282.254 262.922C282.198 263.203 282.133 263.487 282.062 263.772C280.473 260.543 278.068 258.173 274.85 256.671L274.81 256.652L274.767 256.648L273.062 256.502C271.358 256.363 269.653 256.245 267.948 256.147C263.272 255.879 258.595 255.767 253.919 255.81C250.943 255.838 247.968 255.928 244.992 256.082C242.322 256.22 239.651 256.409 236.98 256.648L236.875 256.657L236.808 256.739C235.484 258.372 233.982 259.691 232.302 260.702C232.221 259.288 232.358 258.047 232.708 256.974C233.051 255.923 233.599 255.029 234.352 254.288C235.39 253.267 236.829 252.525 238.686 252.073C241.858 251.747 245.029 251.514 248.2 251.378C250.744 251.268 253.287 251.22 255.831 251.232Z" fill="#CFD0CB" fill-opacity="0.8" stroke="#F8F4F0" stroke-width="0.5"/>
<path d="M243.629 241.926C254.317 240.114 264.643 241.233 274.611 245.281C276.55 247.001 278.153 248.929 279.425 251.063C279.516 251.744 279.436 252.328 279.194 252.828C278.961 253.307 278.57 253.724 278.008 254.077C275.911 253.087 273.754 252.256 271.535 251.586L271.512 251.579L271.488 251.578L269.433 251.378C259.161 250.452 248.89 250.519 238.618 251.578L238.601 251.578L238.585 251.582C236.144 252.173 234.336 253.264 233.198 254.876C232.06 256.488 231.615 258.586 231.831 261.144L231.832 261.151L231.833 261.159C231.934 261.859 231.854 262.459 231.606 262.969C231.4 263.393 231.071 263.768 230.61 264.093C229.506 258.596 230.023 254.033 232.126 250.377C234.272 246.647 238.093 243.823 243.629 241.926Z" fill="#FAFBFB" stroke="#F8F4F0" stroke-width="0.5"/>
<path d="M358.498 264.755C360.713 264.79 362.446 265.736 363.712 267.62L363.962 268.012C371.83 282.749 374.591 296.485 372.279 309.231C369.967 321.979 362.573 333.772 350.064 344.605L349.92 344.73L350.003 344.903C352.769 350.633 355.223 356.53 357.365 362.594C358.638 376.671 357.843 390.601 354.98 404.387C352.645 393.356 348.672 382.748 343.062 372.564L343.054 372.546L343.041 372.531L341.585 370.68C334.314 361.552 326.374 353.2 317.77 345.624C326.814 336.378 331.969 325.164 333.232 311.991C341.413 307.75 346.071 300.938 347.194 291.579L347.196 291.563V291.548C347.19 288.55 346.498 286.347 345.057 285.01C343.61 283.669 341.47 283.255 338.702 283.695L338.613 283.709L338.554 283.778C334.877 287.978 331.598 292.478 328.715 297.281C325.716 299.092 322.578 300.45 319.3 301.361V281.596C333.118 277.824 346.184 272.211 358.498 264.755Z" fill="#8B4F2C" stroke="#F8F4F0" stroke-width="0.5"/>
<path d="M194.357 345.939C198.075 348.099 201.821 350.303 205.593 352.552C208.183 373.168 218.61 387.286 236.867 394.871C245.664 402.811 254.925 410.109 264.648 416.764C264.65 417.506 264.47 418.112 264.118 418.595C263.747 419.105 263.17 419.502 262.364 419.774C247.117 424.442 231.563 425.847 215.7 423.99H215.694C211.366 423.576 207.597 421.915 204.377 419.005C202.189 415.346 199.441 412.233 196.133 409.673L195.982 409.557L195.83 409.671C186.933 416.311 180.118 424.693 175.384 434.815C167.424 427.683 162.338 418.797 160.127 408.149C159.859 401.956 160.13 395.791 160.943 389.65C168.149 371.873 179.286 357.306 194.357 345.939Z" fill="#FAFBFB" stroke="#F8F4F0" stroke-width="0.5"/>
<path d="M228.878 345.031C235.402 342.812 240.868 342.766 245.303 344.842C249.737 346.918 253.19 351.14 255.64 357.56L255.953 358.38L256.119 357.518C257.098 352.445 259.512 348.286 263.363 345.032C270.924 343.967 278.425 344.229 285.867 345.817C283.839 350.057 281.17 353.882 277.854 357.288C273.985 360.392 269.657 362.623 264.871 363.979C254.709 363.317 244.916 361.077 235.493 357.254C231.782 353.989 228.03 350.677 224.239 347.318C225.426 346.166 226.958 345.404 228.846 345.039L228.862 345.036L228.878 345.031Z" fill="#8B4F2C" stroke="#F8F4F0" stroke-width="0.5"/>
<path d="M224.079 347.845C227.818 351.158 231.52 354.426 235.183 357.647C238.552 361.927 242.972 364.486 248.432 365.32V365.321C254.081 366.654 259.439 366.43 264.498 364.644L264.986 364.467C269.802 363.105 274.162 360.867 278.062 357.76C278.785 358.073 279.147 358.454 279.25 358.878C279.361 359.333 279.197 359.932 278.646 360.701C272.765 367.792 265.427 372.549 256.628 374.978L255.724 375.227L256.632 375.462C257.725 375.743 258.82 376.025 259.914 376.307C260.138 376.364 260.361 376.422 260.585 376.479C254.325 376.154 248.115 376.493 241.953 377.496C235.281 374.898 230.474 371.096 227.51 366.1C224.601 361.196 223.45 355.116 224.079 347.845Z" fill="#FAFBFB" stroke="#F8F4F0" stroke-width="0.5"/>
<path d="M288.923 347.47C285.184 350.783 281.482 354.051 277.819 357.273C274.45 361.553 270.03 364.111 264.57 364.946V364.947C258.921 366.28 253.563 366.056 248.504 364.27L248.016 364.092C243.2 362.731 238.84 360.493 234.939 357.385C234.217 357.698 233.855 358.08 233.752 358.503C233.641 358.959 233.805 359.557 234.355 360.326C240.237 367.417 247.575 372.174 256.374 374.604L257.278 374.853L256.37 375.087C255.277 375.369 254.182 375.65 253.088 375.932C252.864 375.99 252.641 376.047 252.417 376.105C258.677 375.779 264.887 376.118 271.049 377.121C277.721 374.523 282.528 370.722 285.492 365.725C288.401 360.821 289.552 354.742 288.923 347.47Z" fill="#FAFBFB" stroke="#F8F4F0" stroke-width="0.5"/>
<path d="M317.377 345.945C326.554 354.017 334.974 362.977 342.633 372.82C348.551 383.568 352.638 394.788 354.893 406.479C351.752 417.335 346.122 426.769 338.004 434.79C332.84 422.826 325.207 412.763 315.104 404.606L314.691 404.272L314.698 404.803C314.83 416.405 311.328 426.444 304.196 434.936C290.709 430.685 278.039 424.762 266.184 417.166L265.036 416.423C255.534 409.926 246.476 402.814 237.859 395.089C254.676 398.462 270.838 396.423 286.34 388.967L286.369 388.953L286.393 388.932C297.395 379.548 303.98 367.417 306.151 352.554C309.948 350.261 313.689 348.058 317.377 345.945Z" fill="#CFD0CB" stroke="#F8F4F0" stroke-width="0.5"/>
<path d="M236.172 358.065C245.016 361.553 254.182 363.662 263.67 364.395C258.903 365.94 253.864 366.089 248.546 364.834L248.536 364.831L248.527 364.831L248.028 364.749C243.225 363.915 239.277 361.688 236.172 358.065Z" fill="#8B4F2C" stroke="#F8F4F0" stroke-width="0.5"/>
</svg>
