<svg width="512" height="512" viewBox="0 0 512 512" fill="none" xmlns="http://www.w3.org/2000/svg">
<path fill-rule="evenodd" clip-rule="evenodd" d="M355.151 406.045C358.082 392.093 358.902 377.994 357.612 363.746C355.464 357.656 353.003 351.734 350.228 345.98C375.308 324.238 379.959 298.576 364.176 268.996C362.837 266.757 360.922 265.631 358.433 265.612C356.383 262.844 353.648 260.869 350.228 259.69C336.669 259.128 324.088 255.462 312.486 248.692C309.997 241.83 306.989 235.062 303.461 228.389C296.971 218.875 289.861 209.85 282.129 201.317C271.428 176.904 268.693 151.525 273.924 125.179C276.82 109.224 285.845 99.3547 301 95.5698C285.401 89.0896 270.36 89.9356 255.873 98.1078C241.21 90.1775 226.167 89.3316 210.747 95.5698C227.904 100.299 237.477 111.86 239.464 130.255C241.738 152.203 239.549 173.635 232.9 194.55C226.497 205.669 218.839 215.821 209.927 225.005C205.034 232.277 201.478 240.172 199.261 248.692C185.559 254.804 171.339 259.034 156.596 261.382C138.257 276.941 133.06 296.399 141.007 319.755C144.928 330.952 151.765 339.694 161.519 345.98C158.106 351.457 155.645 357.379 154.135 363.746C152.845 377.992 153.666 392.091 156.596 406.045C149.941 399.089 145.838 390.629 144.289 380.665C133.73 394.143 129.901 409.371 132.803 426.348C115.29 406.576 108.727 383.454 113.111 356.978C108.993 362.121 104.89 367.197 100.804 372.205C94.7655 350.283 97.2269 329.414 108.188 309.603C124.322 290.152 131.981 267.593 131.162 241.924C125.266 262.842 114.6 280.608 99.1633 295.221C93.5955 299.509 87.5798 302.329 81.1128 303.681C85.12 294.55 85.3941 285.244 81.9333 275.764C76.0177 264.597 69.4539 253.88 62.242 243.616C60.8931 239.745 59.7985 235.796 58.96 231.773C58.2954 238.055 58.2954 244.258 58.96 250.384C46.4888 228.604 47.0369 207.172 60.601 186.09C63.6745 182.352 67.2304 179.251 71.2672 176.784C64.3522 176.339 58.0608 178.312 52.3962 182.706C53.7385 174.52 57.8409 168.033 64.7034 163.248C74.2291 159.888 84.0747 158.196 94.2404 158.172C115.428 147.471 113.241 144.087 87.6766 148.021C90.9585 144.637 94.2404 141.253 97.5223 137.869C114.488 132.223 130.351 124.328 145.11 114.181C143.743 113.899 142.374 113.618 141.007 113.335C132.942 114.862 125.011 116.271 117.214 117.565C138.09 92.7172 164.345 82.5654 195.979 87.11C193.631 87.8968 191.718 89.3079 190.236 91.3399C187.607 94.5022 185.966 97.8861 185.313 101.492C204.373 78.9548 227.892 71.6218 255.873 79.4962C278.382 72.2834 298.894 76.2307 317.409 91.3399C318.71 89.8933 318.164 88.4822 315.768 87.11C346.419 82.9021 372.128 92.4905 392.893 115.873C384.557 116.54 376.352 115.694 368.278 113.335C366.316 113.921 366.316 114.767 368.278 115.873C381.552 124.58 395.774 131.348 410.943 136.177C415.255 138.928 419.084 142.312 422.43 146.329C399.074 144.332 397.433 148.279 417.507 158.172C435.79 155.227 449.738 161.712 459.351 177.63C460.58 179.55 460.308 181.242 458.53 182.706C453.02 178.838 447.004 176.863 440.48 176.784C457.931 190.699 464.769 209.028 460.992 231.773C453.693 255.785 450.957 255.785 452.787 231.773C451.949 235.796 450.854 239.745 449.505 243.616C442.293 253.88 435.729 264.597 429.814 275.764C428.242 280.121 427.421 284.631 427.352 289.299C428.071 294.421 428.345 299.497 428.173 304.527C403.145 290.535 387.282 269.102 380.585 240.233C380.077 266.297 387.735 289.421 403.559 309.603C414.658 329.663 416.847 350.531 410.122 372.205C406.535 365.949 402.159 360.308 396.995 355.286C403.915 383.303 397.351 407.554 377.304 428.04C378.245 418.019 378.245 407.867 377.304 397.585C374.868 391.44 371.586 385.799 367.458 380.665C365.909 390.629 361.806 399.089 355.151 406.045Z" fill="#0D2231"/>
<path fill-rule="evenodd" clip-rule="evenodd" d="M312.486 248.692C313.553 251.966 314.099 255.35 314.127 258.844C315.684 280.753 306.932 296.262 287.872 305.373C281.855 306.502 275.839 306.502 269.822 305.373C261.497 304.091 260.404 301.553 266.54 297.759C280.14 294.166 288.619 285.142 291.974 270.688C295.752 257.01 292.196 246.012 281.308 237.695C264.352 229.798 247.395 229.798 230.439 237.695C219.633 246.758 216.079 258.321 219.773 272.38C224.632 288.983 235.298 297.443 251.771 297.759C251.771 302.835 251.771 307.911 251.771 312.987C239.203 326.922 224.435 330.023 207.466 322.293C201.762 318.643 197.385 313.85 194.338 307.911C194.245 306.035 193.698 304.343 192.697 302.835C191.499 284.229 193.687 266.18 199.261 248.692C201.478 240.172 205.034 232.277 209.927 225.005C218.839 215.821 226.497 205.669 232.9 194.55C239.549 173.635 241.738 152.203 239.464 130.255C237.477 111.86 227.904 100.299 210.748 95.5699C226.168 89.3316 241.21 90.1776 255.874 98.1078C270.36 89.9356 285.401 89.0897 301 95.5699C285.845 99.3548 276.82 109.224 273.924 125.179C268.693 151.525 271.428 176.904 282.129 201.317C289.861 209.85 296.971 218.875 303.461 228.389C306.989 235.062 309.997 241.83 312.486 248.692Z" fill="#FAFBFB"/>
<path fill-rule="evenodd" clip-rule="evenodd" d="M197.62 135.331C222.792 134.495 231.271 146.339 223.055 170.862C221.312 173.229 219.124 174.921 216.491 175.938C212.784 170.358 208.135 165.565 202.543 161.556C196.55 160.712 190.534 160.431 184.492 160.71C183.345 148.965 187.722 140.505 197.62 135.331Z" fill="#C48659"/>
<path fill-rule="evenodd" clip-rule="evenodd" d="M297.718 135.331C316.644 132.866 326.49 141.325 327.255 160.71C313.712 157.206 303.866 161.719 297.718 174.246C295.624 176.183 293.436 176.183 291.154 174.246C280.909 158.88 283.097 145.909 297.718 135.331Z" fill="#C48659"/>
<path fill-rule="evenodd" clip-rule="evenodd" d="M192.697 186.09C201.749 186.044 203.936 189.711 199.261 197.088C189.806 197.795 187.617 194.128 192.697 186.09Z" fill="#FAFBFB"/>
<path fill-rule="evenodd" clip-rule="evenodd" d="M307.563 186.09C315.486 185.895 317.673 189.562 314.127 197.087C304.574 197.964 302.385 194.297 307.563 186.09Z" fill="#FAFBFB"/>
<path fill-rule="evenodd" clip-rule="evenodd" d="M371.56 155.634C381.956 168.018 389.886 182.119 395.354 197.933C399.023 214.51 402.853 230.866 406.841 247C399.707 239.06 394.237 230.035 390.431 219.929C385.653 197.949 379.363 176.518 371.56 155.634Z" fill="#FAFBFB"/>
<path fill-rule="evenodd" clip-rule="evenodd" d="M181.21 197.934C182.891 202.784 185.625 207.014 189.415 210.623C199.394 213.767 206.778 210.666 211.568 201.317C211.337 209.488 207.234 214.846 199.261 217.391C189.563 219.711 181.358 217.173 174.647 209.777C177.289 206.013 179.476 202.064 181.21 197.934Z" fill="#FAFBFB"/>
<path fill-rule="evenodd" clip-rule="evenodd" d="M328.896 197.934C332.173 201.339 334.908 205.287 337.1 209.777C327.713 219.095 317.32 220.504 305.922 214.007C301.505 210.826 299.59 206.596 300.179 201.317C304.969 210.666 312.353 213.767 322.332 210.623C327.319 207.955 329.506 203.725 328.896 197.934Z" fill="#FAFBFB"/>
<path fill-rule="evenodd" clip-rule="evenodd" d="M138.546 155.634C132.773 176.434 127.03 197.866 121.316 219.929C117.145 229.852 111.675 238.877 104.906 247C109.161 213.814 120.376 183.359 138.546 155.634Z" fill="#FAFBFB"/>
<path fill-rule="evenodd" clip-rule="evenodd" d="M312.486 248.692C324.088 255.462 336.669 259.128 350.228 259.69C353.648 260.869 356.383 262.844 358.433 265.612C346.065 273.116 332.937 278.755 319.05 282.532C317.875 274.327 316.234 266.433 314.127 258.844C314.099 255.35 313.553 251.966 312.486 248.692Z" fill="#C48659"/>
<path fill-rule="evenodd" clip-rule="evenodd" d="M314.127 258.844C316.234 266.433 317.875 274.327 319.05 282.532C319.05 289.299 319.05 296.067 319.05 302.835C317.096 329.976 303.422 340.41 278.026 334.136C263.128 326.822 257.111 314.696 259.976 297.759C262.163 297.759 264.352 297.759 266.54 297.759C260.404 301.553 261.497 304.09 269.822 305.373C275.839 306.502 281.855 306.502 287.872 305.373C306.932 296.262 315.684 280.753 314.127 258.844Z" fill="#CFD0CB"/>
<path fill-rule="evenodd" clip-rule="evenodd" d="M199.261 248.692C193.687 266.18 191.499 284.229 192.697 302.835C189.73 302.85 186.995 302.004 184.492 300.297C179.806 296.111 176.524 291.035 174.647 285.07C167.546 283.643 164.264 286.745 164.801 294.375C165.615 302.803 169.717 309.006 177.108 312.987C179.003 326.489 184.747 337.767 194.338 346.826C179.154 358.254 167.942 372.916 160.699 390.817C159.88 396.996 159.607 403.199 159.878 409.429C158.237 408.865 157.143 407.737 156.596 406.045C153.666 392.091 152.845 377.992 154.135 363.746C155.645 357.379 158.106 351.457 161.519 345.98C151.765 339.695 144.928 330.952 141.007 319.755C133.06 296.399 138.257 276.941 156.596 261.382C171.339 259.034 185.559 254.804 199.261 248.692Z" fill="#C48659"/>
<path fill-rule="evenodd" clip-rule="evenodd" d="M266.54 297.759C264.352 297.759 262.163 297.759 259.976 297.759C257.111 314.696 263.128 326.822 278.026 334.136C303.422 340.41 317.096 329.976 319.05 302.835C322.484 301.913 325.766 300.503 328.896 298.605C331.779 293.79 335.061 289.279 338.741 285.069C344.201 284.201 346.935 286.739 346.946 292.683C345.827 302.018 341.178 308.786 332.998 312.987C331.754 326.265 326.557 337.546 317.409 346.826C313.636 348.988 309.808 351.244 305.922 353.594C303.778 368.468 297.214 380.594 286.231 389.971C270.501 397.544 254.091 399.517 237.003 395.893C218.773 388.326 208.381 374.227 205.825 353.594C201.968 351.291 198.138 349.036 194.338 346.826C184.747 337.767 179.003 326.489 177.108 312.987C169.717 309.006 165.615 302.803 164.801 294.375C164.264 286.744 167.546 283.643 174.647 285.069C176.524 291.035 179.806 296.111 184.492 300.297C186.995 302.004 189.73 302.85 192.697 302.835C193.698 304.343 194.244 306.035 194.338 307.911C197.49 332.385 210.618 341.127 233.721 334.136C244.133 330.952 250.148 323.903 251.771 312.987C251.771 307.911 251.771 302.835 251.771 297.759C235.298 297.443 224.632 288.983 219.773 272.38C216.079 258.321 219.633 246.758 230.439 237.695C247.395 229.798 264.352 229.798 281.308 237.695C292.196 246.012 295.752 257.01 291.974 270.688C288.619 285.142 280.14 294.165 266.54 297.759Z" fill="#0D2231"/>
<path fill-rule="evenodd" clip-rule="evenodd" d="M194.338 307.911C197.385 313.85 201.762 318.643 207.466 322.293C224.435 330.023 239.203 326.922 251.771 312.987C250.148 323.903 244.133 330.952 233.721 334.136C210.618 341.127 197.49 332.385 194.338 307.911Z" fill="#CFD0CB"/>
<path fill-rule="evenodd" clip-rule="evenodd" d="M279.667 252.076C282.76 255.959 283.581 260.472 282.129 265.612C280.573 262.109 278.112 259.571 274.744 257.998C262.163 256.869 249.584 256.869 237.003 257.998C235.57 259.766 233.929 261.175 232.08 262.228C231.655 257.186 233.842 254.084 238.644 252.922C249.584 251.794 260.522 251.794 271.463 252.922C273.714 253.602 275.901 254.448 278.026 255.46C279.336 254.687 279.882 253.558 279.667 252.076Z" fill="#CFD0CB"/>
<path fill-rule="evenodd" clip-rule="evenodd" d="M279.667 252.076C279.882 253.558 279.336 254.687 278.026 255.46C275.901 254.448 273.714 253.602 271.463 252.922C260.522 251.794 249.584 251.794 238.644 252.922C233.842 254.085 231.655 257.186 232.08 262.228C232.295 263.71 231.748 264.839 230.439 265.612C228.023 254.206 232.4 246.593 243.567 242.77C254.321 240.941 264.715 242.07 274.744 246.154C276.73 247.912 278.371 249.887 279.667 252.076Z" fill="#FAFBFB"/>
<path fill-rule="evenodd" clip-rule="evenodd" d="M358.433 265.612C360.922 265.631 362.837 266.757 364.176 268.996C379.959 298.576 375.308 324.238 350.228 345.98C353.003 351.734 355.464 357.656 357.612 363.746C358.902 377.994 358.082 392.093 355.151 406.045C355.151 406.608 355.151 407.173 355.151 407.737C352.891 395.981 348.789 384.701 342.844 373.897C335.135 363.977 326.656 354.953 317.409 346.826C326.557 337.546 331.754 326.265 332.998 312.987C341.178 308.786 345.827 302.018 346.946 292.683C346.935 286.739 344.201 284.202 338.741 285.069C335.061 289.279 331.779 293.79 328.896 298.605C325.766 300.504 322.484 301.913 319.05 302.835C319.05 296.067 319.05 289.299 319.05 282.532C332.937 278.755 346.065 273.116 358.433 265.612Z" fill="#8B4F2C"/>
<path fill-rule="evenodd" clip-rule="evenodd" d="M194.338 346.826C198.138 349.036 201.968 351.291 205.825 353.594C208.381 374.227 218.773 388.326 237.003 395.893C245.834 403.874 255.133 411.205 264.899 417.888C264.948 419.575 264.127 420.704 262.437 421.272C247.157 425.956 231.568 427.365 215.67 425.502C211.277 425.081 207.449 423.389 204.184 420.426C202.008 416.775 199.272 413.672 195.979 411.121C187.026 417.809 180.19 426.269 175.467 436.5C167.318 429.284 162.121 420.259 159.878 409.429C159.607 403.199 159.88 396.996 160.699 390.817C167.942 372.916 179.154 358.254 194.338 346.826Z" fill="#FAFBFB"/>
<path fill-rule="evenodd" clip-rule="evenodd" d="M286.231 346.826C284.173 351.213 281.439 355.162 278.026 358.67C274.116 361.813 269.739 364.07 264.899 365.437C254.68 364.776 244.835 362.521 235.362 358.67C231.574 355.335 227.744 351.951 223.875 348.518C225.127 347.218 226.768 346.372 228.798 345.98C241.92 341.513 250.946 345.743 255.873 358.67C256.868 353.513 259.329 349.283 263.258 345.98C270.977 344.884 278.635 345.166 286.231 346.826Z" fill="#8B4F2C"/>
<path fill-rule="evenodd" clip-rule="evenodd" d="M223.875 348.518C227.744 351.951 231.574 355.335 235.362 358.67C238.698 362.922 243.073 365.46 248.489 366.284C254.277 367.651 259.746 367.368 264.899 365.438C269.74 364.07 274.116 361.813 278.026 358.67C279.708 359.341 279.982 360.468 278.847 362.054C272.931 369.195 265.547 373.989 256.694 376.435C258.881 376.999 261.07 377.564 263.258 378.127C256.082 377.537 248.972 377.819 241.926 378.973C228.435 373.74 222.418 363.588 223.875 348.518Z" fill="#FAFBFB"/>
<path fill-rule="evenodd" clip-rule="evenodd" d="M289.127 348.143C285.257 351.576 281.427 354.96 277.64 358.295C274.304 362.547 269.929 365.085 264.512 365.909C258.725 367.276 253.256 366.993 248.103 365.063C243.262 363.695 238.886 361.438 234.975 358.295C233.293 358.966 233.019 360.093 234.155 361.679C240.071 368.82 247.455 373.614 256.308 376.06C254.12 376.624 251.931 377.189 249.744 377.752C256.92 377.162 264.03 377.444 271.076 378.598C284.567 373.365 290.584 363.213 289.127 348.143Z" fill="#FAFBFB"/>
<path fill-rule="evenodd" clip-rule="evenodd" d="M317.409 346.826C326.656 354.953 335.135 363.977 342.844 373.897C348.789 384.701 352.891 395.981 355.151 407.737C351.967 418.785 346.224 428.372 337.921 436.5C332.772 424.413 325.113 414.261 314.948 406.045C315.081 417.773 311.526 427.925 304.281 436.5C290.276 432.098 277.148 425.893 264.899 417.888C255.133 411.205 245.834 403.874 237.003 395.893C254.091 399.517 270.501 397.544 286.231 389.971C297.214 380.594 303.778 368.468 305.922 353.594C309.808 351.244 313.637 348.988 317.409 346.826Z" fill="#CFD0CB"/>
<path fill-rule="evenodd" clip-rule="evenodd" d="M235.362 358.67C244.835 362.521 254.68 364.776 264.899 365.438C259.746 367.368 254.277 367.651 248.489 366.284C243.072 365.46 238.698 362.922 235.362 358.67Z" fill="#8B4F2C"/>
</svg>
