<svg width="512" height="512" viewBox="0 0 512 512" fill="none" xmlns="http://www.w3.org/2000/svg">
<path d="M335.805 169.999C335.805 214.074 300.075 249.803 256 249.803C211.925 249.803 176.195 214.074 176.195 169.999C176.195 125.924 211.925 90.1943 256 90.1943C300.075 90.1943 335.805 125.924 335.805 169.999Z" fill="#1E1D51"/>
<path d="M255.69 113.986C248.874 114.114 242.335 115.327 236.256 117.449V161.26H255.69V113.986ZM220.341 127.042C210.207 135.643 203.06 147.506 200.63 160.946H220.341V127.042ZM235.568 176.803V222.604C241.807 224.722 248.517 225.934 255.512 226.062V176.803H235.568ZM200.566 176.928C202.587 191.24 209.885 203.9 220.466 212.95V176.928H200.566Z" fill="url(#paint0_linear_1561_9915)"/>
<path d="M257.104 114.55C287.216 115.138 311.45 139.747 311.45 170C311.45 200.253 287.216 224.848 257.104 225.436V114.55Z" fill="url(#paint1_linear_1561_9915)"/>
<path d="M234.808 118.145V162.501H255.386V175.595H234.808V221.97C230.051 220.006 225.62 217.419 221.623 214.307V175.595H200.185C200.006 173.775 199.913 171.93 199.913 170.063C199.913 167.498 200.087 164.975 200.422 162.501H221.622V125.81C225.62 122.697 230.051 120.109 234.808 118.145Z" fill="url(#paint2_linear_1561_9915)"/>
<path d="M290.217 133.224H271.141V135.885H290.217V133.224Z" fill="#9D0D16"/>
<path d="M256.233 86.151C227.202 86.105 198.935 101.146 183.387 128.076C160.246 168.158 173.996 219.471 214.077 242.612C254.159 265.753 305.472 252.003 328.613 211.921C351.754 171.839 338.004 120.527 297.922 97.3858C284.77 89.7927 270.411 86.1736 256.233 86.151ZM256 90.1936C300.052 90.1936 335.805 125.947 335.805 169.999C335.805 214.051 300.052 249.804 256 249.804C211.948 249.804 176.195 214.051 176.195 169.999C176.195 125.947 211.948 90.1936 256 90.1936ZM251.195 92.9884V109.53H256.235V103.957L260.306 109.53L266.938 110.501L261.19 103.073C262.451 102.81 264.817 101.471 264.817 98.6502C264.817 94.4268 261.014 93.0772 258.626 93.0772L251.195 92.9884ZM257.563 96.615C258.934 96.615 259.906 97.5443 259.951 98.5614C259.995 99.5786 259.291 100.682 257.741 100.682H256.147L256.061 96.7036L257.563 96.615ZM281.325 97.5548C281.236 97.5544 281.145 97.5559 281.056 97.5576C276.707 97.6462 273.031 100.283 272.15 104.589C271.274 108.878 275.169 113.953 279.931 115.034C285.096 116.206 289.918 113.753 291.005 108.185C291.935 103.417 288.431 98.7356 283.227 97.7434C282.587 97.6214 281.951 97.5587 281.325 97.5548ZM220.327 101.922L215.816 104.309L217.937 122.972L222.714 119.434L222.096 116.606L227.314 113.509L229.701 115.278L235.186 113.068L220.327 101.922ZM281.442 102.127C281.748 102.128 282.059 102.156 282.373 102.216C284.884 102.695 286.478 104.865 286.039 107.168C285.599 109.47 283.293 111.037 280.782 110.559C278.271 110.08 277.032 107.648 277.471 105.346C277.855 103.331 279.295 102.121 281.442 102.127ZM220.504 107.847L224.306 110.767L221.563 112.358L220.504 107.847ZM304.618 110.237L290.467 120.055L294.623 123.327L301.435 118.02L297.983 126.598L299.753 128.279L308.422 124.741L303.204 131.817L306.387 136.328L316.383 121.999L313.197 118.197L305.059 121.469L308.334 113.242L304.618 110.237ZM256 112.328C224.177 112.328 198.326 138.179 198.326 170.002C198.326 201.824 224.177 227.673 256 227.673C287.822 227.673 313.674 201.824 313.674 170.002C313.674 138.179 287.822 112.328 256 112.328ZM203.167 114.216L196.269 122.176L208.296 132.878L211.66 128.988L207.06 124.918L210.42 121.291L207.501 118.638L204.14 122.354L202.46 120.762L206.087 116.781L203.167 114.216ZM254.885 114.551V160.322H236.943V117.903C242.556 115.849 248.592 114.675 254.885 114.551ZM257.103 114.551C278.222 114.964 296.449 127.192 305.453 144.895C305.336 144.74 305.218 144.587 305.098 144.438C302.892 141.697 300.113 139.88 297.745 138.357C297.557 138.237 297.336 138.176 297.113 138.182C296.768 138.192 296.447 138.363 296.245 138.643C295.694 139.406 294.654 140.04 293.298 140.04H283.081C282.568 140.04 282.081 140.18 281.661 140.484C281.241 140.788 280.868 141.332 280.868 141.976V143.14C280.863 143.147 280.854 143.165 280.81 143.198C280.71 143.275 280.513 143.356 280.294 143.356H271.491L271.499 142.622V142.613V142.608C271.499 141.268 270.815 140.05 269.76 139.281L269.744 139.267L269.73 139.259L265.882 136.65L265.876 136.644L265.871 136.641C265.258 136.237 264.573 136.045 263.927 136.059C263.712 136.064 263.501 136.092 263.298 136.142C262.486 136.341 261.825 136.854 261.398 137.509C260.545 138.82 260.741 140.891 262.383 142.065L264.188 143.445L264.202 143.457L264.215 143.465C264.595 143.737 264.806 144.065 264.806 144.155L264.761 147.08V147.089V147.097C264.761 147.133 264.756 147.142 264.753 147.156C264.703 147.155 264.605 147.144 264.404 147.078C263.977 146.938 263.653 146.758 263.151 146.568C262.648 146.378 262.002 146.227 261.171 146.227C259.708 146.227 258.505 146.887 257.752 147.765C257.488 148.073 257.273 148.403 257.104 148.744V114.551H257.103ZM234.725 118.771V162.54H254.885V175.461H234.725V221.221C230.065 219.283 225.724 216.73 221.807 213.66V175.461H200.805C200.629 173.665 200.538 171.844 200.538 170.001C200.538 167.471 200.709 164.981 201.037 162.54H221.807V126.335C225.724 123.264 230.065 120.71 234.725 118.771ZM272.32 127.297C271.413 127.297 270.678 128.033 270.678 128.939C270.678 129.845 271.413 130.58 272.32 130.58C273.226 130.58 273.961 129.845 273.961 128.939C273.961 128.032 273.226 127.297 272.32 127.297ZM276.501 127.297C275.595 127.297 274.859 128.033 274.859 128.939C274.859 129.845 275.595 130.58 276.501 130.58C277.407 130.58 278.142 129.845 278.142 128.939C278.142 128.032 277.407 127.297 276.501 127.297ZM280.679 127.297C279.773 127.297 279.038 128.033 279.038 128.939C279.038 129.845 279.773 130.58 280.679 130.58C281.585 130.58 282.321 129.845 282.321 128.939C282.321 128.032 281.585 127.297 280.679 127.297ZM284.858 127.297C283.952 127.297 283.216 128.033 283.216 128.939C283.216 129.845 283.952 130.58 284.858 130.58C285.764 130.58 286.499 129.845 286.499 128.939C286.499 128.032 285.764 127.297 284.858 127.297ZM289.039 127.297C288.133 127.297 287.397 128.033 287.397 128.939C287.397 129.845 288.133 130.58 289.039 130.58C289.945 130.58 290.68 129.845 290.68 128.939C290.68 128.032 289.945 127.297 289.039 127.297ZM219.589 128.171V160.322H201.381C203.626 147.576 210.227 136.328 219.589 128.171ZM271.141 131.586V134.248H290.217V131.586H271.141ZM271.141 135.169V137.831H290.217V135.169H271.141ZM324.254 135.18L309.218 141.282L313.463 151.189L317.442 149.509L315.232 144.465L317.09 143.581L319.213 148.447L322.837 146.942L320.805 142.256L322.574 141.46L324.695 146.501L328.41 144.998L324.254 135.18ZM186.891 137.038L184.77 141.723L199.452 148.536L204.14 138.981L200.513 137.124L197.683 142.078L186.891 137.038ZM263.99 138.271C264.165 138.261 264.37 138.307 264.648 138.49L268.485 141.094C268.963 141.443 269.281 142.088 269.281 142.608L269.236 146.204V146.21V146.218C269.236 147.634 269.953 148.841 270.878 149.684C271.423 150.181 272.048 150.573 272.716 150.812C272.048 151.052 271.423 151.444 270.878 151.941C269.953 152.783 269.236 153.99 269.236 155.407V155.415V155.421L269.281 159.031C269.281 159.551 268.93 160.204 268.452 160.553L264.637 163.14C264.266 163.384 264.039 163.381 263.825 163.328C263.61 163.276 263.399 163.123 263.256 162.904C262.971 162.466 262.846 161.955 263.672 161.365L263.686 161.354L263.7 161.343L265.535 159.943C266.156 159.499 267.024 158.752 267.024 157.47V157.461V157.453L266.98 154.511C266.98 153.884 266.754 153.175 266.12 152.695C265.486 152.215 264.58 152.156 263.714 152.44C263.095 152.643 262.69 152.861 262.366 152.983C262.042 153.106 261.767 153.18 261.171 153.18C260.335 153.18 259.822 152.866 259.435 152.415C259.048 151.964 258.85 151.336 258.85 150.923V150.701C258.85 150.288 259.048 149.66 259.435 149.209C259.822 148.758 260.335 148.444 261.171 148.444C261.767 148.444 262.042 148.518 262.366 148.641C262.69 148.763 263.095 148.981 263.714 149.184C264.58 149.468 265.486 149.409 266.12 148.929C266.754 148.449 266.98 147.724 266.98 147.096L267.024 144.171V144.163V144.155C267.024 142.872 266.128 142.106 265.507 141.662L263.7 140.281L263.686 140.27L263.672 140.259C262.846 139.669 262.971 139.158 263.256 138.72C263.399 138.501 263.61 138.349 263.825 138.296C263.878 138.283 263.932 138.275 263.99 138.271ZM297.323 140.736C299.446 142.124 301.648 143.69 303.371 145.83C305.304 148.231 306.673 151.32 306.673 155.875C306.673 164.432 298.682 171.305 290.996 171.305H272.422C271.894 171.305 271.354 171.546 271.027 171.92C270.701 172.294 270.569 172.745 270.573 173.176C270.576 173.607 270.715 174.048 271.039 174.416C271.362 174.783 271.893 175.028 272.422 175.028H290.555C297.075 175.028 300.551 179.224 300.551 184.178C300.551 189.006 296.94 193.544 290.6 193.544H271.915C271.462 193.544 270.981 193.749 270.684 194.079C270.387 194.409 270.263 194.81 270.265 195.194C270.267 195.578 270.393 195.972 270.687 196.298C270.981 196.623 271.46 196.83 271.915 196.83H285.823C288.816 196.83 291.363 199.747 291.363 202.533C291.363 203.946 290.961 205.25 290.073 206.199C289.185 207.147 287.767 207.835 285.382 207.835H277.042C276.709 207.835 276.36 207.907 276.038 208.14C275.716 208.372 275.453 208.816 275.467 209.276C275.481 209.737 275.746 210.132 276.055 210.352C276.364 210.572 276.708 210.652 277.042 210.652H282.573C283.354 210.652 283.931 210.993 284.387 211.547C284.842 212.101 285.108 212.878 285.108 213.499C285.108 214.272 284.822 214.987 284.317 215.435C283.99 215.725 283.538 215.926 282.917 215.975C282.948 215.656 282.953 215.294 282.74 214.861C282.487 214.346 281.781 213.937 281.182 213.937H277.863C276.707 213.937 275.431 213.501 274.489 212.678C273.546 211.856 272.9 210.69 272.9 209.01C272.9 207.466 273.545 206.365 274.461 205.575C275.376 204.784 276.592 204.372 277.488 204.372H285.646C286.014 204.372 286.372 204.308 286.716 204.1C287.059 203.891 287.412 203.453 287.412 202.907C287.411 202.362 287.056 201.923 286.713 201.715C286.37 201.507 286.014 201.446 285.646 201.446H272.866C267.949 201.446 265.211 197.967 265.211 194.215C265.211 190.868 268.078 186.901 272.423 186.901H291.44C291.958 186.901 292.491 186.659 292.807 186.291C293.124 185.922 293.248 185.484 293.245 185.065C293.242 184.647 293.112 184.216 292.799 183.854C292.486 183.491 291.959 183.246 291.44 183.246H272.071C266.656 183.246 262.372 179.231 262.372 173.168C262.372 168.103 266.516 162.909 272.645 162.909H290.201C291.158 162.909 292.017 162.478 292.544 161.85C293.07 161.221 293.305 160.447 293.309 159.684C293.313 158.922 293.086 158.141 292.558 157.508C292.03 156.875 291.165 156.446 290.201 156.446H271.469L271.455 155.395C271.455 154.746 271.808 154.094 272.373 153.579C272.938 153.064 273.699 152.769 274.164 152.769H284.661C285.068 152.769 285.47 152.675 285.865 152.403C286.26 152.131 286.627 151.544 286.627 150.812C286.627 150.057 286.403 149.676 285.865 149.22C285.47 148.948 285.068 148.854 284.661 148.854H274.164C273.699 148.854 272.938 148.559 272.373 148.045C271.808 147.53 271.455 146.866 271.455 146.217L271.463 145.574H284.276C284.985 145.574 285.632 145.347 286.142 144.956C286.651 144.565 287.068 143.965 287.068 143.209V142.258H293.298C294.914 142.258 296.318 141.656 297.323 140.736ZM308.628 152.487C310.459 157.992 311.45 163.882 311.45 170.001C311.45 189.373 301.516 206.423 286.463 216.338C287.05 215.502 287.325 214.494 287.325 213.499C287.325 212.313 286.9 211.111 286.1 210.138C286.068 210.1 286.03 210.065 285.997 210.027C288.52 209.906 290.441 209.052 291.692 207.715C293.045 206.27 293.58 204.371 293.58 202.533C293.58 199.817 292.06 197.203 289.757 195.762H290.6C298.03 195.762 302.769 190.149 302.769 184.178C302.769 179.115 299.476 174.58 293.999 173.229C301.863 171.751 308.891 164.675 308.891 155.875C308.891 154.67 308.797 153.543 308.628 152.487ZM257.103 152.881C257.273 153.222 257.488 153.552 257.752 153.859C258.505 154.738 259.708 155.398 261.171 155.398C262.002 155.398 262.648 155.247 263.15 155.057C263.653 154.867 263.977 154.687 264.404 154.547C264.605 154.481 264.702 154.47 264.753 154.469C264.756 154.483 264.761 154.493 264.761 154.528V154.536V154.544L264.806 157.486C264.806 157.577 264.595 157.888 264.215 158.16L264.201 158.168L264.188 158.18L262.355 159.583C260.713 160.756 260.545 162.805 261.398 164.116C261.761 164.673 262.295 165.126 262.946 165.372C261.169 167.596 260.154 170.375 260.154 173.168C260.154 179.329 264.149 184 269.448 185.171C265.479 186.527 262.993 190.492 262.993 194.216C262.993 199.098 266.86 203.665 272.866 203.665H273.302C273.204 203.741 273.105 203.813 273.011 203.895C271.68 205.044 270.682 206.816 270.682 209.01C270.682 211.291 271.646 213.145 273.027 214.35C274.409 215.556 276.168 216.155 277.863 216.155H280.641C280.583 216.358 280.519 216.546 280.519 216.546C280.383 216.854 280.394 217.207 280.55 217.506C280.705 217.804 280.987 218.017 281.318 218.083C282.111 218.24 282.862 218.25 283.541 218.135C275.725 222.617 266.714 225.251 257.104 225.438V152.881H257.103ZM197.33 154.813L180.082 160.475L179.463 165.604L195.828 174.449L195.739 168.524L193.266 167.379L193.637 161.287L196.535 160.563L197.33 154.813ZM324.166 155.345C318.392 155.345 315.498 160.076 315.498 164.808C315.498 169.54 318.922 174.274 324.166 174.274C329.407 174.274 332.922 169.982 332.922 164.808C332.921 159.722 329.85 155.345 324.166 155.345ZM271.493 158.664H290.2C290.58 158.664 290.719 158.767 290.855 158.93C290.991 159.094 291.092 159.375 291.091 159.673C291.089 159.972 290.984 160.257 290.844 160.425C290.704 160.592 290.563 160.691 290.201 160.691H272.644C272.11 160.691 271.588 160.725 271.078 160.788C271.347 160.247 271.499 159.646 271.499 159.016V159.011V159.002L271.493 158.664ZM324.276 160.475C326.821 160.475 328.305 162.851 328.305 164.809C328.305 166.722 326.766 169.142 324.276 169.142C321.785 169.142 320.336 167.042 320.336 164.809C320.336 162.575 321.732 160.475 324.276 160.475ZM189.756 162.258L189.545 165.651L184.859 163.48L189.756 162.258ZM201.065 177.679H219.589V211.824C209.74 203.246 202.946 191.246 201.065 177.679ZM236.943 177.679H254.885V225.438C248.592 225.314 242.556 224.139 236.943 222.086V177.679Z" fill="url(#paint3_linear_1561_9915)"/>
<path d="M263.991 138.271C264.165 138.261 264.37 138.307 264.648 138.49L268.485 141.094C268.963 141.443 269.281 142.088 269.281 142.608L269.237 146.204V146.21V146.218C269.237 147.634 269.953 148.841 270.878 149.684C271.423 150.181 272.048 150.573 272.716 150.812C272.048 151.052 271.423 151.444 270.878 151.941C269.953 152.783 269.237 153.99 269.237 155.407V155.415V155.421L269.281 159.031C269.281 159.551 268.93 160.204 268.452 160.553L264.637 163.14C264.266 163.384 264.039 163.381 263.825 163.328C263.61 163.276 263.399 163.123 263.256 162.904C262.971 162.466 262.847 161.956 263.672 161.365L263.686 161.354L263.7 161.343L265.535 159.943C266.156 159.499 267.024 158.752 267.024 157.47V157.461V157.453L266.98 154.511C266.98 153.884 266.754 153.175 266.12 152.695C265.486 152.215 264.58 152.156 263.714 152.44C263.095 152.643 262.69 152.861 262.366 152.983C262.042 153.106 261.767 153.18 261.171 153.18C260.335 153.18 259.822 152.866 259.435 152.415C259.049 151.964 258.85 151.336 258.85 150.923V150.701C258.85 150.289 259.049 149.661 259.435 149.209C259.822 148.758 260.335 148.444 261.171 148.444C261.767 148.444 262.042 148.518 262.366 148.641C262.69 148.763 263.095 148.981 263.714 149.184C264.58 149.469 265.486 149.409 266.12 148.929C266.754 148.449 266.98 147.724 266.98 147.096L267.024 144.171V144.163V144.155C267.024 142.872 266.128 142.106 265.507 141.662L263.7 140.281L263.686 140.27L263.672 140.259C262.847 139.669 262.971 139.158 263.256 138.72C263.399 138.501 263.61 138.349 263.825 138.296C263.878 138.283 263.932 138.275 263.991 138.271Z" fill="#9D0D16"/>
<path d="M297.324 140.736C299.446 142.124 301.648 143.69 303.371 145.83C305.304 148.231 306.673 151.321 306.673 155.875C306.673 164.432 298.682 171.305 290.996 171.305H272.422C271.894 171.305 271.354 171.546 271.028 171.92C270.701 172.294 270.569 172.745 270.573 173.176C270.576 173.607 270.715 174.048 271.039 174.416C271.362 174.783 271.894 175.028 272.422 175.028H290.556C297.075 175.028 300.551 179.225 300.551 184.178C300.551 189.006 296.94 193.544 290.6 193.544H271.915C271.462 193.544 270.981 193.75 270.684 194.08C270.387 194.409 270.263 194.81 270.265 195.194C270.268 195.578 270.393 195.972 270.687 196.298C270.981 196.623 271.461 196.83 271.915 196.83H285.823C288.816 196.83 291.363 199.747 291.363 202.533C291.363 203.946 290.961 205.251 290.073 206.199C289.186 207.147 287.767 207.835 285.382 207.835H277.042C276.709 207.835 276.36 207.907 276.038 208.14C275.716 208.372 275.453 208.816 275.467 209.276C275.481 209.737 275.746 210.132 276.055 210.352C276.364 210.572 276.708 210.652 277.042 210.652H282.573C283.354 210.652 283.931 210.993 284.387 211.547C284.843 212.101 285.108 212.878 285.108 213.499C285.108 214.273 284.822 214.987 284.318 215.435C283.99 215.725 283.538 215.926 282.917 215.975C282.948 215.656 282.953 215.294 282.74 214.861C282.487 214.347 281.781 213.937 281.182 213.937H277.863C276.707 213.937 275.431 213.502 274.489 212.679C273.546 211.856 272.9 210.69 272.9 209.01C272.9 207.466 273.545 206.366 274.461 205.575C275.376 204.784 276.593 204.372 277.489 204.372H285.646C286.014 204.372 286.373 204.308 286.716 204.1C287.059 203.892 287.412 203.453 287.412 202.907C287.411 202.362 287.056 201.923 286.713 201.715C286.37 201.507 286.014 201.446 285.646 201.446H272.866C267.949 201.446 265.211 197.967 265.211 194.215C265.211 190.868 268.078 186.901 272.423 186.901H291.441C291.958 186.901 292.491 186.659 292.807 186.291C293.124 185.922 293.248 185.484 293.245 185.065C293.242 184.647 293.113 184.216 292.799 183.854C292.486 183.491 291.959 183.247 291.441 183.247H272.071C266.656 183.247 262.372 179.231 262.372 173.168C262.372 168.103 266.516 162.909 272.645 162.909H290.201C291.158 162.909 292.017 162.478 292.544 161.85C293.07 161.222 293.305 160.447 293.309 159.684C293.313 158.922 293.086 158.141 292.558 157.508C292.03 156.875 291.165 156.446 290.201 156.446H271.469L271.455 155.395C271.455 154.746 271.808 154.094 272.373 153.579C272.938 153.064 273.699 152.769 274.164 152.769H284.662C285.068 152.769 285.47 152.675 285.865 152.403C286.26 152.131 286.627 151.544 286.627 150.812C286.627 150.057 286.403 149.676 285.865 149.22C285.47 148.948 285.068 148.854 284.662 148.854H274.164C273.699 148.854 272.938 148.56 272.373 148.045C271.808 147.53 271.455 146.866 271.455 146.217L271.464 145.574H284.276C284.985 145.574 285.632 145.347 286.142 144.956C286.652 144.565 287.068 143.965 287.068 143.209V142.258H293.299C294.914 142.259 296.318 141.656 297.324 140.736Z" fill="url(#paint4_linear_1561_9915)"/>
<path d="M461.707 335.014H458.186C458.186 335.014 457.893 335.014 457.893 335.307C458.186 338.821 454.666 341.749 449.679 343.214C448.212 328.571 418.583 340.578 415.356 354.928C401.861 361.663 395.7 356.392 395.114 354.342C395.114 354.342 414.182 348.778 415.062 339.699C415.356 332.085 389.54 337.942 384.846 354.635C379.566 357.563 373.112 357.563 373.112 356.392C372.818 353.756 381.326 346.728 383.086 342.628C384.846 337.942 379.859 338.235 379.859 338.235C375.752 338.821 364.311 342.335 364.311 342.335C365.778 333.842 353.456 340.578 344.949 342.335C345.536 336.478 340.255 337.649 321.773 342.921C320.307 328.278 290.384 340.285 287.157 354.635C279.823 358.149 276.596 357.271 276.596 354.928C276.889 351.706 283.05 345.264 280.703 340.871C307.399 333.842 302.998 313.635 290.09 308.071C291.557 306.9 293.024 306.021 294.198 305.436C294.198 305.436 294.491 305.143 293.904 305.143H288.917C288.624 305.143 288.624 305.143 288.33 305.436C287.744 305.728 286.864 306.314 286.277 306.9C242.566 295.479 210.59 339.114 241.686 343.214L248.14 337.649C249.607 336.478 249.02 336.185 247.846 336.185C244.913 336.185 242.859 335.599 241.686 334.721C227.898 324.764 254.007 304.264 280.116 311.585C264.275 323.592 245.5 361.663 227.898 350.242C227.311 349.949 227.018 350.242 226.431 350.535C223.204 354.049 217.63 358.442 217.63 358.442C217.044 358.735 217.044 359.613 217.63 359.906C239.339 369.57 251.66 355.513 263.688 338.821C264.861 341.164 268.382 344.092 274.249 342.628C274.249 345.849 262.808 356.392 262.221 358.442C259.581 366.642 278.356 361.956 286.863 358.149C292.437 370.156 316.2 357.856 320.307 347.021C331.748 343.214 329.694 347.314 328.814 348.778C321.773 357.563 317.666 361.663 317.666 362.542C317.666 362.835 317.96 363.128 318.253 363.128H325.881C327.054 363.128 327.641 362.542 328.521 361.956C329.107 361.371 339.082 349.364 341.135 347.021C353.456 342.042 348.176 348.778 348.176 348.778C341.135 357.271 337.028 361.663 337.028 362.542C337.028 362.835 337.322 363.128 337.615 363.128H345.242C346.416 363.128 347.003 362.542 347.883 361.956C348.469 361.371 359.03 348.778 360.497 346.728C372.232 342.628 367.244 348.485 366.658 349.071C366.071 349.949 359.617 357.271 359.324 358.442C358.15 364.299 364.604 365.471 384.553 357.563C390.42 369.278 412.422 358.442 414.769 357.271C414.769 357.563 414.769 357.856 415.062 358.149C420.636 370.156 444.398 357.856 448.505 347.021C460.24 343.799 462 335.599 462 335.307C462 335.014 462 335.014 461.707 335.014ZM283.93 313.635C296.838 322.128 287.45 332.964 278.356 337.064C276.596 335.014 272.782 332.378 267.208 334.428C272.489 327.107 277.769 319.493 283.93 313.635ZM266.915 337.357C269.262 334.721 274.542 337.064 274.542 338.821C269.849 340.871 266.622 337.649 266.915 337.357ZM317.373 344.678C311.799 347.606 312.973 351.414 312.386 351.999C305.345 358.149 300.358 357.856 298.891 356.099C294.491 351.121 310.626 335.599 317.08 341.164C317.666 341.749 317.666 343.214 317.373 344.678ZM408.022 339.699C408.902 339.407 409.195 339.992 408.902 340.871C406.848 348.485 394.234 351.706 394.234 351.706C394.234 351.706 395.7 341.457 408.022 339.699ZM445.278 344.971C439.705 347.314 441.171 351.414 440.291 351.999C433.251 358.149 428.263 357.856 426.797 356.099C422.396 351.121 438.531 335.599 444.985 341.164C445.865 341.749 445.865 343.506 445.278 344.971ZM217.044 349.656H212.937C212.937 349.656 212.643 349.656 212.643 349.949C210.883 353.171 205.016 356.978 199.149 358.442C188.294 361.663 194.748 352.878 194.748 352.878C204.429 341.164 205.016 340.285 205.896 339.114C206.189 338.821 205.603 338.528 205.016 338.528H197.975C196.215 338.528 195.042 339.407 194.161 340.285L193.868 339.992C190.934 335.307 179.493 335.892 170.986 341.457C165.119 345.264 161.305 350.242 160.132 354.342C155.731 354.342 151.917 353.756 148.69 352.878L156.611 343.214C173.333 338.528 200.615 312.171 187.121 312.464C175.68 313.928 160.425 325.935 140.77 348.778C140.183 348.192 136.663 345.849 134.609 347.606C133.436 348.485 133.729 350.535 135.196 351.999C114.661 359.613 115.834 355.513 117.594 352.878C119.061 350.828 124.342 343.214 124.342 343.214C144.877 336.771 171.866 308.657 153.384 312.757C145.464 314.514 129.329 324.471 106.447 351.706C95.8855 356.685 87.9648 359.613 95.2988 349.949C102.926 340.285 126.688 313.635 126.688 312.757C126.688 312.464 126.395 312.171 125.808 312.171H116.127C114.661 312.171 113.487 313.343 112.607 314.221C107.033 310.707 99.6992 311.878 99.6992 311.878C72.4166 313.928 48.0677 339.699 50.1212 354.342C50.7079 358.149 54.2283 363.421 62.149 363.421C63.9092 363.421 70.6565 362.542 77.9905 359.028C77.9905 359.028 74.7635 368.399 102.046 358.735C102.046 359.028 97.939 368.985 132.849 356.978C132.556 357.563 120.528 370.742 114.367 376.892C100.286 391.242 90.3117 381.87 89.7249 381.285H89.4316L86.7913 383.627C86.7913 383.627 86.498 383.92 86.7913 384.213C109.38 400.906 133.436 369.57 145.464 356.978C149.277 357.856 154.264 358.149 160.132 357.271C160.132 358.442 160.425 359.321 161.012 360.199C163.652 364.299 173.039 364.299 180.96 360.199C180.96 360.199 182.134 366.056 198.268 362.249C206.189 360.492 214.99 354.635 217.337 350.242C217.337 349.949 217.044 349.656 217.044 349.656ZM180.96 317.443C184.187 315.393 184.187 319.785 179.493 324.764C168.346 336.478 159.545 338.235 159.545 338.235C159.545 338.235 171.279 323.3 180.96 317.443ZM149.864 317.443C153.091 315.393 153.091 319.785 148.397 324.764C137.249 336.478 128.449 338.235 128.449 338.235C128.449 338.235 140.183 323.3 149.864 317.443ZM69.7764 355.513C53.0548 353.464 67.7229 333.257 83.8577 322.714C95.2988 315.1 107.327 313.05 108.207 319.2C107.913 320.957 106.74 323.3 103.806 326.521C100.873 329.742 91.7785 340.285 84.4444 348.778C79.1639 353.756 73.0034 355.806 69.7764 355.513ZM190.641 344.678C188.294 347.606 185.067 351.414 182.72 354.635C178.027 357.856 173.333 358.735 171.573 356.685C169.519 354.342 171.866 348.778 177.147 344.678C182.134 340.285 188.001 338.821 190.054 341.164C190.641 342.042 190.934 343.214 190.641 344.678Z" fill="#221F20"/>
<defs>
<linearGradient id="paint0_linear_1561_9915" x1="222.701" y1="132.585" x2="258.4" y2="229.525" gradientUnits="userSpaceOnUse">
<stop stop-color="white"/>
<stop offset="1" stop-color="#53EEEF"/>
</linearGradient>
<linearGradient id="paint1_linear_1561_9915" x1="257.762" y1="116.999" x2="295.126" y2="224.096" gradientUnits="userSpaceOnUse">
<stop stop-color="#2F7FBE"/>
<stop offset="1" stop-color="#225D8B"/>
</linearGradient>
<linearGradient id="paint2_linear_1561_9915" x1="209.254" y1="131.01" x2="258.386" y2="227.026" gradientUnits="userSpaceOnUse">
<stop stop-color="#D50D16"/>
<stop offset="0.5" stop-color="#880D16"/>
<stop offset="1" stop-color="#520D16"/>
</linearGradient>
<linearGradient id="paint3_linear_1561_9915" x1="198.483" y1="120.873" x2="307.009" y2="213.568" gradientUnits="userSpaceOnUse">
<stop stop-color="#F8FFBF"/>
<stop offset="0.5089" stop-color="#F8E45E"/>
<stop offset="0.75" stop-color="#F8D35E"/>
<stop offset="1" stop-color="#EE8E0A"/>
</linearGradient>
<linearGradient id="paint4_linear_1561_9915" x1="276.673" y1="146.564" x2="298.686" y2="212.016" gradientUnits="userSpaceOnUse">
<stop stop-color="#157031"/>
<stop offset="1" stop-color="#0F5324"/>
</linearGradient>
</defs>
</svg>
