<svg width="512" height="512" viewBox="0 0 512 512" fill="none" xmlns="http://www.w3.org/2000/svg">
<path d="M451.545 170.855C450.164 168.568 447.635 168.396 446.619 168.36H287.981C283.488 168.36 279.859 169.721 277.175 172.41C275.248 174.329 273.92 176.831 273.233 179.848C273.222 179.918 273.035 180.548 271.678 180.548H240.32C238.963 180.548 238.776 179.918 238.765 179.848C238.078 176.831 236.752 174.329 234.823 172.41C232.139 169.721 228.51 168.36 224.019 168.36H65.3794C64.3631 168.396 61.8341 168.57 60.453 170.855C59.7977 171.971 59.3053 173.85 60.7277 176.475C60.7394 176.498 63.6333 181.306 63.6333 181.306C64.8143 183.241 66.17 183.96 69.0246 184.14C69.0658 184.144 70.3881 184.281 71.3141 185.891L74.2726 191.083C74.8946 192.274 76.366 195.067 81.3845 195.745C81.4689 195.757 82.9325 195.92 83.7408 197.457C83.7525 197.474 87.3938 203.879 87.3938 203.879C88.4572 205.939 89.9482 206.702 92.6557 207.537C92.6616 207.537 159.003 226.994 159.003 226.994C161.258 227.66 162.18 230.202 162.18 230.202C163.765 234.293 165.823 237.658 176.18 240.78C176.186 240.784 230.46 255.576 230.46 255.576C231.123 255.796 237.34 257.685 242.023 253.172C242.023 253.172 254.719 241.067 254.752 241.043C254.756 241.031 255.284 240.494 256.002 240.494C256.718 240.494 257.248 241.029 257.252 241.043C257.285 241.067 269.981 253.172 269.981 253.172C274.664 257.685 280.879 255.796 281.544 255.576C281.544 255.576 335.816 240.786 335.824 240.78C346.181 237.658 348.239 234.291 349.824 230.202C349.824 230.202 350.744 227.66 352.999 226.994C352.999 226.994 419.342 207.537 419.346 207.537C422.054 206.702 423.545 205.939 424.608 203.879C424.608 203.879 428.249 197.472 428.261 197.457C429.069 195.92 430.533 195.759 430.617 195.745C435.636 195.067 437.107 192.274 437.727 191.083L440.688 185.891C441.614 184.281 442.936 184.146 442.977 184.14C445.83 183.96 447.188 183.241 448.369 181.306C448.369 181.306 451.262 176.498 451.272 176.475C452.695 173.85 452.202 171.971 451.545 170.855ZM242.247 207.862H247.725L239.783 236.478C235.365 235.876 231.047 235.038 226.825 233.946C232.6 224.181 240.313 211.133 242.247 207.862ZM239.581 207.862L224.529 233.323C220.468 232.18 216.503 230.802 212.628 229.185C220.841 220.637 230.721 210.347 233.106 207.862H239.581ZM204.147 207.862H218.355L198.518 222.045C195.073 219.967 191.724 217.68 188.471 215.189C195.919 211.706 202.815 208.485 204.147 207.862ZM186.447 213.603C186.274 213.462 181.744 209.659 179.821 207.862H198.73L186.447 213.603ZM222.298 207.862H229.922L210.38 228.223C207.074 226.764 203.845 225.124 200.686 223.323C210.064 216.612 219.84 209.618 222.298 207.862ZM224.019 171.31C227.696 171.31 230.627 172.384 232.738 174.495C234.262 176.018 235.32 178.031 235.883 180.487C235.883 180.487 235.996 180.906 236.14 181.21H158.209C157.018 179.256 155.054 175.71 155.054 175.71C154.968 175.552 153.649 173.182 151.144 171.31C188.54 171.31 224.019 171.31 224.019 171.31ZM171.085 198.801C170.059 197.613 169.076 196.445 168.138 195.285L175.111 194.346V197.976L171.085 198.801ZM175.109 200.312V203.199C174.332 202.396 173.578 201.584 172.849 200.779C173.755 200.587 174.516 200.434 175.109 200.312ZM166.48 193.195C165.546 191.986 164.662 190.802 163.826 189.642L175.109 188.895V192.033L166.48 193.195ZM175.109 186.514L162.217 187.366C161.287 186.03 160.432 184.734 159.643 183.499H175.107L175.109 186.514ZM69.2384 181.21C67.2216 181.059 66.7938 180.82 66.1601 179.781C66.166 179.789 63.5292 175.409 63.3193 175.062C62.8818 174.256 62.7386 173.66 62.7563 173.241C62.8053 172.167 63.5351 171.34 65.4597 171.31L144.528 171.316C149.881 171.316 153.035 176.804 153.035 176.804C153.73 178.096 154.56 179.577 155.529 181.21H69.2384ZM79.9543 192.4C77.9394 191.706 77.2999 190.499 76.8879 189.715C75.6558 187.621 74.0353 184.493 73.2388 183.497H156.93C157.734 184.781 158.605 186.134 159.561 187.541L86.1402 192.413C84.9847 192.555 81.6357 192.821 79.9543 192.4ZM93.517 202.966C90.8449 203.323 90.0052 202.441 89.8522 202.231L86.3364 196.047C86.097 195.587 85.8146 195.203 85.5203 194.863C85.9715 194.822 161.134 189.822 161.134 189.822C161.991 191.03 162.896 192.272 163.863 193.539L93.517 202.966ZM110.572 209.724C103.285 207.576 97.3623 205.845 94.8354 205.108L165.488 195.636C166.453 196.849 167.461 198.08 168.519 199.322L120.177 209.252C118.382 209.622 113.226 210.418 110.572 209.724ZM134.527 216.747C129.131 215.167 123.446 213.499 118.082 211.921C119.512 211.723 120.534 211.514 120.642 211.49C120.636 211.496 155.662 204.303 170.247 201.31C171.689 202.925 173.202 204.548 174.805 206.175L142.416 216.157C142.343 216.18 137.925 217.645 134.527 216.747ZM159.786 224.158C159.096 223.954 151.403 221.696 141.488 218.783C142.433 218.574 143.055 218.364 143.124 218.34C143.094 218.352 170.312 209.963 176.649 208.009C178.974 210.261 181.467 212.502 184.135 214.683L166.618 222.874C165.462 223.456 162.084 224.779 159.786 224.158ZM173.824 236.88C166.969 234.297 165.943 231.723 164.968 229.228C164.887 229.007 164.387 227.676 163.263 226.398C165.584 225.959 167.502 224.998 167.628 224.934C167.608 224.938 176.9 220.606 186.137 216.28C189.484 218.905 192.94 221.316 196.488 223.497L180.112 235.2C180.061 235.253 176.664 237.774 173.824 236.88ZM193.472 242.435L178.96 238.485C180.408 237.856 181.397 237.113 181.477 237.049C181.465 237.06 189.586 231.255 198.636 224.787C201.906 226.694 205.255 228.432 208.689 229.983L199.156 239.906C198.304 240.802 195.65 242.954 193.472 242.435ZM213.607 247.925L197.988 243.665C199.609 242.744 200.731 241.582 200.818 241.496C200.818 241.496 205.283 236.839 210.923 230.963C214.953 232.678 219.079 234.148 223.313 235.369L218.153 244.105C217.525 245.235 215.42 248.211 213.607 247.925ZM233.944 252.231C233.059 252.766 232.031 252.889 230.811 252.609L217.16 248.893C218.828 247.533 219.952 245.596 220.144 245.239C220.136 245.247 222.455 241.331 225.6 236.006C230.015 237.172 234.535 238.078 239.157 238.711L236.514 248.223C236.518 248.252 235.894 251.041 233.944 252.231ZM239.981 251.033C238.941 252.043 237.774 252.609 236.644 252.913C238.156 251.21 238.682 249.067 238.761 248.736L241.464 239.01C244.854 239.402 248.305 239.657 251.803 239.775C249.002 242.435 239.981 251.033 239.981 251.033ZM254.852 237.54C250.509 237.505 246.257 237.237 242.086 236.764L250.108 207.862H254.85V237.54H254.852ZM276.117 180.487C276.671 178.031 277.732 176.018 279.256 174.495C281.367 172.384 284.304 171.31 287.975 171.31C287.975 171.31 323.46 171.31 360.852 171.31C358.347 173.184 357.03 175.552 356.942 175.71C356.098 177.29 355.043 179.14 353.791 181.212H275.858C276.019 180.926 276.117 180.487 276.117 180.487ZM336.868 197.972V194.342L343.866 195.281C342.926 196.443 341.939 197.615 340.909 198.797C339.106 198.429 337.717 198.146 336.868 197.972ZM339.151 200.779C338.416 201.59 337.65 202.411 336.868 203.225V200.314L339.151 200.779ZM336.868 192.033V188.895L348.182 189.642C347.346 190.802 346.454 191.986 345.522 193.195L336.868 192.033ZM336.868 186.514V183.497H352.361C351.574 184.732 350.711 186.03 349.789 187.364L336.868 186.514ZM293.635 207.862H307.847L323.523 215.189C320.266 217.68 316.917 219.967 313.474 222.049C305.909 216.637 297.938 210.935 293.635 207.862ZM311.308 223.323C308.159 225.126 304.922 226.764 301.624 228.223C294.506 220.814 285.937 211.88 282.074 207.862H289.698L311.308 223.323ZM313.264 207.862H332.175C330.248 209.775 325.699 213.48 325.55 213.603C320.951 211.449 316.466 209.362 313.264 207.862ZM272.413 207.862H278.89L299.366 229.191C295.499 230.8 291.53 232.172 287.469 233.321L272.413 207.862ZM269.747 207.862L285.172 233.94C280.95 235.038 276.626 235.876 272.213 236.478L264.271 207.862H269.747ZM257.148 237.546V207.862H261.892L269.91 236.764C265.737 237.243 261.483 237.505 257.148 237.546ZM270.036 249.152C270.036 249.152 262.686 242.143 260.191 239.775C263.689 239.651 267.142 239.395 270.532 238.999L273.235 248.742C273.312 249.081 273.851 251.217 275.354 252.915C273.28 252.325 272.655 251.711 270.036 249.152ZM281.183 252.609C279.963 252.889 278.933 252.766 278.046 252.231C276.145 251.068 275.513 248.397 275.476 248.238L272.833 238.711C277.453 238.07 281.968 237.164 286.38 235.998L291.864 245.269C292.052 245.6 293.162 247.538 294.832 248.891L281.183 252.609ZM298.389 247.925C296.574 248.211 294.469 245.235 293.857 244.126L288.676 235.365C292.907 234.146 297.047 232.686 301.069 230.965L311.175 241.502C311.265 241.59 312.383 242.75 314.004 243.665L298.389 247.925ZM321.104 241.735L318.522 242.435C316.348 242.956 313.692 240.802 312.842 239.908C312.842 239.908 308.671 235.575 303.315 229.985C306.743 228.432 310.092 226.702 313.36 224.787L330.542 237.068C330.613 237.125 331.594 237.86 333.036 238.485C329.218 239.522 321.104 241.735 321.104 241.735ZM347.034 229.216C346.057 231.719 345.035 234.297 338.155 236.88C335.314 237.762 331.936 235.253 331.906 235.224C331.892 235.212 324.231 229.734 315.506 223.497C319.054 221.31 322.508 218.907 325.863 216.28L344.403 224.949C344.505 225.002 346.416 225.967 348.733 226.398C347.625 227.658 347.125 228.958 347.034 229.216ZM352.212 224.158C349.914 224.781 346.53 223.456 345.406 222.891C345.406 222.891 336.748 218.844 327.861 214.689C330.529 212.501 333.024 210.267 335.347 208.009L368.898 218.352C368.961 218.376 369.573 218.574 370.505 218.783L352.212 224.158ZM377.485 216.741C374.087 217.65 369.651 216.18 369.606 216.169L369.555 216.151C369.555 216.151 369.547 216.147 369.543 216.147L337.19 206.177C338.792 204.55 340.319 202.933 341.753 201.312L391.356 211.498C391.466 211.516 392.48 211.725 393.908 211.923L377.485 216.741ZM401.446 209.716C398.797 210.418 393.618 209.624 391.819 209.252C391.819 209.252 358.731 202.458 343.483 199.326C344.541 198.084 345.557 196.853 346.518 195.634L417.161 205.106L401.446 209.716ZM425.64 196.077C425.66 196.053 422.752 201.165 422.148 202.227C422.001 202.425 421.175 203.323 418.485 202.966L348.141 193.539C349.106 192.278 350.02 191.028 350.878 189.822L425.603 194.775C425.713 194.787 426.027 194.822 426.476 194.862C426.168 195.214 425.887 195.61 425.64 196.077ZM438.12 184.43L435.106 189.717C434.694 190.499 434.061 191.706 432.046 192.4C430.364 192.819 427.015 192.553 425.856 192.412L352.445 187.539C353.395 186.134 354.276 184.779 355.076 183.495H438.751C438.534 183.778 438.32 184.08 438.12 184.43ZM448.675 175.062C448.633 175.126 445.83 179.789 445.83 179.789C445.298 180.665 444.969 181.061 442.781 181.2C442.767 181.2 356.475 181.212 356.475 181.212C357.44 179.579 358.268 178.098 358.965 176.808C358.988 176.763 362.045 171.32 367.473 171.32L446.536 171.314C447.366 171.349 448.445 171.441 449.014 172.382C449.083 172.51 449.246 172.772 449.246 173.245C449.244 173.66 449.11 174.256 448.675 175.062Z" fill="black"/>
<path d="M177.44 205.569C177.428 205.557 177.418 205.546 177.406 205.534V183.509H334.576V205.546C334.573 205.557 334.565 205.557 334.559 205.563L177.44 205.569Z" fill="url(#paint0_linear_1563_15776)"/>
<path d="M187.849 187.027H187.194L180.479 202.039H182.297L182.327 201.953C182.87 200.126 183.57 198.376 184.251 196.696C184.251 196.696 184.347 196.455 184.393 196.341C184.557 196.341 189.421 196.341 189.586 196.341C190.288 197.937 191.006 199.771 191.777 201.959L191.808 202.041H194.318L187.849 187.027ZM184.899 195.195C185.036 194.863 186.8 190.738 187.01 190.248C187.216 190.738 189.013 194.861 189.156 195.195C188.801 195.195 185.242 195.195 184.899 195.195ZM195.038 200.971L195.095 201.028C195.887 201.892 197.676 202.294 198.64 202.294C201.791 202.294 203.998 200.263 203.998 197.349C203.998 194.932 202.167 194.221 200.398 193.521C198.826 192.896 197.331 192.319 197.331 190.534C197.331 189.179 198.4 188.201 199.866 188.201C201.037 188.201 201.922 188.819 202.371 189.952L202.403 190.034H202.803L203.429 188.139L203.36 188.074C202.503 187.304 201.186 187.029 200.251 187.029C197.312 187.029 195.418 188.668 195.418 191.212C195.418 193.803 197.353 194.556 199.056 195.232C200.596 195.826 202.04 196.398 202.04 198.178C202.04 199.828 200.808 201.13 199.238 201.13C197.8 201.13 196.847 200.512 195.919 198.995L195.883 198.938H195.483L195.038 200.971ZM215.854 187.337H204.804V188.884L204.947 188.872C206.215 188.738 207.441 188.621 209.44 188.615C209.44 188.878 209.44 202.086 209.44 202.086H211.563C211.563 202.086 211.563 188.884 211.563 188.621C213.064 188.621 214.498 188.707 215.838 188.872L215.987 188.889V187.337H215.854ZM223.468 187.027C218.781 187.027 215.502 190.185 215.502 194.695C215.502 199.246 218.691 202.296 223.427 202.296C228.322 202.296 231.619 199.111 231.619 194.373C231.619 189.295 227.523 187.027 223.468 187.027ZM227.392 199.675C226.348 200.779 225.039 201.339 223.483 201.339C220.052 201.339 217.833 198.83 217.833 194.952C217.833 190.651 220.076 187.984 223.676 187.984C225.375 187.984 226.98 188.731 227.968 189.979C229.057 191.367 229.279 192.815 229.279 194.548C229.285 194.642 229.291 194.746 229.291 194.846C229.291 196.257 228.716 198.258 227.392 199.675ZM246.336 187.337H245.019C245.019 187.337 245.019 197.96 245.019 198.217C245.007 198.217 245.004 198.217 244.996 198.217C244.919 198.129 234.943 187.337 234.943 187.337H233.927V202.037H235.374C235.374 202.037 235.374 190.924 235.374 190.661C235.386 190.661 235.394 190.661 235.406 190.661C235.484 190.749 244.499 200.72 244.499 200.72L245.629 202.037H245.698H246.469V187.337H246.336ZM270.116 187.337H269.594L266.029 193.793C266.029 193.793 263.775 197.901 263.569 198.27C261.372 194.605 259.39 190.749 257.705 187.408L257.67 187.337H256.922L256.91 187.459C256.7 189.63 255.435 198.48 254.882 201.892L254.852 202.039H256.636V201.912C256.636 199.84 257.003 196.753 257.395 193.48C257.395 193.48 257.56 192.033 257.628 191.455C257.88 191.933 260.648 197.184 261.705 199.348L262.9 201.81H263.3L263.336 201.727C264.568 198.903 266.304 195.677 268.682 191.43C269.019 193.962 269.465 199.021 269.71 201.919L269.724 202.037H271.978L271.958 201.89C271.448 198.325 270.895 193.605 270.243 187.457L270.232 187.335H270.116V187.337ZM280.206 187.027H279.547L272.827 202.039H274.656L274.681 201.953C275.227 200.108 275.931 198.352 276.612 196.661C276.612 196.661 276.698 196.451 276.737 196.341C276.904 196.341 281.766 196.341 281.934 196.341C282.649 197.974 283.384 199.852 284.12 201.959L284.151 202.041H286.665L280.206 187.027ZM277.251 195.195C277.389 194.863 279.154 190.738 279.362 190.248C279.572 190.738 281.365 194.861 281.509 195.195C281.156 195.195 277.599 195.195 277.251 195.195ZM293.129 194.775C295.786 194.24 297.373 192.729 297.373 190.687C297.373 188.441 295.795 187.339 292.544 187.339H287.932V202.041H290.049C290.049 202.041 290.049 195.25 290.049 194.995C290.216 194.995 290.575 194.995 290.665 194.995C290.734 195.081 292.315 196.937 292.315 196.937C292.307 196.931 294.808 200.163 294.808 200.163L296.178 202.041H296.251H298.952C298.954 202.039 293.38 195.085 293.129 194.775ZM290.051 193.934C290.051 193.701 290.051 188.615 290.051 188.38C290.922 188.339 292.278 188.282 293.011 188.399C294.481 188.638 295.228 189.495 295.228 190.936C295.228 192.413 294.257 193.491 292.621 193.819C291.701 194.005 290.586 193.972 290.051 193.934ZM309.621 187.337H298.569V188.884L298.713 188.872C299.982 188.738 301.206 188.621 303.198 188.615C303.198 188.878 303.198 202.086 303.198 202.086H305.332C305.332 202.086 305.332 188.884 305.332 188.621C306.827 188.621 308.263 188.707 309.605 188.872L309.754 188.889V187.337H309.621ZM311.5 202.039H313.503V187.337H311.5V202.039ZM327.718 187.337C327.718 187.337 327.718 197.96 327.718 198.217C327.71 198.217 327.706 198.217 327.7 198.217C327.621 198.129 317.647 187.337 317.647 187.337H316.629V202.037H318.077C318.077 202.037 318.077 190.924 318.077 190.661C318.089 190.661 318.094 190.661 318.102 190.661C318.179 190.749 327.209 200.72 327.209 200.72L328.339 202.037H329.165V187.337H327.718Z" fill="white"/>
<path d="M135.4 343.134C134.607 343.087 133.932 343.006 133.212 343.006C132.416 343.006 131.7 343.087 130.982 343.134C129.765 339.645 128.249 335.619 126.563 331.799H115.883C114.411 335.49 112.893 339.184 111.718 343.134C111.127 343.087 110.666 343.006 110.158 343.006C109.613 343.006 109.148 343.087 108.687 343.134L121.812 313.8H122.781L135.4 343.134ZM401.829 343.134H400.561C400.1 342.55 399.256 341.54 398.377 340.572L380.197 320.502H379.784V343.134C379.363 343.087 378.984 343.006 378.599 343.006C378.182 343.006 377.799 343.087 377.422 343.134V314.424H379.066L399.046 336.038H399.472V314.424C399.847 314.459 400.224 314.547 400.651 314.547C401.032 314.547 401.413 314.459 401.829 314.424V343.134ZM367.766 314.424C368.356 314.461 368.99 314.547 369.616 314.547C370.206 314.547 370.797 314.459 371.466 314.424V343.134C370.795 343.087 370.203 343.006 369.616 343.006C368.99 343.006 368.354 343.087 367.766 343.134V314.424ZM354.286 343.216C353.611 343.175 353.018 343.087 352.426 343.087C351.8 343.087 351.17 343.175 350.581 343.216V316.436C346.338 316.436 343.77 316.687 341.363 316.938C341.414 316.519 341.492 316.097 341.492 315.682C341.492 315.257 341.414 314.884 341.363 314.422H363.075C363.032 314.882 362.953 315.257 362.953 315.682C362.953 316.097 363.03 316.519 363.075 316.938C360.976 316.687 358.025 316.436 354.288 316.436L354.286 343.216ZM320.201 314.424H329.122C335.606 314.424 338.465 316.56 338.465 320.801C338.465 325.666 334.092 328.026 329.84 328.775L338.508 339.733L340.527 342.083L341.321 343.134C340.442 343.087 339.683 343.006 338.883 343.006C338.086 343.006 337.246 343.087 336.477 343.134C335.555 341.832 334.72 340.646 333.827 339.474L328.869 333.059L325.503 329.12H323.908V343.134C323.229 343.087 322.642 343.006 322.053 343.006C321.42 343.006 320.788 343.087 320.199 343.134L320.201 314.424ZM323.909 327.514C324.494 327.556 327.184 327.724 329.334 327.305C332.412 326.681 334.72 324.574 334.72 321.305C334.72 318.406 333.242 316.517 330.091 316.009C328.54 315.766 325.669 315.886 323.911 315.974L323.909 327.514ZM317.288 343.134C316.482 343.087 315.819 343.006 315.095 343.006C314.298 343.006 313.582 343.087 312.874 343.134C311.649 339.645 310.131 335.619 308.448 331.799H297.769C296.294 335.49 294.775 339.184 293.602 343.134C293.011 343.087 292.55 343.006 292.046 343.006C291.503 343.006 291.032 343.087 290.575 343.134L303.696 313.8H304.665L317.288 343.134ZM303.151 319.294L298.564 330.035H307.82L303.151 319.294ZM285.238 314.424C286.333 324.786 287.514 335.119 288.644 343.134C287.883 343.087 287.294 343.006 286.667 343.006C285.988 343.006 285.321 343.087 284.693 343.134C283.981 334.692 283.123 325.629 282.537 321.476C277.659 330.164 274.04 336.871 271.517 342.671H271.058L268.745 337.922C266.045 332.391 263.102 326.932 260.244 321.474C259.318 329.653 258.182 337.961 258.182 343.132C257.64 343.085 257.171 343.004 256.714 343.004C256.167 343.004 255.7 343.085 255.198 343.132C256.286 336.376 258.809 318.826 259.233 314.422H260.328C263.695 321.101 267.734 328.984 272.229 336.417C276.237 329.229 280.106 321.938 284.352 314.422H285.238V314.424ZM237.827 343.134H236.558C236.1 342.55 235.255 341.54 234.376 340.572L216.197 320.502H215.779V343.134C215.359 343.087 214.977 343.006 214.6 343.006C214.182 343.006 213.805 343.087 213.423 343.134V314.424H215.067L235.047 336.038H235.473V314.424C235.847 314.459 236.226 314.547 236.644 314.547C237.021 314.547 237.403 314.459 237.829 314.424V343.134H237.827ZM177.489 328.775C177.489 319.582 184.342 313.798 193.056 313.798C200.969 313.798 208.999 318.069 208.999 328.144C208.999 337.501 202.356 343.639 192.98 343.639C183.678 343.641 177.489 337.761 177.489 328.775ZM202.228 319.249C200.129 316.605 196.847 315.178 193.472 315.178C186.076 315.178 181.614 320.762 181.614 329.276C181.614 337.808 186.829 342.246 193.099 342.246C201.979 342.246 205.175 333.098 204.877 328.485C204.877 325.006 204.416 322.06 202.228 319.249ZM169.188 343.216C168.511 343.175 167.926 343.087 167.336 343.087C166.702 343.087 166.068 343.175 165.488 343.216V316.436C161.236 316.436 158.664 316.687 156.273 316.938C156.314 316.519 156.396 316.097 156.396 315.682C156.396 315.257 156.312 314.884 156.273 314.422H177.977C177.932 314.882 177.852 315.257 177.852 315.682C177.852 316.097 177.932 316.519 177.977 316.938C175.872 316.687 172.933 316.436 169.188 316.436V343.216ZM138.349 337.463C139.985 340.153 141.876 341.832 145.166 341.832C148.568 341.832 151.009 339.014 151.009 335.701C151.009 327.895 137.84 331.342 137.84 321.852C137.84 316.436 142.133 313.802 147.183 313.802C149.196 313.802 151.644 314.424 153.192 315.807C152.688 316.899 152.398 318.069 152.06 319.249H151.644C150.76 316.979 148.909 315.598 146.428 315.598C143.522 315.598 141.129 317.532 141.129 320.503C141.129 328.234 154.375 325.125 154.375 334.069C154.375 340.072 149.698 343.643 143.981 343.643C141.925 343.643 138.559 342.763 137.128 341.205C137.542 339.986 137.754 338.724 137.925 337.465L138.349 337.463ZM121.264 319.294L116.685 330.035H125.936L121.264 319.294Z" fill="black"/>
<defs>
<linearGradient id="paint0_linear_1563_15776" x1="221.427" y1="161.639" x2="290.511" y2="227.498" gradientUnits="userSpaceOnUse">
<stop stop-color="#339966"/>
<stop offset="1" stop-color="#004F32"/>
</linearGradient>
</defs>
</svg>
