<svg width="512" height="512" viewBox="0 0 512 512" fill="none" xmlns="http://www.w3.org/2000/svg">
<path d="M117.163 140C117.144 140.024 117.123 140.044 117.099 140.06C117.075 140.079 117.046 140.09 117.014 140.093C99.9525 141.349 85.2471 147.623 72.8979 158.914C70.9136 160.73 69.0487 162.659 67.3033 164.702C57.6823 175.969 52.0327 189.099 50.3544 204.09C50.341 204.189 50.2994 204.767 50.2296 205.822C50.192 206.405 50.1155 206.979 50 207.546" stroke="#575459" stroke-width="2"/>
<path d="M125.444 140.121C140.57 141.144 153.995 146.336 165.718 155.696C165.792 155.755 165.883 155.787 165.976 155.788C166.07 155.788 166.16 155.758 166.234 155.7C178.038 146.412 191.399 141.228 206.318 140.149C206.417 140.144 206.517 140.148 206.616 140.161C206.783 140.185 206.871 140.132 206.882 140" stroke="#575459" stroke-width="2"/>
<path d="M215.256 140.133C227.762 141.031 239.543 144.825 249.979 151.777C250.296 151.989 251.201 152.64 252.694 153.731C253.583 154.378 254.504 155.005 255.457 155.612" stroke="#575459" stroke-width="2"/>
<path d="M255.812 155.6C255.889 155.648 255.962 155.645 256.029 155.592C263.325 149.81 271.356 145.612 280.123 142.997C281.928 142.46 284.074 141.932 286.564 141.414C289.955 140.708 292.126 140.353 293.077 140.35C294.21 140.342 295.336 140.263 296.456 140.113" stroke="#575459" stroke-width="2"/>
<path d="M304.874 140.133C319.82 141.153 333.106 146.279 344.733 155.511C345.066 155.774 345.4 155.775 345.736 155.515C357.494 146.313 370.811 141.191 385.687 140.149C385.763 140.144 385.838 140.148 385.913 140.161C386.036 140.18 386.105 140.126 386.118 140" stroke="#575459" stroke-width="2"/>
<path d="M394.286 140.125C404.111 140.732 413.405 143.232 422.166 147.625C425.668 149.381 429.02 151.456 432.224 153.852C434.157 155.302 435.817 156.652 437.202 157.904C439.348 159.84 441.468 161.965 443.562 164.28C445.804 166.755 448.065 169.833 450.345 173.511C456.703 183.777 460.297 194.956 461.127 207.051" stroke="#575459" stroke-width="2"/>
<path d="M461.237 214.232C460.458 227.392 456.664 239.201 449.854 249.66C440.249 264.405 426.747 274.369 409.347 279.554C406.78 280.317 404.129 280.902 401.396 281.311C395.15 282.24 389.126 282.43 383.323 281.882C369.438 280.569 356.812 275.447 345.446 266.517C345.377 266.462 345.293 266.433 345.205 266.433C345.118 266.433 345.034 266.462 344.967 266.517C336.361 273.455 326.486 278.162 315.342 280.638C312.805 281.202 310.177 281.605 307.46 281.846C301.464 282.381 295.875 282.28 290.692 281.544C277.742 279.707 266.093 274.675 255.747 266.448C255.702 266.412 255.645 266.393 255.587 266.393C255.53 266.393 255.474 266.412 255.429 266.448C246.069 273.993 235.337 278.883 223.235 281.117C220.958 281.539 218.427 281.841 215.643 282.023C203.535 282.816 191.965 280.684 180.931 275.627C175.701 273.229 170.804 270.193 166.242 266.517C166.157 266.449 166.051 266.413 165.942 266.415C165.833 266.417 165.728 266.457 165.646 266.529C164.937 267.152 164.224 267.725 163.507 268.248C155.68 273.984 147.097 277.985 137.758 280.251C135.118 280.893 132.573 281.355 130.121 281.637C121.767 282.595 113.941 282.288 106.643 280.714C91.6839 277.492 79.0313 270.308 68.6852 259.162C66.9506 257.293 65.2657 255.221 63.6304 252.947C55.548 241.726 51.0436 229.09 50.1172 215.042" stroke="#575459" stroke-width="2"/>
<path d="M154.44 167.312C144.004 159.486 131.53 155.571 118.464 156.208C90.1247 157.577 67.1784 180.499 66.2198 209.169C65.3095 236.457 84.3287 260.241 111.25 265.235C126.612 268.087 141.958 264.208 154.46 254.92C154.478 254.907 154.493 254.891 154.505 254.872C154.516 254.853 154.524 254.832 154.527 254.81C154.53 254.787 154.528 254.765 154.522 254.743C154.516 254.721 154.506 254.701 154.493 254.683C147.592 245.631 143.094 235.754 141 225.05C137.016 204.718 141.853 184.023 154.481 167.61C154.566 167.497 154.553 167.398 154.44 167.312Z" stroke="#8C8C8D" stroke-width="2"/>
<path d="M244.074 167.333C232.78 158.77 218.897 154.955 204.783 156.462C194.878 157.522 185.79 161.149 177.519 167.341C177.5 167.355 177.484 167.373 177.471 167.393C177.459 167.414 177.451 167.437 177.447 167.461C177.444 167.485 177.445 167.509 177.452 167.533C177.458 167.557 177.468 167.579 177.483 167.598C197.283 193.421 197.32 228.861 177.483 254.651C177.41 254.745 177.421 254.828 177.515 254.901C184.612 260.263 192.498 263.724 201.174 265.284C216.436 268.027 231.685 264.152 244.03 254.953C244.156 254.859 244.171 254.749 244.074 254.623C237.001 245.302 232.455 235.117 230.436 224.068C226.787 204.074 231.693 183.746 244.11 167.615C244.127 167.593 244.139 167.569 244.146 167.544C244.153 167.518 244.155 167.491 244.151 167.465C244.148 167.439 244.139 167.413 244.126 167.391C244.113 167.368 244.095 167.348 244.074 167.333Z" stroke="#8C8C8D" stroke-width="2"/>
<path d="M333.68 167.316C322.555 158.858 308.841 155.056 294.901 156.409C284.874 157.384 275.627 161.02 267.157 167.316C267.116 167.348 267.089 167.394 267.081 167.445C267.074 167.496 267.087 167.548 267.117 167.59C286.877 193.38 286.966 228.712 267.165 254.59C267.126 254.643 267.108 254.709 267.116 254.774C267.125 254.839 267.158 254.897 267.21 254.937C273.96 260.052 281.486 263.437 289.785 265.091C305.377 268.192 320.969 264.378 333.684 254.953C333.81 254.859 333.825 254.75 333.729 254.627C314.005 228.905 313.88 193.4 333.724 167.639C333.818 167.518 333.804 167.41 333.68 167.316Z" stroke="#8C8C8D" stroke-width="2"/>
<path d="M389.038 266.11C417.817 266.71 442.543 244.553 444.855 215.863C445.843 203.61 443.115 192.29 436.671 181.901C430.77 172.395 421.857 164.9 411.662 160.537C402.661 156.687 393.179 155.36 383.214 156.558C373.757 157.694 364.97 161.264 356.852 167.268C356.697 167.386 356.679 167.522 356.8 167.675C364.855 177.97 370.075 191 371.252 204.005C372.941 222.697 368.121 239.577 356.792 254.646C356.703 254.762 356.717 254.863 356.832 254.949C366.485 262.145 377.221 265.865 389.038 266.11Z" stroke="#8C8C8D" stroke-width="2"/>
<path d="M165.831 179.48C152.386 198.5 152.511 223.842 165.855 242.785C165.951 242.919 166.047 242.919 166.141 242.785C171.433 235.181 174.65 226.828 175.791 217.728C177.491 204.163 173.91 190.609 166.153 179.485C166.045 179.329 165.938 179.327 165.831 179.48Z" stroke="#8C8C8D" stroke-width="2"/>
<path d="M255.477 179.492C248.255 189.529 244.831 201.995 245.5 214.099C246.075 224.48 249.39 234.034 255.445 242.761C255.549 242.916 255.657 242.918 255.767 242.765C258.906 238.353 261.324 233.56 263.021 228.385C268.475 211.747 265.852 193.863 255.771 179.496C255.754 179.473 255.733 179.453 255.707 179.44C255.682 179.427 255.654 179.419 255.625 179.419C255.596 179.419 255.568 179.425 255.542 179.438C255.516 179.45 255.494 179.469 255.477 179.492Z" stroke="#8C8C8D" stroke-width="2"/>
<path d="M339.376 189.775C331.965 207.433 334.204 227.061 345.088 242.785C345.187 242.93 345.286 242.931 345.386 242.789C349.87 236.447 352.879 229.43 354.412 221.74C357.376 206.877 353.989 191.842 345.402 179.456C345.308 179.319 345.214 179.318 345.12 179.452C342.835 182.661 340.92 186.102 339.376 189.775Z" stroke="#8C8C8D" stroke-width="2"/>
<path d="M121.042 367.392C120.848 367.285 120.678 367.093 120.53 366.816C113.245 353.106 106.034 339.372 98.897 325.616C98.841 325.508 98.7565 325.418 98.6526 325.355C98.5488 325.293 98.4298 325.26 98.3089 325.262L89.3108 325.278C88.8651 325.278 88.5375 325.475 88.3281 325.87L66.127 368.057" stroke="#E18797" stroke-width="2"/>
<path d="M121.119 367.432C121.194 368.034 121.087 368.335 120.797 368.335C117.507 368.332 114.214 368.34 110.916 368.359C110.777 368.359 110.64 368.32 110.522 368.248C110.403 368.175 110.307 368.072 110.244 367.948L106.035 359.755C105.983 359.654 105.904 359.568 105.806 359.509C105.709 359.449 105.597 359.417 105.483 359.417L81.9244 359.413C81.7438 359.413 81.5666 359.463 81.4124 359.557C81.2581 359.652 81.1328 359.787 81.0504 359.949L77.0146 367.896C76.9472 368.029 76.8431 368.142 76.7142 368.219C76.5853 368.297 76.4367 368.337 76.2855 368.335C73.0311 368.302 69.7471 368.312 66.4336 368.363C66.3423 368.363 66.2671 368.345 66.208 368.31C66.0792 368.233 66.0523 368.148 66.1275 368.057" stroke="#E18797" stroke-width="2"/>
<path d="M192.377 369.1C195.849 368.541 198.881 367.31 201.472 365.406C201.514 365.376 201.563 365.356 201.614 365.349C201.666 365.342 201.718 365.348 201.766 365.367C201.815 365.386 201.857 365.417 201.89 365.457C201.924 365.497 201.946 365.545 201.956 365.596L202.391 367.98C202.411 368.09 202.47 368.189 202.556 368.261C202.642 368.332 202.75 368.371 202.862 368.371L210.124 368.363C210.258 368.363 210.388 368.309 210.483 368.213C210.578 368.117 210.631 367.987 210.631 367.851L210.635 325.725C210.636 325.667 210.625 325.609 210.603 325.556C210.581 325.502 210.549 325.453 210.508 325.412C210.467 325.371 210.419 325.338 210.365 325.316C210.312 325.293 210.254 325.282 210.196 325.282H201.79C201.643 325.282 201.502 325.34 201.397 325.445C201.293 325.549 201.235 325.69 201.235 325.838L201.311 339.464C201.311 339.499 201.302 339.534 201.284 339.565C201.267 339.596 201.242 339.621 201.211 339.64C201.181 339.658 201.146 339.668 201.111 339.669C201.075 339.67 201.04 339.661 201.009 339.645C198.12 338.087 195.059 337.195 191.826 336.966C188.547 336.735 185.528 336.989 182.767 337.728C177.161 339.226 172.96 343.366 171.977 349.126C171.381 352.606 171.526 356.851 172.851 360.078C174.79 364.79 178.448 367.704 183.827 368.818C184.823 369.025 186.063 369.182 187.548 369.289" stroke="#E18797" stroke-width="2"/>
<path d="M135.497 337.828L126.777 337.836C126.666 337.836 126.56 337.88 126.481 337.959C126.403 338.037 126.358 338.144 126.358 338.255C126.361 344.117 126.376 350.248 126.403 356.65C126.419 360.782 127.97 364.927 131.57 367.098C133.665 368.36 135.927 369.023 138.357 369.088C139.326 369.112 140.266 369.141 141.177 369.176C142.248 369.217 143.236 369.174 144.141 369.047C147.632 368.569 150.771 367.423 153.558 365.608C153.591 365.586 153.628 365.573 153.667 365.569C153.706 365.565 153.745 365.571 153.781 365.586C153.817 365.601 153.848 365.624 153.872 365.654C153.897 365.684 153.913 365.719 153.92 365.757L154.42 368.153C154.432 368.213 154.466 368.267 154.514 368.306C154.563 368.344 154.623 368.364 154.686 368.363C157.151 368.288 159.612 368.283 162.069 368.351C162.38 368.359 162.611 368.265 162.761 368.069" stroke="#E18797" stroke-width="2"/>
<path d="M162.769 342.215L162.709 338.255C162.708 338.147 162.664 338.044 162.587 337.967C162.51 337.891 162.406 337.848 162.298 337.849L153.824 337.853C153.763 337.853 153.704 337.864 153.648 337.887C153.593 337.91 153.543 337.944 153.5 337.986C153.458 338.028 153.425 338.079 153.402 338.134C153.379 338.189 153.368 338.248 153.368 338.308C153.385 345.184 153.383 352.046 153.364 358.894C153.362 359.318 153.168 359.635 152.784 359.844C149.063 361.874 145.184 362.57 141.148 361.931C138.192 361.463 136.343 359.695 135.904 356.835C135.764 355.922 135.695 355.137 135.695 354.479C135.678 348.907 135.672 343.338 135.674 337.772" stroke="#E18797" stroke-width="2"/>
<path d="M231.665 325.761C231.665 325.634 231.615 325.512 231.525 325.422C231.435 325.332 231.313 325.282 231.186 325.282H222.784C222.657 325.282 222.535 325.332 222.445 325.422C222.355 325.512 222.305 325.634 222.305 325.761V332.939C222.305 333.066 222.355 333.188 222.445 333.277C222.535 333.367 222.657 333.418 222.784 333.418H231.186C231.313 333.418 231.435 333.367 231.525 333.277C231.615 333.188 231.665 333.066 231.665 332.939V325.761Z" stroke="#E18797" stroke-width="2"/>
<path d="M85.0774 351.773C85.0678 351.792 85.0634 351.814 85.0646 351.836C85.0658 351.858 85.0726 351.879 85.0843 351.898C85.096 351.916 85.1122 351.932 85.1315 351.942C85.1507 351.953 85.1723 351.958 85.1942 351.958H102.063C102.085 351.958 102.106 351.953 102.125 351.942C102.145 351.932 102.161 351.916 102.173 351.898C102.184 351.879 102.191 351.858 102.192 351.836C102.193 351.814 102.189 351.792 102.179 351.773L93.7452 334.928C93.7349 334.906 93.7184 334.887 93.6977 334.874C93.677 334.861 93.6529 334.854 93.6284 334.854C93.6039 334.854 93.5799 334.861 93.5592 334.874C93.5385 334.887 93.522 334.906 93.5116 334.928L85.0774 351.773Z" stroke="#E18797" stroke-width="2"/>
<path d="M181.97 349.018C180.993 351.418 180.924 353.936 181.765 356.57C184.246 364.355 195.825 362.442 200.989 359.715C201.065 359.675 201.128 359.615 201.172 359.541C201.216 359.467 201.239 359.383 201.239 359.296L201.243 346.843C201.243 346.786 201.227 346.73 201.197 346.682C201.167 346.633 201.125 346.594 201.074 346.569C197.911 344.95 194.482 344.163 190.787 344.208C187.069 344.253 183.436 345.413 181.97 349.018Z" stroke="#E18797" stroke-width="2"/>
<path d="M231.609 338.247C231.609 338.193 231.598 338.139 231.577 338.089C231.556 338.039 231.525 337.994 231.487 337.955C231.448 337.917 231.403 337.887 231.352 337.867C231.302 337.846 231.248 337.836 231.194 337.836L222.687 337.853C222.579 337.854 222.475 337.897 222.399 337.974C222.323 338.051 222.28 338.155 222.28 338.263L222.329 367.94C222.329 367.994 222.339 368.048 222.36 368.098C222.381 368.148 222.412 368.194 222.45 368.232C222.489 368.27 222.535 368.3 222.585 368.321C222.635 368.341 222.689 368.351 222.743 368.351L231.25 368.335C231.358 368.334 231.462 368.29 231.538 368.213C231.614 368.136 231.657 368.032 231.657 367.924L231.609 338.247Z" stroke="#E18797" stroke-width="2"/>
<path d="M116.813 140H117.163C117.144 140.024 117.123 140.044 117.099 140.06C117.075 140.079 117.046 140.09 117.014 140.093C99.9525 141.349 85.2471 147.623 72.8979 158.914C70.9136 160.73 69.0487 162.659 67.3033 164.702C57.6823 175.969 52.0327 189.099 50.3544 204.09C50.341 204.189 50.2994 204.767 50.2296 205.822C50.192 206.405 50.1155 206.979 50 207.546V204.65C50.196 203.307 50.3826 201.965 50.5599 200.622C50.7747 199.008 50.9962 197.671 51.2244 196.61C53.6008 185.647 58.4503 175.001 65.6238 166.33C66.8764 164.815 68.121 163.244 69.4663 161.855C80.6903 150.279 94.2519 143.183 110.151 140.568C111.252 140.388 112.361 140.262 113.478 140.189C114.589 140.119 115.701 140.056 116.813 140Z" fill="#969097"/>
<path d="M117.163 140H124.965L125.444 140.121C140.57 141.144 153.995 146.336 165.718 155.696C165.792 155.755 165.882 155.787 165.976 155.788C166.07 155.788 166.16 155.758 166.234 155.7C178.038 146.412 191.399 141.228 206.318 140.149C206.417 140.144 206.517 140.148 206.616 140.161C206.783 140.185 206.871 140.132 206.882 140H214.446L215.256 140.133C227.762 141.031 239.543 144.825 249.979 151.777C250.296 151.989 251.201 152.641 252.694 153.731C253.583 154.378 254.504 155.005 255.457 155.612C255.398 155.536 255.516 155.532 255.811 155.6C255.889 155.648 255.962 155.645 256.029 155.592C263.325 149.81 271.356 145.612 280.123 142.997C281.928 142.46 284.074 141.932 286.563 141.414C289.955 140.708 292.126 140.353 293.076 140.35C294.21 140.342 295.336 140.263 296.456 140.113C296.472 140.075 296.488 140.038 296.504 140H304.201L304.874 140.133C319.819 141.153 333.106 146.279 344.733 155.511C345.066 155.774 345.4 155.775 345.736 155.515C357.494 146.313 370.811 141.191 385.687 140.149C385.762 140.144 385.837 140.148 385.913 140.161C386.036 140.18 386.105 140.126 386.118 140H394.021C394.023 140.038 394.112 140.079 394.286 140.125C404.112 140.732 413.405 143.232 422.167 147.625C425.668 149.381 429.021 151.456 432.224 153.852C434.157 155.302 435.817 156.652 437.202 157.903C439.348 159.839 441.468 161.965 443.562 164.279C445.804 166.755 448.065 169.832 450.345 173.511C456.704 183.777 460.298 194.956 461.127 207.05L461.236 207.175V214.232C460.457 227.392 456.663 239.201 449.854 249.66C440.249 264.405 426.746 274.369 409.346 279.554C406.779 280.317 404.129 280.902 401.395 281.311C395.15 282.24 389.125 282.43 383.323 281.883C369.438 280.569 356.812 275.447 345.446 266.517C345.377 266.462 345.292 266.433 345.205 266.433C345.118 266.433 345.034 266.462 344.966 266.517C336.36 273.455 326.485 278.162 315.342 280.638C312.804 281.202 310.177 281.605 307.46 281.846C301.464 282.381 295.874 282.28 290.692 281.544C277.741 279.708 266.093 274.675 255.747 266.448C255.701 266.412 255.645 266.393 255.587 266.393C255.529 266.393 255.473 266.412 255.429 266.448C246.068 273.993 235.337 278.883 223.235 281.117C220.958 281.539 218.427 281.841 215.642 282.023C203.535 282.816 191.964 280.684 180.931 275.627C175.7 273.229 170.804 270.193 166.242 266.517C166.156 266.449 166.05 266.413 165.941 266.415C165.833 266.417 165.728 266.457 165.646 266.529C164.937 267.152 164.224 267.725 163.507 268.248C155.679 273.984 147.096 277.985 137.757 280.251C135.118 280.893 132.572 281.355 130.121 281.637C121.767 282.595 113.941 282.288 106.643 280.714C91.6835 277.492 79.0309 270.308 68.6849 259.162C66.9502 257.293 65.2653 255.221 63.63 252.947C55.5476 241.726 51.0432 229.09 50.1168 215.042C50.0926 214.854 50.0537 214.729 50 214.667V207.546C50.1155 206.979 50.192 206.405 50.2296 205.822C50.2994 204.767 50.341 204.189 50.3544 204.09C52.0327 189.099 57.6823 175.969 67.3033 164.702C69.0487 162.659 70.9136 160.73 72.8979 158.914C85.2471 147.623 99.9525 141.349 117.014 140.093C117.046 140.09 117.075 140.079 117.099 140.06C117.123 140.044 117.144 140.024 117.163 140ZM154.44 167.312C144.004 159.486 131.53 155.571 118.464 156.208C90.1247 157.577 67.1785 180.499 66.2199 209.169C65.3096 236.457 84.3288 260.241 111.25 265.236C126.612 268.087 141.958 264.209 154.46 254.921C154.478 254.908 154.493 254.891 154.505 254.872C154.516 254.853 154.524 254.832 154.527 254.81C154.53 254.788 154.528 254.765 154.522 254.743C154.516 254.721 154.506 254.701 154.493 254.683C147.592 245.631 143.094 235.754 141 225.051C137.016 204.718 141.853 184.024 154.481 167.61C154.566 167.498 154.553 167.398 154.44 167.312ZM244.074 167.333C232.781 158.769 218.897 154.955 204.783 156.462C194.878 157.522 185.79 161.149 177.519 167.341C177.5 167.355 177.484 167.373 177.472 167.393C177.459 167.414 177.451 167.437 177.448 167.461C177.444 167.485 177.446 167.509 177.452 167.533C177.458 167.556 177.469 167.579 177.483 167.598C197.284 193.42 197.32 228.861 177.483 254.651C177.411 254.745 177.421 254.828 177.515 254.9C184.612 260.263 192.499 263.724 201.175 265.284C216.436 268.027 231.685 264.152 244.03 254.953C244.156 254.859 244.171 254.749 244.074 254.622C237.002 245.302 232.456 235.117 230.436 224.068C226.787 204.074 231.693 183.746 244.111 167.614C244.127 167.593 244.139 167.569 244.146 167.543C244.153 167.518 244.155 167.491 244.151 167.465C244.148 167.438 244.14 167.413 244.126 167.391C244.113 167.368 244.095 167.348 244.074 167.333ZM333.68 167.316C322.556 158.858 308.841 155.056 294.901 156.409C284.875 157.384 275.627 161.02 267.158 167.316C267.116 167.348 267.089 167.394 267.081 167.445C267.074 167.496 267.087 167.548 267.117 167.59C286.878 193.38 286.966 228.712 267.166 254.59C267.126 254.643 267.108 254.709 267.117 254.774C267.125 254.839 267.158 254.897 267.21 254.937C273.961 260.052 281.486 263.437 289.786 265.091C305.377 268.192 320.969 264.378 333.684 254.953C333.811 254.859 333.825 254.75 333.729 254.627C314.005 228.905 313.88 193.4 333.725 167.639C333.819 167.518 333.804 167.41 333.68 167.316ZM389.038 266.11C417.817 266.71 442.543 244.553 444.855 215.863C445.843 203.611 443.115 192.29 436.671 181.901C430.77 172.395 421.857 164.9 411.662 160.538C402.661 156.687 393.179 155.361 383.214 156.558C373.757 157.694 364.97 161.264 356.852 167.268C356.697 167.386 356.679 167.522 356.8 167.675C364.855 177.97 370.075 191 371.252 204.005C372.941 222.697 368.121 239.577 356.792 254.647C356.703 254.762 356.717 254.863 356.832 254.949C366.485 262.145 377.221 265.865 389.038 266.11ZM165.831 179.48C152.386 198.499 152.511 223.842 165.855 242.785C165.952 242.919 166.047 242.919 166.141 242.785C171.433 235.18 174.65 226.828 175.792 217.728C177.491 204.162 173.911 190.609 166.153 179.484C166.046 179.329 165.938 179.327 165.831 179.48ZM255.477 179.492C248.255 189.53 244.832 201.996 245.5 214.099C246.075 224.48 249.39 234.034 255.445 242.761C255.55 242.916 255.657 242.918 255.767 242.765C258.906 238.353 261.324 233.56 263.021 228.386C268.475 211.747 265.853 193.863 255.771 179.496C255.755 179.473 255.733 179.454 255.707 179.44C255.682 179.427 255.654 179.42 255.625 179.419C255.596 179.419 255.568 179.425 255.542 179.438C255.517 179.451 255.494 179.469 255.477 179.492ZM339.376 189.775C331.965 207.433 334.204 227.06 345.087 242.785C345.186 242.93 345.286 242.931 345.385 242.789C349.869 236.446 352.878 229.43 354.411 221.74C357.376 206.877 353.988 191.842 345.401 179.456C345.307 179.319 345.213 179.318 345.119 179.452C342.834 182.661 340.92 186.102 339.376 189.775Z" fill="#19181B"/>
<path d="M206.532 140H206.882C206.871 140.132 206.783 140.185 206.616 140.161C206.517 140.148 206.417 140.144 206.318 140.149C191.399 141.228 178.038 146.412 166.234 155.7C166.16 155.758 166.07 155.788 165.976 155.788C165.883 155.787 165.792 155.755 165.718 155.696C153.995 146.336 140.57 141.144 125.444 140.121C128.852 140.051 132.235 140.412 135.594 141.204C138.11 141.8 140.359 142.394 142.341 142.985C150.917 145.541 158.57 149.587 165.299 155.124C165.42 155.224 165.56 155.275 165.718 155.277C166.142 155.28 166.528 155.144 166.874 154.871C175.351 148.182 185.029 143.661 195.906 141.309C199.612 140.509 203.154 140.072 206.532 140Z" fill="#969097"/>
<path d="M385.869 140H386.118C386.105 140.126 386.036 140.18 385.913 140.161C385.838 140.148 385.763 140.144 385.687 140.149C370.811 141.191 357.494 146.313 345.736 155.515C345.4 155.775 345.066 155.774 344.733 155.511C333.106 146.279 319.82 141.153 304.874 140.133C306.515 140.087 308.151 140.169 309.784 140.379C316.957 141.293 323.478 143.23 329.899 146.082C334.963 148.335 339.577 151.118 343.742 154.432C344.174 154.775 344.689 155.107 345.285 155.426C345.403 155.491 345.513 155.477 345.615 155.386C346.168 154.889 346.707 154.442 347.23 154.045C356.883 146.722 367.874 142.183 380.202 140.427C381.085 140.301 382.022 140.211 383.013 140.157C383.963 140.106 384.915 140.054 385.869 140Z" fill="#969097"/>
<path d="M215.256 140.133C217.033 140.071 218.807 140.161 220.577 140.403C225.179 141.034 229.673 142.117 234.058 143.653C240.263 145.826 246.084 148.761 251.522 152.458C252.889 153.387 254.2 154.438 255.457 155.612C254.504 155.005 253.583 154.378 252.694 153.731C251.201 152.641 250.296 151.99 249.979 151.777C239.543 144.825 227.762 141.031 215.256 140.133Z" fill="#969097"/>
<path d="M296.456 140.113C295.336 140.263 294.21 140.343 293.077 140.351C292.126 140.353 289.955 140.708 286.564 141.414C284.074 141.932 281.928 142.46 280.123 142.997C271.356 145.612 263.325 149.811 256.029 155.592C255.962 155.645 255.889 155.648 255.812 155.6C255.838 155.463 255.919 155.342 256.053 155.237C266.431 147.042 278.199 142.062 291.357 140.298C292.664 140.124 294.364 140.062 296.456 140.113Z" fill="#969097"/>
<path d="M394.286 140.125C396.359 140.071 398.067 140.137 399.409 140.322C404.578 141.034 409.359 142.168 413.752 143.726C416.429 144.676 419.309 145.929 422.392 147.484C424.889 148.746 427.198 150.078 429.32 151.479C438.984 157.867 446.635 166.085 452.274 176.133C452.843 177.146 453.396 178.163 453.933 179.186C456.249 183.601 457.861 188.338 459.323 193.775C460.558 198.356 461.159 202.781 461.127 207.051C460.297 194.957 456.703 183.777 450.345 173.511C448.065 169.833 445.804 166.755 443.562 164.28C441.468 161.965 439.348 159.84 437.202 157.904C435.817 156.652 434.157 155.302 432.224 153.852C429.02 151.457 425.668 149.381 422.166 147.625C413.405 143.232 404.111 140.732 394.286 140.125Z" fill="#969097"/>
<path d="M461.236 214.232V217.333C460.374 226.809 457.866 235.547 453.712 243.546C445.531 259.305 433.075 270.634 416.347 277.532C414.401 278.334 412.379 278.926 410.414 279.562C408.891 280.057 407.373 280.458 405.858 280.767C401.079 281.747 396.733 282.317 392.82 282.479C385.683 282.769 378.565 281.96 371.465 280.054C367.668 279.034 364.073 277.75 360.679 276.203C355.582 273.886 350.915 271.084 346.678 267.797C346.267 267.48 345.828 267.197 345.361 266.947C345.224 266.875 345.095 266.886 344.974 266.98C342.074 269.198 339.297 271.097 336.641 272.679C333.902 274.309 330.611 275.908 326.769 277.476C324.597 278.365 321.923 279.251 318.75 280.134C316.432 280.779 313.939 281.293 311.27 281.677C307.911 282.16 305.307 282.432 303.46 282.491C285.818 283.073 269.977 277.903 255.936 266.98C255.839 266.903 255.718 266.861 255.594 266.861C255.47 266.861 255.349 266.903 255.252 266.98C246.839 273.634 237.555 278.169 227.4 280.586C225.598 281.012 223.358 281.419 220.681 281.806C215.018 282.622 209.481 282.755 204.071 282.205C200.051 281.797 196.476 281.187 193.345 280.376C184.521 278.091 176.408 274.305 169.005 269.018C168.127 268.389 167.37 267.62 166.471 267.076C166.298 266.971 166.096 266.922 165.895 266.936C165.693 266.95 165.5 267.025 165.344 267.153C159.885 271.557 153.75 275.067 146.941 277.686C144.202 278.735 141.798 279.525 139.731 280.054C132.986 281.77 126.803 282.602 121.183 282.551C104.199 282.403 89.1689 277.033 76.092 266.44C66.2723 258.486 59.0035 248.367 54.2856 236.083C53.7835 234.772 53.3069 233.376 52.8558 231.894C52.2489 229.885 51.8394 228.434 51.6273 227.54C50.8915 224.446 50.38 221.044 50.0927 217.333C50.0685 217.011 50.0766 216.247 50.1169 215.042C51.0433 229.09 55.5476 241.726 63.6301 252.947C65.2653 255.221 66.9503 257.293 68.6849 259.162C79.0309 270.308 91.6835 277.492 106.643 280.714C113.941 282.288 121.767 282.595 130.121 281.637C132.572 281.355 135.118 280.893 137.757 280.251C147.096 277.985 155.68 273.984 163.507 268.248C164.224 267.725 164.937 267.152 165.646 266.529C165.728 266.457 165.833 266.417 165.941 266.415C166.05 266.413 166.157 266.449 166.242 266.517C170.804 270.193 175.7 273.229 180.931 275.627C191.964 280.684 203.535 282.816 215.642 282.023C218.427 281.841 220.958 281.539 223.235 281.117C235.337 278.883 246.068 273.993 255.429 266.448C255.473 266.412 255.529 266.393 255.587 266.393C255.645 266.393 255.701 266.412 255.747 266.448C266.093 274.675 277.741 279.707 290.692 281.544C295.874 282.28 301.464 282.381 307.46 281.846C310.177 281.605 312.805 281.202 315.342 280.638C326.486 278.162 336.36 273.455 344.966 266.517C345.034 266.462 345.118 266.433 345.205 266.433C345.292 266.433 345.377 266.462 345.446 266.517C356.812 275.447 369.438 280.569 383.323 281.882C389.126 282.43 395.15 282.24 401.395 281.311C404.129 280.902 406.779 280.317 409.346 279.554C426.746 274.369 440.249 264.405 449.854 249.66C456.663 239.201 460.457 227.392 461.236 214.232Z" fill="#969097"/>
<path d="M121.042 367.392C120.849 367.285 120.678 367.093 120.531 366.816C113.246 353.106 106.035 339.372 98.8976 325.616C98.8417 325.508 98.7571 325.418 98.6533 325.355C98.5495 325.293 98.4305 325.26 98.3096 325.262L89.3115 325.278C88.8658 325.278 88.5382 325.475 88.3287 325.87L66.1276 368.057C66.1035 367.791 66.1464 367.54 66.2565 367.304C66.8311 366.071 67.5494 364.655 68.4114 363.054C70.6052 358.973 72.7721 354.913 74.9122 350.874C76.0615 348.705 77.1221 346.668 78.0941 344.764C79.0823 342.834 80.0731 340.958 81.0666 339.138C82.1018 337.24 83.1128 335.231 84.168 333.18C84.9736 331.615 85.7711 330.114 86.5605 328.677C87.2735 327.389 87.499 325.967 88.7154 325.004C88.8043 324.934 88.9132 324.894 89.0255 324.891C91.9014 324.819 94.8618 324.821 97.9068 324.899C98.3391 324.91 98.7365 325.047 99.099 325.31C99.193 325.377 99.244 325.467 99.2521 325.58C99.2574 325.639 99.2507 325.698 99.2319 325.757C99.2169 325.804 99.2187 325.854 99.237 325.899C99.2554 325.945 99.2892 325.983 99.3326 326.007C99.7515 326.237 99.8119 326.744 100.021 327.147C100.795 328.637 101.669 330.099 102.39 331.638C102.72 332.341 103.182 333.07 103.775 333.825C103.891 333.97 103.944 333.95 103.936 333.764C103.928 333.622 103.873 333.5 103.771 333.398C103.645 333.272 103.669 333.23 103.844 333.273C104.026 333.319 104.151 333.421 104.218 333.579C104.252 333.657 104.264 333.742 104.255 333.826C104.246 333.91 104.215 333.99 104.166 334.059C103.999 334.295 103.979 334.538 104.106 334.788C105.051 336.619 106.001 338.501 106.957 340.434C107.518 341.573 108.125 342.699 108.778 343.814C109.417 344.912 110.03 346.025 110.618 347.153C111.972 349.744 113.322 352.39 114.67 355.092C115.645 357.046 116.639 358.946 117.651 360.791C118.679 362.668 119.72 364.558 120.772 366.462C120.923 366.733 121.013 367.043 121.042 367.392Z" fill="white"/>
<path d="M192.378 369.1C195.85 368.542 198.882 367.311 201.473 365.407C201.515 365.376 201.564 365.356 201.615 365.349C201.667 365.342 201.719 365.349 201.767 365.367C201.816 365.386 201.858 365.417 201.891 365.457C201.924 365.497 201.947 365.545 201.956 365.596L202.391 367.98C202.412 368.09 202.47 368.19 202.557 368.261C202.643 368.332 202.751 368.371 202.863 368.371L210.125 368.363C210.259 368.363 210.388 368.309 210.484 368.213C210.579 368.117 210.632 367.987 210.632 367.852L210.636 325.725C210.637 325.667 210.626 325.61 210.604 325.556C210.582 325.502 210.55 325.453 210.509 325.412C210.468 325.371 210.42 325.338 210.366 325.316C210.313 325.293 210.255 325.282 210.197 325.282H201.791C201.644 325.282 201.502 325.341 201.398 325.445C201.294 325.549 201.235 325.69 201.235 325.838L201.312 339.464C201.312 339.499 201.303 339.534 201.285 339.565C201.268 339.596 201.243 339.622 201.212 339.64C201.182 339.658 201.147 339.668 201.112 339.669C201.076 339.67 201.041 339.662 201.01 339.645C198.121 338.088 195.06 337.195 191.827 336.967C188.548 336.736 185.528 336.989 182.768 337.728C177.161 339.226 172.96 343.367 171.978 349.126C171.382 352.606 171.527 356.852 172.852 360.078C174.79 364.79 178.449 367.704 183.827 368.818C184.824 369.025 186.064 369.182 187.549 369.289C187.154 369.421 186.754 369.488 186.349 369.491C186.021 369.496 185.686 369.445 185.342 369.338C185.028 369.238 184.697 369.169 184.351 369.128C179.289 368.548 175.518 365.917 173.037 361.234C173.007 361.178 172.963 361.136 172.904 361.109C172.786 361.055 172.713 360.964 172.687 360.835C172.55 360.156 172.355 359.489 172.103 358.833C171.864 358.218 171.697 357.591 171.603 356.952C171.509 356.308 171.411 355.68 171.309 355.067C171.202 354.434 171.152 353.811 171.16 353.199C171.208 350.1 171.956 347.078 173.403 344.132C175.711 339.432 181.971 336.822 186.852 336.608C189.241 336.507 191.823 336.387 194.183 336.882C195.797 337.22 197.354 337.669 198.855 338.227C198.923 338.253 198.98 338.303 199.016 338.368C199.046 338.417 199.083 338.46 199.129 338.497C199.188 338.54 199.254 338.562 199.326 338.562C199.53 338.559 199.689 338.641 199.802 338.807C199.838 338.859 199.885 338.901 199.941 338.931C199.996 338.961 200.057 338.978 200.12 338.98L200.748 339.005C200.92 339.013 201.007 338.931 201.01 338.759C201.101 334.661 201.066 330.851 200.905 327.328C200.889 326.984 200.843 326.664 200.768 326.365C200.543 325.512 201.368 324.887 202.15 324.883C204.805 324.87 207.501 324.874 210.238 324.895C210.468 324.897 210.688 324.991 210.85 325.155C211.013 325.32 211.104 325.542 211.103 325.773L211.108 367.872C211.108 368.111 211.012 368.34 210.843 368.51C210.674 368.679 210.445 368.774 210.205 368.774H202.851C202.718 368.774 202.59 368.727 202.488 368.641C202.005 368.246 201.795 367.724 201.86 367.074C201.876 366.897 201.81 366.775 201.662 366.708C201.504 366.638 201.469 366.528 201.558 366.377L201.666 366.2C201.758 366.047 201.717 365.952 201.546 365.914C201.473 365.898 201.395 365.908 201.312 365.942C201.183 365.996 201.07 366.077 200.974 366.184C200.544 366.657 200.015 366.957 199.387 367.086C199.196 367.124 199.047 367.223 198.94 367.384C198.854 367.513 198.733 367.574 198.577 367.566C198.413 367.558 198.278 367.614 198.17 367.735C197.982 367.942 197.746 368.021 197.461 367.972C197.281 367.943 197.132 367.997 197.014 368.134C196.84 368.332 196.624 368.41 196.366 368.367C196.178 368.338 196.01 368.382 195.862 368.5C195.589 368.712 195.257 368.818 194.868 368.818C194.712 368.821 194.563 368.857 194.42 368.927C193.838 369.22 193.157 369.277 192.378 369.1Z" fill="white"/>
<path d="M232.036 332.935C232.036 333.042 232.015 333.148 231.973 333.247C231.932 333.346 231.872 333.436 231.796 333.511C231.72 333.587 231.63 333.647 231.531 333.688C231.432 333.728 231.325 333.749 231.218 333.748L222.792 333.716C222.577 333.715 222.371 333.629 222.219 333.476C222.068 333.324 221.982 333.118 221.982 332.902L222.007 325.685C222.007 325.578 222.028 325.471 222.069 325.372C222.11 325.273 222.17 325.184 222.246 325.108C222.322 325.032 222.412 324.973 222.512 324.932C222.611 324.891 222.717 324.871 222.824 324.871L231.25 324.903C231.465 324.904 231.671 324.991 231.823 325.143C231.975 325.296 232.06 325.502 232.06 325.717L232.036 332.935ZM231.665 325.761C231.665 325.634 231.615 325.512 231.525 325.422C231.435 325.332 231.313 325.282 231.186 325.282H222.784C222.657 325.282 222.535 325.332 222.445 325.422C222.355 325.512 222.305 325.634 222.305 325.761V332.939C222.305 333.066 222.355 333.188 222.445 333.278C222.535 333.368 222.657 333.418 222.784 333.418H231.186C231.313 333.418 231.435 333.368 231.525 333.278C231.615 333.188 231.665 333.066 231.665 332.939V325.761Z" fill="white"/>
<path d="M121.042 367.392C121.069 367.406 121.095 367.419 121.119 367.433C121.194 368.034 121.087 368.335 120.797 368.335C117.507 368.332 114.214 368.34 110.916 368.359C110.777 368.359 110.64 368.32 110.522 368.248C110.403 368.175 110.307 368.072 110.244 367.948L106.035 359.756C105.983 359.654 105.904 359.568 105.806 359.509C105.709 359.449 105.597 359.417 105.483 359.417L81.9244 359.413C81.7438 359.413 81.5666 359.463 81.4124 359.558C81.2581 359.652 81.1328 359.788 81.0504 359.949L77.0146 367.896C76.9472 368.03 76.8431 368.142 76.7142 368.219C76.5853 368.297 76.4367 368.337 76.2855 368.335C73.0311 368.303 69.7471 368.312 66.4336 368.363C66.3423 368.363 66.2671 368.346 66.208 368.311C66.0792 368.233 66.0523 368.148 66.1275 368.057L88.3286 325.87C88.538 325.475 88.8656 325.278 89.3114 325.278L98.3094 325.262C98.4303 325.26 98.5493 325.293 98.6532 325.355C98.757 325.418 98.8416 325.508 98.8975 325.616C106.035 339.372 113.246 353.106 120.531 366.816C120.678 367.093 120.849 367.285 121.042 367.392ZM85.0782 351.773C85.0686 351.792 85.0642 351.814 85.0654 351.836C85.0666 351.858 85.0734 351.879 85.085 351.898C85.0967 351.916 85.113 351.932 85.1322 351.942C85.1515 351.953 85.1731 351.958 85.195 351.958H102.063C102.085 351.958 102.107 351.953 102.126 351.942C102.145 351.932 102.162 351.916 102.173 351.898C102.185 351.879 102.192 351.858 102.193 351.836C102.194 351.814 102.19 351.792 102.18 351.773L93.746 334.928C93.7356 334.906 93.7191 334.887 93.6984 334.874C93.6777 334.861 93.6537 334.854 93.6292 334.854C93.6046 334.854 93.5806 334.861 93.5599 334.874C93.5392 334.887 93.5227 334.906 93.5123 334.928L85.0782 351.773Z" fill="#C20F2F"/>
<path d="M192.377 369.1C190.895 369.382 189.286 369.445 187.548 369.289C186.063 369.182 184.823 369.025 183.827 368.818C178.448 367.704 174.79 364.79 172.851 360.078C171.526 356.851 171.381 352.606 171.977 349.126C172.96 343.366 177.161 339.226 182.767 337.728C185.528 336.989 188.547 336.735 191.826 336.966C195.059 337.195 198.12 338.087 201.009 339.645C201.04 339.661 201.075 339.67 201.111 339.669C201.146 339.668 201.181 339.658 201.211 339.64C201.242 339.621 201.267 339.596 201.284 339.565C201.302 339.534 201.311 339.499 201.311 339.464L201.235 325.838C201.235 325.69 201.293 325.549 201.397 325.445C201.502 325.34 201.643 325.282 201.79 325.282H210.196C210.254 325.282 210.312 325.293 210.365 325.316C210.419 325.338 210.467 325.371 210.508 325.412C210.549 325.453 210.581 325.502 210.603 325.556C210.625 325.609 210.636 325.667 210.635 325.725L210.631 367.851C210.631 367.987 210.578 368.117 210.483 368.213C210.388 368.309 210.258 368.363 210.124 368.363L202.862 368.371C202.75 368.371 202.642 368.332 202.556 368.261C202.47 368.189 202.411 368.09 202.391 367.98L201.956 365.596C201.946 365.545 201.924 365.497 201.89 365.457C201.857 365.417 201.815 365.386 201.766 365.367C201.718 365.348 201.666 365.342 201.614 365.349C201.563 365.356 201.514 365.376 201.472 365.406C198.881 367.31 195.849 368.541 192.377 369.1ZM181.97 349.017C180.992 351.418 180.924 353.935 181.764 356.57C184.245 364.355 195.825 362.442 200.989 359.715C201.064 359.675 201.128 359.615 201.172 359.541C201.216 359.467 201.239 359.383 201.239 359.296L201.243 346.842C201.243 346.786 201.227 346.73 201.197 346.681C201.167 346.633 201.124 346.594 201.073 346.569C197.91 344.949 194.481 344.163 190.787 344.208C187.069 344.253 183.436 345.413 181.97 349.017Z" fill="#C20F2F"/>
<path d="M231.186 325.282H222.784C222.519 325.282 222.305 325.496 222.305 325.761V332.939C222.305 333.203 222.519 333.418 222.784 333.418H231.186C231.451 333.418 231.665 333.203 231.665 332.939V325.761C231.665 325.496 231.451 325.282 231.186 325.282Z" fill="#C20F2F"/>
<path d="M135.498 337.828L126.778 337.836C126.667 337.836 126.56 337.881 126.481 337.959C126.403 338.038 126.359 338.144 126.359 338.255C126.361 344.117 126.376 350.249 126.403 356.65C126.419 360.783 127.97 364.927 131.571 367.098C133.665 368.36 135.927 369.023 138.358 369.088C139.327 369.112 140.267 369.142 141.177 369.177C142.248 369.217 143.236 369.174 144.141 369.048C147.632 368.57 150.771 367.423 153.558 365.608C153.591 365.586 153.628 365.573 153.667 365.569C153.706 365.566 153.745 365.571 153.781 365.586C153.817 365.601 153.848 365.624 153.873 365.654C153.897 365.684 153.914 365.719 153.921 365.757L154.42 368.153C154.433 368.214 154.466 368.268 154.514 368.306C154.563 368.344 154.624 368.364 154.686 368.363C157.151 368.288 159.612 368.284 162.069 368.351C162.381 368.359 162.611 368.265 162.762 368.069C162.805 368.257 162.801 368.426 162.75 368.576C162.731 368.633 162.695 368.681 162.647 368.716C162.598 368.751 162.54 368.77 162.48 368.77L154.726 368.762C154.517 368.762 154.317 368.679 154.168 368.532C154.02 368.385 153.935 368.185 153.933 367.976L153.917 366.599C153.914 366.225 153.738 366.107 153.389 366.244C152.659 366.534 152.009 366.863 151.44 367.231C150.231 368.012 148.802 368.302 147.464 368.75C146.264 369.152 145.056 369.156 143.803 369.273C143.279 369.321 142.768 369.346 142.268 369.346C138.896 369.343 136.69 369.249 135.651 369.064C134.639 368.884 133.418 368.422 131.99 367.678C131.269 367.304 130.813 366.72 130.068 366.401C129.942 366.348 129.849 366.258 129.79 366.132C129.513 365.515 128.876 365.503 128.614 364.839C128.475 364.484 128.268 364.146 127.994 363.824C127.795 363.59 127.642 363.328 127.535 363.038C127.333 362.493 127.107 361.941 126.854 361.383C126.642 360.921 126.508 360.452 126.451 359.977C126.367 359.256 126.129 358.596 126.129 357.858C126.129 351.637 126.131 345.699 126.133 340.044C126.133 339.925 126.094 339.822 126.016 339.733C125.99 339.704 125.956 339.682 125.916 339.669C125.859 339.648 125.845 339.61 125.871 339.556C126.148 339.008 126.243 338.459 126.157 337.909C126.147 337.843 126.151 337.776 126.169 337.712C126.187 337.648 126.219 337.588 126.262 337.538C126.305 337.487 126.359 337.447 126.42 337.419C126.48 337.391 126.546 337.377 126.613 337.377L134.273 337.369C134.429 337.369 134.557 337.431 134.656 337.554C134.761 337.689 134.871 337.691 134.986 337.562C135.099 337.436 135.216 337.431 135.337 337.546C135.412 337.619 135.466 337.713 135.498 337.828Z" fill="white"/>
<path d="M162.769 342.215L162.709 338.255C162.708 338.147 162.664 338.044 162.587 337.967C162.51 337.891 162.406 337.848 162.298 337.848L153.824 337.853C153.763 337.853 153.704 337.864 153.648 337.887C153.593 337.91 153.543 337.944 153.5 337.986C153.458 338.028 153.425 338.079 153.402 338.134C153.379 338.189 153.368 338.248 153.368 338.308C153.385 345.184 153.383 352.046 153.364 358.894C153.362 359.318 153.168 359.635 152.784 359.844C149.063 361.874 145.184 362.57 141.148 361.931C138.192 361.463 136.343 359.695 135.904 356.835C135.764 355.922 135.695 355.137 135.695 354.479C135.678 348.907 135.672 343.338 135.674 337.772C135.771 337.734 135.883 337.737 136.009 337.78C136.127 337.823 136.187 337.908 136.19 338.034C136.198 344.105 136.193 350.301 136.174 356.622C136.17 357.887 137.068 359.151 137.777 360.078C138.192 360.622 139.058 361.053 139.823 361.157C140.008 361.184 140.164 361.265 140.29 361.399C140.382 361.493 140.493 361.537 140.625 361.532C141.531 361.5 142.369 361.918 143.303 361.898C146.539 361.831 149.508 361.116 152.212 359.752C153.147 359.28 153.131 358.584 153.135 357.653C153.151 351.131 153.144 344.626 153.115 338.138C153.114 338.001 153.149 337.867 153.216 337.747C153.283 337.628 153.38 337.528 153.497 337.457C153.614 337.386 153.748 337.346 153.885 337.342C154.022 337.338 154.158 337.37 154.279 337.434C154.855 337.736 155.475 337.361 156.095 337.361C158.195 337.367 160.306 337.367 162.427 337.361C162.572 337.361 162.678 337.426 162.745 337.554C163.051 338.126 163.104 338.8 162.902 339.576C162.752 340.154 162.708 341.033 162.769 342.215Z" fill="white"/>
<path d="M229.76 337.691C230.275 337.248 230.971 337.287 231.846 337.808C231.978 337.886 232.044 338.002 232.044 338.155V367.775C232.044 368.039 231.938 368.292 231.751 368.478C231.564 368.665 231.31 368.77 231.045 368.77H222.949C222.698 368.77 222.457 368.671 222.28 368.494C222.102 368.317 222.002 368.077 222.002 367.827L221.986 338.296C221.986 338.063 222.079 337.84 222.243 337.675C222.407 337.51 222.631 337.416 222.864 337.414L229.361 337.365C229.474 337.365 229.572 337.401 229.655 337.474C229.72 337.53 229.745 337.597 229.732 337.675C229.73 337.679 229.729 337.684 229.73 337.688C229.731 337.692 229.734 337.695 229.738 337.698C229.742 337.7 229.746 337.7 229.75 337.699C229.754 337.698 229.758 337.695 229.76 337.691ZM231.609 338.247C231.609 338.193 231.598 338.139 231.577 338.089C231.556 338.039 231.526 337.994 231.487 337.955C231.448 337.917 231.403 337.887 231.352 337.867C231.302 337.846 231.248 337.836 231.194 337.836L222.687 337.853C222.579 337.854 222.475 337.897 222.399 337.974C222.323 338.051 222.28 338.155 222.28 338.263L222.329 367.94C222.329 367.994 222.339 368.048 222.36 368.098C222.381 368.148 222.412 368.194 222.45 368.232C222.489 368.27 222.535 368.3 222.585 368.321C222.635 368.341 222.689 368.351 222.744 368.351L231.25 368.335C231.358 368.334 231.462 368.29 231.538 368.213C231.614 368.136 231.657 368.032 231.657 367.924L231.609 338.247Z" fill="white"/>
<path d="M135.497 337.828C135.557 337.81 135.616 337.791 135.675 337.772C135.672 343.338 135.679 348.907 135.695 354.479C135.695 355.137 135.765 355.922 135.904 356.835C136.343 359.695 138.192 361.463 141.148 361.931C145.184 362.57 149.063 361.874 152.785 359.844C153.169 359.635 153.362 359.318 153.365 358.894C153.383 352.046 153.385 345.184 153.369 338.308C153.368 338.248 153.38 338.189 153.402 338.134C153.425 338.079 153.458 338.028 153.501 337.986C153.543 337.944 153.593 337.91 153.649 337.887C153.704 337.864 153.764 337.853 153.824 337.853L162.298 337.849C162.407 337.848 162.51 337.891 162.587 337.967C162.664 338.044 162.708 338.147 162.709 338.255L162.77 342.215L162.79 366.498C162.79 366.622 162.838 366.721 162.935 366.796C162.975 366.826 163.008 366.861 163.035 366.901C163.065 366.947 163.062 366.991 163.027 367.034C162.796 367.302 162.708 367.647 162.761 368.069C162.611 368.265 162.38 368.359 162.069 368.351C159.612 368.284 157.151 368.288 154.686 368.363C154.623 368.364 154.563 368.344 154.514 368.306C154.466 368.268 154.432 368.214 154.42 368.154L153.92 365.757C153.913 365.719 153.897 365.684 153.872 365.654C153.848 365.624 153.817 365.601 153.781 365.586C153.745 365.571 153.706 365.566 153.667 365.57C153.628 365.573 153.591 365.587 153.558 365.608C150.771 367.423 147.632 368.57 144.141 369.048C143.236 369.174 142.248 369.217 141.177 369.177C140.266 369.142 139.326 369.112 138.357 369.088C135.927 369.024 133.665 368.36 131.57 367.098C127.97 364.927 126.419 360.783 126.403 356.65C126.376 350.249 126.361 344.117 126.358 338.255C126.358 338.2 126.369 338.146 126.39 338.095C126.411 338.044 126.442 337.998 126.481 337.959C126.52 337.92 126.566 337.889 126.617 337.868C126.668 337.847 126.722 337.836 126.777 337.836L135.497 337.828Z" fill="#C20F2F"/>
<path d="M231.195 337.837L222.688 337.852C222.461 337.852 222.278 338.036 222.278 338.263L222.33 367.94C222.33 368.167 222.515 368.351 222.741 368.35L231.248 368.335C231.475 368.335 231.659 368.151 231.658 367.924L231.606 338.247C231.606 338.02 231.422 337.837 231.195 337.837Z" fill="#C20F2F"/>
<path d="M121.118 367.432C121.497 367.142 121.552 367.486 121.283 368.463C121.259 368.552 121.206 368.629 121.132 368.685C121.059 368.74 120.969 368.77 120.877 368.77L111.198 368.766C110.915 368.766 110.637 368.687 110.396 368.538C110.155 368.39 109.96 368.177 109.833 367.924C109.336 366.925 108.799 365.931 108.221 364.943C107.992 364.544 108.028 364.17 107.803 363.779C107.268 362.856 106.779 361.912 106.336 360.948C106.277 360.819 106.199 360.705 106.103 360.605C105.995 360.495 105.96 360.368 105.998 360.223C106.052 360.013 105.971 359.91 105.756 359.913C105.374 359.917 105.088 359.921 104.721 359.784C104.514 359.706 104.298 359.717 104.073 359.816C103.944 359.872 103.808 359.902 103.666 359.904C97.3075 359.918 90.7583 359.915 84.0185 359.896C83.5539 359.896 83.08 359.841 82.5967 359.731C81.963 359.586 81.477 359.843 81.1386 360.501C79.8444 363.019 78.5837 365.518 77.3565 367.996C77.2416 368.229 77.0637 368.424 76.8431 368.561C76.6224 368.697 76.3678 368.77 76.1079 368.77L66.0103 368.766C65.8519 368.766 65.782 368.688 65.8008 368.532C65.817 368.384 65.9257 368.226 66.1271 368.057C66.0519 368.148 66.0788 368.233 66.2076 368.31C66.2667 368.345 66.3419 368.363 66.4332 368.363C69.7467 368.312 73.0307 368.302 76.2851 368.335C76.4363 368.337 76.5849 368.297 76.7138 368.219C76.8427 368.142 76.9468 368.029 77.0142 367.896L81.05 359.949C81.1324 359.787 81.2577 359.652 81.412 359.557C81.5662 359.463 81.7434 359.413 81.924 359.413L105.483 359.417C105.597 359.417 105.709 359.449 105.806 359.509C105.903 359.568 105.982 359.654 106.034 359.755L110.243 367.948C110.306 368.072 110.403 368.175 110.521 368.248C110.64 368.32 110.777 368.359 110.916 368.359C114.213 368.34 117.507 368.332 120.796 368.335C121.086 368.335 121.194 368.034 121.118 367.432Z" fill="white"/>
<path d="M127.39 365.282C127.348 365.226 127.329 365.156 127.338 365.086C127.347 365.016 127.383 364.952 127.438 364.907C127.65 364.735 127.896 364.814 128.175 365.145C128.2 365.175 128.217 365.21 128.225 365.249C128.232 365.287 128.23 365.327 128.219 365.364C128.207 365.401 128.186 365.435 128.158 365.462C128.13 365.489 128.096 365.509 128.058 365.519C127.787 365.594 127.564 365.515 127.39 365.282Z" fill="white"/>
<path d="M129.947 367.11C130.108 367.073 130.25 367.148 130.374 367.336C130.495 367.519 130.446 367.613 130.229 367.618C130.127 367.618 130.026 367.602 129.927 367.57C129.877 367.554 129.833 367.522 129.803 367.479C129.773 367.436 129.758 367.385 129.76 367.332C129.762 367.28 129.782 367.23 129.816 367.19C129.85 367.149 129.896 367.122 129.947 367.11Z" fill="white"/>
<path d="M232.551 369.007C232.557 368.983 232.57 368.961 232.589 368.944C232.608 368.928 232.631 368.917 232.655 368.913C232.68 368.91 232.705 368.914 232.728 368.925C232.75 368.936 232.769 368.953 232.781 368.975C232.862 369.12 232.865 369.27 232.789 369.426C232.714 369.582 232.627 369.588 232.527 369.446C232.484 369.384 232.492 369.238 232.551 369.007Z" fill="white"/>
</svg>
