<svg width="512" height="512" viewBox="0 0 512 512" fill="none" xmlns="http://www.w3.org/2000/svg">
<path fill-rule="evenodd" clip-rule="evenodd" d="M291.697 199.749C279.509 193.83 268.424 191.903 255.271 191.903C243.349 191.903 230.885 194.428 219.572 199.308C207.797 195.216 179.589 197.646 173.424 197.784C166.365 197.945 137.159 196.184 130.262 196.184C123.364 196.184 109.104 196.407 98.3466 197.143C81.9704 198.268 63.4555 196.673 61.2213 196.118C60.1375 195.852 59.334 196.507 59.334 196.507C58.8541 197.143 53.8818 202.749 53.8818 202.749L54.3667 204.358L66.0745 210.282L64.4727 217.976L75.8718 223.107C75.8718 223.107 75.8718 229.506 76.5038 230.308C77.1457 231.12 88.5447 233.996 88.5447 233.996C88.5447 233.996 89.6806 241.477 90.4697 242.165C91.8057 243.352 103.794 244.576 103.794 244.576C103.794 244.576 107.478 251.302 109.08 251.943C110.687 252.584 123.526 254.511 125.927 253.866C125.927 253.866 126.991 259.467 129.264 260.478C131.693 261.55 145.663 261.085 145.663 261.085C145.663 261.085 147.398 266.606 150.179 267.469C152.779 268.272 164.92 265.082 164.92 265.082C164.92 265.082 166.693 269.174 168.457 269.89C171.147 270.987 180.954 267.512 180.954 267.512C185.997 288.26 202.796 302.941 222.58 310.617L225.347 316.17L231.85 313.711L235.249 318.918L241.186 315.695L245.231 320.594L250.565 316.74L255.266 321.097L259.948 316.612L265.296 320.518L269.322 315.629L275.269 318.861L278.677 313.697L285.209 316.199L287.899 310.64C306.238 303.535 323.218 288.739 328.737 269.98C330.453 270.745 333.709 271.855 336.399 271.969C336.399 271.969 339.466 270.863 340.711 266.99C340.711 266.99 351.354 270.308 353.299 269.715C353.299 269.715 355.086 269.62 356.735 264.185C357.824 264.683 358.727 264.417 360.348 264.769C368.634 266.568 372.246 265.595 372.246 265.595C372.246 265.595 374.1 265.281 375.569 258.313C376.306 258.422 376.833 258.513 377.39 258.479C377.39 258.479 389.692 258.831 391.821 257.767C391.821 257.767 393.765 257.278 394.464 250.296C399.536 251.056 404.1 251.388 407.793 250.965C407.793 250.965 411.929 249.546 413.521 241.425C416.312 241.249 424.54 240.703 425.562 239.493C425.562 239.493 427.587 238.562 427.587 231.267C430.805 231.058 436.039 230.384 437.926 228.381C437.926 228.381 439.922 226.074 439.057 220.516C446.658 218.926 449.296 216.453 449.296 216.453C449.244 213.766 446.877 208.825 446.877 208.825C446.877 208.825 455.381 205.549 457.449 203.888L458.119 202.659C458.119 202.659 452.971 196.498 452.172 196.331C450.342 195.952 433.89 198.33 423.256 198.33C412.613 198.33 393.433 196.716 385.537 196.716C377.637 196.716 352.97 198.491 341.367 198.491C329.759 198.491 325.257 196.716 316.715 196.716C311.405 196.716 299.213 197.053 291.697 199.749Z" fill="black"/>
<path d="M431.234 211.202C428.477 211.207 425.73 211.216 422.982 211.216C418.286 211.435 413.247 211.302 408.398 211.378C402.014 211.478 387.316 211.596 386.57 211.653C383.523 211.653 380.471 211.653 377.429 211.653C372.243 211.653 367.665 211.634 362.484 211.634C361.604 211.672 356.351 211.815 354.693 211.805C353.951 211.786 352.611 211.696 351.874 211.805C350.647 211.995 348.646 214.572 351.056 214.572C351.161 214.549 351.275 214.53 351.389 214.515C351.631 214.482 351.874 214.444 352.121 214.401C352.796 214.193 353.675 214.444 354.364 214.496C355.648 214.587 356.946 214.686 358.234 214.776C361.623 215.009 365.008 215.237 368.387 215.474C370.817 215.669 373.255 215.873 375.684 216.063C393.477 217.183 411.055 218.773 429.495 218.773C433.758 218.773 437.566 216.908 438.907 216.481C439.477 216.295 440.675 216.162 441.126 215.759C442.077 214.928 440.984 211.914 440.071 211.364C439.449 210.984 431.923 211.164 431.234 211.202Z" fill="white"/>
<path d="M73.312 212.553C72.3803 212.904 71.9715 213.37 71.8479 214.4C71.7479 215.15 72.3183 216.877 74.1436 217.822C75.4461 218.415 80.3948 220.722 81.6687 220.993C82.8476 221.244 157.345 216.896 157.464 216.877C158.472 216.417 161.205 215.662 160.967 214.072C160.901 213.616 160.183 213.165 159.784 213.004C158.942 212.686 149.763 213.521 149.079 213.526C142.752 213.526 75.0232 212.553 73.312 212.553Z" fill="white"/>
<path d="M334.42 213.675C333.598 213.656 332.766 214.149 332.443 215.037C332.172 215.768 332.082 216.765 332.714 217.273C333.37 217.795 334.387 217.942 335.209 218.156C336.536 218.497 337.867 218.839 339.183 219.181C340.714 219.556 341.988 219.769 343.761 219.945C345.13 220.073 346.319 219.769 346.675 218.673C347.07 217.401 346.927 216.551 345.933 215.986C345.468 215.725 343.552 215.184 340.757 214.672C338.029 214.173 335.233 213.727 334.42 213.675Z" fill="white"/>
<path d="M174.669 213.615C172.068 214.418 169.383 214.812 166.673 215.315C165.613 215.5 164.216 215.557 163.355 216.155C162.961 216.43 162.742 216.848 162.633 217.289C162.538 217.731 162.599 218.253 162.866 218.566C163.26 219.036 165.765 220.123 167.391 219.843C169.967 219.221 172.211 218.4 174.607 217.626C175.439 217.384 176.523 217.247 177.122 216.587C177.778 215.861 177.345 215.058 176.827 214.437C176.29 213.81 175.453 213.43 174.669 213.615Z" fill="white"/>
<path d="M350.717 217.745C350.408 217.883 350.099 217.973 349.852 218.229C349.011 219.084 348.806 220.493 350.437 220.493C351.097 220.294 352.885 220.565 353.522 220.664C354.706 220.84 355.884 221.025 357.058 221.21C361.826 221.96 366.599 222.71 371.367 223.46C377.123 224.4 382.904 225.359 388.755 226.004C392.862 226.46 396.95 227.181 401.1 227.575C407.498 228.183 413.811 229.08 420.575 229.08C420.984 229.066 421.398 229.042 421.807 229.028C422.044 228.999 422.292 228.985 422.534 228.976C422.7 228.947 422.881 228.933 423.047 228.914C423.228 228.895 423.413 228.876 423.604 228.852C423.803 228.838 424.012 228.819 424.217 228.805C424.393 228.776 424.554 228.767 424.725 228.748C424.858 228.719 424.987 228.705 425.11 228.686C425.229 228.672 425.338 228.648 425.457 228.634C425.571 228.615 425.676 228.596 425.785 228.577C425.899 228.558 426.018 228.544 426.127 228.52C426.741 228.363 427.354 228.202 427.958 228.041C430.101 227.386 431.195 226.488 431.941 224.367C432.103 223.887 432.307 223.213 431.932 222.781C431.594 222.402 431.071 222.335 430.558 222.311C427.867 222.311 425.172 222.302 422.482 222.302C418.812 222.169 415.156 222.031 411.477 221.898C397.882 221.262 384.382 220.175 370.915 219.311C366.352 218.96 361.788 218.609 357.22 218.253C355.333 218.106 352.69 217.745 350.717 217.745Z" fill="white"/>
<path d="M177.889 219.616C175.393 220.1 173.173 221.168 170.825 221.956C169.855 222.274 168.61 222.502 167.892 223.29C167.455 223.77 167.341 224.382 167.497 225.051C167.597 225.497 167.797 226.167 168.111 226.518C168.738 227.23 170.397 227.894 171.514 227.894C172.137 227.875 173.097 227.681 173.501 227.519C175.336 226.532 177.162 225.55 178.996 224.562C179.624 224.225 180.432 224.126 180.945 223.594C182.695 221.795 179.377 219.365 177.889 219.616Z" fill="white"/>
<path d="M330.99 220.524C329.944 220.865 327.568 222.157 328.59 223.31C328.994 223.775 330.291 224.212 330.847 224.402C331.537 224.701 331.489 224.786 332.174 225.085C332.949 225.441 333.709 225.802 334.479 226.153C335.915 226.851 336.68 227.61 338.487 227.61C340.616 227.563 341.571 227.891 342.627 225.878C342.912 225.356 342.722 224.772 342.418 224.378C341.919 223.728 339.095 222.702 337.869 222.285C335.463 221.468 331.665 220.343 330.99 220.524Z" fill="white"/>
<path d="M159.381 219.951C157.698 220.122 145.401 221.304 140.923 221.588C138.527 221.783 96.7055 224.379 93.0594 224.432C92.3843 224.484 83.5427 224.389 82.6255 225.167C82.1501 225.571 82.6776 227.958 83.1339 228.395C83.985 229.216 85.5392 229.458 86.6565 229.767C89.903 230.678 92.8217 231.713 96.5914 231.713C96.8386 231.694 162.228 223.368 163.417 223.368C163.588 223.202 163.754 223.084 163.726 222.818C163.674 222.224 161.387 220.411 160.816 220.15C160.394 219.96 159.904 219.951 159.381 219.951Z" fill="white"/>
<path d="M346.848 222.634C346.206 222.876 345.441 223.208 345.603 224.096C345.712 224.732 345.988 225.743 346.516 226.147C347.419 226.84 349.444 227.11 350.599 227.409C353.808 228.24 357.03 229.066 360.244 229.887C364.992 231.107 369.779 232.113 374.609 233.252C380.451 234.638 386.493 235.854 392.511 236.827C395.824 237.353 399.147 237.952 402.56 238.393C404.319 238.616 406.03 238.939 407.884 238.939C408.06 238.925 408.221 238.906 408.397 238.882C408.706 238.868 409.039 238.849 409.353 238.83C409.576 238.811 409.795 238.796 410.028 238.773C410.189 238.754 410.356 238.739 410.527 238.716C410.774 238.702 411.021 238.683 411.254 238.664C411.506 238.64 411.744 238.621 411.986 238.611C412.233 238.583 412.471 238.569 412.718 238.55C412.908 238.531 413.089 238.512 413.274 238.493C413.446 238.474 413.612 238.455 413.783 238.44C413.949 238.417 414.121 238.402 414.287 238.383C414.453 238.36 414.62 238.346 414.796 238.322C414.938 238.308 415.09 238.289 415.233 238.27C415.352 238.255 415.461 238.232 415.58 238.213C415.689 238.194 415.803 238.179 415.917 238.156C416.032 238.137 416.141 238.122 416.245 238.099C416.364 238.084 416.473 238.061 416.592 238.042C417.253 237.738 417.961 237.752 418.579 237.339C419.416 236.774 421.432 233.988 420.362 233.105C419.516 232.398 414.924 232.54 413.498 232.426C409.153 232.085 404.832 231.558 400.544 231.145C394.384 230.566 388.261 229.479 382.196 228.7C374.994 227.775 367.902 226.602 360.819 225.42C357.529 224.856 354.23 224.3 350.95 223.731C349.52 223.389 348.455 222.634 346.848 222.634Z" fill="white"/>
<path d="M158.486 226.856C154.835 227.497 151.194 228.128 147.543 228.764C141.772 229.818 119.074 233.207 113.479 233.829C109.857 234.232 106.244 234.65 102.537 234.944C95.7535 234.617 94.5556 235.732 95.4158 237.54C95.7866 238.319 96.1528 239.349 96.8943 239.909C97.8021 240.588 105.356 242.116 108.279 242.116C111.797 242.235 127.393 239.757 129.974 239.121C133.991 238.139 164.58 229.917 165.364 229.4C165.968 228.996 165.474 227.16 164.723 226.224C164.067 225.413 160.169 226.552 158.486 226.856Z" fill="white"/>
<path d="M183.167 226.054C182.074 226.106 174.615 230.739 174.083 231.437C173.717 231.911 173.726 232.486 173.907 233.06C174.05 233.516 174.178 233.99 174.53 234.342C175.347 235.163 177.173 235.187 178.404 235.187C178.737 235.058 179.074 234.926 179.412 234.793C180.068 234.427 180.595 233.872 181.209 233.397C182.468 232.377 183.428 231.655 184.688 230.639C185.33 230.188 186.803 229.818 187.217 229.111C188.277 227.279 184.426 226.026 183.167 226.054Z" fill="white"/>
<path d="M326.142 226.054C324.901 226.12 322.625 226.885 322.415 228.522C322.358 228.94 322.43 229.367 322.739 229.619C323.295 230.084 327.692 232.296 329.094 233.193C330.159 233.867 330.981 234.679 332.393 234.679C334.294 234.617 334.969 234.152 335.435 233.872C336.258 233.364 337.247 232.111 336.533 231.133C335.906 230.26 334.57 229.885 333.657 229.467C332.65 228.992 331.647 228.518 330.634 228.043C329.959 227.706 327.24 226.054 326.142 226.054Z" fill="white"/>
<path d="M344.375 229.304C343.715 229.594 343.059 229.888 342.398 230.177C341.494 230.538 339.227 231.022 339.769 232.394C340.211 233.519 350.902 236.676 354.177 237.843C362.705 240.791 370.002 243.307 378.991 245.286C385.522 246.724 392.477 248.348 399.706 248.348C400.001 248.333 400.305 248.319 400.591 248.295C400.805 248.276 400.999 248.257 401.214 248.243C401.332 248.219 401.437 248.205 401.551 248.186C402.045 247.935 402.53 247.826 402.996 247.507C403.719 246.99 404.123 246.221 404.684 245.599C405.202 245.03 405.977 244.593 406.285 243.91C406.419 243.591 406.433 243.179 406.224 242.894C405.981 242.585 405.615 242.495 405.254 242.395C403.595 242.172 401.931 241.949 400.263 241.721C397.025 241.199 393.793 240.677 390.551 240.155C386.206 239.429 381.843 238.484 377.588 237.559C370.776 236.082 364.088 234.587 357.452 232.883C354.367 232.071 351.277 231.269 348.192 230.462C347.541 230.258 346.885 230.064 346.229 229.859C345.607 229.636 345.093 229.352 344.375 229.304Z" fill="white"/>
<path d="M189.719 231.31C188.607 231.31 185.365 234.613 184.167 235.581C183.597 236.056 182.194 237.281 181.905 237.969C181.358 239.317 182.204 240.039 183.083 240.689C183.892 241.292 186.368 240.907 187.466 240.086C188.269 239.483 193.427 234.869 193.736 234.328C195.229 231.694 191.454 231.31 189.719 231.31Z" fill="white"/>
<path d="M168.969 231.323C168.532 231.441 168.081 231.57 167.643 231.693C166.488 232.182 139.659 240.489 126.944 243.189C123.274 243.968 119.561 244.471 115.777 245.026C114.617 245.197 112.16 245.036 111.352 245.719C110.829 246.189 112.374 248.667 112.816 249.341C113.938 251.007 127.096 251.563 132.947 250.02C135.314 249.327 170.158 237.147 170.871 236.24C171.603 235.305 171.422 232.975 171.323 232.552C171.071 231.479 170.034 231.323 168.969 231.323Z" fill="white"/>
<path d="M319.794 231.492C318.743 231.772 317.118 231.321 316.462 232.304C316.1 232.831 316.024 233.685 316.362 234.203C316.77 234.815 322.451 239.462 323.126 239.808C324.02 240.264 325.184 240.236 326.301 240.236C327.243 240.217 329.187 239.429 328.954 237.938C328.897 237.544 328.631 237.193 328.331 236.918C327.466 236.135 326.401 235.631 325.46 234.976C324.657 234.435 323.754 233.752 322.95 233.211C322.218 232.66 321.576 232.247 320.844 231.696C320.526 231.54 320.183 231.516 319.794 231.492Z" fill="white"/>
<path d="M311.325 235.974C310.374 236.206 309.281 236.605 309.466 237.872C309.485 238.114 310.973 239.249 311.539 239.799C312.817 241.081 313.759 243.302 315.384 244.176C316.516 244.788 318.189 245.533 319.463 244.883C321.051 244.109 320.642 242.552 320.38 242.215C319.216 240.706 317.633 239.548 316.278 238.195C315.622 237.54 315.004 236.591 314.186 236.211C313.402 235.855 312.285 235.974 311.325 235.974Z" fill="white"/>
<path d="M196.116 236.178C195.256 236.676 194.191 238.048 193.512 238.779C193.008 239.315 192.518 239.852 192.024 240.378C191.021 241.399 188.925 243.151 190.712 244.404C191.453 244.921 192.684 245.343 193.497 245.106C194.153 244.802 194.771 244.745 195.342 244.261C195.907 243.787 196.288 243.089 196.668 242.486C197.115 241.812 198.617 239.709 198.993 239.382C199.767 238.698 200.908 238.181 200.147 236.799C199.81 236.173 196.93 235.713 196.116 236.178Z" fill="white"/>
<path d="M338.31 236.252C337.549 236.579 334.892 237.51 334.939 238.269C335.02 239.37 336.617 239.854 337.587 240.187C338.319 240.443 338.975 240.856 339.65 241.203C341.029 241.934 342.417 242.66 343.79 243.391C345.982 244.492 348.173 245.593 350.365 246.694C353.54 248.365 356.777 249.903 360.081 251.275C363.475 252.685 366.945 254.37 370.691 255.058C373.871 255.642 377.559 255.471 381.068 255.471C381.348 255.447 381.633 255.433 381.909 255.414C382.38 255.395 382.845 255.376 383.316 255.357C383.563 255.338 383.801 255.319 384.043 255.305C384.191 255.276 384.343 255.267 384.495 255.243C384.642 255.224 384.794 255.21 384.946 255.186C385.056 255.167 385.161 255.153 385.275 255.129C385.607 254.982 385.95 254.83 386.292 254.688C387.071 254.137 388.901 252.248 388.131 251.275C387.409 250.383 384.352 250.169 383.15 249.903C380.521 249.329 377.911 248.716 375.349 248.076C366.075 245.759 357.172 242.736 348.302 239.731C346.02 238.896 343.733 238.06 341.451 237.22C340.439 236.845 339.464 236.29 338.31 236.252Z" fill="white"/>
<path d="M173.795 238.492C172.056 238.568 165.786 242.185 163.29 243.225C156.293 246.196 148.996 248.716 141.695 251.147C139.76 251.735 137.816 252.329 135.876 252.908C134.664 253.25 133.214 253.444 132.135 254.042C131.817 254.208 131.546 254.498 131.494 254.863C131.384 255.514 131.931 256.022 132.387 256.363C132.943 256.772 133.476 257.246 134.122 257.488C135.135 257.854 136.314 257.83 137.497 257.887C140.259 258.015 145.749 258.879 149.334 257.313C152.633 255.879 166.579 248.546 170.259 246.557C171.994 245.584 179.614 242.033 179.509 240.628C179.343 238.411 175.768 238.492 173.795 238.492Z" fill="white"/>
<path d="M331.299 240.793C330.672 241.206 329.008 242.468 329.222 243.328C329.469 244.282 332.568 245.71 333.077 246.081C337.812 249.631 342.532 253.153 347.471 256.357C350.19 258.113 352.952 259.955 355.975 261.09C358.927 262.196 362.44 262.58 365.924 262.58C366.124 262.566 366.333 262.547 366.542 262.533C366.832 262.404 367.127 262.29 367.421 262.172C368.235 261.669 370.169 260.022 369.58 258.973C369.432 258.721 369.185 258.541 368.929 258.422C368.211 258.18 367.493 257.933 366.775 257.686C365.535 257.235 364.289 256.775 363.053 256.329C359.207 254.786 355.457 253.11 351.725 251.326C346.61 248.872 341.581 246.28 336.647 243.565C335.102 242.687 333.562 241.799 332.027 240.916C331.898 240.883 331.765 240.85 331.637 240.807C331.518 240.807 331.418 240.798 331.299 240.793Z" fill="white"/>
<path d="M323.894 244.043C323.604 244.19 323.338 244.337 323.134 244.622C322.772 245.125 322.649 245.809 322.421 246.383C322.197 246.9 321.964 247.404 321.731 247.911C321.66 248.196 321.655 248.538 321.774 248.794C322.069 249.383 322.848 249.397 323.371 249.668C323.818 249.896 324.227 250.199 324.607 250.551C328.063 253.802 331.314 257.229 334.813 260.305C336.111 261.458 337.247 262.882 338.725 263.67C339.909 264.311 341.344 264.62 342.68 264.966C344.748 265.493 346.759 266.224 349.088 266.224C349.934 265.802 352.449 265.028 352.026 263.661C352.007 263.609 351.983 263.556 351.954 263.504C351.902 263.423 351.845 263.333 351.788 263.253C350.937 262.313 349.659 261.833 348.632 261.193C346.706 260.001 344.838 258.748 342.951 257.509C338.359 254.49 334.01 251.025 329.58 247.707C327.944 246.483 326.832 244.579 324.788 244.105C324.669 244.09 324.564 244.081 324.45 244.057C324.36 244.048 324.27 244.048 324.175 244.048C324.075 244.043 323.994 244.043 323.894 244.043Z" fill="white"/>
<path d="M181.264 244.092C180.009 244.444 151.312 260.145 150.899 260.824C150.21 261.935 152.33 263.658 153.385 263.891C154.958 264.237 163.653 263.397 167.422 261.152C168.52 260.331 181.512 250.135 182.534 249.285C183.779 248.222 187.839 246.124 187.387 245.241C186.874 244.239 182.448 243.717 181.264 244.092Z" fill="white"/>
<path d="M189.29 248.075C188.496 247.975 183.923 253.638 173.028 261.251C172.091 261.897 169.966 263.255 169.5 264.218C168.821 266.098 171.93 266.568 173.07 266.568C173.332 266.544 179.241 265.789 181.983 264.199C183.243 263.463 195.488 251.174 195.869 250.633C196.04 250.391 196.168 249.143 196.116 249.034C195.469 248.056 193.435 248.73 192.289 248.583C191.41 248.459 190.155 248.208 189.29 248.075Z" fill="white"/>
<path d="M315.362 248.131C314.292 248.463 313.256 249.73 313.736 250.993C313.988 251.672 314.72 251.814 315.233 252.241C315.713 252.659 316.065 253.134 316.417 253.632C318.603 256.651 320.767 259.713 323.11 262.637C324.008 263.747 324.931 265.162 326.162 266.021C327.754 267.141 330.934 268.247 333.097 268.247C333.872 267.858 335.792 267.787 335.83 266.609C335.83 266.562 335.83 266.505 335.821 266.453C335.693 265.333 333.625 263.871 332.807 263.102C329.561 259.993 326.319 256.884 323.062 253.775C322.387 253.086 321.708 252.403 321.028 251.719C320.4 251.007 319.873 250.219 319.103 249.607C318.081 248.781 316.793 248.173 315.362 248.131Z" fill="white"/>
<path d="M186.619 271.864C186.124 272.035 186.296 272.922 186.434 273.378C186.676 274.176 189.866 279.368 191.277 281.452C192.49 283.246 193.65 285.088 195.09 286.768C200.533 293.148 207.107 298.811 214.18 302.442C215.259 302.983 221.144 306.04 222.48 305.916C222.76 305.893 222.855 305.622 222.803 305.461C222.713 305.124 222.418 304.924 222.142 304.749C220.806 304.122 219.466 303.491 218.125 302.864C215.82 301.777 213.548 300.463 211.385 299.067C206.313 295.782 201.636 291.895 197.329 287.162C195.361 285.003 194.044 282.767 192.262 280.185C190.579 277.759 188.345 273.312 187.779 272.396C187.484 271.911 187.071 271.598 186.619 271.864Z" fill="white"/>
<path d="M322.549 272.388C321.978 272.692 318.774 278.616 316.017 282.618C312.951 287.051 309.077 291.323 304.794 294.769C301.215 297.655 297.716 299.758 293.733 301.837C291.237 303.047 288.095 304.462 287.506 304.96C286.716 305.61 287.116 306.113 288.038 306.113C288.846 305.776 292.516 304.243 296.214 302.207C303.995 297.925 311.901 290.848 317.324 283.472C319.659 280.287 322.815 274.339 323.157 273.509C323.423 272.858 323.276 272.46 322.549 272.388Z" fill="white"/>
<path fill-rule="evenodd" clip-rule="evenodd" d="M224.517 201.567C224.517 201.567 223.723 200.086 225.453 199.222C227.202 198.354 240.161 194.21 255.481 194.21C272.309 194.21 286.931 199.654 287.782 200.347C288.942 201.287 287.886 203.038 286.579 202.777C285.286 202.521 272.024 196.901 255.657 196.901C239.291 196.901 227.858 201.24 226.851 201.828C225.653 202.521 224.517 201.567 224.517 201.567Z" fill="white"/>
<path d="M206.79 254.216C206.79 234.142 228.3 217.871 254.839 217.871C281.383 217.871 302.897 234.142 302.897 254.216C302.897 274.294 281.383 290.566 254.839 290.566C228.3 290.566 206.79 274.294 206.79 254.216Z" stroke="white" stroke-width="5.52926" stroke-miterlimit="3.864"/>
<path d="M251.233 225.047C250.858 225.266 250.221 225.128 249.774 225.18C247.83 225.437 245.885 225.679 244.003 226.035C238.551 227.046 233.303 229.172 228.863 232.215C227.736 232.988 226.448 233.876 225.55 234.982C225.526 235.03 225.498 235.072 225.46 235.124C225.136 235.661 224.566 236.069 224.347 236.658C224.262 236.895 224.181 237.26 224.271 237.526C224.575 238.395 226.196 239.89 227.004 240.369C227.404 240.612 228.083 241.072 228.145 241.575C228.231 242.344 228.06 243.08 228.012 243.759C228.002 244.675 228.002 245.591 228.002 246.507V260.006V265.38C227.988 266.168 227.969 266.941 227.945 267.724C227.841 268.114 226.291 269.604 225.925 270.022C225.441 270.577 225.188 271.275 224.789 271.864C224.785 271.911 224.761 271.954 224.742 271.996C224.975 272.215 224.932 272.637 225.093 272.903C225.564 273.677 226.348 274.493 227.095 275.067C233.174 279.809 242.316 282.425 250.444 283.075C253.658 283.327 256.961 283.089 260.217 283.089C260.493 282.809 262.513 282.809 263.07 282.809C263.331 282.553 264.747 282.534 265.204 282.534C265.47 282.244 266.359 282.244 266.777 282.244C266.939 282.078 267.248 282.078 267.509 282.078C267.771 281.803 268.389 281.803 268.793 281.803C268.983 281.589 269.501 281.523 269.805 281.523C269.991 281.324 270.466 281.238 270.756 281.238C270.942 281.034 271.474 280.963 271.764 280.963C272.054 280.645 272.9 280.403 273.342 280.403C273.561 280.099 273.955 280.051 274.264 279.909C275.049 279.529 275.828 279.15 276.603 278.77C279.317 277.17 281.756 275.011 283.191 272.186C283.476 271.64 283.89 271.109 283.89 270.425C284.113 270.202 284.166 269.765 284.166 269.419C284.494 269.096 284.446 268.351 284.446 267.853C284.807 267.444 284.622 266.196 284.613 265.612C284.532 260.063 280.211 254.723 275.391 252.663C275.3 252.625 275.077 252.616 275.077 252.497C275.429 252.255 275.909 251.766 276.375 251.766C276.731 251.235 277.901 250.779 278.443 250.314C279.579 249.36 282.317 246.664 282.317 245.221C282.507 245.04 282.592 244.77 282.592 244.49C282.82 244.276 282.877 243.858 282.877 243.531C283.277 243.113 283.158 242.036 283.158 241.404C283.514 241.02 283.267 240.108 283.191 239.667C282.706 237.023 281.637 234.811 279.816 232.865C279.403 232.424 278.942 232.096 278.533 231.678C277.245 230.345 275.552 229.49 273.974 228.702C269.544 226.49 264.401 225.308 259.034 225.057C256.424 225.052 253.829 225.047 251.233 225.047Z" fill="white"/>
<path d="M253.974 229.867C257.012 229.867 260.011 230.128 262.35 231.499C265.982 233.626 267.061 238.017 266.524 242.194C266.191 244.686 265.359 247.092 263.472 248.744C261.628 250.353 259.237 250.747 256.731 251.07C251.184 251.782 245.442 249.855 243.864 244.534C243.478 243.247 243.179 241.833 243.16 240.399C243.193 239.692 243.231 238.975 243.265 238.273C243.502 238.012 243.54 237.352 243.54 236.982C243.731 236.792 243.83 236.422 243.83 236.142C243.982 236.004 244.101 235.748 244.101 235.525C244.211 235.425 244.272 235.292 244.272 235.131C244.577 234.893 245.119 234.067 245.119 233.673C245.556 233.427 245.803 232.942 246.159 232.605C247.12 231.708 248.917 230.598 250.276 230.598C250.409 230.446 250.628 230.431 250.837 230.431C251.127 230.118 251.959 230.147 252.411 230.147C252.748 229.781 253.561 230.094 253.974 229.867Z" fill="black"/>
<path d="M253.255 255.472C256.982 255.472 260.267 255.524 263.224 256.886C269.531 259.796 270.116 270.272 265.752 275.076C262.591 278.588 255.784 279.205 251.107 277.976C250.037 277.686 248.963 277.458 248.012 276.922C246.752 276.196 245.759 275.265 244.898 274.079C243.682 272.403 242.983 269.997 242.878 267.794C242.821 266.555 242.983 265.326 242.983 264.149C243.216 263.921 243.263 263.389 243.263 263.033C243.468 262.829 243.539 262.435 243.539 262.136C243.725 261.984 243.829 261.709 243.829 261.462C244.033 261.287 244.271 260.859 244.271 260.56C244.77 260.185 245.098 259.435 245.455 258.937C245.864 258.367 247.47 257.043 248.145 257.043C248.378 256.744 248.991 256.473 249.381 256.473C249.557 256.269 249.994 256.198 250.275 256.198C250.494 255.956 251.055 255.918 251.401 255.918C251.81 255.481 252.799 255.861 253.255 255.472Z" fill="black"/>
<path d="M297.947 202.644C298.66 202.435 299.354 202.596 299.829 203.109C300.281 203.602 300.152 204.433 299.572 204.756C299.102 205.017 298.474 205.041 297.947 205.178C296.592 205.53 291.938 206.208 291.682 207.822C291.543 208.752 292.775 209.83 293.245 210.162C293.887 210.722 292.775 209.669 293.416 210.229C294.353 211.05 296.44 212.488 295.313 213.964C295.038 214.32 294.586 214.486 294.12 214.439C291.9 214.216 288.872 209.816 288.611 209.089C288.292 208.188 288.421 207.262 288.934 206.517C290.669 204.034 295.28 203.555 297.947 202.644Z" fill="black"/>
<path d="M334.977 209.802C334.858 211.686 340.262 211.302 341.579 211.421C343.533 211.596 347.336 213.001 348.063 212.351C348.942 211.568 349.879 207.856 348.301 207.785C346.009 207.69 345.144 207.946 342.592 208.141C339.968 208.302 335.095 207.965 334.977 209.802Z" fill="white"/>
<path d="M174.98 210.457C175.056 211.757 169.528 211.743 168.216 211.862C166.267 212.037 163.144 213.376 162.094 212.218C161.3 211.349 160.282 208.814 161.87 208.748C164.152 208.648 165.763 208.805 168.306 208.999C170.945 209.161 174.862 208.572 174.98 210.457Z" fill="white"/>
<path d="M216.858 202.26C219.444 202.906 220.922 202.834 222.415 205.265C223.166 206.47 223.213 208.402 221.954 210.073C221.141 211.165 220.832 211.507 219.938 212.594C219.026 213.695 218.916 214.44 217.371 214.663C216.858 214.739 216.416 214.616 216.13 214.203C215.109 212.726 217.281 210.937 218.427 209.646C218.864 209.152 219.853 207.685 219.691 207.073C219.387 205.056 216.963 205.089 215.356 204.591C214.766 204.401 213.122 204.097 212.603 203.769C211.981 203.376 212.166 202.616 212.537 202.051C212.827 201.61 214.329 201.667 216.858 202.26Z" fill="black"/>
<path d="M330.855 209.162C331.411 209.304 332.115 209.318 332.224 209.997C332.348 210.842 331.706 211.644 329.99 211.834C328.797 211.711 326.387 209.584 325.45 211.459C324.647 213.044 329.7 213.676 329.472 215.247C329.291 216.562 328.811 216.775 327.646 216.775C327.119 216.804 325.874 216.044 325.45 215.888C324.29 215.351 321.543 213.173 320.507 214.919C319.485 216.647 326.463 218.992 326.277 220.34C326.092 221.617 324.809 222.623 323.839 222.291C322.499 221.968 318.206 216.937 316.257 218.911C314.46 220.734 321.638 223.929 321.282 225.039C320.673 226.905 319.038 227.46 316.761 225.571C315.572 224.584 313.7 222.747 312.63 224.185C311.313 225.96 315.107 228.196 315.439 228.789C316.271 230.284 314.36 232.012 313.101 231.727C311.931 231.571 310.206 227.166 308.571 228.68C307.316 229.833 310.382 232.582 310.063 233.678C309.935 234.699 307.335 236.042 306.127 235.097C304.468 233.996 308.38 228.272 304.54 222.875C302.681 220.582 301.169 217.022 301.065 216.396C300.917 215.299 300.998 213.415 301.702 212.475C304.392 208.872 316.599 209.114 321.814 208.872C325.308 208.706 327.276 209.162 330.855 209.162Z" fill="white"/>
<path d="M178.284 209.693C177.58 209.693 176.972 209.845 176.867 210.548C176.734 211.412 176.862 212.783 178.327 212.821C180.052 212.85 182.158 210.557 183.166 212.005C184.307 213.638 178.412 214.62 179.353 216.604C180.566 219.139 182.957 216.818 183.394 216.661C184.582 216.106 188.29 212.807 189.797 214.981C191.133 216.894 185.043 219.671 184.307 220.582C184.097 220.848 183.665 222.281 183.831 222.633C185.162 225.585 188.523 222.756 190.776 220.293C191.613 219.376 192.221 218.873 193.058 218.655C194.213 218.356 195.221 218.584 195.53 219.619C195.715 220.207 195.539 220.9 195.107 221.304C194.636 221.755 189.388 225.538 189.564 226.667C189.925 228.96 191.313 229.264 192.331 228.775C193.424 228.291 196.495 223.084 198.306 223.772C198.786 223.957 199.385 224.038 199.575 224.498C199.841 225.129 199.737 226.012 199.337 226.544C198.829 227.227 197.869 228.125 197.222 228.694C196.671 229.178 196.057 229.753 195.729 230.355C194.874 231.889 196.143 232.591 197.545 232.591C198.04 232.591 198.306 232.316 198.648 232.022C199.504 231.295 200.393 228.058 202.128 228.922C203.944 229.833 200.583 232.397 200.915 234.214C201.41 235.586 203.592 235.866 204.195 234.846C204.861 233.218 204.467 230.707 205.137 227.878C205.788 225.343 207.613 221.465 208.493 219.937C209.053 219.035 209.733 218.327 209.99 217.25C210.009 217.174 210.023 217.103 210.038 217.027C210.185 215.892 209.467 214.957 208.697 214.264C207.433 213.111 205.726 212.404 204.143 211.877C199.475 210.325 194.479 210.182 189.127 209.935C185.528 209.76 181.954 209.693 178.284 209.693Z" fill="white"/>
<path d="M304.088 238.728C304.744 237.403 307.725 238.856 308.001 239.107C308.823 239.829 309.104 241.011 309.712 241.875C310.458 242.938 312.398 245.188 312.289 246.393C312.198 247.371 308.429 250.29 307.606 249.602C307.583 249.578 307.564 249.545 307.526 249.517C306.969 245.881 305.767 242.387 304.003 239.117C304.003 238.974 304.041 238.842 304.088 238.728Z" fill="white"/>
<path d="M308.168 251.437C309.204 251.437 310.973 251.841 311.69 252.472C312.285 252.989 312.584 253.768 313.007 254.409L315.194 257.489L320.271 264.301L322.595 267.296C323.028 268.032 322.909 268.577 322.267 269.085L321.872 269.138C319.51 269.138 315.84 268.259 314.234 266.845C313.43 266.133 313.002 265.288 312.489 264.438L310.007 259.858C309.608 259.174 308.182 257.081 307.93 256.336C307.902 256.25 307.864 256.136 307.835 256.004C307.873 255.41 307.887 254.817 307.887 254.214C307.887 253.421 307.859 252.629 307.802 251.841C307.887 251.613 308.006 251.461 308.168 251.437Z" fill="white"/>
<path d="M196.363 253.724C197.722 251.844 199.491 250.292 201.14 250.543C201.52 250.558 201.796 250.7 201.976 250.914C201.853 252.001 201.796 253.107 201.796 254.217L201.81 254.73L201.767 254.844C201.301 256.51 201.13 256.125 200.004 258.304C198.293 261.603 196.424 266.321 195.321 266.829C193.715 267.57 191.267 267.479 189.499 267.921C186.97 268.562 185.173 267.907 185.173 266.73C185.182 265.22 195.35 255.252 196.363 253.724Z" fill="white"/>
<path d="M197.032 269.307C198.52 269.449 198.991 271.429 200.745 271.846C201.857 272.112 203.145 271.514 204.02 271.011C204.585 270.683 205.374 270.038 206.126 270.119C211.164 278.938 220.268 286.12 231.652 290.311C231.676 290.358 231.695 290.401 231.719 290.449C231.809 290.89 231.681 291.255 231.528 291.441C230.93 292.124 225.135 301.228 223.951 301.513C222.915 301.878 218.937 299.334 217.506 298.556C209.952 294.474 202.808 289.006 197.279 281.895C195.53 279.659 190.591 273.921 190.648 271.552C190.695 269.881 196.158 269.269 197.032 269.307Z" fill="white"/>
<path d="M313.086 270.658C313.713 270.406 318.225 272.072 318.301 273.178C318.258 274.09 315.496 277.953 312.401 282.097C306.978 289.369 300.251 294.291 292.736 298.473C291.12 299.37 289.404 300.187 287.692 300.894L286.243 301.464C285.791 301.464 285.382 301.345 285.097 301.041C284.517 300.443 278.656 291.719 278.38 291.344C278.157 291.045 278.219 290.532 278.428 290.176C289.109 286.146 297.746 279.487 302.847 271.313C303.707 271.076 305.214 272.367 305.87 272.689C307.011 273.249 308.451 273.814 309.858 273.425C311.332 273.022 311.931 271.185 313.086 270.658Z" fill="white"/>
<path d="M262.795 293.896C263.389 294.247 263.698 294.916 263.921 295.367C264.373 296.288 265.803 304.59 266.55 307.832C266.778 308.909 267.077 310.575 266.902 311.71C266.75 312.702 265.599 314.088 264.401 314.249C263.408 314.396 261.421 312.896 261.083 312.146C260.646 311.154 260.717 309.939 260.613 308.781C260.351 305.288 259.838 296.872 259.838 295.97C259.838 295.438 260.014 294.617 260.57 294.109C261.316 294.047 262.058 293.981 262.795 293.896Z" fill="white"/>
<path d="M269.644 292.756C269.962 293.036 270.2 293.382 270.39 293.634C271.018 294.488 273.946 302.619 275.272 305.776C275.705 306.815 276.304 308.453 276.323 309.625C276.346 310.66 275.434 312.265 274.26 312.635C273.271 312.962 271.003 311.809 270.533 311.102C269.905 310.181 269.763 308.942 269.444 307.784C268.56 304.3 266.535 295.889 266.373 294.982C266.297 294.55 266.302 293.914 266.549 293.359C267.6 293.183 268.622 292.979 269.644 292.756Z" fill="white"/>
<path d="M275.9 291.054C276.309 291.305 276.632 291.661 276.888 291.927C277.611 292.696 281.514 300.414 283.216 303.381C283.762 304.363 284.566 305.911 284.737 307.074C284.874 308.094 284.166 309.793 283.045 310.316C282.108 310.752 279.712 309.884 279.156 309.243C278.424 308.403 278.134 307.192 277.678 306.082C276.371 302.73 273.338 294.628 273.067 293.745C272.919 293.275 272.848 292.53 273.124 291.894C274.06 291.633 274.992 291.357 275.9 291.054Z" fill="white"/>
<path d="M255.933 294.331C256.475 294.763 256.693 295.456 256.865 295.921C257.202 296.899 257.616 305.315 257.948 308.628C258.048 309.715 258.148 311.414 257.834 312.511C257.554 313.479 256.252 314.713 255.044 314.732C254.036 314.747 252.24 313.028 252.006 312.24C251.683 311.201 251.916 310.005 251.945 308.832C252.116 305.339 252.62 296.923 252.734 296.035C252.796 295.523 253.052 294.773 253.613 294.331C254.031 294.341 254.44 294.341 254.84 294.341C255.206 294.341 255.572 294.341 255.933 294.331Z" fill="white"/>
<path d="M249.592 294.149C250.029 294.647 250.133 295.354 250.219 295.824C250.405 296.845 249.492 305.213 249.311 308.545C249.23 309.632 249.064 311.327 248.584 312.361C248.151 313.273 246.673 314.289 245.484 314.118C244.477 313.98 242.989 311.991 242.875 311.179C242.723 310.097 243.132 308.958 243.341 307.809C244.058 304.382 245.884 296.147 246.131 295.288C246.25 294.861 246.549 294.291 247.02 293.911C247.871 294.001 248.731 294.082 249.592 294.149Z" fill="white"/>
<path d="M243.202 293.368C243.739 293.971 243.716 294.835 243.725 295.395C243.725 296.43 241.372 304.513 240.607 307.755C240.341 308.823 239.884 310.456 239.228 311.401C238.648 312.217 237.018 312.962 235.877 312.587C234.917 312.274 233.781 310.067 233.809 309.241C233.847 308.154 234.451 307.1 234.869 306.004C236.162 302.752 239.39 294.963 239.784 294.156C239.989 293.757 240.379 293.235 240.925 292.936C241.667 293.102 242.432 293.24 243.202 293.368Z" fill="white"/>
<path d="M236.945 291.999C237.326 292.664 237.169 293.461 237.093 293.988C236.941 295.004 233.347 302.632 232.083 305.717C231.655 306.728 230.942 308.271 230.153 309.092C229.449 309.818 227.714 310.293 226.645 309.747C225.751 309.287 224.981 306.927 225.138 306.116C225.342 305.053 226.103 304.103 226.687 303.087C228.475 300.078 232.881 292.892 233.399 292.151C233.613 291.847 233.97 291.482 234.417 291.259C235.249 291.525 236.099 291.767 236.945 291.999Z" fill="white"/>
<path d="M203.133 238.429C204.012 238.21 205.762 237.541 206.085 238.4C204.212 241.68 202.914 245.183 202.268 248.843C201.588 249.237 199.877 248.245 198.123 247.509C195.751 246.498 199.287 244.49 200.519 242.677C201.184 241.694 202.287 239.103 203.133 238.429Z" fill="white"/>
<path d="M202.049 258.268C202.529 261.747 203.57 265.084 205.129 268.236C204.782 268.877 201.288 270.201 199.401 268.611C198.336 267.296 200.841 258.116 202.049 258.268Z" fill="white"/>
<path d="M443.577 198.77C444.437 198.77 445.198 198.77 445.873 199.117C446.805 199.591 449.557 202.316 449.528 203.413C449.509 203.996 446.073 205.069 444.528 205.653C443.377 206.17 440.787 207.205 440.344 207.348C440.055 207.452 437.996 207.471 437.654 207.461C437.188 207.476 433.98 207.509 432.634 207.509C432.092 207.528 422.319 207.784 418.996 207.784C415.303 207.784 411.676 207.87 407.997 207.87C407.174 207.87 402.972 207.936 402.725 207.965H386.957H383.54L382.194 208.017L381.353 208.069H371.199C370.429 208.069 365.295 208.221 363.004 208.354C359.843 208.615 355.185 209.009 354.98 209.023C354.362 209.023 353.126 209.256 352.941 208.567C352.746 207.832 354.272 207.485 354.752 207.395C360.404 206.284 366.075 204.931 372.473 204.134C383.117 202.8 388.241 202.639 389.976 202.126C390.984 201.818 390.779 200.508 389.976 200.408C378.563 199.065 353.036 204.063 349.371 204.822C342.564 206.289 337.521 206.655 335.842 206.669H319.97C311.143 206.655 307.321 207.623 306.718 207.741C305.011 208.131 303.4 208.667 301.883 209.45C298.67 211.097 296.626 213.129 297.981 216.983C298.46 217.814 298.917 218.958 299.383 219.788C300.476 221.958 301.883 224.63 303.019 226.752C303.841 228.261 304.35 230.155 304.35 232.049L303.894 234.403C303.865 234.807 302.877 236.544 302.358 236.236C302.306 236.198 302.216 236.098 302.097 235.965C301.474 235.054 300.814 234.157 300.11 233.288C299.882 232.97 299.701 232.714 299.62 232.619C298.798 231.546 301.175 230.079 300.956 228.717C300.509 226.016 296.535 220.847 293.55 218.383C291.801 216.94 290.18 215.028 288.626 213.262C287.984 212.384 287.266 211.657 286.615 210.789C286.044 210.02 285.778 209.54 285.545 208.601C285.093 206.726 286.22 205.587 287.432 204.623C288.155 204.049 289.524 203.194 290.641 202.739C293.655 201.5 300.723 200.247 304.906 199.701C306.294 199.563 309.688 199.16 312.227 199.107C315.06 199.107 317.76 199.193 320.412 199.397C325.584 199.8 330.637 200.764 336.013 200.84C343.838 200.963 351.367 200.474 358.959 200.109C362.344 199.947 365.913 199.724 369.536 199.421C375.093 198.946 392.034 199.16 394.535 199.316C395.766 199.387 406.984 199.848 412.655 200.285C413.915 200.379 414.937 200.498 415.75 200.641C418.24 200.588 420.712 200.697 423.151 200.55C427.71 200.261 432.282 199.758 436.784 199.397L443.577 198.77Z" fill="white"/>
<path d="M129.783 198.327C137.017 198.327 143.416 198.935 150.403 199.272C153.992 199.433 157.467 199.509 161.056 199.676C164.674 199.846 168.386 200.122 172.065 200.122C178.663 200.122 184.881 199.695 191.303 199.395L196.242 199.381C199.322 199.329 202.726 199.201 205.839 199.5C207.779 199.68 209.737 199.695 211.615 199.913C214.168 200.207 218.579 200.729 220.433 201.565C222.144 202.324 223.389 203.478 224.045 204.204C225.305 205.59 227.183 207.754 226.132 209.387C225.7 210.208 224.497 211.404 223.869 212.126C223.033 213.061 216.497 218.482 214.871 220.789C213.398 222.844 212.97 224.391 212.062 226.005C210.821 228.079 212.185 229.622 211.729 230.837C210.379 232.271 209.138 233.766 208.031 235.332C207.788 235.465 207.574 235.508 207.403 235.385C206.281 234.601 206.5 232.926 206.771 230.752C206.89 229.114 208.207 225.73 208.687 224.857C209.609 223.119 212.584 219.474 212.822 218.814C214.729 213.479 209.419 210.18 205.383 208.865C204.043 208.428 202.702 207.93 201.295 207.674C196.095 206.734 190.523 206.838 184.914 206.663C181.059 206.544 176.995 206.392 173.068 206.392L164.593 206.373C161.888 206.159 159.15 206.003 156.626 205.405C152.3 204.379 148.673 203.44 144.347 202.486C140.668 201.679 136.694 200.976 132.763 200.729C130.087 200.563 125.428 200.269 122.652 200.269C120.608 200.269 105.468 200.112 103.229 200.734C102.454 200.886 102.578 202.343 103.101 202.471C106.01 203.302 116.81 203.539 123.969 203.292C128.176 203.497 132.877 204.019 136.856 204.588C142.004 205.319 146.757 206.254 151.53 207.764L156.626 209.093C157.467 209.354 158.565 209.914 157.415 210.702C154.263 210.702 151.349 210.09 148.155 210.042C140.112 210.042 128.509 209.8 120.442 209.8C119.6 209.748 80.4928 209.33 75.8248 209.064C70.6294 208.765 65.9469 206.278 64.1976 205.419C63.5321 205.125 61.5737 203.606 61.6927 203.307C62.068 202.343 64.1976 198.712 65.8663 198.579C69.403 198.911 73.7618 199.381 77.4079 199.543C77.4079 199.543 103.529 199.253 104.299 199.196C108.235 198.888 117.585 198.484 121.625 198.413C123.864 198.375 127.653 198.233 129.783 198.327Z" fill="white"/>
<path d="M308.014 260.073C309.222 259.921 311.736 270.321 310.139 271.109C308.523 271.968 304.677 269.999 304.23 269.476C304.145 269.386 304.097 269.277 304.088 269.163C305.557 266.401 306.626 263.496 307.249 260.472C307.458 260.258 307.696 260.14 308.014 260.073Z" fill="white"/>
<path d="M255.75 199.133C242.668 199.133 228.64 202.826 228.117 203.623C226.905 205.527 229.51 205.451 229.443 208.095C229.362 211.332 226.843 213.501 225.968 214.436C222.636 217.968 218.387 219.767 215.449 223.711C215.225 224.005 215.007 225.334 215.306 225.743C216.081 226.777 217.902 225.633 218.339 225.287C224.519 220.46 230.318 218.523 237.325 216.349C239.065 215.803 247.892 213.961 259.281 214.45C269.349 214.882 278.633 217.512 286.714 222.249C289.942 224.138 292.822 226.488 295.884 229.027C296.996 229.962 297.866 228.595 297.904 228.087C297.947 227.499 297.467 226.668 297.162 226.175C294.838 222.297 289.709 218.794 286.153 214.626C284.394 212.561 283.515 211.816 282.854 210.634C280.682 206.965 284.005 206.756 283.586 205.076C283.263 203.737 270.376 199.133 255.75 199.133Z" fill="white"/>
<path d="M64.6274 396.509C60.4655 396.501 56.616 396.475 52.7667 396.492C50.8425 396.5 49.9926 395.713 50 393.678C50.0559 378.385 50.058 363.091 50.015 347.798C50.0092 345.751 50.8526 345.074 52.8125 345.085C61.551 345.135 70.2962 344.892 79.0274 345.149C90.4547 345.486 96.926 355.141 92.2456 364.544C91.5176 366.007 90.4759 367.314 89.4644 368.869C91.1805 370.305 93.1873 371.244 94.5133 373.043C101.12 382.009 96.2365 394.272 85.1927 396.046C78.4854 397.123 71.6917 396.316 64.6274 396.509ZM60.4689 385.201C60.5741 387.643 62.5821 387.123 63.9571 387.286C69.451 387.934 74.9372 387.205 80.4186 386.923C84.4875 386.713 86.8007 384.527 86.9673 381.2C87.1424 377.703 85.0251 375.533 80.7436 374.813C74.7619 373.805 68.734 374.43 62.7276 374.293C60.9293 374.252 60.4169 375.274 60.4396 376.871C60.4767 379.465 60.4512 382.059 60.4689 385.201ZM83.4632 360.728C83.6901 356.643 82.0987 354.533 78.1747 354.238C74.8651 353.988 71.5263 353.982 68.205 354.06C58.8897 354.279 60.644 352.763 60.4396 362.082C60.4351 362.289 60.4575 362.498 60.4438 362.705C60.3283 364.45 61.1882 365.112 62.879 365.093C67.8665 365.038 72.8563 365.121 77.8419 365.005C80.4204 364.945 82.4408 363.799 83.4632 360.728Z" fill="black"/>
<path d="M218.029 351.531C218.047 365.797 218.026 379.755 218.126 393.712C218.141 395.778 217.427 396.396 215.456 396.524C212.214 396.734 209.827 395.867 207.622 393.203C199.852 383.819 191.811 374.659 183.851 365.434C182.845 364.268 181.705 363.219 180.594 362.081C179.45 363.173 179.905 364.384 179.9 365.445C179.856 374.611 179.78 383.779 179.93 392.943C179.976 395.727 178.978 396.756 176.322 396.497C175.497 396.416 174.654 396.439 173.824 396.488C171.617 396.619 170.674 395.761 170.686 393.402C170.76 378.299 170.747 363.196 170.689 348.093C170.681 345.984 171.389 345.237 173.55 345.063C177.765 344.725 180.875 345.687 183.748 349.292C190.429 357.671 197.671 365.604 204.73 373.679C205.877 374.991 207.253 376.102 208.82 377.588C209.046 370.119 209.497 362.912 209.231 355.682C209.166 353.918 208.993 352.155 208.984 350.391C208.957 345.157 208.987 345.334 214.285 345.102C217.397 344.965 218.469 346.098 218.069 349.036C217.971 349.753 218.038 350.493 218.029 351.531Z" fill="black"/>
<path d="M374.741 386.99C379.741 386.982 384.431 387.05 389.115 386.935C391.445 386.878 392.554 387.533 392.43 390.108C392.134 396.263 393.898 396.785 386.033 396.461C374.684 395.992 363.345 396.105 352.006 396.536C349.201 396.642 348.195 395.723 348.221 392.79C348.353 378.104 348.334 363.415 348.232 348.729C348.214 346.099 348.86 345.037 351.706 345.065C363.892 345.189 376.081 345.169 388.266 345.043C390.987 345.014 391.915 345.858 391.874 348.613C391.784 354.653 391.904 354.823 385.76 354.526C377.843 354.143 369.942 354.358 362.031 354.532C359.383 354.591 358.43 355.479 358.331 358.188C358.059 365.665 357.939 365.682 365.231 365.656C369.603 365.64 373.979 365.645 378.345 365.443C380.576 365.34 381.269 366.149 381.22 368.307C381.052 375.789 382.108 374.744 374.761 374.803C370.491 374.837 366.216 374.914 361.95 374.762C359.469 374.674 358.468 375.462 358.323 378.064C357.826 386.995 357.738 386.991 366.616 386.998C369.22 386.999 371.824 386.993 374.741 386.99Z" fill="black"/>
<path d="M137.758 396.136C130.166 396.253 122.882 396.294 115.604 396.524C112.74 396.615 111.87 395.559 111.894 392.703C112.02 378.025 112.008 363.345 111.898 348.667C111.878 345.961 112.667 345.037 115.44 345.065C127.618 345.189 139.8 345.185 151.979 345.058C154.744 345.029 155.598 345.932 155.51 348.652C155.3 355.124 156.247 354.824 149.388 354.518C141.475 354.165 133.579 354.329 125.672 354.544C123.254 354.61 122.226 355.353 122.051 357.947C121.529 365.672 121.413 365.669 128.99 365.669C133.362 365.67 137.735 365.707 142.106 365.619C144.084 365.579 144.898 366.291 144.881 368.334C144.814 376.13 145.34 374.692 138.697 374.792C134.221 374.86 129.741 374.887 125.268 374.767C122.964 374.705 122.238 375.617 122.12 377.862C121.64 387 121.575 387.006 130.713 387.007C138.104 387.008 145.497 387.055 152.887 386.932C155.336 386.892 156.126 387.754 156.13 390.197C156.141 396.502 156.246 396.538 149.92 396.469C145.968 396.425 142.018 396.251 137.758 396.136Z" fill="black"/>
<path d="M441.152 371.692C439.095 373.671 438.761 376.024 438.76 378.463C438.758 383.565 438.72 388.668 438.865 393.766C438.919 395.641 438.315 396.369 436.455 396.525C429.14 397.139 428.929 396.987 428.928 389.734C428.928 389.005 428.827 388.26 428.942 387.55C430.458 378.173 427.154 370.675 420.652 363.961C415.961 359.118 412.024 353.544 407.767 348.284C407.142 347.512 406.278 346.844 406.228 345.351C409.924 344.935 413.521 345.046 417.102 345.259C418.321 345.332 418.9 346.576 419.629 347.446C424.172 352.871 428.711 358.3 433.262 363.718C433.381 363.859 433.63 363.891 434.037 364.07C438.729 359.172 443.03 353.834 447.191 348.411C449.115 345.904 451.148 344.654 454.285 345.1C456.616 345.431 459.027 344.702 462 345.606C454.948 354.429 448.12 362.97 441.152 371.692Z" fill="black"/>
<path d="M258.882 396.45C251.308 396.534 251.327 396.534 251.343 389.293C251.365 379.607 251.387 369.922 251.347 360.236C251.325 354.875 250.842 354.384 245.49 354.299C242.476 354.252 239.448 354.31 236.444 354.547C233.979 354.741 232.83 354.095 232.805 351.362C232.749 345.057 232.636 345.105 239.007 345.121C251.087 345.153 263.168 345.124 275.248 345.125C279.333 345.125 279.333 345.131 279.347 349.315C279.364 354.87 279.365 354.87 273.639 354.384C270.514 354.118 267.4 354.441 264.282 354.501C261.765 354.549 261.121 355.633 261.137 357.954C261.218 369.618 261.187 381.283 261.18 392.947C261.179 394.471 261.53 396.246 258.882 396.45Z" fill="black"/>
<path d="M330.905 386.97C334.357 386.5 335.063 388.074 334.986 390.936C334.836 396.505 334.961 396.698 329.321 396.449C318.385 395.967 307.457 396.107 296.532 396.535C293.518 396.654 292.591 395.588 292.62 392.583C292.756 378.102 292.768 363.617 292.626 349.136C292.595 345.971 293.567 344.961 296.725 345.069C303.525 345.3 302.962 344.45 302.971 351.306C302.985 362.036 303.064 372.768 302.943 383.497C302.911 386.246 303.796 387.103 306.533 387.047C314.553 386.884 322.579 386.977 330.905 386.97Z" fill="black"/>
</svg>
