<svg width="512" height="512" viewBox="0 0 512 512" fill="none" xmlns="http://www.w3.org/2000/svg">
<path d="M208.296 265.903C205.931 264.952 204.124 263.633 202.874 261.946C201.624 260.259 201 258.332 201 256.164C201 253.997 201.624 252.07 202.874 250.383C204.124 248.696 205.931 247.377 208.296 246.426C210.661 245.475 213.455 245 216.677 245C222.171 245 226.797 246.329 230.556 248.987V249.723L229.069 251.533C225.517 248.936 221.386 247.638 216.677 247.638C214.115 247.638 211.895 247.975 210.016 248.65C208.136 249.325 206.69 250.306 205.678 251.594C204.666 252.882 204.16 254.406 204.16 256.164C204.16 257.923 204.666 259.446 205.678 260.735C206.69 262.023 208.136 263.004 210.016 263.679C211.895 264.354 214.115 264.691 216.677 264.691C219.031 264.691 221.195 264.364 223.167 263.71C225.14 263.055 227.097 262.064 229.039 260.735L230.556 262.544V263.28C228.698 264.589 226.647 265.591 224.407 266.286C222.165 266.981 219.589 267.329 216.677 267.329C213.455 267.329 210.661 266.853 208.296 265.903Z" fill="black"/>
<path d="M252.337 248.006L245.366 258.802H260.052L253.081 248.006H252.337ZM250.726 245.429H254.692L268.51 266.163V266.899H265.288L261.756 261.44H243.662L240.13 266.899H236.908V266.163L250.726 245.429Z" fill="black"/>
<path d="M287.686 264.262C292.167 264.262 295.478 263.618 297.615 262.329C299.753 261.041 300.822 258.986 300.822 256.164C300.822 253.343 299.753 251.288 297.615 249.999C295.478 248.711 292.167 248.067 287.686 248.067H279.321V264.262H287.686ZM276.223 266.899V245.429H288.305C293.49 245.429 297.399 246.329 300.032 248.128C302.665 249.928 303.982 252.606 303.982 256.164C303.982 259.722 302.665 262.401 300.032 264.2C297.399 266 293.49 266.899 288.305 266.899H276.223Z" fill="black"/>
<path d="M315.911 266.899H312.812V245.429H315.911V266.899Z" fill="black"/>
<path d="M329.077 245.429V264.262H350.578L349.524 266.899H325.979V245.429H329.077Z" fill="black"/>
<path d="M362.877 245.429V264.262H384.378L383.325 266.899H359.779V245.429H362.877Z" fill="black"/>
<path d="M406.655 248.006L399.685 258.802H414.37L407.399 248.006H406.655ZM405.045 245.429H409.01L422.828 266.163V266.899H419.606L416.074 261.44H397.98L394.449 266.899H391.227V266.163L405.045 245.429Z" fill="black"/>
<path d="M434.74 265.903C432.374 264.952 430.567 263.633 429.318 261.946C428.068 260.259 427.443 258.332 427.443 256.164C427.443 253.997 428.068 252.07 429.318 250.383C430.567 248.696 432.374 247.377 434.74 246.426C437.104 245.475 439.898 245 443.12 245C448.614 245 453.24 246.329 457 248.987V249.723L455.513 251.533C451.96 248.936 447.829 247.638 443.12 247.638C440.559 247.638 438.338 247.975 436.459 248.65C434.58 249.325 433.133 250.306 432.122 251.594C431.109 252.882 430.603 254.406 430.603 256.164C430.603 257.923 431.109 259.446 432.122 260.735C433.133 262.023 434.58 263.004 436.459 263.679C438.338 264.354 440.559 264.691 443.12 264.691C445.475 264.691 447.638 264.364 449.611 263.71C451.583 263.055 453.54 262.064 455.482 260.735L457 262.544V263.28C455.141 264.589 453.091 265.591 450.85 266.286C448.609 266.981 446.032 267.329 443.12 267.329C439.898 267.329 437.104 266.853 434.74 265.903Z" fill="black"/>
<path d="M107.807 280.85C97.0975 279.174 75.5702 274.838 66.1122 272.595C58.7911 270.854 57.9336 268.464 57.0481 264.391L57.014 264.233C56.7423 262.986 54.4463 250.608 53.4928 245.402L44 232H172L162.507 245.402C161.603 250.337 159.258 262.975 158.986 264.232L158.952 264.391C158.067 268.464 157.209 270.854 149.889 272.595C140.457 274.831 118.929 279.166 108.179 280.85L107.993 280.879L107.807 280.85Z" fill="white"/>
<path d="M169.678 233.2L161.373 244.925C160.463 249.904 158.083 262.729 157.812 263.978C157.031 267.568 156.656 269.751 149.61 271.427C140.229 273.652 118.771 277.976 107.992 279.665C97.2171 277.978 75.7696 273.652 66.3885 271.427C59.3423 269.751 58.9678 267.568 58.1859 263.978C57.9159 262.738 55.5356 249.904 54.6249 244.925L46.3203 233.2H169.678Z" fill="black"/>
<path d="M163.131 235.404H52.8789L59.4278 244.755C61.0649 254.48 62.0779 260.732 62.4975 262.912C63.2261 266.704 63.355 268.339 67.2722 269.395C75.0611 271.237 97.6344 275.878 108.008 277.444C118.382 275.878 140.957 271.243 148.75 269.395C152.667 268.339 152.796 266.704 153.525 262.912C153.934 260.732 154.957 254.48 156.595 244.755L163.131 235.404Z" fill="white"/>
<path d="M163.131 235.404H52.8789L59.4278 244.755C61.0649 254.48 62.0779 260.732 62.4975 262.912C63.2261 266.704 63.355 268.339 67.2722 269.395C75.0611 271.237 97.6344 275.878 108.008 277.444C118.382 275.878 140.957 271.243 148.75 269.395C152.667 268.339 152.796 266.704 153.525 262.912C153.934 260.732 154.957 254.48 156.595 244.755L163.131 235.404Z" fill="white"/>
<path d="M73.2743 254.283H62.6856L61.8672 249.431H107.332V254.283H106.105V250.569H72.8895L73.2743 254.283Z" fill="black"/>
<path d="M61.6814 248.324H107.319V244.767H61.0898L61.6814 248.324Z" fill="black"/>
<path d="M90.2266 260.257H107.325V257.709H90.2327L90.2266 260.257Z" fill="black"/>
<path d="M60.6452 243.635H71.4611L69.4145 240.077H106.107V243.621H107.334V238.847H57.2949L60.6452 243.635Z" fill="black"/>
<path d="M125.928 238.847H108.678V245.995H125.936L125.928 238.847Z" fill="black"/>
<path d="M65.1476 266.411C65.4279 266.837 65.9477 267.332 67.673 267.801C68.508 268.006 69.4371 268.21 70.7224 268.497H89.0324V265.973H64.9102C64.974 266.126 65.0523 266.273 65.1435 266.411H65.1476Z" fill="black"/>
<path d="M64.1006 262.556H89.0314V255.427H62.875L64.1006 262.556Z" fill="black"/>
<path d="M90.2266 272.555C96.6117 273.811 102.854 274.972 107.335 275.674V263.712H90.2266V272.555Z" fill="black"/>
<path d="M127.111 254.283H153.323L154.52 247.133H127.111V254.283Z" fill="black"/>
<path d="M127.111 241.12V243.658L155.304 243.648L157.072 241.12H127.111Z" fill="black"/>
<path d="M108.678 260.257H109.906V256.657H142.523C142.48 257.007 142.175 259.42 142.018 260.267H152.318L153.136 255.427H108.678V260.257Z" fill="black"/>
<path d="M108.678 264.919H151.45L152.141 261.377H108.678V264.919Z" fill="black"/>
<path d="M125.936 249.433H108.678V251.985H125.936V249.433Z" fill="black"/>
<path d="M118.348 272.724C116.643 273.05 111.862 273.883 109.906 274.237V267.199H140.131C138.684 268.901 135.706 269.407 118.348 272.724ZM108.678 265.973V275.67C119.551 273.891 140.665 269.704 148.347 267.793C150.083 267.361 150.597 266.837 150.877 266.411C150.969 266.274 151.047 266.127 151.106 265.973H108.678Z" fill="black"/>
</svg>
