<svg width="512" height="512" viewBox="0 0 512 512" fill="none" xmlns="http://www.w3.org/2000/svg">
<path d="M482.435 259.356C475.882 260.921 469.328 261.801 462.579 261.997C462.384 261.997 358.215 265.714 355.085 266.007C350.097 266.105 345.206 267.67 341.098 270.408C333.665 275.103 325.448 278.527 316.841 280.679C306.18 283.026 295.42 284.493 284.563 284.885C283.781 284.885 288.378 284.493 288.378 284.493C292.193 284.2 296.007 283.711 299.822 283.026C309.799 281.657 319.482 278.918 328.676 274.81L329.556 274.321C334.154 274.321 333.86 273.049 333.86 273.049L328.285 273.245C324.177 273.343 319.873 273.441 318.797 273.441C318.602 272.756 309.114 272.169 309.114 272.169H332.784H333.469C335.034 271.191 336.892 270.115 338.653 268.941C343.641 268.941 343.348 267.572 343.348 267.572C337.968 267.67 327.991 267.865 326.231 267.768C326.035 267.083 315.374 266.398 315.374 266.398H342.663H342.859C347.456 264.638 352.346 263.757 357.237 263.855L462.677 261.703C469.23 261.41 475.686 260.627 482.044 259.356L483.804 258.965C483.804 258.573 482.631 258.476 480.479 258.476L450.157 258.084C403.795 257.693 317.624 256.911 313.711 256.911H312.733C308.234 256.715 303.637 257.302 299.431 258.769L297.67 259.258C292.78 261.019 287.693 262.095 282.607 262.486C277.228 262.681 256.687 262.681 255.905 262.681C255.122 262.681 234.484 262.681 229.202 262.486C224.018 261.997 219.03 260.921 214.14 259.258L212.379 258.769C208.075 257.302 203.576 256.715 198.979 256.911H198.099C194.186 256.911 107.917 257.302 61.6522 257.693L31.233 258.084C29.179 258.084 27.9075 258.28 28.0053 258.573L29.7659 258.965C36.1236 260.236 42.5791 261.116 49.1324 261.312C61.5544 261.508 152.323 263.855 154.475 263.855C159.365 263.757 164.256 264.638 168.853 266.398H197.316C197.316 266.398 185.872 267.083 185.677 267.768H184.992C182.155 267.768 173.45 267.768 168.56 267.572C168.56 267.572 168.168 268.941 173.157 268.941C174.917 270.115 176.776 271.191 178.439 272.169C178.83 272.169 179.417 272.169 180.004 272.169H202.891C202.891 272.169 193.306 272.756 193.11 273.441C191.936 273.441 187.828 273.343 183.818 273.245L178.243 273.049C178.243 273.049 177.949 274.223 182.547 274.321L183.329 274.81C192.523 278.918 202.207 281.657 212.183 283.026C215.998 283.711 219.813 284.298 223.627 284.493C223.627 284.493 228.224 284.885 227.442 284.885C216.585 284.493 205.728 283.026 195.164 280.679C186.557 278.625 178.439 275.103 170.907 270.408C166.701 267.67 161.908 266.105 156.92 266.007C153.692 265.811 49.6215 261.703 49.4259 261.703C42.7747 261.508 36.1236 260.53 29.5702 259.062L28.1031 258.573C28.1031 258.867 28.7878 259.649 29.4724 260.138C32.7002 262.975 44.8288 268.941 51.969 270.604C64.2931 273.538 140.194 283.222 153.692 284.787L161.126 285.667C181.471 287.819 207.097 290.655 220.204 292.025C222.649 292.514 225.29 292.318 227.637 291.634C236.734 288.21 246.417 286.547 256.1 286.743C265.784 286.645 275.467 288.308 284.661 291.634C287.009 292.318 289.552 292.514 291.997 292.025C305.006 290.753 330.73 287.917 350.977 285.667L358.509 284.787C372.006 283.32 447.81 274.028 460.134 270.995C467.274 269.235 479.403 263.366 482.631 260.53C483.217 259.943 484 259.258 484 258.965L482.435 259.356ZM260.991 277.744H251.014C235.951 277.744 220.986 277.549 216.683 276.473C206.315 273.93 201.522 269.137 200.642 267.768C199.859 266.3 200.055 266.398 201.326 266.398H310.679C311.951 266.398 312.048 266.496 311.364 267.768C310.679 269.039 305.788 273.93 295.42 276.473C291.019 277.549 276.054 277.744 260.991 277.744Z" fill="black"/>
<path d="M252.971 270.898L250.526 269.431H247.592L251.211 271.778V273.637H253.656V271.778L256.982 269.431H255.319L252.971 270.898Z" fill="black"/>
<path d="M270.672 269.431H268.129V273.637H276.345V272.854H270.672V269.431Z" fill="black"/>
<path d="M280.946 271.974H286.619V271.191H280.946V270.213H286.815V269.431H278.501V273.637H286.815V272.854H280.946V271.974Z" fill="black"/>
<path d="M232.917 271.093H227.635V269.431H225.092V273.637H227.635V271.876H232.917V273.637H235.46V269.431H232.917V271.093Z" fill="black"/>
<path d="M247.103 270.604C247.103 270.018 246.223 269.431 243.386 269.431H237.615V273.637H240.256V270.213C242.506 270.115 244.56 270.311 244.56 270.8C244.56 271.191 244.169 271.485 241.625 271.387C242.212 271.876 244.853 273.734 244.853 273.734H247.69L244.462 271.876C246.027 271.68 247.103 271.191 247.103 270.604Z" fill="black"/>
<path d="M292.878 271.387C293.465 271.876 296.106 273.734 296.106 273.734H298.943L295.715 271.876C297.378 271.778 298.453 271.289 298.453 270.702C298.453 270.115 297.573 269.528 294.737 269.528H288.966V273.734H291.607V270.213C293.856 270.115 295.91 270.311 295.91 270.8C295.91 271.191 295.421 271.485 292.878 271.387Z" fill="black"/>
<path d="M263.829 270.996L261.677 270.8C260.895 270.8 260.308 270.604 260.308 270.311C260.308 270.018 260.699 269.92 262.264 269.92C263.34 269.92 264.318 270.018 265.394 270.213L265.59 269.431C264.318 269.235 262.949 269.137 261.677 269.137C260.21 269.137 257.863 269.333 257.863 270.409C257.863 271.485 258.645 271.582 260.406 271.778L262.264 271.974C263.144 271.974 263.731 272.169 263.731 272.365C263.731 272.658 263.633 272.854 261.579 272.854C260.406 272.854 259.134 272.756 257.96 272.561L257.667 273.441C258.939 273.637 260.308 273.734 261.579 273.734C264.025 273.734 266.372 273.343 266.372 272.267C266.274 271.68 265.492 271.191 263.829 270.996Z" fill="black"/>
<path d="M219.717 270.018C221.282 270.018 222.847 270.213 223.14 270.213L222.847 269.333C222.455 269.333 220.988 269.137 219.13 269.137C215.902 269.137 213.065 269.92 213.065 271.485C213.065 273.05 215.902 273.832 219.13 273.832C220.89 273.832 222.455 273.637 222.847 273.637L223.14 272.756C222.749 272.756 221.282 272.952 219.717 272.952C218.152 272.952 215.706 272.561 215.706 271.582C215.706 270.604 218.054 270.018 219.717 270.018Z" fill="black"/>
<path d="M241.622 238.133V230.308V229.917L242.014 229.525C242.014 229.525 248.274 223.461 251.697 220.233H248.958L240.938 227.276L240.155 227.961L239.373 227.276L235.069 223.559L231.059 220.233H224.114L234.58 229.721L234.971 230.112V238.231H241.622V238.133Z" fill="black"/>
<path d="M336.698 238.133V235.981H314.886V220.233H308.724V238.133H336.698Z" fill="black"/>
<path d="M349.803 238.035H378.266V235.883H355.769V230.308H377.483V228.058H355.769V222.483H377.874V220.233H349.803V238.035Z" fill="black"/>
<path d="M166.113 238.133V220.233H159.853V227.374V228.156H142.443V223.363V220.233H136.085V238.133H142.443V230.993V230.308H159.853V235.003V238.133H166.113Z" fill="black"/>
<path d="M213.456 238.132C211.5 236.274 207.294 232.068 205.533 230.698L204.36 229.72L205.925 229.525C211.304 228.938 212.771 226.981 212.771 224.927C212.674 223.558 211.793 222.287 210.522 221.7C207.587 220.428 204.36 219.841 201.23 220.037H184.406V238.034H190.666V227.275V223.069V222.482H191.253H195.655C199.763 222.482 203.284 222.482 204.751 223.754C205.338 224.145 205.729 224.83 205.729 225.514C205.729 226.688 204.947 227.666 203.871 228.057C201.425 228.546 198.882 228.938 196.437 228.938C199.078 231.579 205.044 237.056 206.12 238.23H213.456V238.132Z" fill="black"/>
<path d="M276.15 238.621C279.965 238.718 283.682 238.229 287.301 237.251C290.333 236.273 291.996 234.904 291.898 233.045C291.898 231.676 291.213 230.502 290.039 229.818C288.083 228.742 285.931 228.155 283.78 227.959C281.139 227.568 278.4 227.177 276.444 226.981C275.27 226.883 274.096 226.688 272.923 226.394C272.042 226.198 271.358 225.416 271.26 224.536C271.26 223.655 271.944 222.971 273.118 222.677C274.977 222.286 276.835 222.188 278.693 222.188C282.117 222.188 285.54 222.579 288.964 223.166L289.355 221.014C284.953 220.428 280.552 220.036 276.053 220.036C273.216 219.939 270.379 220.33 267.543 221.014C264.902 221.797 263.337 222.971 263.337 224.829C263.239 226.198 263.924 227.47 265.098 228.155C267.152 229.231 269.304 229.818 271.553 230.013C272.825 230.209 274.585 230.502 278.107 230.893C279.378 230.991 280.747 231.285 281.921 231.578C282.899 231.872 283.78 232.361 283.78 233.437C283.682 234.317 283.095 235.002 282.312 235.295C280.161 236.077 277.911 236.371 275.661 236.175C271.651 236.175 267.641 235.784 263.826 234.904L263.239 237.447C267.445 238.034 271.749 238.425 276.053 238.425L276.15 238.621Z" fill="black"/>
<path d="M93.8297 222.481C90.5041 224.046 88.5479 226.198 88.5479 229.23C88.5479 232.164 90.4063 234.414 93.8297 235.979C97.8399 237.642 102.241 238.424 106.545 238.326C110.164 238.326 113.783 238.033 117.402 237.544L118.087 235.001C114.761 235.392 111.533 235.588 108.208 235.686C105.371 235.686 102.535 235.196 99.8939 234.218C97.3508 233.24 95.2968 231.577 95.2968 229.132C95.2968 226.589 97.4487 225.024 99.8939 224.046C102.535 223.068 105.371 222.579 108.208 222.579C111.533 222.579 114.859 222.872 118.087 223.263L117.598 220.818C113.979 220.329 110.36 220.036 106.741 220.036C102.339 219.938 97.9377 220.818 93.8297 222.481Z" fill="black"/>
<path d="M423.161 238.228C421.205 236.272 416.999 232.164 415.239 230.795L414.065 229.816L415.63 229.621C421.009 229.034 422.477 227.078 422.477 224.926C422.379 223.556 421.498 222.285 420.227 221.796C417.293 220.524 414.065 219.937 410.935 220.133H394.111V238.13H400.371V227.371V223.165V222.481H400.958H405.36C409.468 222.481 412.989 222.481 414.456 223.752C415.043 224.143 415.434 224.828 415.434 225.513C415.434 226.686 414.652 227.665 413.576 227.958C411.13 228.545 408.587 228.838 406.142 228.936C408.685 231.577 414.749 237.054 415.825 238.228H423.161Z" fill="black"/>
</svg>
