<svg width="512" height="512" viewBox="0 0 512 512" fill="none" xmlns="http://www.w3.org/2000/svg">
<path d="M114.692 199.926C115.117 200.138 115.276 200.298 115.701 200.404C116.073 200.51 116.604 200.776 116.71 200.457C116.87 200.138 116.657 199.713 116.392 199.341C115.967 198.651 115.754 198.492 115.17 197.535C115.063 197.323 114.957 197.11 114.745 197.11C114.745 197.11 114.692 197.801 114.479 198.226C114.32 198.598 113.895 198.863 113.948 199.129C114.001 199.395 114.267 199.713 114.692 199.926Z" fill="black"/>
<path d="M159.101 245.451C158.623 246.088 158.41 247.363 157.72 248.425C156.763 249.913 155.382 251.719 154.692 251.719C154.32 251.719 154.214 250.869 154.214 250.869C154.214 250.869 153.735 249.435 154.532 247.629C155.117 246.354 155.435 245.982 156.179 245.026C156.87 244.123 157.295 243.645 157.773 242.688C158.198 241.838 158.304 241.679 158.57 240.351C158.623 240.032 158.516 239.342 158.198 239.395C157.773 239.395 156.604 241.945 155.382 243.379C154.214 244.707 152.036 246.407 152.036 246.407C152.036 246.407 151.823 246.566 151.823 246.141C151.77 245.769 151.717 244.654 151.929 243.645C152.142 242.635 152.461 241.626 153.364 240.085C154.373 238.332 155.648 237.111 156.285 236.473C156.551 236.208 157.348 235.73 156.923 235.464C156.551 235.251 155.435 236.208 154.585 236.845C153.523 237.642 153.151 237.854 152.089 239.129C151.026 240.404 150.761 240.935 150.761 240.935C150.761 240.935 149.751 242.582 149.486 244.176C149.22 245.769 149.22 246.672 149.22 246.672C149.22 246.672 149.22 248.107 149.38 248.957C149.486 249.86 149.858 251.241 149.858 251.241C149.858 251.241 150.389 252.781 150.601 253.738C150.814 254.694 151.186 257.509 151.186 257.509C151.186 257.509 151.451 259.528 151.292 261.44C151.133 263.353 150.973 264.468 150.761 265.052C150.548 265.637 149.964 267.177 149.008 268.24C148.105 269.249 147.892 269.408 147.892 269.408C147.892 269.408 146.936 270.205 146.139 270.63C145.342 271.055 144.174 271.586 143.642 271.746C143.111 271.852 142.368 271.905 142.314 271.905H141.624L141.411 271.746L141.305 271.321C141.305 271.321 140.774 269.249 140.136 267.921C139.605 266.805 138.49 265.265 138.49 265.265C138.49 265.265 136.577 262.662 135.09 261.228C133.39 259.528 131.478 258.253 130.309 257.35C129.884 257.031 128.928 256.447 128.928 256.447C128.928 256.447 125.05 252.569 123.669 249.488C122.713 247.363 122.075 245.823 122.341 243.485C122.394 242.954 122.606 241.945 122.713 241.945L123.403 242.157C123.456 242.21 124.094 242.795 124.678 243.007C124.997 243.113 125.581 243.22 125.581 243.22C125.581 243.22 126.059 243.273 126.325 243.326C126.59 243.432 127.069 243.591 127.387 243.751C127.706 243.91 128.184 244.229 128.184 244.229L129.087 244.919L130.043 245.663C130.043 245.663 130.575 246.035 130.734 246.088C130.893 246.141 131 246.194 131.053 246.194H131.265C131.265 246.194 131.478 246.141 131.531 245.929C131.584 245.663 131.265 245.876 130.787 245.344C130.256 244.866 130.043 244.441 130.043 244.441C130.043 244.441 129.937 244.016 129.512 243.538C129.087 243.06 128.556 242.635 128.556 242.635C128.556 242.635 128.184 242.37 127.653 242.21C127.122 242.051 126.962 242.051 126.909 241.838C126.856 241.626 127.547 241.732 127.547 241.732C127.547 241.732 128.343 241.838 128.981 242.157C129.618 242.476 129.99 242.848 129.99 242.848L130.415 243.22L130.681 243.485L130.946 243.645C130.946 243.645 131.212 243.91 131.265 243.538C131.318 243.22 131.212 242.954 131.159 242.901L130.893 242.635L129.831 241.732C129.512 241.413 129.3 241.201 128.981 240.989C128.662 240.776 128.184 240.457 127.6 240.245C127.069 240.032 126.75 240.085 126.219 239.82C125.847 239.66 125.528 239.554 125.316 239.236C125.262 239.182 124.997 238.97 125.475 239.076C125.953 239.182 126.272 239.342 126.803 239.448C127.653 239.66 128.184 239.66 128.981 239.926C129.3 240.032 129.725 240.245 129.725 240.245L130.734 240.67C130.734 240.67 132.115 241.413 133.071 241.467C134.027 241.52 134.824 241.307 135.143 241.148C135.462 241.042 136.046 240.67 136.205 240.51C136.365 240.351 136.471 240.192 136.471 240.192L136.577 239.926V239.714C136.312 239.395 135.78 240.245 134.931 240.404C134.027 240.564 134.081 240.67 133.496 240.564C132.859 240.457 132.487 240.298 132.009 239.82C131.159 239.023 130.84 238.279 129.725 237.801C129.247 237.589 128.397 237.376 128.397 237.376C128.397 237.376 127.228 237.004 126.59 236.633C126.112 236.367 125.103 236.208 125.422 235.783C125.581 235.57 126.856 236.314 127.812 236.42C128.503 236.526 128.981 236.473 129.512 236.473C130.043 236.473 130.787 236.314 130.893 236.314C131 236.261 131.425 236.314 131.796 236.42C132.168 236.526 132.381 236.686 132.753 236.845C133.124 237.004 133.549 237.27 133.656 237.27L133.868 237.323L133.974 237.217L134.027 237.111L133.974 237.004L133.815 236.898L133.496 236.686C133.496 236.686 133.018 236.42 132.593 235.995C132.168 235.57 131.796 235.092 131.159 234.88C130.521 234.667 129.778 234.561 129.778 234.561L129.034 234.508L128.715 234.455C128.715 234.455 128.184 234.295 128.609 234.189C129.034 234.083 129.247 234.03 129.353 234.03C129.406 233.977 130.15 233.923 130.575 234.083C131 234.242 131.69 234.614 131.743 234.614C131.796 234.667 132.434 235.145 133.124 235.305C133.815 235.464 134.718 235.517 134.718 235.517L135.143 235.411L135.356 235.358L135.515 235.251L135.462 234.986C135.462 234.986 135.462 234.773 135.143 234.72C134.824 234.667 134.187 234.561 133.603 234.136C133.018 233.711 132.593 233.286 132.593 233.286C132.593 233.286 132.168 232.914 131.318 232.702C130.521 232.489 130.256 232.489 130.256 232.489L129.99 232.383L129.406 232.117C129.406 232.117 129.14 231.958 128.928 231.692C128.715 231.427 128.397 230.949 129.3 231.214C130.203 231.48 130.415 231.639 130.415 231.639C130.415 231.639 130.893 232.117 131.318 232.17C131.584 232.223 131.796 232.277 131.956 232.064C132.221 231.799 131.478 231.48 130.946 231.108C130.521 230.842 130.097 230.152 130.097 230.152C130.097 230.152 129.778 229.886 130.256 229.992C130.734 230.099 131.584 230.63 131.584 230.63C131.584 230.63 132.009 230.842 132.221 230.895C132.381 230.949 132.806 231.214 133.018 231.32C133.178 231.374 133.656 231.48 133.974 231.639C134.399 231.905 134.612 232.33 134.824 232.489C135.037 232.648 135.196 232.914 135.462 232.967C135.727 233.02 135.78 233.127 135.94 233.02C136.099 232.914 136.152 232.861 136.152 232.861C136.152 232.861 136.205 232.755 135.94 232.595C135.674 232.436 135.356 232.011 135.356 232.011L135.249 231.799L135.196 231.586L134.931 231.161L134.452 230.47C134.452 230.47 133.709 229.461 133.018 229.089C132.381 228.717 131.903 228.505 131.903 228.505C131.903 228.505 131.584 228.346 131.425 228.239C131.159 228.027 131.053 227.868 130.84 227.602C130.575 227.283 130.468 227.071 130.15 226.752C129.565 226.168 127.759 225.849 128.45 225.424C128.822 225.211 129.3 225.318 129.512 225.371C129.725 225.424 130.203 225.636 130.681 225.796C131 225.902 131.212 225.902 131.531 226.008C131.85 226.115 132.221 226.168 132.381 226.274C132.54 226.38 132.699 226.593 132.806 226.646C132.859 226.699 133.284 227.389 134.027 227.761C134.771 228.133 135.143 228.399 135.887 228.452C136.471 228.505 137.427 228.293 137.427 228.293C137.427 228.293 137.693 228.186 137.48 227.921C137.215 227.655 137.215 227.602 137.002 227.549C136.152 227.23 135.462 227.336 134.824 226.699C134.559 226.433 134.452 226.38 134.24 225.955C134.027 225.53 134.134 225.424 133.974 225.158C133.868 224.893 133.603 224.521 133.603 224.521C133.603 224.521 132.806 223.565 131.956 223.087C131.053 222.609 130.415 222.13 130.309 222.024C130.15 221.918 129.831 221.493 129.831 221.493L129.565 221.068L129.406 220.749C129.3 220.165 130.362 220.909 130.946 221.121C131.903 221.44 132.381 221.865 133.337 222.184C133.868 222.343 134.187 222.343 134.718 222.555C135.621 222.927 135.887 223.83 136.843 223.937C137.374 223.99 138.437 224.202 138.224 223.724C138.012 223.193 136.949 223.193 136.418 222.555C136.152 222.29 136.152 222.024 135.887 221.759C135.462 221.227 134.452 220.749 134.452 220.749C134.452 220.749 134.134 220.484 133.762 219.74C133.443 218.996 132.646 218.465 131.212 217.775C130.256 217.296 128.343 217.19 129.087 216.712C129.512 216.393 129.884 216.446 130.468 216.606C131.053 216.818 131.265 217.084 131.743 217.296C132.221 217.509 132.434 217.562 132.54 217.615C132.646 217.668 133.018 217.828 133.178 217.828C133.284 217.881 134.081 217.987 134.293 218.04L135.356 218.306L136.205 218.624C136.205 218.624 136.63 218.784 136.896 218.784C137.162 218.784 137.587 218.678 137.587 218.678L137.905 218.465L137.958 218.359C137.958 218.359 138.118 218.093 137.693 218.04C137.321 217.987 137.109 217.987 137.055 217.987L136.684 217.881L136.524 217.828C136.524 217.828 135.78 217.243 135.143 216.978C134.452 216.712 134.346 216.659 134.346 216.659L134.081 216.606L133.762 216.553C133.762 216.553 133.496 216.553 133.071 216.181C132.646 215.809 132.487 215.597 132.115 215.225L131.637 214.747C131.637 214.747 131.212 214.428 131.212 214.162C131.265 213.737 132.168 214.64 132.168 214.64L132.806 215.065C132.806 215.065 133.337 215.437 134.293 215.49C135.249 215.543 136.418 215.225 136.418 215.225C136.418 215.225 136.577 215.118 137.109 215.278C137.64 215.437 138.065 215.756 138.065 215.756L138.49 216.128L139.127 216.818L139.233 216.765C139.286 216.712 139.552 216.446 139.074 215.862C138.596 215.278 137.799 214.747 137.799 214.747C137.799 214.747 136.737 214.109 135.674 213.897C134.612 213.684 134.134 213.684 134.134 213.684C134.134 213.684 133.337 213.684 132.859 213.153C132.381 212.622 132.062 212.091 132.062 212.091L131.903 211.347C131.903 211.347 131.637 211.028 131.106 210.816C130.628 210.603 130.097 210.284 130.097 210.284C130.097 210.284 129.3 210.019 129.247 209.647C129.087 208.956 130.575 209.647 131.371 209.806C132.115 209.966 132.434 210.231 133.178 210.391C133.815 210.55 134.187 210.603 134.877 210.55C135.249 210.55 135.462 210.497 135.834 210.444C136.205 210.444 136.471 210.391 136.843 210.444C137.374 210.55 137.587 210.816 138.118 211.028C138.437 211.187 138.596 211.347 138.968 211.4C139.286 211.453 139.924 211.666 139.818 211.347L139.658 211.134C139.393 210.762 139.074 210.762 138.755 210.497C138.065 209.966 137.746 209.541 136.949 209.169C136.418 208.903 136.099 208.797 135.515 208.691C135.09 208.638 134.771 208.744 134.346 208.638C133.868 208.478 133.709 208.266 133.231 208C132.487 207.575 132.062 207.203 131.265 206.885C130.734 206.672 129.831 206.46 129.831 206.46L129.459 206.407L129.3 206.353C128.556 206.088 130.628 205.503 131.584 205.238C132.062 205.132 132.274 205.025 132.753 205.079C133.178 205.132 133.656 205.716 134.134 205.45C134.824 205.079 133.337 204.069 132.859 203.91C132.221 203.644 131.106 203.857 131.106 203.857L128.662 203.804L127.972 203.697C127.972 203.697 127.547 203.697 127.228 203.326C126.909 202.954 125.687 201.466 124.306 201.254C122.872 201.041 122.447 201.254 122.341 201.148C121.119 199.235 119.844 198.81 118.888 197.907C118.622 197.642 118.197 197.057 118.091 197.11C117.985 197.163 117.825 197.96 117.56 198.651C117.241 199.448 117.454 199.82 117.613 200.138C117.825 200.457 118.091 200.669 117.56 200.988C117.029 201.307 116.338 201.201 116.338 201.201C116.338 201.201 115.754 201.094 115.276 200.829C114.798 200.616 113.788 200.191 113.788 200.191C113.788 200.191 112.832 199.926 112.195 199.979C111.557 200.032 111.504 200.085 111.026 200.138C110.76 200.138 110.654 200.138 110.389 200.191C110.176 200.244 109.91 200.085 109.91 200.351C109.91 200.616 110.442 200.616 110.813 200.776C111.185 200.935 112.035 200.935 111.876 201.148C111.663 201.36 110.867 201.413 110.813 201.36C110.76 201.36 110.229 201.254 109.804 201.254C109.114 201.307 109.06 201.307 108.051 201.785C107.892 201.838 107.945 202.21 108.264 202.104C108.635 201.997 109.167 201.891 109.751 201.891C110.389 201.891 110.76 202.104 111.398 202.263C111.929 202.422 111.982 202.529 112.779 202.635C112.938 202.635 113.257 202.529 113.257 202.741C113.257 202.847 113.045 203.007 113.045 203.007C113.045 203.007 112.566 203.113 112.62 203.272C112.726 203.485 113.151 203.272 113.363 203.272C113.576 203.272 113.895 203.326 113.841 203.538L113.735 203.697C113.151 203.857 112.832 203.963 112.301 204.175C110.973 204.707 110.442 205.344 109.167 205.982C107.945 206.566 105.979 207.31 105.979 207.31C105.979 207.31 105.395 207.628 104.545 207.841C103.695 208.053 103.642 208 103.058 208.106C102.473 208.16 102.208 208.266 101.73 208.531C101.411 208.691 101.252 208.85 100.986 209.116L100.242 210.231L99.8174 210.869C99.7111 211.081 99.6049 211.187 99.5518 211.4C99.4455 211.666 99.3924 211.772 99.3393 212.037C99.1799 212.675 99.3393 213.047 99.4455 213.684C99.4986 213.844 99.4986 213.95 99.5518 214.109C99.6049 214.269 99.8174 214.428 99.8174 214.428L100.03 214.481C100.03 214.481 100.774 214.428 101.252 214.322C101.73 214.215 102.42 214.056 102.42 214.056L103.323 213.79L103.908 213.578C103.908 213.578 104.28 213.578 104.333 213.79C104.386 213.95 104.226 214.215 104.226 214.215C104.226 214.215 103.908 214.375 103.642 214.481C103.376 214.587 102.739 214.747 102.686 214.8L101.995 215.012L101.411 215.065C101.411 215.065 101.305 215.118 101.199 215.278C101.092 215.437 101.092 215.437 101.092 215.543C101.199 215.65 101.252 215.756 101.358 215.862C101.57 216.022 101.677 216.128 101.942 216.181C102.314 216.34 102.527 216.287 102.898 216.287C103.43 216.287 103.748 216.181 104.226 215.968C104.651 215.703 104.811 215.703 105.395 215.49C105.554 215.437 105.873 215.384 105.979 215.384C106.989 215.278 107.573 215.437 108.582 215.597C109.592 215.756 110.07 216.075 111.079 216.234C112.142 216.393 112.779 216.712 113.895 216.446C114.426 216.34 114.744 216.075 115.01 216.606C115.276 217.084 115.223 217.35 115.223 217.35C115.223 217.35 115.223 217.668 114.851 218.678C114.479 219.687 113.31 222.184 113.31 222.184L112.513 223.777C112.513 223.777 111.876 225.052 110.389 226.699C108.901 228.346 108.795 228.452 108.795 228.452C108.795 228.452 107.998 229.036 107.201 230.046C106.404 231.055 106.404 231.427 105.661 232.17C105.183 232.648 104.917 232.914 104.333 233.286C103.748 233.658 103.058 233.552 101.199 234.826C99.6049 235.942 98.7549 236.845 98.6487 236.792C98.5425 236.739 98.0112 236.314 97.7988 236.208C97.6394 236.101 94.5584 234.03 94.5584 234.03L93.2834 233.18L92.6991 232.808L92.5929 232.595L92.2741 232.17C92.2741 232.17 91.796 231.586 91.2117 231.108C90.6274 230.577 89.9899 230.152 89.0337 229.939C88.1307 229.674 87.5463 229.514 86.6433 229.833C86.0589 230.046 85.7402 230.258 85.3153 230.683C84.784 231.214 84.6778 231.639 84.2528 232.277C83.8279 232.914 83.4029 233.498 83.1904 233.817C82.9779 234.136 82.5529 234.986 82.5529 234.986C82.5529 234.986 81.4905 236.686 80.9062 237.801C80.2156 239.023 79.95 239.767 79.3125 240.935C78.3032 242.795 76.869 244.707 76.4971 245.557C76.1253 246.407 76.0721 246.513 76.0721 246.513C76.0721 246.513 75.9659 246.991 75.9128 247.31C75.8597 247.629 75.8597 248.16 75.8065 248.372C75.7534 248.638 75.5941 248.904 75.5409 248.957C75.4878 249.01 74.9035 250.232 74.691 251.028C74.4785 251.825 74.0004 254.322 74.5848 254.641C75.1691 254.959 79.4719 253.1 80.0562 251.294C80.4281 250.125 78.8876 249.541 79.3125 248.479C79.4719 248.107 79.5782 248.054 79.8438 247.682C80.2687 246.991 80.1094 245.557 80.9062 244.229C81.4905 243.273 82.6592 242.051 84.2528 240.245C85.2621 239.129 86.2183 237.323 86.2183 237.323C86.2183 237.323 86.4308 236.686 86.8558 236.792C87.3339 236.898 87.7588 236.845 87.7588 236.845L87.9713 237.004L88.3963 237.429L89.0337 238.386C89.0337 238.386 90.0962 239.926 90.468 240.351C90.8399 240.776 91.2117 241.095 91.7429 241.52C92.3273 242.051 92.5397 242.317 93.2834 242.901C94.3459 243.751 93.974 244.07 92.5929 243.326C92.1148 243.06 91.3711 242.795 90.7867 242.635C90.1493 242.476 87.7588 241.838 86.537 241.679C85.3684 241.52 85.1559 241.573 85.1559 241.573C85.1559 241.573 84.5716 241.52 83.881 241.945C83.1904 242.37 82.8186 242.688 82.8186 242.688C82.8186 242.688 82.0217 243.591 81.9686 243.751C81.9155 243.91 81.5436 244.548 81.5436 244.548C81.5436 244.548 81.3312 244.866 81.278 245.238C81.1718 245.61 81.2249 245.982 81.2249 245.982L81.278 246.779L81.3312 247.522C81.3312 247.522 81.4905 249.382 81.8624 251.241C81.9686 251.772 82.0749 252.622 82.0749 252.622L82.3405 254.534C82.3405 254.534 82.4998 256.553 82.6592 257.244C82.8186 257.881 82.9248 257.934 83.031 258.359C83.2435 259.156 82.8717 259.528 83.2435 260.484C83.6154 261.44 83.9341 261.334 84.3059 261.918C84.5716 262.343 84.6778 262.45 84.8903 262.981C85.1028 263.512 85.7933 265.265 86.5902 266.54C87.4401 267.868 88.5556 269.515 89.2993 269.355C90.043 269.196 90.5743 268.027 90.5743 268.027C90.5743 268.027 91.4242 265.743 90.893 263.512C90.3618 261.228 87.9182 262.29 87.5995 260.643C87.5463 260.272 87.5995 259.687 87.5995 259.687C87.5995 259.687 87.5463 258.997 87.4401 258.784C87.3339 258.572 86.4839 256.978 86.1652 255.65C85.8996 254.641 85.9527 251.4 85.7402 250.497C85.1559 248.16 85.1028 248.372 85.4215 247.947C85.7933 247.522 86.1121 247.629 86.1121 247.629L86.5902 247.682L86.962 247.841C86.962 247.841 87.387 248.107 87.6526 248.266C87.8651 248.425 88.6088 249.01 88.6088 249.01L90.4149 250.178C90.4149 250.178 91.4242 250.763 91.8492 250.975C92.2741 251.188 92.646 251.453 92.646 251.453L93.1241 251.772L93.9209 252.356L94.0803 252.516L94.1865 252.728C94.1865 252.728 94.5584 253.578 96.152 254.481C97.4269 255.225 98.5425 255.013 99.0205 255.597C99.1268 255.703 100.03 256.925 100.455 257.669C100.986 258.519 101.623 259.528 101.836 259.847C102.048 260.165 103.376 261.812 103.376 261.812L105.129 263.724L107.414 265.849L109.485 267.602L110.813 268.665C110.813 268.665 111.982 269.78 113.31 270.683C114.585 271.533 114.638 271.64 115.488 272.224C116.126 272.649 116.976 273.233 117.825 273.871C118.675 274.561 119.632 275.836 119.26 276.261C118.994 276.42 118.516 275.73 117.613 274.933C116.869 274.296 116.497 273.977 115.754 273.446C114.798 272.702 114.319 272.33 113.257 271.693C112.726 271.374 111.77 270.79 111.717 270.896C111.345 272.011 111.398 273.074 111.451 274.455C111.504 275.411 111.663 276.367 111.982 277.589C112.248 278.758 112.513 279.395 112.938 280.511C113.363 281.626 114.16 283.379 114.16 283.379L115.382 285.823L116.497 287.682L117.082 288.638L117.294 288.957C117.294 288.957 117.56 289.594 117.294 290.019C117.029 290.444 116.71 291.347 116.232 291.401C115.754 291.507 114.638 291.56 114.638 291.56L108.317 291.454L105.023 291.188C105.023 291.188 104.651 290.976 102.739 290.976C101.623 290.976 100.72 291.454 100.083 291.507C99.5518 291.56 96.9488 291.347 95.1958 292.038C93.5491 292.729 92.8054 292.888 92.221 293.95C91.796 294.747 94.2927 296.022 96.3645 296.5C99.7111 297.244 98.7549 295.81 100.03 294.907C100.189 294.8 100.242 294.694 100.402 294.641C101.252 294.375 101.73 295.066 102.58 295.066C103.536 295.066 104.067 294.747 105.023 294.588C109.857 293.95 117.401 296.235 117.401 296.235C117.401 296.235 119.26 296.819 120.11 296.66C121.119 296.447 120.907 296.075 121.225 295.491C121.491 295.013 121.385 294.907 121.438 294.375C121.438 294.057 121.385 293.897 121.331 293.579C121.119 292.676 120.535 291.401 120.535 291.401C120.535 291.401 120.11 290.444 119.95 289.966C119.738 289.276 119.525 288.851 119.419 288.107C119.1 286.142 119.154 286.301 119.154 285.185C119.154 283.167 119.366 282.051 119.897 280.086C120.694 277.217 122.181 275.995 123.297 273.233C123.616 272.489 123.616 271.427 123.988 271.321C124.413 271.268 124.359 272.649 124.147 273.446C123.456 276.208 121.756 277.377 120.96 280.192C120.375 282.37 120.057 283.645 120.216 285.876C120.269 287.098 120.747 289.01 120.747 289.01C120.747 289.01 121.385 291.135 121.703 291.932C122.022 292.729 122.66 294.057 122.66 294.057L124.094 296.607L124.837 297.828C124.837 297.828 125.369 298.306 125.103 299.103C124.837 299.9 124.306 300.378 123.669 301.069C121.863 303.194 117.666 306.328 116.604 307.071C115.116 308.187 115.169 308.506 115.063 308.824C114.479 310.524 112.779 310.577 110.92 312.596C110.495 313.021 109.379 314.19 109.592 315.199C109.698 315.571 114.266 316.368 116.922 315.252C118.994 314.349 117.188 313.34 117.772 312.33C118.197 311.587 119.26 311.587 119.738 310.949C120.535 309.887 120.003 309.94 120.694 309.09C122.978 306.328 124.466 304.734 128.556 302.237C128.928 302.025 129.618 301.706 129.618 301.706C129.618 301.706 130.203 301.441 130.415 301.122C130.681 300.697 130.628 300.325 130.628 299.847C130.628 299.528 130.575 299.369 130.575 299.05C130.575 298.678 130.628 298.466 130.521 298.094C130.415 297.51 130.043 297.031 129.831 296.713C129.618 296.447 129.247 295.969 129.034 294.96C128.768 293.95 128.768 293.101 129.193 291.985C129.618 290.869 130.575 289.966 130.575 289.966L132.965 288.373C132.965 288.373 135.037 286.885 135.674 286.301C136.365 285.717 137.693 284.495 138.649 283.114C139.765 281.573 140.349 280.617 140.827 278.758C140.986 278.067 141.146 277.005 141.146 277.005C141.146 277.005 141.146 276.261 141.571 276.208C141.996 276.155 142.102 276.314 142.102 276.314C142.102 276.314 142.474 276.527 142.58 277.589C142.633 278.652 142.314 279.873 142.314 279.873C142.314 279.873 141.996 281.095 141.889 281.839C141.836 282.317 141.836 282.582 141.836 283.114C141.836 284.017 142.208 284.76 142.208 284.76C142.208 284.76 142.421 284.92 142.421 284.548C142.421 284.123 142.527 283.486 142.686 282.848C142.846 282.317 142.952 282.423 143.271 281.52C143.696 280.351 143.324 280.458 143.536 279.767C143.642 279.448 143.908 279.13 144.227 279.13C144.545 279.13 144.599 279.555 144.599 279.555C144.599 279.555 144.917 280.936 144.652 282.211C144.386 283.486 143.43 285.239 143.43 285.239L142.686 286.513C142.686 286.513 142.155 287.417 141.943 288.001C141.73 288.638 141.677 288.904 141.783 289.488C141.943 290.126 142.421 290.976 142.686 290.816C142.899 290.657 142.368 290.126 143.005 288.851C143.642 287.576 144.492 286.779 144.492 286.779C144.492 286.779 145.661 285.398 146.192 284.335C146.67 283.379 147.148 281.839 147.148 281.839C147.148 281.839 147.52 280.458 147.414 279.289C147.361 278.173 147.148 277.589 147.148 277.589L146.67 276.739L146.405 276.102L146.511 275.73C146.617 275.677 146.989 275.942 147.308 276.367C147.627 276.792 147.945 277.323 148.105 278.067C148.264 278.598 148.317 279.076 148.317 279.555C148.317 279.98 148.158 281.733 148.795 282.848C149.061 283.379 149.698 284.601 149.751 284.07C149.858 282.848 149.326 282.264 149.38 281.148C149.433 279.873 149.751 280.192 149.858 279.555C149.964 278.864 150.123 278.705 150.017 277.802C149.911 276.952 149.539 275.836 149.539 275.836L149.167 274.986L149.008 274.667C149.008 274.667 149.114 274.508 149.273 274.508L150.548 274.083C150.548 274.083 152.195 273.339 152.832 272.808C153.523 272.33 154.32 271.48 154.32 271.48C154.32 271.48 155.382 270.152 155.913 269.196C157.188 266.805 157.188 263.778 157.135 262.396C157.082 261.068 156.71 259.315 156.71 259.315C156.71 259.315 156.285 257.191 156.392 255.809C156.498 254.428 156.604 253.791 156.604 253.791C156.604 253.791 156.551 252.41 157.72 250.922C158.888 249.435 159.419 248.479 159.632 247.363C159.844 246.407 159.526 244.866 159.101 245.451ZM123.934 235.889C123.775 235.889 123.563 235.676 123.563 235.676C123.563 235.676 123.509 235.623 123.669 235.517C123.828 235.411 124.041 235.464 124.041 235.464L124.2 235.517L124.466 235.889C124.413 236.048 124.094 235.942 123.934 235.889ZM124.572 234.136C124.413 234.083 124.147 233.923 124.147 233.923C124.147 233.923 124.094 233.817 124.253 233.711C124.413 233.605 124.678 233.658 124.678 233.658L124.837 233.764C124.891 233.817 125.156 234.083 125.156 234.189C125.156 234.348 124.784 234.189 124.572 234.136ZM125.156 232.33C124.944 232.277 124.625 232.064 124.625 232.064C124.625 232.064 124.572 231.958 124.784 231.852C124.997 231.745 125.316 231.799 125.316 231.799L125.528 231.905C125.634 232.011 125.9 232.277 125.9 232.436C125.847 232.595 125.369 232.383 125.156 232.33ZM125.634 230.683C125.422 230.63 125.103 230.417 125.103 230.417C125.103 230.417 125.05 230.311 125.262 230.205C125.475 230.099 125.794 230.152 125.794 230.152L126.006 230.258C126.112 230.364 126.378 230.63 126.378 230.789C126.325 230.895 125.847 230.683 125.634 230.683ZM126.112 228.717C125.847 228.664 125.528 228.399 125.528 228.399C125.528 228.399 125.475 228.293 125.687 228.133C125.9 227.974 126.272 228.08 126.272 228.08L126.484 228.186C126.59 228.293 126.909 228.611 126.909 228.771C126.909 228.983 126.325 228.717 126.112 228.717ZM126.431 226.593C126.112 226.54 125.687 226.221 125.687 226.221C125.687 226.221 125.581 226.061 125.9 225.902C126.166 225.743 126.59 225.796 126.59 225.796L126.856 225.955C126.962 226.061 127.334 226.486 127.387 226.699C127.387 226.911 126.75 226.646 126.431 226.593ZM126.644 224.468C126.272 224.415 125.741 223.99 125.741 223.99C125.741 223.99 125.634 223.83 125.953 223.618C126.272 223.405 126.803 223.512 126.803 223.512C126.803 223.512 126.962 223.565 127.122 223.671C127.281 223.83 127.706 224.308 127.759 224.574C127.812 224.84 127.015 224.521 126.644 224.468ZM126.962 222.024C126.537 221.971 125.953 221.493 125.953 221.493C125.953 221.493 125.847 221.281 126.219 221.068C126.59 220.802 127.175 220.962 127.175 220.962C127.175 220.962 127.387 221.015 127.547 221.174C127.706 221.334 128.237 221.918 128.29 222.184C128.29 222.502 127.387 222.077 126.962 222.024ZM126.75 212.144C126.431 212.091 126.006 211.772 126.006 211.772C126.006 211.772 125.9 211.666 126.219 211.506C126.537 211.347 126.962 211.453 126.962 211.453C126.962 211.453 127.122 211.506 127.228 211.612C127.334 211.719 127.759 212.091 127.759 212.303C127.759 212.462 127.069 212.197 126.75 212.144ZM127.919 214.534C127.972 214.747 127.228 214.481 126.856 214.428C126.537 214.375 126.059 214.003 126.059 214.003C126.059 214.003 125.953 213.844 126.272 213.684C126.59 213.472 127.015 213.578 127.015 213.578C127.015 213.578 127.175 213.631 127.334 213.737C127.494 213.897 127.865 214.322 127.919 214.534ZM126.378 218.465C126.697 218.253 127.228 218.359 127.228 218.359C127.228 218.359 127.387 218.412 127.547 218.518C127.706 218.678 128.131 219.156 128.184 219.421C128.237 219.687 127.44 219.368 127.069 219.262C126.697 219.209 126.166 218.784 126.166 218.784C126.166 218.784 126.059 218.678 126.378 218.465ZM127.069 216.659C126.697 216.606 126.166 216.181 126.166 216.181C126.166 216.181 126.059 216.022 126.378 215.809C126.697 215.597 127.228 215.703 127.228 215.703C127.228 215.703 127.387 215.756 127.547 215.862C127.706 216.022 128.131 216.5 128.184 216.765C128.237 217.084 127.44 216.765 127.069 216.659ZM127.759 208.691C128.184 208.797 128.29 209.063 128.078 209.063C127.865 209.116 127.759 209.116 127.6 209.116C127.122 209.116 127.175 208.903 126.537 209.222C125.9 209.541 126.378 209.381 125.475 209.7C124.625 210.019 124.837 209.169 124.837 209.169C124.837 209.169 124.891 209.009 124.997 208.585C125.103 208.16 125.634 208.585 126.006 208.585C126.697 208.585 127.281 208.585 127.759 208.691ZM125.369 205.397L125.634 205.557C125.741 205.663 126.112 206.088 126.166 206.3C126.219 206.513 125.528 206.247 125.262 206.194C124.944 206.141 124.519 205.822 124.519 205.822C124.519 205.822 124.413 205.663 124.731 205.503C124.997 205.291 125.369 205.397 125.369 205.397ZM123.456 202.847C123.722 202.688 124.147 202.741 124.147 202.741L124.413 202.901C124.519 203.007 124.891 203.432 124.944 203.644C124.997 203.857 124.306 203.591 124.041 203.538C123.722 203.485 123.297 203.166 123.297 203.166C123.297 203.166 123.191 203.007 123.456 202.847ZM122.925 237.27C123.084 237.164 123.297 237.217 123.297 237.217L123.456 237.27L123.722 237.642C123.722 237.748 123.403 237.589 123.244 237.589C123.084 237.589 122.872 237.376 122.872 237.376C122.872 237.376 122.766 237.323 122.925 237.27ZM101.623 211.984C101.464 212.091 101.358 212.144 101.145 212.303C100.88 212.516 100.614 213.047 100.455 212.887C100.242 212.728 100.349 212.144 100.349 212.144C100.349 212.144 100.508 211.719 100.72 211.294C100.986 210.869 101.305 210.869 101.305 210.869C101.623 210.869 102.208 211.081 102.208 211.559C102.261 212.037 101.889 211.825 101.623 211.984ZM105.979 213.631C105.979 213.631 105.767 213.684 105.714 213.312C105.661 212.94 105.979 212.887 105.979 212.887C105.979 212.887 106.617 212.569 106.617 212.994C106.67 213.365 105.979 213.631 105.979 213.631ZM111.663 206.407C111.663 206.407 110.973 207.522 110.017 207.947C109.06 208.372 108.423 208.585 106.617 208.744C106.351 208.744 106.458 208.585 106.458 208.585C106.458 208.585 108.529 208 109.698 207.363C110.335 206.991 111.079 206.513 111.292 206.3C112.035 205.663 111.663 206.407 111.663 206.407ZM75.9659 252.41C75.9659 252.675 75.6472 253.153 75.5409 253.153C75.4347 253.153 75.2222 252.675 75.2753 252.41C75.3284 252.144 75.3816 251.4 75.8065 251.507C76.1253 251.56 75.9659 252.144 75.9659 252.41ZM77.3471 246.407C77.3471 246.407 76.869 247.416 76.7096 246.991C76.5502 246.619 76.869 245.929 76.869 245.929C77.2939 245.557 77.4533 245.026 77.6658 245.238C77.8251 245.451 77.3471 246.407 77.3471 246.407ZM83.9341 236.048C83.456 236.579 81.9686 239.395 81.6499 238.917C81.3312 238.545 83.0842 235.889 83.456 235.358C83.8279 234.773 84.1466 234.88 84.1466 234.88L84.2528 234.986C84.1997 234.986 84.4122 235.517 83.9341 236.048ZM87.9182 231.852C87.9182 231.852 86.8558 232.064 87.0151 231.692C87.2276 231.32 87.9713 231.161 87.9713 231.161C88.5556 231.267 88.6619 231.32 88.6088 231.586C88.6619 231.852 87.9182 231.852 87.9182 231.852ZM92.221 239.289C91.7429 239.767 91.5836 239.129 90.893 238.332C90.2024 237.589 90.3618 236.951 90.3618 236.951H90.468L90.5743 237.004L90.8399 237.111L90.9992 237.27L91.5304 237.801C91.7429 238.12 92.3273 239.182 92.221 239.289ZM83.9872 255.172C83.8279 255.172 83.6685 254.853 83.6685 254.853C83.6685 254.853 83.2435 254.216 83.0842 253.738C82.9248 253.313 82.8717 252.622 82.8717 252.622C82.8717 252.622 82.7654 251.719 82.7654 251.4C82.8186 250.975 82.8186 250.603 82.8717 250.391C82.9248 250.178 83.1373 250.232 83.1373 250.232C83.456 250.232 83.456 250.497 83.456 250.497V250.657C83.456 250.657 83.456 251.613 83.5091 252.356C83.5091 252.569 84.0935 254.959 84.0935 254.959C84.0935 254.959 84.1997 255.172 83.9872 255.172ZM83.881 244.016C83.5091 244.601 83.2435 244.601 83.2435 244.601C83.2435 244.548 83.1373 244.335 83.456 243.698C83.7747 243.06 84.0935 243.113 84.0935 243.113L84.1997 243.22C84.1997 243.22 84.2528 243.432 83.881 244.016ZM87.6526 266.274C87.7588 266.062 88.4494 266.593 88.4494 266.593C88.715 266.646 88.9806 267.124 88.9806 267.124C88.9806 267.124 89.0869 267.496 88.7681 267.602C88.4494 267.762 88.2369 267.443 88.2369 267.443C88.2369 267.443 87.5463 266.487 87.6526 266.274ZM92.646 250.019C91.9023 249.86 90.3087 248.638 89.6712 248.319C89.0337 248.001 87.9713 247.894 88.4494 247.469C88.5025 247.416 88.5557 247.31 88.6619 247.31C88.7681 247.31 89.2462 247.469 89.2462 247.469L90.4149 247.947C90.468 247.947 91.0523 248.213 91.5304 248.479C91.9554 248.744 92.6991 249.222 92.6991 249.222L93.0178 249.488C93.0178 249.594 93.3897 250.179 92.646 250.019ZM99.1268 239.448C99.1268 239.448 98.2237 240.67 97.6925 241.413C97.0019 242.423 96.152 243.963 95.9926 243.804C95.8333 243.645 96.7363 241.945 97.2144 241.042C97.7456 239.926 98.5425 239.342 98.8612 239.236C99.5518 238.917 99.1268 239.448 99.1268 239.448ZM96.2582 292.622C96.2582 292.622 96.2582 292.835 95.8864 293.1C95.5145 293.366 95.3552 293.207 95.3021 293.207C95.2489 293.207 94.8771 292.994 94.8771 292.782C94.9302 292.569 95.5145 292.41 95.5145 292.41C96.5238 292.357 96.2582 292.622 96.2582 292.622ZM104.492 292.304C104.12 292.251 104.067 292.144 104.12 292.091C104.12 292.038 104.226 291.932 104.651 291.932C105.076 291.932 105.076 292.144 105.076 292.144C105.076 292.304 104.917 292.357 104.492 292.304ZM113.948 292.835C113.151 293.047 112.832 292.941 112.142 292.994C111.557 293.047 111.292 293.1 110.707 293.1C109.698 293.1 109.592 293.154 108.157 292.729C107.892 292.622 107.573 292.304 107.679 292.197C107.786 292.038 107.998 292.091 107.998 292.091C107.998 292.091 109.804 292.41 110.973 292.463C111.823 292.516 112.248 292.569 113.098 292.516C113.576 292.516 113.31 292.463 114.054 292.463C114.319 292.41 114.16 292.782 113.948 292.835ZM118.994 291.347C118.941 291.401 118.622 291.507 118.357 291.56C118.038 291.613 118.197 291.347 118.197 291.347C118.197 291.347 118.41 291.029 118.675 290.869C118.994 290.71 119.154 290.869 119.154 290.869C119.26 291.082 119.047 291.294 118.994 291.347ZM122.925 281.148C122.553 281.945 122.447 282.211 122.394 282.954C122.288 283.751 122.766 285.982 122.022 285.132C121.756 284.76 121.491 283.007 121.703 282.158C122.075 280.245 123.616 279.714 122.925 281.148ZM112.195 313.605C111.876 313.818 112.513 314.455 111.504 314.402C110.92 314.349 111.238 313.818 111.292 313.765L111.663 313.233C111.929 312.862 112.088 312.808 112.354 312.649C112.62 312.49 112.832 312.915 112.832 312.915C112.832 312.915 112.938 313.074 112.938 313.287C112.938 313.446 112.46 313.393 112.195 313.605ZM117.772 308.24L117.294 308.612C117.241 308.612 116.922 308.878 116.816 308.718C116.71 308.559 116.869 308.346 116.869 308.293C116.869 308.24 117.188 307.868 117.454 307.762C117.719 307.603 117.879 307.762 117.879 307.762C118.038 308.134 117.772 308.24 117.772 308.24ZM120.269 215.172C120.269 215.172 120.057 215.862 119.632 216.022C119.1 216.181 117.082 216.234 117.029 216.075C116.976 215.915 119.366 215.703 120.269 214.8C120.482 214.587 120.269 215.172 120.269 215.172ZM119.525 213.419C119.685 213.153 119.578 213.844 119.578 213.844C119.578 213.844 119.419 214.534 119.047 214.747C118.569 215.012 117.401 215.331 117.294 215.172C117.294 215.065 118.835 214.587 119.525 213.419ZM116.232 205.45C116.232 205.45 116.444 205.45 116.763 205.61C117.082 205.822 117.294 206.46 117.294 206.46C117.294 206.46 117.347 206.566 117.082 206.566C116.922 206.566 116.922 206.3 116.763 206.194C116.551 206.035 116.391 205.982 116.126 205.875C115.86 205.769 115.488 205.928 115.435 205.663C115.435 205.344 116.232 205.45 116.232 205.45ZM113.788 207.203C113.788 207.203 113.895 206.885 114.373 206.619C114.798 206.353 115.382 206.353 115.382 206.353C115.382 206.353 115.701 206.353 116.072 206.619C116.444 206.885 116.763 207.788 116.763 207.788C116.763 207.788 116.869 208.372 116.604 208.585C116.338 208.797 115.913 208.425 115.701 208.106C115.435 207.788 115.276 207.681 114.904 207.575C114.479 207.416 113.841 207.894 113.735 207.575C113.735 207.469 113.788 207.203 113.788 207.203ZM113.629 214.534C113.31 214.587 113.523 214.269 113.523 214.269C113.523 214.269 114.426 213.897 115.01 213.578C115.966 213.1 117.772 211.187 117.294 212.091C117.082 212.516 116.444 213.047 116.444 213.047C116.444 213.047 115.701 214.109 115.541 214.269C114.851 214.8 114.001 214.481 113.629 214.534ZM106.139 235.145L106.192 235.039C106.192 235.039 107.786 233.977 110.282 234.295C111.77 234.508 113.204 235.836 112.991 235.995C112.779 236.154 112.46 235.995 112.354 235.995L111.823 235.73L111.026 235.517C111.026 235.517 109.592 235.198 108.529 235.251C107.467 235.305 106.511 235.676 106.511 235.676C106.511 235.676 106.086 235.889 105.979 235.623C105.926 235.305 106.139 235.145 106.139 235.145ZM110.07 265.052C106.404 262.237 101.942 256.5 102.473 255.969C102.952 255.544 104.758 258.2 107.467 261.121C110.335 264.203 113.682 267.124 113.788 267.496C114.001 268.133 111.451 266.115 110.07 265.052ZM118.41 225.371C116.869 228.027 114.744 230.046 114.744 230.046C114.001 230.577 114.479 229.621 114.479 229.621C114.479 229.621 116.551 226.752 117.507 224.733C118.197 223.299 118.622 221.387 118.941 221.015C119.685 220.112 119.313 223.777 118.41 225.371ZM122.66 254.481C121.066 252.569 119.897 250.497 119.525 247.894C119.419 247.31 119.419 246.46 119.95 246.566C120.428 246.619 120.375 247.522 120.375 247.735C120.535 249.275 121.172 250.816 122.341 252.675C123.988 255.278 126.644 257.297 126.537 257.456C126.272 257.722 123.616 255.65 122.66 254.481ZM123.138 304.15C122.235 305 120.694 306.168 120.694 306.168H120.482V305.903L120.535 305.796L120.641 305.637L120.747 305.478L120.853 305.318L121.172 304.947L121.916 304.256L122.66 303.565L123.828 302.397C123.828 302.397 124.253 301.919 124.413 301.812C124.572 301.706 124.678 301.6 124.837 301.494C125.05 301.387 125.316 301.228 125.422 301.334V301.547C125.475 301.706 124.094 303.247 123.138 304.15ZM126.431 264.84C125.741 265.318 125.475 265.265 125.05 265.743C124.572 266.327 124.413 268.293 123.934 267.496C123.456 266.699 123.775 265.584 124.572 264.734C125.528 263.618 127.6 263.99 126.431 264.84ZM128.928 299.794C129.247 299.688 129.406 299.741 129.406 299.741L129.512 299.953C129.512 300.006 129.087 300.591 128.875 300.591C128.609 300.537 128.715 300.219 128.715 300.219C128.715 300.219 128.609 299.9 128.928 299.794ZM138.012 278.173C137.533 277.855 138.277 276.898 138.277 276.102C138.277 275.464 138.171 274.986 138.171 274.455C138.171 273.924 138.702 273.764 138.702 273.764C138.808 273.764 139.021 273.871 139.286 274.402C139.552 274.933 138.862 278.705 138.012 278.173ZM154.267 262.981C154.16 265.212 154.054 266.805 152.726 268.505C151.133 270.577 148.37 272.702 148.955 271.002C149.326 269.993 151.77 268.718 152.726 265.902C153.257 264.203 153.364 262.609 153.364 262.609L153.257 259.368C153.257 259.368 153.204 259.103 153.204 258.731C153.364 258.306 153.576 258.625 153.576 258.625L153.682 258.784C153.682 258.89 154.32 261.387 154.267 262.981Z" fill="black"/>
<path d="M188.493 283.537C188.222 283.266 188 281.5 188 279.613V276.183L192.124 275.967L196.248 275.752L196.438 255.85L196.629 235.948H192.314H188V232.004V228.059L205.392 228.015C214.957 227.991 249.409 227.996 281.952 228.026C314.494 228.056 358.959 228.076 380.762 228.07L420.404 228.059L420.208 231.825L420.011 235.59L314.381 235.771L208.75 235.953L208.954 243.66C209.147 250.958 209.24 251.38 210.719 251.59C211.965 251.767 212.328 251.404 212.512 249.797C212.72 247.982 213.047 247.76 215.791 247.561L218.839 247.341V254.912V262.484H216.329C214.949 262.484 213.577 262.565 213.281 262.663C212.985 262.762 212.639 261.936 212.512 260.827C212.328 259.22 211.965 258.857 210.719 259.034C209.218 259.248 209.157 259.578 209.157 267.504V275.752L213.317 275.968L217.477 276.184L217.262 279.912L217.046 283.641L203.016 283.835C195.3 283.942 188.764 283.808 188.493 283.537ZM227.639 282.937C226.365 282.383 224.672 280.862 223.876 279.558C222.551 277.383 222.43 275.961 222.428 262.402C222.425 248.319 222.499 247.523 223.98 245.64C226.584 242.33 229.25 241.686 240.355 241.686C256.495 241.686 257.568 242.668 257.568 257.441V266.07H246.062H234.557L234.767 271.629L234.976 277.187L238.921 277.614C244.44 278.211 245.375 277.574 245.375 273.217V269.656H251.472H257.568V273.278C257.568 278.147 255.999 280.936 252.321 282.606C249.842 283.732 247.636 283.966 239.638 283.956C232.927 283.948 229.245 283.635 227.639 282.937ZM245.375 255.371C245.375 247.607 245.267 247.423 240.696 247.423C234.599 247.423 234.618 247.402 234.618 254.672V261.05H239.996H245.375V255.371ZM261.871 279.796C261.871 275.699 261.916 275.601 263.664 275.935L265.457 276.278V262.568V248.858H263.664C261.99 248.858 261.871 248.619 261.871 245.272V241.686H269.76H277.649V244.196C277.649 245.577 277.801 246.706 277.987 246.706C278.172 246.706 279.705 245.739 281.393 244.556C284.989 242.037 290.215 241.073 293.312 242.355C296.706 243.761 297.372 245.931 297.372 255.596V264.277L291.121 264.484L284.87 264.691L284.666 256.954L284.462 249.216L281.035 252.549L277.607 255.882L277.808 265.817C278.003 275.505 278.048 275.758 279.621 275.981C281.068 276.187 281.235 276.612 281.235 280.105V284H271.553H261.871L261.871 279.796ZM301.316 279.744C301.316 275.596 301.362 275.497 303.109 275.814L304.902 276.139V262.498V248.858H303.109C301.436 248.858 301.316 248.619 301.316 245.272V241.686H309.205H317.094V244.196C317.094 245.577 317.246 246.706 317.432 246.706C317.618 246.706 319.167 245.721 320.875 244.518C323.068 242.971 325.134 242.21 327.912 241.923C331.45 241.558 332.077 241.712 334.152 243.458L336.458 245.399V255.018V264.636H330.362H324.266V257.506C324.266 253.585 323.981 250.2 323.632 249.985C323.283 249.769 321.661 251.044 320.026 252.817L317.054 256.041L317.253 265.897C317.448 275.502 317.494 275.758 319.067 275.981C320.514 276.187 320.68 276.612 320.68 280.105V284H310.998H301.316V279.744ZM345.298 282.954C341.719 281.397 340.538 278.908 340.185 272.18C339.858 265.941 340.714 261.863 342.697 260.211C343.44 259.592 346.767 259.131 352.164 258.898L360.484 258.54L360.706 254.634C361.066 248.296 360.621 247.423 357.028 247.423C353.167 247.423 352.237 248.356 352.237 252.229V255.312H346.141H340.044V252.062C340.044 247.184 341.657 243.989 344.777 242.686C346.842 241.823 349.71 241.635 358.057 241.815C368.601 242.042 368.723 242.063 370.69 244.032L372.677 246.02L372.921 260.791C373.149 274.615 373.253 275.585 374.535 275.92C375.668 276.217 375.904 276.942 375.904 280.139V284L361.739 283.972C351.321 283.95 346.973 283.682 345.298 282.954ZM360.69 270.553L360.484 263.56L357.383 263.337C352.903 263.015 352.237 263.883 352.237 270.044C352.237 277.34 352.367 277.545 357.001 277.545H360.895L360.69 270.553ZM380.207 279.79C380.207 275.877 380.321 275.587 381.821 275.666C383.433 275.752 383.435 275.743 383.63 262.305L383.825 248.858H382.016C380.323 248.858 380.207 248.627 380.207 245.272V241.686H388.096H395.985V244.166V246.647L399.595 244.403C402.112 242.838 404.384 242.061 407.095 241.836C410.676 241.539 411.157 241.686 413.167 243.696L415.349 245.879V255.257V264.636H409.253H403.157V257.506C403.157 253.245 402.85 250.187 402.395 249.906C401.975 249.646 400.362 250.811 398.809 252.493L395.985 255.551V265.831V276.111H397.778C399.473 276.111 399.571 276.326 399.571 280.055V284H389.889H380.207L380.207 279.79ZM421.804 280.055C421.804 276.033 422.125 275.657 425.211 276.057C425.901 276.147 426.107 273.026 426.107 262.516V248.858H423.956C421.852 248.858 421.804 248.778 421.804 245.272V241.686H431.845H441.885V245.272C441.885 248.627 441.769 248.858 440.077 248.858H438.268L438.463 262.305C438.656 275.637 438.672 275.754 440.272 275.981C441.719 276.187 441.885 276.612 441.885 280.105V284H431.845H421.804L421.804 280.055ZM424.673 234.692C419.138 231.927 423.36 228.062 431.917 228.06C434.521 228.06 437.674 228.416 438.925 228.852C443.247 230.359 443.18 233.569 438.791 235.199C435.539 236.406 427.528 236.118 424.673 234.692Z" fill="black"/>
</svg>
