<svg width="512" height="512" viewBox="0 0 512 512" fill="none" xmlns="http://www.w3.org/2000/svg">
<path d="M246.61 184.969C241.736 185.986 230.394 189.302 215.685 193.988L209.26 196.022L197.298 195.978C184.76 195.889 166.639 195.182 102.263 192.264C46.1281 189.699 49.7611 189.788 50.2042 190.54C52.5081 194.43 57.0715 197.57 61.7679 198.41C66.5529 199.338 83.256 200.93 137.486 205.749C152.594 207.12 168.544 208.579 172.93 209.065C195.88 211.585 200.621 213.796 207.134 224.938C213.691 236.212 216.792 240.766 222.153 246.824C228.755 254.296 240.762 263.36 251.262 268.754L256.003 271.186L260.743 268.754C271.111 263.448 283.25 254.296 289.852 246.824C295.213 240.766 298.314 236.212 304.871 224.938C311.384 213.796 316.125 211.585 339.075 209.065C343.461 208.579 359.411 207.12 374.519 205.749C428.749 200.93 445.452 199.338 450.237 198.41C454.934 197.57 459.497 194.43 461.801 190.54C462.244 189.788 465.877 189.699 409.742 192.264C357.683 194.607 330.303 195.757 316.701 196.066C303.409 196.376 305.403 196.729 285.997 190.761C268.718 185.411 263.49 184.217 256.889 184.04C252.724 183.907 250.819 184.084 246.61 184.969ZM267.611 193.192C276.959 195.536 288.567 199.382 293.529 201.77C298.491 204.202 299.688 205.572 299.555 208.844C299.422 214.15 292.599 229.669 287.105 237.318C283.738 242.049 276.959 249.034 271.731 253.235C267.522 256.639 257.996 262.918 256.534 263.315C254.718 263.758 244.572 257.037 236.863 250.317C229.021 243.463 223.084 235.726 218.52 226.441C216.039 221.357 212.805 212.425 212.362 209.286C211.786 205.484 214.533 203.096 223.217 199.736C230.616 196.862 245.768 192.573 253.344 191.203C255.692 190.805 260.921 191.512 267.611 193.192Z" fill="white"/>
<path d="M224.059 211.408C221.976 212.779 221.134 215.432 221.976 217.996C222.995 221.312 226.761 222.771 230.704 221.4C232.034 220.914 232.078 220.826 232.078 218.305V215.697H230.084C228.135 215.697 227.426 216.36 228.755 216.846C229.154 217.023 229.42 217.686 229.42 218.615C229.42 219.986 229.331 220.118 228.09 220.118C224.945 220.118 223.394 215.962 225.476 213.265C226.318 212.248 226.717 212.116 228.268 212.248C229.287 212.381 230.439 212.602 230.882 212.779C231.502 213.088 231.635 212.911 231.635 212.027C231.635 210.789 230.749 210.391 227.603 210.391C226.23 210.391 225.078 210.701 224.059 211.408Z" fill="white"/>
<path d="M233.717 210.701C233.539 210.833 233.584 211.187 233.85 211.497C234.071 211.762 234.337 214.15 234.381 216.847L234.514 221.666L238.413 221.799C242.046 221.931 242.268 221.887 242.268 221.003C242.268 220.207 242.002 220.118 239.565 220.118H236.907L237.04 218.438C237.173 216.802 237.173 216.802 239.299 216.67C240.761 216.581 241.382 216.36 241.382 215.874C241.382 215.432 240.806 215.255 239.166 215.255H236.951V213.707V212.16H239.654C241.957 212.16 242.312 212.071 242.09 211.452C241.957 211.055 241.825 210.657 241.825 210.568C241.825 210.259 234.027 210.391 233.717 210.701Z" fill="white"/>
<path d="M243.774 210.922C243.597 211.187 243.685 211.541 243.951 211.63C244.306 211.718 244.483 213.354 244.483 216.891C244.483 221.887 244.483 221.931 245.502 221.799C246.388 221.666 246.476 221.357 246.698 218.615L246.92 215.52L249.489 218.748C251.483 221.18 252.325 221.887 253.034 221.799C253.964 221.666 254.008 221.445 254.008 216.139C254.008 210.79 253.964 210.613 253.034 210.48C252.103 210.347 252.059 210.524 251.926 213.884L251.793 217.466L249.002 213.929C246.92 211.232 245.989 210.392 245.192 210.392C244.571 210.392 243.951 210.613 243.774 210.922Z" fill="white"/>
<path d="M256.003 211.01C256.003 211.364 256.224 211.806 256.446 211.939C256.712 212.115 256.889 214.282 256.889 217.067V221.887H260.655C264.111 221.887 264.421 221.798 264.421 221.002C264.421 220.207 264.111 220.118 261.984 220.118H259.547V218.35V216.581H261.763C263.446 216.581 263.978 216.404 263.978 215.918C263.978 215.432 263.446 215.255 261.763 215.255H259.547V213.707V212.16H262.028C264.111 212.16 264.465 212.027 264.332 211.364C264.199 210.745 263.579 210.612 260.079 210.48C256.712 210.391 256.003 210.48 256.003 211.01Z" fill="white"/>
<path d="M267.61 210.833C267.079 211.054 266.414 211.762 266.193 212.425C265.528 214.149 266.503 215.697 269.073 217.112C271.642 218.482 272.041 219.809 270.047 220.03C269.338 220.118 268.186 219.986 267.478 219.72C266.193 219.278 266.148 219.322 266.281 220.472C266.414 221.621 266.547 221.666 269.117 221.798C271.288 221.887 271.997 221.754 272.971 221.002C275.231 219.234 274.433 216.714 271.066 215.034C269.471 214.238 268.851 213.663 268.851 212.956C268.851 212.115 269.028 212.071 271.288 212.292C273.459 212.513 273.725 212.425 273.725 211.718C273.725 211.275 273.414 210.789 273.016 210.656C271.997 210.258 268.807 210.391 267.61 210.833Z" fill="white"/>
<path d="M275.674 210.922C275.497 211.187 275.586 211.541 275.851 211.629C276.206 211.718 276.383 213.353 276.383 216.846V221.887H277.712H279.041V216.139V210.391H277.535C276.693 210.391 275.851 210.612 275.674 210.922Z" fill="white"/>
<path d="M282.984 211.054C280.415 212.469 281.168 215.21 284.579 216.979C286.086 217.775 286.795 218.438 286.795 219.013C286.795 220.074 284.978 220.427 282.984 219.72C281.7 219.278 281.655 219.322 281.788 220.472C281.921 221.621 282.054 221.665 284.624 221.798C287.991 221.975 289.675 220.87 289.675 218.615C289.675 217.023 289.099 216.36 286.263 214.812C285.022 214.149 284.358 213.442 284.358 212.911C284.358 212.115 284.579 212.071 286.795 212.292C288.966 212.513 289.231 212.425 289.231 211.717C289.231 211.275 288.921 210.789 288.523 210.656C287.282 210.17 284.181 210.391 282.984 211.054Z" fill="white"/>
<path d="M62.9194 204.112C63.008 204.334 64.5587 205.837 66.3752 207.517C79.4896 219.455 89.0596 223.08 113.339 225.158C124.415 226.131 139.523 227.059 157.866 227.855C166.638 228.253 174.879 228.784 176.208 229.049C177.848 229.359 179.044 229.933 180.196 230.95C181.082 231.746 181.658 232.542 181.525 232.675C181.259 232.94 149.315 232.409 131.283 231.834C125.612 231.658 122.997 231.702 123.308 232.011C124.327 233.028 146.479 239.218 158.708 241.915L164.955 243.286L182.234 243.33C200.975 243.374 200.842 243.374 203.235 245.894L204.254 247L202.348 247.265C200.177 247.53 187.993 248.415 186.398 248.415C185.778 248.415 185.557 248.592 185.822 248.813C186.31 249.343 202.038 253.632 209.039 255.224C215.551 256.638 226.761 258.716 226.982 258.495C227.071 258.407 226.052 257.434 224.678 256.373C218.963 251.819 212.494 243.993 204.121 231.613C199.779 225.158 195.348 220.339 192.291 218.659C188.171 216.448 178.822 214.812 158.973 212.823C107.491 207.782 65.4005 203.759 63.4954 203.759C63.0966 203.759 62.8308 203.936 62.9194 204.112Z" fill="white"/>
<path d="M430.123 205.35C421.483 206.146 404.116 207.826 391.577 209.064C379.039 210.302 362.69 211.894 355.247 212.646C333.227 214.768 323.967 216.36 319.714 218.659C316.657 220.339 312.226 225.158 307.885 231.613C299.511 243.993 293.042 251.819 287.327 256.373C285.953 257.434 284.934 258.407 285.023 258.495C285.244 258.716 296.454 256.638 302.967 255.224C309.967 253.632 325.695 249.343 326.183 248.813C326.448 248.592 326.227 248.415 325.607 248.415C324.012 248.415 311.828 247.53 309.657 247.265L307.752 247L308.771 245.894C311.163 243.374 311.03 243.374 329.771 243.33L347.05 243.286L353.298 241.915C365.481 239.218 387.678 233.028 388.697 232.011C389.008 231.702 386.438 231.658 380.944 231.834C363.576 232.365 330.746 232.94 330.48 232.675C330.347 232.542 330.923 231.746 331.809 230.95C332.961 229.933 334.158 229.359 335.797 229.049C337.126 228.784 345.367 228.253 354.139 227.855C372.482 227.059 387.546 226.131 398.666 225.158C422.901 223.08 432.515 219.455 445.63 207.517C447.446 205.837 449.041 204.333 449.086 204.112C449.307 203.582 447.402 203.715 430.123 205.35Z" fill="white"/>
<path d="M182.411 298.819C175.101 300.057 170.006 306.866 170.626 314.559C171.025 319.776 174.171 324.463 178.823 326.718C180.595 327.602 181.57 327.779 185.336 327.779C189.235 327.779 190.076 327.646 192.292 326.585C193.709 325.922 195.57 324.861 196.412 324.197L197.963 323.048V317.565V312.083H193.089H188.215V313.851V315.62H191.095H193.975V318.184C193.975 320.13 193.754 320.97 193.222 321.456C191.538 322.915 189.19 323.711 186.133 323.932C183.298 324.109 182.633 323.976 180.551 322.96C176.74 321.103 174.924 317.875 174.924 312.967C174.968 306.821 179.089 302.665 185.114 302.665C188.526 302.665 190.918 303.726 193.045 306.114L194.463 307.75L195.969 306.689C196.811 306.158 197.52 305.539 197.52 305.407C197.52 305.274 196.811 304.345 195.969 303.329C193.045 299.924 187.285 298.023 182.411 298.819Z" fill="white"/>
<path d="M291.845 298.775C286.484 299.836 283.56 304.92 285.598 309.563C286.706 312.039 288.788 313.498 292.776 314.559C297.96 315.93 298.979 316.814 298.979 319.82C298.979 321.014 298.624 321.766 297.649 322.783C296.365 324.021 296.099 324.109 293.529 323.932C290.339 323.755 288.877 322.871 287.459 320.395L286.529 318.759L285.022 319.688C284.181 320.174 283.472 320.837 283.472 321.103C283.472 322.164 286.086 325.303 287.991 326.541C289.497 327.558 290.383 327.823 293.175 327.912C296.01 328.044 296.852 327.867 298.491 327.027C301.46 325.524 303.055 323.225 303.32 320.263C303.719 315.532 301.327 312.79 295.124 310.978C290.871 309.695 289.231 308.457 289.231 306.424C289.231 302.267 295.39 301.206 298.801 304.788L300.175 306.247L301.548 305.362C303.188 304.346 303.232 304.301 302.169 302.665C300.13 299.659 295.833 298.023 291.845 298.775Z" fill="white"/>
<path d="M329.593 298.863C327.112 299.349 324.764 301.118 323.745 303.417C321.441 308.502 324.144 312.79 330.745 314.559C336.018 315.93 337.081 316.77 337.081 319.776C337.081 322.252 335.53 323.667 332.562 323.932C329.372 324.198 327.157 323.181 325.562 320.661L324.41 318.804L322.992 319.688C322.194 320.174 321.574 320.749 321.574 320.97C321.574 322.827 325.34 326.674 327.998 327.558C328.929 327.867 330.967 328 332.651 327.912C336.417 327.691 338.986 326.143 340.537 323.136C343.284 317.698 340.537 313.144 333.227 310.933C328.752 309.607 327.334 308.546 327.334 306.556C327.334 304.655 328.397 303.329 330.435 302.798C332.695 302.179 335.575 303.152 336.992 304.965L338.056 306.291L339.562 305.318C340.36 304.788 341.069 304.213 341.069 304.036C341.069 303.859 340.448 303.019 339.651 302.135C337.17 299.305 333.537 298.111 329.593 298.863Z" fill="white"/>
<path d="M205.938 313.41V327.558H213.469H221.001V325.79V324.021H215.463H209.925V319.6V315.178H215.064H220.16L220.027 313.277L219.894 311.42L214.931 311.287L209.925 311.155V306.999V302.798H215.463H221.001V301.03V299.261H213.469H205.938V313.41Z" fill="white"/>
<path d="M228.977 313.409V327.558H230.97H232.964L233.053 317.787L233.186 308.015L242.623 318.008C247.806 323.49 252.325 328 252.68 328C253.256 328 253.345 325.922 253.345 313.631V299.261H251.351H249.357V309.076L249.313 318.936L239.698 309.076C234.426 303.682 229.818 299.217 229.553 299.261C229.109 299.261 228.977 302.4 228.977 313.409Z" fill="white"/>
<path d="M262.648 313.41V327.558H270.18H277.712V325.79V324.021H272.174H266.636V319.6V315.178H271.731H276.826V313.189V311.199H271.731H266.636V306.999V302.798H272.174H277.712V301.03V299.261H270.18H262.648V313.41Z" fill="white"/>
<path d="M310.498 313.41V327.558H312.713H314.929V313.41V299.261H312.713H310.498V313.41Z" fill="white"/>
</svg>
