<svg width="512" height="512" viewBox="0 0 512 512" fill="none" xmlns="http://www.w3.org/2000/svg">
<path d="M225.545 215.007L217.016 251.826L208.491 215.007H179.212V294.301H202.294V253.976L210.895 294.301H223.146L231.747 253.976V294.301H254.818V215.007H225.545Z" fill="white"/>
<path d="M306.107 215.007L297.579 251.826L289.051 215.007H259.776V294.301H282.853V253.976L291.454 294.301H303.707L312.313 253.976V294.301H335.384V215.007H306.107Z" fill="white"/>
<path d="M85.9686 215.007V244.113H74.4584V215.007H50V294.301H74.4584V264.321H85.9686V294.301H110.429V215.007H85.9686Z" fill="white"/>
<path d="M392.919 234.091V215.007H340.46V294.301L392.919 294.295V275.211H364.926V263.352H392.919V245.981H364.926V234.091H392.919Z" fill="white"/>
<path d="M139.332 215.03L139.329 268.227C139.376 275.075 141.687 276.783 144.837 276.783C147.914 276.783 150.259 274.964 150.259 268.078V215.03H174.651V268.393C174.651 291.922 165.851 297.006 144.837 297C123.795 296.993 114.934 292.007 114.934 268.387V215.03H139.332Z" fill="white"/>
<path d="M429.087 251.208C433.655 251.208 435.836 247.977 435.836 241.412C435.836 233.177 433.081 230.97 429.061 230.97H421.91V251.208H429.087ZM435.893 294.277L421.923 265.852V294.301H397.458V215.006L436.75 215C444.998 215 458.648 214.562 457.919 241.018C457.577 253.389 450.942 262.414 445.671 264.634L462 294.277H435.893Z" fill="white"/>
</svg>
