<svg width="512" height="512" viewBox="0 0 512 512" fill="none" xmlns="http://www.w3.org/2000/svg">
<path fill-rule="evenodd" clip-rule="evenodd" d="M423.155 237.028H398.838C394.756 237.271 393.616 238.29 393.616 243.281V257.038H423.155V237.028ZM436.103 226.011V286H423.155V268.756H393.616V286H380.668V238.971C380.668 230.662 384.01 226.011 393.616 226.011H436.103ZM367.722 238.96V271.425C367.722 281.76 361.958 285.989 354.773 285.989H313.933V226H354.773C365.802 226 367.722 233.063 367.722 238.96ZM354.619 242.57C354.619 239.284 352.63 237.016 349.148 237.016H326.882V274.499L349.148 274.497C354.22 274.238 354.619 271.175 354.619 268.745V242.57ZM50 226H62.9477V249.645H91.9161V226H104.864V285.987H91.9161V261.507H62.9477V285.987H50V226ZM127.055 226L143.286 250.524L159.323 226H175.045L149.754 264.352V285.989H136.805V264.349L111.338 226H127.055ZM247.725 226H289.449C295.395 226 301.153 226.841 300.985 238.96V285.989H288.037V243.269C288.037 238.103 287.422 237.016 283.398 237.016H260.676V285.989H247.725V226ZM462 226.011V286H449.049V226.011H462ZM181.52 285.989H223.241C231.536 285.989 234.947 283.572 234.779 271.526V226H221.831V268.824C221.831 273.958 221.216 274.581 217.191 274.581H194.47L194.468 226H181.52V285.989Z" fill="#002C5F"/>
</svg>
