<svg width="512" height="512" viewBox="0 0 512 512" fill="none" xmlns="http://www.w3.org/2000/svg">
<path d="M255.983 358.916C366.433 358.916 456 313.066 456 256.516C456 199.933 366.433 154.083 255.983 154.083C145.567 154.083 56 199.933 56 256.516C56 313.066 145.567 358.916 255.983 358.916ZM293.65 308.666C290.317 316.4 284.567 332.9 271.383 339.5C267.383 341.483 262.433 342.4 258.05 342.583H256C219.1 342.583 184.733 337.416 155.967 328.683L154.867 328.266C152.2 327.383 150.867 326.15 150.867 324.633C150.867 323.316 151.583 322.3 152.517 321.383L154.333 319.766C161 314.233 180.967 299.766 218.633 285.316C231.85 280.3 248.4 274 265.717 270.316C275.85 268.216 313.533 262.433 293.65 308.666ZM394.667 205.433C395.383 204.2 396.333 203.15 398.05 203.066C398.983 202.966 400.25 203.183 402.183 204.4C425.667 218.85 439.6 236.933 439.6 256.483C439.6 291.783 394.2 322.15 329.267 335.4C325.133 336.233 322.333 336.2 321.417 335.15C320.75 334.516 320.583 333.383 321.417 331.983C321.904 331.116 322.485 330.306 323.15 329.566C358.483 287.9 385.417 226.416 393.067 208.683C393.65 207.45 394.2 206.233 394.667 205.433ZM218.95 204.116C222.283 196.4 228.033 179.883 241.2 173.35C245.2 171.35 250.15 170.383 254.533 170.266C255.55 170.233 256.267 170.266 256.533 170.266C293.483 170.266 327.8 175.366 356.6 184.15C356.817 184.25 357.483 184.483 357.7 184.566C360.367 185.466 361.7 186.683 361.7 188.2C361.7 189.516 361 190.483 360.067 191.416C359.476 191.973 358.865 192.507 358.233 193.016C351.617 198.6 331.6 213.033 293.933 227.483C280.683 232.55 264.167 238.8 246.9 242.466C236.733 244.633 199.067 250.35 218.95 204.116ZM182.667 177.566C186.833 176.766 189.583 176.766 190.6 177.816C191.183 178.483 191.35 179.583 190.567 180.983C190.069 181.827 189.488 182.62 188.833 183.35C153.5 225.066 126.55 286.5 118.867 304.283C118.385 305.391 117.851 306.475 117.267 307.533C116.6 308.75 115.617 309.8 113.933 309.9C113 309.983 111.683 309.716 109.75 308.55C86.2833 294.1 72.3333 276.033 72.3333 256.483C72.3333 221.183 117.733 190.816 182.667 177.566Z" fill="white"/>
</svg>
