<svg width="512" height="512" viewBox="0 0 512 512" fill="none" xmlns="http://www.w3.org/2000/svg">
<path d="M343.751 301.748L256 183.584L168.249 301.748C138.615 298.866 87.6899 279.556 87.6899 245.26C87.6899 202.029 162.494 161.681 256.288 161.681C354.972 161.681 424.885 202.029 424.885 245.26C424.885 279.844 373.673 299.154 344.327 301.46M256 149C134.587 149 50 196.554 50 257.941C50 286.761 68.4134 319.04 107.542 338.638C144.081 356.795 195.293 363.135 202.486 364L256 207.505L309.514 364C342.246 360.327 374.247 351.779 404.458 338.638C443.587 319.04 462 286.761 462 257.941C461.712 196.265 377.413 149 256 149Z" fill="#231F20"/>
</svg>
