<svg width="512" height="512" viewBox="0 0 512 512" fill="none" xmlns="http://www.w3.org/2000/svg">
<path d="M124.16 307.183V345.244L111.25 308.557C110.976 307.595 110.289 307.183 108.916 307.183H96.9677V353.489H105.208V315.84L117.98 351.977C118.254 352.939 119.078 353.351 120.04 353.351H132.4V307.046H124.16V307.183ZM166.733 307.183V353.489H176.346V333.702H193.513V325.183H176.346V315.565H193.788V307.046H166.733V307.183ZM386.878 307.183V316.114H397.453V353.489H407.066V315.977H417.641V307.046H386.741L386.878 307.183ZM227.16 353.489H237.46V307.183H227.16V353.489ZM343.893 353.489H354.193V307.183H343.893V353.489ZM450.326 353.489H460.489V307.183H450.326V353.489ZM51.373 353.489H61.673V307.183H51.373V353.489ZM308.598 307.183H300.358V345.244L287.449 308.557C287.174 307.595 286.488 307.183 285.252 307.183H273.166V353.489H281.406V315.84L294.178 351.977C294.453 352.939 295.277 353.351 296.238 353.351H308.598V307.046V307.183ZM297.886 231.198L256 174.863L214.113 231.198C199.968 229.824 175.66 220.618 175.66 204.267C175.66 183.656 211.366 164.42 256.137 164.42C303.242 164.42 336.614 183.656 336.614 204.267C336.614 220.756 312.169 229.962 298.161 231.061M256 158.374C198.045 158.374 157.669 181.046 157.669 210.313C157.669 224.053 166.458 239.443 185.136 248.786C202.577 257.443 227.022 260.466 230.456 260.878L256 186.267L281.544 260.878C297.168 259.127 312.443 255.051 326.864 248.786C345.541 239.443 354.33 224.053 354.33 210.313C354.193 180.908 313.954 158.374 256 158.374Z" fill="#231F20"/>
</svg>
