<svg width="512" height="512" viewBox="0 0 512 512" fill="none" xmlns="http://www.w3.org/2000/svg">
<path d="M136.317 265.934L118 241.298L99.683 265.934C93.4972 265.333 82.8673 261.307 82.8673 254.157C82.8673 245.144 98.4818 236.731 118.06 236.731C138.659 236.731 153.253 245.144 153.253 254.157C153.253 261.367 142.563 265.393 136.437 265.874M118 234.088C92.6564 234.088 75 244.002 75 256.8C75 262.809 78.8436 269.539 87.0112 273.625C94.6383 277.41 105.328 278.732 106.83 278.912L118 246.285L129.17 278.912C136.003 278.147 142.683 276.364 148.989 273.625C157.156 269.539 161 262.809 161 256.8C160.94 243.942 143.344 234.088 118 234.088Z" fill="#231F20"/>
<path d="M232.45 242.086V265.852L224.389 242.944C224.217 242.343 223.789 242.086 222.931 242.086H215.47V271H220.616V247.491L228.591 270.056C228.762 270.657 229.277 270.914 229.877 270.914H237.595V242H232.45V242.086ZM259.034 242.086V271H265.036V258.645H275.756V253.325H265.036V247.32H275.927V242H259.034V242.086ZM396.498 242.086V247.663H403.101V271H409.104V247.577H415.707V242H396.412L396.498 242.086ZM296.766 271H303.197V242.086H296.766V271ZM369.657 271H376.088V242.086H369.657V271ZM436.116 271H442.462V242.086H436.116V271ZM187 271H193.432V242.086H187V271ZM347.618 242.086H342.473V265.852L334.412 242.944C334.24 242.343 333.811 242.086 333.04 242.086H325.493V271H330.638V247.491L338.614 270.056C338.785 270.657 339.3 270.914 339.9 270.914H347.618V242V242.086Z" fill="#231F20"/>
</svg>
