<svg width="512" height="512" viewBox="0 0 512 512" fill="none" xmlns="http://www.w3.org/2000/svg">
<path d="M369.221 264.934C367.66 271.731 362.847 274.618 354.79 274.618C349.331 274.618 344.53 273.427 342.047 270.789C339.373 267.974 338.965 264.099 338.965 259.944V239.623H345.089V259.622C345.089 264.116 345.461 266.804 347.109 268.788C348.947 271.12 352.191 271.807 354.933 271.807C360.716 271.807 364.547 269.802 365.592 264.371C365.838 263.116 366.016 261.572 366.016 259.211V239.623H369.783V257.858C369.783 261.254 369.597 263.175 369.221 264.934Z" fill="#00412D"/>
<path d="M400.21 246.182L393.135 261.954H406.956L400.21 246.182ZM411.995 273.901L407.966 264.29H392.086L387.752 273.901H383.882L399.85 239.678H403.633L419.284 273.901" fill="#00412D"/>
<path d="M254.42 246.182L247.341 261.954H261.178L254.42 246.182ZM266.213 273.901L262.164 264.29H246.3L241.962 273.901H238.084L254.048 239.678H257.874L273.505 273.901" fill="#00412D"/>
<path d="M306.847 274.614C296.263 274.614 286.213 270.717 286.213 257.591C286.213 253.309 287.98 248.925 290.669 245.792C294.86 240.933 301.254 239 307.251 239C310.911 239 315.122 239.873 318.398 241.654V245.711C315.427 243.337 311.553 241.718 307.695 241.718C298.992 241.718 293.014 247.526 293.014 257.133C293.014 265.859 298.303 271.824 306.435 271.824C308.507 271.824 311.359 271.421 313.367 270.611V258.125H319.452V272.049C315.867 273.795 310.781 274.614 306.847 274.614Z" fill="#00412D"/>
<path d="M445.519 242.002H441.035V258.38H444.973C448.272 258.38 450.245 257.71 451.766 256.379C453.394 255.001 454.369 252.872 454.369 249.977C454.369 244.194 450.443 242.002 445.519 242.002ZM455.922 273.846L447.456 260.724H441.035V273.846H434.907V239.623H446.494C451.2 239.623 455.906 240.365 458.508 243.448C459.863 245.084 460.643 247.306 460.643 250.206C460.643 255.526 456.876 258.694 453.557 259.944L463 273.846" fill="#00412D"/>
<path d="M212.213 280.897C210.601 281.694 208.83 282.228 207 282.228C211.215 278.985 212.97 275.686 213.599 270.23C213.952 267.215 213.952 264.18 213.952 261.165V239.627H220.06V265.532C220.06 271.854 217.779 277.963 212.213 280.897Z" fill="#00412D"/>
<path d="M59.6859 236.286C59.73 236.222 59.9087 235.564 60.8141 235.48C60.8141 235.48 61.2692 235.448 61.7939 235.613C61.7939 235.613 61.4944 236.434 60.2663 236.581L59.5814 236.65L59.6859 236.286ZM180.735 273.778C180.424 274.598 179.103 275.608 177.561 276.166C175.938 276.729 172.516 276.746 170.768 276.139C170.768 276.139 170.394 275.724 169.189 275.333C166.329 274.441 165.396 273.824 163.957 272.394C162.931 271.404 161.795 270.131 160.718 268.934C160.221 268.396 159.042 267.163 156.955 266.779C154.8 266.391 149.482 265.961 147.515 265.211C146.201 264.725 144.618 263.786 142.673 260.683C141.732 259.196 141.015 258.761 139.659 257.852C139.659 257.852 140.697 258.714 141.242 259.766C142.018 261.29 142.403 262.378 142.826 263.196C143.274 264.022 143.761 264.732 144.546 265.398C145.51 266.224 146.143 266.403 147.241 266.647C148.279 266.863 151.857 267.035 154.919 267.15C157.932 267.285 159.225 268.266 160.161 269.101C161.032 269.868 162.406 272.082 163.381 272.991C164.672 274.188 164.704 274.22 166.206 275.198C166.972 275.699 167.641 276.038 168.256 276.267C169.656 277.132 169.08 278.624 169.08 278.624C168.674 279.818 167.246 280.24 165.579 279.997C163.072 279.759 160.902 277.542 159.081 275.955C158.076 275.083 157.702 274.64 155.775 273.222C152.834 271.057 145.881 271.244 145.881 271.244L140.813 271.2C130.93 271.352 127.311 262.946 126.315 261.169C125.971 260.56 125.66 260.058 125.351 259.655C124.896 258.992 122.405 255.569 119.752 254.36C119.752 254.36 122.301 256.694 122.034 257.967C121.502 257.967 120.864 257.994 120.13 258.026C110.166 258.331 108.084 257.739 106.503 257.405C104.926 257.078 102.312 256.247 99.7282 254.991C99.7282 254.991 100.011 252.409 98.99 250.254C98.99 250.254 107.215 253.313 113.762 252.441C113.762 252.441 103.197 251.903 96.6034 246.354C96.6034 246.354 98.2285 252.217 96.9516 254.687C96.9516 254.687 95.2128 259.152 86.3398 256.171C86.3398 256.171 82.2399 254.483 79.0733 254.483C79.0733 254.483 76.6867 254.591 76.3942 255.901C76.3942 255.901 76.2363 256.527 76.8631 256.839C76.8631 256.839 77.5619 257.046 77.2207 257.596C76.6867 258.493 75.9438 259.171 75.1939 259.562C72.7145 259.444 72.9095 257.296 72.9095 257.296C72.9559 256.527 73.1951 255.997 73.3924 255.478C74.9641 251.802 80.4291 251.259 80.4291 251.259C86.2585 250.649 92.3642 252.134 92.3642 252.134C87.995 251.028 86.5023 250.219 85.2672 249.121C83.5725 247.642 82.01 242.641 82.01 242.641C81.3414 245.096 82.1726 247.563 82.7297 248.838C81.9079 247.438 80.7146 246.258 79.6792 245.364C76.9722 243.093 73.0743 242.353 73.0743 242.353C71.9553 242.147 71.5096 240.913 71.5096 240.913C70.054 238.09 68.4242 237.97 68.4242 237.97C69.2321 239.139 69.1486 240.734 69.1486 240.734C69.1486 243.673 65.5594 244.651 65.5594 244.651C62.8803 247.467 62.4137 247.416 61.8914 247.45C61.362 247.482 60.9859 246.912 60.9859 246.912C60.8072 246.651 61.0904 246.408 61.0904 246.408C61.5547 246.101 61.9703 245.722 61.9703 245.722C64.5844 243.494 64.9512 242.366 64.7376 240.83C64.3197 237.731 61.9494 237.96 61.9494 237.96C60.842 237.96 60.2964 238.852 60.2964 238.852C59.8739 239.39 58.9314 241.071 58.9314 241.071C58.1095 242.513 57.3713 242.302 57.3713 242.302C56.4659 242.366 55.8065 241.501 55.8065 241.501L55.7137 241.405C55.0474 240.643 55.6301 239.714 55.6301 239.714C56.7282 237.643 58.6481 237.444 58.8942 237.419C59.1705 237.407 60.0387 237.348 60.0387 237.348C62.2141 237.173 63.607 234.994 63.607 234.994C62.6993 234.532 61.0904 234.775 61.0904 234.775C59.4932 234.878 59.0753 236.667 59.0753 236.667C57.7218 236.869 57.7775 235.76 58.0585 235.466C58.2976 235.185 59.1101 233.785 64.3685 232.952C64.3685 232.952 67.1613 232.357 72.1086 232.939C72.2896 232.959 72.4522 233.131 72.227 233.419C71.6025 234.2 69.6593 235.901 66.5252 235.068C66.5252 235.068 66.4764 236.399 69.8892 237.046C69.8892 237.046 72.9559 237.751 77.9682 241.995C77.9682 241.995 75.5515 237.252 71.3378 235.792C71.3378 235.792 71.0337 235.596 71.303 235.289C71.303 235.289 73.2972 233.406 76.8074 233.598C76.8074 233.598 88.4083 234.232 94.9412 241.432C94.9412 241.432 94.709 240.228 93.72 238.493L93.6318 238.137C93.6318 238.137 93.72 237.83 94.8413 238.065C94.8413 238.065 98.99 238.795 108.613 242.513C108.613 242.513 115.812 245.179 119.752 246.907C125.655 249.485 140.458 255.832 149.807 261.309C151.46 262.268 158.424 265.897 158.424 265.897C163.625 269.313 168.416 271.782 168.416 271.782C173.111 274.08 176.544 273.023 176.544 273.023C177.631 272.588 179.715 271.404 180.537 272.242C180.955 272.684 180.964 273.244 180.735 273.778ZM181.898 271.859C181.306 270.342 179.309 270.713 179.309 270.713C178.397 270.765 177.264 271.782 175.66 272.114C172.256 272.864 169.647 271.635 169.647 271.635C164.586 269.254 161.187 266.656 158.968 265.322C156.739 263.966 148.528 259.415 140.325 255.048C140.325 255.048 130.918 249.947 116.991 243.872C116.991 243.872 90.1471 231.001 70.8294 231.001C70.8294 231.001 60.8141 230.853 57.4316 234.94C57.4316 234.94 56.828 235.458 57.1182 236.1L57.0346 236.399C57.0346 236.399 55.5465 237.431 54.3323 238.916C54.3323 238.916 53.6846 239.618 54.1977 240.67C54.1977 240.67 54.8431 241.86 55.2447 242.366C55.6788 242.874 56.5007 243.759 57.7659 243.629C58.3161 243.57 58.3231 243.425 58.3231 243.425C58.9035 244.044 59.9087 244.091 59.9087 244.091C59.8136 243.695 59.4351 242.951 59.398 242.513C59.3655 242.032 59.5396 241.56 59.5396 241.56C59.7578 241.041 60.1479 240.363 60.5425 240.036C60.9024 239.749 61.7939 239.434 62.4485 239.928C62.9755 240.311 63.542 241.56 62.9128 243.238C62.9128 243.238 62.1862 244.538 61.5292 244.69L61.3528 244.703C60.9697 244.69 60.1246 244.192 60.1246 244.192C60.1246 244.192 60.0875 244.29 60.1827 244.744C60.2338 244.998 60.3104 245.285 60.3823 245.506L60.2059 245.663C60.2059 245.663 59.6719 246.101 59.9087 246.764C59.9087 246.764 60.4357 248.826 61.8751 248.826C63.1496 248.858 64.2083 247.585 64.2083 247.585C66.957 244.462 70.8294 244.032 70.8294 244.032C75.115 243.725 81.223 248.367 82.8946 249.701C76.5497 249.62 73.9914 252.21 73.9914 252.21C70.4324 255.139 71.8114 258.685 71.8114 258.685C72.0552 259.447 72.7981 260.017 73.2786 260.24C73.9403 260.54 74.5044 260.56 75.0152 260.496C75.4006 260.452 75.8161 260.304 76.0134 260.149C76.5103 259.847 77.3762 259.248 77.7941 258.614C78.068 258.289 78.3559 257.513 78.1632 256.766C78.1632 256.766 78.0448 256.171 78.5718 256.043C78.5718 256.043 80.2387 255.589 83.6398 257.188C83.6398 257.188 87.3218 259.447 92.1089 259.894C92.1089 259.894 97.546 260.496 98.86 257.368C98.86 257.368 101.985 258.724 106.565 259.279C106.565 259.279 111.006 259.766 118.243 259.184C119.67 259.068 121.347 259.201 121.347 259.201C123.647 259.486 125.122 260.759 125.709 261.761C128.068 265.826 130.909 273.802 142.466 273.478L147.72 273.33C150.893 273.33 153.486 273.37 156.024 274.795C157.136 275.417 160.08 278.508 161.893 279.555C167.232 283.361 170.343 281.587 170.343 281.587C172.175 280.464 172.022 278.476 171.574 277.343C171.024 277.164 178.2 278.464 181.283 274.22C181.995 273.259 182.125 272.389 181.898 271.859Z" fill="#231F20"/>
</svg>
