<svg width="512" height="512" viewBox="0 0 512 512" fill="none" xmlns="http://www.w3.org/2000/svg">
<path d="M139.651 208.86C129.625 208.771 120.157 213.818 120.157 213.818C120.157 213.818 110.619 219.572 107.134 228.195C106.954 229.033 88.0559 265.544 88.0559 265.544C64.1017 258.644 52.5203 272.625 52.8853 278.021C58.6726 292.483 86.9719 282.196 89.7979 278.848C91.3617 278.012 92.3693 279.013 92.3693 279.013C92.3693 279.013 99.3003 283.609 100.084 283.971C100.866 284.333 104.812 283.805 104.812 283.805C107.881 283.573 113.357 277.583 114.019 277.525C115.042 277.528 116.277 284.162 120.489 284.053C125.544 285.026 131.024 279.343 131.024 279.343C131.745 278.327 132.019 279.095 132.019 279.095C131.903 285.329 136.985 284.229 138.489 284.053C143.483 282.028 155.715 270.024 154.333 273.559C153.852 274.517 150.102 281.492 150.102 281.492C149.682 283.349 151.015 283.227 151.015 283.227L159.807 283.144C161.311 282.249 169.003 265.747 168.102 268.023C170.875 263.026 177.144 261.247 177.144 261.247C177.746 261.069 177.476 261.908 177.476 261.908L167.19 282.235C167.01 282.773 168.019 283.31 168.019 283.31L176.978 283.144C178.181 283.028 185.688 267.693 185.688 267.693C187.731 263.801 194.978 261.578 194.978 261.578C196.301 261.342 195.393 262.652 195.393 262.652L188.342 277.36C187.27 284.038 192.903 284.429 195.31 284.136C197.717 283.783 201.631 282.433 209.328 276.699C210.893 275.506 211.236 276.706 211.236 276.947C211.302 285.159 220.361 284.219 220.361 284.219C223.068 284.885 234.061 284.627 243.255 266.37C239.893 278.769 246.746 282.145 246.987 282.566C247.229 282.985 250.913 284.267 252.296 283.971C266.318 285.209 272.204 263.478 272.204 263.478C275.359 261.12 276.16 260.444 277.43 259.76C280.56 260.067 281.4 260.155 282.905 260.338C284.108 260.762 283.017 261.881 282.656 262.239C268.342 273.349 274.625 281.917 275.107 281.74C281.371 290.209 294.373 275.446 296.84 275.212C299.978 287.689 309.524 282.257 309.946 282.318C309.105 284.773 306.657 290.845 304.554 294.795C300.165 300.957 293.273 294.051 293.273 294.051L291.531 293.969C290.69 295.045 291.199 296.282 291.199 296.282C293.006 299.165 295.319 303.154 302.481 304.132C309.702 304.452 313.845 296.53 313.845 296.53C313.845 296.53 323.968 277.924 324.628 275.708C327.695 272.959 333.018 268.989 336.988 266.123C339.574 265.591 330.514 280.305 329.854 282.401C329.674 283.599 330.103 283.64 330.103 283.64C330.103 283.64 336.991 283.982 338.315 283.805C339.638 283.63 346.067 268.415 348.352 265.544C350.335 262.253 356.73 259.182 356.73 259.182C358.114 258.886 357.642 260.504 357.642 260.504L349.181 277.525C347.141 284.652 352.886 284.689 353.909 284.632C356.677 284.458 367.015 278.517 367.015 278.517C368.458 277.442 368.426 279.178 368.426 279.178C368.306 281.456 370.776 285.188 372.822 284.714C380.163 285.393 391.267 273.245 391.569 274.386C391.63 274.625 387.421 282.896 387.421 282.896C387.602 283.556 388.333 283.888 388.333 283.888C388.333 283.888 395.442 283.966 397.126 283.971C398.811 283.976 406.475 265.733 408.158 264.718C411.586 261.191 415.337 260.856 415.458 260.917C416.722 260.861 408.306 274.252 407.827 276.947C405.967 284.675 411.476 284.549 411.476 284.549C415.869 285.221 426.641 277.61 426.822 278.269C428.084 277.015 428.232 278.517 428.232 278.517V279.095C428.96 285.333 432.629 284.632 432.629 284.632C436.841 285.722 453.283 271.989 453.283 271.989L450.794 269.262L440.509 276.699C439.667 277.117 439.182 276.203 439.182 276.203L450.712 254.059C451.252 253.521 450.463 252.902 450.463 252.902H440.094C439.372 253.679 438.933 254.224 438.933 254.224L429.559 272.402L419.274 277.443C418.191 277.739 418.444 276.617 418.444 276.617C418.444 276.617 427.014 259.864 427.734 257.529C428.215 256.452 427.983 254.72 427.983 254.72C425.15 248.177 413.705 256.647 412.14 256.703C412.079 256.763 413.55 253.728 413.55 253.728C413.971 252.83 413.135 252.819 413.135 252.819L403.513 252.736C403.513 252.736 403.542 252.056 403.181 252.654C402.82 253.252 396.628 264.8 396.628 264.8L381.117 276.451C379.793 276.688 380.121 275.79 380.121 275.79L391.486 253.893L391.569 252.984L380.619 252.736L371.578 270.089C371.097 270.627 361.624 275.956 361.624 275.956C360.179 276.372 360.131 275.129 360.131 275.129L368.509 258.934C370.406 252.616 363.477 250.758 360.048 251.993C357.729 252.825 355.568 253.563 355.568 253.563C355.568 253.563 354.884 253.74 355.485 252.902C356.507 251.466 367.098 230.592 367.098 230.592C367.339 229.992 366.767 229.6 366.767 229.6L357.144 229.517C356.362 229.874 356.232 230.426 356.232 230.426L342.545 256.29L331.264 264.718C330.542 265.196 330.518 264.387 330.518 264.387L336.158 253.728V252.654L326.038 252.571L324.379 253.893C323.235 251.492 317.427 251.52 317.246 251.58C305.09 251.186 298.25 268.354 298.25 268.354C291.486 274.194 288.362 276.012 286.14 276.369C284.291 276.472 283.734 274.964 283.734 274.964C281.159 267.104 297.338 259.677 297.338 259.677C297.879 259.378 300.211 252.407 299.909 252.406C299.608 252.405 280.016 252.383 279.835 252.323C278.752 251.902 273.519 256.807 271.955 257.942C267.373 244.562 249.617 254.682 247.153 260.669C246.095 260.95 245.621 260.754 245.08 260.752C245.258 256.197 244.65 253.357 241.762 251.91C240.196 251.067 233.798 251.91 233.798 251.91L244.665 230.344C245.206 229.685 244.167 229.022 244.167 229.022H234.379C233.958 229.261 233.467 229.848 233.467 229.848C233.467 229.848 214.972 265.529 213.89 267.445C212.809 269.359 199.291 276.534 199.291 276.534C199.41 275.216 208.117 260.135 208.416 257.198C208.771 249.587 200.038 251.993 200.038 251.993C200.038 251.993 195.092 255.263 190.582 257.529C189.612 249.194 182.287 252.075 182.287 252.075L173.992 257.446L175.485 253.563L175.817 252.075L165.863 251.828C164.721 252.664 162.711 257.198 162.711 257.198L159.558 262.983L145.374 273.642C143.991 274.417 144.711 272.568 144.711 272.568C144.711 272.568 154.287 253.857 154.499 253.728C155.28 253.25 154.664 252.075 154.664 252.075L145.042 251.993C145.042 251.993 143.413 254.75 143.052 255.05C138.474 248.622 123.366 251.231 115.263 270.254C114.228 271.526 113.427 272.416 112.858 272.65C103.358 283.714 97.9269 272.733 97.9269 272.733L114.932 240.425C114.932 240.425 122.669 223.181 127.54 218.28C139.87 209.982 143.383 217.784 143.383 217.784C144.449 220.243 147.697 229.12 130.941 233.401C128.743 233.618 129.448 234.64 129.448 234.64C134.325 238.79 140.314 238.359 140.314 238.359C146.212 239.514 162.194 230.753 156.406 216.71C151.889 210.831 145.666 208.913 139.651 208.86ZM392.73 230.757C383.945 231.092 383.431 242.837 392.398 244.06C401.123 244.325 402.781 231.145 392.73 230.757ZM452.536 230.757C443.029 230.791 443.737 244.155 452.702 244.06C461.668 243.367 460.901 231.079 452.536 230.757ZM138.655 255.794C141.468 255.858 140.976 259.215 140.48 259.843C140.782 260.863 135.586 269.593 135.586 269.593C129.575 277.069 126.71 275.708 126.71 275.708C126.71 275.708 124.65 275.422 126.213 271.411C127.895 268.598 131.164 261.279 134.591 257.033C136.395 256.109 137.718 255.772 138.655 255.794ZM232.969 256.62C235.918 256.989 234.462 259.677 234.462 259.677L226.333 275.625C223.748 278.795 221.356 277.691 221.356 277.691C220.032 276.727 222.268 273.063 222.268 273.063L229.9 258.19C231.402 256.635 232.969 256.62 232.969 256.62ZM317.577 256.703C319.879 256.296 320.812 258.19 320.812 258.19C320.812 258.19 320.947 258.495 320.647 260.173C319.987 262.749 312.849 275.047 312.849 275.047C309.844 278.036 307.209 277.443 307.209 277.443C305.704 277.019 306.296 274.799 306.296 274.799C306.296 274.799 312.076 262.993 314.84 258.025C315.923 257.234 316.81 256.838 317.577 256.703ZM262.25 256.785C263.521 256.572 264.728 257.094 264.49 259.76C262.988 262.933 257.065 274.588 255.863 276.203C255.623 277.582 249.574 279.829 251.135 274.799C251.135 274.799 259.619 258.992 259.679 258.273C259.708 257.913 260.979 256.999 262.25 256.785ZM71.2172 269.758C76.177 269.64 80.6734 271.246 80.6734 271.246C80.6734 271.246 79.5131 275.097 68.5628 276.864C63.3877 276.551 60.6839 276.575 60.6826 274.716C63.2072 270.973 67.3596 269.85 71.2172 269.758Z" fill="#231F20"/>
</svg>
