<svg width="512" height="512" viewBox="0 0 512 512" fill="none" xmlns="http://www.w3.org/2000/svg">
<path fill-rule="evenodd" clip-rule="evenodd" d="M240.359 338.243C233.735 339.255 228.123 343.4 225.688 349.079C224.568 351.691 224.379 352.731 224.393 356.206C224.408 359.897 224.704 361.267 226.072 363.981C227.828 367.461 230.627 370.152 234.355 371.945C237.819 373.611 241.561 374.267 245.527 373.902C250.649 373.432 254.553 371.664 258.526 368.015L260.11 366.559L257.429 364.159C255.955 362.839 254.679 361.734 254.595 361.704C254.51 361.674 253.818 362.181 253.056 362.83C249.871 365.546 247.668 366.538 244.28 366.781C240.376 367.062 236.414 365.096 234.244 361.801C233.169 360.168 232.731 358.734 232.619 356.482C232.508 354.233 232.784 352.853 233.731 350.931C234.551 349.264 236.729 347.153 238.477 346.329C242.891 344.249 248.17 345.103 252.307 348.565C253.071 349.204 253.837 349.83 254.01 349.956C254.282 350.155 254.699 349.829 257.138 347.518L259.952 344.852L258.937 343.958C254.959 340.454 251.161 338.669 246.621 338.171C244.345 337.921 242.309 337.945 240.359 338.243ZM308.838 338.423C305.948 338.965 303.053 340.103 300.889 341.549C299.747 342.312 297.641 344.312 296.648 345.575C292.023 351.46 291.868 360.11 296.279 366.202C297.216 367.495 299.458 369.663 300.761 370.536C302.064 371.408 304.901 372.689 306.478 373.117C309.868 374.037 314.146 374.094 317.461 373.263C324.22 371.57 329.175 367.052 331.133 360.796C331.605 359.289 331.643 358.926 331.643 355.928C331.643 352.932 331.605 352.567 331.134 351.062C329.195 344.871 324.42 340.449 317.867 338.777C315.574 338.192 311.021 338.014 308.838 338.423ZM50 355.928V373.328H63.5514H77.1028V369.719V366.109H67.598H58.0932V352.319V338.528H54.0466H50V355.928ZM112.675 351.902C112.674 359.258 112.619 367.088 112.551 369.302L112.427 373.328H116.598H120.768V355.928V338.528H116.722H112.675L112.675 351.902ZM158.725 338.652C158.656 338.72 158.599 346.55 158.599 356.052V373.328H162.644H166.69L166.738 362.629L166.787 351.93L175.162 361.63C179.769 366.966 183.947 371.695 184.447 372.14C184.947 372.585 185.667 373.034 186.047 373.138C186.427 373.241 187.817 373.327 189.137 373.327L191.537 373.328V356.021V338.714H187.492H183.447L183.398 349.015L183.349 359.317L175.124 349.785C170.6 344.543 166.562 339.954 166.15 339.589C165.739 339.223 165.078 338.835 164.683 338.727C163.901 338.513 158.929 338.451 158.725 338.652ZM368.206 347.182C368.138 351.84 368.082 359.628 368.081 364.49L368.081 373.328H381.731H395.38L395.329 369.765L395.278 366.202L385.82 366.154L376.363 366.106V352.41V338.714H372.347H368.331L368.206 347.182ZM429.063 356.009V373.328H433.108H437.153L437.201 362.668L437.25 352.007L446.027 362.164C453.396 370.691 454.955 372.402 455.746 372.825C456.644 373.305 456.808 373.328 459.343 373.328H462V356.021V338.714H457.955H453.91L453.861 349.061L453.813 359.408L445.36 349.603C440.711 344.21 436.61 339.574 436.247 339.302C435.598 338.815 435.53 338.805 432.325 338.748L429.063 338.69V356.009ZM309.507 345.664C305.934 346.517 302.95 349.273 301.803 352.782C301.2 354.627 301.24 357.414 301.896 359.31C303.061 362.673 305.468 365.046 308.803 366.12C310.765 366.752 314.089 366.768 316.073 366.154C321.522 364.469 324.566 358.887 323.102 353.26C322.579 351.25 321.91 350.126 320.279 348.517C318.709 346.969 317.223 346.137 315.183 345.664C313.696 345.319 310.954 345.32 309.507 345.664Z" fill="#040404"/>
<path fill-rule="evenodd" clip-rule="evenodd" d="M251.43 86.1066C246.093 86.3673 238.24 87.4097 236.203 88.1276C234.252 88.8156 233.324 90.0735 232.755 92.8014C231.985 96.4985 229.598 112.505 228.521 121.195C222.78 167.526 222.516 209.413 227.674 255.552C229.297 270.08 232.31 290.365 233.231 292.976C233.958 295.037 235.454 295.932 239.226 296.564C249.191 298.232 258.463 298.442 268.197 297.221C276.55 296.173 278.001 295.533 278.913 292.496C279.638 290.081 282.12 273.895 283.57 262.127C288.899 218.867 289.407 178.758 285.165 136.253C283.455 119.115 279.886 94.0593 278.708 90.924C277.83 88.5861 276.383 87.9291 270.214 87.0657C263.47 86.1219 257.43 85.8135 251.43 86.1066ZM250.848 89.562C250.24 90.1255 250.252 90.0775 249.512 94.6843C249.213 96.5507 248.886 98.2766 248.787 98.5195C248.631 98.9008 248.304 98.9969 246.41 99.2187C243.652 99.5415 242.187 99.9506 241.391 100.62C240.186 101.632 239.637 103.55 238.074 112.192C234.367 132.694 231.762 158.395 231.25 179.519C231.15 183.663 231.035 185.369 230.834 185.691C230.66 185.969 229.825 186.4 228.614 186.836C227.3 187.31 226.565 187.699 226.341 188.041C226.159 188.319 226.046 188.577 226.091 188.615C226.238 188.739 240.755 187.691 243.184 187.381C245.932 187.03 247.45 186.452 248.368 185.407C249.117 184.555 249.372 183.967 249.633 182.488C249.736 181.905 249.921 173.793 250.044 164.461C250.445 133.966 251.283 95.1901 251.642 90.4956C251.702 89.7083 251.669 89.064 251.569 89.064C251.468 89.064 251.144 89.2879 250.848 89.562ZM260.451 90.8063C260.452 91.7728 260.544 95.2834 260.657 98.6079C261.153 113.252 261.629 136.966 261.936 162.34C262.058 172.488 262.254 181.444 262.371 182.242C262.759 184.892 263.759 186.099 266.198 186.858C267.847 187.371 269.812 187.583 277.854 188.116C281.415 188.352 284.686 188.598 285.124 188.664C285.685 188.747 285.92 188.703 285.92 188.515C285.92 187.96 285.172 187.468 283.329 186.809C282.151 186.388 281.321 185.96 281.151 185.687C280.953 185.369 280.839 183.621 280.744 179.41C280.336 161.31 278.31 139.335 275.293 120.291C274.155 113.111 272.669 105.193 272.133 103.459C271.228 100.533 270.258 99.8518 266.232 99.3142C264.822 99.1258 263.56 98.9055 263.429 98.8247C263.298 98.7436 262.879 96.8247 262.497 94.56C261.779 90.2996 261.58 89.6532 260.87 89.2735C260.468 89.0583 260.45 89.1215 260.451 90.8063ZM226.067 195.493C226.067 196.007 226.946 196.61 228.466 197.139C231.297 198.124 231.069 197.53 231.239 204.375C231.734 224.287 233.861 246.484 237.216 266.742C239.407 279.978 240.102 282.576 241.741 283.657C242.475 284.141 244.231 284.533 247.454 284.934C248.176 285.024 248.634 285.197 248.749 285.424C248.847 285.617 249.192 287.445 249.517 289.486C250.163 293.547 250.44 294.396 251.237 294.759L251.766 295L251.649 293.462C251.261 288.361 250.44 250.664 250.046 219.922C249.827 202.812 249.733 200.799 249.09 199.561C248.734 198.874 247.788 198.003 246.931 197.571C245.235 196.716 244.395 196.612 233.071 195.852C230.445 195.676 227.794 195.477 227.181 195.41C226.526 195.339 226.067 195.373 226.067 195.493ZM276.683 195.961C268.522 196.564 266.934 196.776 265.335 197.471C263.524 198.259 262.72 199.44 262.37 201.823C262.254 202.621 262.058 211.672 261.935 221.937C261.627 247.734 261.233 267.319 260.632 286.68C260.497 291.027 260.441 294.638 260.507 294.703C260.737 294.934 261.456 294.375 261.681 293.789C261.807 293.464 262.198 291.441 262.55 289.294C262.902 287.147 263.266 285.316 263.359 285.225C263.452 285.133 264.626 284.912 265.969 284.733C270.074 284.185 270.844 283.791 271.7 281.803C272.864 279.1 275.688 262.664 277.431 248.447C279.334 232.926 280.816 212.517 280.824 201.726C280.826 198.102 280.846 198.068 283.479 197.153C285.019 196.618 285.92 196.011 285.92 195.508C285.92 195.273 286.123 195.263 276.683 195.961Z" fill="#040404"/>
</svg>
