<svg width="512" height="512" viewBox="0 0 512 512" fill="none" xmlns="http://www.w3.org/2000/svg">
<path d="M187.188 398.235V430.999H172.905V402.338C172.905 402.338 172.335 398.18 168.135 398.18H160.7V430.999H146.817V398.18H134.277V430.999H120.239V385.583H172.335C186.898 385.585 187.188 398.235 187.188 398.235ZM238.748 385.585H272.672L257.138 398.18H238.749L238.748 385.585ZM200.862 402.663H221.564V400.582C221.564 400.582 221.564 397.61 216.586 397.61H190.225V385.585H220.947C236.97 385.585 235.448 400.365 235.448 400.365V420.82L278.63 385.586H316.634C333.89 385.586 336.066 395.983 336.066 408.541C336.066 417.526 334.886 431 317.623 431H286.175L286.148 395.699L242.721 431L200.862 430.99C198.786 430.99 187.197 431.733 187.197 416.367C187.197 401.749 198.786 402.663 200.862 402.663ZM300.581 418.403H312.669C320.388 418.403 322.019 415.776 322.019 408.641C322.019 401.486 320.388 398.181 312.669 398.181H300.581V418.403ZM205.115 419.633H221.319L221.328 412.979H205.124C203.791 412.979 201.197 412.979 201.197 416.221C201.197 419.509 203.782 419.633 205.115 419.633ZM282.074 418.403V431H248.632L263.831 418.403H282.074ZM349.403 402.663H370.116V400.582C370.116 400.582 370.116 397.61 365.127 397.61H338.767V385.585H369.499C385.503 385.585 383.989 400.365 383.989 400.365V430.99H349.402C347.328 430.99 335.739 431.733 335.739 416.367C335.739 401.749 347.329 402.663 349.403 402.663ZM353.657 419.633H369.853L369.871 412.979H353.667C352.334 412.979 349.732 412.979 349.732 416.221C349.732 419.509 352.324 419.633 353.657 419.633Z" fill="#0080C5"/>
<path d="M354.91 189.409C335.461 168.595 304.083 159.059 256.246 159C208.409 159.059 177.031 168.595 157.582 189.409C143.166 204.849 134.078 226.224 134.078 255.216C134.078 271.247 138.045 312.077 170.37 333.157C189.73 345.763 214.714 353.941 256.246 354C297.807 353.941 322.762 345.793 342.122 333.157C374.447 312.077 378.414 271.247 378.414 255.216C378.414 226.313 369.297 204.79 354.91 189.409ZM256.246 337.201C240.527 337.172 227.769 335.902 217.23 333.275C206.929 330.706 198.374 326.78 191.033 321.2C185.556 317.037 180.79 311.811 176.853 305.612C173.508 300.327 170.726 294.275 168.624 287.662C164.331 274.229 163.858 262.006 163.858 257.371C163.858 250.551 164.331 244.056 165.249 238.092C176.498 244.145 187.184 247.185 196.598 249.872C197.338 250.079 198.048 250.285 198.788 250.492C211.932 254.241 222.352 259.201 230.699 265.608C235.554 269.328 239.758 273.638 243.221 278.421C246.981 283.587 249.97 289.492 252.131 295.928C253.108 298.88 254.144 300.681 256.246 300.681C258.348 300.681 259.384 298.851 260.361 295.928C262.522 289.492 265.541 283.587 269.271 278.421C272.734 273.638 276.938 269.328 281.793 265.608C290.14 259.201 300.56 254.241 313.704 250.492C314.444 250.285 315.154 250.079 315.894 249.872C325.308 247.185 335.994 244.145 347.243 238.092C348.161 244.056 348.634 250.551 348.634 257.371C348.634 262.006 348.161 274.288 343.898 287.662C341.796 294.275 339.014 300.327 335.669 305.612C331.731 311.811 326.965 317.067 321.46 321.2C314.118 326.75 305.534 330.706 295.232 333.245C284.723 335.873 271.965 337.172 256.246 337.201ZM256.246 265.401C255.861 265.401 255.18 264.958 253.996 262.774C248.934 253.415 242.155 245.385 233.867 238.86C227.591 233.93 220.398 229.826 212.494 226.696C211.34 226.224 210.156 225.781 208.971 225.309C198.67 221.264 187.984 217.072 178.067 211.344C176.942 210.695 175.847 210.045 174.811 209.396C176.794 205.942 179.073 202.635 181.619 199.624C185.29 195.254 189.582 191.387 194.378 188.139C199.232 184.862 204.768 182.117 210.866 179.932C223.269 175.533 238.1 173.378 256.246 173.348C274.392 173.378 289.252 175.533 301.656 179.932C307.724 182.087 313.289 184.862 318.144 188.139C322.94 191.387 327.232 195.225 330.903 199.624C333.448 202.635 335.728 205.942 337.711 209.396C336.675 210.045 335.58 210.695 334.455 211.344C324.538 217.072 313.852 221.264 303.55 225.309C302.366 225.781 301.212 226.224 300.028 226.696C292.094 229.826 284.901 233.93 278.655 238.86C270.366 245.385 263.617 253.415 258.525 262.774C257.312 264.929 256.631 265.401 256.246 265.401Z" fill="black"/>
<path d="M371.398 217.485C367.52 207.064 361.777 197.793 354.407 189.881C344.697 179.489 332.146 172.02 316.013 167.089C299.909 162.159 280.372 159.738 256.246 159.709C232.12 159.738 212.583 162.129 196.479 167.089C180.346 172.049 167.795 179.489 158.085 189.881C150.655 197.823 144.942 207.123 141.064 217.485C136.89 228.674 134.759 241.369 134.759 255.245C134.759 267.881 137.364 310.837 170.755 332.596C181.145 339.386 192.424 344.287 205.153 347.623C219.658 351.431 236.383 353.291 256.216 353.291C276.079 353.262 292.775 351.402 307.28 347.623C320.038 344.287 331.287 339.357 341.678 332.596C375.069 310.837 377.674 267.881 377.674 255.245C377.733 241.399 375.602 228.704 371.398 217.485ZM173.982 209.396C176.054 205.765 178.422 202.369 181.086 199.181C196.242 181.142 220.131 172.699 256.275 172.669C292.42 172.699 316.309 181.142 331.465 199.181C334.129 202.34 336.497 205.765 338.569 209.396C338.629 209.484 338.658 209.573 338.717 209.662C338.629 209.721 338.54 209.78 338.481 209.809C336.586 210.99 334.632 212.142 332.59 213.263C323.265 218.371 313.378 222.268 303.816 226.017C302.632 226.49 301.478 226.933 300.294 227.405C281.941 234.638 268.116 246.654 259.206 263.098C258.081 265.195 257.193 266.11 256.305 266.11C255.417 266.11 254.529 265.195 253.404 263.098C244.464 246.654 230.64 234.638 212.316 227.405C211.162 226.962 210.007 226.49 208.853 226.047L208.823 226.017C199.262 222.268 189.375 218.371 180.05 213.263C178.007 212.142 176.054 210.99 174.159 209.809C174.07 209.75 173.982 209.691 173.922 209.662C173.863 209.544 173.922 209.484 173.982 209.396ZM321.903 321.761C306.984 333.009 287.358 337.851 256.275 337.88H256.246C225.104 337.821 205.449 333.009 190.588 321.761C164.45 301.98 163.118 264.634 163.118 257.341C163.118 250.167 163.621 243.436 164.598 237.207C164.627 237.118 164.627 237 164.657 236.911C164.746 236.97 164.835 237 164.923 237.059C176.379 243.347 187.007 246.359 196.805 249.134C197.545 249.341 198.285 249.547 198.995 249.754C212.198 253.533 222.707 258.493 231.114 264.958C236.028 268.737 240.29 273.077 243.783 277.919C247.572 283.145 250.592 289.079 252.782 295.603C253.819 298.703 254.766 299.855 256.216 299.855C257.667 299.855 258.584 298.703 259.65 295.603C261.841 289.079 264.86 283.145 268.649 277.919C272.142 273.107 276.405 268.737 281.319 264.958C289.726 258.493 300.235 253.503 313.437 249.754C314.177 249.547 314.888 249.341 315.628 249.134C325.426 246.359 336.053 243.318 347.509 237.059C347.598 237 347.687 236.97 347.776 236.911C347.805 237 347.805 237.118 347.835 237.207C348.841 243.466 349.315 250.167 349.315 257.341C349.374 264.634 348.042 302.039 321.903 321.761Z" fill="white"/>
<path fill-rule="evenodd" clip-rule="evenodd" d="M228.746 335.961C203.199 332.419 163.68 318.956 163.68 254.212C163.68 215.537 176.32 172.935 256.72 172.935C326.018 172.935 349.256 208.51 349.256 254.094C349.256 270.686 346.414 283.912 342.122 294.481C330.459 323.148 306.155 332.212 284.694 335.755C270.426 338.058 245.412 338.294 228.746 335.961ZM365.981 254.625C365.981 205.292 342.684 164.432 256.986 164.432C166.966 164.432 147.991 213.913 147.991 254.743C147.991 323.06 193.963 339.652 227.384 343.578C244.316 345.586 268.827 345.438 284.516 343.608C317.641 339.74 365.981 323.266 365.981 254.625Z" fill="url(#paint0_linear_1532_19177)"/>
<path fill-rule="evenodd" clip-rule="evenodd" d="M228.746 335.961C203.199 332.419 163.444 318.956 163.68 254.212C163.828 214.208 180.642 172.935 256.72 172.935C326.137 172.935 348.22 208.658 349.256 254.094C349.611 270.42 346.503 283.528 342.27 294.039C330.399 323.532 307.251 332.035 284.694 335.725C270.426 338.058 245.412 338.294 228.746 335.961ZM365.981 254.625C365.981 205.292 342.684 164.432 256.986 164.432C166.966 164.432 147.991 213.913 147.991 254.743C147.991 323.06 193.963 340.124 227.384 344.08C244.316 346.088 268.768 346.235 284.457 344.405C317.582 340.508 365.981 323.266 365.981 254.625Z" fill="url(#paint1_linear_1532_19177)"/>
<path fill-rule="evenodd" clip-rule="evenodd" d="M257.104 165.879V172.079C187.392 172.226 163.414 209.012 163.414 255.6C163.414 297.198 182.566 319.783 202.933 329.23C226.318 340.065 253.523 338.176 240.735 343.047C237.626 344.228 235.021 346.176 223.773 344.877C190.648 341.01 148.287 324.713 148.287 256.072C148.287 206.768 171.525 165.938 257.104 165.879Z" fill="url(#paint2_linear_1532_19177)"/>
<path fill-rule="evenodd" clip-rule="evenodd" d="M377.585 256.633C377.289 281.668 368.645 310.512 348.16 327.459C326.669 345.232 293.663 352.967 256.335 352.967C219.332 352.967 187.421 346.649 163.266 326.425C144.083 310.335 134.759 281.757 134.759 256.338C134.759 228.674 143.699 199.329 166.966 181.585C189.227 164.639 225.489 159.413 256.187 159.413C290.466 159.413 323.709 164.993 345.881 182.648C368.912 200.982 377.911 228.409 377.585 256.633ZM365.478 255.718C365.478 209.868 338.658 165.525 256.483 165.525C166.463 165.525 147.488 215.005 147.488 255.836C147.488 325.451 195.236 341.335 228.805 344.877C246.951 346.796 265.097 347.003 284.901 344.818C305.77 342.486 365.478 332.36 365.478 255.718Z" fill="url(#paint3_linear_1532_19177)"/>
<path opacity="0.74" fill-rule="evenodd" clip-rule="evenodd" d="M150.004 233.073C154.178 221.176 159.418 201.484 174.781 187.874C192.098 172.551 222.559 167.119 231.469 166.115C227.976 164.078 226.141 163.635 221.02 162.011C195.976 165.672 174.722 172.492 159.566 188.375C143.551 205.115 138.903 218.784 136.062 237.502C141.271 235.553 143.403 235.081 150.004 233.073Z" fill="url(#paint4_linear_1532_19177)"/>
<path fill-rule="evenodd" clip-rule="evenodd" d="M255.625 169.599C284.664 169.599 312.313 174.529 329.66 196.76C303.106 163.96 213.382 163.192 183.78 196.76C201.098 177.039 226.555 169.599 255.625 169.599Z" fill="url(#paint5_linear_1532_19177)"/>
<path fill-rule="evenodd" clip-rule="evenodd" d="M368.882 298.526C370.392 295.16 370.303 295.397 370.955 293.301C371.221 292.356 370.718 293.861 370.066 295.042C369.267 296.578 369.415 296.459 368.202 298.201C366.929 299.973 366.544 300.15 364.205 301.626C362.34 302.807 360.002 303.575 356.302 305.612C355.354 306.143 354.881 306.497 352.927 309.036C351.536 310.837 350.026 312.933 349.227 313.819C346.799 316.594 340.76 321.938 337.238 325.008C334.189 327.665 334.87 327.636 339.191 326.13C343.069 324.802 348.812 322.41 352.216 321.023C354.348 320.137 356.124 318.661 356.834 317.834C361.008 312.933 365.952 305.021 368.882 298.526Z" fill="url(#paint6_linear_1532_19177)"/>
<path opacity="0.9" fill-rule="evenodd" clip-rule="evenodd" d="M147.991 255.629C147.991 233.546 155.836 204.82 174.693 188.11C192.01 172.787 221.641 167.06 230.581 166.026C227.088 163.989 225.253 163.547 220.132 161.923C195.088 165.584 173.834 172.846 158.648 188.73C141.272 206.916 134.937 231.568 134.522 252.086C138.904 253.356 142.189 254.271 147.991 255.629Z" fill="url(#paint7_linear_1532_19177)"/>
<path opacity="0.2" fill-rule="evenodd" clip-rule="evenodd" d="M319.18 176.743C324.33 177.452 342.832 181.438 349.078 185.246C355.028 188.848 354.021 188.995 354.021 188.995L342.921 193.217C342.95 193.188 335.135 184.508 319.18 176.743Z" fill="url(#paint8_linear_1532_19177)"/>
<path opacity="0.2" fill-rule="evenodd" clip-rule="evenodd" d="M192.72 176.448C181.708 179.046 166.907 182.825 161.075 186.604C158.322 188.375 150.744 198.266 150.744 198.266L161.49 189.35C166.729 187.992 166.996 187.696 170.992 186.752C175.432 185.689 177.978 185.335 182.862 182.058C187.747 178.78 203.732 173.85 192.72 176.448Z" fill="url(#paint9_linear_1532_19177)" fill-opacity="0.42"/>
<path fill-rule="evenodd" clip-rule="evenodd" d="M143.195 295.397C143.935 296.961 144.646 299.264 147.517 300.534C149.737 301.508 151.484 302.246 153.704 303.102C157.256 304.49 159.98 309.213 162.289 312.254C164.568 315.236 171.791 321.908 175.402 324.861C180.79 329.26 190.736 335.194 198.344 338.264C198.907 338.471 219.628 347.092 217.349 349.099C216.668 349.69 197.604 344.287 196.716 344.021C180.346 339.061 163.058 329.171 151.543 312.697C149.974 310.453 144.261 300.061 142.959 295.869C142.13 293.182 142.278 293.389 143.195 295.397Z" fill="url(#paint10_linear_1532_19177)"/>
<path opacity="0.9" fill-rule="evenodd" clip-rule="evenodd" d="M363.139 233.369C358.965 221.471 353.725 201.779 338.362 188.169C321.045 172.846 290.614 167.414 281.674 166.41C285.167 164.373 287.002 163.93 292.123 162.307C317.167 165.967 338.421 173.23 353.607 189.114C366.336 202.458 371.931 218.017 374.802 230.741C370.391 231.981 368.911 231.981 363.139 233.369Z" fill="url(#paint11_linear_1532_19177)"/>
<path fill-rule="evenodd" clip-rule="evenodd" d="M348.19 200.923L338.51 208.422L335.254 203.521C337.592 200.303 341.322 194.575 341.766 193.955C342.21 193.335 343.335 192.509 344.283 192.213C345.2 191.918 349.315 189.881 352.63 188.641L356.834 193.572L348.19 200.923Z" fill="url(#paint12_linear_1532_19177)"/>
<path fill-rule="evenodd" clip-rule="evenodd" d="M164.48 201.513L174.16 209.042L177.712 203.432C175.373 200.214 171.673 194.487 171.199 193.867C170.755 193.247 169.63 192.42 168.683 192.125C167.765 191.83 163.325 189.881 160.039 188.641L156.132 193.453L164.48 201.513Z" fill="url(#paint13_linear_1532_19177)"/>
<path d="M165.012 236.705C164.953 236.705 164.923 236.675 164.894 236.646C164.864 236.587 161.756 230.918 160.424 227.818C159.092 224.689 156.22 216.747 156.191 216.659C156.161 216.57 156.191 216.511 156.28 216.481C156.368 216.452 156.428 216.481 156.457 216.57C156.487 216.659 159.358 224.6 160.69 227.7C162.022 230.8 165.101 236.469 165.131 236.528C165.16 236.587 165.16 236.675 165.071 236.705C165.071 236.705 165.042 236.705 165.012 236.705Z" fill="#1A1A1A"/>
<path d="M164.568 236.705C164.509 236.705 164.479 236.675 164.449 236.646C164.42 236.587 161.312 230.918 159.98 227.818C158.647 224.689 155.776 216.747 155.746 216.659C155.717 216.57 155.746 216.511 155.835 216.481C155.924 216.452 155.983 216.481 156.013 216.57C156.042 216.659 158.914 224.6 160.246 227.7C161.578 230.8 164.657 236.469 164.686 236.528C164.716 236.587 164.716 236.675 164.627 236.705C164.597 236.705 164.597 236.705 164.568 236.705Z" fill="#1A1A1A"/>
<path fill-rule="evenodd" clip-rule="evenodd" d="M177.801 203.462C177.801 203.462 176.38 205.44 175.729 206.532C175.107 207.536 173.923 209.691 173.923 209.691C173.923 209.691 168.18 206.03 163.503 201.927C159.181 198.118 157.05 195.638 155.451 193.69C156.31 192.597 156.31 192.597 159.951 188.759C159.951 188.759 159.773 189.261 160.543 190.117C162.881 192.833 172.176 200.716 176.084 203.226C177.12 203.875 177.801 203.462 177.801 203.462Z" fill="url(#paint14_linear_1532_19177)"/>
<path fill-rule="evenodd" clip-rule="evenodd" d="M334.662 203.344C334.662 203.344 336.053 205.351 336.734 206.444C337.356 207.447 338.688 209.691 338.688 209.691C338.688 209.691 344.194 206.207 348.871 202.104C353.193 198.295 355.532 195.52 357.13 193.572C356.272 192.479 354.969 191.121 352.631 188.7C352.631 188.7 352.719 188.966 351.979 189.822C349.641 192.538 340.079 200.746 336.172 203.255C335.106 203.875 334.662 203.344 334.662 203.344Z" fill="url(#paint15_linear_1532_19177)"/>
<path d="M290.673 240.366C290.555 240.425 290.466 240.454 290.377 240.513C284.605 243.377 256.749 273.845 256.068 274.553C255.388 275.232 225.608 251.171 225.045 250.226C224.483 249.252 173.804 231.066 173.804 231.066L161.549 229.973C161.549 229.973 162.378 233.132 165.545 237.531C178.274 245.562 201.482 249.754 216.55 256.515C232.446 263.659 244.464 276.325 249.082 287.13C253.582 297.611 253.7 300.032 256.364 300.032C259.058 300.032 260.45 293.596 262.344 289.522C271.373 270.273 287.091 256.899 320.838 247.805C344.49 241.428 347.332 236.321 347.332 236.321L352.364 224.423C352.394 224.394 297.807 237.236 290.673 240.366Z" fill="url(#paint16_linear_1532_19177)"/>
<path fill-rule="evenodd" clip-rule="evenodd" d="M159.654 226.578C161.697 231.893 164.657 236.911 164.657 236.911C164.657 236.911 171.495 240.808 179.014 243.288C189.434 246.713 201.541 249.223 210.777 251.348C221.789 253.858 228.302 256.78 235.762 261.799C247.75 269.859 250.207 275.911 254.292 282.731C252.013 276.974 251.835 273.107 243.843 263.216C232.298 248.927 224.898 245.621 208.35 239.539C202.666 237.443 194.733 234.313 185.142 230.741C175.551 227.169 163.236 220.88 155.806 215.891C155.688 215.802 157.967 222.238 159.654 226.578Z" fill="url(#paint17_linear_1532_19177)"/>
<path fill-rule="evenodd" clip-rule="evenodd" d="M270.81 246.772C275.487 241.665 279.928 238.033 287.388 233.487C301.153 225.102 319.595 221.707 338.629 209.662C350.233 202.34 357.101 193.542 357.101 193.542C357.101 193.542 357.574 197.469 357.752 202.045C357.841 204.613 357.781 207.3 357.456 210.193C357.16 212.88 356.775 214.356 356.716 214.415C349.167 219.463 339.754 226.224 330.044 229.855C320.305 233.487 311.188 236.616 305.415 238.771C280.461 248.101 269.626 262.213 261.486 276.738C257.667 283.499 256.246 284.355 256.246 284.266C256.276 284.001 256.661 268.176 256.661 265.874C256.838 265.874 257.608 265.372 258.348 264.073C261.782 258.109 265.334 252.736 270.81 246.772Z" fill="url(#paint18_linear_1532_19177)"/>
<path fill-rule="evenodd" clip-rule="evenodd" d="M356.923 215.773C349.433 220.762 336.527 226.696 326.876 230.269C317.226 233.841 311.543 235.406 305.8 237.502C289.637 243.407 279.365 249.547 267.465 264.22C259.413 274.14 258.14 279.425 256.275 283.853C256.275 286.422 256.275 299.559 256.275 299.855C256.986 299.855 257.519 299.471 257.903 298.851C258.17 298.438 258.022 294.452 258.022 291.057C258.022 288.488 258.052 287.78 259.413 285.241C260.479 283.263 261.722 281.078 262.551 279.779C269.33 269.357 282 261.947 294.61 256.19C305.829 251.083 322.229 247.805 333.063 243.82C340.701 241.015 347.598 237.325 347.598 237.325C347.598 237.325 349.996 233.073 352.334 227.73C354.318 223.213 357.041 215.684 356.923 215.773Z" fill="url(#paint19_linear_1532_19177)"/>
<path fill-rule="evenodd" clip-rule="evenodd" d="M254.234 264.279C255.329 266.228 256.306 265.962 256.691 265.962C256.691 268.826 256.75 283.912 256.75 284.178C256.75 284.266 256.424 283.204 252.665 276.443C237.627 249.577 223.151 244.44 209.594 239.362C203.821 237.207 193.105 233.103 183.366 229.472C173.627 225.87 162.704 219.729 155.126 214.71C154.682 214.415 155.244 212.85 154.918 210.163C154.593 207.241 154.652 204.023 154.741 201.425C154.889 196.819 155.836 193.453 155.836 193.453C155.836 193.453 162.319 202.31 173.834 209.632C180.85 214.09 188.043 217.367 196.421 220.88C207.077 225.309 215.692 227.907 226.171 234.313C234.578 239.421 238.959 243.377 243.458 248.455C249.112 254.802 252.132 260.5 254.234 264.279Z" fill="url(#paint20_linear_1532_19177)"/>
<path fill-rule="evenodd" clip-rule="evenodd" d="M233.452 239.421C240.32 246.654 243.665 250.463 248.431 259.615C251.717 265.874 252.368 266.375 256.512 282.288L255.476 266.612C255.476 266.612 250.444 257.696 246.862 253.208C241.03 245.886 239.787 244.381 233.452 239.421Z" fill="black"/>
<path d="M256.246 266.759H256.779L256.246 281.373V266.759Z" fill="white"/>
<path d="M347.361 237.827C348.279 243.849 348.782 250.344 348.782 257.371C348.782 270.863 345.141 303.456 321.548 321.318C307.102 332.241 287.713 337.29 256.246 337.319C224.779 337.26 205.39 332.212 190.944 321.318C167.262 303.456 163.71 270.863 163.71 257.371C163.71 250.344 164.183 243.849 165.131 237.827C165.042 237.768 164.953 237.738 164.864 237.679C163.917 243.79 163.443 250.344 163.443 257.371C163.443 264.634 164.775 301.921 190.796 321.554C205.656 332.773 225.223 337.585 256.276 337.615C287.358 337.556 306.925 332.773 321.755 321.554C347.776 301.862 349.108 264.634 349.108 257.371C349.108 250.344 348.634 243.79 347.687 237.679C347.569 237.709 347.48 237.768 347.361 237.827Z" fill="black"/>
<path d="M181.5 199.535C196.213 181.999 219.983 173.26 256.246 173.23C292.479 173.26 316.249 181.999 330.991 199.535C333.537 202.576 335.846 205.883 337.888 209.455C337.977 209.396 338.066 209.337 338.155 209.307C336.142 205.765 333.833 202.458 331.228 199.388C316.131 181.408 292.301 173.023 256.275 172.994C220.19 172.994 196.39 181.379 181.293 199.358C178.688 202.458 176.379 205.765 174.366 209.278C174.455 209.337 174.544 209.396 174.633 209.425C176.646 205.883 178.955 202.606 181.5 199.535Z" fill="black"/>
<path d="M315.747 249.429C315.007 249.636 314.267 249.843 313.556 250.049C300.383 253.828 289.904 258.788 281.527 265.224C276.642 268.974 272.409 273.313 268.916 278.126C265.157 283.322 262.137 289.256 259.947 295.721C258.851 298.969 257.845 300.179 256.246 300.179C254.648 300.179 253.642 298.969 252.546 295.721C250.356 289.226 247.336 283.322 243.577 278.126C240.084 273.313 235.851 268.974 230.966 265.224C222.589 258.788 212.11 253.828 198.937 250.049C198.197 249.843 197.486 249.636 196.746 249.429C187.037 246.684 176.498 243.672 165.161 237.531C165.131 237.62 165.131 237.738 165.102 237.827C177.268 244.41 188.517 247.392 198.848 250.344C221.819 256.899 243.222 268.944 252.25 295.81C253.257 298.851 254.293 300.475 256.217 300.475C258.141 300.475 259.177 298.851 260.184 295.81C269.242 268.914 290.615 256.899 313.586 250.344C323.917 247.392 335.166 244.44 347.332 237.827C347.303 237.738 347.303 237.62 347.273 237.531C335.995 243.672 325.456 246.654 315.747 249.429Z" fill="black"/>
<path d="M347.361 237.827C347.45 237.768 347.539 237.738 347.627 237.679C347.598 237.59 347.598 237.472 347.568 237.384C347.479 237.443 347.391 237.472 347.302 237.531C347.331 237.62 347.361 237.709 347.361 237.827Z" fill="black"/>
<path d="M165.161 237.502C165.072 237.443 164.983 237.413 164.894 237.354C164.865 237.443 164.865 237.561 164.835 237.649C164.924 237.709 165.013 237.738 165.101 237.797C165.131 237.709 165.161 237.62 165.161 237.502Z" fill="black"/>
<path d="M174.604 209.455C174.515 209.396 174.426 209.337 174.337 209.307C174.278 209.396 174.249 209.484 174.189 209.544C174.278 209.603 174.367 209.662 174.456 209.691C174.515 209.632 174.574 209.543 174.604 209.455Z" fill="black"/>
<path d="M338.037 209.691C338.125 209.632 338.214 209.573 338.303 209.544C338.244 209.455 338.214 209.366 338.155 209.307C338.066 209.366 337.977 209.425 337.889 209.455C337.918 209.543 337.977 209.632 338.037 209.691Z" fill="black"/>
<path d="M179.962 213.263C189.286 218.371 199.173 222.268 208.735 226.017C209.919 226.49 211.073 226.933 212.257 227.405C230.611 234.638 244.435 246.654 253.345 263.098C254.47 265.195 255.358 266.11 256.246 266.11C257.134 266.11 258.022 265.195 259.147 263.098C268.087 246.654 281.911 234.638 300.235 227.405C301.389 226.962 302.544 226.49 303.698 226.047L303.728 226.017C313.29 222.268 323.177 218.371 332.501 213.263C334.544 212.142 336.498 210.99 338.392 209.809C338.481 209.75 338.57 209.691 338.629 209.662C338.57 209.573 338.54 209.484 338.481 209.396C336.409 205.765 334.041 202.369 331.376 199.181C316.22 181.142 292.331 172.699 256.187 172.669C220.043 172.699 196.154 181.142 180.998 199.181C178.333 202.34 175.965 205.765 173.893 209.396C173.834 209.484 173.804 209.573 173.745 209.662C173.834 209.721 173.923 209.78 173.982 209.809C175.965 210.99 177.919 212.142 179.962 213.263ZM181.294 199.358C196.391 181.379 220.191 172.994 256.246 172.964C292.302 172.994 316.102 181.379 331.199 199.358C333.863 202.517 336.202 205.912 338.274 209.544C336.379 210.724 334.425 211.876 332.383 212.998C323.058 218.105 313.201 222.002 303.639 225.752C302.455 226.224 301.301 226.667 300.117 227.139C281.704 234.402 267.85 246.477 258.881 262.951C257.815 264.899 256.986 265.815 256.246 265.815C255.506 265.815 254.677 264.899 253.612 262.951C244.642 246.447 230.788 234.402 212.376 227.139C211.221 226.667 210.037 226.224 208.853 225.752C199.292 222.002 189.405 218.105 180.11 212.998C178.067 211.876 176.113 210.724 174.219 209.544C176.261 205.912 178.629 202.517 181.294 199.358Z" fill="#666666"/>
<path d="M347.865 237.207C347.835 237.118 347.835 237 347.805 236.911C347.717 236.97 347.628 237 347.539 237.059C336.083 243.347 325.456 246.359 315.658 249.134C314.918 249.341 314.177 249.547 313.467 249.754C300.264 253.533 289.756 258.493 281.349 264.958C276.435 268.737 272.172 273.077 268.679 277.919C264.89 283.145 261.871 289.079 259.68 295.603C258.644 298.703 257.697 299.855 256.246 299.855C254.796 299.855 253.878 298.703 252.812 295.603C250.622 289.079 247.602 283.145 243.813 277.919C240.32 273.107 236.057 268.737 231.144 264.958C222.737 258.493 212.228 253.503 199.025 249.754C198.285 249.547 197.575 249.341 196.835 249.134C187.036 246.359 176.409 243.318 164.953 237.059C164.864 237 164.776 236.97 164.687 236.911C164.657 237 164.657 237.118 164.628 237.207C163.621 243.466 163.147 250.167 163.147 257.341C163.147 264.634 164.48 302.039 190.618 321.761C205.538 333.009 225.164 337.851 256.246 337.88H256.276C287.417 337.821 307.073 333.009 321.933 321.761C348.072 301.98 349.404 264.634 349.404 257.341C349.374 250.167 348.871 243.466 347.865 237.207ZM321.726 321.554C306.895 332.773 287.328 337.585 256.246 337.615C225.223 337.556 205.626 332.773 190.766 321.554C164.746 301.921 163.414 264.634 163.414 257.371C163.414 250.226 163.917 243.584 164.894 237.384C176.35 243.643 186.977 246.654 196.746 249.429C197.486 249.636 198.226 249.843 198.936 250.049C212.109 253.828 222.589 258.788 230.966 265.224C235.85 268.973 240.083 273.313 243.576 278.126C247.336 283.322 250.355 289.256 252.546 295.721C253.641 298.969 254.648 300.179 256.246 300.179C257.845 300.179 258.851 298.969 259.946 295.721C262.137 289.226 265.156 283.322 268.916 278.126C272.409 273.313 276.642 268.973 281.526 265.224C289.904 258.788 300.383 253.828 313.556 250.049C314.296 249.843 315.006 249.636 315.746 249.429C325.545 246.654 336.172 243.643 347.598 237.384C348.575 243.584 349.078 250.256 349.078 257.371C349.078 264.604 347.746 301.833 321.726 321.554Z" fill="#666666"/>
<path fill-rule="evenodd" clip-rule="evenodd" d="M155.392 194.014C155.599 193.04 155.865 193.188 155.688 193.985C155.125 196.553 154.888 201.484 154.977 206.473C155.036 210.045 155.776 213.883 155.776 213.883C155.303 213.854 154.651 214.001 154.474 214.592C153.911 208.805 153.586 202.015 155.392 194.014Z" fill="white"/>
<path fill-rule="evenodd" clip-rule="evenodd" d="M357.396 194.339C357.189 193.365 356.922 193.512 357.1 194.31C357.662 196.878 357.81 201.749 357.722 206.739C357.662 210.311 356.774 214.208 356.774 214.208C357.248 214.179 357.87 214.799 358.047 215.419C358.58 209.662 359.202 202.34 357.396 194.339Z" fill="#CCCCCC"/>
<path d="M378.295 255.216C378.295 271.217 374.329 312.018 342.033 333.068C322.703 345.674 297.748 353.823 256.246 353.882C214.744 353.823 189.789 345.674 170.459 333.068C138.163 312.018 134.196 271.217 134.196 255.216C134.196 226.342 143.314 204.849 157.671 189.468C177.09 168.684 208.438 159.177 256.246 159.118C304.053 159.177 335.402 168.684 354.821 189.497C369.237 204.908 378.295 226.254 378.295 255.216ZM256.246 353.587C276.138 353.557 292.864 351.697 307.398 347.889C320.186 344.553 331.465 339.622 341.885 332.802C375.394 310.955 377.999 267.881 377.999 255.216C377.999 241.31 375.868 228.586 371.694 217.367C367.816 206.975 362.044 197.646 354.614 189.675C344.875 179.253 332.264 171.754 316.101 166.794C299.968 161.834 280.401 159.413 256.246 159.413C232.09 159.443 212.523 161.864 196.39 166.794C180.228 171.754 167.617 179.253 157.878 189.675C150.448 197.616 144.705 206.946 140.827 217.397C136.624 228.645 134.492 241.369 134.492 255.245C134.492 267.911 137.097 310.985 170.607 332.832C181.027 339.622 192.335 344.553 205.093 347.918C219.628 351.697 236.383 353.557 256.246 353.587Z" fill="black"/>
<path d="M256.246 353.587C236.383 353.557 219.657 351.697 205.093 347.889C192.305 344.553 181.027 339.622 170.607 332.802C137.097 310.955 134.492 267.881 134.492 255.216C134.492 241.369 136.624 228.645 140.827 217.367C144.735 206.916 150.477 197.616 157.878 189.645C167.617 179.223 180.227 171.724 196.39 166.765C212.523 161.805 232.09 159.384 256.246 159.384C280.401 159.413 299.968 161.834 316.101 166.765C332.264 171.724 344.874 179.223 354.614 189.645C362.073 197.616 367.816 206.945 371.694 217.338C375.897 228.556 377.999 241.281 377.999 255.186C377.999 267.852 375.394 310.926 341.885 332.773C331.465 339.563 320.157 344.494 307.398 347.859C292.864 351.697 276.109 353.557 256.246 353.587ZM256.246 353.291C276.079 353.262 292.804 351.402 307.309 347.623C320.068 344.287 331.317 339.357 341.707 332.596C375.098 310.837 377.703 267.881 377.703 255.245C377.703 241.369 375.572 228.674 371.398 217.485C367.52 207.123 361.807 197.823 354.377 189.881C344.667 179.489 332.116 172.02 315.983 167.089C299.879 162.159 280.342 159.738 256.216 159.709C232.09 159.738 212.553 162.129 196.449 167.089C180.316 172.049 167.765 179.489 158.055 189.881C150.655 197.793 144.942 207.093 141.064 217.485C136.86 228.704 134.759 241.399 134.759 255.216C134.759 267.852 137.364 310.808 170.755 332.566C181.145 339.357 192.424 344.257 205.152 347.593C219.687 351.402 236.383 353.262 256.246 353.291Z" fill="url(#paint21_linear_1532_19177)"/>
<path d="M356.657 216.806C356.686 216.718 356.657 216.659 356.568 216.629C356.479 216.6 356.42 216.629 356.39 216.718C356.361 216.806 353.519 224.748 352.216 227.877C350.884 230.977 347.835 236.646 347.806 236.705C347.776 236.764 347.806 236.852 347.865 236.882C347.894 236.882 347.894 236.882 347.924 236.882C347.983 236.882 348.013 236.852 348.042 236.823C348.042 236.823 350.766 232.011 352.453 227.966C354.111 223.921 356.657 216.806 356.657 216.806Z" fill="#1A1A1A"/>
<path d="M155.866 216.806C155.836 216.718 155.866 216.659 155.954 216.629C156.043 216.6 156.102 216.629 156.132 216.718C156.162 216.806 159.003 224.748 160.306 227.877C161.638 230.977 164.687 236.646 164.717 236.705C164.746 236.764 164.717 236.852 164.657 236.882C164.628 236.882 164.628 236.882 164.598 236.882C164.539 236.882 164.509 236.852 164.48 236.823C164.48 236.823 161.756 232.011 160.069 227.966C158.411 223.921 155.866 216.806 155.866 216.806Z" fill="#1A1A1A"/>
<path fill-rule="evenodd" clip-rule="evenodd" d="M325.278 318.986C326.966 317.509 326.61 317.569 324.509 319.31C321.519 321.761 318.973 323.827 313.763 326.691C311.957 327.606 310.24 328.64 308.316 329.437C291.236 336.404 279.661 337.142 259.325 337.762C258.792 337.792 258.289 337.792 257.785 337.792C257.282 337.792 256.749 337.792 256.246 337.792C239.373 337.792 221.582 336.227 207.047 330.824C205.094 330.086 203.14 329.142 201.305 328.285C197.397 326.13 194.111 324.123 190.766 321.525C188.605 319.842 188.043 319.635 189.76 321.082C188.546 320.226 188.753 320.432 190.381 321.908C203.14 333.541 217.408 338.235 238.899 339.711C244.79 340.242 251.066 340.39 257.845 340.242C264.594 340.183 270.87 339.829 276.76 339.15C298.192 336.995 312.283 331.887 324.686 319.871C326.255 318.307 326.462 318.1 325.278 318.986Z" fill="url(#paint22_linear_1532_19177)"/>
<path d="M360.446 221.441C359.765 219.434 358.995 217.426 358.166 215.507C357.87 214.858 357.367 214.474 356.745 214.474C356.42 214.474 356.124 214.592 355.828 214.769C340.76 224.984 324.982 230.534 312.283 234.992C300.916 238.978 290.17 242.757 283.095 247.835C277.915 251.555 272.646 256.721 267.495 263.157C263.795 267.793 259.887 274.199 256.246 281.727C252.576 274.199 248.698 267.763 244.997 263.157C239.817 256.721 234.577 251.555 229.397 247.835C222.322 242.757 211.606 238.978 200.209 234.992C187.54 230.534 171.762 224.984 156.665 214.769C156.369 214.562 156.043 214.474 155.747 214.474C155.125 214.474 154.622 214.858 154.326 215.507C153.497 217.426 152.728 219.434 152.047 221.441C148.346 232.188 146.57 244.233 146.57 258.227C146.57 272.959 149.738 309.391 178.985 329.26C188.043 335.4 198.285 339.829 210.244 342.722C222.825 345.763 237.745 347.298 255.832 347.328H256.631C274.718 347.269 289.637 345.763 302.218 342.722C314.207 339.829 324.42 335.4 333.478 329.26C362.755 309.391 365.892 272.959 365.892 258.227C365.952 244.233 364.146 232.217 360.446 221.441ZM333.36 329.023C324.331 335.164 314.118 339.534 302.189 342.456C289.549 345.527 274.57 347.033 256.365 347.062H256.246H256.128C237.922 347.033 222.944 345.527 210.304 342.456C198.344 339.563 188.161 335.164 179.133 329.023C149.975 309.243 146.837 272.93 146.837 258.227C146.837 244.263 148.613 232.247 152.313 221.53C152.994 219.522 153.764 217.515 154.592 215.596C154.829 215.035 155.244 214.74 155.747 214.74C156.013 214.74 156.25 214.828 156.517 215.005C171.614 225.25 187.421 230.8 200.121 235.258C211.458 239.244 222.204 243.023 229.219 248.071C234.785 252.057 240.024 257.4 244.761 263.335C248.934 268.531 252.901 275.41 256.246 282.377C259.591 275.41 263.558 268.531 267.732 263.335C272.498 257.4 277.737 252.057 283.273 248.071C290.318 243.023 301.034 239.244 312.372 235.258C325.071 230.8 340.879 225.25 355.976 215.005C356.213 214.828 356.479 214.74 356.745 214.74C357.249 214.74 357.663 215.064 357.9 215.596C358.729 217.515 359.498 219.493 360.179 221.53C363.85 232.247 365.656 244.263 365.656 258.227C365.656 272.93 362.488 309.213 333.36 329.023Z" fill="url(#paint23_linear_1532_19177)"/>
<path d="M170.933 193.69C170.844 193.69 170.755 193.66 170.696 193.601C170.4 193.306 169.985 193.011 169.6 192.774C169.482 192.715 169.423 192.597 169.423 192.479C169.393 192.184 169.216 192.184 170.104 191.328C170.163 191.269 170.192 191.239 170.222 191.239C171.465 189.97 173.064 188.494 174.544 187.254C177.179 184.98 180.02 182.855 182.981 180.936C188.783 177.186 195.384 174.027 202.607 171.547C209.918 169.038 218.089 167.119 226.94 165.849C235.732 164.58 245.471 163.93 255.861 163.93H256.749C267.169 163.96 276.908 164.609 285.7 165.849C294.521 167.119 302.721 169.038 310.033 171.547C317.256 174.027 323.857 177.186 329.659 180.936C332.619 182.855 335.461 184.951 338.096 187.254C339.546 188.494 341.174 189.999 342.418 191.269C342.447 191.298 342.477 191.328 342.536 191.387C343.335 192.154 343.128 192.213 343.098 192.479C343.098 192.597 343.01 192.715 342.921 192.774C342.595 192.952 342.24 193.247 341.826 193.66C341.766 193.719 341.678 193.749 341.589 193.749C341.233 193.749 340.997 193.04 340.612 192.627C322.762 174.942 295.202 166.322 256.335 166.292C217.437 166.322 189.878 174.942 172.087 192.597C171.465 193.129 171.258 193.69 170.933 193.69Z" fill="#B3B3B3"/>
<path opacity="0.9" d="M356.745 216.334L356.597 216.009L356.301 216.216C351.12 219.729 345.318 222.888 336.29 227.11C328.86 230.594 320.719 233.457 312.874 236.232C301.626 240.188 290.999 243.938 284.16 248.898C273.652 256.485 263.853 269.003 257.282 283.233C256.808 284.266 256.601 284.532 256.246 284.532C255.89 284.532 255.683 284.266 255.21 283.233C248.638 269.003 238.84 256.485 228.331 248.898C221.493 243.938 210.866 240.188 199.617 236.232C191.743 233.457 183.602 230.594 176.202 227.11C167.173 222.888 161.4 219.729 156.191 216.216L155.894 216.009L155.746 216.334C150.685 228.261 148.228 241.93 148.228 258.139C148.228 272.634 151.306 308.446 179.931 327.872C197.781 340.006 221.315 345.438 256.186 345.527H256.275H256.364C291.235 345.468 314.769 340.006 332.619 327.872C361.244 308.416 364.323 272.605 364.323 258.139C364.293 241.93 361.836 228.261 356.745 216.334ZM332.264 327.4C314.503 339.475 291.058 344.877 256.246 344.936C221.434 344.877 197.989 339.475 180.227 327.4C151.839 308.092 148.79 272.516 148.79 258.139C148.79 242.167 151.188 228.674 156.131 216.895C161.282 220.349 167.054 223.478 175.906 227.641C183.365 231.125 191.506 234.018 199.38 236.793C210.57 240.749 221.167 244.499 227.946 249.37C238.366 256.899 248.105 269.328 254.647 283.499C255.15 284.503 255.476 285.182 256.246 285.182C257.015 285.182 257.341 284.473 257.815 283.469C264.357 269.328 274.096 256.869 284.516 249.341C291.295 244.44 301.892 240.72 313.082 236.764C320.956 233.989 329.126 231.095 336.556 227.612C345.437 223.449 351.209 220.319 356.33 216.865C361.274 228.645 363.672 242.137 363.672 258.109C363.701 272.516 360.652 308.092 332.264 327.4Z" fill="url(#paint24_linear_1532_19177)"/>
<path d="M356.745 216.334L356.597 216.009L356.301 216.216C351.12 219.729 345.318 222.888 336.29 227.11C328.86 230.594 320.719 233.457 312.874 236.232C301.626 240.188 290.999 243.938 284.16 248.898C273.652 256.485 263.853 269.003 257.282 283.233C256.808 284.266 256.601 284.532 256.246 284.532C255.89 284.532 255.683 284.266 255.21 283.233C248.638 269.003 238.84 256.485 228.331 248.898C221.493 243.938 210.866 240.188 199.617 236.232C191.743 233.457 183.602 230.594 176.202 227.11C167.173 222.888 161.4 219.729 156.191 216.216L155.894 216.009L155.746 216.334C150.685 228.261 148.228 241.93 148.228 258.139C148.228 272.634 151.306 308.446 179.931 327.872C197.781 340.006 221.315 345.438 256.186 345.527H256.275H256.364C291.235 345.468 314.769 340.006 332.619 327.872C361.244 308.416 364.323 272.605 364.323 258.139C364.293 241.93 361.836 228.261 356.745 216.334ZM332.264 327.4C314.503 339.475 291.058 344.877 256.246 344.936C221.434 344.877 197.989 339.475 180.227 327.4C151.839 308.092 148.79 272.516 148.79 258.139C148.79 242.167 151.188 228.674 156.131 216.895C161.282 220.349 167.054 223.478 175.906 227.641C183.365 231.125 191.506 234.018 199.38 236.793C210.57 240.749 221.167 244.499 227.946 249.37C238.366 256.899 248.105 269.328 254.647 283.499C255.15 284.503 255.476 285.182 256.246 285.182C257.015 285.182 257.341 284.473 257.815 283.469C264.357 269.328 274.096 256.869 284.516 249.341C291.295 244.44 301.892 240.72 313.082 236.764C320.956 233.989 329.126 231.095 336.556 227.612C345.437 223.449 351.209 220.319 356.33 216.865C361.274 228.645 363.672 242.137 363.672 258.109C363.701 272.516 360.652 308.092 332.264 327.4Z" fill="url(#paint25_linear_1532_19177)"/>
<path d="M360.179 220.998C359.499 218.991 358.729 216.983 357.9 215.064C357.663 214.503 357.249 214.208 356.746 214.208C356.479 214.208 356.242 214.297 355.976 214.474C340.879 224.777 325.071 230.357 312.372 234.815C301.034 238.83 290.289 242.609 283.273 247.687C277.708 251.703 272.468 257.076 267.732 263.01C263.558 268.235 259.591 275.144 256.246 282.141C252.901 275.144 248.935 268.235 244.761 263.01C239.995 257.046 234.755 251.703 229.22 247.687C222.174 242.609 211.458 238.83 200.121 234.815C187.421 230.328 171.614 224.748 156.517 214.474C156.28 214.297 156.014 214.208 155.747 214.208C155.244 214.208 154.829 214.533 154.593 215.064C153.764 216.983 152.994 218.991 152.313 220.998C148.643 231.774 146.837 243.82 146.837 257.843C146.837 272.605 149.975 309.066 179.133 328.935C188.161 335.105 198.374 339.504 210.304 342.427C222.944 345.497 237.923 347.033 256.128 347.062H256.246H256.365C274.57 347.033 289.549 345.497 302.189 342.427C314.148 339.504 324.331 335.105 333.36 328.935C362.518 309.066 365.656 272.605 365.656 257.843C365.656 243.82 363.85 231.774 360.179 220.998ZM332.561 327.843C314.711 339.977 291.147 345.438 256.246 345.468C221.316 345.409 197.782 339.977 179.932 327.843C151.336 308.387 148.228 272.605 148.228 258.109C148.228 241.783 150.744 228.025 155.895 216.039C161.135 219.611 167.026 222.829 176.173 227.11C183.603 230.594 191.743 233.457 199.588 236.232C210.837 240.189 221.434 243.938 228.302 248.898C238.811 256.485 248.609 269.003 255.181 283.233C255.625 284.178 255.832 284.473 256.128 284.532H256.246H256.365C256.661 284.473 256.898 284.178 257.312 283.233C263.884 269.003 273.682 256.485 284.191 248.898C291.029 243.967 301.656 240.218 312.905 236.232C320.779 233.457 328.92 230.594 336.32 227.11C345.467 222.829 351.328 219.611 356.598 216.039C361.748 228.025 364.264 241.783 364.264 258.109C364.264 272.605 361.156 308.416 332.561 327.843Z" fill="white"/>
<path d="M352.423 188.523C350.825 189.202 345.644 190.944 343.454 191.653L343.395 191.682C343.247 191.741 343.099 191.741 342.951 191.741C342.625 191.741 342.329 191.623 342.122 191.446C340.849 190.176 339.25 188.671 337.8 187.431C335.165 185.157 332.323 183.032 329.393 181.142C323.62 177.422 317.019 174.263 309.826 171.783C302.544 169.274 294.373 167.355 285.552 166.115C276.701 164.846 266.873 164.196 256.364 164.196H256.216H256.039C245.53 164.226 235.702 164.875 226.851 166.115C218.03 167.385 209.859 169.274 202.577 171.783C195.384 174.263 188.812 177.393 183.01 181.142C180.05 183.032 177.238 185.157 174.603 187.431C173.123 188.7 171.554 190.147 170.311 191.416C170.133 191.593 169.719 191.8 169.393 191.8C169.245 191.8 169.127 191.771 168.979 191.712L168.92 191.682C166.759 190.973 161.608 189.261 160.039 188.582L159.95 188.7C160.453 188.907 161.43 189.438 162.585 189.97C164.923 191.003 167.824 192.302 168.387 192.509C168.653 192.597 168.92 192.715 169.216 192.892C169.63 193.129 170.074 193.453 170.37 193.778C170.489 193.896 170.577 194.014 170.666 194.103C170.933 194.457 176.587 202.015 177.682 203.521L177.771 203.373C177.711 203.314 173.094 196.435 171.673 194.398C171.258 193.778 171.317 192.804 171.732 192.361C189.612 174.647 217.23 165.997 256.216 165.967C295.173 165.997 322.821 174.677 340.701 192.391C341.115 192.833 341.115 193.778 340.701 194.398C339.398 196.288 335.402 202.192 334.632 203.344L334.751 203.491L334.84 203.373C335.935 201.868 341.411 194.428 341.678 194.044C341.737 193.955 341.855 193.837 341.974 193.719C342.299 193.424 342.684 193.04 343.128 192.804C343.424 192.627 343.809 192.391 344.075 192.302C344.638 192.125 347.48 190.826 349.789 189.793C350.943 189.261 352.068 188.877 352.571 188.671L352.423 188.523Z" fill="white"/>
<path d="M338.422 209.809C338.511 209.75 338.6 209.691 338.659 209.662C338.6 209.573 338.57 209.484 338.511 209.396C336.439 205.765 334.071 202.369 331.407 199.181C316.25 181.142 292.361 172.699 256.217 172.669C220.073 172.699 196.184 181.142 181.028 199.181C178.364 202.34 175.996 205.765 173.923 209.396C173.864 209.484 173.835 209.573 173.775 209.662C173.864 209.721 173.953 209.78 174.012 209.809C175.907 210.99 177.86 212.142 179.903 213.263C189.228 218.371 199.115 222.268 208.676 226.017L208.706 226.047C209.86 226.49 211.015 226.962 212.169 227.405C230.523 234.638 244.347 246.654 253.257 263.098C254.382 265.195 255.27 266.11 256.158 266.11C257.046 266.11 257.934 265.195 259.059 263.098C267.999 246.654 281.823 234.638 300.147 227.405C301.301 226.933 302.485 226.49 303.669 226.017C313.231 222.268 323.118 218.371 332.443 213.263C334.574 212.142 336.528 210.99 338.422 209.809ZM338.274 209.544C336.38 210.724 334.426 211.876 332.384 212.998C323.059 218.105 313.201 222.002 303.64 225.752C302.456 226.224 301.301 226.667 300.117 227.139C281.705 234.402 267.851 246.477 258.881 262.951C257.816 264.899 256.987 265.815 256.247 265.815C255.507 265.815 254.678 264.899 253.612 262.951C244.643 246.447 230.789 234.402 212.377 227.139C211.222 226.667 210.038 226.224 208.854 225.752C199.292 222.002 189.405 218.105 180.11 212.998C178.068 211.876 176.114 210.724 174.219 209.544C176.262 205.912 178.63 202.517 181.294 199.358C196.391 181.379 220.221 172.994 256.247 172.964C292.273 172.994 316.102 181.379 331.199 199.358C333.864 202.517 336.232 205.912 338.274 209.544Z" fill="#4D4D4D"/>
<path d="M163.118 257.341C163.118 264.634 164.45 301.98 190.589 321.761C205.449 333.009 225.105 337.851 256.246 337.88H256.276C287.358 337.821 307.014 333.009 321.904 321.761C348.043 302.039 349.375 264.634 349.375 257.341C349.375 250.167 348.871 243.436 347.895 237.207C347.865 237.118 347.865 237 347.835 236.911C347.747 236.97 347.658 237 347.569 237.059C336.113 243.347 325.486 246.359 315.687 249.134C314.947 249.341 314.207 249.547 313.497 249.754C300.294 253.533 289.786 258.493 281.379 264.958C276.465 268.737 272.202 273.077 268.709 277.919C264.92 283.145 261.9 289.079 259.71 295.603C258.674 298.703 257.727 299.855 256.276 299.855C254.826 299.855 253.908 298.703 252.842 295.603C250.652 289.079 247.632 283.145 243.843 277.919C240.35 273.107 236.087 268.737 231.173 264.958C222.766 258.493 212.258 253.503 199.055 249.754C198.315 249.547 197.605 249.341 196.865 249.134C187.066 246.359 176.439 243.318 164.983 237.059C164.894 237 164.805 236.97 164.717 236.911C164.687 237 164.687 237.118 164.657 237.207C163.621 243.466 163.118 250.167 163.118 257.341ZM163.414 257.341C163.414 250.197 163.917 243.554 164.894 237.354C176.35 243.613 186.977 246.625 196.746 249.4C197.486 249.606 198.226 249.813 198.937 250.02C212.11 253.799 222.589 258.759 230.966 265.195C235.851 268.944 240.084 273.284 243.577 278.096C247.336 283.292 250.356 289.226 252.546 295.692C253.641 298.939 254.648 300.15 256.246 300.15C257.845 300.15 258.851 298.939 259.947 295.692C262.137 289.197 265.157 283.292 268.916 278.096C272.409 273.284 276.642 268.944 281.527 265.195C289.904 258.759 300.383 253.799 313.556 250.02C314.296 249.813 315.007 249.606 315.747 249.4C325.545 246.625 336.172 243.613 347.599 237.354C348.575 243.554 349.079 250.226 349.079 257.341C349.079 264.604 347.747 301.892 321.726 321.525C306.866 332.743 287.299 337.556 256.246 337.585C225.164 337.526 205.597 332.743 190.767 321.525C164.746 301.833 163.414 264.604 163.414 257.341Z" fill="#4D4D4D"/>
<path d="M256.246 353.587C236.353 353.557 219.628 351.697 205.093 347.889C192.305 344.553 181.027 339.622 170.607 332.802C137.097 310.955 134.492 267.881 134.492 255.216C134.492 241.31 136.624 228.586 140.797 217.367C144.675 206.975 150.448 197.646 157.878 189.674C167.617 179.253 180.227 171.754 196.39 166.794C212.523 161.834 232.09 159.413 256.246 159.413C280.401 159.443 299.968 161.864 316.101 166.794C332.264 171.754 344.874 179.253 354.614 189.674C362.044 197.616 367.786 206.946 371.664 217.397C375.868 228.645 377.999 241.369 377.999 255.245C377.999 267.911 375.394 310.985 341.885 332.832C331.465 339.622 320.157 344.553 307.398 347.918C292.864 351.697 276.109 353.557 256.246 353.587ZM256.246 353.291C276.109 353.262 292.804 351.402 307.309 347.623C320.068 344.287 331.317 339.357 341.707 332.596C375.098 310.837 377.703 267.881 377.703 255.245C377.703 241.428 375.572 228.734 371.398 217.515C367.52 207.093 361.777 197.823 354.406 189.911C344.697 179.519 332.146 172.049 316.012 167.119C299.909 162.188 280.371 159.768 256.246 159.738C232.12 159.768 212.583 162.159 196.479 167.119C180.346 172.079 167.795 179.519 158.085 189.911C150.655 197.852 144.942 207.152 141.064 217.515C136.89 228.704 134.759 241.399 134.759 255.275C134.759 267.911 137.364 310.867 170.755 332.625C181.145 339.416 192.424 344.316 205.152 347.653C219.687 351.402 236.383 353.262 256.246 353.291Z" fill="url(#paint26_linear_1532_19177)"/>
<defs>
<linearGradient id="paint0_linear_1532_19177" x1="232.662" y1="164.131" x2="281.263" y2="345.997" gradientUnits="userSpaceOnUse">
<stop offset="0.2121"/>
<stop offset="0.3594" stop-color="#0B0B0B"/>
<stop offset="0.5939" stop-color="#262626"/>
<stop offset="0.8496" stop-color="#B2B2B2"/>
<stop offset="1" stop-color="white"/>
</linearGradient>
<linearGradient id="paint1_linear_1532_19177" x1="232.657" y1="164.132" x2="281.43" y2="346.643" gradientUnits="userSpaceOnUse">
<stop/>
<stop offset="0.5636" stop-color="#1A1A1A"/>
<stop offset="0.6183" stop-color="#202020"/>
<stop offset="0.7091" stop-color="#262626"/>
<stop offset="0.8364" stop-color="white"/>
<stop offset="0.8909" stop-color="white"/>
<stop offset="1" stop-color="#808080"/>
</linearGradient>
<linearGradient id="paint2_linear_1532_19177" x1="231.375" y1="159.005" x2="184.156" y2="335.702" gradientUnits="userSpaceOnUse">
<stop stop-opacity="0"/>
<stop offset="0.6061" stop-color="#1A1A1A"/>
<stop offset="0.6637" stop-color="#1D1D1D"/>
<stop offset="0.7091" stop-color="#262626"/>
<stop offset="0.8667" stop-color="#EEEEEE"/>
<stop offset="1" stop-color="#DCDCDC" stop-opacity="0"/>
</linearGradient>
<linearGradient id="paint3_linear_1532_19177" x1="291.927" y1="353.345" x2="221.065" y2="158.132" gradientUnits="userSpaceOnUse">
<stop offset="0.0364"/>
<stop offset="0.1939"/>
<stop offset="0.2857" stop-color="#343434"/>
<stop offset="0.448" stop-color="#8A8A8A"/>
<stop offset="0.5807" stop-color="#C9C9C9"/>
<stop offset="0.6771" stop-color="#F0F0F0"/>
<stop offset="0.7273" stop-color="white"/>
<stop offset="1" stop-color="#4D4D4D"/>
</linearGradient>
<linearGradient id="paint4_linear_1532_19177" x1="170.104" y1="247.21" x2="196.478" y2="154.988" gradientUnits="userSpaceOnUse">
<stop stop-color="white" stop-opacity="0"/>
<stop offset="0.4606" stop-color="white"/>
<stop offset="0.5396" stop-color="#F0F0F0" stop-opacity="0.8536"/>
<stop offset="1" stop-color="#9A9A9A" stop-opacity="0"/>
</linearGradient>
<linearGradient id="paint5_linear_1532_19177" x1="183.768" y1="183.182" x2="329.645" y2="183.182" gradientUnits="userSpaceOnUse">
<stop/>
<stop offset="0.00346498" stop-color="#020202" stop-opacity="0.9965"/>
<stop offset="0.0735" stop-color="#272727" stop-opacity="0.9265"/>
<stop offset="0.1469" stop-color="#464646" stop-opacity="0.8531"/>
<stop offset="0.2233" stop-color="#5E5E5E" stop-opacity="0.7767"/>
<stop offset="0.3043" stop-color="#6F6F6F" stop-opacity="0.6957"/>
<stop offset="0.3928" stop-color="#797979" stop-opacity="0.6072"/>
<stop offset="0.503" stop-color="#7C7C7C" stop-opacity="0.497"/>
<stop offset="1"/>
</linearGradient>
<linearGradient id="paint6_linear_1532_19177" x1="349.784" y1="300.689" x2="356.71" y2="319.77" gradientUnits="userSpaceOnUse">
<stop offset="0.2364" stop-opacity="0"/>
<stop offset="0.4424"/>
<stop offset="0.6909" stop-opacity="0.7394"/>
<stop offset="1" stop-opacity="0"/>
</linearGradient>
<linearGradient id="paint7_linear_1532_19177" x1="206.763" y1="152.862" x2="147.842" y2="259.444" gradientUnits="userSpaceOnUse">
<stop stop-color="white" stop-opacity="0"/>
<stop offset="0.3697" stop-color="white"/>
<stop offset="1" stop-color="#808080" stop-opacity="0"/>
</linearGradient>
<linearGradient id="paint8_linear_1532_19177" x1="319.185" y1="184.965" x2="354.116" y2="184.965" gradientUnits="userSpaceOnUse">
<stop/>
<stop offset="0.0896" stop-opacity="0.9104"/>
<stop offset="1" stop-opacity="0"/>
</linearGradient>
<linearGradient id="paint9_linear_1532_19177" x1="173.619" y1="175.726" x2="173.619" y2="198.273" gradientUnits="userSpaceOnUse">
<stop/>
<stop offset="1" stop-opacity="0"/>
</linearGradient>
<linearGradient id="paint10_linear_1532_19177" x1="184.428" y1="309.116" x2="174.617" y2="336.144" gradientUnits="userSpaceOnUse">
<stop offset="0.0485" stop-opacity="0"/>
<stop offset="0.2606"/>
<stop offset="0.5333" stop-opacity="0.8517"/>
<stop offset="0.5997" stop-color="#040404" stop-opacity="0.8155"/>
<stop offset="0.6665" stop-color="#101010" stop-opacity="0.7791"/>
<stop offset="0.7333" stop-color="#242424" stop-opacity="0.7427"/>
<stop offset="0.7394" stop-color="#262626" stop-opacity="0.7394"/>
<stop offset="0.7412" stop-color="#252525" stop-opacity="0.7344"/>
<stop offset="0.7705" stop-color="#141414" stop-opacity="0.6512"/>
<stop offset="0.8068" stop-color="#090909" stop-opacity="0.5481"/>
<stop offset="0.858" stop-color="#020202" stop-opacity="0.403"/>
<stop offset="1" stop-opacity="0"/>
</linearGradient>
<linearGradient id="paint11_linear_1532_19177" x1="340.399" y1="240.54" x2="316.061" y2="155.435" gradientUnits="userSpaceOnUse">
<stop stop-color="white" stop-opacity="0"/>
<stop offset="0.09" stop-color="#E3E3E3" stop-opacity="0.1953"/>
<stop offset="0.2828" stop-color="#9C9C9C" stop-opacity="0.6139"/>
<stop offset="0.4606" stop-color="#565656"/>
<stop offset="0.4727" stop-color="#404040"/>
<stop offset="0.5792" stop-color="#444444" stop-opacity="0.7981"/>
<stop offset="0.6903" stop-color="#505050" stop-opacity="0.5875"/>
<stop offset="0.8034" stop-color="#656565" stop-opacity="0.373"/>
<stop offset="0.9174" stop-color="#828282" stop-opacity="0.1569"/>
<stop offset="0.9717" stop-color="#939393" stop-opacity="0.054"/>
<stop offset="1" stop-color="#9A9A9A" stop-opacity="0"/>
</linearGradient>
<linearGradient id="paint12_linear_1532_19177" x1="335.26" y1="198.552" x2="356.826" y2="198.552" gradientUnits="userSpaceOnUse">
<stop/>
<stop offset="0.3075" stop-color="#060606"/>
<stop offset="0.7008" stop-color="#151515"/>
<stop offset="1" stop-color="#262626"/>
</linearGradient>
<linearGradient id="paint13_linear_1532_19177" x1="177.714" y1="198.832" x2="156.153" y2="198.832" gradientUnits="userSpaceOnUse">
<stop/>
<stop offset="0.3075" stop-color="#060606"/>
<stop offset="0.7008" stop-color="#151515"/>
<stop offset="1" stop-color="#262626"/>
</linearGradient>
<linearGradient id="paint14_linear_1532_19177" x1="155.452" y1="199.226" x2="177.811" y2="199.226" gradientUnits="userSpaceOnUse">
<stop stop-color="#B2B2B2"/>
<stop offset="0.00266789" stop-color="#B1B1B1"/>
<stop offset="0.2557" stop-color="#676767"/>
<stop offset="0.4368" stop-color="#383838"/>
<stop offset="0.5273" stop-color="#262626"/>
</linearGradient>
<linearGradient id="paint15_linear_1532_19177" x1="357.123" y1="199.166" x2="334.671" y2="199.166" gradientUnits="userSpaceOnUse">
<stop stop-color="#B2B2B2"/>
<stop offset="0.00266789" stop-color="#B1B1B1"/>
<stop offset="0.2557" stop-color="#676767"/>
<stop offset="0.4368" stop-color="#383838"/>
<stop offset="0.5273" stop-color="#262626"/>
</linearGradient>
<linearGradient id="paint16_linear_1532_19177" x1="161.562" y1="262.186" x2="352.396" y2="262.186" gradientUnits="userSpaceOnUse">
<stop/>
<stop offset="0.0332" stop-color="#171717"/>
<stop offset="0.0963" stop-color="#3C3C3C"/>
<stop offset="0.1623" stop-color="#5B5B5B"/>
<stop offset="0.2312" stop-color="#737373"/>
<stop offset="0.3041" stop-color="#838383"/>
<stop offset="0.3838" stop-color="#8D8D8D"/>
<stop offset="0.483" stop-color="#919191"/>
<stop offset="0.497" stop-color="white" stop-opacity="0.7679"/>
<stop offset="0.498" stop-opacity="0.9"/>
<stop offset="0.5163" stop-color="#090909" stop-opacity="0.9342"/>
<stop offset="0.546" stop-color="#212121" stop-opacity="0.9897"/>
<stop offset="0.5515" stop-color="#262626"/>
<stop offset="0.5573" stop-color="#323232"/>
<stop offset="0.5654" stop-color="#393939"/>
<stop offset="0.5879" stop-color="#3B3B3B"/>
<stop offset="1"/>
</linearGradient>
<linearGradient id="paint17_linear_1532_19177" x1="163.855" y1="257.27" x2="246.223" y2="241.217" gradientUnits="userSpaceOnUse">
<stop/>
<stop offset="0.5569" stop-color="#181818"/>
<stop offset="1" stop-color="#262626"/>
</linearGradient>
<linearGradient id="paint18_linear_1532_19177" x1="256.256" y1="238.906" x2="357.799" y2="238.906" gradientUnits="userSpaceOnUse">
<stop/>
<stop offset="0.031" stop-color="#292929"/>
<stop offset="0.0661" stop-color="#4F4F4F"/>
<stop offset="0.1052" stop-color="#717171"/>
<stop offset="0.1478" stop-color="#8D8D8D"/>
<stop offset="0.1952" stop-color="#A4A4A4"/>
<stop offset="0.2495" stop-color="#B6B6B6"/>
<stop offset="0.3148" stop-color="#C3C3C3"/>
<stop offset="0.4024" stop-color="#CACACA"/>
<stop offset="0.6061" stop-color="#CCCCCC"/>
<stop offset="0.8242" stop-color="white"/>
</linearGradient>
<linearGradient id="paint19_linear_1532_19177" x1="299.113" y1="233.39" x2="314.023" y2="282.288" gradientUnits="userSpaceOnUse">
<stop/>
<stop offset="0.0304"/>
<stop offset="0.3394"/>
<stop offset="0.4177" stop-color="#090909"/>
<stop offset="0.5697" stop-color="#171717"/>
<stop offset="0.8061"/>
</linearGradient>
<linearGradient id="paint20_linear_1532_19177" x1="256.752" y1="238.837" x2="154.674" y2="238.837" gradientUnits="userSpaceOnUse">
<stop/>
<stop offset="0.0381" stop-color="#1F1F1F"/>
<stop offset="0.0845" stop-color="#3E3E3E"/>
<stop offset="0.1299" stop-color="#545454"/>
<stop offset="0.1731" stop-color="#616161"/>
<stop offset="0.2121" stop-color="#666666"/>
<stop offset="0.2408" stop-color="#737373"/>
<stop offset="0.3455" stop-color="#9E9E9E"/>
<stop offset="0.4522" stop-color="#C1C1C1"/>
<stop offset="0.5594" stop-color="#DCDCDC"/>
<stop offset="0.6676" stop-color="#F0F0F0"/>
<stop offset="0.7774" stop-color="#FBFBFB"/>
<stop offset="0.8909" stop-color="white"/>
<stop offset="1" stop-color="#ADADAD"/>
</linearGradient>
<linearGradient id="paint21_linear_1532_19177" x1="201.353" y1="160.85" x2="310.799" y2="350.923" gradientUnits="userSpaceOnUse">
<stop stop-color="#F2F2F2"/>
<stop offset="0.9717" stop-color="#262626"/>
</linearGradient>
<linearGradient id="paint22_linear_1532_19177" x1="188.757" y1="329.117" x2="326.348" y2="329.117" gradientUnits="userSpaceOnUse">
<stop/>
<stop offset="0.2378" stop-color="#262626"/>
<stop offset="0.503" stop-color="#565656"/>
<stop offset="1"/>
</linearGradient>
<linearGradient id="paint23_linear_1532_19177" x1="256.246" y1="347.342" x2="256.246" y2="214.466" gradientUnits="userSpaceOnUse">
<stop offset="0.1213" stop-color="#333333"/>
<stop offset="0.1777" stop-color="#3C3C3C"/>
<stop offset="0.2711" stop-color="#555555"/>
<stop offset="0.3899" stop-color="#7E7E7E"/>
<stop offset="0.5294" stop-color="#B7B7B7"/>
<stop offset="0.6698" stop-color="#F8F8F8"/>
<stop offset="0.7273" stop-color="white"/>
</linearGradient>
<linearGradient id="paint24_linear_1532_19177" x1="158.169" y1="304.54" x2="361.927" y2="230.179" gradientUnits="userSpaceOnUse">
<stop stop-color="#4D4D4D"/>
<stop offset="0.2075" stop-color="#999999"/>
<stop offset="0.3726" stop-color="#F2F2F2"/>
<stop offset="0.6339" stop-color="#F0F0F0"/>
<stop offset="0.728" stop-color="#EAEAEA"/>
<stop offset="0.795" stop-color="#DEDEDE"/>
<stop offset="0.8493" stop-color="#CDCDCD"/>
<stop offset="0.8957" stop-color="#B7B7B7"/>
<stop offset="0.9361" stop-color="#9C9C9C"/>
<stop offset="0.9725" stop-color="#7D7D7D"/>
<stop offset="0.9764" stop-color="#797979"/>
<stop offset="0.9981" stop-color="#505050"/>
<stop offset="1" stop-color="#4D4D4D"/>
</linearGradient>
<linearGradient id="paint25_linear_1532_19177" x1="256.246" y1="345.519" x2="256.246" y2="216.01" gradientUnits="userSpaceOnUse">
<stop offset="0.3632" stop-color="#F2F2F2" stop-opacity="0"/>
<stop offset="0.4287" stop-color="#E0E0E0" stop-opacity="0.1956"/>
<stop offset="0.5605" stop-color="#B1B1B1" stop-opacity="0.5892"/>
<stop offset="0.6981" stop-color="#797979"/>
<stop offset="0.7897" stop-color="#515151"/>
<stop offset="0.8753" stop-color="#323232"/>
<stop offset="0.9482" stop-color="#202020"/>
<stop offset="1" stop-color="#1A1A1A"/>
</linearGradient>
<linearGradient id="paint26_linear_1532_19177" x1="311.138" y1="160.851" x2="201.692" y2="350.923" gradientUnits="userSpaceOnUse">
<stop stop-color="#E6E6E6"/>
<stop offset="1" stop-color="#333333"/>
</linearGradient>
</defs>
</svg>
