<svg width="512" height="512" viewBox="0 0 512 512" fill="none" xmlns="http://www.w3.org/2000/svg">
<path fill-rule="evenodd" clip-rule="evenodd" d="M126.18 209.899C142.747 218.611 154.064 235.982 154.064 256.005C154.064 276.027 142.747 293.452 126.18 302.112V296.158C132.516 292.368 137.875 287.065 141.775 280.788L126.18 274.458V264.825L143.289 278.192C146.863 271.589 148.866 264.067 148.866 256.003C148.866 239.011 139.769 224.076 126.18 215.85V209.899ZM102.087 204C110.75 204 118.924 206.111 126.18 209.899V215.852C119.52 211.846 111.724 209.466 103.494 209.195L109.449 251.784L126.18 264.825V274.458L101.977 264.664L77.937 274.513V264.933L94.7762 251.783L100.678 209.194C92.3389 209.465 84.5971 211.846 77.937 215.85V209.899C85.1393 206.111 93.3686 204 102.087 204ZM126.18 302.112C118.924 305.899 110.749 308.062 102.087 308.062C93.37 308.062 85.1407 305.899 77.9384 302.165V296.158C84.9778 300.432 93.2604 302.867 102.087 302.867C110.858 302.867 119.089 300.432 126.18 296.158V302.112ZM77.9384 302.165C61.3156 293.452 50 276.027 50 256.005C50 235.982 61.3142 218.611 77.937 209.899L77.9384 215.852C64.2937 224.077 55.1977 238.959 55.1977 256.005C55.1977 264.067 57.2557 271.699 60.8295 278.3L77.937 264.933V274.513L62.3987 280.896C66.2969 287.122 71.6028 292.369 77.9384 296.158V302.165Z" fill="#231F20"/>
<path d="M313.762 239.179C311.378 239.812 309.229 240.193 306.561 240.48V241.291C309.564 241.291 309.947 241.627 309.947 244.108V252.452C308.181 249.591 306.796 248.734 304.223 248.734C299.117 248.734 295.544 253.549 295.544 260.417C295.544 267.286 299.167 272.104 304.367 272.104C307.085 272.104 308.944 270.867 310.278 268.196C310.471 270.006 310.472 270.198 310.949 272.011C312.904 271.39 313.713 271.197 316.529 270.865L317.242 270.768V269.957C314.048 269.862 313.762 269.623 313.762 266.715V239.179ZM185.068 239.526C183.255 239.718 182.3 239.767 180.536 239.767C179.199 239.767 178.486 239.721 176.628 239.576V240.765C179.917 240.957 180.583 241.434 180.583 243.629V243.917L179.582 267.334C179.487 269.911 179.012 270.291 175.673 270.53V271.676C178.154 271.484 179.105 271.438 180.439 271.438C181.776 271.438 182.728 271.484 185.162 271.676V270.53C181.822 270.291 181.203 269.861 181.203 267.763V267.334L182.157 242.581L189.979 263.71L190.552 265.378L191.222 267.237L191.888 269.1L192.414 270.627H193.131L193.654 269.053L194.273 267.237L194.94 265.476L195.512 263.897L203.384 242.628L203.813 267.334V267.572C203.813 269.814 203.098 270.338 199.854 270.53V271.676C202.859 271.389 204.003 271.294 205.816 271.294C207.627 271.294 208.773 271.389 211.778 271.676V270.53C208.344 270.291 207.913 269.911 207.866 267.334L207.344 243.917V243.582C207.344 241.435 208.058 240.957 211.303 240.765V239.576C209.49 239.721 208.727 239.767 207.535 239.767C206.103 239.767 205.103 239.718 202.956 239.526L193.942 263.663L185.068 239.526ZM370.608 239.716V240.913C374.042 241.102 374.52 241.481 374.52 244.058V267.19C374.52 269.767 374.139 270.099 370.608 270.386V271.531H382.677C386.206 271.531 388.113 271.103 390.116 269.864C392.503 268.337 394.075 265.426 394.075 262.42C394.075 259.846 392.978 257.511 391.117 256.08C390.115 255.317 389.065 254.886 387.349 254.552C390.783 253.265 392.598 250.832 392.598 247.495C392.598 245.013 391.547 242.817 389.734 241.435C388.113 240.243 386.252 239.716 383.152 239.716L370.608 239.716ZM378.526 241.197H382.579C386.587 241.197 388.351 243.151 388.351 247.588C388.351 249.781 387.83 251.356 386.78 252.596C385.73 253.788 384.442 254.17 381.769 254.17H378.526V241.197ZM268.826 248.017L267.536 250.449C266.01 248.97 264.723 248.446 262.673 248.446C257.044 248.446 253.227 253.312 253.227 260.417C253.227 267.381 256.997 272.058 262.529 272.058C266.824 272.058 269.541 269.288 270.159 264.186H268.203C267.632 268.383 265.865 270.483 262.907 270.483C259.236 270.483 257.377 267.096 257.377 260.417C257.377 253.596 259.478 249.736 263.055 249.736C265.965 249.736 267.727 251.737 268.585 255.885H269.637V248.017L268.826 248.017ZM354.291 248.161L353.48 250.114C351.859 249.019 350.478 248.59 348.617 248.59C344.419 248.59 341.462 251.166 341.462 254.934C341.462 257.7 342.562 259.035 346.041 260.659L348.235 261.656L350.047 262.467C352.384 263.517 353.293 264.614 353.293 266.235C353.293 268.67 351.193 270.53 348.379 270.53C345.04 270.53 343.036 268.432 342.175 264.092L341.131 264.139V272.104H341.988L343.13 269.957C344.943 271.389 346.66 271.96 348.855 271.96C353.339 271.96 356.536 269.102 356.536 265.094C356.536 262.28 355.245 260.752 351.622 259.178L349.618 258.321C345.276 256.413 344.564 255.794 344.564 253.886C344.564 251.644 346.519 249.927 349.046 249.927C352.051 249.927 353.624 251.74 354.053 255.554H355.152V248.161H354.291ZM424.799 248.161C422.896 248.83 421.27 249.21 418.502 249.591V250.402C418.741 250.402 418.983 250.449 419.125 250.449C421.512 250.449 421.794 250.738 421.841 252.693V253.407V268.145C421.841 270.195 421.369 270.579 418.459 270.721V271.676C420.94 271.436 421.938 271.391 423.607 271.391C425.325 271.391 426.281 271.436 428.762 271.676V270.721C426.281 270.626 425.66 270.148 425.66 268.242V256.696C425.66 252.785 427.376 250.737 430.621 250.737C433.671 250.737 434.912 252.405 434.912 256.555V268.242C434.912 270.148 434.293 270.626 431.716 270.721V271.676C434.195 271.436 435.149 271.391 436.915 271.391C438.631 271.391 439.588 271.436 442.117 271.676V270.721C439.207 270.579 438.727 270.195 438.727 268.145V256.696C438.727 254.885 438.489 253.55 438.01 252.405C437.057 250.068 434.577 248.59 431.716 248.59C428.953 248.59 426.993 249.735 425.275 252.312C425.177 250.498 425.038 249.259 424.799 248.161ZM241.232 248.255C239.274 248.826 237.653 249.114 234.934 249.354V250.211H235.554C238.033 250.258 238.273 250.499 238.321 252.549V253.313V268.145C238.321 270.195 237.798 270.579 234.887 270.721V271.676C237.511 271.436 238.512 271.387 240.23 271.387C241.899 271.387 242.901 271.436 245.522 271.676V270.721C242.614 270.579 242.136 270.195 242.136 268.145V258.176C242.136 253.453 243.71 250.453 246.189 250.453C247.047 250.453 247.623 250.926 247.623 251.594V252.023L247.525 252.502C247.478 252.695 247.432 252.883 247.432 252.978C247.432 253.933 248.291 254.599 249.388 254.599C250.58 254.599 251.391 253.692 251.391 252.308C251.391 250.021 249.625 248.446 247.241 248.446C244.762 248.446 242.708 250.022 241.66 252.74V252.214C241.563 250.783 241.469 250.021 241.232 248.255ZM223.364 248.446C217.64 248.446 214.066 253.072 214.066 260.417C214.066 267.762 217.64 272.058 223.793 272.058C228.467 272.058 231.519 269.146 232.14 264.232H230.234C229.661 268.288 227.562 270.483 224.175 270.483C219.835 270.483 217.928 267.146 217.881 259.704H232.093C231.999 252.359 228.993 248.446 223.364 248.446ZM282.859 248.446C277.135 248.446 273.557 253.072 273.557 260.417C273.557 267.762 277.135 272.058 283.288 272.058C287.962 272.058 291.017 269.146 291.635 264.232H289.726C289.155 268.288 287.057 270.483 283.67 270.483C279.33 270.483 277.42 267.146 277.372 259.704H291.589C291.491 252.359 288.488 248.446 282.859 248.446ZM328.353 248.446C322.629 248.446 319.051 253.072 319.051 260.417C319.051 267.762 322.629 272.058 328.781 272.058C333.455 272.058 336.508 269.146 337.129 264.232H335.219C334.646 268.288 332.55 270.483 329.163 270.483C324.824 270.483 322.913 267.146 322.866 259.704H337.082C336.985 252.359 333.979 248.446 328.353 248.446ZM407.251 248.446C401.527 248.446 397.949 253.072 397.949 260.417C397.949 267.762 401.527 272.058 407.68 272.058C412.354 272.058 415.406 269.146 416.027 264.232H414.117C413.546 268.288 411.45 270.483 408.065 270.483C403.723 270.483 401.815 267.146 401.768 259.704H415.98C415.883 252.359 412.88 248.446 407.251 248.446ZM445.593 249.019L444.491 255.219H445.449C447.165 250.926 447.927 250.258 451.03 250.258H456.891L443.968 271.531H460.375L461.618 264.665H460.616C459.182 269.005 457.85 270.292 454.603 270.292H449.027L462 249.019L445.593 249.019ZM223.317 249.685C226.417 249.685 227.991 252.356 228.278 257.986H217.975C218.451 252.501 220.265 249.685 223.317 249.685ZM282.809 249.685C285.909 249.685 287.483 252.356 287.77 257.986H277.466C277.942 252.501 279.756 249.685 282.809 249.685ZM328.306 249.685C331.406 249.685 332.98 252.356 333.267 257.986H322.963C323.44 252.501 325.253 249.685 328.306 249.685ZM407.204 249.685C410.304 249.685 411.878 252.356 412.165 257.986H401.861C402.338 252.501 404.151 249.685 407.204 249.685ZM304.651 250.067C308.18 250.067 309.994 253.695 309.994 260.706C309.994 267.335 308.23 270.768 304.795 270.768C301.361 270.768 299.55 267.192 299.55 260.37C299.55 253.454 301.217 250.067 304.651 250.067ZM378.526 255.651H383.059C385.587 255.651 387.016 256.078 388.113 257.175C389.21 258.272 389.828 260.322 389.828 262.611C389.828 267.38 387.444 270.054 383.199 270.054H381.484C378.955 270.054 378.526 269.67 378.526 267.572V255.651ZM359.396 257.541V260.008H370.054V257.541H359.396Z" fill="#231F20"/>
</svg>
