<svg width="512" height="512" viewBox="0 0 512 512" fill="none" xmlns="http://www.w3.org/2000/svg">
<path d="M376.157 219.154C432.391 182.965 507.992 181.805 419.791 240.263L421.191 238.408C446.158 204.307 395.291 211.962 377.324 218.69L376.157 219.154ZM170.356 244.903H194.156V254.182H166.622C154.955 254.182 149.822 250.702 149.822 241.423V239.335C149.822 231.448 154.489 226.345 166.156 226.345H194.156V235.624H170.356C169.242 235.624 168.173 236.064 167.386 236.847C166.598 237.63 166.156 238.692 166.156 239.799V240.959C166.215 242.026 166.684 243.029 167.465 243.763C168.247 244.497 169.281 244.904 170.356 244.903ZM215.156 221.705V244.903H229.156V254.182H196.489V221.705H215.156ZM126.722 225.881C129.965 223.273 133.985 221.805 138.155 221.705H147.489V254.182H128.822V237.944L110.855 254.182H93.8216V237.944L73.0548 254.182H51.8213L88.9216 226.345C92.4216 223.793 94.755 221.705 100.822 221.705H112.488V237.944L126.722 225.881ZM285.156 229.36C285.154 228.619 285.306 227.885 285.605 227.206C285.903 226.526 286.341 225.916 286.89 225.414C287.438 224.912 288.087 224.529 288.793 224.29C289.499 224.051 290.247 223.961 290.99 224.025H313.157V233.304H301.49V254.182H285.156V229.36ZM394.591 224.025C408.591 224.025 413.491 227.041 413.491 237.248V254.182H397.157V242.583C397.157 240.737 396.42 238.967 395.107 237.662C393.794 236.357 392.014 235.624 390.157 235.624H383.157V254.182H366.824V224.025H394.591ZM267.19 224.025C277.923 224.025 282.823 228.433 282.823 235.856V242.815C282.823 251.398 277.923 254.182 266.023 254.182H247.59C240.823 254.182 235.923 253.486 233.356 251.166C232.129 249.657 231.469 247.771 231.489 245.831V244.671C231.489 240.031 234.289 235.624 243.156 235.624H264.156C264.156 233.536 264.39 233.304 261.823 233.304H233.823V224.025H267.19ZM264.156 243.743V242.583H251.323C251.013 242.583 250.717 242.705 250.498 242.923C250.279 243.14 250.156 243.435 250.156 243.743C250.156 244.051 250.279 244.346 250.498 244.563C250.717 244.781 251.013 244.903 251.323 244.903H262.99C263.299 244.903 263.596 244.781 263.815 244.563C264.033 244.346 264.156 244.051 264.156 243.743ZM349.557 224.025C361.924 224.025 364.49 227.737 364.49 232.84V234C364.49 239.567 360.057 242.583 352.824 242.583H331.824C331.824 244.671 333.924 244.903 336.49 244.903H362.157V254.182H330.19C320.157 254.182 315.49 250.006 315.49 242.351V237.016C315.49 228.201 320.39 224.025 331.59 224.025H349.557ZM346.99 235.624C347.3 235.624 347.596 235.502 347.815 235.284C348.034 235.067 348.157 234.772 348.157 234.464C348.157 234.156 348.034 233.861 347.815 233.644C347.596 233.426 347.3 233.304 346.99 233.304H332.99C332.681 233.304 332.384 233.426 332.165 233.644C331.946 233.861 331.824 234.156 331.824 234.464V235.624H346.99Z" fill="black"/>
<path d="M376.157 219.154C432.391 182.965 507.992 181.805 419.791 240.263L421.191 238.408C446.158 204.307 395.291 211.962 377.324 218.69L376.157 219.154ZM170.356 244.903H194.156V254.182H166.622C154.955 254.182 149.822 250.702 149.822 241.423V239.335C149.822 231.448 154.489 226.345 166.156 226.345H194.156V235.624H170.356C169.242 235.624 168.173 236.064 167.386 236.847C166.598 237.63 166.156 238.692 166.156 239.799V240.959C166.215 242.026 166.684 243.029 167.465 243.763C168.247 244.497 169.281 244.904 170.356 244.903ZM215.156 221.705V244.903H229.156V254.182H196.489V221.705H215.156ZM126.722 225.881C129.965 223.273 133.985 221.805 138.155 221.705H147.489V254.182H128.822V237.944L110.855 254.182H93.8216V237.944L73.0548 254.182H51.8213L88.9216 226.345C92.4216 223.793 94.755 221.705 100.822 221.705H112.488V237.944L126.722 225.881ZM285.156 229.36C285.154 228.619 285.306 227.885 285.605 227.206C285.903 226.526 286.341 225.916 286.89 225.414C287.438 224.912 288.087 224.529 288.793 224.29C289.499 224.051 290.247 223.961 290.99 224.025H313.157V233.304H301.49V254.182H285.156V229.36ZM394.591 224.025C408.591 224.025 413.491 227.041 413.491 237.248V254.182H397.157V242.583C397.157 240.737 396.42 238.967 395.107 237.662C393.794 236.357 392.014 235.624 390.157 235.624H383.157V254.182H366.824V224.025H394.591ZM267.19 224.025C277.923 224.025 282.823 228.433 282.823 235.856V242.815C282.823 251.398 277.923 254.182 266.023 254.182H247.59C240.823 254.182 235.923 253.486 233.356 251.166C232.129 249.657 231.469 247.771 231.489 245.831V244.671C231.489 240.031 234.289 235.624 243.156 235.624H264.156C264.156 233.536 264.39 233.304 261.823 233.304H233.823V224.025H267.19ZM264.156 243.743V242.583H251.323C251.013 242.583 250.717 242.705 250.498 242.923C250.279 243.14 250.156 243.435 250.156 243.743C250.156 244.051 250.279 244.346 250.498 244.563C250.717 244.781 251.013 244.903 251.323 244.903H262.99C263.299 244.903 263.596 244.781 263.815 244.563C264.033 244.346 264.156 244.051 264.156 243.743ZM349.557 224.025C361.924 224.025 364.49 227.737 364.49 232.84V234C364.49 239.567 360.057 242.583 352.824 242.583H331.824C331.824 244.671 333.924 244.903 336.49 244.903H362.157V254.182H330.19C320.157 254.182 315.49 250.006 315.49 242.351V237.016C315.49 228.201 320.39 224.025 331.59 224.025H349.557ZM346.99 235.624C347.3 235.624 347.596 235.502 347.815 235.284C348.034 235.067 348.157 234.772 348.157 234.464C348.157 234.156 348.034 233.861 347.815 233.644C347.596 233.426 347.3 233.304 346.99 233.304H332.99C332.681 233.304 332.384 233.426 332.165 233.644C331.946 233.861 331.824 234.156 331.824 234.464V235.624H346.99Z" fill="black"/>
</svg>
