<svg width="512" height="512" viewBox="0 0 512 512" fill="none" xmlns="http://www.w3.org/2000/svg">
<path d="M374.258 251.153C430.164 214.965 505.324 213.805 417.637 272.263L419.029 270.407C443.85 236.307 393.28 243.962 375.418 250.689L374.258 251.153ZM169.655 276.903H193.316V286.182H165.943C154.344 286.182 149.241 282.702 149.241 273.423V271.335C149.241 263.448 153.88 258.345 165.479 258.345H193.316V267.624H169.655C168.547 267.624 167.485 268.064 166.702 268.847C165.919 269.63 165.479 270.692 165.479 271.799V272.959C165.539 274.026 166.005 275.029 166.781 275.763C167.558 276.496 168.586 276.904 169.655 276.903ZM214.194 253.705V276.903H228.113V286.182H195.636V253.705H214.194ZM126.275 257.881C129.5 255.273 133.496 253.805 137.642 253.705H146.921V286.182H128.363V269.943L110.501 286.182H93.5667V269.943L72.9208 286.182H51.811L88.6952 258.345C92.1749 255.793 94.4946 253.705 100.526 253.705H112.125V269.943L126.275 257.881ZM283.787 261.36C283.784 260.619 283.936 259.885 284.233 259.205C284.529 258.526 284.964 257.916 285.51 257.414C286.056 256.912 286.7 256.529 287.402 256.29C288.104 256.051 288.848 255.96 289.586 256.025H311.624V265.304H300.025V286.182H283.787V261.36ZM392.584 256.025C406.502 256.025 411.374 259.041 411.374 269.248V286.182H395.135V274.583C395.135 272.737 394.402 270.967 393.097 269.662C391.792 268.357 390.022 267.624 388.176 267.624H381.217V286.182H364.979V256.025H392.584ZM265.925 256.025C276.596 256.025 281.467 260.432 281.467 267.856V274.815C281.467 283.398 276.596 286.182 264.765 286.182H246.439C239.712 286.182 234.84 285.486 232.288 283.166C231.069 281.657 230.413 279.771 230.433 277.831V276.671C230.433 272.031 233.216 267.624 242.031 267.624H262.909C262.909 265.536 263.141 265.304 260.589 265.304H232.752V256.025H265.925ZM262.909 275.743V274.583H250.15C249.843 274.583 249.548 274.705 249.33 274.923C249.113 275.14 248.991 275.435 248.991 275.743C248.991 276.051 249.113 276.346 249.33 276.563C249.548 276.781 249.843 276.903 250.15 276.903H261.749C262.057 276.903 262.352 276.781 262.569 276.563C262.787 276.346 262.909 276.051 262.909 275.743ZM347.812 256.025C360.107 256.025 362.659 259.737 362.659 264.84V266C362.659 271.567 358.251 274.583 351.06 274.583H330.182C330.182 276.671 332.27 276.903 334.822 276.903H360.339V286.182H328.558C318.583 286.182 313.944 282.006 313.944 274.351V269.016C313.944 260.201 318.815 256.025 329.95 256.025H347.812ZM345.261 267.624C345.568 267.624 345.863 267.502 346.081 267.284C346.298 267.066 346.421 266.771 346.421 266.464C346.421 266.156 346.298 265.861 346.081 265.644C345.863 265.426 345.568 265.304 345.261 265.304H331.342C331.034 265.304 330.739 265.426 330.522 265.644C330.304 265.861 330.182 266.156 330.182 266.464V267.624H345.261Z" fill="#FF3300"/>
</svg>
