<svg width="512" height="512" viewBox="0 0 512 512" fill="none" xmlns="http://www.w3.org/2000/svg">
<path d="M95.1816 203.221L74.3939 236.612L116.133 309.451L160 309.288L137.739 273.277H53.6061L32 309.779H72.9207L116.788 235.958L95.1816 203.221Z" fill="#EE1D23"/>
<path d="M208.276 248.125V219.191L198.376 240.195L188.848 219.191V248.125H181V203.771H189.645L198.376 223.972L207.473 203.771H216.177V248.125" fill="black"/>
<path d="M223.312 248.126H231.23V203.771H223.312V248.126Z" fill="black"/>
<path d="M252.179 210.499V248.125H244.278V210.499H234.792V203.771H261.707V210.499" fill="black"/>
<path d="M276.355 249.333C266.056 249.333 262.51 242.573 262.101 234.233H269.635C269.635 238.243 271.623 242.158 276.355 242.158C280.306 242.158 282.688 240.195 282.688 237.052C282.688 234.233 280.726 233.057 272.4 228.334C266.455 224.744 262.51 221.196 262.51 214.856C262.51 208.111 266.875 203.388 275.978 203.388C285.852 203.388 289.425 209.702 289.818 217.217H281.928C281.928 213.659 279.96 210.074 275.978 210.074C272.4 210.074 270.432 211.702 270.432 214.452C270.432 217.611 272.798 219.191 279.115 222.387C286.25 226.377 290.6 229.499 290.6 236.674C290.6 244.961 283.9 249.333 276.355 249.333Z" fill="black"/>
<path d="M309.342 248.892C302.243 248.892 293.917 246.126 293.917 234.233V203.777H301.839V234.233C301.839 238.993 304.216 241.791 309.342 241.791C313.723 241.791 316.137 238.993 316.137 234.233V203.777H324.017V234.233C324.017 245.743 316.137 248.892 309.342 248.892Z" fill="black"/>
<path d="M343.014 228.717H339.861V221.6H343.014C346.981 221.6 349.331 220.02 349.331 216.068C349.331 212.111 346.571 210.499 343.014 210.499H337.086V241.408H343.402C347.746 241.408 350.527 239.424 350.527 234.669C350.527 230.296 347.746 228.717 343.014 228.717ZM345.38 248.125H329.185V203.776H343.828C352.111 203.776 357.242 207.723 357.242 214.856C357.242 220.776 352.936 224.366 350.926 224.744C353.712 225.563 358.832 228.717 358.832 235.844C358.832 242.95 353.313 248.125 345.38 248.125Z" fill="black"/>
<path d="M433.233 248.125V228.717H417.086V248.125H408.743V203.771H417.086V221.196H432.861V203.771H441.177V248.125" fill="black"/>
<path d="M363.197 248.126H371.12V203.771H363.197V248.126Z" fill="black"/>
<path d="M448.7 248.126H456.617V203.771H448.7V248.126Z" fill="black"/>
<path d="M390.517 248.493C380.207 248.493 376.66 242.158 376.262 233.451H383.769C383.769 237.419 385.747 241.786 390.517 241.786C394.494 241.786 396.881 239.802 396.881 236.669C396.881 233.839 394.908 232.233 386.587 227.504C380.638 224.361 376.66 220.77 376.66 214.452C376.66 207.718 381.01 203 390.134 203C400.029 203 403.591 209.303 403.995 216.792H396.482C396.052 212.872 394.068 209.696 390.134 209.696C386.975 209.696 384.583 211.26 384.583 214.042C384.583 216.792 386.975 218.42 393.313 222.004C400.422 225.909 404.782 228.712 404.782 236.286C404.782 244.142 398.045 248.493 390.517 248.493Z" fill="black"/>
<path d="M276.703 270.994C270.765 270.994 267.141 277.715 267.141 286.923C267.141 296.071 270.765 302.423 276.703 302.423C282.69 302.423 286.297 296.071 286.297 286.923C286.297 277.715 282.69 270.994 276.703 270.994ZM276.703 309.983C264.399 309.983 258.809 299.29 258.809 286.923C258.809 274.55 264.399 263.851 276.703 263.851C289.061 263.851 294.619 274.55 294.619 286.923C294.619 299.29 289.061 309.983 276.703 309.983Z" fill="black"/>
<path d="M379.496 308.807L366.374 284.949H368.736C371.532 284.949 376.321 284.142 376.321 277.72C376.321 272.165 371.532 270.994 368.346 270.994H363.573V308.807H355.599V264.225H370.356C379.084 264.225 385.044 268.593 385.044 276.95C385.044 284.949 380.303 288.082 377.502 289.312L389.052 308.807" fill="black"/>
<path d="M402.666 309.197C392.313 309.197 388.737 302.872 388.31 294.066H395.889C395.889 298.06 397.882 302.423 402.666 302.423C406.648 302.423 409.08 300.439 409.08 297.301C409.08 294.483 407.027 292.873 398.695 288.083C392.724 284.949 388.737 281.388 388.737 274.972C388.737 268.219 393.104 263.45 402.26 263.45C412.228 263.45 415.83 269.786 416.189 277.384H408.241C408.241 273.357 406.263 270.23 402.26 270.23C399.08 270.23 396.674 271.791 396.674 274.55C396.674 277.384 399.08 278.945 405.445 282.543C412.613 286.505 417.017 289.312 417.017 296.91C417.017 304.813 410.256 309.197 402.666 309.197Z" fill="black"/>
<path d="M334.669 270.994C328.699 270.994 325.107 277.715 325.107 286.923C325.107 296.071 328.699 302.423 334.669 302.423C340.655 302.423 344.204 296.071 344.204 286.923C344.204 277.715 340.655 270.994 334.669 270.994ZM334.669 309.983C322.349 309.983 316.801 299.29 316.801 286.923C316.801 274.55 322.349 263.851 334.669 263.851C347.021 263.851 352.547 274.55 352.547 286.923C352.547 299.29 347.021 309.983 334.669 309.983Z" fill="black"/>
<path d="M309.462 270.994V308.802H301.492V270.994H291.957V264.225H319.029V270.994" fill="black"/>
<path d="M248.081 308.807V279.72L238.107 300.888L228.545 279.72V308.807H220.565V264.225H229.342L238.107 284.532L247.258 264.225H256.066V308.807" fill="black"/>
</svg>
