<svg width="512" height="512" viewBox="0 0 512 512" fill="none" xmlns="http://www.w3.org/2000/svg">
<path d="M292.927 234.948C300.961 234.948 307.173 236.749 311.558 240.351C315.943 243.955 318.179 249.234 318.26 256.194H307.07C306.987 247.925 302.191 243.79 292.681 243.79C288.746 243.79 285.629 244.588 283.336 246.184C281.04 247.779 279.893 249.93 279.893 252.631C279.893 254.435 280.321 255.907 281.184 257.052C282.046 258.199 283.171 259.14 284.566 259.876C285.957 260.616 287.599 261.208 289.485 261.656C291.371 262.111 293.377 262.538 295.507 262.947C298.297 263.521 301.167 264.157 304.119 264.851C307.07 265.547 309.713 266.59 312.049 267.982C314.389 269.374 316.312 271.257 317.829 273.633C319.347 276.008 320.104 279.158 320.104 283.088C320.104 285.955 319.449 288.552 318.135 290.884C316.823 293.219 315.021 295.204 312.726 296.842C310.432 298.481 307.703 299.749 304.547 300.649C301.392 301.551 297.968 301.999 294.28 301.999C285.427 301.999 278.619 300.078 273.868 296.228C269.271 292.51 266.867 287.26 266.635 280.488H278.08C278.226 284.628 279.639 287.773 282.354 289.904C285.221 292.156 289.281 293.279 294.525 293.279C298.871 293.279 302.212 292.482 304.55 290.884C306.885 289.288 308.053 286.935 308.053 283.823C308.053 281.859 307.601 280.284 306.702 279.095C305.799 277.911 304.589 276.928 303.072 276.149C301.554 275.372 299.815 274.756 297.845 274.306C295.878 273.857 293.828 273.427 291.696 273.017C288.894 272.522 286.106 271.948 283.336 271.296C280.547 270.644 278.026 269.64 275.772 268.29C273.518 266.937 271.672 265.075 270.24 262.702C268.803 260.327 268.086 257.219 268.086 253.37C268.086 250.666 268.681 248.19 269.869 245.939C271.058 243.688 272.74 241.744 274.913 240.106C277.083 238.468 279.687 237.198 282.72 236.299C285.755 235.397 289.157 234.948 292.927 234.948ZM233.286 234.948C243.204 234.948 250.48 238.184 255.114 244.647C259.745 251.116 262.064 260.246 262.064 272.035H214.716C214.878 275.148 215.452 277.99 216.438 280.569C217.421 283.149 218.753 285.359 220.433 287.202C222.057 289.002 224.022 290.462 226.214 291.499C228.384 292.523 230.782 293.035 233.408 293.035C237.508 293.035 241.011 292.093 243.922 290.211C246.83 288.327 249.395 284.949 250.09 280.488H262.06C260.651 288.298 257.202 293.301 251.915 296.779C246.625 300.258 240.334 302 233.038 302C223.281 302 215.824 299.032 210.66 293.095C205.494 287.16 202.91 278.955 202.91 268.472C202.91 263.727 203.605 259.304 205 255.211C206.394 251.116 208.421 247.556 211.088 244.525C213.737 241.507 217.009 239.098 220.68 237.464C224.409 235.787 228.612 234.948 233.284 234.948H233.286ZM143.826 234.948C148.582 234.948 152.865 235.767 156.678 237.404C160.489 239.041 163.728 241.354 166.393 244.342C169.056 247.331 171.107 250.872 172.54 254.965C173.975 259.06 174.695 263.56 174.695 268.472C174.695 273.385 173.975 277.909 172.54 282.045C171.104 286.178 169.057 289.718 166.392 292.668C163.729 295.613 160.468 297.906 156.616 299.543C152.762 301.178 148.457 302 143.706 302C139.033 302 134.809 301.178 131.038 299.542C127.266 297.906 124.048 295.612 121.383 292.668C118.721 289.718 116.691 286.178 115.298 282.045C113.903 277.911 113.206 273.385 113.206 268.472C113.206 263.56 113.924 259.06 115.361 254.966C116.792 250.872 118.821 247.331 121.446 244.342C124.069 241.354 127.287 239.041 131.099 237.404C134.912 235.767 139.155 234.948 143.825 234.948H143.826ZM389.695 234.948C395.679 234.948 400.351 235.85 403.711 237.649C407.075 239.452 409.572 241.743 411.214 244.525C412.852 247.31 413.858 250.4 414.226 253.798C414.59 257.081 414.776 260.381 414.783 263.684V280.999C414.783 284.683 414.882 288.083 415.088 291.191C415.277 294.21 415.709 297.208 416.379 300.158H405.805C405.606 299.038 405.442 297.912 405.312 296.782C405.147 295.429 405.024 293.689 404.941 291.561C402.238 295.166 399.12 297.723 395.598 299.236C392.071 300.751 388.013 301.51 383.422 301.51C376.37 301.51 370.941 299.728 367.128 296.166C363.317 292.605 361.41 288 361.41 282.349C361.41 278.912 362.087 276.027 363.44 273.693C364.775 271.378 366.626 269.402 368.851 267.919C371.103 266.407 373.708 265.218 376.659 264.358C379.642 263.492 382.683 262.836 385.758 262.394C388.873 261.945 391.991 261.596 395.105 261.352C398.22 261.106 401.089 260.819 403.713 260.49V258.279C403.713 253.534 402.606 249.869 400.394 247.289C398.178 244.711 394.613 243.422 389.695 243.422C385.268 243.422 381.702 244.506 378.997 246.675C376.291 248.845 374.938 252.058 374.938 256.316H363.748C363.748 253.041 364.38 250.094 365.652 247.475C366.909 244.871 368.739 242.583 371.004 240.782C373.298 238.939 376.025 237.506 379.181 236.483C382.335 235.459 385.84 234.947 389.695 234.947V234.948ZM344.047 221.441V236.789H357.822V246.122H344.047V277.684C344.047 279.894 344.11 281.879 344.233 283.64C344.355 285.4 344.664 286.873 345.155 288.06C345.646 289.249 346.406 290.148 347.429 290.764C348.453 291.377 349.866 291.684 351.671 291.684C352.572 291.684 353.537 291.666 354.562 291.622C355.587 291.581 356.753 291.397 358.065 291.069V300.158C354.706 300.894 351.59 301.261 348.719 301.261C346.26 301.261 344.027 300.957 342.017 300.341C340.01 299.728 338.329 298.727 336.976 297.335C335.623 295.939 334.578 294.06 333.842 291.684C333.101 289.312 332.734 286.404 332.734 282.965V246.122H321.052V236.789H332.734V221.44H344.047V221.441ZM454.868 236.053C457.244 236.053 459.621 236.299 462 236.788V246.735C460.692 246.505 459.38 246.3 458.065 246.12C456.883 245.961 455.692 245.879 454.5 245.876C451.057 245.876 448.247 246.47 446.075 247.656C443.93 248.818 442.161 250.565 440.972 252.693C439.745 254.861 438.883 257.502 438.389 260.615C437.898 263.727 437.653 267.206 437.653 271.052V300.156H426.338V236.789H437.036V246.122C439.496 242.274 442.202 239.636 445.152 238.202C448.105 236.77 451.342 236.052 454.867 236.052V236.053L454.868 236.053ZM194.429 211.001V300.156H183.117V211H194.429V211.001ZM77.0536 211.001C80.8231 211.001 84.7597 211.166 88.8597 211.492C92.9583 211.819 96.9752 212.964 100.912 214.93C104.846 217.058 107.815 220.148 109.828 224.202C111.835 228.254 112.84 232.819 112.84 237.895C112.84 243.298 111.75 247.901 109.58 251.708C107.407 255.515 104.477 258.528 100.789 260.736C98.2464 262.212 94.9279 263.297 90.8267 263.99C86.7267 264.686 81.8882 265.036 76.3177 265.036H62.0509V300.156H50V211H77.0536V211.001ZM403.71 269.211C401.332 269.538 398.383 269.805 394.857 270.008C391.414 270.202 387.996 270.716 384.649 271.545C381.37 272.362 378.582 273.611 376.288 275.29C373.992 276.967 372.845 279.404 372.845 282.598C372.845 285.708 374.013 288.263 376.348 290.271C378.689 292.279 381.902 293.279 386.001 293.279C388.295 293.279 390.511 292.996 392.644 292.419C394.759 291.857 396.701 290.781 398.299 289.288C399.939 287.776 401.25 285.688 402.235 283.025C403.22 280.365 403.711 276.947 403.711 272.772V269.211H403.71ZM143.826 244.035C140.954 244.035 138.355 244.609 136.02 245.753C133.679 246.902 131.692 248.538 130.054 250.666C128.414 252.794 127.143 255.355 126.241 258.342C125.338 261.331 124.889 264.668 124.889 268.352C124.889 272.035 125.319 275.392 126.181 278.42C127.04 281.45 128.289 284.05 129.931 286.219C131.569 288.389 133.557 290.067 135.895 291.254C138.233 292.44 140.833 293.035 143.702 293.035C146.656 293.035 149.338 292.44 151.76 291.254C154.147 290.091 156.231 288.388 157.845 286.281C159.483 284.154 160.754 281.596 161.656 278.602C162.559 275.619 163.009 272.279 163.009 268.595C163.009 264.911 162.557 261.578 161.656 258.588C160.753 255.6 159.464 253.02 157.785 250.851C156.103 248.681 154.095 247.003 151.76 245.816C149.422 244.629 146.778 244.035 143.825 244.035H143.827H143.826ZM232.795 244.035C227.958 244.035 223.979 245.571 220.863 248.64C217.748 251.71 215.781 256.439 214.962 262.824H250.009C249.352 256.439 247.467 251.71 244.352 248.64C241.237 245.571 237.383 244.035 232.792 244.035H232.795ZM77.5447 220.821H62.0509V255.214H77.5474C80.6611 255.214 83.4899 255.069 86.0309 254.783C88.5733 254.496 90.5376 254.026 91.9346 253.371C94.7205 251.979 96.832 249.891 98.2651 247.106C99.7023 244.325 100.419 241.255 100.419 237.897C100.419 234.541 99.7023 231.49 98.2651 228.747C96.8294 226.006 94.7205 223.937 91.9346 222.546C90.5376 221.809 88.5733 221.34 86.0309 221.135C83.4899 220.93 80.6611 220.825 77.5474 220.825L77.5447 220.821Z" fill="black"/>
</svg>
