<svg width="512" height="512" viewBox="0 0 512 512" fill="none" xmlns="http://www.w3.org/2000/svg">
<path d="M367.945 243.001C372.937 243.001 376.797 244.129 379.521 246.384C382.246 248.642 383.635 251.949 383.686 256.308H376.733C376.681 251.129 373.701 248.539 367.792 248.539C365.347 248.539 363.411 249.039 361.985 250.039C360.559 251.038 359.846 252.385 359.846 254.077C359.846 255.206 360.112 256.128 360.648 256.846C361.184 257.564 361.883 258.153 362.75 258.614C363.614 259.078 364.634 259.449 365.806 259.73C366.978 260.014 368.225 260.282 369.548 260.538C371.282 260.898 373.065 261.296 374.899 261.731C376.733 262.167 378.375 262.82 379.826 263.692C381.281 264.564 382.475 265.744 383.418 267.231C384.361 268.719 384.832 270.692 384.832 273.154C384.832 274.95 384.424 276.576 383.608 278.037C382.793 279.5 381.673 280.743 380.247 281.769C378.822 282.796 377.126 283.59 375.165 284.154C373.205 284.719 371.077 284.999 368.786 284.999C363.285 284.999 359.055 283.796 356.102 281.384C353.246 279.056 351.752 275.767 351.608 271.526H358.72C358.81 274.119 359.688 276.089 361.375 277.423C363.157 278.834 365.68 279.538 368.938 279.538C371.638 279.538 373.715 279.038 375.167 278.037C376.618 277.037 377.344 275.564 377.344 273.614C377.344 272.384 377.063 271.398 376.504 270.653C375.943 269.912 375.191 269.296 374.248 268.808C373.306 268.321 372.225 267.935 371.001 267.653C369.779 267.372 368.505 267.103 367.18 266.846C365.439 266.536 363.707 266.176 361.985 265.768C360.253 265.36 358.686 264.73 357.285 263.885C355.885 263.038 354.738 261.871 353.848 260.385C352.955 258.897 352.51 256.95 352.51 254.539C352.51 252.846 352.88 251.295 353.618 249.885C354.356 248.475 355.401 247.257 356.752 246.231C358.1 245.205 359.718 244.41 361.603 243.847C363.489 243.282 365.602 243.001 367.945 243.001ZM330.886 243.001C337.049 243.001 341.57 245.027 344.45 249.075C347.327 253.128 348.768 258.846 348.768 266.231H319.348C319.448 268.18 319.805 269.961 320.418 271.576C321.029 273.192 321.856 274.576 322.9 275.731C323.909 276.858 325.13 277.773 326.492 278.422C327.841 279.064 329.331 279.385 330.962 279.385C333.51 279.385 335.686 278.795 337.495 277.616C339.302 276.436 340.896 274.32 341.328 271.526H348.766C347.89 276.417 345.747 279.551 342.462 281.73C339.175 283.909 335.266 285 330.733 285C324.67 285 320.036 283.141 316.828 279.422C313.617 275.704 312.012 270.565 312.012 263.999C312.012 261.027 312.444 258.256 313.311 255.693C314.177 253.128 315.437 250.898 317.094 248.999C318.739 247.109 320.773 245.6 323.053 244.576C325.371 243.526 327.982 243.001 330.885 243.001H330.886ZM275.3 243.001C278.255 243.001 280.916 243.514 283.286 244.539C285.654 245.564 287.666 247.013 289.322 248.885C290.976 250.756 292.251 252.975 293.141 255.539C294.033 258.103 294.48 260.922 294.48 263.999C294.48 267.077 294.033 269.91 293.141 272.501C292.249 275.089 290.977 277.307 289.321 279.154C287.666 280.999 285.64 282.435 283.247 283.461C280.852 284.485 278.177 285 275.225 285C272.321 285 269.697 284.485 267.354 283.46C265.01 282.435 263.01 280.999 261.355 279.154C259.7 277.307 258.439 275.089 257.573 272.501C256.707 269.912 256.274 267.077 256.274 263.999C256.274 260.922 256.719 258.103 257.612 255.539C258.502 252.975 259.763 250.756 261.394 248.885C263.023 247.013 265.023 245.564 267.392 244.539C269.761 243.514 272.397 243.001 275.299 243.001H275.3ZM428.072 243.001C431.791 243.001 434.694 243.565 436.782 244.692C438.872 245.821 440.423 247.256 441.444 248.999C442.461 250.744 443.086 252.679 443.315 254.807C443.542 256.864 443.657 258.931 443.661 261V271.845C443.661 274.153 443.723 276.283 443.851 278.23C443.969 280.12 444.237 281.999 444.653 283.846H438.083C437.959 283.145 437.857 282.439 437.776 281.732C437.674 280.884 437.597 279.795 437.546 278.462C435.866 280.719 433.929 282.321 431.741 283.269C429.549 284.218 427.027 284.693 424.175 284.693C419.793 284.693 416.42 283.577 414.05 281.346C411.682 279.115 410.497 276.231 410.497 272.691C410.497 270.538 410.918 268.731 411.759 267.269C412.588 265.819 413.739 264.582 415.121 263.653C416.52 262.705 418.139 261.961 419.972 261.422C421.826 260.88 423.716 260.469 425.626 260.192C427.562 259.911 429.499 259.692 431.434 259.539C433.369 259.385 435.152 259.205 436.783 258.999V257.615C436.783 254.642 436.095 252.346 434.721 250.731C433.344 249.116 431.129 248.308 428.072 248.308C425.322 248.308 423.106 248.988 421.425 250.346C419.744 251.705 418.903 253.718 418.903 256.385H411.95C411.95 254.334 412.343 252.488 413.133 250.847C413.915 249.216 415.051 247.783 416.459 246.655C417.884 245.5 419.578 244.603 421.54 243.962C423.499 243.32 425.677 243 428.072 243V243.001ZM399.709 234.54V244.154H408.268V249.999H399.709V269.769C399.709 271.153 399.748 272.397 399.824 273.5C399.9 274.602 400.092 275.525 400.397 276.268C400.702 277.013 401.174 277.576 401.811 277.962C402.447 278.346 403.325 278.539 404.446 278.539C405.006 278.539 405.605 278.527 406.242 278.499C406.879 278.474 407.604 278.359 408.419 278.153V283.846C406.332 284.307 404.395 284.537 402.612 284.537C401.084 284.537 399.696 284.346 398.447 283.961C397.2 283.577 396.156 282.95 395.315 282.078C394.475 281.204 393.825 280.026 393.368 278.539C392.908 277.052 392.68 275.231 392.68 273.077V249.999H385.42V244.154H392.68V234.539H399.709V234.54ZM468.568 243.693C470.045 243.693 471.522 243.847 473 244.153V250.383C472.187 250.239 471.372 250.111 470.555 249.998C469.821 249.899 469.081 249.848 468.34 249.845C466.201 249.845 464.454 250.218 463.105 250.961C461.772 251.688 460.673 252.783 459.934 254.115C459.172 255.473 458.636 257.128 458.329 259.077C458.024 261.027 457.872 263.206 457.872 265.615V283.845H450.841V244.154H457.489V249.999C459.017 247.589 460.698 245.937 462.531 245.039C464.366 244.142 466.378 243.692 468.568 243.692V243.693L468.568 243.693ZM306.742 228.001V283.845H299.713V228H306.742V228.001ZM233.81 228.001C236.152 228.001 238.598 228.104 241.146 228.308C243.693 228.513 246.188 229.23 248.635 230.462C251.079 231.795 252.924 233.73 254.174 236.27C255.422 238.808 256.046 241.667 256.046 244.846C256.046 248.23 255.369 251.114 254.021 253.499C252.67 255.883 250.85 257.77 248.558 259.153C246.978 260.078 244.916 260.757 242.368 261.192C239.82 261.628 236.814 261.847 233.353 261.847H224.488V283.845H217V228H233.81V228.001ZM436.781 264.462C435.303 264.667 433.471 264.834 431.28 264.961C429.141 265.082 427.017 265.404 424.937 265.924C422.9 266.436 421.167 267.218 419.742 268.27C418.315 269.32 417.603 270.846 417.603 272.847C417.603 274.795 418.329 276.396 419.78 277.653C421.234 278.911 423.23 279.538 425.778 279.538C427.203 279.538 428.58 279.36 429.905 278.999C431.219 278.647 432.426 277.973 433.419 277.037C434.438 276.09 435.253 274.782 435.865 273.115C436.477 271.449 436.782 269.307 436.782 266.693V264.462H436.781ZM275.3 248.692C273.515 248.692 271.9 249.052 270.449 249.768C268.995 250.488 267.76 251.513 266.742 252.846C265.723 254.179 264.933 255.783 264.373 257.654C263.812 259.526 263.533 261.616 263.533 263.924C263.533 266.231 263.8 268.333 264.335 270.23C264.869 272.128 265.646 273.756 266.666 275.115C267.684 276.474 268.919 277.525 270.372 278.269C271.824 279.012 273.44 279.385 275.222 279.385C277.058 279.385 278.724 279.012 280.229 278.269C281.713 277.54 283.008 276.474 284.011 275.154C285.028 273.822 285.818 272.219 286.379 270.344C286.94 268.476 287.219 266.384 287.219 264.076C287.219 261.768 286.938 259.681 286.379 257.808C285.817 255.936 285.017 254.32 283.973 252.961C282.928 251.602 281.68 250.551 280.229 249.808C278.777 249.065 277.134 248.692 275.299 248.692H275.3H275.3ZM330.581 248.692C327.576 248.692 325.104 249.654 323.167 251.577C321.232 253.499 320.009 256.462 319.501 260.461H341.278C340.869 256.462 339.698 253.499 337.762 251.577C335.827 249.654 333.432 248.692 330.58 248.692H330.581ZM234.115 234.152H224.488V255.694H234.117C236.052 255.694 237.809 255.604 239.388 255.425C240.968 255.245 242.188 254.95 243.056 254.54C244.788 253.668 246.1 252.361 246.99 250.616C247.883 248.874 248.329 246.951 248.329 244.847C248.329 242.745 247.883 240.834 246.99 239.116C246.098 237.399 244.788 236.103 243.056 235.232C242.188 234.77 240.968 234.477 239.388 234.348C237.809 234.22 236.052 234.154 234.117 234.154L234.115 234.152Z" fill="black"/>
<path fill-rule="evenodd" clip-rule="evenodd" d="M122.493 257.292V317.774L120.023 320.778L109.816 269.95L122.493 257.292Z" fill="black"/>
<path fill-rule="evenodd" clip-rule="evenodd" d="M123.499 254.495V194.004L125.969 191L136.175 241.819L123.499 254.495Z" fill="black"/>
<path fill-rule="evenodd" clip-rule="evenodd" d="M109.816 269.95L59 259.762L62.0008 257.292H122.492L109.816 269.95Z" fill="black"/>
<path fill-rule="evenodd" clip-rule="evenodd" d="M136.184 241.822L187 252.044L184 254.514H123.499L136.184 241.822Z" fill="black"/>
</svg>
