<svg width="512" height="512" viewBox="0 0 512 512" fill="none" xmlns="http://www.w3.org/2000/svg">
<path d="M319.604 129.946C313.003 127.306 306.203 125.062 299.272 123.346C289.7 121.036 279.996 119.452 270.226 118.66C265.407 118.264 261.116 118.066 256.231 118.066H255.835C251.016 118.132 246.659 118.264 241.84 118.66C232.004 119.452 222.3 120.97 212.794 123.28C205.863 125.062 199.063 127.24 192.462 129.88C192.132 130.012 192 130.078 192 130.078C192 130.078 192.792 179.644 193.452 204.13C193.584 211.39 194.905 218.518 197.347 225.316C200.12 233.038 203.882 240.43 208.437 247.294C213.19 254.356 218.999 260.692 225.601 266.104C228.175 268.282 230.948 270.262 233.786 272.11C238.275 274.816 242.896 277.192 247.715 279.172C249.3 279.832 250.686 280.492 251.94 280.888C253.26 281.416 254.581 281.812 255.967 282.142C257.353 281.812 258.674 281.416 259.994 280.888C261.248 280.492 262.634 279.832 264.219 279.172C269.038 277.192 273.725 274.816 278.147 272.11C280.986 270.328 283.693 268.282 286.333 266.104C292.934 260.692 298.744 254.356 303.497 247.294C308.052 240.43 311.814 233.038 314.587 225.316C317.029 218.518 318.35 211.324 318.482 204.13C319.076 179.578 319.934 130.078 319.934 130.078C319.868 130.012 319.736 129.946 319.604 129.946Z" fill="#E1BE78"/>
<path d="M254.449 256.006H218.141C220.848 258.976 223.752 261.682 226.789 264.256C229.298 266.368 231.872 268.282 234.645 270.064C238.936 272.704 243.424 274.948 248.045 276.928C249.564 277.588 250.884 278.182 252.138 278.644C252.996 278.974 253.789 279.238 254.449 279.436V256.006ZM254.449 228.88C248.97 228.418 243.821 226.24 239.596 222.742C239.332 222.544 239.068 222.28 238.804 222.082H198.733C198.997 222.94 199.262 223.798 199.592 224.656C201.11 228.946 202.958 233.104 205.071 237.13H254.449V228.88ZM316.501 187.366H281.118V190.138V202.876H316.237C316.303 198.322 316.369 192.976 316.501 187.366ZM317.161 154.828H256.627V169.876H316.897C316.963 164.596 317.029 159.514 317.161 154.828Z" fill="#B12B28"/>
<path d="M277.817 217.066L278.412 216.934L281.91 216.142C282.042 216.142 282.174 215.944 282.174 215.878C282.57 214.162 283.297 212.578 284.287 211.126C285.079 210.07 286.201 209.278 287.455 208.882C289.172 208.222 291.086 208.354 292.604 209.278C292.802 209.41 292.802 209.608 292.67 209.806C292.604 209.872 292.604 209.872 292.538 209.938C291.548 210.334 290.69 211.06 290.03 211.918C289.304 212.644 288.776 213.568 288.512 214.492C288.512 214.624 288.446 214.756 288.578 214.822C288.71 214.954 290.426 214.822 291.086 214.954C291.218 214.954 291.218 214.888 291.35 214.756C291.878 212.974 292.935 211.324 294.387 210.136C295.905 208.948 297.886 208.618 299.734 209.212C300.856 209.476 301.78 210.202 302.308 211.258C302.374 211.324 302.374 211.522 302.176 211.522C300.922 211.72 299.8 212.248 298.81 213.04C297.952 213.634 297.225 214.426 296.763 215.35C296.763 215.416 296.565 215.614 296.895 215.68C297.753 215.878 298.612 216.142 299.404 216.406C299.47 216.538 299.734 216.406 299.8 216.34C300.79 214.888 302.242 213.832 304.025 213.502C306.599 213.106 309.042 214.228 309.438 215.944C309.504 216.208 309.57 216.472 309.372 216.472C307.986 216.538 306.599 217.066 305.543 217.924C305.279 218.122 305.015 218.32 304.817 218.518C304.619 218.65 304.685 218.782 304.685 218.782C305.279 219.376 307.193 220.762 307.325 222.676C307.391 223.864 307.259 225.118 306.797 226.174C306.731 226.24 306.665 226.306 306.599 226.306C306.401 226.306 306.401 226.174 306.335 226.108C305.015 224.59 303.431 223.27 301.648 222.28C298.216 220.432 294.387 219.508 290.492 219.574C284.221 219.64 273.923 223.336 271.414 223.996L271.282 224.062C271.084 224.128 272.47 222.61 277.817 217.066ZM294.123 229.804C292.802 230.398 291.68 231.388 291.02 232.642C290.954 232.708 290.888 232.972 290.756 232.906C290.162 232.84 289.106 232.708 288.512 232.642C288.248 232.642 288.314 232.378 288.38 232.312C288.644 231.52 289.106 230.728 289.7 230.134C290.558 229.21 291.548 228.418 292.736 227.956C292.802 227.956 292.868 227.89 292.868 227.824V227.758C292.076 226.834 290.954 226.24 289.7 226.174C288.116 226.108 286.597 226.702 285.475 227.824C284.155 229.21 283.363 230.992 283.165 232.906C283.099 233.038 283.032 233.104 282.9 233.104C282.24 233.236 281.646 233.236 280.986 233.302C280.92 233.302 280.92 233.17 280.92 233.038C280.92 232.048 281.184 231.124 281.646 230.266C282.504 228.616 283.825 227.23 285.409 226.306C285.673 226.108 285.673 225.778 285.607 225.712C283.693 224.92 281.448 225.118 279.732 226.306C278.544 226.966 277.619 227.89 277.025 229.144C276.365 230.86 275.969 232.642 275.837 234.424C275.771 234.556 275.705 234.622 275.573 234.688C274.781 234.82 274.055 235.018 273.263 235.282C273.196 235.282 273.13 235.216 273.13 235.15C272.866 233.434 273.263 231.652 274.121 230.2C274.517 229.54 274.979 228.88 275.639 228.418C275.771 228.352 275.771 228.154 275.705 228.088C275.639 228.022 275.573 227.956 275.507 227.956C273.989 227.692 272.404 227.956 271.084 228.748C269.368 229.672 268.245 231.388 267.981 233.302C267.849 234.688 267.915 236.008 268.245 237.394C268.245 237.46 268.312 237.592 268.113 237.592C267.585 237.856 266.199 238.582 265.671 238.846C265.671 238.846 265.539 238.912 265.539 238.78C265.275 237.724 264.615 236.866 263.691 236.338C262.7 235.942 261.578 236.008 260.654 236.47C259.994 236.8 259.532 237.394 259.202 237.988C258.74 239.11 259.07 240.43 260.06 241.09C260.126 241.156 260.192 241.222 260.06 241.288C259.466 241.618 259.466 241.684 258.938 242.41C258.476 243.4 258.608 244.588 259.268 245.446C259.796 246.238 260.654 246.7 261.578 246.832C262.502 246.898 263.36 246.634 264.021 246.04C264.021 246.04 264.153 246.106 264.219 246.172C264.483 246.568 264.813 246.898 265.209 247.228C266.199 247.756 267.321 247.756 268.312 247.228C269.302 246.634 269.896 245.512 269.764 244.39C269.764 243.73 269.5 243.07 269.038 242.608C268.972 242.476 269.038 242.476 269.236 242.278C273.395 239.902 277.949 238.384 282.636 237.724C285.079 237.328 287.587 237.394 289.964 237.856C291.548 238.252 293.001 238.978 294.255 239.968C295.245 240.76 296.169 241.684 297.027 242.74C297.291 242.806 297.621 242.74 297.82 242.542C298.348 241.42 298.348 240.166 297.886 238.978C297.291 237.46 296.433 236.074 295.245 234.952C295.245 234.952 295.245 234.886 295.245 234.82C295.245 234.622 295.377 234.49 295.575 234.292C296.631 233.302 297.952 232.576 299.404 232.246C299.602 232.246 299.668 232.114 299.536 231.916C298.546 229.936 296.169 229.012 294.123 229.804ZM320 130.144C320 130.144 319.208 179.644 318.548 204.196C318.416 211.39 317.095 218.584 314.653 225.382C311.88 233.104 308.118 240.496 303.563 247.36C298.81 254.422 293.001 260.758 286.399 266.17C283.825 268.348 281.052 270.328 278.214 272.176C273.725 274.882 269.104 277.258 264.285 279.238C262.7 279.898 261.314 280.558 260.06 280.954C258.74 281.482 257.419 281.878 256.033 282.208C254.647 281.878 253.326 281.482 252.006 280.954C250.752 280.558 249.366 279.898 247.781 279.238C242.962 277.258 238.275 274.882 233.853 272.176C231.014 270.394 228.307 268.348 225.667 266.17C219.066 260.758 213.256 254.422 208.503 247.36C203.948 240.496 200.186 233.104 197.413 225.382C194.971 218.584 193.65 211.39 193.518 204.196C192.792 179.644 192 130.144 192 130.144C192 130.144 192.132 130.078 192.396 130.012C198.997 127.372 205.797 125.128 212.728 123.412C222.3 121.102 232.004 119.518 241.774 118.726C246.593 118.33 250.884 118.132 255.769 118.132H256.165C260.984 118.198 265.341 118.33 270.16 118.726C279.93 119.518 289.7 121.102 299.206 123.412C306.137 125.194 312.937 127.372 319.538 130.012C319.736 130.012 319.868 130.078 320 130.144ZM198.205 220.3H237.087C233.456 216.406 231.41 211.258 231.344 205.978V205.384H195.895C196.093 210.4 196.885 215.416 198.205 220.3ZM254.449 256.006H218.141C220.848 258.976 223.752 261.682 226.789 264.256C229.298 266.368 231.872 268.282 234.645 270.064C238.936 272.704 243.424 274.948 248.045 276.928C249.564 277.588 250.884 278.182 252.138 278.644C252.996 278.974 253.789 279.238 254.449 279.436V256.006ZM254.449 239.044H206.127C207.381 241.354 208.767 243.664 210.286 245.974C212.134 248.812 214.181 251.518 216.425 254.092H254.449V239.044ZM254.449 228.88C248.97 228.418 243.821 226.24 239.596 222.742C239.332 222.544 239.068 222.28 238.804 222.082H198.733C198.997 222.94 199.261 223.798 199.592 224.656C201.11 228.946 202.958 233.104 205.071 237.13H254.449V228.88ZM254.449 138.262C250.356 138.328 246.527 138.46 242.368 138.856C232.928 139.648 223.62 141.1 214.445 143.344C207.777 145.06 201.242 147.172 194.839 149.746C194.839 149.746 194.773 149.746 194.773 149.812C195.037 165.718 195.499 188.818 195.829 203.404H231.41V190.072C231.278 190.072 231.278 190.072 231.08 190.072C227.185 189.874 223.29 190.336 219.528 191.458C215.567 192.646 211.738 194.296 208.173 196.408C207.909 196.54 207.975 196.54 208.173 196.804C208.635 197.332 208.965 197.992 209.163 198.652C209.362 199.576 208.899 200.566 208.041 200.962C207.315 201.424 206.457 201.622 205.599 201.358C205.005 201.16 204.477 200.764 204.08 200.302C203.948 200.104 203.816 200.368 203.618 200.5C203.09 200.83 202.562 201.094 202.034 201.358C200.912 201.886 199.658 201.49 198.931 200.5C198.271 199.51 198.271 198.19 198.997 197.266C199.327 196.936 199.856 196.672 200.252 196.342C200.318 196.276 200.384 196.144 200.318 196.012C200.054 195.682 199.856 195.352 199.658 194.956C199.327 193.9 199.658 192.712 200.45 191.986C201.308 191.392 202.43 191.26 203.354 191.722C203.948 191.986 204.411 192.844 204.807 193.372C204.873 193.504 205.005 193.57 205.137 193.504L206.061 192.976C206.193 192.91 206.127 192.646 206.061 192.514C204.873 189.61 204.609 187.696 205.731 185.65C206.391 184.33 207.579 183.406 208.965 183.076C209.824 182.812 210.748 182.878 211.54 183.208C211.606 183.274 211.606 183.406 211.54 183.472C210.682 184.396 210.022 185.584 209.692 186.838C209.494 187.96 209.494 189.082 209.824 190.204C209.89 190.402 210.022 190.468 210.154 190.402C210.55 190.27 211.804 189.808 212.332 189.676C212.464 189.61 212.398 189.346 212.398 189.214C211.936 187.432 212.002 185.518 212.596 183.802C213.784 181.426 216.227 180.04 218.867 180.172C219.33 180.172 219.924 180.568 219.594 180.898C217.151 182.35 215.831 185.122 216.293 187.96C216.293 188.092 216.425 188.158 216.557 188.158C217.415 187.894 218.405 187.63 219.198 187.366C219.33 187.3 219.33 187.102 219.33 186.904C219.33 184.726 220.122 182.614 221.442 180.898C222.96 179.182 225.271 178.258 227.581 178.39C228.043 178.522 228.439 178.72 228.703 179.05C228.769 179.182 228.769 179.38 228.637 179.512C226.393 181.03 224.611 183.208 223.686 185.716C223.686 185.782 223.818 185.914 223.884 185.914C225.205 185.782 226.591 185.584 227.911 185.518C228.109 185.518 228.109 185.452 228.175 185.386C228.703 183.802 229.694 182.482 231.146 181.624C231.212 181.558 231.278 181.492 231.344 181.492V175.09C231.278 175.09 231.212 175.024 231.212 175.024C230.222 174.628 229.166 174.43 228.109 174.298C220.518 174.364 213.124 176.476 206.523 180.238C206.391 180.304 206.259 180.502 206.259 180.634C207.051 182.614 206.589 183.736 205.467 184.462C204.212 185.254 202.628 184.858 201.836 183.604C201.77 183.472 201.572 183.472 201.44 183.538C200.714 184.066 199.79 184.33 198.931 184.264C198.007 184.198 197.215 183.67 196.885 182.812C196.357 181.294 197.215 179.644 198.733 179.182H198.799C198.931 179.116 198.931 179.05 198.799 178.918C197.941 177.862 198.073 176.278 199.129 175.42C199.195 175.354 199.327 175.288 199.394 175.222C200.648 174.496 202.298 174.892 203.024 176.146C203.156 176.344 203.222 176.542 203.288 176.74C203.354 176.872 203.354 176.806 203.486 176.806C203.948 176.74 204.345 176.542 204.741 176.344C204.939 176.278 205.137 175.684 205.137 175.486C205.269 172.186 205.071 170.14 207.249 167.962C208.173 167.038 211.342 166.312 212.068 167.302C212.134 167.368 212.134 167.434 212.068 167.5C211.342 167.896 210.814 168.49 210.418 169.15C209.494 170.536 209.163 172.186 209.428 173.77C209.428 173.836 209.428 174.1 209.56 174.034C210.484 173.704 211.408 173.374 212.266 173.044C212.332 172.978 212.266 172.846 212.266 172.714C212.134 170.47 212.794 168.292 214.114 166.51C215.567 164.926 219.066 163.342 220.848 164.86C220.98 164.992 220.848 165.19 220.65 165.322C219.726 165.784 218.933 166.51 218.339 167.302C217.547 168.358 216.953 169.546 216.689 170.866C216.689 170.998 216.887 171.328 217.019 171.262C217.811 171.13 219.198 170.932 219.99 170.668C220.386 170.536 220.254 170.47 220.32 170.008C220.584 166.51 223.356 163.738 226.789 163.408C227.977 163.21 229.166 163.342 230.222 163.936C230.486 164.134 230.75 164.332 230.948 164.596C231.014 164.728 231.014 164.86 230.882 164.992L230.816 165.058C229.562 165.19 228.307 165.586 227.251 166.312C226.063 167.038 225.205 168.226 224.875 169.612C224.875 169.744 224.941 170.008 225.139 170.008C226.129 170.008 227.383 170.008 228.373 169.942C228.505 169.942 228.637 169.876 228.637 169.744C229.364 167.764 230.948 166.246 232.928 165.652C235.173 164.86 237.615 165.454 239.266 167.104C239.464 167.368 239.398 167.434 239.266 167.5C237.483 167.83 235.833 168.556 234.381 169.612C234.183 169.81 233.985 169.942 234.315 169.942H254.515L254.449 138.262ZM271.084 224.128C269.5 225.25 267.783 226.174 266.001 226.966H266.067L266.331 227.428C266.529 227.89 266.595 228.352 266.529 228.814C266.529 229.54 266.001 230.2 265.341 230.398C264.417 230.794 263.427 230.596 262.7 229.936C262.172 230.53 261.38 230.86 260.588 230.662C259.928 230.53 259.4 230.134 259.07 229.54C258.938 229.21 258.872 228.946 258.872 228.88C258.145 228.946 257.419 229.012 256.693 229.012V278.908V279.7C257.485 279.502 258.608 279.106 259.928 278.644C261.116 278.248 262.502 277.588 264.021 276.928C268.642 275.014 273.13 272.704 277.421 270.064C280.194 268.282 282.768 266.368 285.277 264.256C291.614 258.976 297.225 252.838 301.78 245.974C306.203 239.308 309.768 232.18 312.474 224.656C314.719 218.254 315.973 211.522 316.237 204.724H281.184V205.912C280.854 213.238 277.157 220.036 271.084 224.128ZM316.501 187.366H281.118V190.138V202.876H316.237C316.303 198.322 316.435 192.976 316.501 187.366ZM316.831 171.988H281.118V174.958V181.36V185.188H316.567C316.633 180.898 316.765 176.41 316.831 171.988ZM317.161 154.828H256.627V169.876H316.897C316.963 164.596 317.029 159.514 317.161 154.828ZM317.227 149.812C317.227 149.812 317.161 149.812 317.161 149.746C310.758 147.172 304.223 145.06 297.555 143.344C288.38 141.1 279.006 139.582 269.632 138.79C265.143 138.394 261.116 138.262 256.627 138.196V152.848H317.161C317.227 151.858 317.227 150.802 317.227 149.812ZM317.558 132.256C317.425 132.19 317.293 132.124 317.161 132.058C310.758 129.484 304.223 127.372 297.555 125.656C288.38 123.412 279.006 121.894 269.632 121.102C265.011 120.706 260.852 120.574 256.231 120.508H255.835C251.214 120.574 247.055 120.706 242.434 121.102C232.928 121.894 223.62 123.412 214.445 125.656C207.777 127.372 201.242 129.484 194.839 132.058L194.442 132.19C194.442 132.19 194.575 138.526 194.707 147.766C194.773 147.766 194.773 147.7 194.839 147.7C201.242 145.192 207.777 143.08 214.445 141.364C223.62 139.12 232.928 137.602 242.368 136.81C246.989 136.414 251.148 136.15 255.835 136.084H256.231C260.852 136.15 265.011 136.414 269.632 136.81C279.072 137.602 288.38 139.12 297.555 141.364C304.223 143.08 310.758 145.192 317.161 147.766C317.227 147.766 317.227 147.832 317.293 147.832C317.425 138.592 317.558 132.256 317.558 132.256ZM284.683 250.396C283.693 251.122 282.9 252.046 282.306 253.102C282.24 253.168 282.24 253.366 282.108 253.3L280.656 252.838C280.656 252.838 280.656 252.706 280.656 252.64C281.646 250.726 283.363 249.34 285.409 248.746C285.541 248.68 285.475 248.614 285.475 248.548C284.749 246.7 280.92 246.898 279.138 248.02C277.421 249.142 276.233 250.924 275.771 252.904C275.771 253.036 275.837 253.168 275.705 253.168C275.177 253.366 274.649 253.498 274.121 253.564C274.055 253.564 273.989 253.498 273.989 253.432C273.857 252.508 273.989 251.584 274.451 250.726C275.045 249.67 275.837 248.746 276.629 247.954C276.761 247.822 276.761 247.624 276.629 247.558C275.573 246.898 274.187 246.898 273.13 247.558C271.612 248.35 270.424 249.736 269.896 251.386C269.566 252.64 269.632 254.026 269.962 255.28C269.962 255.346 270.028 255.412 269.962 255.478C269.434 255.676 269.038 255.94 268.51 256.138C268.51 256.138 268.378 256.204 268.312 256.138C267.387 254.488 267.651 252.442 268.906 251.122C269.038 250.99 269.104 250.858 268.84 250.792C267.453 250.594 266.133 251.056 265.209 252.112C264.153 253.366 263.889 255.082 264.417 256.6C264.549 257.194 264.747 257.854 265.077 258.382C265.077 258.382 265.275 258.514 265.209 258.58C264.813 258.844 264.549 259.108 264.153 259.372C264.153 259.372 264.087 259.438 264.021 259.372C263.625 258.58 262.898 257.986 262.04 257.722C261.248 257.524 260.456 257.788 259.862 258.316C258.872 259.306 258.872 260.824 259.862 261.814C260.126 262.078 260.522 262.342 260.918 262.408C260.984 262.408 261.05 262.474 260.984 262.54C260.456 262.936 259.994 263.398 259.664 263.992C259.268 264.982 259.532 266.038 260.258 266.764C260.786 267.226 261.512 267.49 262.238 267.358C263.294 267.028 264.219 266.236 264.681 265.246C264.681 265.246 264.813 265.114 264.879 265.18C265.341 265.84 265.935 266.302 266.661 266.566C267.453 266.83 268.245 266.632 268.906 266.104C269.764 265.444 270.028 264.322 269.698 263.398C269.368 262.804 268.906 262.276 268.312 261.946C268.245 261.88 268.312 261.682 268.444 261.55C271.216 259.306 274.517 257.854 278.015 257.326C280.392 256.996 282.834 257.392 285.013 258.448C285.871 258.976 286.663 259.57 287.323 260.296C287.389 260.362 287.653 260.428 287.719 260.362C288.776 259.372 288.908 257.722 287.983 256.6C287.587 256.138 287.125 255.742 286.597 255.478C286.597 255.478 286.531 255.412 286.531 255.346C286.927 254.29 287.653 253.366 288.578 252.64C289.238 252.244 289.898 251.914 290.624 251.65C290.756 251.584 290.756 251.518 290.69 251.32C289.832 249.406 286.333 249.34 284.683 250.396ZM243.16 147.304C244.811 147.436 246.197 148.492 246.791 150.01C246.791 150.076 246.659 150.208 246.593 150.208C245.207 150.208 243.821 150.34 242.434 150.538C241.576 150.868 240.784 151.396 240.124 152.056C240.058 152.122 240.124 152.254 240.19 152.32C241.774 152.65 243.226 153.508 244.349 154.696C245.669 155.818 246.197 157.666 245.735 159.316C245.669 159.514 245.537 159.646 245.339 159.712C245.141 159.712 245.009 159.646 244.943 159.514C243.49 158.26 241.84 157.27 239.992 156.676C238.407 156.082 236.757 155.752 235.041 155.752C225.073 156.016 215.237 158.524 206.325 163.078C206.259 163.144 206.193 163.342 206.259 163.408C206.721 164.002 206.985 164.728 206.853 165.454C206.523 166.444 206.259 166.576 205.467 167.104C204.345 168.028 202.628 167.83 201.704 166.708C201.638 166.642 201.638 166.642 201.572 166.576C201.506 166.51 201.44 166.51 201.374 166.576C200.846 166.906 200.252 167.236 199.658 167.434C198.601 167.896 197.347 167.5 196.753 166.51C196.027 164.992 196.621 163.21 198.139 162.484C198.139 162.484 198.139 162.484 198.205 162.484C198.337 162.418 198.337 162.286 198.271 162.22C197.611 161.032 198.073 159.514 199.195 158.854C200.252 158.26 202.628 157.864 203.288 159.844C203.288 159.91 203.42 159.976 203.486 159.976C204.014 159.778 204.543 159.58 205.071 159.382C205.203 159.316 205.269 159.052 205.203 158.788C204.543 156.148 205.005 153.376 206.589 151.066C208.833 148.558 211.474 147.37 214.313 148.492C214.445 148.558 214.313 148.756 214.247 148.822C213.124 149.944 211.606 150.67 210.814 152.056C209.956 153.376 209.56 154.96 209.626 156.544C209.626 156.61 209.824 156.61 209.89 156.61C211.276 156.148 213.058 155.554 214.775 155.026C214.907 154.96 215.105 154.96 215.105 154.894C215.105 153.97 215.171 153.046 215.303 152.056C215.699 149.416 217.481 147.172 219.924 146.116C221.64 145.39 223.62 145.324 225.403 146.05C225.535 146.116 225.601 146.314 225.469 146.38C224.281 147.172 223.158 148.096 222.102 149.086C221.046 150.208 220.452 151.594 220.32 153.112C220.32 153.178 220.386 153.244 220.386 153.244C221.904 152.848 223.488 152.584 225.007 152.386C225.139 152.386 225.271 152.254 225.271 152.122C225.535 150.67 226.657 146.71 228.637 145.39C230.684 143.938 233.324 143.41 235.767 144.07C236.295 144.334 236.757 144.73 237.153 145.258C237.219 145.39 237.087 145.588 236.955 145.588C235.239 146.182 233.654 147.04 232.334 148.228C231.41 149.218 230.816 150.406 230.618 151.792C230.618 151.858 230.75 151.924 230.882 151.858C232.202 151.858 233.588 151.858 234.975 151.924C235.041 151.924 235.173 151.858 235.173 151.792C235.833 150.208 237.021 148.822 238.605 148.03C239.926 147.37 241.576 147.172 243.16 147.304Z" fill="#E1BE78"/>
<path fill-rule="evenodd" clip-rule="evenodd" d="M299.668 127.702C304.685 129.022 309.636 130.672 314.521 132.52C314.653 132.586 314.653 132.718 314.653 132.85C314.719 133.906 314.653 133.972 314.653 135.094C314.653 135.358 314.521 135.358 314.257 135.292C311.286 134.236 307.061 132.718 303.233 131.728C303.167 131.728 303.101 131.728 303.101 131.794V133.114C303.101 133.18 303.167 133.246 303.233 133.246C307.193 134.302 310.89 135.556 314.455 136.81C314.521 136.81 314.587 136.876 314.587 137.008C314.653 138.064 314.653 139.12 314.587 140.176C314.587 140.242 314.587 140.308 314.521 140.308C311.088 139.054 307.061 137.734 303.101 136.612C303.035 136.612 302.969 136.612 302.969 136.678L302.903 137.932C302.903 137.998 302.969 138.064 303.035 138.13C306.863 139.186 310.692 140.374 314.389 141.826C314.455 141.892 314.521 141.958 314.587 142.024C314.653 142.948 314.587 143.938 314.587 144.862C314.587 144.928 314.587 145.06 314.389 144.994C309.57 143.146 304.619 141.562 299.602 140.176C299.536 140.176 299.47 140.044 299.47 139.978C299.536 135.82 299.602 131.992 299.734 127.834C299.602 127.768 299.602 127.702 299.668 127.702ZM282.504 136.678C283.561 136.876 284.749 137.008 285.607 137.206C285.673 137.206 285.871 137.14 285.871 137.074C285.871 135.688 285.871 134.038 285.871 132.718C285.871 132.652 285.937 132.586 286.003 132.652C288.578 133.114 291.02 133.576 293.529 134.17C293.595 134.17 293.859 134.236 293.859 134.368C293.859 135.82 293.793 137.074 293.793 138.592C293.793 138.724 293.859 138.79 293.991 138.856C294.981 139.054 295.905 139.318 296.895 139.516C297.159 139.582 297.159 139.516 297.159 139.45C297.291 136.348 297.357 131.398 297.423 127.24C297.423 127.174 297.423 127.108 297.357 127.108C296.301 126.844 295.311 126.646 294.255 126.382C294.189 126.382 294.123 126.514 294.123 126.646C293.991 128.164 294.057 129.55 293.925 131.134C293.925 131.2 293.925 131.2 293.859 131.2C291.35 130.672 288.644 130.078 286.135 129.616C286.069 129.616 286.069 129.484 286.069 129.418C286.069 127.9 286.069 126.448 286.069 124.93C286.069 124.864 286.003 124.732 285.871 124.732C284.881 124.534 284.023 124.402 283.032 124.27C282.966 124.27 282.9 124.336 282.9 124.468C282.834 126.316 282.57 134.434 282.57 136.612L282.504 136.678ZM269.5 122.554C268.113 122.488 266.925 123.478 266.661 124.798L266.595 133.048C266.661 133.972 267.321 134.83 268.245 135.028C272.404 135.424 276.497 135.82 281.184 136.48C281.25 136.48 281.382 136.414 281.382 136.348V133.51C281.382 133.444 281.25 133.378 281.184 133.312C278.081 132.916 273.989 132.388 270.292 131.992C270.094 131.926 269.896 131.728 269.896 131.53V125.92C269.896 125.656 270.226 125.59 270.49 125.59C274.121 125.854 277.685 126.514 281.316 126.91C281.382 126.91 281.58 126.844 281.58 126.778L281.646 124.138C281.646 124.006 281.58 123.94 281.448 123.94C277.421 123.412 274.385 123.082 269.5 122.554ZM263.955 122.224C259.994 122.026 255.637 121.96 251.61 122.092C250.752 122.158 249.63 122.818 249.63 123.676L249.564 128.098C249.564 129.022 250.752 129.748 251.676 129.748C254.845 129.814 257.617 129.748 260.72 129.946C260.918 129.946 261.116 130.078 261.116 130.342V131.266C261.116 131.398 260.984 131.596 260.852 131.596C260.852 131.596 260.852 131.596 260.786 131.596C257.221 131.596 253.458 131.398 249.894 131.728C249.696 131.728 249.696 131.662 249.696 131.86L249.564 134.5V134.698C253.855 134.434 258.145 134.434 262.436 134.698C263.492 134.698 264.351 133.906 264.549 132.916L264.615 128.626C264.615 127.768 263.559 127.108 262.832 127.042C259.796 126.844 256.363 126.976 253.326 126.844C253.128 126.844 252.996 126.712 252.996 126.514L253.062 125.524C253.062 125.326 253.194 125.26 253.392 125.26C256.429 125.128 260.984 125.326 264.087 125.392C264.351 125.326 264.483 125.128 264.483 124.93V122.686C264.351 122.554 264.153 122.224 263.955 122.224ZM245.735 130.144C246.593 129.814 247.121 128.956 247.055 128.032C247.121 126.712 247.055 125.458 246.923 124.138C246.725 123.148 245.867 122.488 244.877 122.422C241.972 122.488 235.701 123.28 232.136 123.742V136.084V136.216L235.371 135.82C235.437 135.82 235.437 135.754 235.437 135.688V132.124L241.906 131.398C242.5 131.266 243.16 131.728 243.622 132.52C244.019 133.246 244.283 134.038 244.415 134.83L247.583 134.566C247.649 134.566 247.781 134.566 247.781 134.5C247.781 132.916 246.989 131.266 245.735 130.144ZM243.49 127.438C243.49 127.966 243.094 128.494 242.566 128.56L235.305 129.286L235.239 129.22V126.448H235.305L242.896 125.722C243.16 125.656 243.424 125.854 243.49 126.184C243.49 126.184 243.49 126.184 243.49 126.25V127.438ZM230.222 126.25C230.156 125.722 229.892 125.194 229.496 124.93C229.1 124.534 228.505 124.336 227.911 124.402C224.215 124.996 220.452 125.788 216.689 126.58C216.095 126.778 215.567 127.108 215.105 127.57C214.709 127.966 214.445 128.428 214.379 128.956V136.612C214.379 137.272 214.643 137.932 215.105 138.46C215.435 138.922 215.963 139.186 216.491 139.186C220.254 138.394 224.016 137.602 227.647 137.008C228.373 136.81 229.033 136.414 229.496 135.886C229.892 135.424 230.156 134.896 230.156 134.302L230.222 126.25ZM226.525 133.378C226.525 133.642 226.393 133.906 226.195 134.104C225.931 134.302 225.667 134.368 225.403 134.434C223.422 134.83 220.584 135.358 218.603 135.754C218.405 135.82 218.207 135.754 218.009 135.622C217.877 135.424 217.745 135.16 217.811 134.962V130.012C217.811 129.748 217.943 129.55 218.075 129.352C218.273 129.154 218.603 129.022 218.867 128.956C220.848 128.56 223.422 128.098 225.469 127.768C225.733 127.702 225.997 127.768 226.195 127.9C226.459 128.032 226.591 128.362 226.591 128.626L226.525 133.378ZM213.124 129.946C213.058 129.418 212.794 128.89 212.332 128.626C211.738 128.23 211.012 128.098 210.352 128.23C205.929 129.352 201.44 131.068 196.951 132.718C196.819 132.784 196.753 132.916 196.753 133.048V143.08V145.324C196.753 145.324 199.988 144.136 200.648 143.872C200.714 143.872 200.714 143.74 200.714 143.674L200.648 140.11C200.648 139.978 200.648 139.846 200.78 139.846L211.87 136.414C212.266 136.282 212.596 136.018 212.794 135.754C213.058 135.424 213.19 135.094 213.124 134.698V129.946ZM209.56 133.642C209.56 133.972 209.097 134.302 208.833 134.434L200.714 137.074C200.648 137.074 200.516 137.074 200.516 137.008V134.566C200.516 134.434 200.648 134.368 200.78 134.302C203.486 133.246 206.193 132.322 209.031 131.53C209.295 131.464 209.494 131.728 209.56 131.926C209.56 132.52 209.56 133.114 209.56 133.642Z" fill="#FFE3A8"/>
<path fill-rule="evenodd" clip-rule="evenodd" d="M200.714 134.896C200.582 134.896 200.45 135.028 200.45 135.16V134.566C200.45 134.434 200.582 134.368 200.714 134.302C203.421 133.246 206.127 132.322 208.9 131.53C209.164 131.464 209.362 131.728 209.428 131.926L209.494 132.52C209.494 132.322 209.23 132.058 208.966 132.124C206.193 132.916 203.421 133.84 200.714 134.896ZM213.191 134.632C213.191 135.028 213.059 135.358 212.861 135.688C212.597 136.018 212.266 136.216 211.936 136.348L200.846 139.78C200.78 139.78 200.714 139.912 200.714 140.044V140.638C200.714 140.572 200.714 140.374 200.78 140.374L211.87 137.008C212.266 136.876 212.597 136.612 212.795 136.348C213.059 136.018 213.191 135.688 213.125 135.292L213.191 134.632ZM200.78 143.608C200.78 143.674 200.78 143.806 200.714 143.806C200.054 144.004 196.819 145.258 196.819 145.258V145.786C196.819 145.852 196.819 145.852 196.819 145.918C196.819 145.918 200.054 144.73 200.714 144.466C200.78 144.466 200.78 144.334 200.78 144.268V143.608ZM226.195 127.9C225.997 127.768 225.667 127.702 225.469 127.768C223.423 128.032 220.848 128.56 218.868 128.956C218.538 129.022 218.274 129.154 218.076 129.352C217.878 129.55 217.812 129.748 217.812 130.012V130.672C217.812 130.408 217.944 130.21 218.076 130.012C218.274 129.814 218.604 129.682 218.868 129.616C220.848 129.22 223.423 128.758 225.469 128.428C225.733 128.362 225.997 128.428 226.195 128.56C226.459 128.692 226.591 129.022 226.591 129.286V128.626C226.591 128.296 226.459 128.032 226.195 127.9ZM227.78 136.942C224.083 137.602 220.32 138.328 216.623 139.12C216.029 139.12 215.567 138.856 215.237 138.394C214.841 137.932 214.577 137.338 214.511 136.678V136.612V136.546V137.206C214.577 137.866 214.841 138.46 215.237 138.922C215.699 139.45 216.227 139.78 216.623 139.714C220.32 138.922 224.083 138.196 227.78 137.602C228.506 137.404 229.166 137.008 229.628 136.48C230.024 136.084 230.288 135.49 230.288 134.896V134.236C230.288 134.83 230.024 135.358 229.628 135.82C229.1 136.348 228.44 136.744 227.78 136.942ZM242.897 125.722L235.305 126.448H235.239V127.108H235.305L242.897 126.382C243.161 126.316 243.425 126.514 243.491 126.778C243.491 126.778 243.491 126.778 243.491 126.844V126.184C243.491 125.92 243.227 125.656 242.897 125.722ZM247.122 128.692V127.9C247.188 128.824 246.659 129.682 245.801 130.078C245.933 130.21 246.131 130.342 246.263 130.474C246.791 130.078 247.122 129.418 247.122 128.692ZM247.65 134.698L244.481 134.962C244.415 134.17 244.085 133.378 243.689 132.652C243.161 131.794 242.501 131.398 241.973 131.53L235.503 132.256V132.916L241.973 132.19C242.567 132.058 243.227 132.52 243.689 133.312C244.085 134.038 244.349 134.83 244.481 135.622L247.65 135.358C247.716 135.358 247.848 135.358 247.848 135.292V134.632C247.848 134.698 247.716 134.698 247.65 134.698ZM235.371 135.886L232.137 136.282V136.942L235.371 136.546C235.437 136.546 235.437 136.48 235.437 136.414V135.754C235.437 135.82 235.437 135.82 235.371 135.886ZM263.955 125.986C264.219 125.92 264.351 125.722 264.351 125.524V124.864C264.351 125.128 264.153 125.326 263.955 125.326C260.852 125.26 256.297 125.062 253.261 125.194C253.063 125.194 252.931 125.26 252.931 125.458L252.865 126.052C252.865 125.854 253.063 125.854 253.261 125.788C256.297 125.722 260.852 125.854 263.955 125.986ZM251.676 130.342C254.845 130.408 257.618 130.342 260.72 130.54C260.918 130.54 261.116 130.672 261.116 130.87V130.276C261.116 130.078 260.918 129.946 260.72 129.88C257.684 129.682 254.845 129.748 251.676 129.682C250.752 129.682 249.564 128.956 249.564 128.032V128.692C249.564 129.616 250.752 130.342 251.676 130.342ZM262.371 134.632C258.08 134.368 253.789 134.368 249.498 134.632V135.292C253.789 135.028 258.08 135.028 262.371 135.292C263.427 135.292 264.285 134.5 264.483 133.51V132.85C264.285 133.84 263.427 134.566 262.371 134.632ZM281.317 126.976C277.686 126.58 274.121 125.92 270.49 125.656C270.226 125.656 269.896 125.788 269.896 125.986V126.646C269.896 126.382 270.226 126.316 270.49 126.316C274.121 126.58 277.686 127.24 281.317 127.636C281.383 127.636 281.581 127.57 281.581 127.504V126.844C281.581 126.91 281.449 126.976 281.317 126.976ZM281.184 136.48C276.498 135.754 272.405 135.424 268.246 135.028C267.322 134.83 266.662 133.972 266.596 133.048V133.708C266.662 134.632 267.322 135.49 268.246 135.688C272.405 136.084 276.498 136.414 281.118 137.14C281.184 137.14 281.317 137.074 281.317 137.008L281.383 136.414C281.383 136.414 281.25 136.48 281.184 136.48ZM293.859 134.962C293.859 134.698 293.859 134.566 293.859 134.302C293.859 134.104 293.529 134.104 293.529 134.104C291.02 133.576 288.512 133.048 286.003 132.586C285.937 132.586 285.871 132.586 285.871 132.652C285.871 132.916 285.871 133.048 285.871 133.312C285.871 133.246 285.937 133.18 286.003 133.246C288.578 133.708 291.02 134.17 293.529 134.764C293.529 134.764 293.859 134.83 293.859 134.962ZM285.607 137.206C284.749 137.008 283.561 136.876 282.505 136.678V137.206C283.561 137.404 284.683 137.536 285.541 137.668C285.607 137.668 285.805 137.602 285.805 137.536V137.074C285.805 137.14 285.673 137.206 285.607 137.206ZM296.83 139.516C295.905 139.318 294.915 139.054 293.925 138.856C293.793 138.79 293.727 138.724 293.727 138.592V139.252C293.727 139.384 293.793 139.45 293.925 139.516C294.915 139.714 295.839 139.978 296.764 140.176C297.028 140.242 297.028 140.176 297.028 140.11L297.094 139.45C297.094 139.516 297.094 139.582 296.83 139.516ZM314.257 135.226C311.287 134.17 307.062 132.652 303.233 131.662C303.167 131.662 303.101 131.662 303.101 131.728V132.322C303.101 132.256 303.233 132.256 303.233 132.256C307.062 133.246 311.287 134.698 314.257 135.82C314.521 135.886 314.653 135.886 314.653 135.622L314.719 135.094C314.653 135.292 314.455 135.358 314.257 135.226ZM314.455 140.308C311.023 139.054 306.996 137.734 303.035 136.612C302.969 136.612 302.903 136.612 302.903 136.678V137.272C302.969 137.272 303.035 137.206 303.101 137.272C307.128 138.394 311.023 139.714 314.521 140.968C314.587 140.968 314.587 140.902 314.587 140.836L314.653 140.176C314.521 140.242 314.521 140.308 314.455 140.308ZM314.257 144.994C309.438 143.146 304.487 141.562 299.47 140.176C299.404 140.176 299.338 140.044 299.338 139.978V140.638C299.338 140.704 299.404 140.836 299.47 140.836C304.487 142.156 309.372 143.74 314.191 145.588C314.389 145.654 314.389 145.522 314.389 145.456L314.455 144.862C314.455 144.928 314.389 144.994 314.257 144.994Z" fill="#432918"/>
<path d="M314.125 133.84C314.125 134.104 314.125 134.566 314.125 134.83L313.333 134.566L312.805 134.368H312.739C311.419 133.906 310.098 133.444 308.844 133.048C307.59 132.652 306.468 132.256 305.345 131.992L304.355 131.728L303.365 131.464L302.507 131.266V131.2V131.794V132.388V132.652V133.51L303.035 133.642L303.431 133.774L304.091 133.972L304.751 134.17C306.138 134.566 307.59 135.028 308.976 135.424C310.362 135.886 311.749 136.348 313.135 136.81L313.465 136.942L314.125 137.14V137.47C314.125 137.734 314.125 139.582 314.125 139.582H314.059L313.333 139.384L312.805 139.252C311.353 138.724 309.834 138.262 308.316 137.734C306.798 137.272 305.213 136.744 303.629 136.348L302.375 136.018V137.206V138.328L302.903 138.46L303.893 138.724L304.817 138.988L305.213 139.12L305.609 139.252C306.996 139.648 308.25 140.11 309.504 140.506C310.758 140.902 312.079 141.298 313.201 141.76L313.333 141.826L313.465 141.892L313.663 141.958L314.059 142.09C314.059 142.816 314.059 143.608 313.993 144.334L313.267 144.07L313.135 144.004L313.003 143.938C310.692 143.08 308.448 142.42 306.402 141.76C304.355 141.1 301.847 140.308 299.998 139.846V139.78C299.998 138.79 300.064 136.876 300.064 135.028C300.064 133.18 300.196 128.362 300.196 128.164C300.394 128.164 304.751 129.418 306.798 130.078C308.91 130.738 310.956 131.464 313.069 132.256H313.135L313.465 132.52L314.125 132.784C314.125 133.048 314.125 133.576 314.125 133.84ZM296.764 127.57C296.434 127.504 296.169 127.438 295.839 127.306C295.509 127.174 294.915 127.108 294.651 127.042V127.108C294.651 127.174 294.651 127.306 294.651 127.372V127.504V127.702V127.9V128.296C294.651 128.428 294.651 128.56 294.651 128.692V128.824C294.651 129.22 294.651 129.55 294.651 129.946C294.651 130.342 294.585 130.738 294.585 131.134V131.398V131.86L293.991 131.728L293.595 131.662L293.265 131.596L292.935 131.53L290.228 131.002C289.304 130.804 288.38 130.606 287.456 130.474H287.324H287.192L286.532 130.342C286.333 130.276 286.069 130.276 285.871 130.21L285.673 130.144V128.824V127.504V127.042V125.524V125.26C285.541 125.26 285.277 125.194 285.079 125.194L284.683 125.128C284.485 125.128 284.353 125.062 284.155 125.062C283.957 125.062 283.627 124.996 283.429 124.93V125.26V125.458C283.429 126.118 283.363 127.108 283.363 128.164C283.363 129.22 283.297 130.408 283.231 131.596C283.231 131.926 283.231 132.256 283.231 132.586C283.231 132.916 283.231 133.246 283.165 133.51C283.165 134.038 283.099 134.5 283.099 134.896C283.099 135.358 283.099 136.018 283.099 136.348C283.231 136.348 283.561 136.414 283.693 136.48L284.023 136.546L284.617 136.612C284.815 136.678 285.277 136.744 285.541 136.744H285.607V135.886V135.226C285.607 135.226 285.607 134.83 285.607 134.368C285.607 133.906 285.607 133.312 285.607 132.916V132.652C285.607 132.52 285.607 132.19 285.607 132.124C285.673 132.124 285.871 132.19 286.003 132.19H286.069H286.135C286.532 132.256 287.588 132.454 288.908 132.718C290.228 132.982 291.747 133.312 293.133 133.576L293.331 133.642L293.529 133.708L293.991 133.84L294.453 133.972C294.453 134.104 294.453 134.698 294.453 134.83V135.16V135.49C294.453 135.754 294.453 136.018 294.453 136.282C294.453 136.546 294.453 136.744 294.453 137.008V137.338V137.668V137.8V138.262L295.179 138.46L295.641 138.592L296.103 138.724L296.764 138.856V138.196V137.8C296.83 136.414 296.83 134.896 296.896 133.246C296.896 131.596 296.962 129.88 296.962 128.164V127.57H296.764ZM273.791 123.412C271.877 123.214 270.358 123.016 269.632 122.95C269.038 122.884 268.444 123.148 267.982 123.544C267.52 123.874 267.19 124.336 267.124 124.93C267.058 125.392 267.124 128.89 267.124 128.89V133.048C267.124 133.246 267.19 133.444 267.256 133.642C267.322 133.84 267.454 133.972 267.586 134.104C267.784 134.302 268.114 134.5 268.378 134.566C268.576 134.632 268.708 134.632 268.906 134.632H269.038H269.17C270.886 134.764 272.735 134.962 274.583 135.16C276.431 135.358 278.214 135.556 280.128 135.82L280.986 135.952V134.83V133.84L279.996 133.708L279.27 133.576H279.204H279.138C277.686 133.378 276.167 133.246 274.583 133.048C272.999 132.85 271.546 132.652 269.962 132.52C269.896 132.52 269.764 132.454 269.764 132.388C269.698 132.322 269.698 132.256 269.698 132.124V125.92C269.698 125.722 269.764 125.524 269.896 125.326C270.094 125.194 270.292 125.128 270.556 125.128C271.546 125.194 280.062 126.316 281.382 126.514V125.458C281.382 125.194 281.382 124.864 281.382 124.6V124.336C279.402 124.072 276.299 123.676 273.791 123.412ZM246.989 132.19C247.32 132.85 247.518 133.576 247.584 134.368L244.877 134.5C244.679 133.708 244.415 132.982 244.085 132.256C243.689 131.464 242.897 130.936 241.972 131.002C240.784 131.134 235.107 131.728 235.041 131.728V135.424L233.787 135.622L232.533 135.754V129.88V124.072C232.533 124.072 243.557 122.818 244.811 122.884C246.065 122.95 246.329 123.61 246.395 124.27C246.527 125.656 246.593 126.976 246.527 128.362C246.329 129.088 245.867 129.748 245.273 130.078C245.933 130.672 246.527 131.398 246.989 132.19ZM244.019 126.184C244.019 125.92 243.953 125.722 243.755 125.524C243.491 125.326 243.227 125.26 242.897 125.26L234.909 126.052V127.834V129.616L238.738 129.286L242.567 128.956C242.963 128.956 243.293 128.758 243.623 128.494C243.887 128.23 244.019 127.834 244.019 127.504V126.184ZM229.628 126.25C229.628 126.778 229.694 133.576 229.694 134.17C229.562 135.226 228.836 136.084 227.846 136.348C226.789 136.546 217.746 138.328 216.953 138.526C216.161 138.724 215.105 137.668 215.105 136.744C215.105 135.82 215.105 128.89 215.105 128.89C215.105 128.032 216.029 127.306 216.887 127.108C217.68 126.91 227.251 125.062 227.846 124.93C228.638 124.798 229.496 125.392 229.628 126.25ZM227.119 128.362C227.119 127.702 226.855 127.108 225.799 127.24C224.479 127.438 220.188 128.23 218.802 128.494C217.614 128.692 217.151 129.154 217.151 130.144V135.16C217.151 135.886 217.614 136.414 218.34 136.282C219.066 136.15 225.337 134.962 226.063 134.764C226.723 134.632 227.185 134.038 227.119 133.378C227.185 132.718 227.119 128.692 227.119 128.362ZM262.833 127.372C261.909 127.306 260.918 127.306 259.928 127.24C258.938 127.24 257.882 127.24 256.892 127.24C256.231 127.24 252.865 127.24 252.799 127.24C252.733 127.24 252.667 127.174 252.601 127.108C252.535 126.976 252.469 126.844 252.469 126.712C252.469 126.58 252.469 126.448 252.469 126.25V125.92C252.469 125.59 252.469 125.26 252.535 124.93C252.601 124.798 252.733 124.732 253.063 124.666C253.327 124.666 257.486 124.666 260.258 124.732H260.918H261.314C262.107 124.732 263.031 124.798 263.757 124.798V122.686C262.503 122.62 261.71 122.554 260.456 122.554H260.258C259.598 122.554 258.806 122.488 258.08 122.488C255.175 122.422 251.94 122.488 251.61 122.488C251.28 122.554 250.95 122.686 250.686 122.884C250.422 123.016 250.29 123.28 250.224 123.544V125.92V128.296C250.29 128.56 250.422 128.824 250.686 128.956C250.95 129.154 251.346 129.286 251.676 129.286C252.205 129.286 252.733 129.286 253.261 129.286H254.779C255.835 129.286 256.892 129.286 257.948 129.352C259.004 129.352 260.126 129.418 261.182 129.484C261.512 129.484 261.578 129.616 261.644 129.814C261.71 130.078 261.71 130.276 261.644 130.54V130.804V131.068C261.644 131.332 261.644 131.596 261.578 131.794C261.512 131.926 261.314 131.992 260.918 131.992C260.918 131.992 259.862 131.992 259.466 131.992H258.146H256.627C256.099 131.992 255.637 131.992 255.109 131.992C254.251 131.992 253.393 131.992 252.601 131.992C251.808 131.992 250.884 132.058 250.224 132.124L250.158 134.17C251.28 134.104 252.535 134.104 253.459 134.038C254.383 134.038 255.307 133.972 256.033 133.972C256.825 133.972 257.486 133.972 258.08 133.972C258.674 133.972 259.268 134.038 259.928 134.038L261.182 134.104L262.635 134.17C262.965 134.17 263.295 134.038 263.559 133.774C263.823 133.576 264.021 133.312 264.087 132.982V130.738V128.494C264.021 128.23 263.889 127.966 263.691 127.768C263.361 127.57 263.097 127.438 262.833 127.372ZM212.663 130.012L212.795 134.698C212.795 135.028 212.663 135.358 212.398 135.622C212.266 135.82 212.002 135.952 211.804 136.018L200.252 139.648L200.318 143.608C200.318 143.608 197.413 144.664 197.281 144.664C197.281 144.466 197.281 140.044 197.281 139.12C197.281 137.074 197.215 133.378 197.215 133.246C197.215 133.114 197.281 133.114 197.413 133.048C197.545 132.982 201.11 131.728 205.467 130.21C206.787 129.748 209.824 128.824 210.418 128.758C210.946 128.626 211.474 128.758 211.87 129.022C212.266 129.154 212.597 129.55 212.663 130.012ZM210.022 133.576C210.022 133.246 209.956 132.256 209.956 131.926C209.956 131.728 209.824 131.53 209.692 131.332C209.56 131.134 209.296 131.068 209.098 131.068H208.966C208.966 131.068 206.391 131.794 205.005 132.256C203.619 132.718 200.12 134.038 200.12 134.038C200.12 134.038 200.186 137.47 200.186 137.536L209.032 134.698C209.296 134.632 209.56 134.434 209.758 134.302C209.89 134.104 210.022 133.84 210.022 133.576ZM248.442 175.09V178.324C248.442 178.654 248.376 179.05 248.178 179.38C247.98 179.644 247.65 179.776 247.32 179.776C246.989 179.776 246.659 179.644 246.461 179.38C246.263 179.05 246.197 178.72 246.197 178.324V175.09C246.197 174.826 245.999 174.694 245.801 174.694C245.537 174.694 245.405 174.892 245.405 175.09V178.06C245.339 178.72 245.537 179.314 245.801 179.842C246.197 180.304 246.725 180.568 247.386 180.568C247.98 180.634 248.574 180.37 248.97 179.842C249.3 179.314 249.432 178.654 249.366 178.06V175.09C249.366 174.826 249.168 174.628 248.904 174.628C248.64 174.628 248.442 174.892 248.442 175.09ZM252.799 175.486C252.997 175.486 253.195 175.288 253.195 175.09C253.195 174.892 252.997 174.694 252.799 174.694H250.356C250.158 174.694 249.96 174.892 249.96 175.09C249.96 175.288 250.158 175.486 250.356 175.486H251.148V180.172C251.148 180.436 251.346 180.568 251.544 180.568C251.808 180.568 251.94 180.37 251.94 180.172V175.486H252.799ZM256.627 175.486C256.825 175.486 257.024 175.288 257.024 175.09C257.024 174.892 256.825 174.694 256.627 174.694H254.185C253.987 174.694 253.789 174.892 253.789 175.09C253.789 175.288 253.987 175.486 254.185 175.486H254.977V180.172C254.977 180.436 255.175 180.568 255.373 180.634C255.637 180.634 255.769 180.436 255.835 180.238V175.552H256.627V175.486ZM261.248 177.136H259.928C259.598 177.136 259.532 177.334 259.532 177.466C259.532 177.664 259.664 177.862 259.862 177.862C259.862 177.862 259.862 177.862 259.928 177.862H260.852V178.126C260.918 178.852 260.456 179.578 259.73 179.776C259.268 179.776 258.872 179.512 258.674 179.05C258.476 178.588 258.344 178.06 258.344 177.466C258.344 176.938 258.476 176.41 258.74 175.948C258.872 175.552 259.268 175.288 259.664 175.288C260.06 175.354 260.39 175.552 260.588 175.882C260.72 176.014 260.918 176.08 261.05 176.014C261.248 175.948 261.314 175.816 261.248 175.618C260.984 174.958 260.39 174.496 259.664 174.562C259.004 174.496 258.41 174.826 258.146 175.42C257.75 176.08 257.618 176.74 257.618 177.466C257.618 178.192 257.75 178.918 258.146 179.578C258.41 180.172 259.004 180.568 259.73 180.568C260.06 180.568 260.456 180.436 260.786 180.304C261.314 179.908 261.644 179.314 261.776 178.72C261.843 178.39 261.843 177.994 261.843 177.664C261.776 177.4 261.71 177.136 261.248 177.136ZM275.375 175.486C275.573 175.486 275.771 175.288 275.771 175.09C275.771 174.892 275.573 174.694 275.375 174.694H272.933C272.735 174.694 272.537 174.892 272.537 175.09C272.537 175.288 272.735 175.486 272.933 175.486H273.725V180.172C273.725 180.436 273.923 180.568 274.121 180.634C274.385 180.634 274.517 180.436 274.583 180.238V175.552H275.375V175.486ZM270.358 178.39L270.49 178.324C270.82 178.192 271.084 178.06 271.282 177.796C271.679 177.466 271.811 176.938 271.745 176.476C271.745 175.948 271.414 175.42 271.018 175.09C270.622 174.826 270.094 174.694 269.566 174.694H268.246C268.114 174.694 267.982 174.76 267.916 174.826C267.85 174.892 267.784 175.024 267.784 175.156V180.106C267.784 180.304 267.916 180.568 268.114 180.568H268.18C268.378 180.568 268.576 180.436 268.642 180.172V180.106V178.522H269.434L270.688 180.304C270.754 180.436 270.886 180.502 271.084 180.502C271.348 180.502 271.48 180.37 271.48 180.172C271.48 180.04 271.414 179.908 271.348 179.776L270.358 178.39ZM268.708 177.73V175.486H269.764C270.094 175.486 270.424 175.552 270.622 175.816C270.82 176.014 270.952 176.278 270.952 176.542C270.952 177.202 270.358 177.73 269.698 177.73C269.632 177.73 269.632 177.73 269.566 177.73H268.708ZM265.275 175.09C265.209 174.826 264.945 174.628 264.681 174.628C264.417 174.628 264.153 174.892 264.087 175.156L262.503 180.172C262.437 180.304 262.503 180.436 262.569 180.502C262.635 180.634 262.767 180.7 262.899 180.7C263.097 180.7 263.295 180.7 263.361 180.37L263.625 179.512H265.869L266.133 180.37C266.199 180.568 266.397 180.7 266.529 180.7C266.661 180.7 266.794 180.634 266.926 180.502C266.992 180.37 266.992 180.172 266.926 180.04L265.275 175.09ZM265.539 178.786H263.757L264.681 175.552L265.671 178.786H265.539ZM240.454 177.598C239.926 177.268 239.266 177.07 238.606 177.07C238.21 177.004 237.88 176.608 237.946 176.146C238.078 175.684 238.54 175.42 239.002 175.486C239.398 175.486 239.794 175.618 240.058 175.948C240.322 176.212 240.718 175.948 240.718 175.684C240.718 175.42 240.322 174.694 239.068 174.628C238.606 174.628 238.21 174.76 237.814 174.958C237.418 175.222 237.153 175.618 237.153 176.08C237.087 176.608 237.286 177.07 237.616 177.4C237.946 177.73 238.342 177.862 238.804 177.862C239.332 177.862 239.86 178.126 240.124 178.522C240.256 178.786 240.19 179.116 239.992 179.314C239.728 179.578 239.332 179.644 239.002 179.644C238.606 179.644 238.21 179.512 237.946 179.248C237.814 179.116 237.616 179.05 237.418 179.05C237.087 179.182 237.153 179.512 237.153 179.578C237.55 180.172 238.21 180.568 238.936 180.568C239.53 180.634 240.19 180.37 240.652 179.974C240.982 179.644 241.114 179.248 241.114 178.786C241.048 178.324 240.85 177.862 240.454 177.598ZM244.217 175.486C244.415 175.486 244.613 175.354 244.679 175.09C244.679 174.892 244.547 174.694 244.283 174.628H244.217H241.774C241.576 174.628 241.378 174.76 241.312 175.024C241.312 175.222 241.444 175.42 241.708 175.486H241.774H242.567V180.172C242.567 180.436 242.765 180.568 242.963 180.568C243.227 180.568 243.359 180.37 243.359 180.172V175.486H244.217ZM209.56 152.914C210.22 151.462 211.276 150.208 212.663 149.35C213.323 148.954 213.323 148.756 213.323 148.756C213.323 148.69 213.191 148.624 212.332 148.624C211.012 148.756 209.758 149.284 208.768 150.142C207.513 151.198 206.655 152.584 206.259 154.168C205.995 155.95 205.995 157.798 206.391 159.646C206.391 159.646 204.147 160.702 203.421 161.098C203.223 160.504 202.959 159.91 202.562 159.448C201.836 158.854 200.912 158.788 200.054 159.184C199.328 159.514 198.932 160.24 199.064 161.032C199.13 161.626 199.394 162.154 199.724 162.616C199.13 162.814 198.536 163.144 198.14 163.606C197.545 164.2 197.347 165.058 197.545 165.85C197.81 166.576 198.536 166.972 199.328 166.84C200.252 166.642 201.11 166.18 201.836 165.52C202.166 165.916 202.496 166.246 202.827 166.576C203.223 166.84 203.619 167.038 204.081 166.972C204.477 166.972 204.807 166.906 205.137 166.708C205.797 166.312 206.193 165.586 206.061 164.86C205.929 163.804 204.939 163.408 205.005 163.012C210.022 160.174 215.435 158.062 221.046 156.742C224.875 155.752 228.704 155.158 232.665 154.894C235.173 154.63 237.682 154.894 240.058 155.62C242.038 156.148 243.821 157.138 245.273 158.524H245.339C245.273 156.676 244.283 155.026 242.633 154.234C241.312 153.442 239.794 152.914 238.276 152.782C238.672 152.122 239.068 151.594 239.596 151.066C240.454 150.274 241.51 149.68 242.633 149.482C243.623 149.35 244.679 149.284 245.669 149.284C245.339 148.426 244.481 147.898 243.623 147.898C242.435 147.7 241.246 147.832 240.124 148.228C238.144 149.086 236.559 150.736 235.701 152.716C233.655 152.584 231.542 152.584 229.496 152.716C229.694 151.066 230.354 149.482 231.278 148.096C232.401 146.776 233.853 145.852 235.503 145.39C235.767 145.324 235.965 145.192 236.229 145.06C235.899 144.73 235.437 144.4 233.655 144.334C231.41 144.4 229.298 145.522 228.11 147.37C227.119 149.02 226.525 150.868 226.327 152.848C223.027 153.442 219.198 154.432 219.198 154.432C219.264 153.112 219.528 151.726 220.056 150.538C220.848 148.954 222.036 147.634 223.555 146.776C223.555 146.776 224.149 146.38 224.281 146.314C223.819 146.116 223.357 146.05 222.829 146.116C221.706 146.182 220.65 146.446 219.66 146.974C217.614 148.096 216.359 150.274 216.359 152.584C216.293 153.112 216.425 155.092 216.359 155.554C213.785 156.214 211.276 157.006 208.834 157.93C208.57 156.28 208.834 154.498 209.56 152.914ZM237.153 167.17C237.153 167.17 238.012 166.906 238.342 166.84C238.144 166.708 238.012 166.51 237.748 166.444C237.021 166.048 236.163 165.85 235.305 165.85C234.447 165.85 233.589 166.048 232.797 166.378C231.146 167.302 229.958 168.82 229.43 170.602C229.43 170.602 227.45 170.668 226.723 170.734L223.885 170.932C223.885 170.47 224.017 170.008 224.083 169.48C224.347 168.556 224.809 167.632 225.469 166.906C226.525 165.652 228.044 164.794 229.694 164.464C229.826 164.398 230.024 164.398 230.09 164.332C229.562 164.002 228.902 163.804 228.242 163.804C224.611 163.804 221.574 166.642 221.31 170.338L221.178 171.13C221.178 171.13 219.792 171.46 219.132 171.592C218.01 171.79 216.821 172.054 215.765 172.45C215.831 171.064 216.161 169.744 216.755 168.556C217.349 167.434 218.142 166.378 219.132 165.586C219.396 165.388 219.66 165.19 219.924 164.992C219.594 164.926 219.198 164.86 218.868 164.86C216.755 164.86 214.907 166.18 214.115 168.16C213.455 169.876 213.191 171.724 213.257 173.506C212.2 173.77 209.824 174.694 208.834 175.09C208.57 173.77 208.57 172.45 208.9 171.13C209.164 170.008 209.692 168.952 210.484 168.16C210.682 167.962 210.946 167.698 211.21 167.5C211.144 167.5 210.946 167.368 209.956 167.566C208.24 168.028 206.853 169.348 206.325 171.064C205.929 172.846 205.797 174.694 205.863 176.476C205.269 176.806 203.355 177.664 202.959 177.796C202.893 177.334 202.694 176.872 202.43 176.41C202.1 175.882 201.506 175.618 200.912 175.618C200.582 175.618 200.252 175.684 199.922 175.882C199.592 176.014 199.394 176.344 199.262 176.674C199.13 177.136 199.13 177.598 199.394 177.994C199.526 178.258 199.724 178.456 199.856 178.72C199.988 178.918 200.318 179.314 200.318 179.314C199.658 179.512 199.064 179.776 198.602 180.172C197.81 180.7 197.545 181.756 198.008 182.614C198.272 183.142 198.866 183.472 199.46 183.472C200.45 183.406 201.374 182.944 202.034 182.218C202.034 182.218 202.694 183.274 202.827 183.406C203.157 183.868 203.685 184.132 204.213 184.132C204.543 184.132 204.807 184.066 205.071 183.934C205.665 183.538 206.061 182.944 205.995 182.218C205.929 181.624 205.731 181.03 205.269 180.568L205.203 180.172L206.589 179.446C208.834 178.192 211.21 177.136 213.587 176.212C217.482 174.826 221.508 173.902 225.601 173.44C226.459 173.308 227.317 173.242 228.11 173.308C229.166 173.374 230.222 173.572 231.146 173.968V169.744H232.863C234.051 168.424 235.503 167.5 237.153 167.17ZM231.278 182.878V189.082C230.684 189.016 229.892 188.95 229.298 188.95C223.753 189.28 218.274 190.6 213.191 192.91C210.88 193.9 208.702 195.088 206.523 196.408C207.249 196.804 207.844 197.464 208.174 198.256C208.504 199.444 207.778 200.632 206.127 200.632C204.675 200.698 204.345 199.378 203.883 198.916C203.751 198.982 202.562 200.17 202.1 200.368C201.77 200.566 201.308 200.698 200.912 200.698C200.384 200.698 199.79 200.5 199.46 200.038C199.13 199.642 198.998 199.114 199.13 198.586C199.262 197.926 199.724 197.398 200.252 197.134C200.648 196.936 201.11 196.672 201.44 196.342C201.374 195.946 200.582 195.286 200.318 194.692C200.054 193.834 200.318 192.976 200.978 192.382C201.638 191.986 202.496 191.986 203.091 192.448C203.883 192.91 204.345 194.428 204.477 194.56C204.939 194.23 206.259 193.372 207.117 192.778C206.193 191.128 205.731 189.28 205.797 187.432C206.193 184.594 209.164 182.614 210.616 183.34C209.428 184.528 208.768 186.178 208.702 187.894C208.504 189.148 208.768 190.468 209.296 191.59C209.296 191.59 212.464 190.336 213.587 190.006C212.795 188.026 212.729 185.782 213.389 183.736C214.379 181.822 216.425 180.568 218.604 180.568C215.831 182.416 214.643 185.848 215.567 189.016C216.227 188.884 219.858 187.696 220.254 187.564C220.122 185.386 220.716 183.274 222.036 181.558C223.093 180.106 224.677 179.116 226.459 178.852C226.855 178.852 227.185 178.852 227.582 178.984C227.582 179.116 227.582 179.116 227.317 179.314L227.119 179.446C225.601 180.634 224.347 182.02 223.291 183.67C222.763 184.66 222.499 185.716 222.565 186.838V186.97C222.565 186.97 224.413 186.64 225.865 186.508C227.317 186.376 228.77 186.31 228.77 186.31C228.968 185.716 229.298 185.122 229.628 184.528C230.156 183.868 230.684 183.34 231.278 182.878ZM291.417 209.608C290.228 210.004 289.172 210.796 288.512 211.852C287.39 213.568 286.994 215.548 287.654 215.548C288.116 215.548 288.842 215.548 289.04 215.548C289.832 215.548 290.624 215.548 291.417 215.68C291.549 215.68 291.747 215.548 291.813 215.482C291.945 215.35 292.011 215.152 292.143 215.02C292.737 213.106 293.925 211.39 295.575 210.202C296.235 209.74 296.962 209.476 297.82 209.476C299.008 209.41 300.196 209.938 300.988 210.862C301.253 211.258 299.668 210.466 297.16 213.04C296.368 213.832 295.773 214.822 295.311 215.812C295.311 215.878 295.377 216.076 295.443 216.076C296.566 216.406 298.612 216.868 299.602 217.33C299.8 217.396 300.064 217.33 300.196 217.132C300.724 216.274 301.451 215.548 302.309 214.954C303.233 214.36 304.289 214.096 305.411 214.096H305.609C307.92 214.36 308.118 215.548 308.184 215.68C308.316 215.878 307.656 215.878 307.392 215.944C305.807 216.274 304.355 217.198 303.299 218.518C303.167 218.782 303.761 219.31 303.761 219.31C305.543 220.3 306.468 222.214 306.137 224.194C306.071 224.524 306.137 224.722 305.807 224.722C305.477 224.524 305.147 224.326 304.883 224.062C303.827 223.138 302.771 222.346 301.649 221.554C299.8 220.366 297.754 219.574 295.575 219.178C293.925 218.848 292.209 218.716 290.558 218.65C286.796 218.716 283.033 219.244 279.402 220.3C278.742 220.498 276.365 221.158 274.319 221.818L273.065 222.214L273.923 221.488C274.847 220.63 275.705 219.706 276.497 218.716L277.092 217.99L278.082 217.726L282.241 216.802C282.703 216.67 283.033 216.34 283.099 215.878C283.297 214.228 284.023 212.71 285.079 211.522C285.937 210.136 287.39 209.212 289.04 209.014C290.954 208.816 291.747 209.476 291.417 209.608ZM261.248 241.156C260.588 240.628 260.126 239.836 260.06 238.978C260.06 238.12 260.522 237.394 261.314 237.064C262.173 236.734 263.097 236.8 263.889 237.262C264.813 237.922 264.879 238.582 265.209 239.572C265.275 239.572 265.275 239.638 265.341 239.638C266.133 239.242 267.586 238.582 268.576 238.054L269.104 237.79C269.104 237.79 269.302 237.724 269.236 237.394C268.906 236.338 268.774 235.282 268.774 234.226C268.84 233.038 269.236 231.85 269.896 230.86C271.414 228.286 274.253 228.55 273.989 228.748C272.999 229.87 272.339 231.256 272.075 232.774C271.943 233.632 271.943 234.49 272.075 235.282C272.141 235.678 272.141 236.074 272.405 236.206C272.603 236.338 273.527 235.876 274.121 235.678C274.847 235.414 275.837 235.282 276.431 235.084C276.828 234.952 276.696 234.754 276.696 234.688C276.63 232.378 277.29 230.068 278.544 228.154C279.534 226.834 281.052 225.976 282.637 225.844C283.231 225.778 284.089 226.042 283.825 226.24C283.495 226.438 283.165 226.702 282.835 226.966C281.911 227.692 281.184 228.55 280.524 229.54C279.798 230.992 279.534 232.576 279.798 234.226C281.118 234.226 282.373 234.094 283.627 233.698C283.825 233.632 283.957 233.434 284.023 233.236C284.485 231.784 285.013 228.946 286.532 227.956C287.258 227.296 288.248 226.966 289.238 226.9C289.964 226.834 291.879 227.428 291.417 227.626C290.228 228.154 289.172 228.946 288.38 229.936C287.786 230.728 287.39 231.652 287.258 232.642C287.126 233.17 287.72 233.368 287.72 233.368C288.776 233.434 289.832 233.566 290.822 233.764C291.152 233.83 291.351 233.434 291.417 233.302C291.879 232.576 292.473 231.85 293.133 231.322C293.793 230.662 294.651 230.266 295.575 230.2C297.49 230.2 298.48 231.586 298.216 231.718C296.566 232.114 295.113 233.104 294.057 234.49C293.991 234.556 293.793 234.688 294.123 234.886C295.839 236.338 297.028 238.318 297.358 240.562C297.358 240.76 297.49 241.552 297.226 241.618C295.971 240.166 294.519 238.846 292.935 237.79C290.69 236.668 288.248 236.074 285.739 236.14C282.703 236.14 279.666 236.602 276.762 237.46C273.527 238.45 270.424 239.836 267.52 241.552C267.982 241.882 268.312 242.344 268.51 242.872C268.906 243.796 268.642 244.852 267.85 245.512C267.388 245.908 266.728 245.974 266.133 245.776C264.747 245.578 264.351 244.126 264.153 243.73C263.955 244.192 263.625 244.588 263.163 244.852C262.239 245.578 260.984 245.446 260.258 244.522C260.192 244.456 260.192 244.39 260.126 244.324C259.532 243.466 259.664 242.344 260.456 241.684C261.182 241.288 261.248 241.156 261.248 241.156ZM266.133 258.514C265.869 258.052 265.671 257.59 265.539 257.062C265.143 256.006 265.011 254.884 265.143 253.762C265.407 252.376 266.595 251.32 267.982 251.254C267.322 251.98 266.992 252.97 267.19 253.96C267.256 254.95 267.586 255.874 268.048 256.732C268.18 256.864 268.246 256.798 268.312 256.798C269.104 256.402 269.896 256.006 270.688 255.676C270.754 255.676 270.754 255.61 270.754 255.544C270.226 253.696 270.424 251.716 271.348 250.066C272.075 248.746 273.329 247.888 274.847 247.624C274.913 247.624 275.837 247.624 275.837 247.954C274.847 248.68 274.055 249.67 273.527 250.792C273.131 251.914 272.999 253.168 273.263 254.356C273.263 254.422 273.395 254.422 273.395 254.422C274.319 254.158 275.177 253.96 276.167 253.762C276.233 253.696 276.299 253.63 276.365 253.564C276.696 251.848 277.62 250.264 278.874 249.142C279.864 248.35 281.052 247.822 282.307 247.69C283.957 247.624 284.155 248.218 284.353 248.416C284.485 248.548 284.023 248.35 283.231 248.68C282.307 249.142 281.448 249.802 280.788 250.594C280.194 251.32 279.798 252.178 279.666 253.168C279.666 253.234 279.666 253.366 279.732 253.366C280.656 253.498 281.581 253.762 282.505 254.026C282.571 254.026 282.637 254.026 282.637 253.96C283.165 252.97 283.825 252.046 284.617 251.254C285.409 250.528 286.399 250.198 287.456 250.132C288.116 250.132 288.71 250.33 289.238 250.66C289.238 250.66 289.898 251.188 289.7 251.254C288.578 251.584 287.588 252.178 286.862 253.036C285.739 254.356 285.739 254.686 285.673 254.95C285.607 255.28 285.607 255.346 285.937 255.61C287.654 256.732 287.918 257.656 287.984 258.316C288.116 258.976 287.654 259.966 287.126 259.24C286.399 258.25 285.343 257.59 284.221 257.194C282.637 256.534 280.92 256.204 279.138 256.204C277.554 256.204 275.903 256.468 274.385 256.996C272.339 257.59 270.424 258.58 268.642 259.834C268.378 260.032 268.114 260.23 267.85 260.428C267.322 260.824 266.794 261.286 266.331 261.748C266.133 261.946 266.463 262.078 266.661 262.144C268.642 263.002 268.708 264.388 268.18 264.982C267.718 265.444 266.992 265.576 266.463 265.246C264.945 264.256 265.209 263.398 264.549 263.596C264.087 263.728 263.625 264.85 263.295 265.312C262.767 265.972 261.776 266.104 261.116 265.576C260.39 264.982 260.258 263.926 260.786 263.134C261.182 262.804 261.578 262.474 261.975 262.144C261.909 262.078 260.852 261.418 260.456 261.088C259.796 260.428 259.796 259.372 260.456 258.712C260.456 258.646 260.522 258.646 260.588 258.646C261.38 258.052 262.503 258.25 263.097 259.042C263.097 259.042 263.823 260.032 263.889 260.098C263.955 260.164 264.021 260.164 264.087 260.098C264.351 259.834 265.935 258.646 266.001 258.58C266.133 258.58 266.199 258.514 266.133 258.514ZM275.441 201.886C275.243 201.952 274.979 201.952 274.781 201.886C274.583 201.82 274.319 201.688 274.187 201.49C274.055 201.358 273.923 201.16 273.857 200.896C273.857 200.764 273.989 200.632 274.121 200.566C274.451 200.302 274.781 199.972 274.979 199.642C275.177 199.312 275.243 198.916 275.243 198.52C275.243 198.454 275.111 198.388 275.045 198.454C274.781 198.652 274.649 198.982 274.385 199.18C274.121 199.378 273.857 199.444 273.527 199.444C273.329 199.444 273.131 199.312 272.999 199.18C272.867 198.982 272.801 198.784 272.735 198.586C272.669 198.388 272.933 198.256 273.131 198.256C273.527 198.256 273.923 198.124 274.253 197.926C274.451 197.794 274.649 197.596 274.781 197.332C274.847 197.134 274.913 196.936 274.913 196.738C274.913 196.672 274.979 196.606 274.847 196.606C274.649 196.672 274.517 196.804 274.319 196.87C273.989 197.002 273.593 196.936 273.263 196.804C272.933 196.54 272.669 196.276 272.471 195.88C272.405 195.814 272.471 195.682 272.537 195.682C272.867 195.616 273.131 195.286 273.395 194.824C273.461 194.758 273.527 194.626 273.527 194.56C273.593 194.428 273.725 194.296 273.725 194.23C273.791 193.966 273.791 193.702 273.791 193.438C273.791 193.24 273.659 193.042 273.461 192.844C273.395 192.778 273.263 192.778 273.197 192.844C273.065 193.108 273.131 193.438 272.999 193.702C272.801 193.966 272.603 194.23 272.339 194.428C272.207 194.56 272.009 194.692 271.877 194.626C271.612 194.494 271.414 194.23 271.348 193.966C271.282 193.636 271.414 193.306 271.546 193.042C271.877 192.448 272.207 191.854 272.603 191.326C272.933 190.93 273.197 190.666 273.527 190.27C273.725 190.006 273.857 189.412 273.593 189.28C273.329 189.148 273.197 189.808 272.933 189.94C272.075 190.27 271.216 190.732 270.49 191.26C270.16 191.722 269.896 192.25 269.764 192.778C269.632 193.108 269.698 193.57 269.632 193.834C269.566 193.966 269.368 194.032 269.236 193.966C268.972 193.702 268.774 193.372 268.642 192.976C268.576 192.712 268.576 192.448 268.708 192.184C268.774 192.052 268.642 191.986 268.576 192.052C268.246 192.25 267.982 192.58 267.85 192.91C267.718 193.438 267.718 193.966 267.982 194.428C268.378 195.154 268.84 195.814 269.368 196.474C269.764 197.068 270.226 197.728 270.556 198.322C270.886 198.784 271.018 199.444 270.952 199.972C270.82 200.566 270.49 201.16 270.028 201.556C269.962 201.622 269.83 201.622 269.764 201.622C269.302 201.16 268.774 200.764 268.312 200.368C267.718 199.972 266.992 199.708 266.265 199.576C265.341 199.444 264.483 199.444 263.559 199.576C262.635 199.576 261.644 199.774 260.72 199.708C259.928 199.774 259.202 199.642 258.41 199.378C257.882 199.18 257.42 198.784 257.09 198.256C256.825 197.728 256.693 197.068 256.825 196.474C256.891 196.012 257.024 195.484 257.222 195.088C257.42 194.692 257.75 194.362 258.08 194.164C258.476 193.9 259.004 193.834 259.466 193.966C259.73 194.098 259.928 194.23 260.126 194.362C260.324 194.494 260.522 194.692 260.654 194.89H260.786C260.852 194.23 260.786 193.57 260.522 192.976C260.258 192.514 259.994 192.052 259.664 191.656C259.664 191.524 259.928 191.59 260.06 191.524C260.588 191.524 261.05 191.656 261.512 191.92C261.776 192.118 262.041 192.382 262.239 192.646H262.371C262.437 191.854 262.173 191.128 261.644 190.534C261.446 190.204 261.116 189.94 260.72 189.742C260.522 189.676 260.852 189.478 261.05 189.478C261.446 189.412 261.843 189.478 262.239 189.676C262.371 189.742 262.503 189.808 262.635 189.94C262.701 190.006 262.767 190.072 262.899 190.138C262.965 190.204 263.031 190.072 263.031 190.006C262.965 189.808 262.899 189.544 262.767 189.346C262.173 188.752 261.512 188.224 260.852 187.696C260.786 187.63 260.654 187.564 260.654 187.564C260.456 187.3 260.324 187.036 260.258 186.706C260.192 186.574 260.06 186.508 259.994 186.31C259.928 186.178 259.994 185.98 260.06 185.848C260.258 185.452 260.456 185.452 260.852 185.254C261.182 185.122 261.512 185.056 261.843 185.056C261.975 185.056 262.041 185.122 262.173 185.122C262.239 185.122 262.239 184.99 262.107 184.858C261.71 184.594 261.248 184.462 260.786 184.462C260.126 184.33 259.532 184.396 258.872 184.594C258.41 184.858 257.948 184.99 257.42 184.99C257.09 184.99 256.759 184.924 256.429 184.792C256.231 184.66 256.033 184.462 256.033 184.264C256.033 183.868 256.099 183.472 256.297 183.142C256.429 182.878 256.693 182.68 256.958 182.614C257.156 182.548 257.288 182.482 257.222 182.35C257.222 182.218 256.958 182.284 256.892 182.35C256.297 182.482 255.769 182.68 255.307 183.01C254.911 183.34 254.647 183.736 254.317 184.132C254.251 184.198 254.185 184.264 254.053 184.33C253.921 184.396 253.855 184.33 253.723 184.396C253.327 184.528 252.931 184.726 252.535 184.924C252.139 185.122 251.808 185.452 251.412 185.584C251.082 185.65 250.752 185.716 250.422 185.716C249.762 185.65 248.904 185.65 248.772 186.442C248.706 186.574 248.772 186.772 248.97 186.838C249.102 186.904 249.168 186.97 249.3 187.036L249.696 187.168C249.762 187.168 249.894 187.234 249.96 187.3V187.366V187.432C249.96 187.432 249.96 187.432 249.96 187.498C249.894 187.63 249.828 187.696 249.696 187.696C249.366 187.762 248.97 187.696 248.64 187.564L248.574 187.498C248.442 187.432 248.244 187.432 248.112 187.564C247.386 188.158 246.659 188.686 245.933 189.148C245.867 189.214 245.801 189.28 245.735 189.346C245.669 189.412 245.669 189.478 245.669 189.478C245.669 189.544 245.669 189.61 245.669 189.61C245.669 189.808 245.471 189.874 245.339 189.874C245.207 189.94 245.075 190.072 245.075 190.204C245.075 190.336 245.075 190.468 245.075 190.6C245.141 190.864 245.339 190.996 245.603 190.996C245.669 190.996 245.669 190.996 245.735 190.93C245.933 190.864 246.131 190.798 246.329 190.732C246.461 190.666 246.527 190.732 246.659 190.798C246.659 190.798 246.659 190.798 246.725 190.864V190.93C246.725 190.996 246.725 191.062 246.659 191.062C246.593 191.194 246.527 191.326 246.395 191.392C246.329 191.524 246.263 191.722 246.395 191.788C246.659 191.986 247.056 191.986 247.32 191.722C247.452 191.59 247.518 191.458 247.584 191.326C247.65 191.128 247.782 190.996 247.98 190.93C248.31 190.798 248.64 190.732 248.97 190.732C249.234 190.732 249.432 190.798 249.696 190.93C249.762 190.996 249.828 190.996 249.828 191.062V191.128V191.194C249.828 191.194 249.828 191.194 249.828 191.26C249.762 191.524 249.696 191.722 249.564 191.92C249.498 192.052 249.498 192.25 249.366 192.448C249.3 192.646 249.168 192.844 249.168 192.976C249.102 193.108 249.102 193.108 248.97 193.24C248.64 193.504 248.244 193.768 247.98 194.032C247.452 194.56 246.989 195.088 246.593 195.748C246.461 195.946 246.395 196.144 246.329 196.408C246.197 196.936 246.131 197.596 245.471 197.266C244.877 196.936 244.283 196.54 243.689 196.144C243.491 196.012 243.293 195.814 243.161 195.55C242.633 194.758 241.906 195.484 241.51 196.078C240.916 197.002 240.256 197.86 239.596 198.718C239.464 198.85 239.398 198.982 239.332 199.18C239.266 199.378 239.134 199.642 238.936 199.774C238.738 200.038 238.672 200.368 238.672 200.698C238.672 201.226 238.54 201.82 238.21 202.216C237.946 202.48 237.814 202.81 237.814 203.14C237.814 203.47 237.814 203.734 237.814 204.064C237.814 204.262 237.946 204.46 238.144 204.46C238.21 204.46 238.276 204.46 238.342 204.394C238.804 204.196 239.266 203.998 239.662 203.668C239.728 203.602 239.794 203.602 239.794 203.536C239.926 203.404 239.926 203.206 239.86 203.074C239.86 203.008 239.794 203.008 239.794 202.942L239.728 202.876C239.662 202.81 239.53 202.744 239.53 202.612V202.546C239.53 202.414 239.53 202.348 239.53 202.216C239.53 202.084 239.596 201.952 239.596 201.82C239.596 201.688 239.662 201.49 239.794 201.424C239.992 201.226 240.19 201.094 240.454 200.896C240.784 200.632 240.85 200.236 240.718 199.84C240.718 199.774 240.652 199.708 240.652 199.642C240.652 199.576 240.652 199.576 240.652 199.51C240.652 199.312 240.784 199.18 240.85 199.048C240.982 198.85 241.114 198.652 241.246 198.454C241.444 198.124 241.774 197.86 242.171 197.794C242.633 197.728 243.095 197.86 243.491 198.19C243.887 198.652 244.151 199.246 244.217 199.84C244.349 200.302 244.547 200.764 244.811 201.226C245.009 201.556 245.405 201.688 245.735 201.49C245.801 201.49 245.801 201.424 245.867 201.424L245.933 201.358H245.999C246.131 201.292 246.263 201.358 246.329 201.49C246.527 201.688 246.725 201.886 246.923 202.084C247.188 202.216 246.989 202.414 246.725 202.414C246.527 202.414 246.395 202.414 246.197 202.414C246.065 202.414 245.933 202.414 245.801 202.48C244.811 202.81 243.755 202.942 242.699 202.942C242.633 202.942 242.567 202.942 242.501 202.942C242.369 202.942 242.237 203.074 242.237 203.14C242.237 203.206 242.171 203.206 242.171 203.272C242.104 203.338 242.104 203.47 242.038 203.602C241.972 203.866 241.972 204.13 242.038 204.328C242.435 205.78 242.567 207.232 242.369 208.684C242.237 209.212 242.369 209.74 242.699 210.202C242.831 210.334 243.029 210.466 243.161 210.532C243.227 210.532 243.293 210.598 243.359 210.664C243.491 210.796 243.557 210.994 243.557 211.192C243.557 211.456 243.689 211.72 243.887 211.984C244.151 212.314 244.481 212.578 244.877 212.776C244.943 212.776 244.943 212.842 245.009 212.842C245.207 212.908 245.471 212.842 245.537 212.644C245.735 212.182 245.867 211.654 245.867 211.126C245.867 210.862 245.669 210.664 245.471 210.598H245.405C245.339 210.598 245.207 210.598 245.141 210.664C245.075 210.664 245.075 210.73 245.009 210.73H244.943H244.877H244.811H244.745C244.613 210.664 244.547 210.532 244.481 210.4C244.349 210.136 244.349 209.806 244.415 209.476C244.415 209.41 244.481 209.278 244.481 209.212C244.481 209.08 244.547 208.948 244.481 208.816C244.481 208.684 244.415 208.552 244.349 208.42C244.217 208.156 244.217 208.09 244.019 208.024H243.953C243.887 208.024 243.755 207.958 243.689 207.892C243.689 207.892 243.689 207.892 243.623 207.826C243.557 207.76 243.557 207.694 243.623 207.628C243.755 206.968 243.755 206.242 243.689 205.516C243.689 205.318 243.623 205.054 243.821 204.856C244.283 204.46 245.075 204.79 245.603 204.988C246.263 205.186 246.923 205.384 247.584 205.516C248.706 205.648 249.828 205.318 250.752 204.658C250.818 204.592 250.818 204.592 250.95 204.592C251.346 204.79 251.544 205.054 251.874 205.318C252.667 205.846 253.591 206.242 254.515 206.572C255.769 206.704 257.09 206.704 258.344 206.506C258.674 206.506 259.004 206.572 259.268 206.704C259.334 206.704 259.4 206.77 259.4 206.902C259.4 207.364 259.202 207.826 259.202 208.288C259.202 208.552 259.334 208.816 259.466 209.014C259.598 209.212 259.664 209.542 259.796 209.74L259.928 210.004C260.654 210.928 260.654 212.182 259.994 213.172C259.532 213.634 259.004 214.03 258.476 214.426C257.948 214.822 257.354 215.086 256.693 215.086C256.231 215.086 255.835 215.284 255.505 215.548C255.175 215.944 254.713 216.274 254.251 216.472C254.053 216.538 253.921 216.67 253.855 216.868C253.657 217.396 253.459 217.924 253.393 218.518C253.327 218.848 253.591 218.914 253.855 218.914C254.317 218.848 254.779 218.716 255.241 218.518C255.505 218.452 255.637 218.188 255.571 217.924C255.571 217.924 255.571 217.858 255.505 217.858L255.373 217.462C255.373 217.396 255.373 217.396 255.373 217.33V217.264V217.198C255.373 217.132 255.439 217.132 255.439 217.066C255.505 217 255.637 216.868 255.703 216.802C255.835 216.736 255.967 216.67 256.165 216.67C256.297 216.67 256.363 216.736 256.495 216.736C257.09 216.934 257.684 216.736 258.014 216.208C258.08 216.142 258.08 216.076 258.146 216.01C258.278 215.812 258.41 215.68 258.542 215.548C259.73 214.756 261.05 214.096 262.437 213.634C262.569 213.634 262.635 213.502 262.701 213.37C262.701 213.172 262.701 213.04 262.701 212.842C262.635 212.38 262.635 211.852 262.701 211.39C262.701 211.06 262.833 210.466 263.295 210.466C263.493 210.466 263.625 210.598 263.691 210.73C264.153 211.258 264.681 211.72 265.341 211.918C265.539 211.984 265.737 212.05 265.935 212.116C266.463 212.38 266.794 212.842 266.926 213.37C266.992 213.7 266.926 213.964 266.728 214.228C266.265 214.822 265.803 215.482 265.407 216.142C265.209 216.472 264.945 216.802 264.615 217C264.087 217.33 263.625 217.726 263.163 218.122C262.767 218.386 262.503 218.716 262.239 219.112C261.975 219.772 261.776 220.432 261.578 221.092C261.446 221.488 261.71 221.554 262.041 221.488C262.569 221.356 263.031 221.158 263.493 220.894C263.559 220.828 263.625 220.828 263.691 220.762C263.757 220.696 263.823 220.564 263.757 220.498C263.757 220.3 263.691 220.168 263.559 220.036C263.427 219.904 263.361 219.64 263.427 219.442C263.427 219.442 263.427 219.376 263.493 219.376C263.559 219.244 263.691 219.178 263.823 219.178C264.219 219.046 264.549 218.98 264.945 218.848C265.407 218.782 265.869 218.518 266.265 218.188C266.331 218.122 266.397 217.99 266.397 217.924V217.858C266.86 216.34 267.85 215.02 269.236 214.228C269.434 214.162 269.5 213.964 269.566 213.766C269.632 213.568 269.566 213.37 269.5 213.172L268.444 211.522C268.114 211.126 267.916 210.598 267.85 210.07C267.85 209.542 267.982 209.014 268.246 208.486C268.312 208.354 268.444 208.222 268.51 208.09C268.708 207.694 269.038 207.562 269.302 207.166C269.566 206.836 269.83 206.44 270.094 206.044C270.358 205.516 270.49 204.988 270.622 204.46C270.754 204.064 270.556 203.602 270.556 203.14C270.556 203.008 270.622 202.81 270.754 202.744C270.952 202.48 271.216 202.282 271.48 202.15C271.811 202.084 272.075 202.084 272.405 202.216C272.933 202.348 273.329 202.612 273.857 202.744C274.121 202.81 274.451 202.81 274.715 202.678C275.045 202.612 275.309 202.414 275.507 202.216C275.507 202.084 275.507 201.886 275.441 201.886ZM256.297 193.042C256.363 193.636 255.901 194.164 255.307 194.164C255.241 194.164 255.241 194.164 255.175 194.164C254.977 194.164 254.911 193.834 254.845 193.372C254.845 193.042 254.845 192.91 254.845 192.844C254.845 192.646 254.845 192.382 254.845 192.184C254.845 192.052 254.845 191.854 254.845 191.722C254.845 191.59 254.845 191.326 254.845 191.194C254.845 190.798 254.845 190.402 254.779 190.006C254.713 189.544 254.581 189.016 254.449 188.554C254.383 188.224 254.251 188.026 254.119 187.696C254.053 187.564 253.987 187.432 253.921 187.3C253.855 187.168 253.789 187.102 253.657 186.97C253.525 186.838 253.327 186.772 253.195 186.64C253.129 186.574 253.195 186.508 253.261 186.508C253.789 186.178 254.515 186.31 254.977 186.706C255.703 187.3 256.165 188.224 256.231 189.214C256.495 190.402 256.495 191.722 256.297 193.042ZM198.206 220.234H237.087C233.457 216.34 231.41 211.192 231.344 205.912V205.318H195.829C196.027 210.334 196.819 215.35 198.206 220.234ZM254.383 238.978H206.061C207.315 241.288 208.702 243.598 210.22 245.908C212.068 248.746 214.115 251.452 216.359 254.026H254.383V238.978ZM316.766 171.922H281.118V174.892V181.294V185.122H316.568C316.634 180.766 316.7 176.344 316.766 171.922ZM317.162 149.746C317.162 149.746 317.096 149.746 317.096 149.68C310.692 147.106 304.157 144.994 297.49 143.278C288.314 141.034 278.94 139.516 269.566 138.724C265.077 138.328 261.05 138.196 256.561 138.13V152.782H317.096C317.162 151.726 317.162 150.736 317.162 149.746ZM278.874 171.46H233.259C233.193 171.46 233.127 171.526 233.127 171.592L233.193 205.384C233.325 211.522 236.031 217.264 240.784 221.224C245.075 224.92 250.554 227.032 256.231 227.098C260.456 227.032 264.549 225.91 268.114 223.732C272.669 221.092 276.167 216.868 277.95 211.918C278.544 210.268 278.874 208.486 278.94 206.704V171.592C279.006 171.46 278.94 171.46 278.874 171.46ZM277.95 206.374C277.95 208.09 277.62 209.806 277.026 211.39C275.309 216.142 272.009 220.168 267.652 222.742C264.219 224.788 260.324 225.91 256.297 225.976C250.884 225.91 245.669 223.93 241.576 220.3C237.087 216.538 234.447 210.928 234.381 205.054L234.249 172.648C234.249 172.582 234.249 172.516 234.315 172.516H277.818C277.884 172.516 277.95 172.582 277.95 172.582V206.374ZM264.747 227.296C263.229 227.89 261.644 228.286 259.994 228.55C260.06 228.682 260.06 228.814 260.126 228.946C260.258 229.276 260.588 229.54 260.984 229.54C261.512 229.606 261.909 229.276 262.305 228.418C262.371 228.352 262.569 228.22 262.635 228.352C263.031 229.012 263.955 229.606 264.615 229.276C265.143 228.946 265.275 228.286 264.945 227.824C264.945 227.824 264.945 227.758 264.879 227.758C264.945 227.692 264.813 227.362 264.747 227.296Z" fill="black"/>
<path fill-rule="evenodd" clip-rule="evenodd" d="M120.611 341.612H163.896C165.856 341.612 167.443 340.029 167.443 338.09V318.912C167.443 316.975 165.856 315.39 163.896 315.39H120.611C118.651 315.39 117.063 316.975 117.063 318.912V338.09C117.065 340.029 118.651 341.612 120.611 341.612ZM123.363 320.478H161.342C161.993 320.478 162.524 321.007 162.524 321.652V335.352C162.524 335.997 161.993 336.526 161.342 336.526H123.363C122.712 336.526 122.181 335.997 122.181 335.352V321.652C122.181 321.005 122.712 320.478 123.363 320.478Z" fill="black"/>
<path fill-rule="evenodd" clip-rule="evenodd" d="M59.7998 341.612H64.9154V335.352H106.438C108.494 335.352 110.178 333.678 110.178 331.634V319.108C110.178 317.063 108.494 315.39 106.438 315.39H64.9154H63.5375H59.7998V319.108V331.634V341.612ZM64.9154 330.262V320.478H66.2913H99.7446H103.484C104.349 320.478 105.058 321.181 105.058 322.044V328.698C105.058 329.558 104.351 330.264 103.484 330.264H99.7446H66.2933L64.9154 330.262Z" fill="black"/>
<path fill-rule="evenodd" clip-rule="evenodd" d="M174.133 341.612H179.25V335.352H216.134L219.366 341.612H224.897L221.614 335.256C223.268 334.874 224.509 333.39 224.509 331.632V319.106C224.509 317.062 222.827 315.388 220.771 315.388H179.25H177.872H174.133V319.106V331.632V341.612ZM179.25 330.262V320.478H180.626H214.08H217.817C218.684 320.478 219.393 321.181 219.393 322.044V328.698C219.393 329.558 218.686 330.264 217.817 330.264H214.08H180.626L179.25 330.262Z" fill="black"/>
<path fill-rule="evenodd" clip-rule="evenodd" d="M345.339 341.612H350.456V331.044H388.041V341.612H393.159V315.388H388.041V325.958H350.456V315.388H345.339V341.612Z" fill="black"/>
<path fill-rule="evenodd" clip-rule="evenodd" d="M293.785 341.612H337.665V336.458C337.542 336.501 337.409 336.524 337.271 336.524H296.537C295.89 336.524 295.355 335.995 295.355 335.35V321.65C295.355 321.005 295.888 320.476 296.537 320.476H337.271C337.409 320.476 337.542 320.501 337.665 320.544V315.388H293.785C291.827 315.388 290.239 316.973 290.239 318.91V338.088C290.239 340.029 291.827 341.612 293.785 341.612Z" fill="black"/>
<path fill-rule="evenodd" clip-rule="evenodd" d="M401.03 341.612H403.984H406.148H451.8V336.524H406.148V331.044H451.8V325.958H406.148V320.478H451.8V315.388H406.148H403.984H401.03V341.612Z" fill="black"/>
<path fill-rule="evenodd" clip-rule="evenodd" d="M238.681 322.826V321.65C238.681 321.005 239.212 320.476 239.861 320.476H280.598C280.735 320.476 280.868 320.501 280.99 320.544V315.388H237.109C235.149 315.388 233.562 316.973 233.562 318.91V320.476V322.824V327.52C233.562 329.457 235.149 331.042 237.109 331.042H240.845V331.109C240.968 331.068 241.1 331.042 241.237 331.042H274.69C275.341 331.042 275.872 331.571 275.872 332.218V334.174V335.35C275.872 335.995 275.341 336.524 274.69 336.524H233.955C233.818 336.524 233.685 336.501 233.562 336.458V341.612H277.442C279.402 341.612 280.99 340.027 280.99 338.09V336.524V334.176V329.48C280.99 327.542 279.402 325.956 277.442 325.956H273.71V325.889C273.585 325.932 273.453 325.956 273.314 325.956H239.859C239.21 325.956 238.679 325.427 238.679 324.78L238.681 322.826Z" fill="black"/>
</svg>
