<svg width="512" height="512" viewBox="0 0 512 512" fill="none" xmlns="http://www.w3.org/2000/svg">
<path fill-rule="evenodd" clip-rule="evenodd" d="M399.021 442.078V412.854H397.139L381.42 442.078H357.731L342.012 412.854H340.573V442.078H305.15V389.829H360.609L370.351 406.101L380.756 389.829H434.001V442.078H399.021Z" fill="black"/>
<path fill-rule="evenodd" clip-rule="evenodd" d="M156.484 424.145C156.484 424.145 171.428 421.046 171.428 409.201C171.428 389.94 147.96 389.94 147.96 389.94H78V442.631H116.19V425.252H122.057L135.119 442.299H175.745L156.484 424.145ZM124.825 412.965H115.858V400.677H125.71C129.363 400.899 132.241 403.998 132.241 407.651C132.241 412.854 124.935 412.965 124.935 412.965H124.825Z" fill="black"/>
<path fill-rule="evenodd" clip-rule="evenodd" d="M268.288 389.94H211.058L183.605 442.189H222.238L227.552 429.569H251.13L256.222 442.078H295.409L268.288 389.94ZM231.205 417.614L239.507 401.342L247.699 417.614H231.205Z" fill="black"/>
<path d="M256.11 70.0277C265.076 70.0277 273.932 70.0277 282.898 70.0277C295.296 70.2491 307.805 70.6919 320.203 71.1346C331.494 71.5774 342.674 72.1309 353.965 72.9058C361.16 73.2379 368.356 74.0127 375.44 75.3411C376.99 75.6732 378.429 76.116 379.868 76.5588C383.521 77.7764 386.288 80.7652 387.285 84.5289C388.17 87.8498 388.613 91.2814 388.613 94.713C388.613 113.199 388.613 131.575 388.613 149.95C388.613 161.906 388.281 173.861 387.949 185.927C387.617 197.107 387.174 208.287 386.51 219.468C385.846 230.648 385.292 241.496 383.742 252.455C382.414 265.628 377.322 278.137 369.02 288.542C361.935 296.734 353.522 303.597 344.113 308.91C321.31 322.415 297.953 334.813 274.042 346.104C269.947 347.986 265.74 349.979 261.755 352.082C258.323 353.964 254.117 353.964 250.685 352.082C240.391 347.322 230.317 342.119 220.244 336.916C202.2 327.618 184.157 318.209 166.778 307.803C156.372 301.936 147.406 293.856 140.321 284.336C134.454 275.48 130.58 265.517 129.141 255.001C127.813 246.699 127.259 238.397 126.706 229.984C126.041 219.578 125.488 209.173 125.045 198.767C124.713 193.122 124.713 187.476 124.602 181.72C123.827 153.382 123.827 125.044 123.938 96.7055C123.827 93.0525 124.16 89.3995 124.934 85.7466C125.709 80.9866 129.362 77.1122 134.011 75.8946C138.218 74.7876 142.535 74.1234 146.963 73.7913C161.021 72.3523 175.412 71.7988 189.692 71.2453C200.651 70.8025 211.499 70.4705 222.458 70.1384C233.195 69.917 244.819 70.0277 256.11 70.0277ZM256.11 77.1122C243.601 77.1122 231.092 77.1122 218.583 77.4443C209.617 77.6657 200.651 77.9978 191.684 78.4406C177.626 78.9941 163.9 79.6583 149.952 80.7652C145.856 80.9866 141.871 81.5401 137.886 82.5364C134.565 83.2005 131.908 85.8572 131.355 89.1781C130.912 91.1707 130.691 93.2739 130.691 95.3771C130.691 103.569 130.691 111.76 130.359 119.952C130.137 139.656 130.026 159.36 130.691 179.064C130.691 182.606 130.691 186.037 131.023 189.801C131.798 203.195 132.351 216.7 133.458 230.095C134.122 238.507 134.565 246.92 136.004 255.223C137.332 264.41 140.875 273.155 146.077 280.904C153.051 290.203 162.018 297.951 172.202 303.597C189.802 314.113 208.178 323.522 226.443 332.931C235.409 337.581 244.376 342.23 253.564 346.436C255.113 347.211 256.995 347.211 258.545 346.436C264.08 343.78 269.615 341.234 275.149 338.577C293.636 329.611 311.679 320.091 329.501 309.796C338.025 305.257 346.106 300.055 353.744 294.188C364.703 285.664 372.341 273.487 375.329 259.983C377.211 250.463 378.318 240.832 378.872 231.201C379.536 222.678 379.868 214.044 380.422 205.409C381.418 190.576 381.861 175.853 382.082 161.02C382.082 147.958 382.303 134.785 382.082 121.723C381.861 113.31 382.082 104.786 381.861 96.3734C381.861 94.6023 381.75 92.8311 381.529 91.06C381.196 86.7428 377.986 83.3112 373.78 82.5364C370.237 81.5401 366.585 80.9866 362.932 80.7652C350.976 79.9903 339.132 79.2155 327.287 78.662C312.897 77.9978 298.396 77.555 283.894 77.2229C274.485 76.7801 265.297 77.1122 256.11 77.1122Z" fill="black"/>
<path d="M221.352 230.426C222.791 234.412 224.12 237.843 225.337 241.275C225.67 241.939 226.334 242.492 226.998 242.714C230.54 244.706 233.972 246.699 237.514 248.691C238.732 249.245 239.507 250.352 239.617 251.68C241.056 261.532 242.606 271.273 244.045 281.125C244.156 282.675 243.934 284.336 243.602 285.885C243.27 288.21 242.938 290.535 242.495 292.859C242.274 293.634 242.717 294.409 243.492 294.63C247.034 296.069 250.466 297.619 254.229 299.169C254.893 299.501 255.779 299.501 256.443 299.169C260.207 297.73 264.081 296.18 267.845 294.741C268.62 294.63 269.173 293.855 269.063 293.081C269.063 292.97 269.063 292.859 268.952 292.748C268.398 289.538 267.845 286.328 267.513 283.118C267.513 281.015 267.734 278.911 268.288 276.919C269.505 268.506 270.834 260.093 272.162 251.68C272.273 250.352 273.048 249.245 274.265 248.691C277.808 246.81 281.239 244.706 284.781 242.824C285.778 242.382 286.442 241.496 286.774 240.5C287.881 237.29 289.099 234.079 290.427 230.537C287.881 230.98 285.667 231.533 283.453 231.866C281.793 232.087 280.354 232.972 279.468 234.412C278.029 236.404 276.479 238.397 274.929 240.278C274.708 240.611 274.487 241.053 274.044 240.943C273.601 240.832 273.712 240.278 273.822 239.836C274.708 234.19 275.483 228.545 276.258 222.899C276.368 221.792 277.143 220.796 278.25 220.575C282.125 219.246 285.888 217.807 289.763 216.589C290.648 216.368 291.423 215.593 291.534 214.708C292.198 210.501 292.973 206.405 293.748 202.199C293.969 201.424 293.637 200.649 292.973 200.317C291.534 199.432 290.206 198.546 288.766 197.66C287.992 197.328 287.66 196.443 287.992 195.779C291.645 182.606 297.954 170.318 306.367 159.47C311.459 152.939 318.433 148.29 326.293 145.965C340.351 142.202 351.421 147.183 358.173 160.356C361.494 166.887 363.154 174.082 362.933 181.388C362.933 182.827 362.38 183.381 360.94 183.491L350.978 184.598C349.649 184.598 348.985 185.262 348.653 186.701C346.329 200.206 344.336 213.711 341.015 226.995C339.908 232.087 338.026 237.068 335.702 241.828C334.705 243.821 333.266 245.481 331.385 246.588C328.839 247.916 326.957 247.142 326.293 244.374C325.407 240.389 325.407 236.293 326.293 232.308C327.51 225.334 329.613 218.693 330.499 211.719C331.606 205.298 331.717 198.767 330.942 192.347C330.61 189.69 329.613 187.144 327.953 185.041C324.964 181.831 319.761 181.609 316.551 184.598C315.998 185.152 315.444 185.816 315.001 186.48C314.78 187.144 314.78 187.808 315.001 188.362C315.666 192.9 315.776 197.55 315.444 202.088C315.001 208.177 311.902 213.711 307.031 217.143C304.817 218.693 302.825 220.685 300.722 222.346C300.057 222.899 299.615 223.785 299.393 224.56C296.737 235.297 293.858 246.035 291.202 256.772C289.541 261.864 287.106 266.624 284.228 271.052C283.232 273.155 282.014 275.258 280.686 277.14C277.697 281.236 277.586 286.107 276.701 290.756C275.815 295.405 275.262 299.28 274.597 303.486C274.155 308.025 270.723 311.567 266.184 312.342C259.543 314.002 252.569 314.002 245.816 312.342C241.499 311.456 238.178 307.914 237.735 303.486C236.629 296.512 235.411 289.76 234.193 282.897C233.972 282.011 233.64 281.125 233.197 280.24C230.097 274.926 227.109 269.724 224.009 264.3C222.57 261.864 221.574 259.208 220.799 256.44C218.253 245.924 215.486 235.408 212.94 224.781C212.607 223.563 211.943 222.346 210.947 221.571C208.844 219.8 206.741 218.028 204.527 216.257C199.988 212.826 197.221 207.512 196.778 201.867C196.335 197.66 196.446 193.343 197.11 189.137C197.663 186.259 196.003 183.381 193.125 182.495C189.029 180.724 184.38 182.606 182.609 186.701C182.609 186.701 182.609 186.812 182.498 186.812C181.28 189.358 180.616 192.236 180.616 195.004C180.395 205.188 181.723 215.261 184.38 225.113C185.819 229.984 186.372 235.076 186.262 240.168C186.262 241.496 186.04 242.714 185.597 244.042C185.376 245.703 183.826 246.92 182.055 246.699C181.502 246.588 181.059 246.477 180.616 246.145C178.624 245.038 177.074 243.378 176.078 241.275C173.31 235.74 171.318 229.762 170.1 223.674C167.111 211.276 165.229 198.657 163.126 186.148C163.126 184.93 162.13 183.934 160.912 184.045L150.839 182.938C149.732 182.938 148.957 182.495 148.957 181.167C148.404 170.872 151.724 160.799 158.256 152.939C164.233 145.522 174.085 142.312 183.273 144.858C192.903 147.183 201.427 152.828 207.073 161.02C214.046 170.429 219.36 181.056 222.791 192.236C224.231 196.443 224.231 196.443 220.356 198.878C217.699 200.538 217.699 200.538 218.253 203.638C218.806 206.737 219.471 210.612 220.024 214.154C220.135 215.261 220.91 216.257 222.017 216.479C225.891 217.696 229.655 219.135 233.529 220.464C234.525 220.685 235.189 221.46 235.3 222.346C236.186 228.213 237.071 233.969 237.846 239.946C237.846 240.278 238.068 240.721 237.625 240.832C237.182 240.943 237.071 240.5 236.85 240.278C235.079 238.065 233.308 235.851 231.647 233.637C230.983 232.751 230.097 232.198 228.99 231.976C226.777 231.644 224.231 231.091 221.352 230.426ZM210.504 212.272C210.172 209.394 209.84 206.073 209.397 202.752C209.397 202.088 209.065 201.535 208.733 200.981L202.423 192.679C202.202 192.347 201.981 192.015 201.648 192.126C201.316 192.347 201.316 192.568 201.316 192.9C200.541 196.221 200.209 199.653 200.209 203.084C200.099 207.512 202.977 211.497 207.183 212.826C207.847 213.158 208.622 213.379 209.287 213.711C210.393 214.376 210.726 213.822 210.504 212.272ZM310.242 191.572C308.028 194.45 306.146 197.107 304.043 199.542C302.936 200.76 302.271 202.31 302.161 203.97C301.939 206.295 301.607 208.509 301.386 210.944C301.054 214.486 301.054 214.486 304.485 213.047C308.249 211.94 311.016 208.73 311.459 204.745C311.902 200.428 311.459 195.889 310.242 191.572Z" fill="black"/>
<path d="M141.871 186.038C142.535 187.034 143.089 188.03 143.642 189.137C144.085 190.465 145.413 191.24 146.852 191.13C148.402 191.13 150.063 191.462 151.612 191.462C153.162 191.572 153.494 192.015 153.716 193.454C155.819 210.612 160.357 227.327 167.331 243.157C169.877 249.356 173.641 255.001 178.401 259.761C180.504 261.975 183.382 263.414 186.482 263.636C188.474 264.079 190.467 262.75 190.91 260.647C191.795 257.769 192.238 254.78 192.127 251.681C192.459 247.031 192.127 242.271 191.242 237.622C191.242 237.29 191.242 237.069 191.242 236.737C192.127 236.737 192.127 237.622 192.238 238.065C194.673 245.371 195.891 253.009 195.78 260.647C195.448 272.934 187.367 277.916 176.74 277.251C169.102 276.809 162.018 273.377 157.036 267.731L156.594 267.289H156.151C157.922 270.72 160.025 273.93 162.682 276.698C168.77 283.118 175.966 288.542 183.714 292.749C206.628 305.922 230.096 317.988 253.785 329.611C254.892 330.164 256.22 330.164 257.327 329.611C272.271 323.08 286.773 315.774 301.052 308.136C311.569 302.601 322.085 296.734 332.158 290.535C341.014 285.664 348.652 278.69 354.408 270.388C355.515 268.728 356.401 266.957 357.065 265.075C353.965 269.171 349.98 272.381 345.331 274.595C339.575 277.362 333.044 278.026 326.845 276.477C320.756 275.037 316.218 269.724 315.886 263.414C315.332 254.669 316.439 245.924 319.428 237.622C319.428 237.179 319.649 236.515 320.535 236.294C320.314 237.401 320.203 238.397 319.981 239.504C319.207 245.592 319.207 251.681 319.981 257.658C320.646 263.304 323.302 265.075 329.169 262.418C332.269 260.758 334.925 258.322 336.918 255.444C342.453 247.585 346.77 238.95 349.537 229.763C353.522 218.029 356.29 205.963 357.84 193.786C357.84 192.347 358.504 191.683 360.054 191.683C361.603 191.683 363.596 191.13 365.146 191.24C366.695 191.351 368.245 190.244 368.688 188.694C368.909 188.141 369.131 187.477 369.795 187.145C370.238 187.587 370.016 188.03 370.016 188.473C370.016 193.897 370.016 199.321 370.016 204.745C370.016 219.357 368.134 233.969 364.592 248.138C363.707 253.009 362.489 257.88 361.05 262.529C357.397 272.049 350.976 280.351 342.674 286.328C335.368 291.642 327.62 296.402 319.649 300.608C304.927 309.021 289.761 316.991 274.485 324.297C268.84 327.065 262.973 329.5 257.217 332.157C256.22 332.71 255.003 332.71 254.006 332.157C238.066 324.519 222.347 316.327 206.739 308.025C197.662 303.265 188.806 298.394 179.951 293.081C171.87 288.653 164.785 282.675 158.918 275.48C154.823 270.167 151.834 263.968 150.173 257.437C148.291 250.684 146.078 244.153 144.749 237.29C143.089 228.545 141.982 219.689 141.76 210.723C141.428 203.196 141.76 195.668 141.76 188.03C141.318 187.587 141.428 186.702 141.871 186.038Z" fill="black"/>
<path d="M358.283 148.954L355.072 143.419C350.977 135.892 345.885 128.918 339.686 122.94C333.819 116.852 325.849 113.31 317.436 112.867C310.572 112.756 303.82 114.528 297.953 117.959C289.097 123.273 281.57 130.468 275.703 138.991C270.168 146.74 265.298 154.932 261.091 163.566C260.87 164.341 260.316 165.116 259.652 165.559C258.988 163.345 258.545 161.131 258.213 158.806C257.881 157.146 257.77 155.264 257.217 153.714C256.553 151.389 256.885 148.954 258.213 146.962C262.641 137.442 268.619 128.697 275.814 121.059C283.784 112.646 294.411 107.332 305.813 105.893C315.443 104.676 325.295 107.554 332.712 113.753C343.781 122.83 352.416 134.453 357.84 147.626C357.951 147.847 357.95 148.069 358.061 148.29C358.283 148.511 358.504 148.622 358.283 148.954Z" fill="black"/>
<path d="M151.503 148.954C153.274 144.526 155.377 140.209 157.923 136.113C162.683 128.032 168.772 120.837 175.856 114.859C185.597 106.336 199.102 103.568 211.39 107.443C221.463 110.432 230.319 116.298 237.071 124.379C243.492 131.907 248.805 140.32 252.79 149.286C253.233 150.061 253.344 150.946 253.122 151.832C252.347 155.928 251.572 160.134 250.908 164.23C250.908 164.673 250.908 165.337 250.465 165.448C250.023 165.558 249.691 164.783 249.469 164.341C245.041 155.042 239.728 146.186 233.75 137.884C227.773 129.029 219.692 121.833 210.172 116.852C196.888 110.432 184.269 111.428 172.646 121.058C169.104 124.047 166.004 127.479 163.237 131.132C159.584 136.113 156.263 141.316 153.274 146.851C152.831 147.847 152.278 148.511 151.503 148.954Z" fill="black"/>
<path d="M146.964 150.504V180.392C146.964 180.946 146.964 181.61 146.964 182.163C146.854 183.049 146.079 183.602 145.193 183.602C144.418 183.602 144.75 182.606 144.64 182.163C144.086 173.64 144.418 165.005 144.308 156.482C144.308 147.073 144.308 137.774 144.308 128.365C144.308 120.727 144.308 112.978 144.64 105.34C144.64 104.012 144.75 102.794 145.082 101.466C145.415 97.37 148.957 94.1598 153.163 94.4919C158.366 94.0491 163.679 93.717 168.661 93.3849L199.877 91.7245C206.298 91.3924 212.607 91.171 219.028 90.9496C235.3 90.5068 251.462 90.3961 267.734 90.6175C280.243 90.8389 292.862 91.2817 305.371 91.7245C315.776 92.0566 326.071 92.4994 336.476 93.0529C344.114 93.1636 351.642 93.8277 359.28 94.7133C363.818 94.824 367.361 98.477 367.361 103.016C367.361 103.348 367.361 103.68 367.25 103.901C368.136 128.476 368.025 153.05 367.803 177.957C367.803 179.507 367.803 181.056 367.582 182.495C367.582 183.049 367.914 183.935 367.139 184.045C366.254 184.045 365.479 183.492 365.257 182.717C365.147 182.053 365.147 181.388 365.257 180.835C365.257 161.463 365.257 142.202 365.257 122.941C365.257 116.299 365.257 109.768 364.704 103.126C364.372 99.5839 363.376 98.3663 359.944 97.5914C355.184 96.7058 350.424 96.263 345.553 96.263C330.388 95.4882 315.112 94.9347 299.836 94.3812C293.526 94.1598 287.106 93.9384 280.685 93.717C264.745 93.1635 248.694 93.1635 232.754 93.3849C216.15 93.6063 199.434 94.2705 182.83 95.3775C173.864 95.931 164.786 96.3737 155.82 96.9272C154.492 96.9272 153.274 97.1486 151.946 97.37C149.732 97.5914 147.961 99.2518 147.629 101.466C147.296 102.794 147.186 104.122 147.186 105.451V150.615H146.964V150.504Z" fill="black"/>
</svg>
