<svg width="512" height="512" viewBox="0 0 512 512" fill="none" xmlns="http://www.w3.org/2000/svg">
<path d="M107.955 210.009C110.867 210.009 113.744 210.009 116.657 210.009C120.685 210.081 124.748 210.225 128.776 210.369C132.444 210.512 136.076 210.692 139.744 210.944C142.082 211.052 144.419 211.304 146.721 211.735C147.224 211.843 147.692 211.987 148.159 212.131C149.346 212.526 150.245 213.497 150.568 214.72C150.856 215.799 151 216.914 151 218.028C151 224.034 151 230.003 151 235.973C151 239.857 150.892 243.74 150.784 247.66C150.676 251.292 150.533 254.924 150.317 258.556C150.101 262.189 149.921 265.713 149.418 269.273C148.986 273.552 147.332 277.616 144.635 280.996C142.333 283.657 139.6 285.887 136.544 287.613C129.136 292 121.548 296.028 113.78 299.696C112.45 300.307 111.083 300.955 109.789 301.638C108.674 302.249 107.307 302.249 106.192 301.638C102.848 300.092 99.5756 298.401 96.3032 296.711C90.4415 293.69 84.5799 290.634 78.934 287.253C75.5536 285.347 72.6408 282.722 70.3393 279.63C68.4333 276.753 67.1747 273.516 66.7072 270.1C66.2757 267.403 66.0959 264.706 65.9161 261.973C65.7003 258.592 65.5205 255.212 65.3766 251.832C65.2688 249.998 65.2687 248.164 65.2328 246.294C64.9811 237.088 64.9811 227.882 65.017 218.676C64.9811 217.489 65.0889 216.302 65.3407 215.115C65.5924 213.569 66.7791 212.311 68.2895 211.915C69.656 211.555 71.0585 211.34 72.4969 211.232C77.064 210.764 81.7389 210.584 86.3779 210.405C89.9381 210.261 93.4622 210.153 97.0224 210.045C100.511 209.973 104.287 210.009 107.955 210.009ZM107.955 212.311C103.891 212.311 99.8274 212.311 95.7638 212.418C92.8509 212.49 89.9381 212.598 87.0252 212.742C82.4582 212.922 77.999 213.138 73.4679 213.497C72.1373 213.569 70.8427 213.749 69.5481 214.073C68.4693 214.288 67.6062 215.151 67.4264 216.23C67.2826 216.878 67.2106 217.561 67.2106 218.244C67.2106 220.905 67.2107 223.566 67.1028 226.227C67.0308 232.629 66.9949 239.03 67.2106 245.431C67.2106 246.581 67.2106 247.696 67.3185 248.919C67.5703 253.27 67.7501 257.657 68.1097 262.009C68.3254 264.742 68.4693 267.475 68.9368 270.172C69.3683 273.157 70.5191 275.998 72.2092 278.515C74.4748 281.536 77.3876 284.053 80.6961 285.887C86.4139 289.303 92.3834 292.36 98.317 295.417C101.23 296.927 104.143 298.437 107.127 299.804C107.631 300.056 108.242 300.056 108.746 299.804C110.544 298.941 112.342 298.114 114.14 297.251C120.145 294.338 126.007 291.245 131.797 287.901C134.566 286.426 137.191 284.736 139.672 282.83C143.232 280.061 145.714 276.105 146.685 271.718C147.296 268.626 147.656 265.497 147.835 262.368C148.051 259.599 148.159 256.794 148.339 253.989C148.663 249.171 148.806 244.388 148.878 239.569C148.878 235.326 148.95 231.046 148.878 226.803C148.806 224.07 148.878 221.301 148.806 218.568C148.806 217.992 148.77 217.417 148.698 216.842C148.591 215.439 147.548 214.324 146.181 214.073C145.03 213.749 143.844 213.569 142.657 213.497C138.773 213.245 134.925 212.994 131.078 212.814C126.403 212.598 121.692 212.454 116.981 212.346C113.924 212.203 110.939 212.311 107.955 212.311Z" fill="black"/>
<path d="M96.6629 262.117C97.1304 263.411 97.5619 264.526 97.9575 265.641C98.0654 265.857 98.2812 266.036 98.4969 266.108C99.6477 266.756 100.762 267.403 101.913 268.05C102.309 268.23 102.561 268.59 102.596 269.021C103.064 272.222 103.567 275.386 104.035 278.587C104.071 279.09 103.999 279.63 103.891 280.133C103.783 280.888 103.675 281.643 103.531 282.399C103.46 282.65 103.603 282.902 103.855 282.974C105.006 283.442 106.121 283.945 107.343 284.448C107.559 284.556 107.847 284.556 108.063 284.448C109.285 283.981 110.544 283.477 111.767 283.01C112.018 282.974 112.198 282.722 112.162 282.471C112.162 282.435 112.162 282.399 112.126 282.363C111.946 281.32 111.767 280.277 111.659 279.234C111.659 278.551 111.731 277.868 111.91 277.22C112.306 274.487 112.738 271.754 113.169 269.021C113.205 268.59 113.457 268.23 113.852 268.05C115.003 267.439 116.118 266.756 117.269 266.144C117.592 266 117.808 265.713 117.916 265.389C118.276 264.346 118.671 263.303 119.103 262.153C118.276 262.296 117.556 262.476 116.837 262.584C116.298 262.656 115.83 262.944 115.542 263.411C115.075 264.058 114.572 264.706 114.068 265.317C113.996 265.425 113.924 265.569 113.78 265.533C113.637 265.497 113.673 265.317 113.708 265.173C113.996 263.339 114.248 261.505 114.5 259.671C114.536 259.312 114.787 258.988 115.147 258.916C116.406 258.485 117.628 258.017 118.887 257.621C119.175 257.55 119.426 257.298 119.462 257.01C119.678 255.644 119.93 254.313 120.181 252.947C120.253 252.695 120.146 252.443 119.93 252.335C119.462 252.047 119.031 251.76 118.563 251.472C118.311 251.364 118.204 251.077 118.311 250.861C119.498 246.581 121.548 242.59 124.281 239.066C125.935 236.944 128.201 235.433 130.754 234.678C135.321 233.456 138.917 235.074 141.111 239.353C142.19 241.475 142.729 243.812 142.657 246.186C142.657 246.653 142.477 246.833 142.01 246.869L138.773 247.229C138.342 247.229 138.126 247.444 138.018 247.912C137.263 252.299 136.616 256.686 135.537 261.002C135.177 262.656 134.566 264.274 133.811 265.821C133.487 266.468 133.02 267.007 132.408 267.367C131.581 267.798 130.97 267.547 130.754 266.648C130.466 265.353 130.466 264.023 130.754 262.728C131.15 260.462 131.833 258.305 132.121 256.039C132.48 253.953 132.516 251.832 132.264 249.746C132.157 248.883 131.833 248.056 131.293 247.373C130.322 246.33 128.632 246.258 127.589 247.229C127.41 247.408 127.23 247.624 127.086 247.84C127.014 248.056 127.014 248.272 127.086 248.451C127.302 249.926 127.338 251.436 127.23 252.911C127.086 254.888 126.079 256.686 124.497 257.801C123.778 258.305 123.13 258.952 122.447 259.491C122.231 259.671 122.087 259.959 122.015 260.211C121.152 263.699 120.217 267.187 119.354 270.675C118.815 272.33 118.024 273.876 117.089 275.314C116.765 275.998 116.37 276.681 115.938 277.292C114.967 278.623 114.931 280.205 114.643 281.715C114.356 283.226 114.176 284.484 113.96 285.851C113.816 287.325 112.702 288.476 111.227 288.728C109.069 289.267 106.804 289.267 104.61 288.728C103.208 288.44 102.129 287.289 101.985 285.851C101.626 283.585 101.23 281.392 100.834 279.162C100.762 278.874 100.655 278.587 100.511 278.299C99.5038 276.573 98.5329 274.883 97.526 273.121C97.0585 272.33 96.7348 271.466 96.4831 270.567C95.656 267.151 94.757 263.735 93.9299 260.283C93.822 259.887 93.6062 259.491 93.2826 259.24C92.5993 258.664 91.916 258.089 91.1968 257.514C89.7224 256.399 88.8234 254.673 88.6795 252.839C88.5357 251.472 88.5717 250.07 88.7874 248.703C88.9672 247.768 88.4278 246.833 87.4928 246.545C86.1623 245.97 84.6519 246.581 84.0765 247.912C84.0765 247.912 84.0765 247.948 84.0406 247.948C83.645 248.775 83.4292 249.71 83.4292 250.609C83.3573 253.917 83.7888 257.19 84.6519 260.39C85.1194 261.973 85.2992 263.627 85.2632 265.281C85.2632 265.713 85.1913 266.108 85.0475 266.54C84.9755 267.079 84.4721 267.475 83.8967 267.403C83.7169 267.367 83.5731 267.331 83.4292 267.223C82.7819 266.863 82.2785 266.324 81.9548 265.641C81.0558 263.843 80.4085 261.901 80.0129 259.923C79.042 255.895 78.4306 251.796 77.7474 247.732C77.7474 247.337 77.4237 247.013 77.0281 247.049L73.7557 246.689C73.3961 246.689 73.1443 246.545 73.1443 246.114C72.9645 242.77 74.0434 239.497 76.1651 236.944C78.107 234.534 81.3075 233.492 84.2923 234.319C87.4209 235.074 90.1899 236.908 92.0239 239.569C94.2895 242.626 96.0156 246.078 97.1304 249.71C97.5979 251.077 97.5979 251.077 96.3393 251.868C95.4762 252.407 95.4762 252.407 95.656 253.414C95.8358 254.421 96.0516 255.68 96.2314 256.83C96.2673 257.19 96.5191 257.514 96.8787 257.585C98.1373 257.981 99.36 258.449 100.619 258.88C100.942 258.952 101.158 259.204 101.194 259.491C101.482 261.397 101.769 263.267 102.021 265.209C102.021 265.317 102.093 265.461 101.949 265.497C101.805 265.533 101.769 265.389 101.697 265.317C101.122 264.598 100.547 263.879 100.007 263.159C99.7915 262.872 99.5038 262.692 99.1442 262.62C98.425 262.512 97.5979 262.332 96.6629 262.117ZM93.1387 256.219C93.0308 255.284 92.923 254.205 92.7791 253.126C92.7791 252.911 92.6712 252.731 92.5633 252.551L90.5136 249.854C90.4416 249.746 90.3697 249.638 90.2618 249.674C90.1539 249.746 90.1539 249.818 90.1539 249.926C89.9022 251.005 89.7943 252.119 89.7943 253.234C89.7584 254.673 90.6934 255.967 92.0599 256.399C92.2757 256.507 92.5274 256.579 92.7431 256.686C93.1028 256.902 93.2106 256.722 93.1387 256.219ZM125.54 249.494C124.82 250.429 124.209 251.292 123.526 252.083C123.166 252.479 122.95 252.982 122.915 253.522C122.843 254.277 122.735 254.996 122.663 255.787C122.555 256.938 122.555 256.938 123.67 256.471C124.892 256.111 125.791 255.068 125.935 253.774C126.079 252.371 125.935 250.897 125.54 249.494Z" fill="black"/>
<path d="M70.8424 247.696C71.0581 248.02 71.238 248.344 71.4178 248.703C71.5616 249.135 71.9931 249.386 72.4606 249.351C72.9641 249.351 73.5035 249.458 74.007 249.458C74.5104 249.494 74.6183 249.638 74.6902 250.106C75.3735 255.68 76.8479 261.11 79.1134 266.252C79.9405 268.266 81.1632 270.1 82.7095 271.646C83.3928 272.366 84.3278 272.833 85.3347 272.905C85.982 273.049 86.6293 272.617 86.7731 271.934C87.0608 270.999 87.2047 270.028 87.1687 269.021C87.2766 267.511 87.1687 265.965 86.881 264.454C86.881 264.346 86.881 264.274 86.881 264.166C87.1687 264.166 87.1687 264.454 87.2047 264.598C87.9958 266.971 88.3914 269.453 88.3554 271.934C88.2475 275.926 85.6224 277.544 82.1701 277.328C79.6888 277.184 77.3873 276.07 75.769 274.236L75.6252 274.092H75.4814C76.0567 275.207 76.74 276.249 77.6031 277.148C79.5809 279.234 81.9184 280.996 84.4357 282.363C91.8796 286.642 99.5034 290.562 107.199 294.338C107.559 294.518 107.99 294.518 108.35 294.338C113.205 292.216 117.915 289.843 122.554 287.361C125.971 285.563 129.387 283.657 132.659 281.644C135.536 280.061 138.018 277.796 139.888 275.099C140.247 274.559 140.535 273.984 140.751 273.373C139.744 274.703 138.449 275.746 136.939 276.465C135.069 277.364 132.947 277.58 130.933 277.077C128.956 276.609 127.481 274.883 127.373 272.833C127.193 269.992 127.553 267.151 128.524 264.454C128.524 264.31 128.596 264.095 128.884 264.023C128.812 264.382 128.776 264.706 128.704 265.066C128.452 267.043 128.452 269.021 128.704 270.963C128.92 272.797 129.783 273.373 131.689 272.509C132.695 271.97 133.559 271.179 134.206 270.244C136.004 267.691 137.406 264.886 138.305 261.901C139.6 258.089 140.499 254.169 141.002 250.214C141.002 249.746 141.218 249.53 141.722 249.53C142.225 249.53 142.872 249.351 143.376 249.386C143.879 249.422 144.383 249.063 144.527 248.559C144.599 248.38 144.67 248.164 144.886 248.056C145.03 248.2 144.958 248.344 144.958 248.487C144.958 250.25 144.958 252.012 144.958 253.774C144.958 258.521 144.347 263.267 143.196 267.87C142.908 269.453 142.513 271.035 142.045 272.545C140.859 275.638 138.773 278.335 136.076 280.277C133.702 282.003 131.185 283.55 128.596 284.916C123.813 287.649 118.886 290.238 113.924 292.612C112.09 293.511 110.184 294.302 108.314 295.165C107.99 295.345 107.595 295.345 107.271 295.165C102.093 292.684 96.9861 290.023 91.9156 287.325C88.9668 285.779 86.0899 284.197 83.213 282.471C80.5878 281.032 78.2863 279.09 76.3804 276.753C75.0498 275.027 74.0789 273.013 73.5395 270.891C72.9281 268.698 72.2089 266.576 71.7774 264.346C71.238 261.505 70.8783 258.628 70.8064 255.716C70.6985 253.27 70.8064 250.825 70.8064 248.344C70.6626 248.2 70.6985 247.912 70.8424 247.696Z" fill="black"/>
<path d="M141.146 235.649L140.104 233.851C138.773 231.406 137.119 229.14 135.105 227.198C133.199 225.22 130.61 224.07 127.877 223.926C125.647 223.89 123.454 224.465 121.548 225.58C118.671 227.306 116.225 229.644 114.319 232.413C112.521 234.93 110.939 237.591 109.573 240.396C109.501 240.648 109.321 240.9 109.105 241.043C108.889 240.324 108.745 239.605 108.638 238.85C108.53 238.31 108.494 237.699 108.314 237.196C108.098 236.44 108.206 235.649 108.638 235.002C110.076 231.909 112.018 229.068 114.355 226.587C116.945 223.854 120.397 222.128 124.101 221.66C127.229 221.265 130.43 222.2 132.839 224.214C136.436 227.162 139.24 230.938 141.003 235.218C141.039 235.29 141.039 235.362 141.074 235.433C141.146 235.505 141.218 235.541 141.146 235.649Z" fill="black"/>
<path d="M73.9717 235.649C74.5471 234.211 75.2303 232.808 76.0574 231.478C77.6038 228.853 79.5816 226.515 81.8831 224.573C85.0477 221.804 89.4349 220.905 93.4266 222.164C96.6991 223.135 99.576 225.041 101.77 227.666C103.855 230.111 105.581 232.844 106.876 235.757C107.02 236.009 107.056 236.297 106.984 236.584C106.732 237.915 106.481 239.281 106.265 240.612C106.265 240.756 106.265 240.972 106.121 241.008C105.977 241.044 105.869 240.792 105.797 240.648C104.359 237.627 102.633 234.75 100.691 232.053C98.7489 229.176 96.1237 226.839 93.0311 225.221C88.7157 223.135 84.6162 223.459 80.8403 226.587C79.6895 227.558 78.6826 228.673 77.7836 229.86C76.5968 231.478 75.518 233.168 74.5471 234.966C74.4032 235.29 74.2234 235.506 73.9717 235.649Z" fill="black"/>
<path d="M72.4969 236.153V245.862C72.4969 246.042 72.4969 246.258 72.4969 246.437C72.4609 246.725 72.2092 246.905 71.9215 246.905C71.6698 246.905 71.7776 246.581 71.7417 246.437C71.5619 243.668 71.6698 240.863 71.6338 238.094C71.6338 235.038 71.6338 232.017 71.6338 228.96C71.6338 226.479 71.6338 223.962 71.7417 221.48C71.7417 221.049 71.7776 220.653 71.8855 220.222C71.9934 218.891 73.1442 217.848 74.5107 217.956C76.2008 217.812 77.927 217.704 79.5452 217.597L89.6863 217.057C91.772 216.949 93.8218 216.877 95.9075 216.805C101.194 216.662 106.444 216.626 111.73 216.698C115.794 216.77 119.894 216.913 123.957 217.057C127.338 217.165 130.682 217.309 134.062 217.489C136.544 217.525 138.989 217.74 141.47 218.028C142.945 218.064 144.095 219.251 144.095 220.725C144.095 220.833 144.095 220.941 144.059 221.013C144.347 228.996 144.311 236.98 144.239 245.071C144.239 245.574 144.239 246.078 144.167 246.545C144.167 246.725 144.275 247.013 144.023 247.049C143.736 247.049 143.484 246.869 143.412 246.617C143.376 246.401 143.376 246.186 143.412 246.006C143.412 239.713 143.412 233.455 143.412 227.198C143.412 225.041 143.412 222.919 143.232 220.761C143.124 219.61 142.801 219.215 141.686 218.963C140.14 218.675 138.593 218.532 137.011 218.532C132.084 218.28 127.122 218.1 122.159 217.92C120.109 217.848 118.024 217.776 115.938 217.704C110.759 217.525 105.545 217.525 100.367 217.597C94.9725 217.669 89.5424 217.884 84.1483 218.244C81.2354 218.424 78.2866 218.568 75.3737 218.747C74.9422 218.747 74.5466 218.819 74.1151 218.891C73.3959 218.963 72.8205 219.503 72.7126 220.222C72.6047 220.653 72.5688 221.085 72.5688 221.516V236.188H72.4969V236.153Z" fill="black"/>
<path fill-rule="evenodd" clip-rule="evenodd" d="M421.846 271.572V250.557H420.493L409.189 271.572H392.155L380.851 250.557H379.816V271.572H354.344V234H394.224L401.229 245.701L408.712 234H447V271.572H421.846Z" fill="black"/>
<path fill-rule="evenodd" clip-rule="evenodd" d="M247.438 258.677C247.438 258.677 258.184 256.448 258.184 247.93C258.184 234.08 241.308 234.08 241.308 234.08H191V271.97H218.463V259.473H222.682L232.075 271.731H261.288L247.438 258.677ZM224.672 250.637H218.224V241.801H225.308C227.935 241.96 230.005 244.189 230.005 246.816C230.005 250.557 224.751 250.637 224.751 250.637H224.672Z" fill="black"/>
<path fill-rule="evenodd" clip-rule="evenodd" d="M327.836 234.08H286.682L266.94 271.652H294.721L298.542 262.577H315.498L319.159 271.572H347.338L327.836 234.08ZM301.169 253.98L307.139 242.279L313.03 253.98H301.169Z" fill="black"/>
</svg>
