<svg width="512" height="512" viewBox="0 0 512 512" fill="none" xmlns="http://www.w3.org/2000/svg">
<path d="M469 227H456.949V270.081L422.128 227H407.836V284.995H419.887V241.915L454.703 284.995H469V227ZM351.939 227H338.642L310.057 284.989H323.353L326.928 277.536C328.421 274.389 330.75 272.977 334.242 272.977H355.85L353.273 267.51C351.694 264.111 349.117 262.541 345.298 262.541H334.248L345.298 239.676L367.234 284.99H380.533L351.939 227ZM282.788 227H270.32V284.989H282.788V227ZM242.827 227H229.531L208.423 271.904L187.312 227H174.017L201.773 284.995H215.07L242.827 227ZM146.747 227H134.279V284.989H146.747V227ZM101.926 246.308C101.926 236.534 95.277 227.006 80.9813 227.006H44V284.995H56.468V237.442H79.1581C86.1413 237.442 89.4627 240.841 89.4627 246.308C89.4627 251.857 86.1356 255.256 79.1581 255.256H69.5061C65.1326 255.256 62.6753 257.705 62.6753 262.065V265.698H69.5998C72.8389 265.698 75.2491 266.776 77.2478 269.343L89.5449 285H104.834L87.7169 263.295C96.8575 261.215 101.926 255.25 101.926 246.308Z" fill="white"/>
</svg>
