<svg width="512" height="512" viewBox="0 0 512 512" fill="none" xmlns="http://www.w3.org/2000/svg">
<g clip-path="url(#clip0_1533_19494)">
<path d="M210.243 251.103C212.068 255.107 215.775 257.579 219.332 257.579C224.027 257.579 227.572 253.802 227.572 249.062C227.572 244.853 225.718 242.499 217.751 236.855C210.609 231.799 207.977 228.094 207.977 222.695C207.977 216.905 212.248 211.403 219.396 211.403C224.538 211.403 229.17 214.362 230.593 219.124L226.665 221.129C225.404 217.64 222.487 215.721 219.297 215.721C215.537 215.721 212.498 218.668 212.498 222.306C212.498 225.589 213.974 228.945 220.25 233.27C228.931 239.202 232.186 242.659 232.186 249.062C232.186 256.379 226.735 261.897 219.233 261.897C213.48 261.897 208.012 258.207 206.199 253.151L210.243 251.103ZM150.355 256.465V212.473H145.549V260.8H169.729L170.874 256.465H150.355ZM181.508 256.465V212.473H176.708V260.8H200.882L202.032 256.465H181.508ZM459.849 238.24V233.905H440.382V216.807H460.907V212.472H435.582V260.8H460.662L461.801 256.465H440.382V238.24H459.849ZM369.767 260.8V238.977L386.758 212.473H381.168L367.559 234.578L353.839 212.473H348.161L364.967 238.975V260.8H369.767ZM253.094 238.695V234.454H237.427V238.695H253.094ZM429.045 254.006L429.44 253.597L426.197 250.819L425.796 251.215C421.653 255.348 416.574 257.541 410.38 257.541C398.764 257.541 389.861 248.457 389.861 236.602C389.861 225.14 399.205 215.664 410.763 215.664C416.911 215.664 421.967 217.814 425.698 221.697L426.18 222.201L428.981 218.686L428.656 218.35C424.483 214.009 418.382 211.339 410.885 211.339C396.643 211.339 385.265 222.757 385.265 236.791C385.265 251.098 395.87 261.87 410.217 261.87C417.801 261.87 424.39 258.835 429.045 254.006ZM81.6981 260.8L66.694 236.321H54.7989V260.8H49.999V205H66.7115C76.102 205 83.1856 211.732 83.1856 220.66C83.1856 228.006 78.5426 233.907 71.5404 235.625L87.4451 260.8H81.6981ZM67.3565 231.818C74.6377 231.818 78.4497 226.205 78.4497 220.66C78.4497 214.299 73.429 209.502 66.7754 209.502H54.7989V231.818H67.3565ZM113.595 261.87C99.224 261.87 88.3865 251.062 88.3865 236.731C88.3865 222.528 99.4564 211.403 113.595 211.403C127.942 211.403 138.704 222.448 138.704 236.542C138.704 250.536 127.622 261.87 113.595 261.87ZM113.403 215.771C102.048 215.771 93.1515 224.978 93.1515 236.731C93.1515 246.939 100.869 257.497 113.786 257.497C125.089 257.497 133.939 248.293 133.939 236.542C133.939 223.051 123.357 215.771 113.403 215.771ZM291.998 260.8L276.994 236.321H265.099V260.8H260.299V205H277.012C286.402 205 293.486 211.732 293.486 220.66C293.486 228.006 288.843 233.907 281.841 235.625L297.745 260.8H291.998ZM277.657 231.818C284.938 231.818 288.75 226.205 288.75 220.66C288.75 214.299 283.729 209.502 277.076 209.502H265.099V231.818H277.657ZM323.895 261.87C309.524 261.87 298.687 251.062 298.687 236.731C298.687 222.528 309.762 211.403 323.895 211.403C338.242 211.403 349.004 222.448 349.004 236.542C349.004 250.536 337.923 261.87 323.895 261.87ZM323.703 215.771C312.348 215.771 303.452 224.978 303.452 236.731C303.452 246.939 311.169 257.497 324.087 257.497C335.389 257.497 344.239 248.293 344.239 236.542C344.239 223.051 333.657 215.771 323.703 215.771ZM170.159 287.194C164.737 287.194 160.333 291.593 160.333 297.001C160.333 302.736 164.464 306.898 170.159 306.898C175.575 306.898 179.985 302.5 179.985 297.092C179.985 291.357 175.854 287.194 170.159 287.194ZM170.159 304.012C166.248 304.012 163.412 301.064 163.412 297C163.412 293.12 166.376 290.081 170.159 290.081C174.064 290.081 176.9 293.029 176.9 297.093C176.9 300.973 173.942 304.012 170.159 304.012ZM182.362 290.354H187.749V306.519H190.771V290.354H195.966V287.575H182.362V290.354ZM208.36 287.194C202.939 287.194 198.528 291.593 198.528 297.001C198.528 302.736 202.66 306.898 208.36 306.898C213.776 306.898 218.187 302.5 218.187 297.092C218.187 291.357 214.055 287.194 208.36 287.194ZM208.36 304.012C204.45 304.012 201.614 301.064 201.614 297C201.614 293.12 204.577 290.081 208.36 290.081C212.265 290.081 215.101 293.029 215.101 297.093C215.101 300.973 212.143 304.012 208.36 304.012ZM146.903 297.802L140.959 287.575H138.076V306.519H141.005V293.04L145.927 301.242H147.664L152.441 293.11V306.519H155.37V287.575H152.761L146.903 297.802ZM311.872 295.443C309.501 293.898 309.071 293.042 309.071 291.911C309.071 291.046 309.693 290.115 311.052 290.115C312.261 290.115 313.185 290.916 313.522 292.259L316.149 291.668C315.672 289.084 313.72 287.478 311.052 287.478C307.827 287.478 306.142 289.849 306.142 292.191C306.142 294.73 307.641 296.206 310.233 297.891C312.813 299.701 313.51 300.381 313.51 301.715C313.51 303.189 312.592 304.069 311.052 304.069C309.065 304.069 308.205 302.391 307.833 300.984L305.108 301.678C305.602 303.974 307.037 306.711 311.052 306.711C313.731 306.711 316.439 304.929 316.439 301.523C316.439 298.772 315.05 297.559 311.872 295.443ZM300.372 293.229C300.372 289.847 297.861 287.575 294.131 287.575H288.558V306.519H291.586V298.697H293.974L298.797 306.519H302.202L297.013 298.175C299.181 297.274 300.372 295.53 300.372 293.229ZM294.241 296.074H291.586V290.385H294.142C296.229 290.385 297.472 291.412 297.472 293.133C297.472 293.823 297.24 296.074 294.241 296.074ZM274.182 287.575L266.877 306.519H270.131L271.985 301.217H278.883L280.707 306.519H284.055L276.843 287.575H274.182ZM272.915 298.548L275.466 291.254L277.97 298.548H272.915ZM234.87 293.229C234.87 289.847 232.36 287.575 228.629 287.575H223.056V306.519H226.072V298.697H228.472L233.295 306.519H236.701L231.506 298.175C233.679 297.274 234.87 295.53 234.87 293.229ZM228.74 296.074H226.072V290.385H228.641C230.727 290.385 231.971 291.412 231.971 293.133C231.971 293.823 231.738 296.074 228.74 296.074ZM256.801 290.081C258.858 290.081 260.456 290.718 261.827 292.086L263.908 290.211C262.002 288.125 259.811 287.194 256.801 287.194C251.432 287.194 247.062 291.678 247.062 297.189C247.062 302.815 251.036 306.898 256.516 306.898C259.404 306.898 261.961 305.826 263.902 303.795L261.822 301.921C260.474 303.348 258.835 303.978 256.702 303.978C253.512 303.978 250.182 301.894 250.182 297.092C250.182 293.115 253.012 290.081 256.801 290.081ZM364.397 287.628H360.121H357.599V306.519H364.746V306.517C370.301 306.484 373.73 302.217 373.73 297.214C373.73 292.005 369.529 287.628 364.397 287.628ZM364.665 303.768H360.62V290.385H364.397C368.227 290.385 370.883 292.886 370.883 297.073C370.883 300.796 368.953 303.768 364.665 303.768ZM331.124 303.739V287.575H328.102V306.519H338.922V303.739H331.124ZM339.974 290.354H345.361V306.519H348.382V290.354H353.583V287.575H339.974V290.354Z" fill="black"/>
</g>
<defs>
<clipPath id="clip0_1533_19494">
<rect width="412" height="102" fill="white" transform="translate(50 205)"/>
</clipPath>
</defs>
</svg>
