<svg width="512" height="512" viewBox="0 0 512 512" fill="none" xmlns="http://www.w3.org/2000/svg">
<path d="M157.903 110.066C157.903 98.965 166.948 89.915 178.055 89.915H333.286C344.555 89.915 353.599 98.965 353.599 110.066V402.417C353.599 413.522 344.555 422.567 333.286 422.567H178.055C166.949 422.567 157.903 413.522 157.903 402.417V110.066Z" fill="white"/>
<path d="M166.267 144.56V110.066C166.267 103.581 171.57 98.289 178.056 98.289H333.287C339.945 98.289 345.238 103.581 345.238 110.066V144.56H166.267Z" fill="#004990"/>
<path d="M345.227 152.933H166.267V359.567H345.227V152.933Z" fill="#004990"/>
<path d="M307.496 127.663C308.18 128.683 309.721 129.881 310.738 130.391C313.646 131.931 316.217 132.44 318.938 132.44C323.21 132.44 325.77 130.558 325.77 127.832C325.77 124.577 322.517 124.067 317.572 123.396C311.259 122.539 307.843 119.631 307.843 114.513C308.005 109.388 312.8 105.45 319.794 105.45C324.565 105.45 327.82 106.481 329.87 107.501V114.166C329.186 112.972 327.645 112.115 326.118 111.438C324.055 110.748 322.007 110.407 319.794 110.407C316.378 110.407 314.327 111.774 314.327 113.493C314.327 116.383 317.061 116.73 323.038 117.929C329.013 119.121 332.602 121.688 332.429 126.974C332.256 133.118 327.472 137.222 318.938 137.222C315.173 137.222 310.402 136.534 307.496 135.004V127.663Z" fill="white"/>
<path d="M201.449 115.364C201.449 118.439 198.89 119.631 194.964 119.631H187.795V110.917H194.964C198.89 110.917 201.449 112.115 201.449 115.364ZM205.884 129.024C204.355 126.124 203.162 123.906 200.939 122.875C205.722 121.855 208.108 119.122 208.108 115.023C208.108 111.097 206.394 108.027 203.163 106.829C201.114 105.972 198.541 105.972 194.616 105.972H178.912C180.452 106.992 181.298 110.066 181.298 112.805V130.049C181.298 132.608 180.451 135.856 178.912 136.714H190.168C188.64 135.856 187.795 132.608 187.795 130.049V124.576H192.566C194.964 124.576 196.329 125.433 197.349 127.321C199.051 130.049 200.257 133.806 202.306 136.714H211.35C208.629 134.837 207.251 131.93 205.884 129.024Z" fill="white"/>
<path d="M229.799 137.565C234.06 137.565 237.662 136.365 240.384 133.969C243.638 131.247 245.849 127.141 245.849 121.339C245.849 115.711 243.638 111.438 240.384 108.699C237.662 106.481 234.06 105.283 229.799 105.283C225.525 105.283 221.946 106.481 219.202 108.699C215.971 111.438 213.747 115.711 213.747 121.339C213.747 127.141 215.971 131.247 219.202 133.969C221.946 136.365 225.699 137.565 229.799 137.565ZM223.313 129.539C221.438 127.831 220.581 125.103 220.581 121.339C220.581 117.749 221.438 115.023 223.313 113.146C224.842 111.605 227.066 110.587 229.799 110.587C232.531 110.587 234.755 111.605 236.284 113.146C238.172 115.022 239.19 117.749 239.19 121.339C239.19 125.104 238.171 127.831 236.284 129.539C234.754 131.079 232.531 132.098 229.799 132.098C227.066 132.098 224.842 131.079 223.313 129.539Z" fill="white"/>
<path d="M274.201 128.849C272.486 131.078 268.908 131.757 264.982 131.757H259.005V112.805C259.005 110.24 259.852 106.991 261.218 105.972H250.124C251.651 106.992 252.52 110.241 252.52 112.805V130.049C252.52 132.787 251.651 135.683 250.124 136.714H273.169L274.201 128.849Z" fill="white"/>
<path d="M302.029 128.849C300.316 131.078 296.737 131.93 292.811 131.757H286.662V112.805C286.662 110.24 287.508 106.991 289.058 105.972H277.953C279.481 106.992 280.349 110.241 280.349 112.805V130.049C280.349 132.787 279.481 135.856 277.953 136.875H300.826L302.029 128.849Z" fill="white"/>
<path d="M363.849 110.066C363.849 93.163 350.183 79.503 333.287 79.503H178.055C161.147 79.503 147.481 93.163 147.481 110.066V402.417C147.481 419.337 161.147 432.991 178.055 432.991H333.286C350.182 432.991 363.849 419.337 363.849 402.417V110.066ZM157.903 110.066C157.903 98.965 166.948 89.915 178.055 89.915H333.286C344.555 89.915 353.599 98.965 353.599 110.066V402.417C353.599 413.522 344.555 422.567 333.286 422.567H178.055C166.949 422.567 157.903 413.522 157.903 402.417V110.066Z" fill="#004990"/>
<path d="M166.267 367.928V402.416C166.267 408.924 171.57 414.205 178.056 414.205H333.287C339.945 414.205 345.238 408.924 345.238 402.416V367.928H166.267Z" fill="#004990"/>
<path d="M242.943 326.606V280.666C247.379 280.503 251.652 280.329 255.926 279.981C254.385 276.391 252.845 272.813 250.969 269.397C248.409 269.732 245.689 269.732 242.943 269.907V260.352C236.966 261.717 230.482 262.737 223.823 263.421V326.606C223.823 340.596 217.326 344.36 213.401 346.92H253.355C249.615 344.36 242.943 340.596 242.943 326.606Z" fill="white"/>
<path d="M335.845 346.758C332.603 343.677 328.491 338.895 326.454 329.514C322.7 312.258 314.837 287.497 298.277 269.049C314.502 260.178 324.403 246.165 324.403 228.933C324.565 216.628 318.253 203.657 306.985 195.973C302.203 192.886 296.573 190.668 289.904 189.301C292.3 194.427 293.83 199.893 294.176 205.365C301.171 210.82 304.936 219.193 304.936 229.267C304.936 242.076 298.45 257.097 275.741 264.786C277.604 268.365 279.48 272.129 281.021 275.708C282.225 275.373 283.417 275.035 284.622 274.688C295.207 286.987 303.731 306.282 306.29 324.209C308.179 337.191 303.569 343.677 300.501 346.758H335.845Z" fill="white"/>
<path d="M208.281 249.247V177.53H235.427C245.339 177.698 252.683 179.748 258.486 183.836C266.163 189.301 270.275 198.012 270.275 208.434C270.275 226.014 258.138 248.389 208.281 249.247ZM296.054 326.086C292.636 323.017 288.55 318.232 286.661 308.842C282.908 291.598 275.391 267.347 260.372 250.091C261.044 249.756 261.565 249.581 262.236 249.246C279.319 240.535 289.741 226.014 289.741 208.255C289.904 195.793 283.581 182.985 272.323 175.3C263.44 169.325 251.49 166.939 236.284 166.939H178.738C182.664 169.498 189.15 173.251 189.15 187.252V305.773C189.15 319.936 182.664 323.527 178.738 326.086H218.693C214.94 323.526 208.281 319.936 208.281 305.773V259.831C222.283 259.831 235.427 258.118 246.522 255.222C256.609 267.348 264.125 286.132 266.511 303.376C268.213 316.37 263.778 323.018 260.708 326.087H296.054V326.086Z" fill="white"/>
<path d="M242.943 239.008V198.533H264.461C262.934 194.086 260.188 190.501 256.447 187.762H213.4C217.326 190.326 223.822 193.917 223.822 208.086V243.779C230.992 242.76 237.476 241.232 242.943 239.008Z" fill="white"/>
<path d="M282.053 391.159C282.053 396.95 285.47 401.397 291.446 401.397C295.718 401.397 299.644 400.204 301.348 398.155L300.317 404.825C298.788 405.497 296.055 406.354 291.62 406.354C282.054 406.354 275.393 400.713 275.393 391.159C275.393 386.041 277.444 382.103 280.513 379.544C283.246 377.147 286.998 375.78 291.619 375.78C296.055 375.78 298.787 376.636 300.316 377.493V383.817C298.451 381.768 295.717 380.737 291.445 380.737C285.47 380.737 282.053 385.184 282.053 391.159Z" fill="white"/>
<path d="M200.418 385.346C200.418 388.252 198.033 389.445 194.28 389.445H187.448V381.258H194.28C198.033 381.258 200.418 382.276 200.418 385.346ZM204.692 398.328C203.325 395.595 202.131 393.371 200.082 392.526C204.529 391.669 206.741 388.935 206.915 385.184C206.915 381.258 205.211 378.35 202.131 377.146C200.256 376.463 197.695 376.463 193.932 376.463H179.075C180.452 377.32 181.299 380.227 181.299 382.947V399.358C181.299 401.743 180.452 404.824 179.075 405.843H189.66C188.305 404.823 187.448 401.742 187.448 399.358V394.054H191.884C194.28 394.054 195.635 395.074 196.678 396.786C198.206 399.357 199.4 402.925 201.275 405.668L209.995 405.843C207.251 403.806 206.069 401.223 204.692 398.328Z" fill="white"/>
<path d="M227.413 406.528C231.501 406.528 234.917 405.335 237.476 403.11C240.545 400.551 242.781 396.614 242.781 391.159C242.781 385.694 240.546 381.768 237.476 379.022C234.917 376.983 231.501 375.78 227.413 375.78C223.475 375.78 220.059 376.983 217.5 379.022C214.43 381.768 212.206 385.694 212.206 391.159C212.206 396.614 214.43 400.552 217.5 403.11C220.06 405.335 223.476 406.528 227.413 406.528ZM221.252 398.849C219.55 397.296 218.693 394.737 218.693 391.159C218.693 387.569 219.55 385.021 221.252 383.296C222.793 381.769 224.842 380.911 227.576 380.911C230.135 380.911 232.184 381.768 233.725 383.296C235.427 385.022 236.285 387.569 236.285 391.159C236.285 394.737 235.428 397.297 233.725 398.849C232.184 400.377 230.135 401.397 227.576 401.397C224.842 401.397 222.793 400.378 221.252 398.849Z" fill="white"/>
<path d="M265.654 376.463C266.35 376.983 266.685 377.492 266.512 378.165C266.512 378.859 266.163 379.879 265.492 380.91L259.678 389.271L253.876 380.736C253.193 379.716 252.522 378.698 252.684 377.83C252.846 377.32 253.032 376.81 253.704 376.463H241.924C243.963 377.32 244.993 378.859 246.523 381.083L256.1 394.564V399.358C256.1 401.743 255.243 404.824 253.876 405.669H264.461C263.094 404.824 262.237 401.743 262.237 399.358V394.564L270.957 382.275C272.324 380.573 274.201 377.492 276.25 376.462L265.654 376.463Z" fill="white"/>
<path d="M322.355 401.061H314.838V393.036H326.119L326.79 388.589H314.838V381.259H321.498C325.261 381.259 328.331 381.419 329.871 382.948V376.464H306.476C307.843 377.493 308.689 380.574 308.689 382.948V399.359C308.689 401.907 307.843 404.825 306.476 405.844H330.044L331.062 398.662C329.35 400.887 326.12 401.061 322.355 401.061Z" fill="white"/>
</svg>
