<svg width="512" height="512" viewBox="0 0 512 512" fill="none" xmlns="http://www.w3.org/2000/svg">
<path d="M162.435 206.151C160.685 205.289 158.097 208.374 157.222 208.697C154.609 209.259 152.192 210.612 150.248 212.603C146.872 216.239 125.703 251.028 120.627 257.493C117.916 260.954 115.698 264.038 115.008 264.038C114.318 264.038 112.1 260.954 109.389 257.493C104.313 251.014 83.1195 216.239 79.7557 212.603C77.8119 210.612 75.3953 209.259 72.7816 208.697C71.9067 208.374 69.3315 205.289 67.5695 206.151C66.2264 206.825 67.6804 209.936 67.6804 209.936C68.2841 211.875 75.6525 230.825 83.0209 248.388C89.6747 264.227 95.9341 277.884 98.3862 283.217C108.244 304.605 113.665 306.827 114.984 306.854C116.302 306.854 121.785 304.618 131.581 283.217C134.045 277.83 140.305 264.227 146.958 248.388C154.352 230.879 161.745 211.875 162.274 209.936C162.311 209.936 163.778 206.825 162.435 206.151ZM159.97 210.569C156.73 214.596 133.811 266.611 128.636 276.227C123.461 285.843 116.856 297.776 115.021 297.776C113.197 297.682 106.654 285.884 101.467 276.227C96.2791 266.57 73.3361 214.596 70.0954 210.569C69.2452 209.478 67.1505 207.35 67.9022 206.892C68.9988 206.232 71.5987 209.411 73.1266 209.842C75.2654 210.201 77.2337 211.329 78.7207 213.047C81.4931 215.929 86.5819 225.007 95.5768 239.674C101.196 248.859 105.878 255.93 108.502 259.54C111.768 264.065 114.022 266.274 115.008 266.274C115.994 266.274 118.236 264.106 121.502 259.54C124.126 255.944 128.809 248.873 134.427 239.674C143.422 225.007 148.499 215.929 151.296 213.047C152.781 211.326 154.75 210.198 156.89 209.842C158.442 209.411 161.018 206.232 162.102 206.892C162.89 207.35 160.796 209.478 159.921 210.569H159.97Z" fill="#3C3C3C"/>
<path d="M154.771 213.397C153.538 215.605 148.733 225.922 142.597 238.097C135.783 251.714 127.638 267.108 126.012 270.112C122.968 275.728 116.906 285.304 115.008 285.371C113.123 285.29 107.061 275.728 104.017 270.098C102.403 267.108 94.3078 251.714 87.4446 238.097C81.2837 225.976 76.429 215.605 75.2707 213.397C74.1125 211.188 74.4698 210.434 76.8725 213.397C80.4582 217.935 89.0587 234.286 89.0587 234.286C89.0587 234.286 103.894 261.33 106.211 264.913C108.527 268.495 113.271 275.189 114.984 275.257C116.721 275.189 121.576 268.307 123.769 264.913C125.962 261.519 140.946 234.286 140.946 234.286C140.946 234.286 149.571 217.976 153.156 213.477C155.559 210.434 155.941 210.999 154.771 213.397Z" fill="#3C3C3C"/>
<path fill-rule="evenodd" clip-rule="evenodd" d="M280.034 253.551C276.524 249.589 271.497 248.02 270.753 242.382H263.758V270.785H270.646V253.551C270.646 254.615 275.593 257.461 277.534 260.386C278.842 262.001 279.688 263.94 279.981 265.998C280.172 267.595 280.234 269.204 280.167 270.811H286.896V242.408H280.034V253.551Z" fill="#3C3C3C"/>
<path fill-rule="evenodd" clip-rule="evenodd" d="M357.238 242.385H350.27C348.116 249.539 345.51 257.863 343.303 264.991C342.718 266.932 342.186 268.74 341.547 270.788H346.866C348.808 270.788 348.808 270.788 349.526 268.847C350.244 266.905 350.244 266.56 352.77 266.56C355.297 266.56 356.387 266.852 357.451 264.937L358.355 263.209C358.94 265.709 359.552 268.235 360.164 270.815H368.567C368.381 270.177 363.249 253.209 360.589 244.672C360.397 243.954 359.952 243.327 359.338 242.908C358.723 242.488 357.978 242.303 357.238 242.385ZM353.542 260.363C353.036 260.363 351.999 260.602 351.786 261.294L352.079 260.363L354.738 251.348C354.924 251.933 356.52 257.385 357.398 260.363H353.542Z" fill="#3C3C3C"/>
<path fill-rule="evenodd" clip-rule="evenodd" d="M400.266 255.174C396.49 253.392 393.458 253.233 393.458 250.866C393.458 249.35 394.628 248.366 396.596 248.366C398.963 248.366 401.224 249.376 401.224 251.025C401.913 251.025 402.587 250.813 403.152 250.418C403.718 250.024 404.149 249.465 404.388 248.818C404.585 248.007 404.538 247.156 404.255 246.371C403.971 245.586 403.462 244.901 402.793 244.403C400.958 243.276 398.88 242.606 396.733 242.449C394.586 242.291 392.432 242.652 390.453 243.499C389.02 244.025 387.793 244.995 386.951 246.268C386.109 247.54 385.696 249.049 385.772 250.573C385.772 254.536 389.974 256.823 391.517 257.674C393.059 258.525 395.213 259.482 396.41 260.121C397.607 260.759 398.511 262.035 398.298 262.993C398.085 263.95 396.516 264.509 395.639 264.482C393.938 264.415 392.278 263.941 390.798 263.099C388.928 262.18 387.228 260.948 385.772 259.456V264.509C385.772 266.503 387.554 267.86 389.15 268.897C391.238 270.172 393.645 270.827 396.091 270.785C397.438 270.855 398.786 270.656 400.055 270.199C401.324 269.742 402.49 269.038 403.484 268.126C404.94 266.638 405.768 264.648 405.798 262.567C405.798 259.323 404.335 257.248 400.16 255.174" fill="#3C3C3C"/>
<path fill-rule="evenodd" clip-rule="evenodd" d="M207.723 242.465C208.308 249.034 204.584 254.512 203.122 260.496C201.845 257.039 199.133 248.528 198.016 245.124C197.59 243.821 197.058 242.465 195.356 242.465C193.229 242.465 191.101 242.465 189 242.465C189 242.624 189 242.731 189 242.81C192.271 251.959 195.728 261.719 199.026 270.868H204.717C205.321 270.771 205.888 270.512 206.356 270.119C206.825 269.725 207.177 269.212 207.377 268.634C208.334 265.841 212.696 254.007 213.972 250.018C214.851 247.629 215.222 245.084 215.063 242.545L207.723 242.465Z" fill="#3C3C3C"/>
<path fill-rule="evenodd" clip-rule="evenodd" d="M308.649 270.811H316.388V259.721H320.484C323.143 259.721 324.447 258.312 324.447 256.104V253.445C321.787 253.445 319.128 253.445 316.468 253.445V248.817H325.431V242.382H308.649V270.811Z" fill="#3C3C3C"/>
<path fill-rule="evenodd" clip-rule="evenodd" d="M433.803 242.383H422.687V248.367H429.388V270.812H437.154C437.154 263.313 437.154 255.866 437.154 248.367C441.728 248.367 442.207 248.526 443.749 247.276C445.292 246.026 444.973 245.441 444.973 241C442.898 242.596 437.42 242.383 433.776 242.383" fill="#3C3C3C"/>
<path fill-rule="evenodd" clip-rule="evenodd" d="M239.238 242.382H234.504V270.811H242.164C242.164 266.45 242.164 262.248 242.164 258.046C242.164 253.844 242.164 249.482 242.164 245.174C242.191 244.801 242.135 244.428 241.999 244.079C241.863 243.731 241.65 243.418 241.377 243.163C241.104 242.908 240.778 242.717 240.421 242.605C240.065 242.493 239.688 242.462 239.318 242.515" fill="#3C3C3C"/>
</svg>
