<svg width="512" height="512" viewBox="0 0 512 512" fill="none" xmlns="http://www.w3.org/2000/svg">
<path d="M230.942 240.939C222.883 240.939 216.254 246.924 216.254 256.879C216.254 266.21 220.747 272.061 229.918 272.061C238.064 272.061 244.615 266.032 244.615 256.078C244.615 245.764 238.954 240.939 230.942 240.939ZM311.565 240.939C304.354 240.939 300.132 244.643 300.132 250.001C300.132 259.823 312.815 257.281 312.815 263.042C312.815 265.81 310.457 267.012 307.519 267.012C305.337 267.012 302.936 266.522 301.243 265.941L300.887 271.339C302.758 271.831 304.888 272.061 307.025 272.061C314.415 272.061 318.918 267.904 318.918 262.233C318.918 252.903 306.183 254.82 306.183 249.418C306.183 247.276 307.967 245.762 311.304 245.762C313.13 245.762 314.995 246.071 316.687 246.563L316.999 241.479C315.219 241.165 313.258 240.939 311.565 240.939ZM413.3 240.982C402.883 240.982 396.467 247.727 396.467 257.192C396.467 266.389 402.123 272.009 411.651 272.009C415.257 272.009 418.955 271.343 421.938 270.137V255.764H416.147V266.255C414.992 266.612 413.743 266.786 412.319 266.786C406.22 266.786 402.744 263.036 402.744 256.652C402.744 249.911 407.023 246.162 412.944 246.162C415.749 246.162 418.501 246.739 420.905 247.677L421.799 242.279C419.215 241.52 416.283 240.982 413.3 240.982ZM185.939 241.426L196.4 271.565H203.032L213.537 241.426H207.616L201.695 258.707C200.805 261.25 200.317 262.948 199.872 265.001H199.777C199.243 262.813 198.575 260.76 197.997 259.064L192.172 241.426H185.939ZM251.691 241.426V271.565H267.23V266.472H257.481V241.426H251.691ZM273.463 241.426V271.565H279.245V257.096L288.95 271.565H296.52L285.035 255.982L296.034 241.426H288.994L279.245 255.094V241.426H273.463ZM323.458 241.426L331.115 271.565H337.791L342.149 254.824C342.685 252.817 343.089 250.803 343.312 248.704H343.355C343.668 250.849 344.021 253.034 344.51 254.955L348.877 271.565H355.952L363.609 241.426H357.827L353.73 258.263C353.284 260.048 352.886 261.962 352.575 264.061H352.523C352.256 261.962 351.77 259.82 351.325 258.167L346.689 241.426H340.595L336.011 258.263C335.477 260.183 335.117 262.236 334.804 264.244H334.761C334.494 262.145 334.14 260.044 333.65 258.08L329.552 241.426H323.458ZM375.545 241.426L365.041 271.565H370.866L372.958 265.401H384.4L386.492 271.565H392.821L382.091 241.426H375.545ZM431.505 241.426V271.565H447.843V266.611H437.295V258.437H447.313V253.71H437.295V246.293H447.843V241.426H431.505ZM456.35 241.426V271.565H461.958V260.805C461.958 257.19 461.867 252.103 461.689 249.514C462.579 251.478 463.959 253.846 465.248 256.121L474.155 271.565H481.231V241.426H475.623V250.802C475.623 254.508 475.712 260.225 475.935 263.26C474.821 260.983 473.312 258.303 471.976 255.982L463.512 241.426H456.35ZM230.413 246.162C235.576 246.162 238.426 249.826 238.426 256.522C238.426 263.755 234.234 266.786 230.317 266.786C224.929 266.786 222.443 262.636 222.443 256.252C222.443 249.465 226.272 246.162 230.413 246.162ZM378.566 248.077H378.662C379.064 249.774 379.508 251.248 380.086 252.9L382.89 260.805H374.434L377.143 253.127C377.766 251.387 378.21 249.641 378.566 248.077Z" fill="#001E50"/>
<g clip-path="url(#clip0_1536_27706)">
<path d="M133.051 294.791C111.745 294.791 94.2897 277.25 94.2897 255.944C94.2897 251.153 95.1454 246.618 96.7711 242.339L119.446 287.946C119.703 288.545 120.131 289.059 120.815 289.059C121.5 289.059 121.928 288.545 122.184 287.946L132.624 264.587C132.709 264.33 132.88 264.073 133.137 264.073C133.394 264.073 133.479 264.33 133.65 264.587L144.089 287.946C144.346 288.545 144.774 289.059 145.458 289.059C146.143 289.059 146.571 288.545 146.828 287.946L169.503 242.339C171.128 246.618 171.984 251.153 171.984 255.944C171.813 277.25 154.357 294.791 133.051 294.791ZM133.051 247.131C132.795 247.131 132.709 246.874 132.538 246.618L120.387 219.236C124.324 217.782 128.602 217.012 133.051 217.012C137.501 217.012 141.779 217.782 145.715 219.236L133.565 246.618C133.394 246.96 133.308 247.131 133.051 247.131ZM120.644 275.282C120.387 275.282 120.302 275.026 120.131 274.769L100.45 235.066C103.959 229.675 108.665 225.14 114.398 221.974L128.602 253.548C128.773 254.062 129.201 254.233 129.629 254.233H136.474C136.987 254.233 137.33 254.147 137.586 253.548L151.79 221.974C157.438 225.14 162.23 229.675 165.738 235.066L145.886 274.769C145.801 275.026 145.63 275.282 145.373 275.282C145.116 275.282 145.031 275.026 144.86 274.769L137.415 257.827C137.159 257.228 136.816 257.142 136.303 257.142H129.458C128.944 257.142 128.602 257.228 128.345 257.827L121.158 274.769C121.072 275.026 120.901 275.282 120.644 275.282ZM133.051 298.728C156.753 298.728 175.835 279.646 175.835 255.944C175.835 232.242 156.753 213.161 133.051 213.161C109.349 213.161 90.2681 232.242 90.2681 255.944C90.2681 279.646 109.349 298.728 133.051 298.728Z" fill="#001E50"/>
</g>
<defs>
<clipPath id="clip0_1536_27706">
<rect width="86" height="86" fill="white" transform="translate(90 213)"/>
</clipPath>
</defs>
</svg>
