<svg width="512" height="512" viewBox="0 0 512 512" fill="none" xmlns="http://www.w3.org/2000/svg">
<path d="M69.0335 312.358H86.9628L127.119 378.741H108.085L78.1209 328.093L62.1567 354.892H87.9452L95.6818 367.431H55.2796L48.0345 378.618H29L69.0335 312.358ZM384.881 378.864H403.915L411.161 367.677H451.563L443.826 355.138H418.038L434.002 328.339L463.965 378.987H483L442.844 312.604H424.914L384.881 378.864ZM126.014 345.672V354.524C126.382 371.98 136.207 379.356 151.434 378.987H201.537V365.342H151.557C143.206 365.587 142.592 359.81 142.346 354.032V345.673V336.945C142.592 331.781 143.206 325.881 151.557 326.004H201.537V312.359H151.434C136.207 311.99 126.505 319.489 126.014 336.822V345.672ZM316.234 326.618H356.513C362.162 326.618 364.987 329.077 364.987 333.871C364.987 338.788 362.162 341.124 356.513 341.124H320.41L323.602 355.384H354.426C360.443 355.261 363.881 359.441 364.373 365.219L364.864 378.864H380.828C380.828 378.864 380.705 366.079 380.337 363.498C379.969 360.916 378.863 353.786 372.6 350.344C387.336 340.633 381.933 312.482 360.811 312.482H300.024V378.864H316.234L316.234 326.618ZM250.29 378.864H264.412C281.85 378.495 289.218 368.661 288.85 353.417V312.358H272.885V356.736C273.131 365.096 267.236 365.71 261.587 365.956H250.289H238.378C233.22 365.71 227.326 365.096 227.449 356.736V312.358H211.116V353.54C210.748 368.784 218.238 378.495 235.554 378.864H250.29ZM326.182 200.738C324.831 175.905 316.358 157.712 304.815 147.754C292.289 137.059 268.956 132.88 250.904 133.003C232.852 132.88 209.52 137.059 196.994 147.754C185.45 157.712 176.977 175.906 175.626 200.738C174.398 224.094 179.433 249.541 192.695 263.924C205.467 278.061 231.01 282.486 250.781 282.486C270.552 282.609 296.095 278.061 308.866 263.924C322.129 249.418 327.287 223.971 326.182 200.738ZM246.605 139.272C249.061 139.149 249.675 139.149 250.781 139.149C251.886 139.149 252.377 139.149 254.956 139.272L255.079 193.607C254.342 193.607 247.22 193.607 246.483 193.607C246.483 193.607 246.483 139.272 246.605 139.272ZM185.573 223.602C184.836 214.259 182.012 180.207 195.52 160.784C201.292 152.302 209.765 146.647 218.361 143.697C230.273 139.518 244.518 139.272 244.518 139.272C238.992 152.917 227.572 182.175 225.361 188.69C222.66 196.68 220.326 201.228 217.993 215.611C216.519 227.413 213.94 256.793 213.204 269.578C197.239 261.957 187.661 247.451 185.573 223.602ZM250.658 276.217C239.483 276.094 225.729 274.988 214.8 270.316C218.484 260.482 236.045 218.194 245.746 201.721C246.483 201.721 254.956 201.721 255.693 201.721C265.272 218.194 282.955 260.482 286.64 270.316C275.587 275.11 261.956 276.094 250.658 276.217ZM315.866 223.48C313.779 247.452 304.2 261.834 288.236 269.579C287.499 256.794 284.92 227.414 283.447 215.612C281.113 201.106 278.78 196.681 276.078 188.69C273.868 182.175 262.447 152.917 256.921 139.272C256.921 139.272 271.166 139.518 283.078 143.698C291.674 146.648 300.147 152.425 305.919 160.785C319.427 180.208 316.603 214.26 315.866 223.48Z" fill="black"/>
<path d="M86.9628 312.358H69.0335L29 378.618H48.0345L55.2796 367.431H95.6818L87.9452 354.892H62.1567L78.1209 328.093L108.085 378.741H127.119L86.9628 312.358Z" fill="black"/>
<path d="M403.915 378.864H384.881L424.914 312.604H442.844L483 378.987H463.965L434.002 328.339L418.038 355.138H443.826L451.563 367.677H411.161L403.915 378.864Z" fill="black"/>
<path d="M126.014 354.524V345.672V336.822C126.505 319.489 136.207 311.99 151.434 312.359H201.537V326.004H151.557C143.206 325.881 142.592 331.781 142.346 336.945V345.673V354.032C142.592 359.81 143.206 365.587 151.557 365.342H201.537V378.987H151.434C136.207 379.356 126.382 371.98 126.014 354.524Z" fill="black"/>
<path d="M356.513 326.618H316.234L316.234 378.864H300.024V312.482H360.811C381.933 312.482 387.336 340.633 372.6 350.344C378.863 353.786 379.969 360.916 380.337 363.498C380.705 366.079 380.828 378.864 380.828 378.864H364.864L364.373 365.219C363.881 359.441 360.443 355.261 354.426 355.384H323.602L320.41 341.124H356.513C362.162 341.124 364.987 338.788 364.987 333.871C364.987 329.077 362.162 326.618 356.513 326.618Z" fill="black"/>
<path d="M264.412 378.864H250.29H235.554C218.238 378.495 210.748 368.784 211.116 353.54V312.358H227.449V356.736C227.326 365.096 233.22 365.71 238.378 365.956H250.289H261.587C267.236 365.71 273.131 365.096 272.885 356.736V312.358H288.85V353.417C289.218 368.661 281.85 378.495 264.412 378.864Z" fill="black"/>
</svg>
