<svg width="512" height="512" viewBox="0 0 512 512" fill="none" xmlns="http://www.w3.org/2000/svg">
<path d="M158.917 251.882C158.148 237.286 153.318 226.593 146.738 220.74C139.598 214.454 126.299 211.998 116.01 212.07C105.72 211.998 92.421 214.454 85.2813 220.74C78.7017 226.593 73.8718 237.287 73.1019 251.882C72.4019 265.61 75.2717 280.567 82.8313 289.02C90.1108 297.33 104.67 299.931 115.939 299.931C127.209 300.003 141.768 297.33 149.047 289.02C156.607 280.494 159.547 265.538 158.917 251.882ZM113.559 215.755C114.959 215.682 115.309 215.682 115.939 215.682C116.569 215.682 116.849 215.682 118.319 215.755L118.389 247.691C117.969 247.691 113.91 247.691 113.49 247.691C113.49 247.691 113.49 215.755 113.559 215.755ZM78.7717 265.321C78.3517 259.83 76.7418 239.815 84.4413 228.399C87.7312 223.413 92.5609 220.09 97.4606 218.356C104.25 215.899 112.37 215.755 112.37 215.755C109.22 223.775 102.71 240.971 101.45 244.801C99.9106 249.497 98.5805 252.17 97.2507 260.624C96.4106 267.561 94.9408 284.829 94.5208 292.344C85.4212 287.864 79.9615 279.338 78.7717 265.321ZM115.87 296.246C109.5 296.174 101.66 295.523 95.4307 292.778C97.5306 286.997 107.54 262.142 113.07 252.46C113.49 252.46 118.319 252.46 118.739 252.46C124.199 262.142 134.278 286.997 136.379 292.778C130.079 295.595 122.309 296.174 115.87 296.246ZM153.037 265.249C151.848 279.339 146.388 287.792 137.288 292.344C136.868 284.83 135.399 267.561 134.559 260.625C133.229 252.099 131.899 249.498 130.359 244.801C129.099 240.972 122.589 223.775 119.439 215.755C119.439 215.755 127.559 215.899 134.348 218.356C139.248 220.09 144.078 223.486 147.368 228.399C155.067 239.815 153.457 259.83 153.037 265.249Z" fill="white"/>
<path d="M205.574 237.215H215.684L238.327 274.647H227.594L210.698 246.088L201.696 261.199H216.238L220.6 268.269H197.818L193.733 274.577H183L205.574 237.215ZM383.673 274.716H394.406L398.491 268.408H421.273L416.911 261.338H402.369L411.371 246.227L428.267 274.785H439L416.357 237.354H406.247L383.673 274.716ZM237.704 256V260.991C237.912 270.834 243.451 274.993 252.038 274.785H280.29V267.091H252.107C247.398 267.23 247.052 263.972 246.913 260.714V256V251.079C247.052 248.167 247.398 244.84 252.107 244.91H280.29V237.215H252.038C243.451 237.007 237.981 241.236 237.704 251.01V256ZM344.965 245.256H367.677C370.862 245.256 372.455 246.642 372.455 249.346C372.455 252.118 370.862 253.436 367.677 253.436H347.319L349.119 261.476H366.5C369.893 261.407 371.832 263.764 372.109 267.022L372.386 274.716H381.388C381.388 274.716 381.318 267.507 381.111 266.051C380.903 264.596 380.28 260.575 376.748 258.634C385.058 253.158 382.011 237.285 370.101 237.285H335.824V274.716H344.964L344.965 245.256ZM307.78 274.716H315.743C325.576 274.508 329.731 268.963 329.523 260.367V237.215H320.521V262.239C320.66 266.952 317.336 267.299 314.15 267.438H307.78H301.063C298.155 267.299 294.831 266.952 294.901 262.239V237.215H285.691V260.437C285.483 269.032 289.707 274.508 299.471 274.716H307.78Z" fill="white"/>
<path d="M215.684 237.215H205.574L183 274.577H193.733L197.818 268.269H220.6L216.238 261.199H201.696L210.698 246.088L227.594 274.647H238.327L215.684 237.215Z" fill="white"/>
<path d="M394.406 274.716H383.673L406.247 237.354H416.357L439 274.785H428.267L411.371 246.227L402.369 261.338H416.911L421.273 268.408H398.491L394.406 274.716Z" fill="white"/>
<path d="M237.704 260.991V256V251.01C237.981 241.236 243.451 237.007 252.038 237.215H280.29V244.91H252.107C247.398 244.84 247.052 248.167 246.913 251.079V256V260.714C247.052 263.972 247.398 267.23 252.107 267.091H280.29V274.785H252.038C243.451 274.993 237.912 270.834 237.704 260.991Z" fill="white"/>
<path d="M367.677 245.256H344.965L344.964 274.716H335.824V237.285H370.101C382.011 237.285 385.058 253.158 376.748 258.634C380.28 260.575 380.903 264.596 381.111 266.051C381.318 267.507 381.388 274.716 381.388 274.716H372.386L372.109 267.022C371.832 263.764 369.893 261.407 366.5 261.476H349.119L347.319 253.436H367.677C370.862 253.436 372.455 252.118 372.455 249.346C372.455 246.642 370.862 245.256 367.677 245.256Z" fill="white"/>
<path d="M315.743 274.716H307.78H299.471C289.707 274.508 285.483 269.032 285.691 260.437V237.215H294.901V262.239C294.831 266.952 298.155 267.299 301.063 267.438H307.78H314.15C317.336 267.299 320.66 266.952 320.521 262.239V237.215H329.523V260.367C329.731 268.963 325.576 274.508 315.743 274.716Z" fill="white"/>
</svg>
