<svg width="512" height="512" viewBox="0 0 512 512" fill="none" xmlns="http://www.w3.org/2000/svg">
<path d="M158.917 251.881C158.148 237.286 153.318 226.592 146.738 220.74C139.598 214.454 126.299 211.997 116.01 212.069C105.72 211.997 92.421 214.454 85.2813 220.74C78.7017 226.593 73.8718 237.286 73.1019 251.881C72.4019 265.61 75.2717 280.566 82.8313 289.02C90.1108 297.329 104.67 299.93 115.939 299.93C127.209 300.003 141.768 297.329 149.047 289.02C156.607 280.494 159.547 265.537 158.917 251.881ZM113.559 215.754C114.959 215.682 115.309 215.682 115.939 215.682C116.569 215.682 116.849 215.682 118.319 215.754L118.389 247.691C117.969 247.691 113.91 247.691 113.49 247.691C113.49 247.691 113.49 215.754 113.559 215.754ZM78.7717 265.32C78.3517 259.829 76.7418 239.815 84.4413 228.398C87.7312 223.413 92.5609 220.089 97.4606 218.355C104.25 215.899 112.37 215.754 112.37 215.754C109.22 223.774 102.71 240.971 101.45 244.8C99.9106 249.497 98.5805 252.17 97.2507 260.624C96.4105 267.56 94.9408 284.829 94.5208 292.343C85.4212 287.864 79.9615 279.338 78.7717 265.32ZM115.87 296.245C109.5 296.173 101.66 295.523 95.4307 292.777C97.5306 286.997 107.54 262.141 113.07 252.459C113.49 252.459 118.319 252.459 118.739 252.459C124.199 262.141 134.278 286.997 136.379 292.777C130.079 295.595 122.309 296.173 115.87 296.245ZM153.037 265.249C151.848 279.338 146.388 287.792 137.288 292.344C136.868 284.829 135.399 267.561 134.559 260.624C133.229 252.098 131.899 249.497 130.359 244.801C129.099 240.971 122.589 223.775 119.439 215.754C119.439 215.754 127.559 215.899 134.348 218.356C139.248 220.09 144.078 223.485 147.368 228.399C155.067 239.815 153.457 259.829 153.037 265.249Z" fill="black"/>
<path d="M205.574 237.215H215.684L238.327 274.646H227.594L210.698 246.087L201.696 261.199H216.238L220.6 268.269H197.818L193.733 274.577H183L205.574 237.215ZM383.673 274.716H394.406L398.491 268.408H421.273L416.911 261.337H402.369L411.371 246.226L428.267 274.785H439L416.357 237.353H406.247L383.673 274.716ZM237.704 256V260.991C237.912 270.834 243.451 274.993 252.038 274.785H280.29V267.091H252.107C247.398 267.229 247.052 263.971 246.913 260.713V256V251.078C247.052 248.167 247.398 244.84 252.107 244.909H280.29V237.215H252.038C243.451 237.007 237.981 241.235 237.704 251.009V256ZM344.965 245.256H367.677C370.862 245.256 372.455 246.642 372.455 249.345C372.455 252.118 370.862 253.435 367.677 253.435H347.319L349.119 261.476H366.5C369.893 261.407 371.832 263.763 372.109 267.021L372.386 274.716H381.388C381.388 274.716 381.318 267.507 381.111 266.051C380.903 264.595 380.28 260.575 376.748 258.634C385.058 253.158 382.011 237.284 370.101 237.284H335.824V274.716H344.964L344.965 245.256ZM307.78 274.716H315.743C325.576 274.508 329.731 268.962 329.523 260.367V237.215H320.521V262.238C320.66 266.952 317.336 267.298 314.15 267.437H307.78H301.063C298.155 267.299 294.831 266.952 294.901 262.238V237.215H285.691V260.436C285.483 269.032 289.707 274.508 299.471 274.716H307.78Z" fill="black"/>
<path d="M215.684 237.215H205.574L183 274.577H193.733L197.818 268.269H220.6L216.238 261.199H201.696L210.698 246.087L227.594 274.646H238.327L215.684 237.215Z" fill="black"/>
<path d="M394.406 274.716H383.673L406.247 237.353H416.357L439 274.785H428.267L411.371 246.226L402.369 261.337H416.911L421.273 268.408H398.491L394.406 274.716Z" fill="black"/>
<path d="M237.704 260.991V256V251.009C237.981 241.235 243.451 237.007 252.038 237.215H280.29V244.909H252.107C247.398 244.84 247.052 248.167 246.913 251.078V256V260.713C247.052 263.971 247.398 267.229 252.107 267.091H280.29V274.785H252.038C243.451 274.993 237.912 270.834 237.704 260.991Z" fill="black"/>
<path d="M367.677 245.256H344.965L344.964 274.716H335.824V237.284H370.101C382.011 237.284 385.058 253.158 376.748 258.634C380.28 260.575 380.903 264.595 381.111 266.051C381.318 267.507 381.388 274.716 381.388 274.716H372.386L372.109 267.021C371.832 263.763 369.893 261.407 366.5 261.476H349.119L347.319 253.435H367.677C370.862 253.435 372.455 252.118 372.455 249.345C372.455 246.642 370.862 245.256 367.677 245.256Z" fill="black"/>
<path d="M315.743 274.716H307.78H299.471C289.707 274.508 285.483 269.032 285.691 260.436V237.215H294.901V262.238C294.831 266.952 298.155 267.299 301.063 267.437H307.78H314.15C317.336 267.298 320.66 266.952 320.521 262.238V237.215H329.523V260.367C329.731 268.962 325.576 274.508 315.743 274.716Z" fill="black"/>
</svg>
