<svg width="512" height="512" viewBox="0 0 512 512" fill="none" xmlns="http://www.w3.org/2000/svg">
<path d="M461.804 248.383H459.45C459.45 248.383 459.253 248.383 459.253 248.578C459.45 250.92 457.095 252.871 453.76 253.846C452.779 244.09 432.964 252.09 430.806 261.651C421.782 266.139 417.662 262.627 417.269 261.261C417.269 261.261 430.021 257.554 430.61 251.505C430.806 246.432 413.542 250.334 410.403 261.456C406.871 263.407 402.555 263.407 402.555 262.627C402.359 260.871 408.049 256.188 409.226 253.456C410.403 250.334 407.068 250.529 407.068 250.529C404.321 250.92 396.67 253.261 396.67 253.261C397.651 247.602 389.411 252.09 383.721 253.261C384.114 249.359 380.582 250.139 368.223 253.651C367.242 243.895 347.231 251.895 345.072 261.456C340.168 263.797 338.01 263.212 338.01 261.651C338.206 259.505 342.326 255.212 340.756 252.285C358.609 247.602 355.667 234.139 347.034 230.432C348.015 229.652 348.996 229.066 349.781 228.676C349.781 228.676 349.977 228.481 349.585 228.481H346.25C346.053 228.481 346.053 228.481 345.857 228.676C345.465 228.871 344.876 229.261 344.484 229.652C315.252 222.042 293.868 251.115 314.663 253.846L318.98 250.139C319.96 249.359 319.568 249.163 318.783 249.163C316.821 249.163 315.448 248.773 314.663 248.188C305.443 241.554 322.903 227.895 340.364 232.773C329.77 240.773 317.214 266.139 305.443 258.529C305.05 258.334 304.854 258.529 304.462 258.724C302.304 261.066 298.576 263.992 298.576 263.992C298.184 264.188 298.184 264.773 298.576 264.968C313.094 271.407 321.334 262.041 329.377 250.92C330.162 252.48 332.516 254.432 336.44 253.456C336.44 255.602 328.789 262.627 328.397 263.992C326.631 269.456 339.187 266.334 344.876 263.797C348.604 271.797 364.495 263.602 367.242 256.383C374.893 253.846 373.52 256.578 372.931 257.554C368.223 263.407 365.476 266.139 365.476 266.724C365.476 266.919 365.672 267.114 365.868 267.114H370.969C371.754 267.114 372.146 266.724 372.735 266.334C373.127 265.944 379.798 257.944 381.171 256.383C389.411 253.066 385.879 257.554 385.879 257.554C381.171 263.212 378.424 266.139 378.424 266.724C378.424 266.919 378.62 267.114 378.817 267.114H383.918C384.702 267.114 385.095 266.724 385.683 266.334C386.076 265.944 393.138 257.554 394.119 256.188C401.967 253.456 398.632 257.358 398.239 257.749C397.847 258.334 393.531 263.212 393.334 263.992C392.55 267.895 396.866 268.675 410.207 263.407C414.13 271.212 428.844 263.992 430.414 263.212C430.414 263.407 430.414 263.602 430.61 263.797C434.338 271.797 450.229 263.602 452.975 256.383C460.823 254.237 462 248.773 462 248.578C462 248.383 462 248.383 461.804 248.383ZM342.914 234.139C351.547 239.798 345.269 247.017 339.187 249.749C338.01 248.383 335.459 246.627 331.732 247.993C335.263 243.115 338.794 238.042 342.914 234.139ZM331.536 249.944C333.105 248.188 336.636 249.749 336.636 250.92C333.497 252.285 331.339 250.139 331.536 249.944ZM365.28 254.822C361.552 256.773 362.337 259.31 361.945 259.7C357.236 263.797 353.901 263.602 352.92 262.432C349.977 259.115 360.767 248.773 365.084 252.48C365.476 252.871 365.476 253.846 365.28 254.822ZM425.902 251.505C426.49 251.31 426.686 251.7 426.49 252.285C425.117 257.358 416.681 259.505 416.681 259.505C416.681 259.505 417.662 252.676 425.902 251.505ZM450.817 255.017C447.09 256.578 448.071 259.31 447.482 259.7C442.774 263.797 439.438 263.602 438.458 262.432C435.515 259.115 446.305 248.773 450.621 252.48C451.21 252.871 451.21 254.041 450.817 255.017ZM298.184 258.139H295.437C295.437 258.139 295.241 258.139 295.241 258.334C294.064 260.48 290.14 263.017 286.216 263.992C278.957 266.139 283.273 260.285 283.273 260.285C289.748 252.48 290.14 251.895 290.729 251.115C290.925 250.92 290.532 250.724 290.14 250.724H285.432C284.254 250.724 283.47 251.31 282.881 251.895L282.685 251.7C280.723 248.578 273.072 248.968 267.382 252.676C263.459 255.212 260.908 258.529 260.123 261.261C257.181 261.261 254.63 260.871 252.472 260.285L257.769 253.846C268.952 250.724 287.197 233.164 278.173 233.359C270.521 234.334 260.32 242.334 247.175 257.554C246.783 257.163 244.428 255.602 243.055 256.773C242.27 257.358 242.467 258.724 243.448 259.7C229.714 264.773 230.499 262.041 231.676 260.285C232.657 258.919 236.189 253.846 236.189 253.846C249.922 249.554 267.971 230.822 255.611 233.554C250.314 234.725 239.524 241.359 224.221 259.505C217.158 262.822 211.861 264.773 216.766 258.334C221.867 251.895 237.758 234.139 237.758 233.554C237.758 233.359 237.562 233.164 237.17 233.164H230.695C229.714 233.164 228.93 233.944 228.341 234.53C224.614 232.188 219.709 232.969 219.709 232.969C201.463 234.334 185.18 251.505 186.553 261.261C186.946 263.797 189.3 267.31 194.597 267.31C195.774 267.31 200.286 266.724 205.191 264.383C205.191 264.383 203.033 270.627 221.278 264.188C221.278 264.383 218.532 271.017 241.878 263.017C241.682 263.407 233.638 272.187 229.518 276.285C220.101 285.846 213.431 279.602 213.038 279.212H212.842L211.077 280.773C211.077 280.773 210.88 280.968 211.077 281.163C226.183 292.285 242.27 271.407 250.314 263.017C252.864 263.602 256.2 263.797 260.123 263.212C260.123 263.992 260.32 264.578 260.712 265.163C262.478 267.895 268.756 267.895 274.053 265.163C274.053 265.163 274.837 269.066 285.628 266.529C290.925 265.358 296.81 261.456 298.38 258.529C298.38 258.334 298.184 258.139 298.184 258.139ZM274.053 236.676C276.211 235.31 276.211 238.237 273.072 241.554C265.617 249.359 259.731 250.529 259.731 250.529C259.731 250.529 267.579 240.578 274.053 236.676ZM253.257 236.676C255.415 235.31 255.415 238.237 252.276 241.554C244.821 249.359 238.935 250.529 238.935 250.529C238.935 250.529 246.783 240.578 253.257 236.676ZM199.698 262.041C188.515 260.675 198.324 247.212 209.115 240.188C216.766 235.115 224.81 233.749 225.398 237.847C225.202 239.017 224.417 240.578 222.455 242.725C220.494 244.871 214.412 251.895 209.507 257.554C205.976 260.871 201.856 262.236 199.698 262.041ZM280.527 254.822C278.957 256.773 276.799 259.31 275.23 261.456C272.091 263.602 268.952 264.188 267.775 262.822C266.401 261.261 267.971 257.554 271.502 254.822C274.837 251.895 278.761 250.92 280.135 252.48C280.527 253.066 280.723 253.846 280.527 254.822Z" fill="white"/>
<path d="M158 256.5C158 283.286 136.286 305 109.5 305C82.7142 305 61 283.286 61 256.5C61 229.714 82.7142 208 109.5 208C136.286 208 158 229.714 158 256.5Z" fill="#5F5F5F"/>
<path d="M109 222C104.796 222.079 100.763 222.826 97.0133 224.132V251.104H109V222ZM87.197 230.038C80.9462 235.334 76.5382 242.637 75.0394 250.911H87.197V230.038ZM96.5892 260.674V288.871C100.437 290.175 104.576 290.921 108.891 291V260.674H96.5892ZM75 260.75C76.246 269.562 80.7475 277.356 87.274 282.928V260.75H75Z" fill="white"/>
<path d="M110 222C128.839 222.366 144 237.679 144 256.504C144 275.329 128.839 290.634 110 291V222Z" fill="#848484"/>
<path d="M96.3876 226V252.915H109V260.861H96.3876V289C93.4719 287.809 90.7564 286.238 88.3062 284.35V260.861H75.1666C75.0567 259.756 75 258.636 75 257.503C75 255.947 75.1067 254.416 75.3122 252.915H88.306V230.651C90.7562 228.763 93.4719 227.192 96.3876 226Z" fill="#222222"/>
<path d="M131 234H118V235H131V234Z" fill="#3B3B3B"/>
<path d="M109.643 205C91.8124 204.972 74.451 214.21 64.9017 230.751C50.6885 255.369 59.1336 286.885 83.7515 301.098C108.369 315.312 139.885 306.866 154.098 282.248C168.311 257.63 159.866 226.114 135.248 211.9C127.171 207.237 118.351 205.014 109.643 205ZM109.5 207.483C136.557 207.483 158.516 229.443 158.516 256.499C158.516 283.556 136.557 305.516 109.5 305.516C82.4434 305.516 60.4842 283.556 60.4842 256.499C60.4842 229.443 82.4434 207.483 109.5 207.483ZM106.549 209.2V219.36H109.645V215.937L112.145 219.36L116.218 219.956L112.688 215.393C113.462 215.232 114.915 214.41 114.915 212.677C114.915 210.083 112.579 209.254 111.113 209.254L106.549 209.2ZM110.46 211.427C111.302 211.427 111.899 211.998 111.927 212.623C111.954 213.247 111.522 213.925 110.569 213.925H109.59L109.537 211.481L110.46 211.427ZM125.055 212.004C125 212.004 124.944 212.005 124.889 212.006C122.218 212.06 119.96 213.68 119.42 216.325C118.881 218.959 121.274 222.076 124.198 222.74C127.371 223.46 130.332 221.953 131 218.534C131.571 215.605 129.419 212.73 126.223 212.12C125.83 212.045 125.439 212.007 125.055 212.004ZM87.5899 214.687L84.8193 216.153L86.122 227.615L89.0562 225.443L88.6764 223.706L91.8814 221.803L93.3477 222.89L96.7162 221.533L87.5899 214.687ZM125.126 214.813C125.314 214.813 125.506 214.83 125.698 214.867C127.24 215.161 128.219 216.494 127.95 217.909C127.68 219.323 126.263 220.285 124.721 219.991C123.179 219.697 122.418 218.204 122.688 216.79C122.923 215.552 123.808 214.809 125.126 214.813ZM87.6988 218.326L90.0336 220.119L88.3494 221.097L87.6988 218.326ZM139.361 219.794L130.669 225.824L133.222 227.833L137.406 224.574L135.286 229.843L136.373 230.875L141.698 228.702L138.493 233.048L140.448 235.819L146.587 227.018L144.63 224.683L139.632 226.692L141.643 221.64L139.361 219.794ZM109.5 221.078C89.9549 221.078 74.0771 236.956 74.0771 256.501C74.0771 276.046 89.9549 291.923 109.5 291.923C129.045 291.923 144.923 276.046 144.923 256.501C144.923 236.956 129.045 221.078 109.5 221.078ZM77.0505 222.237L72.8136 227.127L80.2008 233.7L82.2666 231.311L79.4414 228.811L81.5054 226.583L79.7121 224.954L77.6481 227.236L76.6163 226.258L78.8437 223.813L77.0505 222.237ZM108.815 222.444V250.556H97.7956V224.502C101.243 223.241 104.95 222.52 108.815 222.444ZM110.178 222.444C123.149 222.697 134.343 230.208 139.874 241.081C139.802 240.985 139.73 240.892 139.656 240.8C138.301 239.117 136.594 238 135.14 237.065C135.024 236.991 134.889 236.954 134.751 236.958C134.539 236.964 134.342 237.068 134.218 237.241C133.88 237.709 133.241 238.099 132.408 238.099H126.133C125.818 238.099 125.519 238.185 125.261 238.371C125.003 238.558 124.774 238.892 124.774 239.288V240.003C124.771 240.007 124.765 240.018 124.738 240.039C124.677 240.086 124.556 240.136 124.421 240.136H119.014L119.019 239.684V239.679V239.676C119.019 238.853 118.6 238.105 117.952 237.632L117.942 237.624L117.933 237.619L115.569 236.016L115.566 236.013L115.563 236.011C115.186 235.763 114.766 235.645 114.369 235.654C114.237 235.656 114.107 235.674 113.982 235.705C113.484 235.827 113.078 236.142 112.816 236.544C112.291 237.349 112.412 238.621 113.42 239.342L114.529 240.19L114.537 240.197L114.546 240.202C114.779 240.369 114.909 240.571 114.909 240.626L114.881 242.423V242.428V242.433C114.881 242.455 114.878 242.461 114.876 242.469C114.845 242.469 114.785 242.462 114.662 242.421C114.4 242.335 114.201 242.225 113.892 242.108C113.583 241.991 113.187 241.899 112.676 241.899C111.777 241.899 111.039 242.304 110.576 242.844C110.414 243.033 110.282 243.235 110.178 243.445V222.444H110.178ZM96.4334 225.035V251.918H108.815V259.854H96.4334V287.96C93.5708 286.77 90.9048 285.202 88.4993 283.316V259.854H75.5995C75.4916 258.751 75.436 257.633 75.436 256.501C75.436 254.947 75.5407 253.417 75.7425 251.918H88.4992V229.681C90.9046 227.795 93.5708 226.226 96.4334 225.035ZM119.523 230.272C118.967 230.272 118.515 230.724 118.515 231.28C118.515 231.837 118.967 232.288 119.523 232.288C120.08 232.288 120.532 231.837 120.532 231.28C120.532 230.724 120.08 230.272 119.523 230.272ZM122.092 230.272C121.535 230.272 121.083 230.724 121.083 231.28C121.083 231.837 121.535 232.288 122.092 232.288C122.648 232.288 123.1 231.837 123.1 231.28C123.1 230.724 122.648 230.272 122.092 230.272ZM124.658 230.272C124.101 230.272 123.65 230.724 123.65 231.28C123.65 231.837 124.101 232.288 124.658 232.288C125.214 232.288 125.666 231.837 125.666 231.28C125.666 230.724 125.214 230.272 124.658 230.272ZM127.224 230.272C126.668 230.272 126.216 230.724 126.216 231.28C126.216 231.837 126.668 232.288 127.224 232.288C127.781 232.288 128.232 231.837 128.232 231.28C128.232 230.724 127.781 230.272 127.224 230.272ZM129.792 230.272C129.236 230.272 128.784 230.724 128.784 231.28C128.784 231.837 129.236 232.288 129.792 232.288C130.349 232.288 130.8 231.837 130.8 231.28C130.8 230.724 130.349 230.272 129.792 230.272ZM87.1369 230.809V250.556H75.9538C77.3325 242.728 81.3866 235.819 87.1369 230.809ZM118.8 232.907V234.541H130.516V232.907H118.8ZM118.8 235.107V236.742H130.516V235.107H118.8ZM151.421 235.114L142.186 238.862L144.793 244.947L147.237 243.915L145.88 240.817L147.021 240.274L148.325 243.262L150.551 242.338L149.303 239.46L150.389 238.971L151.692 242.067L153.974 241.144L151.421 235.114ZM67.054 236.255L65.7514 239.133L74.7685 243.317L77.6481 237.448L75.4207 236.307L73.682 239.351L67.054 236.255ZM114.408 237.012C114.515 237.006 114.641 237.034 114.811 237.147L117.168 238.746C117.462 238.96 117.657 239.356 117.657 239.676L117.63 241.885V241.888V241.893C117.63 242.763 118.07 243.504 118.638 244.022C118.973 244.327 119.357 244.568 119.767 244.715C119.357 244.862 118.973 245.103 118.638 245.408C118.07 245.926 117.63 246.667 117.63 247.537V247.542V247.545L117.657 249.763C117.657 250.082 117.442 250.483 117.148 250.698L114.805 252.287C114.577 252.437 114.438 252.435 114.306 252.402C114.174 252.37 114.044 252.276 113.957 252.142C113.781 251.873 113.705 251.559 114.212 251.197L114.221 251.19L114.229 251.183L115.356 250.323C115.738 250.05 116.271 249.592 116.271 248.804V248.799V248.794L116.244 246.987C116.244 246.601 116.105 246.166 115.716 245.871C115.326 245.577 114.77 245.54 114.238 245.715C113.858 245.839 113.609 245.973 113.41 246.048C113.211 246.124 113.042 246.169 112.676 246.169C112.163 246.169 111.847 245.976 111.61 245.699C111.372 245.422 111.251 245.036 111.251 244.783V244.647C111.251 244.393 111.372 244.008 111.61 243.731C111.847 243.454 112.163 243.26 112.676 243.26C113.042 243.26 113.211 243.306 113.41 243.381C113.609 243.457 113.858 243.59 114.238 243.715C114.77 243.89 115.326 243.853 115.716 243.558C116.105 243.264 116.244 242.818 116.244 242.433L116.271 240.636V240.631V240.626C116.271 239.838 115.721 239.368 115.339 239.095L114.229 238.247L114.221 238.24L114.212 238.233C113.705 237.871 113.781 237.557 113.957 237.288C114.044 237.154 114.174 237.06 114.306 237.028C114.339 237.02 114.372 237.014 114.408 237.012ZM134.881 238.526C136.184 239.379 137.537 240.341 138.595 241.655C139.782 243.13 140.623 245.027 140.623 247.824C140.623 253.08 135.715 257.301 130.994 257.301H119.586C119.262 257.301 118.931 257.45 118.73 257.679C118.529 257.909 118.448 258.186 118.451 258.451C118.453 258.716 118.538 258.987 118.737 259.212C118.935 259.438 119.262 259.589 119.586 259.589H130.724C134.728 259.589 136.863 262.166 136.863 265.208C136.863 268.173 134.645 270.961 130.751 270.961H119.275C118.997 270.961 118.701 271.087 118.519 271.29C118.336 271.492 118.26 271.739 118.262 271.974C118.263 272.21 118.34 272.452 118.521 272.652C118.701 272.852 118.996 272.979 119.275 272.979H127.817C129.656 272.979 131.22 274.771 131.22 276.482C131.22 277.35 130.973 278.151 130.428 278.733C129.882 279.316 129.011 279.738 127.546 279.738H122.424C122.22 279.738 122.005 279.783 121.807 279.926C121.61 280.068 121.448 280.341 121.457 280.624C121.465 280.907 121.628 281.149 121.818 281.284C122.007 281.419 122.219 281.468 122.424 281.468H125.821C126.3 281.468 126.655 281.678 126.935 282.019C127.215 282.359 127.378 282.836 127.378 283.217C127.378 283.692 127.202 284.131 126.892 284.406C126.691 284.584 126.414 284.708 126.032 284.738C126.051 284.542 126.054 284.32 125.923 284.053C125.768 283.738 125.335 283.486 124.967 283.486H122.928C122.218 283.486 121.434 283.219 120.856 282.713C120.277 282.208 119.88 281.492 119.88 280.46C119.88 279.512 120.276 278.836 120.838 278.35C121.401 277.865 122.148 277.611 122.698 277.611H127.708C127.934 277.611 128.155 277.572 128.366 277.444C128.576 277.316 128.793 277.047 128.793 276.712C128.793 276.377 128.574 276.107 128.364 275.98C128.153 275.852 127.934 275.814 127.708 275.814H119.859C116.839 275.814 115.158 273.677 115.158 271.373C115.158 269.317 116.918 266.881 119.587 266.881H131.267C131.585 266.881 131.912 266.732 132.107 266.506C132.301 266.28 132.378 266.01 132.376 265.753C132.374 265.496 132.294 265.232 132.102 265.009C131.909 264.786 131.586 264.636 131.267 264.636H119.371C116.045 264.636 113.414 262.17 113.414 258.446C113.414 255.335 115.959 252.145 119.723 252.145H130.506C131.094 252.145 131.622 251.88 131.945 251.494C132.268 251.108 132.412 250.633 132.415 250.164C132.418 249.696 132.278 249.216 131.954 248.827C131.629 248.439 131.098 248.175 130.506 248.175H119.001L118.993 247.53C118.993 247.131 119.209 246.731 119.556 246.414C119.904 246.098 120.371 245.917 120.656 245.917H127.104C127.353 245.917 127.6 245.859 127.843 245.692C128.086 245.525 128.311 245.165 128.311 244.715C128.311 244.251 128.173 244.017 127.843 243.737C127.6 243.57 127.353 243.512 127.104 243.512H120.656C120.371 243.512 119.904 243.331 119.556 243.015C119.209 242.699 118.993 242.291 118.993 241.893L118.998 241.498H126.867C127.303 241.498 127.7 241.358 128.013 241.118C128.326 240.878 128.582 240.51 128.582 240.045V239.461H132.409C133.401 239.461 134.263 239.091 134.881 238.526ZM141.824 245.743C142.948 249.125 143.557 252.742 143.557 256.501C143.557 268.399 137.456 278.871 128.21 284.961C128.571 284.447 128.74 283.828 128.74 283.217C128.74 282.489 128.478 281.75 127.987 281.153C127.968 281.129 127.944 281.108 127.924 281.085C129.474 281.01 130.653 280.486 131.422 279.665C132.253 278.777 132.582 277.611 132.582 276.482C132.582 274.814 131.648 273.209 130.233 272.323H130.751C135.315 272.323 138.225 268.875 138.225 265.208C138.225 262.099 136.203 259.313 132.839 258.483C137.669 257.576 141.985 253.23 141.985 247.824C141.985 247.085 141.928 246.392 141.824 245.743ZM110.178 245.985C110.282 246.195 110.414 246.398 110.576 246.586C111.039 247.126 111.777 247.532 112.676 247.532C113.186 247.532 113.583 247.439 113.892 247.322C114.2 247.206 114.399 247.095 114.662 247.009C114.785 246.968 114.845 246.961 114.876 246.961C114.878 246.97 114.881 246.976 114.881 246.997V247.002V247.007L114.909 248.814C114.909 248.87 114.779 249.061 114.546 249.228L114.537 249.233L114.529 249.24L113.403 250.102C112.395 250.823 112.291 252.081 112.816 252.886C113.039 253.228 113.366 253.507 113.766 253.658C112.675 255.024 112.051 256.731 112.051 258.446C112.051 262.23 114.505 265.099 117.76 265.818C115.322 266.651 113.795 269.086 113.795 271.373C113.795 274.372 116.17 277.177 119.859 277.177H120.127C120.067 277.224 120.006 277.268 119.948 277.318C119.13 278.024 118.517 279.112 118.517 280.46C118.517 281.861 119.11 283 119.958 283.74C120.806 284.481 121.887 284.849 122.928 284.849H124.634C124.599 284.973 124.56 285.089 124.56 285.089C124.476 285.278 124.483 285.495 124.578 285.678C124.674 285.862 124.847 285.992 125.05 286.032C125.537 286.129 125.998 286.136 126.416 286.065C121.615 288.817 116.081 290.435 110.178 290.55V245.985H110.178ZM73.4657 247.172L62.8717 250.65L62.4919 253.8L72.5426 259.233L72.4881 255.593L70.9691 254.89L71.1974 251.149L72.9769 250.704L73.4657 247.172ZM151.367 247.499C147.821 247.499 146.043 250.405 146.043 253.311C146.043 256.218 148.146 259.125 151.367 259.125C154.586 259.125 156.745 256.489 156.745 253.311C156.745 250.188 154.858 247.499 151.367 247.499ZM119.016 249.538H130.506C130.739 249.538 130.824 249.601 130.908 249.701C130.991 249.801 131.054 249.974 131.052 250.158C131.052 250.341 130.987 250.516 130.901 250.619C130.815 250.722 130.729 250.783 130.506 250.783H119.723C119.395 250.783 119.074 250.804 118.761 250.842C118.926 250.51 119.02 250.141 119.02 249.754V249.751V249.745L119.016 249.538ZM151.435 250.65C152.998 250.65 153.909 252.109 153.909 253.312C153.909 254.487 152.964 255.973 151.435 255.973C149.905 255.973 149.015 254.683 149.015 253.312C149.015 251.94 149.872 250.65 151.435 250.65ZM68.8134 251.745L68.6839 253.829L65.806 252.496L68.8134 251.745ZM75.7595 261.217H87.1369V282.189C81.0874 276.92 76.9145 269.549 75.7595 261.217ZM97.7956 261.217H108.815V290.55C104.95 290.474 101.243 289.753 97.7956 288.491V261.217Z" fill="white"/>
<path d="M114.966 237.001C115.067 236.994 115.185 237.023 115.345 237.141L117.559 238.801C117.835 239.023 118.018 239.435 118.018 239.767L117.992 242.06V242.064V242.069C117.992 242.972 118.406 243.742 118.939 244.279C119.254 244.596 119.614 244.846 120 244.999C119.614 245.152 119.254 245.402 118.939 245.719C118.406 246.256 117.992 247.026 117.992 247.929V247.935V247.938L118.018 250.241C118.018 250.572 117.816 250.989 117.54 251.211L115.339 252.861C115.125 253.017 114.994 253.015 114.87 252.982C114.746 252.948 114.624 252.851 114.542 252.711C114.377 252.432 114.306 252.106 114.782 251.73L114.79 251.723L114.798 251.716L115.857 250.822C116.215 250.539 116.716 250.063 116.716 249.245V249.24V249.234L116.69 247.358C116.69 246.958 116.56 246.506 116.194 246.2C115.829 245.894 115.306 245.856 114.806 246.037C114.449 246.167 114.215 246.306 114.028 246.384C113.841 246.462 113.683 246.509 113.339 246.509C112.857 246.509 112.561 246.309 112.338 246.021C112.114 245.733 112 245.333 112 245.07V244.928C112 244.665 112.114 244.265 112.338 243.977C112.561 243.689 112.857 243.489 113.339 243.489C113.683 243.489 113.841 243.536 114.028 243.614C114.215 243.692 114.449 243.831 114.806 243.961C115.306 244.142 115.829 244.104 116.194 243.798C116.56 243.492 116.69 243.03 116.69 242.629L116.716 240.764V240.758V240.753C116.716 239.935 116.199 239.447 115.841 239.163L114.798 238.283L114.79 238.276L114.782 238.269C114.306 237.892 114.377 237.567 114.542 237.287C114.624 237.147 114.746 237.05 114.87 237.017C114.901 237.008 114.932 237.003 114.966 237.001Z" fill="#3B3B3B"/>
<path d="M134.302 238C135.596 238.848 136.938 239.806 137.987 241.114C139.166 242.582 140 244.471 140 247.255C140 252.487 135.13 256.689 130.446 256.689H119.125C118.803 256.689 118.474 256.837 118.275 257.065C118.076 257.294 117.996 257.57 117.998 257.833C118 258.097 118.085 258.366 118.282 258.591C118.479 258.816 118.803 258.966 119.125 258.966H130.177C134.15 258.966 136.269 261.531 136.269 264.56C136.269 267.511 134.068 270.286 130.204 270.286H118.816C118.54 270.286 118.247 270.411 118.066 270.613C117.885 270.815 117.809 271.06 117.811 271.295C117.812 271.529 117.888 271.77 118.068 271.969C118.247 272.168 118.539 272.295 118.816 272.295H127.293C129.117 272.295 130.669 274.078 130.669 275.782C130.669 276.645 130.424 277.443 129.883 278.023C129.342 278.603 128.478 279.023 127.024 279.023H121.941C121.738 279.023 121.525 279.067 121.329 279.209C121.133 279.351 120.973 279.623 120.981 279.904C120.989 280.186 121.151 280.428 121.339 280.562C121.527 280.696 121.737 280.745 121.941 280.745H125.312C125.788 280.745 126.139 280.954 126.417 281.293C126.695 281.632 126.857 282.106 126.857 282.486C126.857 282.959 126.683 283.396 126.375 283.669C126.176 283.847 125.9 283.97 125.522 284C125.54 283.805 125.543 283.583 125.414 283.318C125.259 283.004 124.829 282.754 124.464 282.754H122.441C121.737 282.754 120.959 282.488 120.385 281.984C119.81 281.481 119.416 280.768 119.416 279.742C119.416 278.798 119.81 278.125 120.368 277.641C120.926 277.158 121.667 276.906 122.213 276.906H127.185C127.409 276.906 127.628 276.867 127.837 276.739C128.046 276.612 128.261 276.344 128.261 276.01C128.261 275.677 128.044 275.409 127.835 275.282C127.626 275.154 127.409 275.117 127.185 275.117H119.396C116.399 275.117 114.73 272.99 114.73 270.696C114.73 268.65 116.477 266.224 119.126 266.224H130.716C131.032 266.224 131.356 266.077 131.549 265.851C131.742 265.626 131.818 265.358 131.816 265.102C131.815 264.846 131.735 264.583 131.544 264.361C131.353 264.139 131.033 263.99 130.716 263.99H118.911C115.611 263.99 113 261.535 113 257.828C113 254.732 115.526 251.556 119.261 251.556H129.961C130.544 251.556 131.068 251.293 131.389 250.909C131.71 250.524 131.853 250.051 131.855 249.585C131.858 249.118 131.719 248.641 131.397 248.254C131.076 247.867 130.548 247.605 129.961 247.605H118.544L118.536 246.962C118.536 246.566 118.751 246.167 119.095 245.852C119.44 245.537 119.903 245.357 120.187 245.357H126.585C126.832 245.357 127.077 245.299 127.318 245.133C127.559 244.967 127.783 244.608 127.783 244.16C127.783 243.699 127.646 243.465 127.318 243.187C127.077 243.021 126.832 242.963 126.585 242.963H120.187C119.903 242.963 119.44 242.783 119.095 242.468C118.751 242.153 118.536 241.748 118.536 241.351L118.541 240.958H126.35C126.782 240.958 127.177 240.819 127.487 240.58C127.798 240.341 128.052 239.974 128.052 239.512V238.93H131.849C132.833 238.931 133.689 238.562 134.302 238Z" fill="#1D1D1D"/>
</svg>
