<svg width="512" height="512" viewBox="0 0 512 512" fill="none" xmlns="http://www.w3.org/2000/svg">
<path d="M461.804 248.383H459.45C459.45 248.383 459.253 248.383 459.253 248.578C459.45 250.92 457.095 252.871 453.76 253.846C452.779 244.09 432.964 252.09 430.806 261.651C421.782 266.139 417.662 262.627 417.269 261.261C417.269 261.261 430.021 257.554 430.61 251.505C430.806 246.432 413.542 250.334 410.403 261.456C406.871 263.407 402.555 263.407 402.555 262.627C402.359 260.871 408.049 256.188 409.226 253.456C410.403 250.334 407.068 250.529 407.068 250.529C404.321 250.92 396.67 253.261 396.67 253.261C397.651 247.602 389.411 252.09 383.721 253.261C384.114 249.359 380.582 250.139 368.223 253.651C367.242 243.895 347.231 251.895 345.072 261.456C340.168 263.797 338.01 263.212 338.01 261.651C338.206 259.505 342.326 255.212 340.756 252.285C358.609 247.602 355.667 234.139 347.034 230.432C348.015 229.652 348.996 229.066 349.781 228.676C349.781 228.676 349.977 228.481 349.585 228.481H346.25C346.053 228.481 346.053 228.481 345.857 228.676C345.465 228.871 344.876 229.261 344.484 229.652C315.252 222.042 293.868 251.115 314.663 253.846L318.98 250.139C319.96 249.359 319.568 249.163 318.783 249.163C316.821 249.163 315.448 248.773 314.663 248.188C305.443 241.554 322.903 227.895 340.364 232.773C329.77 240.773 317.214 266.139 305.443 258.529C305.05 258.334 304.854 258.529 304.462 258.724C302.304 261.066 298.576 263.992 298.576 263.992C298.184 264.188 298.184 264.773 298.576 264.968C313.094 271.407 321.334 262.041 329.377 250.92C330.162 252.48 332.516 254.432 336.44 253.456C336.44 255.602 328.789 262.627 328.397 263.992C326.631 269.456 339.187 266.334 344.876 263.797C348.604 271.797 364.495 263.602 367.242 256.383C374.893 253.846 373.52 256.578 372.931 257.554C368.223 263.407 365.476 266.139 365.476 266.724C365.476 266.919 365.672 267.114 365.868 267.114H370.969C371.754 267.114 372.146 266.724 372.735 266.334C373.127 265.944 379.798 257.944 381.171 256.383C389.411 253.066 385.879 257.554 385.879 257.554C381.171 263.212 378.424 266.139 378.424 266.724C378.424 266.919 378.62 267.114 378.817 267.114H383.918C384.702 267.114 385.095 266.724 385.683 266.334C386.076 265.944 393.138 257.554 394.119 256.188C401.967 253.456 398.632 257.358 398.239 257.749C397.847 258.334 393.531 263.212 393.334 263.992C392.55 267.895 396.866 268.675 410.207 263.407C414.13 271.212 428.844 263.992 430.414 263.212C430.414 263.407 430.414 263.602 430.61 263.797C434.338 271.797 450.229 263.602 452.975 256.383C460.823 254.237 462 248.773 462 248.578C462 248.383 462 248.383 461.804 248.383ZM342.914 234.139C351.547 239.798 345.269 247.017 339.187 249.749C338.01 248.383 335.459 246.627 331.732 247.993C335.263 243.115 338.794 238.042 342.914 234.139ZM331.536 249.944C333.105 248.188 336.636 249.749 336.636 250.92C333.497 252.285 331.339 250.139 331.536 249.944ZM365.28 254.822C361.552 256.773 362.337 259.31 361.945 259.7C357.236 263.797 353.901 263.602 352.92 262.432C349.977 259.115 360.767 248.773 365.084 252.48C365.476 252.871 365.476 253.846 365.28 254.822ZM425.902 251.505C426.49 251.31 426.686 251.7 426.49 252.285C425.117 257.358 416.681 259.505 416.681 259.505C416.681 259.505 417.662 252.676 425.902 251.505ZM450.817 255.017C447.09 256.578 448.071 259.31 447.482 259.7C442.774 263.797 439.438 263.602 438.458 262.432C435.515 259.115 446.305 248.773 450.621 252.48C451.21 252.871 451.21 254.041 450.817 255.017ZM298.184 258.139H295.437C295.437 258.139 295.241 258.139 295.241 258.334C294.064 260.48 290.14 263.017 286.216 263.992C278.957 266.139 283.273 260.285 283.273 260.285C289.748 252.48 290.14 251.895 290.729 251.115C290.925 250.92 290.532 250.724 290.14 250.724H285.432C284.254 250.724 283.47 251.31 282.881 251.895L282.685 251.7C280.723 248.578 273.072 248.968 267.382 252.676C263.459 255.212 260.908 258.529 260.123 261.261C257.181 261.261 254.63 260.871 252.472 260.285L257.769 253.846C268.952 250.724 287.197 233.164 278.173 233.359C270.521 234.334 260.32 242.334 247.175 257.554C246.783 257.163 244.428 255.602 243.055 256.773C242.27 257.358 242.467 258.724 243.448 259.7C229.714 264.773 230.499 262.041 231.676 260.285C232.657 258.919 236.189 253.846 236.189 253.846C249.922 249.554 267.971 230.822 255.611 233.554C250.314 234.725 239.524 241.359 224.221 259.505C217.158 262.822 211.861 264.773 216.766 258.334C221.867 251.895 237.758 234.139 237.758 233.554C237.758 233.359 237.562 233.164 237.17 233.164H230.695C229.714 233.164 228.93 233.944 228.341 234.53C224.614 232.188 219.709 232.969 219.709 232.969C201.463 234.334 185.18 251.505 186.553 261.261C186.946 263.797 189.3 267.31 194.597 267.31C195.774 267.31 200.286 266.724 205.191 264.383C205.191 264.383 203.033 270.627 221.278 264.188C221.278 264.383 218.532 271.017 241.878 263.017C241.682 263.407 233.638 272.187 229.518 276.285C220.101 285.846 213.431 279.602 213.038 279.212H212.842L211.077 280.773C211.077 280.773 210.88 280.968 211.077 281.163C226.183 292.285 242.27 271.407 250.314 263.017C252.864 263.602 256.2 263.797 260.123 263.212C260.123 263.992 260.32 264.578 260.712 265.163C262.478 267.895 268.756 267.895 274.053 265.163C274.053 265.163 274.837 269.066 285.628 266.529C290.925 265.358 296.81 261.456 298.38 258.529C298.38 258.334 298.184 258.139 298.184 258.139ZM274.053 236.676C276.211 235.31 276.211 238.237 273.072 241.554C265.617 249.359 259.731 250.529 259.731 250.529C259.731 250.529 267.579 240.578 274.053 236.676ZM253.257 236.676C255.415 235.31 255.415 238.237 252.276 241.554C244.821 249.359 238.935 250.529 238.935 250.529C238.935 250.529 246.783 240.578 253.257 236.676ZM199.698 262.041C188.515 260.675 198.324 247.212 209.115 240.188C216.766 235.115 224.81 233.749 225.398 237.847C225.202 239.017 224.417 240.578 222.455 242.725C220.494 244.871 214.412 251.895 209.507 257.554C205.976 260.871 201.856 262.236 199.698 262.041ZM280.527 254.822C278.957 256.773 276.799 259.31 275.23 261.456C272.091 263.602 268.952 264.188 267.775 262.822C266.401 261.261 267.971 257.554 271.502 254.822C274.837 251.895 278.761 250.92 280.135 252.48C280.527 253.066 280.723 253.846 280.527 254.822Z" fill="#221F20"/>
<path d="M148.326 256.999C148.326 283.137 127.137 304.325 101 304.325C74.8624 304.325 53.6738 283.137 53.6738 256.999C53.6738 230.862 74.8624 209.673 101 209.673C127.137 209.673 148.326 230.862 148.326 256.999Z" fill="#1E1D51"/>
<path d="M100.816 223.782C96.7738 223.858 92.8961 224.578 89.2912 225.836V251.817H100.816V223.782ZM79.8533 231.525C73.8434 236.626 69.6053 243.661 68.1643 251.631H79.8533V231.525ZM88.8835 261.034V288.195C92.5831 289.452 96.5624 290.17 100.711 290.246V261.034H88.8835ZM68.1265 261.108C69.3245 269.596 73.6524 277.104 79.9274 282.47V261.108H68.1265Z" fill="white"/>
<path d="M101.654 224.117C119.512 224.466 133.883 239.059 133.883 257C133.883 274.941 119.512 289.526 101.654 289.875V224.117Z" fill="#2F7FBE"/>
<path d="M88.4328 226.249V252.553H100.636V260.318H88.4328V287.819C85.6117 286.655 82.9843 285.12 80.6136 283.275V260.318H67.9004C67.7941 259.239 67.7393 258.144 67.7393 257.037C67.7393 255.516 67.8425 254.02 68.0413 252.553H80.6134V230.794C82.984 228.948 85.6117 227.414 88.4328 226.249Z" fill="#D50D16"/>
<path d="M121.291 235.191H109.979V236.769H121.291V235.191Z" fill="#9D0D16"/>
<path d="M101.138 207.275C83.9219 207.248 67.1589 216.168 57.9388 232.138C44.2154 255.908 52.3694 286.337 76.1389 300.06C99.9083 313.783 130.338 305.63 144.061 281.86C157.784 258.091 149.63 227.661 125.861 213.938C118.061 209.435 109.546 207.289 101.138 207.275ZM101 209.673C127.124 209.673 148.326 230.875 148.326 256.999C148.326 283.123 127.124 304.326 101 304.326C74.8759 304.326 53.6735 283.123 53.6735 256.999C53.6735 230.875 74.8759 209.673 101 209.673ZM98.1503 211.33V221.14H101.139V217.835L103.553 221.14L107.486 221.715L104.078 217.31C104.826 217.155 106.229 216.361 106.229 214.688C106.228 212.183 103.973 211.383 102.557 211.383L98.1503 211.33ZM101.927 213.481C102.74 213.481 103.317 214.032 103.343 214.635C103.369 215.238 102.952 215.893 102.032 215.893H101.087L101.036 213.533L101.927 213.481ZM116.018 214.038C115.965 214.038 115.912 214.039 115.859 214.04C113.28 214.092 111.099 215.656 110.578 218.21C110.058 220.753 112.368 223.763 115.191 224.404C118.255 225.099 121.114 223.644 121.758 220.342C122.31 217.515 120.232 214.738 117.146 214.15C116.767 214.078 116.39 214.04 116.018 214.038ZM79.8449 216.628L77.1698 218.044L78.4276 229.111L81.2607 227.013L80.894 225.336L83.9885 223.499L85.4043 224.548L88.6567 223.238L79.8449 216.628ZM116.087 216.75C116.269 216.75 116.454 216.767 116.64 216.802C118.129 217.086 119.074 218.373 118.814 219.739C118.553 221.104 117.185 222.034 115.696 221.75C114.207 221.466 113.473 220.024 113.733 218.659C113.961 217.464 114.815 216.746 116.087 216.75ZM79.9501 220.142L82.2044 221.873L80.5783 222.817L79.9501 220.142ZM129.832 221.559L121.439 227.381L123.904 229.321L127.944 226.174L125.897 231.262L126.946 232.258L132.088 230.16L128.993 234.356L130.881 237.031L136.808 228.534L134.919 226.28L130.093 228.22L132.035 223.341L129.832 221.559ZM101 222.799C82.1284 222.799 66.7978 238.129 66.7978 257.001C66.7978 275.872 82.1284 291.201 101 291.201C119.871 291.201 135.202 275.872 135.202 257.001C135.202 238.129 119.871 222.799 101 222.799ZM69.6688 223.919L65.5779 228.639L72.7105 234.986L74.7051 232.679L71.9773 230.265L73.9701 228.115L72.2386 226.541L70.2458 228.744L69.2495 227.801L71.4002 225.439L69.6688 223.919ZM100.339 224.118V251.261H89.6989V226.105C93.0273 224.887 96.607 224.191 100.339 224.118ZM101.654 224.118C114.178 224.362 124.987 231.614 130.327 242.112C130.257 242.02 130.188 241.93 130.116 241.841C128.808 240.216 127.16 239.138 125.756 238.235C125.644 238.163 125.513 238.127 125.381 238.131C125.176 238.137 124.986 238.238 124.866 238.404C124.54 238.857 123.923 239.233 123.118 239.233H117.059C116.755 239.233 116.467 239.316 116.217 239.496C115.968 239.676 115.747 239.999 115.747 240.381V241.071C115.744 241.075 115.739 241.086 115.713 241.106C115.653 241.151 115.537 241.2 115.407 241.2H110.186L110.191 240.764V240.759V240.756C110.191 239.961 109.786 239.239 109.16 238.783L109.15 238.774L109.142 238.769L106.86 237.222L106.857 237.219L106.854 237.217C106.49 236.978 106.084 236.864 105.701 236.872C105.573 236.875 105.448 236.892 105.328 236.921C104.846 237.039 104.454 237.344 104.201 237.732C103.695 238.509 103.811 239.738 104.785 240.434L105.856 241.252L105.864 241.259L105.872 241.264C106.097 241.425 106.222 241.62 106.222 241.673L106.196 243.408V243.413V243.418C106.196 243.439 106.193 243.444 106.191 243.453C106.161 243.452 106.103 243.446 105.984 243.407C105.731 243.324 105.538 243.217 105.24 243.104C104.943 242.991 104.559 242.902 104.066 242.902C103.199 242.902 102.486 243.293 102.039 243.814C101.883 243.997 101.755 244.192 101.654 244.395V224.118H101.654ZM88.3836 226.62V252.576H100.339V260.238H88.3836V287.375C85.6196 286.226 83.0455 284.712 80.723 282.891V260.238H68.2678C68.1636 259.173 68.1099 258.093 68.1099 257.001C68.1099 255.5 68.211 254.023 68.4059 252.576H80.7229V231.106C83.0454 229.284 85.6196 227.77 88.3836 226.62ZM110.678 231.676C110.14 231.676 109.704 232.112 109.704 232.649C109.704 233.187 110.14 233.623 110.678 233.623C111.215 233.623 111.651 233.187 111.651 232.649C111.651 232.112 111.215 231.676 110.678 231.676ZM113.157 231.676C112.62 231.676 112.184 232.112 112.184 232.649C112.184 233.187 112.62 233.623 113.157 233.623C113.695 233.623 114.131 233.187 114.131 232.649C114.131 232.112 113.695 231.676 113.157 231.676ZM115.635 231.676C115.098 231.676 114.662 232.112 114.662 232.649C114.662 233.187 115.098 233.623 115.635 233.623C116.173 233.623 116.609 233.187 116.609 232.649C116.609 232.112 116.173 231.676 115.635 231.676ZM118.113 231.676C117.576 231.676 117.14 232.112 117.14 232.649C117.14 233.187 117.576 233.623 118.113 233.623C118.651 233.623 119.087 233.187 119.087 232.649C119.087 232.112 118.651 231.676 118.113 231.676ZM120.593 231.676C120.055 231.676 119.619 232.112 119.619 232.649C119.619 233.187 120.055 233.623 120.593 233.623C121.13 233.623 121.566 233.187 121.566 232.649C121.566 232.112 121.13 231.676 120.593 231.676ZM79.4076 232.194V251.261H68.6099C69.9411 243.702 73.8555 237.031 79.4076 232.194ZM109.979 234.22V235.798H121.292V234.22H109.979ZM109.979 236.344V237.923H121.292V236.344H109.979ZM141.476 236.351L132.559 239.97L135.077 245.845L137.436 244.848L136.126 241.857L137.228 241.333L138.487 244.218L140.636 243.326L139.431 240.547L140.48 240.075L141.738 243.064L143.941 242.173L141.476 236.351ZM60.0169 237.452L58.7591 240.231L67.4654 244.271L70.2458 238.605L68.0951 237.503L66.4164 240.442L60.0169 237.452ZM105.739 238.184C105.842 238.178 105.963 238.205 106.128 238.314L108.404 239.858C108.688 240.065 108.876 240.447 108.876 240.756L108.85 242.888V242.892V242.897C108.85 243.736 109.274 244.452 109.823 244.952C110.146 245.246 110.517 245.479 110.913 245.621C110.517 245.763 110.146 245.996 109.823 246.29C109.274 246.79 108.85 247.506 108.85 248.346V248.351V248.354L108.876 250.495C108.876 250.803 108.668 251.191 108.384 251.397L106.122 252.932C105.902 253.077 105.767 253.075 105.64 253.043C105.513 253.012 105.388 252.922 105.303 252.792C105.134 252.532 105.06 252.229 105.55 251.879L105.558 251.873L105.566 251.866L106.654 251.036C107.023 250.772 107.537 250.33 107.537 249.569V249.564V249.559L107.511 247.815C107.511 247.442 107.377 247.022 107.001 246.738C106.625 246.453 106.088 246.418 105.574 246.586C105.207 246.707 104.967 246.836 104.775 246.908C104.583 246.981 104.42 247.025 104.066 247.025C103.571 247.025 103.266 246.839 103.037 246.571C102.808 246.304 102.69 245.931 102.69 245.687V245.555C102.69 245.31 102.808 244.938 103.037 244.671C103.266 244.403 103.571 244.217 104.066 244.217C104.42 244.217 104.583 244.261 104.775 244.333C104.967 244.406 105.207 244.535 105.574 244.656C106.088 244.824 106.625 244.789 107.001 244.504C107.377 244.22 107.511 243.79 107.511 243.417L107.537 241.683V241.678V241.673C107.537 240.912 107.006 240.458 106.638 240.195L105.566 239.376L105.558 239.369L105.55 239.363C105.06 239.013 105.134 238.71 105.303 238.45C105.387 238.32 105.513 238.23 105.64 238.199C105.672 238.191 105.704 238.186 105.739 238.184ZM125.506 239.646C126.765 240.469 128.07 241.398 129.092 242.666C130.238 244.09 131.05 245.922 131.05 248.623C131.05 253.698 126.311 257.773 121.753 257.773H110.739C110.426 257.773 110.105 257.917 109.912 258.139C109.718 258.36 109.64 258.628 109.642 258.883C109.644 259.139 109.726 259.401 109.918 259.618C110.11 259.836 110.425 259.982 110.739 259.982H121.492C125.358 259.982 127.42 262.47 127.42 265.408C127.42 268.271 125.279 270.962 121.518 270.962H110.438C110.169 270.962 109.884 271.084 109.708 271.28C109.532 271.475 109.458 271.713 109.459 271.941C109.461 272.168 109.535 272.402 109.709 272.595C109.884 272.788 110.168 272.911 110.438 272.911H118.685C120.461 272.911 121.971 274.641 121.971 276.293C121.971 277.131 121.733 277.904 121.206 278.467C120.68 279.029 119.839 279.437 118.424 279.437H113.478C113.281 279.437 113.074 279.48 112.883 279.618C112.692 279.755 112.536 280.019 112.544 280.292C112.552 280.565 112.71 280.799 112.893 280.93C113.076 281.06 113.28 281.107 113.478 281.107H116.759C117.221 281.107 117.563 281.31 117.834 281.638C118.104 281.967 118.262 282.428 118.262 282.796C118.262 283.254 118.092 283.678 117.793 283.944C117.599 284.116 117.33 284.235 116.962 284.264C116.981 284.075 116.984 283.86 116.857 283.603C116.707 283.298 116.289 283.056 115.933 283.056H113.965C113.279 283.056 112.523 282.797 111.964 282.309C111.405 281.821 111.022 281.13 111.022 280.134C111.022 279.218 111.404 278.565 111.948 278.097C112.491 277.628 113.212 277.383 113.743 277.383H118.58C118.799 277.383 119.012 277.345 119.215 277.222C119.419 277.098 119.628 276.838 119.628 276.515C119.627 276.191 119.417 275.931 119.213 275.808C119.01 275.684 118.799 275.648 118.58 275.648H111.002C108.086 275.648 106.462 273.585 106.462 271.36C106.462 269.375 108.162 267.022 110.739 267.022H122.017C122.324 267.022 122.64 266.879 122.828 266.661C123.015 266.442 123.089 266.182 123.087 265.934C123.086 265.686 123.009 265.43 122.823 265.215C122.637 265 122.325 264.855 122.017 264.855H110.53C107.319 264.855 104.779 262.474 104.779 258.878C104.779 255.875 107.236 252.795 110.871 252.795H121.282C121.85 252.795 122.359 252.539 122.671 252.167C122.984 251.794 123.123 251.335 123.125 250.882C123.128 250.43 122.993 249.967 122.68 249.592C122.366 249.216 121.853 248.962 121.282 248.962H110.173L110.165 248.339C110.165 247.954 110.374 247.567 110.71 247.262C111.045 246.956 111.496 246.782 111.772 246.782H117.997C118.238 246.782 118.476 246.726 118.71 246.565C118.945 246.403 119.163 246.055 119.163 245.621C119.163 245.173 119.029 244.947 118.71 244.677C118.476 244.516 118.238 244.46 117.997 244.46H111.772C111.496 244.46 111.045 244.285 110.71 243.98C110.374 243.674 110.165 243.281 110.165 242.896L110.17 242.515H117.768C118.189 242.515 118.573 242.38 118.875 242.148C119.177 241.916 119.424 241.561 119.424 241.112V240.548H123.119C124.077 240.548 124.909 240.191 125.506 239.646ZM132.209 246.614C133.295 249.879 133.883 253.372 133.883 257.001C133.883 268.488 127.992 278.6 119.065 284.479C119.414 283.984 119.576 283.386 119.576 282.796C119.576 282.092 119.324 281.38 118.85 280.803C118.831 280.78 118.809 280.759 118.789 280.737C120.285 280.665 121.424 280.158 122.166 279.366C122.968 278.509 123.286 277.383 123.286 276.292C123.286 274.682 122.384 273.132 121.018 272.277H121.518C125.925 272.277 128.735 268.948 128.735 265.408C128.735 262.406 126.782 259.716 123.534 258.914C128.198 258.038 132.365 253.842 132.365 248.623C132.365 247.909 132.31 247.241 132.209 246.614ZM101.654 246.848C101.755 247.05 101.883 247.246 102.039 247.428C102.486 247.949 103.199 248.341 104.066 248.341C104.559 248.341 104.942 248.251 105.24 248.138C105.538 248.026 105.73 247.919 105.984 247.836C106.103 247.797 106.161 247.79 106.191 247.79C106.193 247.798 106.196 247.804 106.196 247.824V247.829V247.834L106.222 249.579C106.222 249.633 106.097 249.817 105.872 249.979L105.864 249.983L105.855 249.99L104.769 250.822C103.795 251.518 103.695 252.733 104.201 253.51C104.417 253.841 104.733 254.11 105.119 254.255C104.065 255.574 103.463 257.222 103.463 258.879C103.463 262.532 105.832 265.302 108.975 265.997C106.621 266.801 105.147 269.152 105.147 271.36C105.147 274.256 107.44 276.964 111.002 276.964H111.26C111.203 277.009 111.144 277.052 111.088 277.1C110.298 277.782 109.706 278.833 109.706 280.134C109.706 281.486 110.278 282.586 111.097 283.301C111.917 284.016 112.96 284.371 113.965 284.371H115.613C115.578 284.491 115.54 284.603 115.54 284.603C115.46 284.786 115.466 284.995 115.558 285.172C115.65 285.349 115.818 285.475 116.014 285.514C116.485 285.607 116.93 285.613 117.333 285.545C112.697 288.203 107.354 289.765 101.655 289.876V246.848H101.654ZM66.2075 247.994L55.9787 251.351L55.612 254.393L65.3163 259.638L65.2636 256.124L63.797 255.445L64.0174 251.833L65.7356 251.404L66.2075 247.994ZM141.424 248.309C138 248.309 136.284 251.115 136.284 253.921C136.284 256.727 138.314 259.534 141.424 259.534C144.532 259.534 146.616 256.989 146.616 253.921C146.616 250.905 144.795 248.309 141.424 248.309ZM110.188 250.278H121.282C121.506 250.278 121.589 250.339 121.67 250.435C121.751 250.532 121.811 250.699 121.809 250.876C121.809 251.053 121.747 251.222 121.663 251.322C121.58 251.421 121.497 251.479 121.282 251.479H110.871C110.553 251.479 110.244 251.5 109.942 251.537C110.101 251.216 110.191 250.86 110.191 250.486V250.483V250.478L110.188 250.278ZM141.489 251.351C142.998 251.351 143.878 252.76 143.878 253.921C143.878 255.056 142.966 256.491 141.489 256.491C140.012 256.491 139.153 255.246 139.153 253.921C139.153 252.597 139.98 251.351 141.489 251.351ZM61.7156 252.408L61.5906 254.421L58.8119 253.134L61.7156 252.408ZM68.4223 261.554H79.4076V281.803C73.5666 276.715 69.5374 269.599 68.4223 261.554ZM89.6989 261.554H100.339V289.876C96.6068 289.802 93.0271 289.106 89.6989 287.888V261.554Z" fill="#F8E45E"/>
<path d="M105.739 238.184C105.842 238.178 105.964 238.205 106.129 238.314L108.404 239.858C108.688 240.065 108.876 240.448 108.876 240.756L108.85 242.889V242.892V242.897C108.85 243.737 109.275 244.453 109.823 244.952C110.147 245.247 110.517 245.479 110.913 245.621C110.517 245.763 110.147 245.996 109.823 246.291C109.275 246.79 108.85 247.506 108.85 248.346V248.351V248.354L108.876 250.495C108.876 250.804 108.668 251.191 108.385 251.398L106.122 252.932C105.902 253.077 105.768 253.075 105.64 253.044C105.513 253.012 105.388 252.922 105.303 252.792C105.134 252.532 105.06 252.23 105.55 251.88L105.558 251.873L105.566 251.867L106.655 251.036C107.023 250.773 107.538 250.33 107.538 249.569V249.565V249.56L107.511 247.815C107.511 247.443 107.378 247.023 107.002 246.738C106.626 246.453 106.089 246.418 105.575 246.587C105.208 246.707 104.968 246.836 104.775 246.909C104.583 246.981 104.42 247.026 104.067 247.026C103.571 247.026 103.267 246.839 103.037 246.572C102.808 246.304 102.69 245.932 102.69 245.687V245.556C102.69 245.311 102.808 244.938 103.037 244.671C103.267 244.403 103.571 244.217 104.067 244.217C104.42 244.217 104.583 244.261 104.775 244.334C104.968 244.406 105.208 244.536 105.575 244.656C106.089 244.825 106.626 244.789 107.002 244.505C107.378 244.22 107.511 243.79 107.511 243.418L107.538 241.683V241.678V241.673C107.538 240.913 107.006 240.459 106.638 240.195L105.566 239.376L105.558 239.37L105.55 239.363C105.06 239.013 105.134 238.71 105.303 238.451C105.388 238.321 105.513 238.23 105.64 238.199C105.672 238.191 105.704 238.186 105.739 238.184Z" fill="#9D0D16"/>
<path d="M125.506 239.646C126.765 240.469 128.07 241.398 129.092 242.666C130.238 244.091 131.05 245.923 131.05 248.624C131.05 253.698 126.311 257.774 121.754 257.774H110.739C110.426 257.774 110.106 257.917 109.912 258.139C109.718 258.36 109.64 258.628 109.642 258.884C109.644 259.139 109.726 259.401 109.918 259.619C110.11 259.837 110.425 259.982 110.739 259.982H121.492C125.358 259.982 127.42 262.47 127.42 265.408C127.42 268.271 125.279 270.962 121.519 270.962H110.438C110.17 270.962 109.884 271.084 109.708 271.28C109.532 271.475 109.458 271.713 109.46 271.941C109.461 272.168 109.535 272.402 109.71 272.595C109.884 272.788 110.168 272.911 110.438 272.911H118.686C120.461 272.911 121.971 274.641 121.971 276.293C121.971 277.131 121.733 277.904 121.206 278.467C120.68 279.029 119.839 279.437 118.424 279.437H113.478C113.281 279.437 113.074 279.48 112.883 279.618C112.692 279.755 112.536 280.019 112.544 280.292C112.552 280.565 112.71 280.799 112.893 280.93C113.076 281.06 113.281 281.107 113.478 281.107H116.759C117.221 281.107 117.564 281.31 117.834 281.639C118.104 281.967 118.262 282.428 118.262 282.796C118.262 283.255 118.092 283.678 117.793 283.944C117.599 284.116 117.331 284.235 116.963 284.264C116.981 284.075 116.984 283.86 116.857 283.603C116.707 283.299 116.289 283.056 115.933 283.056H113.965C113.28 283.056 112.523 282.797 111.964 282.309C111.405 281.821 111.022 281.13 111.022 280.134C111.022 279.218 111.405 278.566 111.948 278.097C112.491 277.628 113.212 277.383 113.743 277.383H118.581C118.799 277.383 119.012 277.345 119.215 277.222C119.419 277.098 119.628 276.838 119.628 276.515C119.628 276.191 119.417 275.931 119.214 275.808C119.01 275.685 118.799 275.648 118.581 275.648H111.002C108.086 275.648 106.463 273.585 106.463 271.36C106.463 269.375 108.162 267.023 110.739 267.023H122.017C122.324 267.023 122.64 266.879 122.828 266.661C123.016 266.442 123.089 266.182 123.087 265.934C123.086 265.686 123.009 265.431 122.823 265.216C122.637 265 122.325 264.856 122.017 264.856H110.53C107.319 264.856 104.779 262.474 104.779 258.879C104.779 255.875 107.236 252.795 110.871 252.795H121.282C121.85 252.795 122.359 252.54 122.671 252.167C122.984 251.794 123.123 251.335 123.125 250.883C123.128 250.43 122.993 249.967 122.68 249.592C122.367 249.217 121.853 248.962 121.282 248.962H110.174L110.165 248.339C110.165 247.954 110.374 247.567 110.71 247.262C111.045 246.957 111.496 246.782 111.772 246.782H117.997C118.238 246.782 118.476 246.726 118.711 246.565C118.945 246.403 119.163 246.055 119.163 245.621C119.163 245.174 119.029 244.947 118.711 244.677C118.476 244.516 118.238 244.46 117.997 244.46H111.772C111.496 244.46 111.045 244.285 110.71 243.98C110.374 243.675 110.165 243.281 110.165 242.896L110.17 242.515H117.768C118.189 242.515 118.573 242.38 118.875 242.148C119.177 241.916 119.424 241.561 119.424 241.112V240.548H123.119C124.077 240.549 124.91 240.191 125.506 239.646Z" fill="#157031"/>
</svg>
