<svg width="512" height="512" viewBox="0 0 512 512" fill="none" xmlns="http://www.w3.org/2000/svg">
<path d="M461.804 248.383H459.45C459.45 248.383 459.253 248.383 459.253 248.578C459.45 250.92 457.095 252.871 453.76 253.846C452.779 244.09 432.964 252.09 430.806 261.651C421.782 266.139 417.662 262.627 417.269 261.261C417.269 261.261 430.021 257.554 430.61 251.505C430.806 246.432 413.542 250.334 410.403 261.456C406.871 263.407 402.555 263.407 402.555 262.627C402.359 260.871 408.049 256.188 409.226 253.456C410.403 250.334 407.068 250.529 407.068 250.529C404.321 250.92 396.67 253.261 396.67 253.261C397.651 247.602 389.411 252.09 383.721 253.261C384.114 249.359 380.582 250.139 368.223 253.651C367.242 243.895 347.231 251.895 345.072 261.456C340.168 263.797 338.01 263.212 338.01 261.651C338.206 259.505 342.326 255.212 340.756 252.285C358.609 247.602 355.667 234.139 347.034 230.432C348.015 229.652 348.996 229.066 349.781 228.676C349.781 228.676 349.977 228.481 349.585 228.481H346.25C346.053 228.481 346.053 228.481 345.857 228.676C345.465 228.871 344.876 229.261 344.484 229.652C315.252 222.042 293.868 251.115 314.663 253.846L318.98 250.139C319.96 249.359 319.568 249.163 318.783 249.163C316.821 249.163 315.448 248.773 314.663 248.188C305.443 241.554 322.903 227.895 340.364 232.773C329.77 240.773 317.214 266.139 305.443 258.529C305.05 258.334 304.854 258.529 304.462 258.724C302.304 261.066 298.576 263.992 298.576 263.992C298.184 264.188 298.184 264.773 298.576 264.968C313.094 271.407 321.334 262.041 329.377 250.92C330.162 252.48 332.516 254.432 336.44 253.456C336.44 255.602 328.789 262.627 328.397 263.992C326.631 269.456 339.187 266.334 344.876 263.797C348.604 271.797 364.495 263.602 367.242 256.383C374.893 253.846 373.52 256.578 372.931 257.554C368.223 263.407 365.476 266.139 365.476 266.724C365.476 266.919 365.672 267.114 365.868 267.114H370.969C371.754 267.114 372.146 266.724 372.735 266.334C373.127 265.944 379.798 257.944 381.171 256.383C389.411 253.066 385.879 257.554 385.879 257.554C381.171 263.212 378.424 266.139 378.424 266.724C378.424 266.919 378.62 267.114 378.817 267.114H383.918C384.702 267.114 385.095 266.724 385.683 266.334C386.076 265.944 393.138 257.554 394.119 256.188C401.967 253.456 398.632 257.358 398.239 257.749C397.847 258.334 393.531 263.212 393.334 263.992C392.55 267.895 396.866 268.675 410.207 263.407C414.13 271.212 428.844 263.992 430.414 263.212C430.414 263.407 430.414 263.602 430.61 263.797C434.338 271.797 450.229 263.602 452.975 256.383C460.823 254.237 462 248.773 462 248.578C462 248.383 462 248.383 461.804 248.383ZM342.914 234.139C351.547 239.798 345.269 247.017 339.187 249.749C338.01 248.383 335.459 246.627 331.732 247.993C335.263 243.115 338.794 238.042 342.914 234.139ZM331.536 249.944C333.105 248.188 336.636 249.749 336.636 250.92C333.497 252.285 331.339 250.139 331.536 249.944ZM365.28 254.822C361.552 256.773 362.337 259.31 361.945 259.7C357.236 263.797 353.901 263.602 352.92 262.432C349.977 259.115 360.767 248.773 365.084 252.48C365.476 252.871 365.476 253.846 365.28 254.822ZM425.902 251.505C426.49 251.31 426.686 251.7 426.49 252.285C425.117 257.358 416.681 259.505 416.681 259.505C416.681 259.505 417.662 252.676 425.902 251.505ZM450.817 255.017C447.09 256.578 448.071 259.31 447.482 259.7C442.774 263.797 439.438 263.602 438.458 262.432C435.515 259.115 446.305 248.773 450.621 252.48C451.21 252.871 451.21 254.041 450.817 255.017ZM298.184 258.139H295.437C295.437 258.139 295.241 258.139 295.241 258.334C294.064 260.48 290.14 263.017 286.216 263.992C278.957 266.139 283.273 260.285 283.273 260.285C289.748 252.48 290.14 251.895 290.729 251.115C290.925 250.92 290.532 250.724 290.14 250.724H285.432C284.254 250.724 283.47 251.31 282.881 251.895L282.685 251.7C280.723 248.578 273.072 248.968 267.382 252.676C263.459 255.212 260.908 258.529 260.123 261.261C257.181 261.261 254.63 260.871 252.472 260.285L257.769 253.846C268.952 250.724 287.197 233.164 278.173 233.359C270.521 234.334 260.32 242.334 247.175 257.554C246.783 257.163 244.428 255.602 243.055 256.773C242.27 257.358 242.467 258.724 243.448 259.7C229.714 264.773 230.499 262.041 231.676 260.285C232.657 258.919 236.189 253.846 236.189 253.846C249.922 249.554 267.971 230.822 255.611 233.554C250.314 234.725 239.524 241.359 224.221 259.505C217.158 262.822 211.861 264.773 216.766 258.334C221.867 251.895 237.758 234.139 237.758 233.554C237.758 233.359 237.562 233.164 237.17 233.164H230.695C229.714 233.164 228.93 233.944 228.341 234.53C224.614 232.188 219.709 232.969 219.709 232.969C201.463 234.334 185.18 251.505 186.553 261.261C186.946 263.797 189.3 267.31 194.597 267.31C195.774 267.31 200.286 266.724 205.191 264.383C205.191 264.383 203.033 270.627 221.278 264.188C221.278 264.383 218.532 271.017 241.878 263.017C241.682 263.407 233.638 272.187 229.518 276.285C220.101 285.846 213.431 279.602 213.038 279.212H212.842L211.077 280.773C211.077 280.773 210.88 280.968 211.077 281.163C226.183 292.285 242.27 271.407 250.314 263.017C252.864 263.602 256.2 263.797 260.123 263.212C260.123 263.992 260.32 264.578 260.712 265.163C262.478 267.895 268.756 267.895 274.053 265.163C274.053 265.163 274.837 269.066 285.628 266.529C290.925 265.358 296.81 261.456 298.38 258.529C298.38 258.334 298.184 258.139 298.184 258.139ZM274.053 236.676C276.211 235.31 276.211 238.237 273.072 241.554C265.617 249.359 259.731 250.529 259.731 250.529C259.731 250.529 267.579 240.578 274.053 236.676ZM253.257 236.676C255.415 235.31 255.415 238.237 252.276 241.554C244.821 249.359 238.935 250.529 238.935 250.529C238.935 250.529 246.783 240.578 253.257 236.676ZM199.698 262.041C188.515 260.675 198.324 247.212 209.115 240.188C216.766 235.115 224.81 233.749 225.398 237.847C225.202 239.017 224.417 240.578 222.455 242.725C220.494 244.871 214.412 251.895 209.507 257.554C205.976 260.871 201.856 262.236 199.698 262.041ZM280.527 254.822C278.957 256.773 276.799 259.31 275.23 261.456C272.091 263.602 268.952 264.188 267.775 262.822C266.401 261.261 267.971 257.554 271.502 254.822C274.837 251.895 278.761 250.92 280.135 252.48C280.527 253.066 280.723 253.846 280.527 254.822Z" fill="#221F20"/>
<path d="M148.31 256.369C148.31 282.845 126.846 304.309 100.37 304.309C73.8936 304.309 52.4302 282.845 52.4302 256.369C52.4302 229.893 73.8936 208.429 100.37 208.429C126.846 208.429 148.31 229.893 148.31 256.369Z" fill="#1E1D51"/>
<path d="M100.183 222.721C96.0887 222.798 92.1608 223.526 88.5091 224.801V251.119H100.183V222.721ZM78.9487 230.564C72.8609 235.731 68.5679 242.857 67.1082 250.93H78.9487V230.564ZM88.096 260.456V287.969C91.8437 289.242 95.8746 289.969 100.077 290.046V260.456H88.096ZM67.0698 260.531C68.2834 269.129 72.6675 276.734 79.0238 282.17V260.531H67.0698Z" fill="url(#paint0_linear_1561_9891)"/>
<path d="M101.032 223.06C119.121 223.413 133.679 238.196 133.679 256.369C133.679 274.543 119.121 289.317 101.032 289.671V223.06Z" fill="url(#paint1_linear_1561_9891)"/>
<path d="M87.6396 225.219V251.865H100.001V259.731H87.6396V287.589C84.782 286.409 82.1205 284.855 79.719 282.986V259.731H66.841C66.7333 258.637 66.6777 257.529 66.6777 256.407C66.6777 254.867 66.7823 253.351 66.9837 251.865H79.7189V229.824C82.1202 227.954 84.782 226.399 87.6396 225.219Z" fill="url(#paint2_linear_1561_9891)"/>
<path d="M120.924 234.277H109.465V235.876H120.924V234.277Z" fill="#9D0D16"/>
<path d="M100.51 206C83.0704 205.972 66.09 215.008 56.7503 231.185C42.849 255.263 51.1087 286.087 75.1865 299.988C99.2642 313.889 130.088 305.63 143.99 281.552C157.891 257.474 149.631 226.65 125.553 212.749C117.653 208.188 109.027 206.014 100.51 206ZM100.37 208.429C126.833 208.429 148.31 229.906 148.31 256.369C148.31 282.831 126.833 304.309 100.37 304.309C73.9071 304.309 52.4297 282.831 52.4297 256.369C52.4297 229.906 73.9071 208.429 100.37 208.429ZM97.4834 210.107V220.044H100.511V216.696L102.956 220.044L106.941 220.627L103.488 216.165C104.245 216.008 105.666 215.203 105.666 213.509C105.666 210.971 103.382 210.161 101.947 210.161L97.4834 210.107ZM101.309 212.286C102.133 212.286 102.717 212.844 102.743 213.455C102.77 214.066 102.347 214.729 101.416 214.729H100.458L100.407 212.339L101.309 212.286ZM115.583 212.851C115.529 212.85 115.475 212.851 115.422 212.852C112.809 212.905 110.601 214.489 110.072 217.076C109.545 219.653 111.885 222.701 114.745 223.35C117.849 224.055 120.745 222.581 121.398 219.236C121.957 216.372 119.852 213.56 116.726 212.964C116.341 212.891 115.959 212.853 115.583 212.851ZM78.9406 215.474L76.2308 216.908L77.5049 228.119L80.3747 225.994L80.0032 224.295L83.1379 222.434L84.5721 223.497L87.8666 222.17L78.9406 215.474ZM115.653 215.597C115.837 215.598 116.024 215.615 116.213 215.65C117.721 215.938 118.678 217.242 118.415 218.625C118.151 220.008 116.765 220.95 115.257 220.662C113.749 220.374 113.004 218.914 113.268 217.531C113.499 216.321 114.364 215.594 115.653 215.597ZM79.0471 219.033L81.3307 220.787L79.6835 221.743L79.0471 219.033ZM129.576 220.469L121.075 226.367L123.571 228.332L127.664 225.144L125.59 230.297L126.653 231.307L131.861 229.181L128.726 233.432L130.638 236.142L136.643 227.534L134.729 225.251L129.841 227.216L131.808 222.274L129.576 220.469ZM100.37 221.725C81.2537 221.725 65.7243 237.254 65.7243 256.37C65.7243 275.487 81.2537 291.014 100.37 291.014C119.486 291.014 135.015 275.486 135.015 256.37C135.015 237.254 119.486 221.725 100.37 221.725ZM68.6324 222.859L64.4885 227.641L71.7136 234.07L73.7341 231.733L70.9709 229.288L72.9895 227.109L71.2356 225.516L69.217 227.747L68.2078 226.791L70.3863 224.4L68.6324 222.859ZM99.7002 223.061V250.556H88.9223V225.074C92.2939 223.84 95.92 223.135 99.7002 223.061ZM101.033 223.061C113.719 223.309 124.668 230.654 130.077 241.289C130.007 241.195 129.936 241.104 129.864 241.014C128.539 239.368 126.869 238.276 125.447 237.361C125.334 237.289 125.201 237.252 125.067 237.256C124.86 237.262 124.667 237.364 124.546 237.533C124.215 237.991 123.59 238.372 122.775 238.372H116.638C116.33 238.372 116.037 238.456 115.785 238.639C115.533 238.821 115.309 239.148 115.309 239.535V240.234C115.306 240.238 115.3 240.249 115.274 240.269C115.214 240.315 115.095 240.364 114.964 240.364H109.675L109.68 239.923V239.918V239.915C109.68 239.109 109.27 238.378 108.636 237.916L108.626 237.908L108.618 237.903L106.306 236.335L106.303 236.332L106.3 236.33C105.931 236.087 105.52 235.972 105.132 235.981C105.002 235.983 104.876 236.001 104.754 236.031C104.266 236.15 103.869 236.458 103.613 236.852C103.1 237.639 103.218 238.883 104.204 239.588L105.289 240.418L105.297 240.424L105.305 240.429C105.533 240.593 105.66 240.79 105.66 240.844L105.633 242.601V242.606V242.611C105.633 242.633 105.63 242.638 105.628 242.646C105.598 242.646 105.539 242.639 105.418 242.6C105.162 242.516 104.967 242.407 104.666 242.293C104.364 242.179 103.976 242.088 103.476 242.088C102.597 242.088 101.875 242.485 101.423 243.013C101.264 243.198 101.135 243.396 101.033 243.601V223.061H101.033ZM87.59 225.596V251.888H99.7003V259.65H87.59V287.138C84.7902 285.974 82.1827 284.441 79.83 282.596V259.65H67.2133C67.1078 258.571 67.0534 257.477 67.0534 256.37C67.0534 254.85 67.1558 253.354 67.3532 251.888H79.8299V230.139C82.1826 228.294 84.7902 226.76 87.59 225.596ZM110.173 230.717C109.629 230.717 109.187 231.159 109.187 231.703C109.187 232.247 109.629 232.689 110.173 232.689C110.718 232.689 111.159 232.248 111.159 231.703C111.159 231.159 110.718 230.717 110.173 230.717ZM112.685 230.717C112.141 230.717 111.699 231.159 111.699 231.703C111.699 232.247 112.141 232.689 112.685 232.689C113.229 232.689 113.671 232.248 113.671 231.703C113.671 231.159 113.229 230.717 112.685 230.717ZM115.195 230.717C114.651 230.717 114.209 231.159 114.209 231.703C114.209 232.247 114.651 232.689 115.195 232.689C115.739 232.689 116.181 232.248 116.181 231.703C116.181 231.159 115.739 230.717 115.195 230.717ZM117.705 230.717C117.161 230.717 116.719 231.159 116.719 231.703C116.719 232.247 117.161 232.689 117.705 232.689C118.25 232.689 118.691 232.248 118.691 231.703C118.691 231.159 118.25 230.717 117.705 230.717ZM120.217 230.717C119.673 230.717 119.231 231.159 119.231 231.703C119.231 232.247 119.673 232.689 120.217 232.689C120.761 232.689 121.203 232.248 121.203 231.703C121.203 231.159 120.761 230.717 120.217 230.717ZM78.4976 231.242V250.556H67.5598C68.9083 242.899 72.8734 236.142 78.4976 231.242ZM109.466 233.294V234.893H120.925V233.294H109.466ZM109.466 235.446V237.045H120.925V235.446H109.466ZM141.371 235.452L132.339 239.118L134.889 245.069L137.279 244.06L135.951 241.03L137.067 240.499L138.343 243.422L140.52 242.518L139.299 239.703L140.362 239.225L141.636 242.253L143.868 241.35L141.371 235.452ZM58.8554 236.568L57.5813 239.383L66.4005 243.476L69.217 237.736L67.0384 236.62L65.3378 239.596L58.8554 236.568ZM105.17 237.309C105.275 237.303 105.398 237.331 105.565 237.441L107.87 239.005C108.157 239.215 108.348 239.602 108.348 239.915L108.321 242.075V242.078V242.083C108.321 242.934 108.752 243.659 109.307 244.165C109.635 244.464 110.01 244.699 110.412 244.843C110.01 244.987 109.635 245.222 109.307 245.521C108.752 246.027 108.321 246.752 108.321 247.603V247.608V247.611L108.348 249.78C108.348 250.092 108.137 250.485 107.85 250.694L105.558 252.248C105.336 252.395 105.199 252.393 105.07 252.362C104.941 252.33 104.815 252.238 104.729 252.107C104.557 251.844 104.483 251.537 104.979 251.182L104.987 251.176L104.995 251.169L106.098 250.328C106.471 250.061 106.992 249.613 106.992 248.842V248.837V248.832L106.966 247.065C106.966 246.688 106.83 246.262 106.449 245.974C106.068 245.686 105.524 245.65 105.004 245.821C104.632 245.943 104.389 246.074 104.194 246.147C103.999 246.221 103.835 246.265 103.476 246.265C102.974 246.265 102.666 246.077 102.434 245.806C102.201 245.535 102.082 245.157 102.082 244.91V244.776C102.082 244.528 102.201 244.151 102.434 243.88C102.666 243.609 102.974 243.42 103.476 243.42C103.834 243.42 103.999 243.465 104.194 243.539C104.389 243.612 104.632 243.743 105.004 243.865C105.524 244.036 106.068 244 106.449 243.712C106.83 243.424 106.966 242.988 106.966 242.611L106.992 240.854V240.849V240.844C106.992 240.073 106.454 239.613 106.081 239.346L104.995 238.517L104.987 238.51L104.979 238.504C104.483 238.149 104.557 237.842 104.729 237.579C104.814 237.448 104.941 237.356 105.07 237.324C105.102 237.317 105.135 237.312 105.17 237.309ZM125.194 238.79C126.469 239.624 127.791 240.565 128.826 241.85C129.987 243.292 130.81 245.148 130.81 247.884C130.81 253.024 126.01 257.153 121.393 257.153H110.235C109.918 257.153 109.594 257.298 109.397 257.523C109.201 257.747 109.122 258.018 109.124 258.277C109.126 258.536 109.21 258.801 109.404 259.022C109.598 259.243 109.917 259.39 110.235 259.39H121.128C125.044 259.39 127.132 261.911 127.132 264.887C127.132 267.786 124.963 270.513 121.155 270.513H109.93C109.658 270.513 109.369 270.636 109.191 270.834C109.012 271.032 108.938 271.273 108.939 271.504C108.941 271.734 109.016 271.971 109.192 272.167C109.369 272.362 109.657 272.487 109.93 272.487H118.285C120.083 272.487 121.613 274.239 121.613 275.913C121.613 276.761 121.372 277.545 120.838 278.115C120.305 278.684 119.453 279.097 118.02 279.097H113.01C112.81 279.097 112.6 279.141 112.407 279.28C112.214 279.42 112.056 279.687 112.064 279.963C112.072 280.24 112.232 280.477 112.417 280.61C112.603 280.742 112.81 280.789 113.01 280.789H116.333C116.802 280.789 117.148 280.995 117.422 281.328C117.696 281.66 117.855 282.127 117.855 282.5C117.855 282.965 117.684 283.394 117.381 283.663C117.184 283.837 116.912 283.958 116.54 283.987C116.558 283.796 116.561 283.578 116.433 283.318C116.281 283.009 115.857 282.763 115.497 282.763H113.503C112.809 282.763 112.042 282.501 111.476 282.007C110.91 281.513 110.522 280.812 110.522 279.804C110.522 278.876 110.909 278.215 111.46 277.74C112.01 277.265 112.74 277.017 113.278 277.017H118.178C118.4 277.017 118.615 276.979 118.821 276.854C119.028 276.728 119.24 276.465 119.239 276.137C119.239 275.81 119.026 275.546 118.82 275.421C118.614 275.296 118.4 275.26 118.178 275.26H110.502C107.548 275.26 105.903 273.169 105.903 270.916C105.903 268.905 107.625 266.522 110.235 266.522H121.66C121.971 266.522 122.29 266.377 122.481 266.155C122.671 265.934 122.746 265.671 122.744 265.419C122.742 265.168 122.664 264.909 122.476 264.691C122.287 264.473 121.971 264.327 121.66 264.327H110.024C106.771 264.327 104.198 261.915 104.198 258.272C104.198 255.23 106.687 252.11 110.369 252.11H120.915C121.49 252.11 122.006 251.851 122.322 251.474C122.639 251.096 122.78 250.631 122.782 250.173C122.785 249.715 122.648 249.245 122.331 248.865C122.014 248.485 121.494 248.227 120.915 248.227H109.662L109.654 247.596C109.654 247.206 109.866 246.814 110.206 246.505C110.545 246.196 111.002 246.019 111.281 246.019H117.587C117.831 246.019 118.073 245.962 118.31 245.799C118.548 245.635 118.768 245.283 118.768 244.843C118.768 244.389 118.633 244.16 118.31 243.887C118.073 243.723 117.831 243.667 117.587 243.667H111.281C111.002 243.667 110.545 243.49 110.206 243.18C109.866 242.871 109.654 242.473 109.654 242.083L109.659 241.696H117.356C117.782 241.696 118.171 241.56 118.477 241.325C118.783 241.09 119.033 240.73 119.033 240.276V239.704H122.776C123.746 239.705 124.59 239.343 125.194 238.79ZM131.984 245.849C133.084 249.156 133.68 252.694 133.68 256.37C133.68 268.007 127.712 278.249 118.669 284.205C119.022 283.703 119.187 283.098 119.187 282.5C119.187 281.787 118.932 281.065 118.451 280.481C118.432 280.458 118.41 280.437 118.39 280.414C119.905 280.341 121.059 279.828 121.811 279.025C122.623 278.157 122.945 277.017 122.945 275.912C122.945 274.281 122.032 272.711 120.648 271.845H121.154C125.618 271.845 128.465 268.473 128.465 264.886C128.465 261.845 126.487 259.121 123.196 258.309C127.92 257.421 132.142 253.171 132.142 247.884C132.142 247.161 132.086 246.484 131.984 245.849ZM101.033 246.085C101.135 246.29 101.264 246.489 101.423 246.673C101.875 247.201 102.597 247.598 103.476 247.598C103.975 247.598 104.364 247.507 104.665 247.393C104.967 247.279 105.162 247.171 105.418 247.087C105.539 247.047 105.598 247.04 105.628 247.04C105.63 247.048 105.633 247.054 105.633 247.075V247.08V247.085L105.66 248.852C105.66 248.907 105.533 249.094 105.305 249.257L105.297 249.262L105.288 249.269L104.188 250.111C103.201 250.817 103.1 252.047 103.613 252.835C103.831 253.17 104.151 253.442 104.542 253.589C103.475 254.925 102.865 256.595 102.865 258.273C102.865 261.974 105.265 264.779 108.448 265.483C106.064 266.298 104.571 268.679 104.571 270.916C104.571 273.849 106.894 276.592 110.502 276.592H110.763C110.705 276.638 110.645 276.681 110.589 276.73C109.789 277.421 109.189 278.485 109.189 279.804C109.189 281.173 109.769 282.287 110.598 283.011C111.428 283.736 112.485 284.096 113.503 284.096H115.172C115.138 284.217 115.099 284.33 115.099 284.33C115.017 284.516 115.024 284.727 115.117 284.907C115.211 285.086 115.38 285.214 115.579 285.253C116.055 285.348 116.506 285.354 116.914 285.285C112.219 287.977 106.806 289.559 101.033 289.672V246.085H101.033ZM65.1263 247.246L54.7648 250.647L54.3934 253.729L64.2235 259.042L64.1702 255.483L62.6845 254.795L62.9078 251.135L64.6483 250.701L65.1263 247.246ZM141.318 247.566C137.85 247.566 136.111 250.408 136.111 253.251C136.111 256.093 138.168 258.937 141.318 258.937C144.467 258.937 146.578 256.359 146.578 253.251C146.578 250.196 144.733 247.566 141.318 247.566ZM109.677 249.56H120.915C121.142 249.56 121.226 249.622 121.308 249.72C121.39 249.818 121.45 249.987 121.449 250.166C121.449 250.346 121.386 250.517 121.301 250.617C121.217 250.718 121.133 250.777 120.915 250.777H110.369C110.047 250.777 109.734 250.798 109.428 250.836C109.589 250.51 109.681 250.149 109.681 249.771V249.768V249.763L109.677 249.56ZM141.385 250.647C142.913 250.647 143.805 252.075 143.805 253.251C143.805 254.4 142.88 255.854 141.385 255.854C139.888 255.854 139.018 254.592 139.018 253.251C139.018 251.909 139.856 250.647 141.385 250.647ZM60.5761 251.718L60.4495 253.757L57.6347 252.453L60.5761 251.718ZM67.3698 260.982H78.4976V281.494C72.5808 276.341 68.4994 269.132 67.3698 260.982ZM88.9223 260.982H99.7002V289.672C95.9199 289.597 92.2938 288.892 88.9223 287.658V260.982Z" fill="url(#paint3_linear_1561_9891)"/>
<path d="M105.17 237.309C105.275 237.303 105.398 237.33 105.565 237.441L107.87 239.004C108.157 239.214 108.348 239.601 108.348 239.914L108.321 242.074V242.078V242.083C108.321 242.933 108.752 243.658 109.307 244.165C109.635 244.463 110.01 244.698 110.412 244.842C110.01 244.986 109.635 245.222 109.307 245.52C108.752 246.027 108.321 246.752 108.321 247.602V247.607V247.611L108.348 249.779C108.348 250.092 108.137 250.484 107.85 250.694L105.558 252.248C105.336 252.395 105.199 252.393 105.07 252.361C104.941 252.329 104.815 252.238 104.729 252.106C104.557 251.843 104.483 251.536 104.979 251.182L104.987 251.175L104.995 251.169L106.098 250.327C106.471 250.061 106.992 249.612 106.992 248.842V248.837V248.832L106.966 247.064C106.966 246.687 106.83 246.262 106.449 245.973C106.068 245.685 105.524 245.65 105.004 245.82C104.632 245.942 104.389 246.073 104.194 246.146C103.999 246.22 103.835 246.265 103.476 246.265C102.974 246.265 102.666 246.076 102.434 245.805C102.201 245.534 102.082 245.157 102.082 244.909V244.776C102.082 244.528 102.201 244.151 102.434 243.88C102.666 243.609 102.974 243.42 103.476 243.42C103.834 243.42 103.999 243.464 104.194 243.538C104.389 243.612 104.632 243.743 105.004 243.864C105.524 244.035 106.068 244 106.449 243.711C106.83 243.423 106.966 242.987 106.966 242.61L106.992 240.853V240.848V240.843C106.992 240.073 106.454 239.613 106.081 239.346L104.995 238.516L104.987 238.51L104.979 238.503C104.483 238.148 104.557 237.842 104.729 237.579C104.814 237.447 104.941 237.355 105.07 237.324C105.102 237.316 105.135 237.311 105.17 237.309Z" fill="#9D0D16"/>
<path d="M125.194 238.791C126.469 239.624 127.791 240.565 128.826 241.85C129.987 243.293 130.81 245.149 130.81 247.884C130.81 253.025 126.01 257.153 121.393 257.153H110.235C109.918 257.153 109.594 257.299 109.397 257.523C109.201 257.748 109.122 258.019 109.124 258.278C109.126 258.537 109.21 258.801 109.404 259.022C109.598 259.243 109.917 259.39 110.235 259.39H121.128C125.044 259.39 127.132 261.911 127.132 264.887C127.132 267.787 124.963 270.513 121.155 270.513H109.93C109.658 270.513 109.369 270.636 109.191 270.835C109.012 271.033 108.938 271.274 108.939 271.504C108.941 271.735 109.016 271.972 109.193 272.167C109.369 272.362 109.657 272.487 109.93 272.487H118.285C120.083 272.487 121.613 274.239 121.613 275.913C121.613 276.762 121.372 277.545 120.838 278.115C120.305 278.685 119.453 279.097 118.02 279.097H113.01C112.81 279.097 112.6 279.141 112.407 279.281C112.214 279.42 112.056 279.687 112.064 279.964C112.072 280.24 112.232 280.478 112.417 280.61C112.603 280.742 112.81 280.79 113.01 280.79H116.333C116.802 280.79 117.148 280.995 117.422 281.328C117.696 281.661 117.855 282.127 117.855 282.5C117.855 282.965 117.684 283.394 117.381 283.663C117.184 283.837 116.912 283.958 116.54 283.988C116.558 283.796 116.561 283.578 116.433 283.318C116.281 283.009 115.857 282.763 115.497 282.763H113.503C112.809 282.763 112.042 282.502 111.476 282.007C110.91 281.513 110.522 280.812 110.522 279.804C110.522 278.876 110.909 278.215 111.46 277.74C112.01 277.265 112.74 277.017 113.278 277.017H118.179C118.4 277.017 118.615 276.979 118.821 276.854C119.028 276.729 119.24 276.465 119.24 276.138C119.239 275.81 119.026 275.546 118.82 275.421C118.614 275.296 118.4 275.26 118.179 275.26H110.502C107.548 275.26 105.903 273.17 105.903 270.916C105.903 268.906 107.625 266.522 110.235 266.522H121.66C121.971 266.522 122.291 266.377 122.481 266.156C122.671 265.934 122.746 265.671 122.744 265.42C122.742 265.168 122.664 264.91 122.476 264.692C122.287 264.474 121.971 264.327 121.66 264.327H110.024C106.771 264.327 104.198 261.915 104.198 258.273C104.198 255.23 106.687 252.11 110.369 252.11H120.915C121.49 252.11 122.006 251.851 122.322 251.474C122.639 251.096 122.78 250.631 122.782 250.173C122.785 249.715 122.648 249.246 122.331 248.865C122.014 248.485 121.494 248.228 120.915 248.228H109.663L109.654 247.596C109.654 247.207 109.866 246.815 110.206 246.505C110.545 246.196 111.002 246.019 111.281 246.019H117.587C117.831 246.019 118.073 245.962 118.31 245.799C118.548 245.636 118.768 245.283 118.768 244.843C118.768 244.39 118.633 244.16 118.31 243.887C118.073 243.724 117.831 243.667 117.587 243.667H111.281C111.002 243.667 110.545 243.49 110.206 243.181C109.866 242.871 109.654 242.473 109.654 242.083L109.659 241.697H117.356C117.782 241.697 118.171 241.56 118.477 241.325C118.783 241.09 119.033 240.73 119.033 240.276V239.705H122.776C123.746 239.705 124.59 239.343 125.194 238.791Z" fill="url(#paint4_linear_1561_9891)"/>
<defs>
<linearGradient id="paint0_linear_1561_9891" x1="80.3663" y1="233.894" x2="101.811" y2="292.127" gradientUnits="userSpaceOnUse">
<stop stop-color="white"/>
<stop offset="1" stop-color="#53EEEF"/>
</linearGradient>
<linearGradient id="paint1_linear_1561_9891" x1="101.428" y1="224.531" x2="123.873" y2="288.866" gradientUnits="userSpaceOnUse">
<stop stop-color="#2F7FBE"/>
<stop offset="1" stop-color="#225D8B"/>
</linearGradient>
<linearGradient id="paint2_linear_1561_9891" x1="72.2887" y1="232.947" x2="101.803" y2="290.626" gradientUnits="userSpaceOnUse">
<stop stop-color="#D50D16"/>
<stop offset="0.5" stop-color="#880D16"/>
<stop offset="1" stop-color="#520D16"/>
</linearGradient>
<linearGradient id="paint3_linear_1561_9891" x1="65.8189" y1="226.858" x2="131.012" y2="282.541" gradientUnits="userSpaceOnUse">
<stop stop-color="#F8FFBF"/>
<stop offset="0.5089" stop-color="#F8E45E"/>
<stop offset="0.75" stop-color="#F8D35E"/>
<stop offset="1" stop-color="#EE8E0A"/>
</linearGradient>
<linearGradient id="paint4_linear_1561_9891" x1="112.789" y1="242.291" x2="126.012" y2="281.609" gradientUnits="userSpaceOnUse">
<stop stop-color="#157031"/>
<stop offset="1" stop-color="#0F5324"/>
</linearGradient>
</defs>
</svg>
