<svg width="512" height="512" viewBox="0 0 512 512" fill="none" xmlns="http://www.w3.org/2000/svg">
<g clip-path="url(#clip0_4094_2719)">
<mask id="mask0_4094_2719" style="mask-type:luminance" maskUnits="userSpaceOnUse" x="69" y="164" width="375" height="184">
<path d="M444 164H69V348H444V164Z" fill="white"/>
</mask>
<g mask="url(#mask0_4094_2719)">
<path fill-rule="evenodd" clip-rule="evenodd" d="M69 256C69 205.19 152.947 164 256.5 164C360.054 164 444 205.19 444 256C444 306.81 360.054 348 256.5 348C152.947 348 69 306.81 69 256Z" fill="#4E4E4E"/>
<path fill-rule="evenodd" clip-rule="evenodd" d="M269.293 333.187C266.528 333.187 264.286 335.423 264.286 338.183C264.286 340.942 266.528 343.179 269.293 343.179C272.059 343.179 274.301 340.942 274.301 338.183C274.301 335.423 272.059 333.187 269.293 333.187ZM256.513 333.187C253.747 333.187 251.506 335.423 251.506 338.183C251.506 340.942 253.747 343.179 256.513 343.179C259.278 343.179 261.519 340.942 261.519 338.183C261.519 335.423 259.278 333.187 256.513 333.187ZM243.551 333.187C240.786 333.187 238.544 335.423 238.544 338.183C238.544 340.942 240.786 343.179 243.551 343.179C246.316 343.179 248.559 340.942 248.559 338.183C248.559 335.423 246.316 333.187 243.551 333.187ZM282.074 332.472C279.309 332.472 277.068 334.709 277.068 337.468C277.068 340.227 279.309 342.464 282.074 342.464C284.839 342.464 287.081 340.227 287.081 337.468C287.081 334.709 284.839 332.472 282.074 332.472ZM230.77 332.472C228.005 332.472 225.764 334.709 225.764 337.468C225.764 340.227 228.005 342.464 230.77 342.464C233.536 342.464 235.777 340.227 235.777 337.468C235.777 334.709 233.536 332.472 230.77 332.472ZM295.101 331.201C292.336 331.201 290.095 333.438 290.095 336.197C290.095 338.956 292.336 341.193 295.101 341.193C297.867 341.193 300.108 338.956 300.108 336.197C300.108 333.438 297.867 331.201 295.101 331.201ZM217.744 331.201C214.978 331.201 212.737 333.438 212.737 336.197C212.737 338.956 214.978 341.193 217.744 341.193C220.509 341.193 222.75 338.956 222.75 336.197C222.75 333.438 220.509 331.201 217.744 331.201ZM308.602 329.699C305.837 329.699 303.596 331.936 303.596 334.695C303.596 337.454 305.837 339.691 308.602 339.691C311.368 339.691 313.609 337.454 313.609 334.695C313.609 331.936 311.368 329.699 308.602 329.699ZM204.243 329.699C201.477 329.699 199.236 331.936 199.236 334.695C199.236 337.454 201.477 339.691 204.243 339.691C207.008 339.691 209.25 337.454 209.25 334.695C209.25 331.936 207.008 329.699 204.243 329.699ZM322.103 327.476C319.338 327.476 317.097 329.713 317.097 332.472C317.097 335.231 319.338 337.468 322.103 337.468C324.868 337.468 327.11 335.231 327.11 332.472C327.11 329.713 324.868 327.476 322.103 327.476ZM190.742 327.476C187.977 327.476 185.735 329.713 185.735 332.472C185.735 335.231 187.977 337.468 190.742 337.468C193.507 337.468 195.749 335.231 195.749 332.472C195.749 329.713 193.507 327.476 190.742 327.476ZM335.57 324.529C332.803 324.529 330.562 326.766 330.562 329.525C330.562 332.284 332.803 334.521 335.57 334.521C338.335 334.521 340.577 332.284 340.577 329.525C340.577 326.766 338.335 324.529 335.57 324.529ZM177.275 324.529C174.51 324.529 172.268 326.766 172.268 329.525C172.268 332.284 174.51 334.521 177.275 334.521C180.04 334.521 182.282 332.284 182.282 329.525C182.282 326.766 180.04 324.529 177.275 324.529ZM349.445 321.209C346.679 321.209 344.437 323.446 344.437 326.205C344.437 328.964 346.679 331.201 349.445 331.201C352.211 331.201 354.452 328.964 354.452 326.205C354.452 323.446 352.211 321.209 349.445 321.209ZM163.4 321.209C160.635 321.209 158.393 323.446 158.393 326.205C158.393 328.964 160.635 331.201 163.4 331.201C166.165 331.201 168.407 328.964 168.407 326.205C168.407 323.446 166.165 321.209 163.4 321.209ZM362.469 317.05C359.704 317.05 357.463 319.287 357.463 322.046C357.463 324.805 359.704 327.042 362.469 327.042C365.235 327.042 367.476 324.805 367.476 322.046C367.476 319.287 365.235 317.05 362.469 317.05ZM150.376 317.05C147.61 317.05 145.369 319.287 145.369 322.046C145.369 324.805 147.61 327.042 150.376 327.042C153.141 327.042 155.383 324.805 155.383 322.046C155.383 319.287 153.141 317.05 150.376 317.05ZM375.984 311.809C373.219 311.809 370.978 314.046 370.978 316.805C370.978 319.564 373.219 321.801 375.984 321.801C378.749 321.801 380.991 319.564 380.991 316.805C380.991 314.046 378.749 311.809 375.984 311.809ZM136.86 311.809C134.095 311.809 131.853 314.046 131.853 316.805C131.853 319.564 134.095 321.801 136.86 321.801C139.625 321.801 141.867 319.564 141.867 316.805C141.867 314.046 139.625 311.809 136.86 311.809ZM389.092 305.659C386.327 305.659 384.086 307.896 384.086 310.656C384.086 313.415 386.327 315.652 389.092 315.652C391.859 315.652 394.101 313.415 394.101 310.656C394.101 307.896 391.859 305.659 389.092 305.659ZM123.752 305.659C120.986 305.659 118.745 307.896 118.745 310.656C118.745 313.415 120.986 315.652 123.752 315.652C126.517 315.652 128.759 313.415 128.759 310.656C128.759 307.896 126.517 305.659 123.752 305.659ZM402.085 298.081C399.32 298.081 397.078 300.318 397.078 303.077C397.078 305.836 399.32 308.073 402.085 308.073C404.85 308.073 407.092 305.836 407.092 303.077C407.092 300.318 404.85 298.081 402.085 298.081ZM110.759 298.081C107.994 298.081 105.753 300.318 105.753 303.077C105.753 305.836 107.994 308.073 110.759 308.073C113.525 308.073 115.766 305.836 115.766 303.077C115.766 300.318 113.525 298.081 110.759 298.081ZM414.444 288.828C411.679 288.828 409.438 291.064 409.438 293.824C409.438 296.583 411.679 298.82 414.444 298.82C417.21 298.82 419.451 296.583 419.451 293.824C419.451 291.064 417.21 288.828 414.444 288.828ZM98.3998 288.828C95.6347 288.828 93.393 291.064 93.393 293.824C93.393 296.583 95.6347 298.82 98.3998 298.82C101.165 298.82 103.407 296.583 103.407 293.824C103.407 291.064 101.165 288.828 98.3998 288.828ZM424.944 277.266C422.179 277.266 419.937 279.503 419.937 282.262C419.937 285.021 422.179 287.258 424.944 287.258C427.709 287.258 429.951 285.021 429.951 282.262C429.951 279.503 427.709 277.266 424.944 277.266ZM87.9005 277.266C85.1353 277.266 82.8937 279.503 82.8937 282.262C82.8937 285.021 85.1353 287.258 87.9005 287.258C90.6657 287.258 92.9074 285.021 92.9074 282.262C92.9074 279.503 90.6657 277.266 87.9005 277.266ZM431.495 264.845C428.73 264.845 426.488 267.082 426.488 269.841C426.488 272.601 428.73 274.837 431.495 274.837C434.262 274.837 436.503 272.601 436.503 269.841C436.503 267.082 434.262 264.845 431.495 264.845ZM81.3493 264.845C78.5841 264.845 76.3424 267.082 76.3424 269.841C76.3424 272.601 78.5841 274.837 81.3493 274.837C84.1145 274.837 86.3562 272.601 86.3562 269.841C86.3562 267.082 84.1145 264.845 81.3493 264.845ZM434.221 251.004C431.456 251.004 429.214 253.24 429.214 256C429.214 258.759 431.456 260.996 434.221 260.996C436.986 260.996 439.228 258.759 439.228 256C439.228 253.24 436.986 251.004 434.221 251.004ZM78.6242 251.004C75.859 251.004 73.6173 253.24 73.6173 256C73.6173 258.759 75.859 260.996 78.6242 260.996C81.3894 260.996 83.631 258.759 83.631 256C83.631 253.24 81.3894 251.004 78.6242 251.004ZM431.495 237.162C428.73 237.162 426.488 239.399 426.488 242.158C426.488 244.917 428.73 247.154 431.495 247.154C434.262 247.154 436.503 244.917 436.503 242.158C436.503 239.399 434.262 237.162 431.495 237.162ZM81.3492 237.162C78.584 237.162 76.3423 239.399 76.3423 242.158C76.3423 244.917 78.584 247.154 81.3492 247.154C84.1144 247.154 86.356 244.917 86.356 242.158C86.356 239.399 84.1144 237.162 81.3492 237.162ZM424.944 224.741C422.179 224.741 419.937 226.978 419.937 229.737C419.937 232.497 422.179 234.733 424.944 234.733C427.709 234.733 429.951 232.497 429.951 229.737C429.951 226.978 427.709 224.741 424.944 224.741ZM87.9006 224.741C85.1355 224.741 82.8938 226.978 82.8938 229.737C82.8938 232.497 85.1355 234.733 87.9006 234.733C90.6659 234.733 92.9075 232.497 92.9075 229.737C92.9075 226.978 90.6659 224.741 87.9006 224.741ZM414.444 213.18C411.679 213.18 409.438 215.417 409.438 218.176C409.438 220.935 411.679 223.172 414.444 223.172C417.21 223.172 419.451 220.935 419.451 218.176C419.451 215.417 417.21 213.18 414.444 213.18ZM98.4 213.18C95.6349 213.18 93.3931 215.417 93.3931 218.176C93.3931 220.935 95.6349 223.172 98.4 223.172C101.165 223.172 103.407 220.935 103.407 218.176C103.407 215.417 101.165 213.18 98.4 213.18ZM402.085 203.926C399.32 203.926 397.078 206.163 397.078 208.922C397.078 211.682 399.32 213.918 402.085 213.918C404.85 213.918 407.092 211.682 407.092 208.922C407.092 206.163 404.85 203.926 402.085 203.926ZM110.76 203.926C107.994 203.926 105.753 206.163 105.753 208.922C105.753 211.681 107.994 213.918 110.76 213.918C113.525 213.918 115.767 211.681 115.767 208.922C115.767 206.163 113.525 203.926 110.76 203.926ZM389.092 196.347C386.327 196.347 384.086 198.584 384.086 201.343C384.086 204.102 386.327 206.339 389.092 206.339C391.859 206.339 394.101 204.102 394.101 201.343C394.101 198.584 391.859 196.347 389.092 196.347ZM123.752 196.347C120.987 196.347 118.745 198.584 118.745 201.343C118.745 204.102 120.987 206.339 123.752 206.339C126.517 206.339 128.759 204.102 128.759 201.343C128.759 198.584 126.517 196.347 123.752 196.347ZM375.984 190.199C373.219 190.199 370.978 192.436 370.978 195.195C370.978 197.954 373.219 200.191 375.984 200.191C378.749 200.191 380.991 197.954 380.991 195.195C380.991 192.436 378.749 190.199 375.984 190.199ZM136.86 190.199C134.095 190.199 131.853 192.436 131.853 195.195C131.853 197.954 134.095 200.191 136.86 200.191C139.625 200.191 141.867 197.954 141.867 195.195C141.867 192.436 139.625 190.199 136.86 190.199ZM362.469 184.958C359.704 184.958 357.463 187.194 357.463 189.954C357.463 192.713 359.704 194.95 362.469 194.95C365.235 194.95 367.476 192.713 367.476 189.954C367.476 187.194 365.235 184.958 362.469 184.958ZM150.376 184.958C147.611 184.958 145.369 187.194 145.369 189.954C145.369 192.713 147.611 194.95 150.376 194.95C153.141 194.95 155.383 192.713 155.383 189.954C155.383 187.194 153.141 184.958 150.376 184.958ZM256.422 182.735C163.282 182.735 87.7765 215.537 87.7765 256C87.7765 296.463 163.282 329.263 256.422 329.263C349.563 329.263 425.068 296.463 425.068 256C425.068 215.537 349.563 182.735 256.422 182.735ZM349.445 180.799C346.679 180.799 344.437 183.036 344.437 185.795C344.437 188.554 346.679 190.791 349.445 190.791C352.211 190.791 354.452 188.554 354.452 185.795C354.452 183.036 352.211 180.799 349.445 180.799ZM163.4 180.799C160.635 180.799 158.393 183.035 158.393 185.795C158.393 188.554 160.635 190.791 163.4 190.791C166.165 190.791 168.407 188.554 168.407 185.795C168.407 183.035 166.165 180.799 163.4 180.799ZM335.57 177.477C332.803 177.477 330.562 179.714 330.562 182.474C330.562 185.233 332.803 187.469 335.57 187.469C338.335 187.469 340.577 185.233 340.577 182.474C340.577 179.714 338.335 177.477 335.57 177.477ZM177.276 177.477C174.51 177.477 172.268 179.714 172.268 182.473C172.268 185.233 174.51 187.469 177.276 187.469C180.041 187.469 182.282 185.233 182.282 182.473C182.282 179.714 180.041 177.477 177.276 177.477ZM322.103 174.531C319.338 174.531 317.097 176.768 317.097 179.527C317.097 182.286 319.338 184.523 322.103 184.523C324.868 184.523 327.11 182.286 327.11 179.527C327.11 176.768 324.868 174.531 322.103 174.531ZM190.742 174.531C187.977 174.531 185.735 176.768 185.735 179.527C185.735 182.286 187.977 184.523 190.742 184.523C193.507 184.523 195.749 182.286 195.749 179.527C195.749 176.768 193.507 174.531 190.742 174.531ZM308.602 172.308C305.837 172.308 303.596 174.545 303.596 177.304C303.596 180.063 305.837 182.3 308.602 182.3C311.368 182.3 313.609 180.063 313.609 177.304C313.609 174.545 311.368 172.308 308.602 172.308ZM204.243 172.308C201.477 172.308 199.236 174.545 199.236 177.304C199.236 180.063 201.477 182.3 204.243 182.3C207.008 182.3 209.25 180.063 209.25 177.304C209.25 174.545 207.008 172.308 204.243 172.308ZM295.101 170.807C292.336 170.807 290.095 173.044 290.095 175.803C290.095 178.562 292.336 180.799 295.101 180.799C297.867 180.799 300.108 178.562 300.108 175.803C300.108 173.044 297.867 170.807 295.101 170.807ZM217.744 170.807C214.978 170.807 212.737 173.044 212.737 175.803C212.737 178.562 214.978 180.799 217.744 180.799C220.509 180.799 222.75 178.562 222.75 175.803C222.75 173.044 220.509 170.807 217.744 170.807ZM282.074 169.535C279.309 169.535 277.068 171.772 277.068 174.531C277.068 177.29 279.309 179.527 282.074 179.527C284.839 179.527 287.081 177.29 287.081 174.531C287.081 171.772 284.839 169.535 282.074 169.535ZM230.77 169.535C228.005 169.535 225.764 171.772 225.764 174.531C225.764 177.29 228.005 179.527 230.77 179.527C233.536 179.527 235.777 177.29 235.777 174.531C235.777 171.772 233.536 169.535 230.77 169.535ZM269.293 168.821C266.528 168.821 264.286 171.058 264.286 173.817C264.286 176.576 266.528 178.813 269.293 178.813C272.059 178.813 274.301 176.576 274.301 173.817C274.301 171.058 272.059 168.821 269.293 168.821ZM256.513 168.821C253.747 168.821 251.506 171.058 251.506 173.817C251.506 176.576 253.747 178.813 256.513 178.813C259.278 178.813 261.519 176.576 261.519 173.817C261.519 171.058 259.278 168.821 256.513 168.821ZM243.551 168.821C240.786 168.821 238.544 171.058 238.544 173.817C238.544 176.576 240.786 178.813 243.551 178.813C246.317 178.813 248.559 176.576 248.559 173.817C248.559 171.058 246.317 168.821 243.551 168.821ZM256.422 164.93C359.418 164.93 442.913 205.703 442.913 256C442.913 306.297 359.418 347.07 256.422 347.07C153.427 347.07 69.9321 306.297 69.9321 256C69.9321 205.703 153.427 164.93 256.422 164.93Z" fill="white"/>
<path fill-rule="evenodd" clip-rule="evenodd" d="M279.887 258.736L276.914 269.17H283.053L279.887 258.736ZM270.68 230.19H281.353L287.991 236.817L303.88 293.901H293.456L286.819 287.274L286.023 284.46H273.173L270.89 293.901H261.429L254.791 287.274L270.68 230.19Z" fill="black"/>
<path fill-rule="evenodd" clip-rule="evenodd" d="M220.869 230.19H241.374C243.375 230.302 244.524 230.626 246.601 232.185L253.053 238.768C253.837 239.948 254.32 242.406 254.636 244.502L254.168 252.123H243.922L237.312 245.544L230.84 245.539C230.784 256.278 230.728 267.016 230.672 277.754H234.635C236.096 277.754 237.279 276.575 237.279 275.12V263.382H233.119V255.598L249.084 255.599L254.325 261.138C254.325 269.184 254.168 276.609 254.168 284.655C254.168 288.9 248.694 293.893 244.436 293.893H227.511C225.419 293.998 223.34 292.931 222.181 291.87L214.804 284.437C214.019 283.257 213.138 281.233 213.159 279.582V237.876C213.159 233.632 216.611 230.19 220.869 230.19Z" fill="black"/>
<path fill-rule="evenodd" clip-rule="evenodd" d="M336.968 230.19H375.493L378.6 234.51V246.28H368.751C368.77 262.153 368.79 278.027 368.809 293.901H357.028L350.34 287.274V246.28H342.444L336.968 241.96V230.19Z" fill="black"/>
<path fill-rule="evenodd" clip-rule="evenodd" d="M163.76 230.19H176.065L182.7 236.817L182.698 277.759H185.724C187.182 277.759 188.364 276.58 188.364 275.124V249.218V230.19H200.155L206.79 236.817V286.214C206.79 290.459 203.342 293.901 199.089 293.901H178.096C175.923 293.801 174.546 292.973 172.936 291.76L165.347 284.309C164.563 283.129 164.024 281.563 163.76 279.587V272.452V249.218V230.19Z" fill="black"/>
<path fill-rule="evenodd" clip-rule="evenodd" d="M381.552 230.19H393.381L400.038 236.817V293.901H388.208L381.552 287.274V230.19Z" fill="black"/>
<path fill-rule="evenodd" clip-rule="evenodd" d="M293.472 230.19H331.997L335.104 234.51V246.28H325.255C325.275 262.153 325.105 278.027 325.125 293.901H313.536L306.844 287.274V246.28H298.948L293.472 241.96V230.19Z" fill="black"/>
<path fill-rule="evenodd" clip-rule="evenodd" d="M131.342 268.392V277.759H135.297C138.035 277.759 140.254 275.539 140.254 272.799V268.392H131.342ZM131.342 246.332V252.251H134.492C136.639 252.251 138.38 250.509 138.38 248.36V246.332H131.342ZM112.962 230.19L142.898 230.191C144.703 230.399 145.778 230.749 147.79 231.893C149.713 233.217 153.481 237.187 154.976 239.216C155.713 240.329 156.463 241.204 156.76 244.066V256.386C156.76 259.389 154.936 261.965 152.336 263.066C155.975 265.961 158.587 267.958 158.633 274.066V283.47C158.633 289.231 153.967 293.901 148.211 293.901H119.581L112.962 287.274V230.19Z" fill="black"/>
<path fill-rule="evenodd" clip-rule="evenodd" d="M163.76 230.19H176.05L176.047 275.094C176.047 276.548 177.228 277.727 178.684 277.727H185.697C187.153 277.727 188.334 276.548 188.334 275.094V249.205V230.19H200.11V279.554C200.11 283.796 196.667 287.235 192.419 287.235H171.451C167.203 287.235 163.76 283.796 163.76 279.554V272.423V249.205V230.19Z" fill="white"/>
<path fill-rule="evenodd" clip-rule="evenodd" d="M220.86 230.19H241.343C245.597 230.19 249.044 233.63 249.044 237.872V245.488H237.251V242.332C237.251 240.877 236.071 239.698 234.612 239.698H227.591C226.132 239.698 224.95 240.877 224.95 242.332V275.094C224.95 276.548 226.132 277.727 227.591 277.727H234.612C236.071 277.727 237.251 276.548 237.251 275.094V263.363H233.096V255.584H247.618H249.044V279.554C249.044 283.796 245.597 287.235 241.343 287.235H220.86C216.607 287.235 213.159 283.796 213.159 279.554V237.872C213.159 233.63 216.607 230.19 220.86 230.19Z" fill="white"/>
<path d="M393.358 230.19H381.552V287.235H393.358V230.19Z" fill="white"/>
<path fill-rule="evenodd" clip-rule="evenodd" d="M336.968 230.19H375.493V241.952H362.121V287.235H350.34V241.952H336.968V230.19Z" fill="white"/>
<path fill-rule="evenodd" clip-rule="evenodd" d="M293.472 230.19H331.997V241.952H318.625V287.235H306.844V241.952H293.472V230.19Z" fill="white"/>
<path fill-rule="evenodd" clip-rule="evenodd" d="M275.996 249.053L270.698 267.799H281.293L275.996 249.053ZM270.664 230.19H281.327L297.2 287.235H286.787L284.12 277.801H267.871L265.204 287.235H254.791L270.664 230.19Z" fill="white"/>
<path fill-rule="evenodd" clip-rule="evenodd" d="M124.705 261.744V277.727H135.262C137.995 277.727 140.211 275.508 140.211 272.77V266.701C140.211 263.963 137.995 261.744 135.262 261.744H124.705ZM124.705 239.699V252.236H134.458C136.602 252.236 138.34 250.496 138.34 248.348V243.587C138.34 241.44 136.602 239.699 134.458 239.699H124.705ZM112.962 230.19C122.925 230.19 132.888 230.19 142.851 230.191C146.845 230.191 150.083 233.434 150.083 237.434V249.747C150.083 253.747 146.845 256.99 142.851 256.99L143.644 257.202C148.387 258.174 151.954 262.376 151.954 267.413V276.812C151.954 282.568 147.294 287.235 141.547 287.235C132.019 287.235 122.491 287.235 112.962 287.235V230.19Z" fill="white"/>
<path fill-rule="evenodd" clip-rule="evenodd" d="M259.424 207.871V214.796H266.372C268.292 214.796 269.849 213.246 269.849 211.333C269.849 209.421 268.292 207.871 266.372 207.871H259.424ZM267.421 197.505L259.424 197.522V202.251H267.421C268.761 202.251 269.849 201.08 269.849 199.832C269.849 198.585 268.761 197.505 267.421 197.505ZM235.062 191.902H270.459C274.582 191.902 277.923 195.23 277.923 199.336C277.923 201.389 277.089 203.247 275.738 204.592L274.476 205.439L275.474 206.109C276.987 207.617 278.073 208.964 277.923 212.001C277.923 216.603 274.178 220.425 269.557 220.425L235.062 220.416V210.728H240.099V214.796H252.189V207.871H247.928V209.89H242.893V200.202H247.928V202.251H252.189V197.522H240.099V201.59H235.062V191.902Z" fill="black"/>
</g>
</g>
<defs>
<clipPath id="clip0_4094_2719">
<rect width="375" height="184" fill="white" transform="translate(69 164)"/>
</clipPath>
</defs>
</svg>
