<svg width="512" height="512" viewBox="0 0 512 512" fill="none" xmlns="http://www.w3.org/2000/svg">
<g clip-path="url(#clip0_4094_2768)">
<path d="M219 197.15V204.006H228.125L228.138 201.725L228.156 199.443L239.087 199.428L250.012 199.415V212.237H241.366V208.659L236.791 208.671L232.209 208.69V226.64L236.791 226.659L241.366 226.671V223.093H250.012V237.525H228.125V232.993H219V246.712H248.094C267.031 246.712 277.484 246.687 278.044 246.65C282.535 246.337 286.722 244.269 289.7 240.893C291.955 238.343 293.412 235.188 293.891 231.818C294.041 230.803 294.034 228.118 293.884 227.118C293.405 223.72 291.925 220.542 289.634 217.987C289.476 217.821 289.329 217.644 289.197 217.456C289.197 217.431 289.366 217.206 289.572 216.956C291.52 214.541 292.745 211.623 293.103 208.54C293.209 207.374 293.219 206.202 293.134 205.034C292.799 201.812 291.526 198.758 289.472 196.253C287.873 194.326 285.861 192.785 283.584 191.743C282.386 191.2 281.127 190.801 279.834 190.556C278.225 190.275 279.716 190.29 248.422 190.29H219V197.15ZM277.3 199.475C279.041 199.612 280.294 200.143 281.378 201.209C283.053 202.862 283.659 205.628 282.863 208.062C282.559 209.003 282.029 209.855 281.319 210.543C280.418 211.415 279.263 211.977 278.022 212.146C277.562 212.225 276.269 212.24 269.803 212.24H262.122V205.865C262.122 202.362 262.138 199.475 262.163 199.459C262.225 199.39 276.441 199.409 277.3 199.475ZM278.134 223.181C281.503 223.725 283.781 226.234 283.997 229.634C284.175 232.409 283.228 234.675 281.278 236.159C280.781 236.534 279.716 237.059 279.119 237.228C278.025 237.525 278.05 237.525 269.816 237.525H262.122V223.093H269.862C276.369 223.093 277.681 223.103 278.134 223.181Z" fill="white"/>
</g>
<g clip-path="url(#clip1_4094_2768)">
<path fill-rule="evenodd" clip-rule="evenodd" d="M72.887 308.071C78.3715 303.027 81.6344 295.906 81.6344 287.598C81.6344 270.537 69.1824 258.076 51.9844 258.076H21V361.924H54.208C71.8495 361.924 84.7469 349.166 84.7469 331.512C84.7469 321.572 80.2999 313.264 72.887 308.073V308.071ZM37.604 274.099H51.3905C59.544 274.099 65.0304 279.588 65.0304 287.6C65.0304 295.613 59.5459 301.101 51.3905 301.101H37.604V274.099ZM53.614 345.901H37.604V317.12H53.614C62.213 317.12 68.143 322.905 68.143 331.51C68.143 340.115 62.213 345.901 53.614 345.901ZM144.49 333.44C144.49 341.896 138.412 347.979 129.961 347.979C121.511 347.979 115.433 341.896 115.433 333.44V258.076H98.8285V332.253C98.8285 350.648 111.875 364 129.961 364C148.048 364 161.094 350.648 161.094 332.253V258.076H144.49V333.44ZM210.042 256C191.955 256 178.909 269.352 178.909 287.747V332.251C178.909 350.646 191.955 363.998 210.042 363.998C228.129 363.998 241.175 350.646 241.175 332.251V301.989H210.042V318.011H224.571V333.44C224.571 341.896 218.493 347.979 210.042 347.979C201.592 347.979 195.513 341.896 195.513 333.44V286.56C195.513 278.104 201.592 272.021 210.042 272.021C218.493 272.021 224.571 278.104 224.571 286.56V289.231H241.175V287.747C241.175 269.352 228.129 256 210.042 256ZM276.875 258.076L253.006 361.922H269.462L274.206 341.153H302.373L307.117 361.922H323.572L299.706 258.076H276.875ZM277.912 325.13L288.289 279.586L298.666 325.13H277.912ZM326.39 274.099H349.221L349.369 361.924H365.676L365.825 274.099H388.654V258.076H326.39V274.099ZM397.281 274.099H420.112L420.261 361.924H436.568L436.716 274.099H459.545V258.076H397.281V274.099ZM474.396 258.076H491V361.922H474.396V258.076Z" fill="white"/>
</g>
<defs>
<clipPath id="clip0_4094_2768">
<rect width="75" height="75" fill="white" transform="translate(219 181)"/>
</clipPath>
<clipPath id="clip1_4094_2768">
<rect width="470" height="108" fill="white" transform="translate(21 256)"/>
</clipPath>
</defs>
</svg>
