<svg width="512" height="512" viewBox="0 0 512 512" fill="none" xmlns="http://www.w3.org/2000/svg">
<path d="M228.524 49.0142C173.986 57.8559 129.077 90.9466 105.441 140.057C80.2287 192.232 84.5183 253.686 116.821 301.659C152.976 355.585 217.581 382.985 281.487 371.692C316.591 365.477 351.52 345.867 374.806 319.255C398.792 291.942 412.536 259.464 415.513 222.959C417.876 195.471 412.361 166.145 400.193 140.933C391.789 123.424 383.56 111.431 370.779 98.125C347.23 73.6133 318.692 57.6808 285.514 50.6775C276.409 48.7515 272.207 48.3138 255.662 48.0512C241.743 47.8761 234.214 48.1388 228.524 49.0142ZM265.292 65.2094C298.732 68.3608 328.759 81.8422 352.133 104.078C366.577 117.822 375.419 129.727 383.473 146.185C399.93 179.626 403.082 216.481 392.664 252.286C377.432 304.548 332.786 344.554 278.423 354.622C271.77 355.935 265.554 356.285 252.16 356.285C232.463 356.285 225.723 355.234 208.915 350.069C131.528 325.996 88.8078 243.531 113.582 165.882C120.936 142.859 133.717 122.637 151.925 105.216C182.477 75.8894 223.884 61.3575 265.292 65.2094Z" fill="black"/>
<path d="M279.736 124.738V136.118H247.783H215.83V147.061V158.003L184.14 158.178L152.363 158.441V204.838C152.363 250.097 152.45 251.498 154.376 260.777C157.178 273.646 161.38 285.726 168.208 299.733C176.787 317.504 188.868 337.113 190.618 336.063C192.807 334.662 204.275 315.753 210.578 302.885C217.581 288.615 221.696 278.023 223.709 268.918C224.322 266.205 225.11 263.929 225.372 263.929C225.635 263.929 226.598 265.767 227.561 268.131C230.712 276.009 241.13 295.444 247.345 305.073L253.648 314.703L256.012 311.464C268.443 293.955 280.086 270.932 285.426 252.986C289.54 239.242 289.015 240.292 290.328 243.794C292.867 250.797 302.146 268.306 309.237 279.686C313.439 286.427 317.116 291.942 317.379 291.942C317.641 291.942 320.443 287.915 323.594 282.925C337.863 261.04 347.668 238.979 352.658 217.969C354.321 210.528 354.496 207.202 354.759 161.68L355.109 113.357H317.466H279.736V124.738ZM342.766 165.795C342.766 210.441 342.503 213.154 336.988 229.087C335.237 233.989 332.261 241.168 330.335 245.02C325.783 254.211 318.342 266.555 317.379 266.555C315.015 266.555 301.534 240.905 297.419 228.474C291.904 212.104 291.816 211.141 291.379 166.495L290.941 125.613H316.853H342.766V165.795ZM279.298 188.205C279.298 223.835 279.123 229.35 277.722 235.915C274.308 251.673 268.093 266.905 258.638 282.225L254.086 289.578L252.335 287.477C245.507 278.986 234.739 256.05 230.625 241.168C228.699 233.902 228.611 232.501 228.261 190.569L227.999 147.498L253.648 147.673L279.298 147.936V188.205ZM215.83 208.952C215.83 251.76 215.305 257.801 210.49 272.245C209.002 276.535 206.113 283.8 204.012 288.353C200.248 296.319 191.756 310.851 190.356 311.726C189.393 312.251 180.289 297.282 175.999 288.002C172.147 279.861 168.821 270.319 166.282 260.427C164.969 255.612 164.706 248.521 164.444 212.454L164.093 170.259H189.918H215.83V208.952Z" fill="black"/>
<path d="M294.793 128.939C295.756 131.478 338.651 207.114 339.352 207.552C339.789 207.814 340.14 191.969 340.14 168.158V128.239H317.291C304.773 128.239 294.618 128.589 294.793 128.939Z" fill="black"/>
<path d="M294.005 184.703C294.355 201.161 294.881 209.215 295.931 213.855C297.594 221.208 301.534 233.026 304.86 240.205C307.837 246.595 316.678 262.178 317.291 262.178C318.779 262.178 333.136 234.077 333.136 231.276C333.136 229.962 296.106 164.394 294.443 162.818C293.83 162.205 293.655 168.771 294.005 184.703Z" fill="black"/>
<path d="M231.325 150.825C231.15 151.175 235.002 158.529 239.904 167.195C244.719 175.862 254.874 193.808 262.315 207.027L275.796 231.101L276.409 223.659C276.672 219.545 276.934 201.599 277.022 183.741C277.11 154.239 276.934 151.175 275.621 150.65C273.695 149.862 231.675 150.037 231.325 150.825Z" fill="black"/>
<path d="M230.975 209.215C231.413 235.653 231.763 238.191 237.366 253.073C240.167 260.514 247.171 274.871 250.935 280.649C253.474 284.588 253.824 284.851 254.787 283.45C257.676 279.248 264.416 266.467 267.13 260.252L270.019 253.424L257.763 231.713C250.935 219.808 242.618 205.188 239.204 199.148C235.79 193.107 232.464 187.417 231.851 186.454C230.8 184.966 230.625 188.118 230.975 209.215Z" fill="black"/>
<path d="M169.521 177.875C172.497 182.953 178.275 193.37 200.073 232.151C210.315 250.447 211.979 252.986 212.416 250.972C212.767 249.659 213.029 231.538 213.117 210.703L213.204 172.885H189.918H166.72L169.521 177.875Z" fill="black"/>
<path d="M166.982 230.663C167.42 253.161 167.595 255.262 169.696 263.053C173.46 276.885 179.676 290.804 188.08 304.46L190.181 307.874L193.858 301.571C198.147 294.393 206.201 278.023 206.201 276.447C206.201 275.834 204.1 271.72 201.474 267.255C198.847 262.791 190.181 247.471 182.127 233.289C174.073 219.107 167.333 207.289 167.07 207.027C166.807 206.764 166.807 217.444 166.982 230.663Z" fill="black"/>
<path d="M318.955 402.244C305.473 403.82 296.719 408.81 292.167 417.476C289.978 421.591 289.803 422.729 289.803 432.446C289.803 442.251 289.978 443.301 292.342 448.028C297.507 458.708 309.675 463.523 330.948 463.523C344.779 463.523 356.685 460.284 362.375 454.944C365.176 452.318 368.065 446.54 368.153 443.564C368.153 441.725 367.803 441.638 361.762 441.638H355.459L354.321 446.19C352.133 455.469 346.005 458.708 330.51 458.708C321.843 458.708 319.918 458.446 316.766 456.783C309.062 452.668 306.436 445.665 307.049 430.783C307.574 419.577 309.062 414.938 313.527 411.086C317.379 407.672 321.668 406.621 331.123 406.534C340.927 406.534 346.18 407.847 350.207 411.349C352.658 413.45 353.533 414.938 353.884 417.739L354.409 421.503H360.362H366.402V413.274V405.046L360.537 403.995C346.355 401.544 331.035 400.844 318.955 402.244Z" fill="black"/>
<path d="M46.8754 404.695C46.8754 406.621 48.4512 407.497 51.7777 407.497C55.0168 407.497 58.8686 409.773 59.4814 412.049C59.744 413.187 60.0066 422.466 60.0066 432.709C60.0066 455.995 59.4814 457.22 49.5017 458.796C46.8754 459.234 46 459.759 46 460.985C46 462.56 47.4007 462.648 81.7169 462.648C120.235 462.648 124.437 462.21 130.74 458.008C134.942 455.207 137.043 451.005 137.043 445.14C137.043 436.736 133.629 433.672 122.599 432.096C119.36 431.571 116.558 431.045 116.296 430.783C116.121 430.608 118.047 429.995 120.585 429.47C129.602 427.544 133.892 423.342 133.892 416.338C133.804 410.998 131.703 407.234 127.676 405.221C124.612 403.645 121.461 403.557 85.6563 403.295C47.7508 403.032 46.8754 403.032 46.8754 404.695ZM108.505 408.46C113.495 409.86 116.033 412.749 116.033 417.126C116.033 421.941 113.932 425.793 110.518 427.194C106.141 428.944 96.6865 429.645 85.5688 428.944L75.5015 428.244L76.0267 419.84C76.552 412.224 76.8146 411.261 78.8281 409.423C80.9291 407.672 81.892 407.497 93.0973 407.497C99.663 407.497 106.579 407.934 108.505 408.46ZM112.181 435.598C117.259 436.911 119.535 439.8 119.535 444.964C119.535 455.469 110.693 459.234 89.5081 457.746C77.1648 456.87 76.4645 456.257 75.9392 444.002L75.5015 434.635H91.8718C101.151 434.635 109.993 435.072 112.181 435.598Z" fill="black"/>
<path d="M140.545 405.308C140.545 407.234 140.895 407.497 143.521 407.497C147.548 407.497 151.75 409.072 152.801 410.998C153.326 411.961 153.676 420.628 153.676 430.87C153.676 448.116 153.764 449.342 155.69 453.018C159.191 460.109 168.733 463.523 184.578 463.523C194.558 463.523 200.073 462.21 205.326 458.708L209.703 455.732V459.234V462.648H223.709H237.716V460.547C237.716 458.796 237.191 458.358 233.777 457.921C231.676 457.57 229.049 456.607 227.911 455.645L225.898 454.069L226.161 428.594L226.423 403.12H211.016H195.609L195.871 405.046C196.046 406.621 196.922 407.147 199.986 407.672C204.8 408.46 207.777 410.386 209.002 413.45C210.316 416.864 209.265 444.964 207.689 448.816C204.975 455.382 198.41 458.446 186.942 458.533C178.888 458.621 174.248 456.695 171.622 452.143C169.609 448.641 169.434 443.301 170.572 418.177L171.184 403.12H155.865H140.545V405.308Z" fill="black"/>
<path d="M242.618 403.908C241.48 405.746 243.231 407.497 246.207 407.497C248.396 407.497 249.972 408.197 251.81 410.035L254.349 412.574V432.271C254.349 443.126 254.086 452.668 253.824 453.456C253.123 455.207 249.622 456.958 245.42 457.746C242.618 458.271 242.093 458.709 242.093 460.459V462.648H262.665H283.238V460.459C283.238 458.709 282.712 458.271 279.998 457.746C276.059 457.045 273.52 455.82 272.12 453.981C271.332 452.931 271.069 446.978 270.982 432.709C270.982 413.099 270.982 412.837 272.995 410.473C274.483 408.81 276.234 407.934 278.948 407.584C282.099 407.147 282.887 406.709 283.062 405.046L283.325 403.12H263.191C252.073 403.12 242.881 403.47 242.618 403.908Z" fill="black"/>
<path d="M375.156 405.308C375.156 407.234 375.506 407.497 378.22 407.497C382.247 407.497 385.223 408.985 386.449 411.611C387.762 414.5 387.762 450.392 386.449 453.368C385.223 456.082 380.759 458.271 376.557 458.271C373.755 458.271 373.405 458.533 373.405 460.459V462.648H395.291C416.738 462.648 417.176 462.648 417.176 460.897C417.176 458.971 416.738 458.709 411.573 457.833C409.56 457.483 407.109 456.257 405.621 454.769C403.344 452.493 403.169 451.793 403.169 445.84C403.169 439.624 403.257 439.362 405.708 437.874C407.109 437.086 408.86 436.385 409.56 436.385C410.26 436.385 417.264 442.251 425.142 449.517L439.499 462.648H452.805C465.499 462.648 466.199 462.56 466.199 460.897C466.199 459.671 465.324 458.971 462.785 458.271C460.947 457.833 457.27 455.732 454.644 453.631C448.603 448.904 422.429 426.581 422.429 426.231C422.429 426.056 425.668 423.429 429.694 420.453C438.361 413.975 447.553 409.51 454.731 408.11C459.371 407.234 460.071 406.884 460.071 405.133V403.12H440.812C422.516 403.12 421.553 403.207 421.553 404.783C421.553 406.009 422.429 406.621 424.88 407.059C431.095 408.197 431.971 410.823 427.506 415.113C425.055 417.389 407.634 430.345 404.307 432.359C403.432 432.884 403.169 430.695 403.169 422.554C403.169 409.948 403.87 408.635 410.61 407.672C414.287 407.147 415.075 406.709 415.25 405.046L415.513 403.12H395.378H375.156V405.308Z" fill="black"/>
</svg>
