<svg width="512" height="512" viewBox="0 0 512 512" fill="none" xmlns="http://www.w3.org/2000/svg">
<mask id="mask0_1561_9854" style="mask-type:luminance" maskUnits="userSpaceOnUse" x="50" y="214" width="412" height="84">
<path d="M50 214H462V297.192H50V214Z" fill="white"/>
</mask>
<g mask="url(#mask0_1561_9854)">
<path d="M142.938 215.494C136.52 215.375 108.67 215.295 92.4281 215.295H50V230.547C84.1485 230.547 124.675 230.468 142.423 230.745C145.592 230.785 148.722 231.102 151.217 233.32C153.555 235.38 154.347 238.629 153.317 241.442C151.653 245.997 147.018 247.107 142.423 247.186C135.371 247.305 116.078 247.344 101.658 247.344C66.2819 247.384 81.6131 247.344 50 247.344V262.557C84.1485 262.557 124.754 262.477 142.423 262.755C147.929 262.834 153.753 264.735 153.753 270.915C153.753 277.095 147.929 279.076 142.423 279.155C124.794 279.433 84.1485 279.353 50 279.353V294.605C84.2673 294.605 129.112 294.724 142.938 294.407C150.227 294.249 161.042 292.387 167.301 282.879C173.204 273.966 171.778 262.359 164.013 254.95C171.778 247.503 173.204 235.895 167.301 227.022C161.002 217.514 150.227 215.692 142.938 215.494ZM415.175 215.723C406.142 215.525 392.475 215.406 380.432 215.367C351.037 215.248 368.706 215.288 340.698 215.288V230.579C370.528 230.579 391.405 230.341 414.422 230.975C421.196 231.173 428.446 231.886 434.982 236.403C441.162 240.681 444.847 247.534 444.847 254.903C444.847 262.271 441.281 269.125 435.101 273.443C428.565 277.959 421.315 278.672 414.541 278.87C391.524 279.504 370.607 279.266 340.817 279.266L340.698 294.558C370.687 294.558 392.237 294.677 415.175 294.122C424.365 293.924 435.656 292.854 446.114 285.367C456.018 278.276 462 267.144 462 254.863C462 242.583 456.018 231.451 446.114 224.359V224.478C435.695 216.991 424.365 215.921 415.175 215.723ZM206.917 238.827C206.877 231.459 206.917 222.743 206.917 215.295H189.288C189.288 222.822 189.129 238.114 189.446 245.522C190.04 259.863 194.715 264.339 209.373 264.854C219.554 265.211 227.596 265.092 241.659 265.052V249.682C230.408 249.682 225.813 249.682 217.494 249.563C209.492 249.404 206.956 246.79 206.917 238.827ZM272.123 249.682C280.363 249.682 290.426 249.642 294.229 249.563C302.231 249.404 304.767 246.869 304.806 239.104H304.925V215.295H322.514V238.431C322.475 241.125 322.435 243.581 322.356 245.522C321.762 259.982 317.047 264.379 301.478 264.854C296.408 265.052 282.938 265.052 272.163 265.052H270.063V294.605H249.345V249.682H272.123Z" fill="#D70C19"/>
</g>
</svg>
