<svg width="512" height="512" viewBox="0 0 512 512" fill="none" xmlns="http://www.w3.org/2000/svg">
<path d="M255.631 343.865C221.117 338.471 151.741 324.514 121.261 317.297C97.6671 311.692 94.9038 304.001 92.0501 290.893L91.94 290.385C91.0646 286.372 83.6652 246.535 80.5923 229.78L50 186.648H462.505L431.912 229.78C429 245.663 421.442 286.337 420.566 290.38L420.455 290.893C417.602 304.001 414.838 311.692 391.246 317.296C360.852 324.494 291.472 338.445 256.828 343.865L256.229 343.958L255.631 343.865Z" fill="black"/>
<path d="M455.026 190.511L428.261 228.244C425.326 244.269 417.656 285.546 416.786 289.564C414.267 301.117 413.059 308.143 390.352 313.539C360.119 320.697 290.967 334.615 256.23 340.049C221.505 334.621 152.387 320.697 122.154 313.539C99.4462 308.143 98.2395 301.117 95.7197 289.564C94.8494 285.572 87.1785 244.269 84.2437 228.244L57.4805 190.511H455.026Z" fill="white"/>
<path d="M433.92 197.604H78.6113L99.7165 227.698C104.992 258.996 108.257 279.118 109.609 286.133C111.957 298.337 112.372 303.6 124.997 306.998C150.098 312.926 222.844 327.864 256.276 332.902C289.707 327.864 362.46 312.946 387.575 306.998C400.198 303.6 400.614 298.337 402.961 286.133C404.281 279.118 407.578 258.996 412.855 227.698L433.92 197.604Z" fill="black"/>
<path d="M433.92 197.604H78.6113L99.7165 227.698C104.992 258.996 108.257 279.118 109.609 286.133C111.957 298.337 112.372 303.6 124.997 306.998C150.098 312.926 222.844 327.864 256.276 332.902C289.707 327.864 362.46 312.946 387.575 306.998C400.198 303.6 400.614 298.337 402.961 286.133C404.281 279.118 407.578 258.996 412.855 227.698L433.92 197.604Z" fill="black"/>
<path d="M144.34 258.364H110.216L107.578 242.748H254.098V258.364H250.142V246.41H143.1L144.34 258.364Z" fill="white"/>
<path d="M106.984 239.185H254.06V227.738H105.078L106.984 239.185Z" fill="white"/>
<path d="M198.975 277.59H254.078V269.39H198.995L198.975 277.59Z" fill="white"/>
<path d="M103.641 224.095H138.497L131.902 212.641H250.149V224.048H254.106V208.683H92.8438L103.641 224.095Z" fill="white"/>
<path d="M314.031 208.683H258.439V231.689H314.057L314.031 208.683Z" fill="white"/>
<path d="M118.15 297.395C119.053 298.764 120.728 300.359 126.289 301.867C128.979 302.526 131.974 303.185 136.116 304.106H195.123V295.986H117.385C117.59 296.478 117.843 296.95 118.137 297.395H118.15Z" fill="white"/>
<path d="M114.78 284.986H195.124V262.046H110.83L114.78 284.986Z" fill="white"/>
<path d="M198.975 317.167C219.552 321.211 239.668 324.945 254.111 327.205V288.708H198.975V317.167Z" fill="white"/>
<path d="M317.844 258.364H402.316L406.175 235.351H317.844V258.364Z" fill="white"/>
<path d="M317.844 216.001V224.168L408.7 224.135L414.398 216.001H317.844Z" fill="white"/>
<path d="M258.439 277.59H262.396V266.004H367.512C367.374 267.13 366.391 274.896 365.884 277.622H399.078L401.716 262.045H258.439V277.59Z" fill="white"/>
<path d="M258.439 292.594H396.282L398.51 281.193H258.439V292.594Z" fill="white"/>
<path d="M314.058 242.755H258.439V250.968H314.058V242.755Z" fill="white"/>
<path d="M289.602 317.714C284.108 318.762 268.701 321.442 262.397 322.582V299.931H359.803C355.139 305.41 345.544 307.038 289.602 317.714ZM258.439 295.986V327.192C293.481 321.469 361.524 307.993 386.283 301.842C391.876 300.451 393.531 298.765 394.435 297.395C394.732 296.954 394.981 296.482 395.174 295.986H258.439Z" fill="white"/>
</svg>
