<svg width="512" height="512" viewBox="0 0 512 512" fill="none" xmlns="http://www.w3.org/2000/svg">
<path d="M23.0869 402.358C18.5203 400.521 15.0312 397.975 12.6188 394.718C10.2054 391.462 9 387.74 9 383.556C9 379.371 10.2054 375.65 12.6188 372.393C15.0312 369.136 18.5203 366.59 23.0869 364.754C27.6528 362.918 33.0464 362 39.2674 362C49.8746 362 58.8069 364.567 66.0653 369.698V371.12L63.1941 374.614C56.3351 369.601 48.3596 367.093 39.2674 367.093C34.3222 367.093 30.035 367.744 26.4068 369.047C22.7776 370.35 19.9858 372.245 18.0323 374.732C16.078 377.219 15.1012 380.161 15.1012 383.556C15.1012 386.952 16.078 389.892 18.0323 392.38C19.9858 394.866 22.7776 396.762 26.4068 398.064C30.035 399.367 34.3222 400.019 39.2674 400.019C43.8135 400.019 47.9904 399.388 51.7992 398.123C55.6068 396.861 59.3855 394.946 63.1347 392.38L66.0653 395.873V397.294C62.4764 399.821 58.5181 401.756 54.1918 403.098C49.8645 404.439 44.8903 405.111 39.2674 405.111C33.0464 405.111 27.6528 404.193 23.0869 402.358Z" fill="white"/>
<path d="M108.117 367.804L94.6584 388.649H123.012L109.553 367.804H108.117ZM105.007 362.829H112.664L139.342 402.861V404.282H133.121L126.301 393.742H91.3685L84.5493 404.282H78.3281V402.861L105.007 362.829Z" fill="white"/>
<path d="M176.369 399.189C185.021 399.189 191.413 397.946 195.54 395.459C199.667 392.972 201.731 389.004 201.731 383.556C201.731 378.108 199.667 374.14 195.54 371.653C191.413 369.166 185.021 367.922 176.369 367.922H160.218V399.189H176.369ZM154.236 404.282V362.829H177.565C187.574 362.829 195.121 364.567 200.206 368.04C205.29 371.515 207.832 376.686 207.832 383.556C207.832 390.425 205.29 395.598 200.206 399.071C195.121 402.546 187.574 404.282 177.565 404.282H154.236Z" fill="white"/>
<path d="M230.861 404.282H224.879V362.829H230.861V404.282Z" fill="white"/>
<path d="M256.282 362.829V399.189H297.795L295.762 404.282H250.301V362.829H256.282Z" fill="white"/>
<path d="M321.542 362.829V399.189H363.055L361.021 404.282H315.561V362.829H321.542Z" fill="white"/>
<path d="M406.062 367.804L392.603 388.649H420.957L407.498 367.804H406.062ZM402.952 362.829H410.609L437.287 402.861V404.282H431.066L424.247 393.742H389.313L382.494 404.282H376.273V402.861L402.952 362.829Z" fill="white"/>
<path d="M460.289 402.358C455.721 400.521 452.233 397.975 449.82 394.718C447.407 391.462 446.201 387.74 446.201 383.556C446.201 379.371 447.407 375.65 449.82 372.393C452.233 369.136 455.721 366.59 460.289 364.754C464.854 362.918 470.247 362 476.469 362C487.076 362 496.008 364.567 503.267 369.698V371.12L500.395 374.614C493.536 369.601 485.561 367.093 476.469 367.093C471.523 367.093 467.236 367.744 463.608 369.047C459.979 370.35 457.187 372.245 455.234 374.732C453.279 377.219 452.302 380.161 452.302 383.556C452.302 386.952 453.279 389.892 455.234 392.38C457.187 394.866 459.979 396.762 463.608 398.064C467.236 399.367 471.523 400.019 476.469 400.019C481.015 400.019 485.192 399.388 489 398.123C492.808 396.861 496.587 394.946 500.336 392.38L503.267 395.873V397.294C499.678 399.821 495.72 401.756 491.393 403.098C487.066 404.439 482.091 405.111 476.469 405.111C470.247 405.111 464.854 404.193 460.289 402.358Z" fill="white"/>
<path d="M255.631 318.216C221.117 312.822 151.741 298.865 121.261 291.648C97.6671 286.044 94.9038 278.353 92.0501 265.244L91.94 264.737C91.0646 260.723 83.6652 220.886 80.5923 204.131L50 161H462.505L431.912 204.131C429 220.014 421.442 260.689 420.566 264.732L420.455 265.244C417.602 278.353 414.838 286.044 391.246 291.648C360.852 298.845 291.472 312.797 256.828 318.216L256.229 318.31L255.631 318.216Z" fill="black"/>
<path d="M455.026 164.862L428.261 202.596C425.326 218.62 417.656 259.898 416.786 263.915C414.267 275.468 413.059 282.495 390.352 287.891C360.119 295.049 290.967 308.966 256.23 314.4C221.505 308.973 152.387 295.049 122.154 287.891C99.4462 282.495 98.2395 275.468 95.7197 263.915C94.8494 259.924 87.1785 218.62 84.2437 202.596L57.4805 164.862H455.026Z" fill="white"/>
<path d="M433.92 171.956H78.6113L99.7165 202.05C104.992 233.348 108.257 253.469 109.609 260.484C111.957 272.689 112.372 277.951 124.997 281.35C150.098 287.277 222.844 302.215 256.276 307.254C289.707 302.215 362.46 287.298 387.575 281.35C400.198 277.951 400.614 272.689 402.961 260.484C404.281 253.469 407.578 233.348 412.855 202.05L433.92 171.956Z" fill="black"/>
<path d="M433.92 171.956H78.6113L99.7165 202.05C104.992 233.348 108.257 253.469 109.609 260.484C111.957 272.689 112.372 277.951 124.997 281.35C150.098 287.277 222.844 302.215 256.276 307.254C289.707 302.215 362.46 287.298 387.575 281.35C400.198 277.951 400.614 272.689 402.961 260.484C404.281 253.469 407.578 233.348 412.855 202.05L433.92 171.956Z" fill="black"/>
<path d="M144.34 232.716H110.216L107.578 217.1H254.098V232.716H250.142V220.761H143.1L144.34 232.716Z" fill="white"/>
<path d="M106.984 213.536H254.06V202.089H105.078L106.984 213.536Z" fill="white"/>
<path d="M198.975 251.941H254.078V243.742H198.995L198.975 251.941Z" fill="white"/>
<path d="M103.641 198.446H138.497L131.902 186.993H250.149V198.4H254.106V183.034H92.8438L103.641 198.446Z" fill="white"/>
<path d="M314.031 183.035H258.439V206.041H314.057L314.031 183.035Z" fill="white"/>
<path d="M118.15 271.746C119.053 273.116 120.728 274.711 126.289 276.219C128.979 276.878 131.974 277.536 136.116 278.458H195.123V270.337H117.385C117.59 270.829 117.843 271.301 118.137 271.746H118.15Z" fill="white"/>
<path d="M114.78 259.338H195.124V236.397H110.83L114.78 259.338Z" fill="white"/>
<path d="M198.975 291.519C219.552 295.562 239.668 299.297 254.111 301.557V263.059H198.975V291.519Z" fill="white"/>
<path d="M317.844 232.716H402.316L406.175 209.703H317.844V232.716Z" fill="white"/>
<path d="M317.844 190.352V198.52L408.7 198.486L414.398 190.352H317.844Z" fill="white"/>
<path d="M258.439 251.941H262.396V240.355H367.512C367.374 241.482 366.391 249.248 365.884 251.974H399.078L401.716 236.397H258.439V251.941Z" fill="white"/>
<path d="M258.439 266.945H396.282L398.51 255.544H258.439V266.945Z" fill="white"/>
<path d="M314.058 217.106H258.439V225.319H314.058V217.106Z" fill="white"/>
<path d="M289.602 292.066C284.108 293.113 268.701 295.794 262.397 296.933V274.282H359.803C355.139 279.762 345.544 281.39 289.602 292.066ZM258.439 270.338V301.544C293.481 295.82 361.524 282.345 386.283 276.193C391.876 274.803 393.531 273.117 394.435 271.747C394.732 271.306 394.981 270.834 395.174 270.338H258.439Z" fill="white"/>
</svg>
