<svg width="512" height="512" viewBox="0 0 512 512" fill="none" xmlns="http://www.w3.org/2000/svg">
<path d="M207.148 248.779H222.474V245.033H203.973C200.15 245.033 198.068 246.359 198.068 251C198.068 251 198 253.719 198 256.271C198 258.824 198.034 261.575 198.034 261.575C198.034 266.183 200.116 267.51 203.973 267.51C204.724 267.51 223.02 267.51 223.02 267.51V263.697H207.148C206.055 263.697 205.782 263.432 205.782 262.371C205.782 262.371 205.782 250.404 205.782 250.105C205.782 249.044 206.021 248.812 207.148 248.779Z" fill="#141414"/>
<path d="M245.889 267.51H253.671V245.033H245.855V253.851H233.499V245.033H225.682V267.51H233.499V257.465H245.889V267.51Z" fill="#141414"/>
<path d="M308.114 245.033L300.571 263.399C300.434 263.73 300.264 263.764 299.752 263.764C299.24 263.764 299.069 263.73 298.932 263.399L291.457 245.033H263.434C259.611 245.033 257.529 246.359 257.529 251C257.529 251 257.495 253.719 257.495 256.271C257.495 258.824 257.529 261.575 257.529 261.575C257.529 266.183 259.611 267.51 263.434 267.51C264.185 267.51 283.095 267.51 283.095 267.51V263.697H266.608C265.516 263.697 265.243 263.432 265.243 262.371C265.243 262.371 265.243 260.117 265.243 257.498H281.627V253.785H265.243C265.243 251.763 265.243 250.205 265.243 250.105C265.243 249.078 265.516 248.812 266.608 248.812C266.608 248.812 280.057 248.812 284.187 248.812C286.61 254.448 290.911 264.194 291.286 265.023C291.833 266.183 292.754 267.542 294.802 267.542H302.073C304.086 267.542 304.803 266.217 305.315 265.056C305.861 263.896 314.019 245.066 314.019 245.066L308.114 245.033Z" fill="#141414"/>
<path d="M354.774 248.746C355.935 248.746 357.847 248.746 359.724 248.746C361.635 248.746 363.581 248.746 364.707 248.746C365.8 248.746 366.039 249.012 366.039 250.039C366.039 250.337 366.039 262.404 366.039 262.404C366.039 263.465 365.8 263.73 364.707 263.73H354.74C353.648 263.73 353.409 263.465 353.409 262.404C353.409 262.404 353.409 250.337 353.409 250.039C353.409 249.012 353.682 248.779 354.774 248.746ZM373.787 251C373.787 246.326 371.705 245.033 367.882 245.033C367.882 245.033 363.274 245 359.758 245C356.174 245 351.6 245.033 351.6 245.033C347.777 245.033 345.695 246.359 345.695 251C345.695 251 345.627 253.719 345.627 256.271C345.627 258.824 345.661 261.609 345.661 261.609C345.695 266.217 347.777 267.542 351.6 267.542C351.6 267.542 356.277 267.542 359.724 267.542C363.137 267.542 367.848 267.542 367.848 267.542C371.671 267.542 373.787 266.217 373.787 261.609C373.787 261.609 373.821 258.824 373.821 256.271C373.821 253.686 373.787 251 373.787 251Z" fill="#141414"/>
<path d="M377.712 267.51H401.742V263.697H385.494V245.033H377.712V267.51Z" fill="#141414"/>
<path d="M408.432 245.033C404.609 245.033 402.527 246.359 402.527 251C402.527 251 402.493 253.686 402.493 256.271C402.493 258.824 402.527 261.575 402.527 261.575C402.527 266.183 404.609 267.51 408.432 267.51C409.183 267.51 428.093 267.51 428.093 267.51V263.73H411.606C410.514 263.73 410.241 263.465 410.241 262.404C410.241 262.404 410.241 260.15 410.241 257.498H426.557V253.752H410.241C410.241 251.763 410.241 250.172 410.241 250.072C410.241 249.044 410.514 248.779 411.606 248.779L437.309 248.746V267.476H445.091V248.779H454V245.033H408.432Z" fill="#141414"/>
<path d="M333.714 257.896C333.475 257.73 333.611 257.63 333.851 257.63C333.919 257.63 337.332 257.63 337.332 257.63C339.926 257.63 342.35 256.835 342.52 253.42C342.691 252.492 342.554 250.238 342.554 250.238C342.554 246.525 340.575 245.166 337.639 245.166H314.838V267.542H322.518V248.812H333.885C334.601 248.812 334.772 249.011 334.806 249.409C334.84 249.873 334.875 250.834 334.875 251.663C334.875 252.625 334.875 253.354 334.84 253.719C334.806 254.083 334.396 254.315 333.885 254.315H324.703V257.73L336.035 267.542H346.719C346.719 267.542 333.816 257.962 333.714 257.896Z" fill="#141414"/>
<path d="M56.0725 262.844L62.6877 250.125H90.4421V241.289H121.489V250.163H155.943L149.328 262.882H121.489V271.748H90.4421V262.844H56.0725ZM126.734 236.149H85.167V245.022H53.967L42 268.007H85.167V276.851H126.734V268.007H158.033L170 245.045H126.749L126.734 236.149Z" fill="#141414"/>
</svg>
