<svg width="512" height="512" viewBox="0 0 512 512" fill="none" xmlns="http://www.w3.org/2000/svg">
<path d="M358.902 72.0254C365.26 72.0254 370.401 77.1152 370.401 83.41V428.263C370.401 434.552 365.26 439.647 358.902 439.647H152.982C146.631 439.647 141.488 434.553 141.488 428.263V83.41C141.488 77.1152 146.631 72.0254 152.982 72.0254H358.902Z" fill="white"/>
<path d="M145.957 123.146H366.081V427.573C366.081 430.105 365.649 431.67 363.943 433.368C362.091 435.21 360.466 435.376 357.534 435.376L152.529 435.396C150.914 435.396 149.675 434.881 148.338 433.749C146.682 432.329 145.957 430.558 145.957 428.685V123.146Z" fill="#FFF200"/>
<path d="M366.081 107.831H145.957V123.471H366.081V107.831Z" fill="#ED1C24"/>
<path d="M366.081 92.1592H145.957V107.8H366.081V92.1592Z" fill="white"/>
<path d="M152.18 76.251H359.715C363.038 76.251 366.103 79.4573 366.103 82.5866V92.5708H145.957L145.977 83.7903V83.0596C145.977 79.5195 148.703 76.6009 152.18 76.251Z" fill="#009A4E"/>
<path d="M358.902 72.0254C365.26 72.0254 370.401 77.1152 370.401 83.41V428.263C370.401 434.552 365.26 439.647 358.902 439.647H152.982C146.631 439.647 141.488 434.553 141.488 428.263V83.41C141.488 77.1152 146.631 72.0254 152.982 72.0254H358.902ZM358.902 76.5699H152.982C149.166 76.5699 146.081 79.637 146.081 83.41V428.263C146.081 432.04 149.167 435.087 152.982 435.087H358.902C362.72 435.087 365.804 432.04 365.804 428.263V83.41C365.804 79.6376 362.72 76.5699 358.902 76.5699Z" fill="black"/>
<path d="M251.896 142.467C251.896 142.467 251.757 143.795 251.454 144.572C251.156 145.292 250.379 145.777 250.43 146.26C250.482 146.733 250.986 147.305 251.767 147.7C252.534 148.102 252.842 148.411 253.629 148.612C254.359 148.792 255.285 149.327 255.547 148.715C255.81 148.092 255.414 147.335 254.971 146.61C254.2 145.344 253.809 145.035 252.673 143.295C252.431 142.92 252.241 142.518 251.896 142.467Z" fill="black"/>
<path d="M246.13 279.238C246.207 279.011 248.027 280.165 248.973 280.721C250.964 281.915 251.858 282.625 253.617 283.942C255.011 285.003 255.685 285.548 257.084 286.752C258.801 288.234 259.727 289.5 260.19 289.212C260.859 288.41 259.095 286.062 257.536 284.787C256.02 283.531 254.451 282.512 253.242 281.719C251.684 280.679 251.545 280.443 249.215 278.878C246.711 277.2 244.551 275.091 244.551 275.091L242.118 273.176L238.308 269.959L234.07 266.053L230.871 262.486C230.871 262.486 228.382 259.44 227.986 258.852C227.585 258.271 226.413 256.387 225.446 254.792C224.582 253.361 222.906 251.139 222.751 250.948C221.846 249.851 219.779 250.294 217.376 248.879C214.461 247.155 213.756 245.58 213.756 245.58C213.756 245.58 213.648 245.349 213.535 245.225C213.426 245.096 213.206 244.937 213.206 244.937L211.678 243.872L210.803 243.295C210.803 243.295 210.14 242.744 209.307 242.389C208.469 242.018 206.602 240.932 206.602 240.932L203.264 238.802C203.264 238.802 201.958 237.752 201.526 237.402C201.084 237.068 200.261 236.589 200.261 236.589C200.261 236.589 199.736 236.326 199.577 236.316C199.418 236.305 198.724 236.244 198.724 236.244C198.724 236.244 198.08 236.074 197.427 236.841C196.774 237.614 196.934 237.201 197.998 241.545C198.419 243.253 198.379 249.28 198.831 251.117C199.407 253.474 201.063 256.521 201.233 256.881C201.398 257.237 201.516 258.554 201.516 258.554C201.516 258.554 201.444 259.62 201.557 260.294C202.061 263.408 206.612 261.359 207.616 265.631C208.604 269.846 207.024 274.051 207.024 274.051C207.024 274.051 206.047 276.141 204.664 276.47C203.286 276.789 201.146 273.732 199.598 271.257C198.071 268.822 196.821 265.631 196.42 264.617C196.019 263.603 195.808 263.382 195.345 262.646C194.661 261.55 194.111 261.751 193.345 260.021C192.573 258.292 193.257 257.597 192.913 256.09C192.712 255.256 192.532 255.163 192.27 253.969C192.018 252.78 191.679 248.997 191.679 248.997L191.195 245.477C191.195 245.477 191.025 243.872 190.805 242.863C190.038 239.342 189.771 235.935 189.771 235.935L189.627 234.536L189.576 233.09C189.576 233.09 189.53 232.395 189.699 231.679C189.869 230.965 190.214 230.373 190.214 230.373C190.214 230.373 190.924 229.184 191.047 228.885C191.166 228.602 192.616 226.914 192.616 226.914C192.616 226.914 193.377 226.281 194.616 225.524C195.861 224.768 196.977 224.819 196.977 224.819C196.977 224.819 197.306 224.788 199.508 225.061C201.709 225.334 206.235 226.538 207.377 226.832C208.503 227.136 209.851 227.609 210.724 228.098C213.239 229.467 214.001 228.886 212 227.316C210.652 226.261 210.272 225.787 209.187 224.8C208.271 223.955 207.551 223.394 206.867 222.617C206.183 221.824 204.234 218.948 204.234 218.948L203.015 217.147C203.015 217.147 202.362 216.406 202.254 216.354C202.152 216.292 201.822 216.04 201.822 216.04C201.822 216.04 201.015 216.081 200.181 215.922C199.338 215.752 198.947 216.936 198.947 216.936C198.947 216.936 197.136 220.317 195.296 222.386C192.313 225.747 190.174 228.032 189.078 229.823C187.541 232.304 187.88 235.021 187.088 236.277C186.625 237.013 186.373 237.121 186.121 237.764C185.35 239.715 188.152 240.785 187.51 242.946C186.486 246.375 178.464 249.766 177.398 249.199C176.293 248.618 177.198 243.981 177.568 242.483C177.949 240.976 179.075 238.752 179.178 238.639C179.276 238.531 179.549 238.006 179.63 237.563C179.718 237.121 179.749 236.117 179.8 235.561C179.852 235 180.083 234.116 180.083 234.116C180.083 234.116 180.114 233.925 180.823 232.387C181.538 230.838 184.151 227.235 186.023 223.797C187.257 221.553 187.771 220.194 189.005 217.945C190.142 215.881 192.091 212.731 192.091 212.731C192.091 212.731 192.913 211.126 193.299 210.529C193.69 209.916 194.513 208.758 195.284 207.615C196.061 206.478 196.251 205.624 197.264 204.687C198.102 203.905 198.673 203.488 199.769 203.138C201.399 202.597 202.515 202.886 204.181 203.349C205.909 203.822 207.097 204.615 208.229 205.552C209.355 206.499 210.194 207.544 210.194 207.544L210.744 208.357L211.083 208.558L212.132 209.232L214.534 210.822C214.534 210.822 220.233 214.702 220.552 214.913C220.855 215.114 221.878 215.953 222.079 216.02C222.29 216.081 223.807 214.434 226.785 212.381C230.23 209.988 231.449 210.168 232.592 209.546C233.718 208.923 234.18 208.408 235.066 207.523C236.403 206.185 236.413 205.47 237.93 203.602C239.458 201.739 240.887 200.694 240.887 200.694C240.887 200.694 241.098 200.483 243.819 197.405C246.534 194.338 247.738 192.016 247.738 192.016L249.229 189.026C249.229 189.026 251.389 184.379 252.084 182.541C252.783 180.699 252.783 180.086 252.783 180.086C252.783 180.086 252.885 179.603 252.361 178.666C251.821 177.734 251.265 178.156 250.232 178.368C248.252 178.79 247.048 178.275 245.048 177.925C243.217 177.621 242.26 177.071 240.424 176.767C238.563 176.453 237.478 176.145 235.611 176.325C235.328 176.356 234.757 176.474 234.484 176.566C233.43 176.916 233.137 176.999 232.355 177.452C231.45 177.874 230.853 178.008 229.851 178.033C229.156 178.054 228.735 178.074 228.092 177.822C227.649 177.652 227.397 177.524 227.048 177.21C226.837 177.019 226.724 176.896 226.564 176.649C226.544 176.453 226.482 176.463 226.673 176.145C226.858 175.82 227.089 175.763 227.089 175.763L227.943 175.553C227.943 175.553 229.146 175.239 229.259 175.207C229.368 175.177 230.514 174.806 231.018 174.647C231.527 174.487 232.083 174.194 232.083 174.194C232.083 174.194 232.391 173.7 232.273 173.417C232.124 173.097 231.44 173.067 231.44 173.067C231.44 173.067 230.483 173.417 230.375 173.448C230.272 173.468 228.745 173.952 228.745 173.952C228.745 173.952 227.547 174.214 226.616 174.435C225.68 174.646 224.343 174.754 224.343 174.754L223.941 174.646C223.941 174.646 223.489 174.342 223.417 174.024C223.35 173.741 223.309 173.529 223.257 173.205C223.057 172.021 222.815 171.306 223.098 170.138C223.207 169.649 223.32 169.376 223.53 168.924C223.71 168.548 223.828 168.332 224.06 167.977L224.796 166.772L226.185 164.719C226.663 164.235 226.977 163.993 227.578 163.654C228.462 163.16 228.977 163.021 230.083 162.897C231.168 162.778 231.317 162.789 232.855 162.444C234.402 162.094 235.498 161.482 235.498 161.482C235.498 161.482 239.196 160.123 241.448 159.016C243.808 157.859 244.837 156.623 247.28 155.666C248.314 155.264 248.916 155.074 249.98 154.801C250.114 154.714 250.181 154.632 250.222 154.472C250.325 154.086 249.729 153.906 249.317 153.946C248.947 153.977 248.103 154.369 247.913 153.946C247.768 153.623 248.684 153.432 248.684 153.432C248.684 153.432 249.116 153.231 249.126 152.99C249.137 152.619 248.505 152.86 248.221 152.83C246.786 152.67 246.673 152.407 245.68 152.166C244.513 151.873 243.881 151.512 242.667 151.461C241.597 151.419 240.594 151.646 239.921 151.805C239.258 151.975 239.237 151.322 239.499 151.193C241.377 150.318 241.417 150.246 242.745 150.184C243.469 150.153 244.483 150.308 244.596 150.364C244.704 150.426 246.154 150.354 246.525 149.973C246.905 149.603 245.337 149.623 244.596 149.33C243.913 149.057 242.868 148.98 242.889 148.527C242.925 148.074 243.429 148.326 243.789 148.234C244.241 148.125 244.504 148.136 244.966 148.074C245.8 147.961 245.872 147.884 247.106 147.781C248.325 147.663 250.084 148.183 250.084 148.183C250.084 148.183 251.93 149.002 252.835 149.434C253.74 149.856 254.836 150.077 254.836 150.077C254.836 150.077 256.121 150.257 257.099 149.645C258.091 149.037 257.531 148.636 257.186 148.075C256.846 147.55 256.415 146.788 257.047 145.347C257.608 144.091 257.9 142.625 258.06 142.491C258.262 142.332 259.038 143.458 259.541 143.922C261.346 145.61 263.733 146.444 265.986 149.974C266.161 150.257 266.994 149.804 269.606 150.205C272.219 150.607 274.503 153.406 275.079 154.076C275.676 154.75 276.447 154.714 276.447 154.714L277.702 154.884L282.258 154.961C282.258 154.961 284.326 154.59 285.519 155.044C286.352 155.357 289.129 157.216 287.864 157.92C286.979 158.415 286.146 157.329 285.344 157.277C284.397 157.216 283.986 157.396 283.142 157.606C281.373 158.049 277.578 159.197 278.956 159.66C279.058 159.701 279.254 159.731 279.254 159.731L279.933 159.85C279.933 159.85 281.6 160.23 282.607 160.627C284.129 161.229 284.85 161.893 286.249 162.716C287.05 163.179 287.401 163.643 288.275 163.905C289.077 164.137 289.591 163.905 290.414 164.044C291.494 164.235 292.1 164.456 293.088 164.93C294.559 165.635 295.094 166.489 296.411 167.436C297.069 167.914 297.624 167.987 298.118 168.63C298.231 168.774 298.324 168.852 298.376 169.021C298.551 169.608 297.408 169.263 296.802 169.166C296.133 169.052 295.856 168.723 295.239 168.44C294.323 168.007 293.891 167.534 292.893 167.354C292.173 167.214 291.741 167.323 291.001 167.364C290.281 167.394 289.901 167.503 289.18 167.513C287.956 167.534 287.267 167.426 286.063 167.173C284.716 166.891 284.047 166.365 282.71 166.087C281.198 165.773 278.524 164.477 278.781 165.773C278.915 166.396 280.334 166.921 280.334 166.921C280.334 166.921 281.311 167.446 282.237 167.857C283.163 168.259 283.677 168.872 283.677 168.872L284.314 169.346C284.314 169.346 284.972 170.251 285.837 171.275C286.68 172.284 288.182 172.253 288.182 172.253C288.182 172.253 289.087 172.253 291.041 172.654C292.985 173.056 294.991 174.259 294.991 174.259C294.991 174.259 296.502 175.299 297.387 176.344C298.261 177.389 297.757 177.914 297.644 178.022C297.542 178.135 297.582 178.083 297.459 178.135C297.357 178.186 296.266 176.817 296.266 176.817L295.485 176.154C295.485 176.154 294.723 175.618 293.736 175.299C292.749 174.985 292.419 175.196 292.419 175.196C292.419 175.196 290.321 175.783 288.49 175.731C286.68 175.68 285.734 174.954 285.734 174.954L284.582 174.182C284.582 174.182 282.853 172.56 282.791 173.328C282.75 173.848 283.553 174.424 283.553 174.424C283.553 174.424 284.108 174.985 284.479 175.341C285.178 176.03 285.467 176.375 286.269 177.09C287.071 177.811 287.564 177.811 287.564 177.811C287.564 177.811 287.996 177.913 288.161 177.945C288.326 177.975 288.614 178.053 288.614 178.053C288.614 178.053 288.882 178.156 290.136 178.666C291.38 179.17 292.728 180.266 292.728 180.266C292.728 180.266 292.852 180.369 293.037 180.406C293.222 180.426 293.592 180.612 293.695 180.642C293.808 180.668 294.127 180.668 294.847 180.771C295.578 180.879 295.3 181.342 295.3 181.342L295.176 181.517L294.579 181.918C294.579 181.918 293.808 182.14 293.283 182.165C292.748 182.196 291.987 181.898 291.987 181.898L290.372 181.291C290.372 181.291 288.737 180.859 288.387 180.802C288.037 180.75 286.577 180.457 286.33 180.406C286.094 180.349 285.363 180.086 285.168 179.973C284.972 179.866 284.613 179.793 283.728 179.361C282.853 178.929 282.504 178.43 281.414 178.084C280.313 177.735 279.645 177.663 278.822 178.234C277.402 179.212 280.961 179.372 282.73 180.256C285.343 181.543 286.814 182.49 287.431 183.88C288.058 185.275 288.686 185.779 288.686 185.779C288.686 185.779 290.527 186.706 291.349 187.678C291.802 188.202 291.864 188.635 292.316 189.16C293.324 190.344 295.279 190.277 295.67 191.28C296.04 192.216 294.085 191.795 293.067 191.702C291.236 191.522 290.794 189.844 289.086 189.17C288.12 188.784 287.503 188.784 286.515 188.445C284.715 187.853 283.872 187.076 282.071 186.515C280.981 186.181 279.006 184.745 279.253 185.851C279.294 186.118 279.458 186.324 279.53 186.484C279.623 186.644 280.075 187.23 280.075 187.23C280.075 187.23 280.682 188.033 280.959 188.245C281.217 188.466 282.379 189.341 284.045 190.247C285.691 191.153 287.131 192.892 287.131 192.892C287.131 192.892 287.625 193.603 287.861 194.097C288.108 194.653 287.933 194.822 288.324 195.595C288.684 196.361 288.859 196.511 289.352 196.984C290.566 198.153 291.842 197.92 293.384 198.554C293.806 198.734 293.837 198.796 294.289 199.279C294.742 199.758 294.206 199.963 294.206 199.963C294.206 199.963 292.489 200.406 291.378 200.313C289.939 200.2 289.29 199.757 287.891 199.057C286.472 198.363 285.732 197.112 285.588 197.035C285.464 196.952 285.115 196.582 284.847 196.391C284.58 196.201 283.89 196.057 283.273 195.887C282.646 195.718 282.296 195.686 281.669 195.516C280.816 195.274 279.93 194.899 279.529 194.77C279.128 194.631 278.213 194.467 277.544 194.863C276.207 195.655 279.621 196.19 280.681 197.328C281.226 197.9 281.452 198.301 281.967 198.903C282.358 199.366 282.523 199.691 283.007 200.051C283.335 200.292 283.942 200.555 283.942 200.555C283.942 200.555 284.764 200.936 285.968 201.6C287.171 202.263 288.58 204.142 288.58 204.142L289.434 205.449L289.938 206.195L290.072 206.54L290.256 206.962C290.256 206.962 290.874 207.765 291.326 208.027C291.779 208.3 291.696 208.537 291.696 208.537C291.696 208.537 291.646 208.702 291.326 208.882C291.018 209.073 290.843 208.913 290.391 208.779C289.938 208.651 289.64 208.218 289.249 207.904C288.837 207.575 288.406 206.777 287.675 206.324C287.028 205.933 286.184 205.794 285.855 205.691C285.536 205.573 284.734 205.069 284.415 204.93C284.106 204.806 283.273 204.425 283.273 204.425C283.273 204.425 281.669 203.53 280.783 203.288C279.9 203.041 280.465 203.582 280.465 203.582C280.465 203.582 281.258 204.817 282.018 205.31C283.006 205.964 284.394 206.541 283.941 207.07C283.632 207.415 283.221 207.292 282.769 207.24C282.028 207.153 281.133 206.267 281.133 206.267C281.133 206.267 280.763 206.026 279.107 205.5C277.461 204.96 278.068 205.866 278.449 206.355C278.82 206.829 279.324 207.101 279.324 207.101L280.445 207.605L280.959 207.765C280.959 207.765 281.413 207.847 282.904 208.197C284.395 208.537 285.218 209.263 285.218 209.263C285.218 209.263 286.02 210.009 287.131 210.832C288.262 211.666 289.373 211.878 289.99 211.96C290.607 212.037 290.587 212.469 290.587 212.469C290.587 212.469 290.669 212.866 290.629 212.994C290.608 213.128 290.474 213.237 290.34 213.237C290.216 213.237 290.155 213.288 289.991 213.376C289.826 213.458 289.188 213.561 289.188 213.561C289.188 213.561 287.522 213.51 286.206 213.185C284.91 212.866 283.757 211.96 283.634 211.909C283.531 211.858 282.317 211.184 281.474 210.916C280.662 210.643 279.355 210.762 279.211 210.813C279.078 210.865 278.625 210.937 277.854 211.163C277.072 211.369 278.049 211.667 278.049 211.667L278.604 211.718L279.931 211.821C279.931 211.821 281.31 211.981 282.472 212.413C283.634 212.835 284.395 213.69 285.167 214.472C285.938 215.238 286.792 215.743 286.792 215.743L287.409 216.144L287.728 216.386L287.811 216.597C287.811 216.597 287.78 216.705 287.728 216.838C287.677 216.977 287.482 217.08 287.482 217.08C287.482 217.08 287.193 217.028 287.07 217.028C286.926 217.028 286.052 216.565 285.404 216.282C284.736 215.989 284.396 215.711 283.676 215.536C283.059 215.386 282.236 215.319 282.05 215.376C281.866 215.428 280.507 215.618 279.458 215.69C278.41 215.772 277.504 215.788 276.27 215.639C274.511 215.428 272.177 214.037 271.878 214.424C271.271 215.237 273.123 215.469 274.028 215.989C275.262 216.704 277.402 217.347 277.402 217.347C277.402 217.347 278.965 217.692 279.88 218.124C281.886 219.056 282.493 220.435 284.108 221.887C284.992 222.699 285.712 223.049 286.905 223.225C287.934 223.375 287.913 223.251 289.538 222.932C291.174 222.608 292.162 221.058 292.634 221.625C292.727 221.733 292.686 221.836 292.665 221.996C292.634 222.155 292.501 222.449 292.501 222.449C292.501 222.449 292.316 222.711 292.028 223.009C291.73 223.302 290.609 223.915 290.022 224.157C289.436 224.399 287.996 224.8 286.186 224.744C284.375 224.692 281.825 223.302 281.825 223.302L279.995 222.53C279.995 222.53 279.151 222.134 278.575 221.918C277.053 221.341 276.086 221.393 274.522 220.981C273.555 220.719 272.918 220.446 272.043 220.266C271.159 220.076 271.663 220.426 271.745 220.549C272.156 221.11 272.711 221.29 273.411 221.614C274.337 222.067 274.985 221.975 275.931 222.376C276.991 222.804 277.917 223.406 278.504 223.787C279.079 224.157 279.512 224.58 280.077 225.166L282.021 226.834C282.021 226.834 282.474 227.204 282.525 227.359C282.576 227.519 282.792 227.92 282.69 228.563C282.576 229.207 282.052 228.754 282.052 228.754L281.538 228.425L281.023 227.951L280.21 227.277C280.21 227.277 279.511 226.644 278.307 226.032C277.114 225.409 275.674 225.254 275.674 225.254C275.674 225.254 274.398 225.064 274.44 225.465C274.501 225.862 274.788 225.898 275.796 226.16C276.815 226.423 277.483 226.938 277.483 226.938C277.483 226.938 278.523 227.71 279.273 228.563C280.013 229.418 280.23 230.247 280.23 230.247C280.23 230.247 280.61 230.947 281.567 231.873C282.524 232.809 283.028 232.485 282.976 232.939C282.924 233.392 282.502 233.474 282.502 233.474C282.502 233.474 282.256 233.452 282.153 233.452C282.05 233.452 281.804 233.314 281.536 233.211C281.269 233.108 280.261 232.408 280.261 232.408C280.261 232.408 278.677 231.122 278.502 230.998C278.306 230.859 276.815 229.742 276.815 229.742C276.815 229.742 275.931 229.176 275.303 228.857C274.655 228.543 273.801 228.214 273.318 228.054C272.845 227.9 271.96 227.848 271.96 227.848C271.96 227.848 270.901 227.689 270.253 227.447C269.235 227.055 268.051 225.969 267.918 225.918C267.774 225.862 266.828 225.537 266.642 225.568C266.458 225.589 266.025 227.38 265.923 228.414C265.491 232.748 266.642 235.624 268.432 239.598C271.014 245.372 278.203 252.552 278.203 252.552C278.203 252.552 280.014 253.576 280.775 254.188C282.925 255.872 286.484 258.254 289.642 261.404C292.336 264.105 295.917 268.897 295.917 268.897C295.917 268.897 297.993 271.789 298.961 273.837C300.134 276.349 301.08 280.179 301.08 280.179C301.08 280.179 301.163 280.837 301.224 280.982C301.306 281.115 301.491 281.29 301.615 281.29L302.869 281.332C302.993 281.332 304.423 281.23 305.369 280.992C306.305 280.755 308.527 279.736 310.008 278.965C311.468 278.182 313.228 276.7 313.228 276.7C313.228 276.7 313.566 276.411 315.275 274.497C317.003 272.583 318.114 269.711 318.535 268.625C318.947 267.55 319.286 265.476 319.533 261.934C319.8 258.379 319.317 254.631 319.317 254.631C319.317 254.631 318.669 249.402 318.277 247.621C317.887 245.851 316.941 242.948 316.941 242.948C316.941 242.948 316.283 240.365 316.077 238.734C315.86 237.102 315.83 234.447 315.83 234.447C315.83 234.447 315.83 232.821 316.354 229.815C316.899 226.825 318.731 223.809 318.731 223.809C318.731 223.809 319.245 222.794 321.221 220.427C323.247 218.003 323.894 217.622 325.89 216.176C327.474 215.038 329.52 213.206 330.19 213.639C330.93 214.102 329.469 215.028 328.975 215.512C327.731 216.747 325.407 218.929 323.524 222.218C321.879 225.064 321.261 226.948 320.851 228.806C320.438 230.659 320.614 232.696 320.666 233.392C320.728 234.087 321.108 233.834 321.108 233.834C321.108 233.834 325.109 230.617 327.279 228.183C329.634 225.548 331.732 220.859 332.555 220.819C333.11 220.783 333.368 222.038 333.234 222.62C332.721 225.054 332.546 225.358 331.753 226.974C330.848 228.826 330.005 229.65 328.75 231.359C327.433 233.15 326.785 233.834 325.726 236.206C324.195 239.619 325.089 242.254 325.089 242.254C325.089 242.254 325.274 243.855 325.993 243.834C327.198 243.793 329.84 240.452 331.569 237.719C332.845 235.717 333.307 233.402 334.141 232.187C334.902 231.111 335.571 233.937 335.241 235.604C334.86 237.585 333.883 239.367 331.734 242.171C329.636 244.909 329.697 247.513 329.697 247.513C329.697 247.513 329.481 248.702 329.306 251.296C329.142 253.879 329.882 257.802 329.882 257.802C329.882 257.802 330.54 261.08 330.675 263.566C330.798 266.067 330.716 271.744 328.38 276.165C327.455 277.935 325.469 280.385 325.469 280.385C325.469 280.385 323.937 281.96 322.682 282.876C321.426 283.792 318.413 285.223 318.413 285.223C318.413 285.223 316.325 285.943 316.037 286.006C315.728 286.088 315.544 286.345 315.544 286.345C315.544 286.345 315.728 286.747 315.81 286.911C315.882 287.077 316.468 288.517 316.468 288.517C316.468 288.517 317.095 290.555 317.332 292.171C317.569 293.787 317.291 294.158 317.065 295.393C316.839 296.577 316.325 296.03 316.191 298.357C316.078 300.416 317.004 301.445 316.839 303.751C316.768 304.76 315.625 302.475 315.07 301.508C313.897 299.407 314.174 296.175 314.154 295.373C314.123 294.57 314.061 293.684 313.763 292.676C313.403 291.358 312.858 290.339 312.251 289.536C311.634 288.743 310.986 288.291 310.77 288.373C310.554 288.446 310.533 288.867 310.533 289.073C310.522 289.3 310.954 290.062 311.047 290.227C311.16 290.381 311.932 291.791 311.932 291.791C311.932 291.791 312.271 292.882 312.404 295.003C312.539 297.103 311.89 299.717 311.89 299.717C311.89 299.717 311.047 302.651 310.163 304.381C309.174 306.284 306.984 308.878 306.984 308.878C306.984 308.878 305.41 310.32 304.227 312.687C303.065 315.054 304.063 316.084 303.63 316.392C303.178 316.691 302.252 315.023 302.005 313.901C301.768 312.851 301.881 312.357 302.314 311.183C302.715 310.051 303.662 308.414 303.662 308.414L305.071 306.016C305.071 306.016 306.778 302.764 307.313 300.396C307.848 298.049 307.231 295.435 307.231 295.435C307.231 295.435 307.159 294.571 306.573 294.611C305.976 294.642 305.565 295.157 305.318 295.785C304.834 297.082 305.524 296.845 304.782 299.007C304.207 300.705 304.042 300.479 303.733 301.487C303.363 302.691 303.168 303.926 303.189 304.678C303.22 305.419 302.809 305.111 302.809 305.111C302.809 305.111 302.089 303.772 302.089 302.105C302.089 301.199 302.13 300.685 302.233 299.778C302.397 298.327 302.994 296.104 302.994 296.104C302.994 296.104 303.632 293.911 303.498 291.914C303.345 289.897 302.645 289.527 302.645 289.527C302.645 289.527 302.46 289.259 301.678 289.3C300.907 289.362 300.948 290.751 300.948 290.751C300.948 290.751 300.711 292.739 300.403 293.973C299.549 297.38 298.408 299.171 296.391 302.043C294.561 304.637 292.082 306.923 290.837 307.993C289.602 309.084 285.797 311.853 285.797 311.853L281.333 314.827C281.333 314.827 279.564 316.557 278.761 318.616C277.939 320.664 277.979 322.27 278.452 324.153C278.926 326.047 279.605 326.912 279.964 327.446C280.314 327.962 281.004 328.888 281.23 329.98C281.374 330.648 281.272 331.049 281.312 331.729C281.354 332.326 281.436 332.655 281.415 333.263C281.395 334.21 281.569 334.878 281.024 335.65C280.633 336.237 279.563 336.751 279.563 336.751C279.563 336.751 278.35 337.286 277.629 337.729C270.038 342.31 267.344 345.284 263.065 350.389C261.707 352.026 262.705 351.924 261.255 353.859C260.375 355.012 258.344 355.012 257.608 356.391C256.585 358.274 259.912 360.127 256.071 361.785C251.118 363.926 242.596 362.392 242.426 361.723C241.964 359.891 244.092 357.771 244.849 356.926C248.315 353.138 251.411 353.045 252.548 349.906C252.794 349.237 252.697 348.661 255.458 346.612C257.397 345.181 265.142 339.345 268.527 335.455C269.689 334.117 270.686 333.232 271.19 331.79C271.705 330.327 270.686 329.412 270.686 329.412L269.298 327.147L266.634 322.381C266.634 322.381 265.513 319.849 264.906 318.388C264.279 316.926 263.116 312.993 263.116 312.993C263.116 312.993 262.263 309.453 262.118 307.147C261.861 303.009 262.427 300.601 263.518 296.587C264.927 291.378 268.125 289.196 269.401 284.028C269.772 282.526 269.854 279.952 269.092 280.076C268.372 280.21 268.311 282.237 267.756 283.597C265.698 288.723 262.983 290.967 261.492 296.277C260.494 299.87 260.083 302.001 260.092 305.727C260.104 307.857 260.021 307.467 260.566 311.162C260.782 312.52 261.11 313.251 261.512 314.578C261.8 315.526 262.571 317.296 262.571 317.296C262.571 317.296 263.631 319.633 264.001 321.269C264.114 321.836 264.259 322.154 264.217 322.721C264.145 323.698 264.32 323.905 263.847 324.789C263.261 325.891 263.62 326.54 261.748 326.951C260.082 327.3 256.678 326.189 256.678 326.189C256.678 326.189 242.684 321.948 233.75 323.173C231.981 323.41 231.03 324.058 229.251 324.027C227.631 324.007 226.808 322.74 225.188 323.224C224.859 323.317 224.756 323.554 224.458 323.75C222.092 325.396 223.902 328.134 217.669 326.714C213.843 325.839 209.209 323.493 210.011 322.02C211.085 320.064 212.526 319.745 215.55 318.499C218.785 317.182 223.64 317.552 224.597 317.491C225.764 317.398 227.441 316.585 229.528 316.533C233.139 316.471 233.781 316.904 233.781 316.904L239.911 317.449L251.642 317.594C251.642 317.594 253.74 317.439 254.574 317.274C255.417 317.109 256.081 315.452 256.543 314.659C256.996 313.878 256.522 312.724 256.522 312.724L256.173 312.179L255.057 310.378L252.995 306.899L250.706 302.329C250.706 302.329 249.21 299.148 248.413 297.059C247.621 294.979 247.158 293.806 246.633 291.655C246.083 289.441 245.743 287.651 245.672 285.87C245.585 283.314 245.415 281.328 246.13 279.238Z" fill="black"/>
<path d="M322.285 274.997C324.752 271.827 324.99 268.883 325.133 264.735C325.246 261.719 324.106 257.072 324.106 257.072L323.951 256.732C323.951 256.732 323.519 256.171 323.253 256.912C323.293 257.566 323.376 258.091 323.376 258.091L323.519 264.077C323.519 264.077 323.334 267.092 322.307 270.201C320.578 275.45 315.991 277.787 315.323 279.681C314.179 282.82 319.333 278.816 322.285 274.997Z" fill="white"/>
<path d="M296.408 284.684C296.408 284.684 295.4 284.972 295.379 285.97C295.359 286.969 295.626 287.833 295.595 289.038C295.575 290.572 294.165 292.342 295.071 292.919C296.624 293.907 297.96 286.948 297.488 285.919C297.014 284.889 296.552 284.673 296.408 284.684Z" fill="white"/>
<path d="M278.983 332.927C278.983 332.927 278.694 332.773 278.129 332.989C277.574 333.205 277.614 333.782 277.614 333.782C277.614 333.782 277.501 334.4 277.954 334.462C278.407 334.544 279.147 333.432 279.147 333.309C279.147 333.185 278.983 332.927 278.983 332.927Z" fill="white"/>
<path d="M262.588 344.59C262.588 344.59 262.423 344.755 262.567 344.867C262.721 345.002 262.937 344.837 262.937 344.837C262.937 344.837 265.766 342.624 267.443 341.07C269.212 339.402 271.763 336.531 271.763 336.531C271.763 336.531 271.938 336.314 271.742 336.129C271.536 335.944 271.053 336.232 270.652 336.417C270.302 336.602 270.096 336.798 269.829 337.014C269.583 337.241 268.739 338.106 268.739 338.106L266.558 340.226L265.179 341.523L263.843 342.799L263.287 343.438C263.287 343.438 263.143 343.685 263.103 343.746C263.06 343.818 262.917 344.003 262.917 344.003C262.917 344.003 262.711 344.199 262.711 344.261C262.711 344.312 262.649 344.364 262.649 344.426C262.629 344.508 262.588 344.59 262.588 344.59Z" fill="white"/>
<path d="M257.697 347.802C257.697 347.802 257.394 347.555 256.916 347.791C256.432 348.049 255.918 348.707 255.876 348.779C255.83 348.872 255.568 349.222 255.748 349.531C255.928 349.84 256.54 349.386 256.632 349.366C256.72 349.366 257.517 348.729 257.517 348.729C257.517 348.729 257.98 348.44 257.697 347.802Z" fill="white"/>
<path d="M248.333 357.292C248.333 357.292 247.931 356.551 247.407 356.859C246.882 357.168 246.594 357.271 246.111 357.94C246.029 358.053 245.509 358.723 245.416 358.897C245.324 359.063 244.804 360.051 245.859 360.122C247.669 360.225 246.481 359.063 247.103 358.609C247.607 358.26 248.553 358.352 248.564 357.981C248.574 357.611 248.333 357.292 248.333 357.292Z" fill="white"/>
<path d="M216.239 319.371C216.239 319.371 215.154 319.639 215.072 320.01C214.984 320.401 215.704 320.771 215.817 320.792C215.946 320.812 216.188 321.101 216.912 320.606C217.627 320.123 217.596 319.711 217.596 319.711C217.596 319.711 218.018 319.217 216.239 319.371Z" fill="white"/>
<path d="M233.891 318.795C233.891 318.795 233.88 318.393 233.114 318.446C232.332 318.487 232.168 318.63 232.147 318.754C232.122 318.867 232.188 319.063 232.882 319.125C233.587 319.166 233.87 319.124 233.891 318.795Z" fill="white"/>
<path d="M250.578 319.279C249.174 319.268 249.617 319.31 248.753 319.351C247.185 319.433 246.331 319.371 244.783 319.268C242.612 319.124 239.254 318.589 239.254 318.589C239.254 318.589 238.832 318.486 238.663 318.764C238.508 319.021 239.074 319.618 239.578 319.773C242.329 320.627 242.478 320.484 244.35 320.514C245.395 320.524 245.976 320.421 247.015 320.359C248.331 320.257 248.943 320.462 250.378 320.081C250.753 319.988 251.113 319.289 250.578 319.279Z" fill="white"/>
<path d="M259.98 316.489C259.98 316.489 259.698 316.16 259.116 316.448C258.541 316.726 258.191 317.353 258.191 317.353C258.191 317.353 257.918 317.786 258.5 317.725C259.065 317.642 259.574 317.396 259.708 317.313C259.857 317.23 260.279 316.839 259.98 316.489Z" fill="white"/>
<path d="M251.797 203.568C251.797 203.568 255.767 199.847 258.611 194.927C260.297 191.993 261.033 185.164 259.583 186.862C258.929 187.639 258.137 191.18 256.882 193.804C255.093 197.54 251.272 202.832 251.272 202.832C251.272 202.832 250.45 204.592 251.797 203.568Z" fill="white"/>
<path d="M235.927 213.022C235.927 213.022 235.505 213.352 235.696 213.877C235.896 214.412 236.704 214.011 236.704 214.011C236.704 214.011 238.54 213.316 240.464 213.244C242.392 213.162 245.066 213.738 245.066 213.738C245.066 213.738 246.341 214.088 246.553 214.17C246.763 214.258 247.458 214.592 247.576 214.633C247.679 214.679 248.343 215.004 248.713 214.669C249.083 214.329 246.394 211.885 243.648 211.514C239.075 210.891 236.072 212.862 236.072 212.862L235.927 213.022Z" fill="white"/>
<path d="M217.095 229.136C217.418 229.414 218.946 226.501 220.221 224.658C221.157 223.31 222.866 221.056 222.866 221.056C222.866 221.056 223.636 220.021 222.331 220.598C221.801 220.835 220.351 221.941 219.327 223.974C218.463 225.703 216.755 228.863 217.095 229.136Z" fill="white"/>
<path d="M206.531 216.48C206.531 216.48 206.201 217.608 207.518 219.017C208.845 220.433 209.185 221.601 210.028 220.757C210.26 220.526 209.205 218.621 208.67 218.091C208.12 217.566 207.729 217.134 207.729 217.134L207.385 216.851L206.942 216.604L206.69 216.502C206.69 216.502 206.623 216.439 206.531 216.48Z" fill="white"/>
<path d="M202.251 205.672C202.251 205.672 200.822 205.94 200.472 206.635C200.117 207.33 202.117 206.908 202.117 206.908C202.117 206.908 203.444 206.979 203.475 206.475C203.506 205.961 203.306 205.909 202.251 205.672Z" fill="white"/>
<path d="M179.534 243.346C178.804 243.135 178.681 244.571 178.583 245.034C178.501 245.497 178.913 246.423 179.082 246.423C179.246 246.413 179.827 245.507 179.858 245.065C179.889 244.612 180.178 243.547 179.534 243.346Z" fill="white"/>
<path d="M203.127 271.405C203.127 271.405 201.821 270.37 201.62 270.782C201.425 271.194 202.695 273.01 202.695 273.01C202.695 273.01 203.086 273.608 203.687 273.339C204.278 273.052 204.068 272.393 204.068 272.393C204.068 272.393 203.667 271.549 203.127 271.405Z" fill="white"/>
<path d="M193.278 241.061C193.278 241.061 192.944 240.974 192.826 241.375C192.702 241.776 192.713 242.43 192.625 243.222C192.554 243.84 192.785 245.487 192.785 245.487C192.785 245.487 192.913 246.794 193.175 247.572C193.458 248.425 194.209 249.64 194.209 249.64C194.209 249.64 194.492 250.263 194.841 250.233C195.186 250.196 195.104 249.79 195.104 249.79C195.104 249.79 194.008 245.447 193.978 245.004C193.849 243.558 193.849 241.797 193.849 241.797L193.839 241.534C193.839 241.534 193.828 241.071 193.278 241.061Z" fill="white"/>
<path d="M194.985 227.809C194.985 227.809 194.383 227.696 193.828 228.853C193.268 230.027 193.386 230.5 193.437 230.552C193.478 230.603 193.92 230.593 194.63 229.508C195.335 228.432 195.175 228.019 195.175 228.019C195.175 228.019 195.134 227.809 194.985 227.809Z" fill="white"/>
<path d="M211.535 239.815C211.535 239.815 212.26 240.901 210.872 240.649C209.479 240.397 206.552 238.086 205.359 237.464C204.181 236.841 202.242 236.645 203.055 235.915C203.204 235.791 203.245 235.672 203.476 235.662C203.718 235.652 204.52 235.965 204.571 236.002C204.613 236.022 206.675 236.876 206.752 236.897C206.824 236.928 207.981 237.422 208.803 237.905C209.627 238.394 210.963 239.33 210.963 239.33L211.535 239.815Z" fill="white"/>
<path d="M250.111 273.053C250.491 274.246 245.719 270.53 243.163 268.559C236.39 263.34 228.099 252.641 229.133 251.694C229.987 250.916 233.386 255.816 238.37 261.214C243.698 266.969 249.89 272.342 250.111 273.053Z" fill="white"/>
<path d="M270.034 267.936C268.554 269.516 268.029 271.539 268.882 273.052C269.716 274.523 269.973 270.9 270.899 269.835C271.701 268.903 272.195 269.053 273.511 268.116C275.754 266.536 271.907 265.924 270.034 267.936Z" fill="white"/>
<path d="M261.558 234.164C260.54 234 260.571 235.549 260.714 236.645C261.394 241.555 263.595 245.338 266.536 248.899C268.326 251.071 273.233 254.941 273.798 254.319C274.004 254.097 269.128 250.325 266.022 245.477C263.821 242.04 262.648 239.132 262.37 236.296C262.34 235.935 262.422 234.304 261.558 234.164Z" fill="white"/>
<path d="M242.561 161.396C240.349 162.595 236.513 163.651 236.513 163.651C236.513 163.651 236.337 164.031 236.832 163.99C240.118 163.727 241.373 163.316 243.122 162.544C244.87 161.788 246.14 159.687 246.14 159.687C246.14 159.687 246.851 158.38 245.534 159.456C245.122 159.785 243.774 160.732 242.561 161.396Z" fill="white"/>
<path d="M269.242 152.961C269.242 152.961 268.491 152.796 267.987 153.111C267.483 153.43 267.626 153.682 267.626 153.682C267.626 153.682 268.409 154.279 268.964 154.377C269.519 154.459 270.712 154.979 270.672 154.578C270.62 154.166 269.952 153.43 269.714 153.23C269.499 153.018 269.242 152.961 269.242 152.961Z" fill="white"/>
<path d="M256.684 176.018C256.811 176.281 259.054 175.668 259.918 175.184C260.592 174.803 260.859 173.527 260.859 173.527C260.859 173.527 261.044 172.291 260.757 172.77C259.476 174.865 256.559 175.75 256.684 176.018Z" fill="white"/>
<path d="M256.612 170.259C257.517 168.519 254.127 172.065 252.4 172.981C251.345 173.537 249.628 174.278 249.628 174.278C249.628 174.278 249.175 174.844 249.807 174.792C250.44 174.751 252.05 175.297 253.356 174.288C253.665 174.041 255.023 172.065 255.023 172.065C255.023 172.065 256.179 171.082 256.612 170.259Z" fill="white"/>
<path d="M256.087 177.659C256.158 177.942 259.959 177.849 260.911 177.562C261.662 177.356 262.073 176.028 262.073 176.028C262.073 176.028 262.525 174.865 262.134 175.256C260.412 177.016 256.02 177.376 256.087 177.659Z" fill="white"/>
<path d="M195.046 212.497C195.046 212.497 194.47 212.286 193.755 213.362C193.045 214.432 189.847 219.296 190.412 220.011C191.086 220.855 193.858 215.667 194.702 214.7C195.555 213.717 195.206 212.729 195.206 212.729C195.206 212.729 195.196 212.507 195.046 212.497Z" fill="white"/>
<path d="M264.727 300.185C264.377 301.801 264.788 305.106 265.345 305.754C266.702 307.39 265.869 303.191 266.064 301.718C266.229 300.35 266.393 299.876 267.072 298.414C268.286 295.779 265.438 296.747 264.727 300.185Z" fill="white"/>
<path d="M253.052 159.647C253.052 159.647 251.998 159.678 251.175 160.131C250.342 160.584 250.136 161.227 250.136 161.227C250.136 161.227 249.967 161.69 250.08 161.943C250.322 162.493 251.464 161.659 252.261 161.932C252.903 162.163 253.212 162.354 253.705 162.945C254.137 163.461 254.893 164.201 255.367 163.779C255.855 163.368 255.676 162.313 255.676 162.313C255.676 162.313 255.115 160.594 254.38 160.11C253.639 159.616 253.052 159.647 253.052 159.647Z" fill="white"/>
<path d="M235.536 171.736C235.536 171.736 234.945 171.829 235.084 172.549C235.223 173.254 235.609 173.146 235.609 173.146C235.609 173.146 236.833 172.621 236.761 171.885C236.673 171.144 235.536 171.736 235.536 171.736Z" fill="white"/>
<path d="M226.983 167.897C226.983 167.897 226.34 167.923 225.887 168.72C225.446 169.513 225.183 170.336 225.183 170.336C225.183 170.336 224.972 171.376 225.342 171.705C225.718 172.029 226.129 171.031 226.668 170.64C226.992 170.408 227.193 170.305 227.528 170.069C227.986 169.754 228.731 170.156 228.68 169.23C228.613 168.297 227.626 167.855 226.983 167.897Z" fill="white"/>
<path d="M254.621 157.938C254.621 157.938 253.166 157.727 253.222 158.288C253.274 158.813 254.01 158.499 254.483 158.71C254.945 158.921 255.254 159.003 255.624 159.343C255.897 159.585 255.865 160.059 256.2 160.069C256.663 160.079 256.571 159.889 256.571 159.889C256.571 159.889 256.149 158.633 255.599 158.278C255.054 157.917 254.621 157.938 254.621 157.938Z" fill="white"/>
<path d="M270.856 163.81C270.65 164.603 270.527 164.875 270.527 164.875C270.527 164.875 270.116 166.486 271.741 165.894C273.366 165.297 272.523 165.549 273.695 164.978C274.847 164.412 274.827 164.726 275.67 164.767C275.958 164.777 276.143 164.787 276.576 164.706C276.945 164.623 276.791 164.191 275.969 163.969C275.085 163.738 274.004 163.789 272.75 163.778C272.009 163.769 271.072 163.018 270.856 163.81Z" fill="white"/>
<path d="M271.578 157.856C271.578 157.856 270.837 157.686 270.323 158.005C269.819 158.319 269.973 158.571 269.973 158.571C269.973 158.571 270.745 159.184 271.311 159.266C271.866 159.364 273.059 159.878 273.018 159.467C272.956 159.065 272.298 158.319 272.062 158.119C271.826 157.917 271.578 157.856 271.578 157.856Z" fill="white"/>
<path d="M274.438 169.04C274.438 169.04 273.645 168.88 273.1 169.183C272.565 169.482 272.709 169.724 272.709 169.724C272.709 169.724 273.553 170.291 274.149 170.378C274.746 170.46 276.021 170.944 275.97 170.558C275.919 170.177 275.198 169.472 274.962 169.282C274.725 169.09 274.438 169.04 274.438 169.04Z" fill="white"/>
<path d="M274.684 173.094C274.684 173.094 273.84 172.904 273.264 173.254C272.689 173.599 272.863 173.877 272.863 173.877C272.863 173.877 273.738 174.541 274.376 174.634C275.003 174.732 276.361 175.288 276.299 174.845C276.248 174.403 275.486 173.6 275.219 173.384C274.972 173.156 274.684 173.094 274.684 173.094Z" fill="white"/>
<path d="M275.064 177.047C275.064 177.047 274.149 176.837 273.531 177.227C272.904 177.618 273.099 177.933 273.099 177.933C273.099 177.933 274.045 178.673 274.724 178.787C275.414 178.896 276.884 179.528 276.823 179.029C276.761 178.535 275.938 177.618 275.65 177.377C275.383 177.119 275.064 177.047 275.064 177.047Z" fill="white"/>
<path d="M274.982 181.936C274.982 181.936 274.067 181.741 273.449 182.127C272.822 182.508 272.997 182.821 272.997 182.821C272.997 182.821 273.963 183.562 274.643 183.676C275.322 183.784 276.792 184.417 276.731 183.923C276.659 183.424 275.846 182.508 275.569 182.265C275.28 182.014 274.982 181.936 274.982 181.936Z" fill="white"/>
<path d="M274.314 191.468C274.314 191.468 273.388 191.267 272.77 191.659C272.153 192.045 272.339 192.354 272.339 192.354C272.339 192.354 273.285 193.1 273.964 193.208C274.653 193.311 276.124 193.954 276.063 193.45C276.001 192.956 275.179 192.045 274.89 191.792C274.612 191.54 274.314 191.468 274.314 191.468Z" fill="white"/>
<path d="M274.93 186.702C274.93 186.702 273.881 186.461 273.14 186.913C272.43 187.355 272.646 187.716 272.646 187.716C272.646 187.716 273.747 188.58 274.538 188.704C275.321 188.833 277.028 189.558 276.966 188.992C276.884 188.411 275.937 187.356 275.609 187.073C275.279 186.784 274.93 186.702 274.93 186.702Z" fill="white"/>
<path d="M273.861 195.781C273.861 195.781 273.099 195.6 272.586 195.925C272.071 196.244 272.236 196.496 272.236 196.496C272.236 196.496 273.018 197.119 273.573 197.202C274.139 197.295 275.343 197.814 275.301 197.402C275.24 196.99 274.571 196.244 274.335 196.043C274.108 195.833 273.861 195.781 273.861 195.781Z" fill="white"/>
<path d="M273.139 199.908C273.139 199.908 272.522 199.774 272.09 200.037C271.68 200.299 271.802 200.51 271.802 200.51C271.802 200.51 272.45 201.015 272.913 201.092C273.375 201.164 274.394 201.607 274.353 201.257C274.311 200.922 273.736 200.299 273.551 200.13C273.355 199.96 273.139 199.908 273.139 199.908Z" fill="white"/>
<path d="M272.257 203.676C272.257 203.676 271.701 203.547 271.31 203.789C270.939 204.02 271.042 204.221 271.042 204.221C271.042 204.221 271.629 204.674 272.051 204.736C272.473 204.813 273.377 205.199 273.337 204.895C273.306 204.592 272.802 204.02 272.626 203.871C272.451 203.717 272.257 203.676 272.257 203.676Z" fill="white"/>
<path d="M271.372 206.763C271.372 206.763 270.796 206.634 270.426 206.866C270.034 207.108 270.148 207.298 270.148 207.298C270.148 207.298 270.734 207.761 271.156 207.823C271.578 207.89 272.483 208.286 272.442 207.973C272.411 207.669 271.907 207.109 271.722 206.959C271.557 206.805 271.372 206.763 271.372 206.763Z" fill="white"/>
<path d="M270.293 210.346C270.293 210.346 269.84 210.238 269.521 210.428C269.212 210.629 269.315 210.778 269.315 210.778C269.315 210.778 269.788 211.15 270.128 211.211C270.467 211.262 271.207 211.582 271.167 211.324C271.136 211.082 270.725 210.629 270.591 210.501C270.447 210.377 270.293 210.346 270.293 210.346Z" fill="white"/>
<path d="M269.005 213.696C269.005 213.696 268.614 213.603 268.347 213.768C268.08 213.938 268.162 214.076 268.162 214.076C268.162 214.076 268.574 214.39 268.862 214.431C269.15 214.488 269.787 214.761 269.756 214.54C269.736 214.329 269.376 213.938 269.263 213.835C269.128 213.727 269.005 213.696 269.005 213.696Z" fill="white"/>
<path d="M267.68 216.882C267.68 216.882 267.278 216.795 267.012 216.965C266.753 217.124 266.846 217.258 266.846 217.258C266.846 217.258 267.237 217.577 267.536 217.629C267.834 217.67 268.461 217.942 268.43 217.737C268.41 217.51 268.05 217.124 267.937 217.016C267.814 216.913 267.68 216.882 267.68 216.882Z" fill="white"/>
<path d="M181.576 233.089C181.576 233.089 180.913 234.375 181.242 235.081C181.566 235.791 182.461 233.953 182.461 233.953C182.461 233.953 183.386 232.121 183.011 231.787C182.631 231.447 182.41 232.394 181.576 233.089Z" fill="white"/>
<path d="M275.197 398.33V395.83C275.197 390.147 278.067 389.036 286.45 388.995C294.165 389.036 296.89 390.003 296.89 394.903V413.812H299.739V418.073H280.896C276.925 418.073 274.334 415.345 274.334 411.99V408.16C274.334 404.856 276.02 401.974 281.925 401.943H289.289V396.189C289.289 393.183 289.083 392.823 286.071 392.823H286.039C282.429 392.823 282.193 393.297 282.193 396.189V398.33L275.197 398.33ZM283.941 405.114C282.46 405.114 281.586 406.308 281.586 407.79V411.444C281.586 412.916 282.213 414.089 283.941 414.11H286.595C288.056 414.11 289.249 413.657 289.249 411.444L289.269 405.114H286.759C286.698 405.114 283.941 405.114 283.941 405.114Z" fill="black"/>
<path d="M257.275 396.118V389.509H246.764V393.442H249.566V413.801H246.764V418.073H259.93V413.801H257.275V402.891C257.275 401.873 263.473 394.04 263.473 394.944V405.783H270.756V393.586C270.756 390.797 268.935 388.996 265.612 388.996C261.662 388.995 258.993 393.967 257.275 396.118Z" fill="black"/>
<path d="M341.068 413.781V389.509H330.34V393.442H333.344V413.781H330.34V418.073H343.886V413.781H341.068Z" fill="black"/>
<path d="M230.229 396.118V389.509H219.717V393.442H222.52V413.801H219.717V418.073H232.872V413.801H230.229V402.891C230.229 401.873 236.421 394.04 236.421 394.944V405.783H243.698V393.586C243.698 390.797 241.887 388.996 238.56 388.996C234.62 388.995 231.946 393.967 230.229 396.118Z" fill="black"/>
<path fill-rule="evenodd" clip-rule="evenodd" d="M215.694 408.717H208.319V410.858C208.319 413.761 207.836 413.884 204.241 413.925H204.189C200.069 413.945 200.301 413.534 200.347 410.858V405.783H215.693V394.759C215.693 390.764 212.68 389.087 204.729 389.057H203.588C195.004 389.097 192.721 391.053 192.721 395.994V412.134C192.721 417.568 195.929 418.485 203.747 418.701H204.6C213.133 418.505 215.693 417.918 215.693 412.843L215.694 408.717ZM200.43 395.17C200.43 393.668 200.883 392.926 202.601 392.905H205.835C207.173 392.905 207.918 393.503 207.918 394.573V402.839H200.43L200.43 395.17Z" fill="black"/>
<path d="M337.18 383.642V378.475" stroke="black" stroke-width="0.74" stroke-miterlimit="10"/>
<path d="M313.112 396.118V389.509H302.59V393.442H305.388V413.801H302.59V418.073H315.755V413.801H313.112V402.891C313.112 401.873 319.294 394.04 319.294 394.944V405.783H326.587V393.586C326.587 390.797 324.755 388.996 321.422 388.996C317.494 388.995 314.819 393.967 313.112 396.118Z" fill="black"/>
<path d="M183.527 404.187V400.379H179.428V413.812H186.53V418.073H165.707V413.812H171.246V383.642H166.895V378.454H329.085V383.642H179.428V395.757H183.527V392.175H188.243V404.187H183.527Z" fill="black"/>
<path d="M340.963 378.269H333.229V383.375H340.963V378.269Z" fill="black"/>
</svg>
