<svg width="512" height="512" viewBox="0 0 512 512" fill="none" xmlns="http://www.w3.org/2000/svg">
<g clip-path="url(#clip0_1561_321)">
<path d="M195.144 159H222.974V353H195.144V159ZM314.447 159V182.408H336.024V353H362.988V182.408H384.214V159H314.447ZM128 353H154.965V264.988H177.93V241.901H154.965V182.408H184.924V159H128V353ZM318.022 340.292C318.028 344.543 318.03 348.779 318.029 353H292.807C292.785 345.661 292.768 338.285 292.757 330.874C292.737 323.473 292.702 316.06 292.622 308.672C292.462 293.911 292.124 279.208 291.352 264.988H261.687V353H237.469V159H294.374C297.82 165.674 300.742 172.605 303.115 179.731C305.57 187.096 307.602 194.595 309.201 202.192C310.854 209.915 312.168 217.878 313.225 225.981C314.282 234.082 315.085 242.369 315.706 250.731C316.327 259.089 316.769 267.591 317.09 276.102C317.412 284.604 317.617 293.227 317.751 301.785C317.886 310.322 317.953 318.996 317.988 327.501C318.006 331.775 318.017 336.039 318.022 340.292ZM289.634 241.901C287.467 219.719 283.749 199.188 277.312 182.408H261.687V241.901H289.634Z" fill="black"/>
</g>
<defs>
<clipPath id="clip0_1561_321">
<rect width="256.214" height="194" fill="white" transform="translate(128 159)"/>
</clipPath>
</defs>
</svg>
