<svg width="512" height="512" viewBox="0 0 512 512" fill="none" xmlns="http://www.w3.org/2000/svg">
<path d="M221.499 245.929L225.407 246.394C227.176 246.58 227.362 248.068 227.362 248.998V253.555H209.402V248.998C209.402 248.068 209.588 246.58 211.356 246.394L215.264 245.929V242.023H192V245.929L195.908 246.394C197.676 246.58 197.863 248.068 197.863 248.998V264.065C197.863 264.995 197.676 266.483 195.908 266.669L192 267.134V271.04H215.264V267.134L211.356 266.669C209.588 266.483 209.402 264.995 209.402 264.065V259.508H227.269V264.065C227.269 264.995 227.083 266.483 225.314 266.669L221.406 267.134V271.04H244.67V267.134L240.762 266.669C238.994 266.483 238.808 264.995 238.808 264.065V248.998C238.808 248.068 238.994 246.58 240.762 246.394L244.67 245.929V242.023H221.406V245.929H221.499Z" fill="#CC0000"/>
<path d="M376.44 242.023H347.778V245.929L351.222 246.301C352.431 246.487 353.269 246.952 353.269 248.626V263.972C353.269 264.902 353.083 266.39 351.315 266.576L347.406 267.041V270.947H376.44C386.862 270.947 395.424 266.762 395.424 256.439C395.424 246.115 386.862 242.023 376.44 242.023ZM374.3 265.46H364.529V247.603H374.3C380.069 247.603 382.023 250.3 382.023 256.532C382.023 262.67 380.069 265.46 374.3 265.46Z" fill="#CC0000"/>
<path d="M444.184 266.669C442.323 266.483 441.765 265.274 441.206 264.437L427.806 243.976C426.875 242.488 426.131 242.023 424.735 242.023H402.774V245.929L408.078 246.487C408.822 246.58 409.846 247.603 409.008 248.905L399.051 264.995C398.679 265.646 398.121 266.39 397.004 266.576L393.096 267.041V270.947H411.614V267.041L408.45 266.762C407.054 266.576 406.31 265.646 407.054 264.53L408.543 262.112H426.41L427.713 264.065C428.923 265.832 427.434 266.576 426.131 266.669L422.874 267.041V270.947H447.999V267.041L444.184 266.669ZM411.614 256.997L417.104 248.068L422.967 256.997H411.614Z" fill="#CC0000"/>
<path d="M327.026 245.929L330.935 246.394C332.703 246.58 332.889 248.068 332.889 248.998V263.507L317.535 243.232C316.883 242.302 316.232 242.023 314.557 242.023H294.643V245.929L298.551 246.394C300.319 246.58 300.505 248.068 300.505 248.998V264.065C300.505 264.995 300.319 266.483 298.551 266.669L294.643 267.134V271.04H313.254V267.134L309.346 266.669C307.578 266.483 307.391 264.995 307.391 264.065V249.556L322.746 269.738C323.49 270.668 324.049 270.947 325.724 270.947H325.91H339.868V248.905C339.868 247.975 340.054 246.487 341.823 246.301L345.731 245.836V241.93H327.213L327.026 245.929Z" fill="#CC0000"/>
<path d="M269.61 241C250.72 241 245.881 249.277 245.881 256.439C245.881 263.6 250.72 271.97 269.61 271.97C288.501 271.97 293.34 263.693 293.34 256.532C293.34 249.277 288.501 241 269.61 241ZM269.61 266.483C262.259 266.483 259.281 263.414 259.281 256.532C259.281 249.649 262.352 246.58 269.61 246.58C276.962 246.58 279.94 249.649 279.94 256.532C279.94 263.414 276.962 266.483 269.61 266.483Z" fill="#CC0000"/>
<path d="M145.429 230.228C143.702 237.995 142.991 241.599 141.569 247.183C140.198 252.564 139.131 257.589 137.303 260.026C135.474 262.513 132.986 263.021 131.31 263.224C130.446 263.325 129.786 263.376 127.907 263.376C126.027 263.376 125.367 263.325 124.504 263.224C122.827 263.021 120.339 262.513 118.51 260.026C116.682 257.589 115.615 252.564 114.295 247.183C112.873 241.548 112.161 237.995 110.435 230.228C110.435 230.228 108.708 230.279 107.946 230.33C106.879 230.381 106.067 230.482 105.203 230.584C105.203 230.584 106.219 246.574 106.676 253.376C107.133 260.482 107.997 272.513 108.758 281.599C108.758 281.599 110.231 281.853 112.669 281.955C115.209 282.107 116.377 282.107 116.377 282.107C117.444 278.097 118.713 272.564 120.186 270.178C121.405 268.249 123.234 268.046 124.3 267.894C125.926 267.691 127.348 267.64 127.957 267.64C128.618 267.64 129.989 267.64 131.614 267.894C132.681 268.046 134.509 268.249 135.728 270.178C137.201 272.564 138.522 278.097 139.538 282.107C139.538 282.107 140.655 282.107 143.195 281.955C145.632 281.802 147.105 281.599 147.105 281.599C147.867 272.513 148.731 260.533 149.188 253.376C149.645 246.624 150.661 230.584 150.661 230.584C149.797 230.482 148.934 230.381 147.918 230.33C147.156 230.279 145.429 230.228 145.429 230.228Z" fill="#CC0000"/>
<path d="M165.594 239.67C164.578 229.518 157.772 227.386 151.829 226.371C148.833 225.863 143.5 225.457 140.097 225.305C137.1 225.102 130.091 225 127.958 225C125.825 225 118.815 225.102 115.819 225.305C112.416 225.457 107.083 225.863 104.086 226.371C98.1437 227.386 91.3377 229.518 90.3219 239.67C90.0172 242.462 89.9664 246.066 90.0172 249.924C90.1187 256.371 90.6774 260.686 90.9822 263.731C91.1853 265.813 92.0488 272.006 93.1662 275.204C94.6899 279.62 96.0612 280.889 97.6865 282.209C100.632 284.594 105.508 285.356 106.524 285.559C112.01 286.523 123.082 286.726 128.009 286.726C132.884 286.726 144.008 286.574 149.493 285.559C150.509 285.356 155.385 284.645 158.331 282.209C159.956 280.889 161.327 279.62 162.851 275.204C163.968 272.006 164.832 265.762 165.035 263.731C165.34 260.736 165.898 256.371 166 249.924C165.949 246.015 165.848 242.411 165.594 239.67ZM161.835 256.726C161.226 264.848 160.515 269.721 159.499 273.224C158.585 276.32 157.467 278.351 155.842 279.823C153.099 282.31 149.341 282.818 147.106 283.173C142.332 283.884 134.256 284.138 127.958 284.138C121.609 284.138 113.584 283.884 108.81 283.173C106.575 282.818 102.816 282.31 100.074 279.823C98.4484 278.351 97.331 276.27 96.4168 273.224C95.401 269.721 94.6391 264.848 94.0804 256.726C93.7249 251.853 93.7757 243.934 94.3344 239.67C95.0962 233.274 98.2452 230.076 105 228.909C108.149 228.35 112.416 227.944 116.428 227.741C119.679 227.538 124.961 227.437 127.958 227.437C130.904 227.386 136.237 227.538 139.436 227.741C143.449 227.944 147.715 228.35 150.864 228.909C157.62 230.127 160.769 233.325 161.581 239.67C162.14 243.883 162.191 251.802 161.835 256.726Z" fill="#CC0000"/>
</svg>
