<svg width="512" height="512" viewBox="0 0 512 512" fill="none" xmlns="http://www.w3.org/2000/svg">
<path d="M97.5578 344.747L103.843 345.495C106.687 345.794 106.986 348.187 106.986 349.683V357.012H78.1027V349.683C78.1027 348.187 78.402 345.794 81.2454 345.495L87.5309 344.747V338.465H50.1172V344.747L56.4027 345.495C59.2461 345.794 59.5454 348.187 59.5454 349.683V373.913C59.5454 375.409 59.2461 377.802 56.4027 378.101L50.1172 378.849V385.131H87.5309V378.849L81.2454 378.101C78.402 377.802 78.1027 375.409 78.1027 373.913V366.584H106.836V373.913C106.836 375.409 106.537 377.802 103.694 378.101L97.4081 378.849V385.131H134.822V378.849L128.536 378.101C125.693 377.802 125.394 375.409 125.394 373.913V349.683C125.394 348.187 125.693 345.794 128.536 345.495L134.822 344.747V338.465H97.4081V344.747H97.5578Z" fill="white"/>
<path d="M346.733 338.465H300.64V344.747L306.177 345.345C308.122 345.644 309.469 346.392 309.469 349.084V373.763C309.469 375.259 309.17 377.652 306.327 377.951L300.041 378.699V384.981H346.733C363.495 384.981 377.263 378.251 377.263 361.648C377.263 345.046 363.495 338.465 346.733 338.465ZM343.291 376.157H327.578V347.439H343.291C352.57 347.439 355.713 351.777 355.713 361.798C355.713 371.669 352.57 376.157 343.291 376.157Z" fill="white"/>
<path d="M455.682 378.101C452.689 377.802 451.791 375.857 450.893 374.511L429.343 341.606C427.846 339.213 426.649 338.465 424.404 338.465H389.086V344.747L397.616 345.644C398.813 345.794 400.459 347.439 399.112 349.533L383.099 375.409C382.501 376.456 381.603 377.652 379.807 377.951L373.521 378.699V384.981H403.303V378.699L398.215 378.251C395.97 377.951 394.772 376.456 395.97 374.661L398.364 370.772H427.098L429.193 373.913C431.139 376.755 428.744 377.951 426.649 378.101L421.411 378.699V384.981H461.818V378.699L455.682 378.101ZM403.303 362.546L412.132 348.187L421.561 362.546H403.303Z" fill="white"/>
<path d="M267.267 344.747L273.553 345.495C276.396 345.794 276.696 348.187 276.696 349.683V373.016L252.003 340.409C250.955 338.914 249.907 338.465 247.214 338.465H215.188V344.747L221.473 345.495C224.316 345.794 224.616 348.187 224.616 349.683V373.913C224.616 375.409 224.316 377.802 221.473 378.101L215.188 378.849V385.131H245.118V378.849L238.833 378.101C235.99 377.802 235.69 375.409 235.69 373.913V350.58L260.383 383.037C261.581 384.533 262.478 384.981 265.172 384.981H265.472H287.92V349.533C287.92 348.037 288.219 345.644 291.063 345.345L297.348 344.597V338.315H267.567L267.267 344.747Z" fill="white"/>
<path d="M174.93 336.819C144.55 336.819 136.768 350.131 136.768 361.648C136.768 373.165 144.55 386.626 174.93 386.626C205.31 386.626 213.092 373.314 213.092 361.798C213.092 350.131 205.31 336.819 174.93 336.819ZM174.93 377.802C163.107 377.802 158.318 372.866 158.318 361.798C158.318 350.729 163.256 345.794 174.93 345.794C186.752 345.794 191.541 350.729 191.541 361.798C191.541 372.866 186.752 377.802 174.93 377.802Z" fill="white"/>
<path d="M307.673 141.779C302.585 164.664 300.49 175.283 296.299 191.736C292.259 207.59 289.116 222.398 283.728 229.577C278.341 236.906 271.008 238.402 266.069 239C263.525 239.299 261.579 239.449 256.042 239.449C250.505 239.449 248.559 239.299 246.015 239C241.077 238.402 233.744 236.906 228.356 229.577C222.969 222.398 219.826 207.59 215.935 191.736C211.744 175.133 209.649 164.664 204.561 141.779C204.561 141.779 199.473 141.929 197.228 142.078C194.085 142.228 191.691 142.527 189.146 142.826C189.146 142.826 192.14 189.941 193.486 209.983C194.833 230.923 197.378 266.371 199.622 293.144C199.622 293.144 203.962 293.892 211.146 294.191C218.629 294.64 222.071 294.64 222.071 294.64C225.213 282.824 228.955 266.521 233.295 259.491C236.886 253.807 242.274 253.209 245.417 252.76C250.206 252.162 254.396 252.013 256.192 252.013C258.137 252.013 262.178 252.013 266.967 252.76C270.11 253.209 275.497 253.807 279.089 259.491C283.429 266.521 287.32 282.824 290.313 294.64C290.313 294.64 293.606 294.64 301.088 294.191C308.272 293.743 312.612 293.144 312.612 293.144C314.857 266.371 317.401 231.073 318.748 209.983C320.095 190.09 323.088 142.826 323.088 142.826C320.544 142.527 317.999 142.228 315.006 142.078C312.761 141.929 307.673 141.779 307.673 141.779Z" fill="white"/>
<path d="M367.087 169.6C364.094 139.686 344.04 133.404 326.53 130.412C317.701 128.917 301.987 127.72 291.96 127.271C283.13 126.673 262.478 126.374 256.192 126.374C249.907 126.374 229.255 126.673 220.425 127.271C210.398 127.72 194.684 128.917 185.855 130.412C168.345 133.404 148.291 139.686 145.298 169.6C144.4 177.826 144.251 188.446 144.4 199.813C144.699 218.808 146.346 231.522 147.244 240.496C147.842 246.628 150.386 264.876 153.679 274.299C158.168 287.312 162.209 291.051 166.998 294.94C175.678 301.969 190.045 304.213 193.038 304.811C209.201 307.653 241.826 308.251 256.342 308.251C270.709 308.251 303.483 307.803 319.646 304.811C322.639 304.213 337.006 302.119 345.686 294.94C350.475 291.051 354.516 287.312 359.005 274.299C362.298 264.876 364.842 246.479 365.44 240.496C366.338 231.671 367.985 218.808 368.284 199.813C368.134 188.296 367.835 177.677 367.087 169.6ZM356.012 219.855C354.216 243.787 352.121 258.145 349.128 268.466C346.434 277.589 343.142 283.572 338.353 287.91C330.272 295.239 319.197 296.734 312.612 297.781C298.545 299.875 274.75 300.623 256.192 300.623C237.486 300.623 213.84 299.875 199.772 297.781C193.188 296.734 182.113 295.239 174.032 287.91C169.243 283.572 165.95 277.44 163.257 268.466C160.264 258.145 158.019 243.787 156.373 219.855C155.325 205.497 155.475 182.164 157.121 169.6C159.366 150.754 168.644 141.331 188.548 137.891C197.827 136.246 210.398 135.049 222.221 134.451C231.799 133.853 247.363 133.553 256.192 133.553C264.872 133.404 280.586 133.853 290.014 134.451C301.837 135.049 314.408 136.246 323.687 137.891C343.591 141.481 352.869 150.904 355.264 169.6C356.91 182.014 357.06 205.347 356.012 219.855Z" fill="white"/>
</svg>
