<svg width="512" height="512" viewBox="0 0 512 512" fill="none" xmlns="http://www.w3.org/2000/svg">
<path d="M265.054 274.984V236.765H273.04V267.718H287.051C289.533 267.718 289.912 267.321 289.912 264.051V236.765H297.895V265.768C297.998 273.443 295.898 274.984 290.779 274.984H265.054ZM430.014 274.993V236.774H438V274.993H430.014ZM305.879 236.765H331.604C335.271 236.765 338.822 237.3 338.717 245.019V274.984H330.734V247.766C330.734 244.475 330.354 243.781 327.872 243.781H313.865V274.984H305.879V236.765ZM231.468 236.765L241.484 252.389L251.368 236.765H261.063L245.47 261.201V274.984H237.484V261.196L221.783 236.765H231.468ZM183.96 236.765H191.943V251.827H209.805V236.765H217.788V274.984H209.805V259.387H191.943V274.984H183.96V236.765ZM379.869 245.019V265.706C379.869 272.29 376.315 274.984 371.885 274.984H346.7V236.765H371.885C378.686 236.765 379.869 241.264 379.869 245.019ZM371.789 247.319C371.789 245.228 370.563 243.781 368.413 243.781H354.687V267.662H368.413C371.544 267.497 371.789 265.545 371.789 263.995V247.319ZM422.031 236.771V274.993H414.05V264.007H395.835V274.993H387.852V245.028C387.852 239.735 389.913 236.771 395.835 236.771H422.031ZM414.05 243.79H399.056C396.539 243.946 395.835 244.593 395.835 247.775V256.538H414.05V243.79ZM153.455 238.647C159.721 242.188 166.814 248.41 166.072 256.708C165.216 264.398 158.27 269.767 152.065 272.999C133.952 281.938 108.507 282.218 89.8016 274.405C83.4798 271.688 76.3872 267.024 73.7241 260.005C71.6889 254.241 74.1709 248.228 78.3377 244.231C87.051 236.054 98.1616 233.245 109.599 231.628C122.009 230.069 135.07 231.446 146.184 235.38C148.666 236.327 151.119 237.365 153.452 238.644L153.455 238.647ZM143.232 238.403C135.815 236.268 128.013 234.986 119.737 235.051C115.895 235.11 113.118 238.8 111.553 241.944C110.37 244.443 109.012 247.434 110.014 250.304C110.548 251.248 111.404 251.892 112.35 252.133C116.397 253.047 120.062 251.398 123.697 250.486C130.848 248.075 137.853 245.328 143.968 240.388C144.233 240.053 144.706 239.718 144.47 239.197C144.207 238.738 143.673 238.647 143.232 238.403ZM104.667 236.939C104.46 236.545 103.926 236.603 103.514 236.603C99.5544 237.245 95.7993 238.374 92.196 239.779C86.1078 242.432 78.8078 246.337 77.0062 253.659C75.8849 259.272 79.7831 264.001 84.0989 266.93C84.9544 267.324 85.8713 268.547 86.8174 267.633C91.6646 257.105 96.7746 246.519 104.548 237.397L104.664 236.939H104.667ZM156.235 244.996C155.169 244.261 154.223 243.193 152.894 243.073C152.641 243.164 152.416 243.321 152.243 243.529C150.81 246.822 149.272 250.068 147.632 253.262C144.058 260.372 139.982 267.388 134.6 273.64L134.513 274.069C134.571 274.437 134.957 274.375 135.193 274.405C138.974 274.04 142.464 272.817 145.921 271.629C152.272 269.065 160.25 265.039 162.083 257.473C163.208 252.347 159.896 248.107 156.232 244.993L156.235 244.996ZM129.312 261.163C128.839 259.881 127.511 258.937 126.179 258.752C122.958 258.326 119.913 259.24 117.048 260.093C109.369 262.751 101.593 265.28 95.0606 270.744C94.7686 271.02 94.5613 271.411 94.7102 271.841C94.8983 272.142 95.1924 272.36 95.5336 272.452C102.911 274.73 110.573 275.942 118.289 276.051C121.808 276.419 124.731 273.978 126.503 271.141C128.1 268.088 130.022 264.948 129.312 261.163Z" fill="#002C5F"/>
</svg>
