<svg width="512" height="512" viewBox="0 0 512 512" fill="none" xmlns="http://www.w3.org/2000/svg">
<path d="M123.787 233.137V271.198L110.877 234.511C110.603 233.55 109.916 233.137 108.543 233.137H96.5947V279.443H104.835V241.794L117.607 277.931C117.881 278.893 118.705 279.305 119.667 279.305H132.027V233H123.787V233.137ZM166.36 233.137V279.443H175.973V259.656H193.14V251.137H175.973V241.519H193.415V233H166.36V233.137ZM386.505 233.137V242.069H397.08V279.443H406.693V241.931H417.268V233H386.368L386.505 233.137ZM226.787 279.443H237.087V233.137H226.787V279.443ZM343.52 279.443H353.82V233.137H343.52V279.443ZM449.953 279.443H460.116V233.137H449.953V279.443ZM51 279.443H61.3V233.137H51V279.443ZM308.225 233.137H299.985V271.198L287.076 234.511C286.801 233.55 286.115 233.137 284.879 233.137H272.793V279.443H281.033V241.794L293.805 277.931C294.08 278.893 294.904 279.305 295.865 279.305H308.225V233V233.137Z" fill="#231F20"/>
</svg>
