<svg width="512" height="512" viewBox="0 0 512 512" fill="none" xmlns="http://www.w3.org/2000/svg">
<path d="M136.317 265.971L118 241.239L99.683 265.971C93.4972 265.367 82.8673 261.326 82.8673 254.147C82.8673 245.099 98.4818 236.654 118.06 236.654C138.659 236.654 153.253 245.099 153.253 254.147C153.253 261.386 142.563 265.428 136.437 265.91M118 234C92.6564 234 75 243.953 75 256.802C75 262.834 78.8436 269.59 87.0112 273.692C94.6383 277.492 105.328 278.819 106.83 279L118 246.245L129.17 279C136.003 278.231 142.683 276.442 148.989 273.692C157.156 269.59 161 262.834 161 256.802C160.94 243.893 143.344 234 118 234Z" fill="#231F20"/>
<path d="M232.545 242.086V265.852L224.468 242.944C224.296 242.343 223.866 242.086 223.007 242.086H215.53V271H220.686V247.491L228.678 270.056C228.85 270.657 229.366 270.914 229.967 270.914H237.702V242H232.545V242.086ZM259.185 242.086V271H265.201V258.645H275.943V253.325H265.201V247.32H276.114V242H259.185V242.086ZM396.939 242.086V247.663H403.556V271H409.571V247.577H416.188V242H396.853L396.939 242.086ZM296.997 271H303.442V242.086H296.997V271ZM370.041 271H376.486V242.086H370.041V271ZM436.641 271H443V242.086H436.641V271ZM187 271H193.445V242.086H187V271ZM347.956 242.086H342.8V265.852L334.722 242.944C334.55 242.343 334.121 242.086 333.347 242.086H325.785V271H330.941V247.491L338.933 270.056C339.105 270.657 339.62 270.914 340.222 270.914H347.956V242V242.086Z" fill="#231F20"/>
</svg>
