<svg width="512" height="512" viewBox="0 0 512 512" fill="none" xmlns="http://www.w3.org/2000/svg">
<path d="M369.221 264.934C367.66 271.731 362.847 274.618 354.79 274.618C349.331 274.618 344.53 273.427 342.047 270.789C339.373 267.974 338.965 264.099 338.965 259.944V239.623H345.089V259.622C345.089 264.116 345.461 266.804 347.109 268.788C348.947 271.12 352.191 271.807 354.933 271.807C360.716 271.807 364.547 269.802 365.592 264.371C365.838 263.116 366.016 261.572 366.016 259.211V239.623H369.783V257.858C369.783 261.254 369.597 263.175 369.221 264.934Z" fill="#00412D"/>
<path d="M400.21 246.182L393.135 261.954H406.956L400.21 246.182ZM411.995 273.901L407.966 264.29H392.086L387.752 273.901H383.882L399.85 239.678H403.633L419.284 273.901" fill="#00412D"/>
<path d="M254.42 246.182L247.341 261.954H261.178L254.42 246.182ZM266.213 273.901L262.164 264.29H246.3L241.962 273.901H238.084L254.048 239.678H257.874L273.505 273.901" fill="#00412D"/>
<path d="M306.847 274.614C296.263 274.614 286.213 270.717 286.213 257.591C286.213 253.309 287.98 248.925 290.669 245.792C294.86 240.933 301.254 239 307.251 239C310.911 239 315.122 239.873 318.398 241.654V245.711C315.427 243.337 311.553 241.718 307.695 241.718C298.992 241.718 293.014 247.526 293.014 257.133C293.014 265.859 298.303 271.824 306.435 271.824C308.507 271.824 311.359 271.421 313.367 270.611V258.125H319.452V272.049C315.867 273.795 310.781 274.614 306.847 274.614Z" fill="#00412D"/>
<path d="M445.519 242.002H441.035V258.38H444.973C448.272 258.38 450.245 257.71 451.766 256.379C453.394 255.001 454.369 252.872 454.369 249.977C454.369 244.194 450.443 242.002 445.519 242.002ZM455.922 273.846L447.456 260.724H441.035V273.846H434.907V239.623H446.494C451.2 239.623 455.906 240.365 458.508 243.448C459.863 245.084 460.643 247.306 460.643 250.206C460.643 255.526 456.876 258.694 453.557 259.944L463 273.846" fill="#00412D"/>
<path d="M212.213 280.897C210.601 281.694 208.83 282.228 207 282.228C211.215 278.985 212.97 275.686 213.599 270.23C213.952 267.215 213.952 264.18 213.952 261.165V239.627H220.06V265.532C220.06 271.854 217.779 277.963 212.213 280.897Z" fill="#00412D"/>
<path d="M59.6859 236.061C59.73 235.996 59.9087 235.33 60.8141 235.246C60.8141 235.246 61.2692 235.213 61.7939 235.38C61.7939 235.38 61.4944 236.21 60.2663 236.359L59.5814 236.428L59.6859 236.061ZM180.735 273.971C180.424 274.801 179.103 275.822 177.561 276.386C175.938 276.955 172.516 276.972 170.768 276.359C170.768 276.359 170.394 275.939 169.19 275.544C166.329 274.642 165.396 274.018 163.957 272.572C162.931 271.57 161.795 270.283 160.718 269.073C160.221 268.529 159.042 267.282 156.955 266.894C154.8 266.502 149.482 266.067 147.515 265.309C146.201 264.817 144.618 263.868 142.673 260.729C141.732 259.226 141.015 258.786 139.659 257.867C139.659 257.867 140.697 258.739 141.242 259.803C142.018 261.343 142.403 262.444 142.826 263.271C143.274 264.106 143.761 264.824 144.546 265.498C145.51 266.333 146.143 266.514 147.241 266.76C148.279 266.979 151.857 267.153 154.919 267.269C157.932 267.406 159.225 268.397 160.161 269.242C161.032 270.017 162.406 272.256 163.381 273.176C164.672 274.386 164.704 274.418 166.206 275.407C166.972 275.914 167.641 276.257 168.256 276.488C169.656 277.362 169.08 278.871 169.08 278.871C168.674 280.078 167.246 280.506 165.579 280.26C163.072 280.019 160.902 277.777 159.081 276.172C158.076 275.29 157.702 274.843 155.775 273.409C152.834 271.22 145.881 271.409 145.881 271.409L140.813 271.364C130.93 271.518 127.311 263.018 126.315 261.221C125.971 260.605 125.66 260.098 125.351 259.691C124.896 259.02 122.405 255.559 119.752 254.336C119.752 254.336 122.301 256.697 122.034 257.984C121.502 257.984 120.864 258.011 120.13 258.043C110.166 258.351 108.084 257.753 106.503 257.415C104.926 257.084 102.312 256.244 99.7282 254.975C99.7282 254.975 100.011 252.363 98.99 250.184C98.99 250.184 107.215 253.278 113.762 252.395C113.762 252.395 103.197 251.851 96.6034 246.241C96.6034 246.241 98.2285 252.169 96.9516 254.667C96.9516 254.667 95.2128 259.181 86.3398 256.167C86.3398 256.167 82.2399 254.46 79.0733 254.46C79.0733 254.46 76.6867 254.57 76.3942 255.894C76.3942 255.894 76.2363 256.528 76.8631 256.843C76.8631 256.843 77.5619 257.052 77.2207 257.609C76.6867 258.515 75.9438 259.201 75.1939 259.596C72.7145 259.477 72.9095 257.305 72.9095 257.305C72.9559 256.528 73.1951 255.991 73.3924 255.467C74.9641 251.749 80.4291 251.2 80.4291 251.2C86.2585 250.584 92.3642 252.085 92.3642 252.085C87.995 250.967 86.5023 250.149 85.2672 249.039C83.5725 247.543 82.01 242.486 82.01 242.486C81.3414 244.969 82.1726 247.463 82.7297 248.753C81.9079 247.337 80.7146 246.144 79.6792 245.239C76.9723 242.943 73.0743 242.196 73.0743 242.196C71.9553 241.987 71.5096 240.739 71.5096 240.739C70.054 237.884 68.4242 237.763 68.4242 237.763C69.2321 238.945 69.1486 240.558 69.1486 240.558C69.1486 243.53 65.5594 244.519 65.5594 244.519C62.8803 247.366 62.4137 247.314 61.8914 247.349C61.362 247.381 60.9859 246.805 60.9859 246.805C60.8072 246.541 61.0904 246.295 61.0904 246.295C61.5547 245.985 61.9703 245.602 61.9703 245.602C64.5844 243.348 64.9512 242.208 64.7376 240.655C64.3197 237.522 61.9494 237.753 61.9494 237.753C60.842 237.753 60.2964 238.655 60.2964 238.655C59.8739 239.199 58.9314 240.898 58.9314 240.898C58.1095 242.357 57.3713 242.143 57.3713 242.143C56.4659 242.208 55.8065 241.333 55.8065 241.333L55.7137 241.236C55.0474 240.466 55.6301 239.527 55.6301 239.527C56.7282 237.432 58.6481 237.231 58.8942 237.206C59.1705 237.194 60.0387 237.134 60.0387 237.134C62.2141 236.958 63.607 234.754 63.607 234.754C62.6993 234.286 61.0904 234.532 61.0904 234.532C59.4932 234.637 59.0753 236.446 59.0753 236.446C57.7218 236.65 57.7775 235.529 58.0585 235.231C58.2976 234.947 59.1101 233.531 64.3685 232.689C64.3685 232.689 67.1613 232.087 72.1086 232.676C72.2897 232.696 72.4522 232.87 72.227 233.161C71.6025 233.951 69.6593 235.671 66.5252 234.828C66.5252 234.828 66.4764 236.175 69.8892 236.828C69.8892 236.828 72.9559 237.542 77.9682 241.833C77.9682 241.833 75.5515 237.037 71.3378 235.561C71.3378 235.561 71.0337 235.362 71.303 235.052C71.303 235.052 73.2972 233.148 76.8074 233.342C76.8074 233.342 88.4083 233.983 94.9412 241.264C94.9412 241.264 94.709 240.046 93.72 238.292L93.6318 237.932C93.6318 237.932 93.72 237.621 94.8413 237.86C94.8413 237.86 98.99 238.598 108.613 242.357C108.613 242.357 115.812 245.053 119.752 246.8C125.655 249.406 140.458 255.824 149.807 261.363C151.46 262.332 158.424 266.002 158.424 266.002C163.625 269.456 168.416 271.953 168.416 271.953C173.111 274.276 176.544 273.208 176.544 273.208C177.631 272.768 179.715 271.57 180.537 272.418C180.955 272.865 180.964 273.432 180.735 273.971ZM181.898 272.03C181.306 270.497 179.309 270.872 179.309 270.872C178.397 270.924 177.264 271.953 175.66 272.289C172.256 273.046 169.647 271.804 169.647 271.804C164.586 269.396 161.187 266.77 158.968 265.421C156.739 264.049 148.528 259.447 140.325 255.032C140.325 255.032 130.918 249.873 116.991 243.731C116.991 243.731 90.1471 230.716 70.8294 230.716C70.8294 230.716 60.8141 230.567 57.4316 234.699C57.4316 234.699 56.828 235.223 57.1182 235.872L57.0346 236.175C57.0346 236.175 55.5465 237.219 54.3323 238.719C54.3323 238.719 53.6846 239.43 54.1977 240.493C54.1977 240.493 54.8431 241.696 55.2447 242.208C55.6788 242.722 56.5007 243.617 57.7659 243.485C58.3161 243.425 58.3231 243.279 58.3231 243.279C58.9035 243.905 59.9087 243.952 59.9087 243.952C59.8136 243.552 59.4351 242.799 59.398 242.357C59.3655 241.87 59.5396 241.393 59.5396 241.393C59.7578 240.869 60.1479 240.183 60.5425 239.852C60.9024 239.562 61.7939 239.244 62.4485 239.743C62.9755 240.131 63.542 241.393 62.9128 243.09C62.9128 243.09 62.1862 244.404 61.5292 244.559L61.3528 244.571C60.9697 244.559 60.1246 244.054 60.1246 244.054C60.1246 244.054 60.0875 244.154 60.1827 244.613C60.2338 244.869 60.3104 245.16 60.3823 245.383L60.2059 245.543C60.2059 245.543 59.6719 245.985 59.9087 246.656C59.9087 246.656 60.4357 248.74 61.8751 248.74C63.1496 248.773 64.2083 247.486 64.2083 247.486C66.957 244.327 70.8294 243.893 70.8294 243.893C75.115 243.582 81.223 248.276 82.8946 249.625C76.5497 249.543 73.9914 252.162 73.9914 252.162C70.4324 255.124 71.8114 258.709 71.8114 258.709C72.0552 259.48 72.7981 260.056 73.2786 260.282C73.9403 260.585 74.5044 260.605 75.0152 260.541C75.4006 260.496 75.8161 260.347 76.0134 260.19C76.5103 259.885 77.3762 259.278 77.7941 258.637C78.068 258.309 78.3559 257.524 78.1632 256.769C78.1632 256.769 78.0448 256.167 78.5718 256.038C78.5718 256.038 80.2387 255.578 83.6398 257.196C83.6398 257.196 87.3218 259.48 92.1089 259.932C92.1089 259.932 97.546 260.541 98.86 257.377C98.86 257.377 101.985 258.749 106.565 259.311C106.565 259.311 111.006 259.803 118.243 259.214C119.67 259.097 121.347 259.231 121.347 259.231C123.647 259.519 125.122 260.806 125.709 261.82C128.068 265.93 130.909 273.996 142.466 273.668L147.72 273.519C150.893 273.519 153.486 273.558 156.024 274.999C157.136 275.628 160.08 278.754 161.893 279.812C167.232 283.661 170.343 281.867 170.343 281.867C172.175 280.732 172.022 278.722 171.574 277.576C171.024 277.395 178.199 278.709 181.283 274.418C181.995 273.446 182.125 272.567 181.898 272.03Z" fill="#231F20"/>
</svg>
