<svg width="512" height="512" viewBox="0 0 512 512" fill="none" xmlns="http://www.w3.org/2000/svg">
<path d="M120.957 174H154.452V262.096C154.452 277.264 147.963 309.036 101.505 309.036C55.047 309.036 50 279.428 50 262.824V246.572H82.4193V262.458C82.4193 272.205 88.8979 281.235 101.145 281.235C113.386 281.235 120.957 274.378 120.957 262.824V174ZM206.297 210.826C175.681 210.826 161.997 238.993 161.997 263.175C161.997 287.373 177.483 310.837 209.176 310.837C236.909 311.199 255.284 293.145 255.284 279.789H224.667C224.667 279.789 221.062 288.452 210.258 288.452C199.453 288.452 193.335 282.314 193.335 267.512H255.639C255.639 220.939 232.593 210.826 206.302 210.826M193.335 248.74C193.335 238.993 197.29 231.043 208.46 231.043C219.991 231.043 225.028 239.716 225.028 248.74H193.335ZM306.449 210.826C275.838 210.826 262.144 238.993 262.144 263.175C262.144 287.373 277.635 310.837 309.328 310.837C337.066 311.199 355.431 293.145 355.431 279.789H324.819C324.819 279.789 321.214 288.452 310.41 288.452C299.605 288.452 293.482 282.314 293.482 267.512H355.792C355.792 220.939 332.745 210.826 306.449 210.826ZM293.482 248.74C293.482 238.993 297.447 231.043 308.602 231.043C320.138 231.043 325.175 239.716 325.175 248.74H293.482ZM395.014 339V300.357C396.307 302.082 397.043 302.913 399.335 304.694C402.924 307.502 409.058 312.283 422.742 312.283C447.59 312.283 462 290.615 462 261.007C462 222.736 437.872 211.905 422.381 211.905C406.895 211.905 401.065 219.127 398.974 221.657C396.554 224.569 395.761 226.226 394.648 228.627V214.429H363.676V339H395.014ZM394.293 262.091C394.653 243.676 401.853 236.097 411.576 236.097C427.428 236.097 430.302 248.374 430.302 261.007C430.302 273.65 428.144 290.254 413.018 290.254C397.893 290.254 393.932 280.507 394.293 262.091Z" fill="#424D07"/>
</svg>
