<svg width="512" height="512" viewBox="0 0 512 512" fill="none" xmlns="http://www.w3.org/2000/svg">
<path d="M68.6216 315.08C90.1172 298.172 100.218 276.288 104.715 259.082C109.316 241.463 110.015 224.534 110 223.929L109.97 222.975L109.26 222.392C91.7459 206.197 69.1322 197.54 68.0659 197.189L67.4989 197L66.9343 197.189C65.868 197.54 43.801 206.197 25.7406 222.392L25.0275 222.975L25.0005 223.929C24.9825 224.534 25.4819 241.512 30.2669 259.082C34.6943 275.332 44.0911 298.815 66.3786 315.08L67.4989 315.899L68.6216 315.08Z" fill="#767676"/>
<path fill-rule="evenodd" clip-rule="evenodd" d="M67.526 213.099C63.7645 214.322 42.0215 221.614 28.7754 231.485C28.8159 238.514 31.1578 284.087 67.526 312.397C103.05 284.087 106.18 238.511 106.22 231.485C92.9742 221.614 71.2874 214.322 67.526 213.099Z" fill="#D3D3D3"/>
<path d="M66.6261 200.036L66.6824 202.173C65.8927 201.622 64.8219 201.329 63.5891 201.329C63.011 201.329 62.2595 201.473 61.6206 201.723L61.7331 203.185C62.3967 202.809 63.0154 202.735 63.6453 202.735C65.454 202.735 66.7386 204.089 66.7386 205.884C66.7386 207.667 65.4608 209.033 63.5891 209.033C62.8985 209.033 62.0908 208.909 61.6768 208.695L61.6206 210.157C62.2618 210.308 62.9232 210.438 63.5891 210.438C64.7904 210.438 65.8747 210.171 66.6824 209.651L66.6261 211.563H67.4697H68.3696V209.707C69.1547 210.168 70.1626 210.438 71.2942 210.438C71.9601 210.438 72.6215 210.308 73.2626 210.157L73.2064 208.695C72.7925 208.909 71.9848 209.033 71.2942 209.033C69.4247 209.033 68.3134 207.665 68.3134 205.884C68.3134 204.087 69.4315 202.735 71.2379 202.735C71.8679 202.735 72.4843 202.807 73.1502 203.185L73.2626 201.723C72.6237 201.471 71.8724 201.329 71.2942 201.329C70.1356 201.329 69.1413 201.629 68.3696 202.117V200.036H67.4697H66.6261Z" fill="#D3D3D3"/>
<path d="M67.4697 213.081V218.816L80.8553 218.029C74.3807 215.375 69.1502 213.625 67.4697 213.081ZM67.4697 218.816V229.893L88.7291 227.925L106.052 234.616C106.128 233.24 106.16 232.156 106.164 231.468C104.187 229.994 102.018 228.598 99.7525 227.25L88.7291 227.869L67.4697 218.816ZM67.4697 229.893V229.949V241.026L88.7291 238.215L105.095 243.95C105.507 241.116 105.725 238.615 105.883 236.584L88.7291 238.159L67.4697 229.893ZM67.4697 241.026V252.159L88.7291 248.561L103.408 253.115C103.939 250.751 104.355 248.513 104.702 246.424L88.7291 248.448L67.4697 241.026ZM67.4697 252.159V263.236L88.7291 258.85L100.99 262.224C101.593 260.261 102.094 258.347 102.565 256.489L88.7291 258.794L67.4697 252.159ZM67.4697 263.236V274.369L88.7291 269.14L97.784 271.277C98.3779 269.795 98.9021 268.342 99.415 266.891L88.7291 269.084L67.4697 263.236ZM67.4697 274.369V285.446L88.7291 279.486L93.6221 280.442C94.0563 279.592 94.4545 278.757 94.8595 277.912L88.7291 279.373L67.4697 274.369ZM67.4697 285.446V285.502V296.579L88.0542 290.001C88.1352 289.879 88.2004 289.731 88.2792 289.607L67.4697 285.446ZM67.4697 296.579V307.712L76.2997 304.507C78.1354 302.652 79.8564 300.76 81.4739 298.828L67.4697 296.579ZM67.4697 307.712V312.379C69.1817 311.045 70.7992 309.678 72.3628 308.275L67.4697 307.712Z" fill="#D3D3D3"/>
<path d="M67.4697 213.081C65.7915 213.625 60.498 215.375 54.028 218.029L67.4697 218.816V213.081ZM67.4697 218.816L46.2104 227.869L35.187 227.25C32.9193 228.6 30.7529 229.992 28.7754 231.468C28.7799 232.158 28.7529 233.233 28.8317 234.616L46.2104 227.925L67.4697 229.893V218.816ZM67.4697 229.893L46.2104 238.159L29.0004 236.584C29.1578 238.62 29.4301 241.109 29.844 243.95L46.2104 238.215L67.4697 241.026V229.893ZM67.4697 241.026L46.2104 248.448L30.1815 246.424C30.5301 248.518 31.0003 250.742 31.5313 253.115L46.2104 248.561L67.4697 252.159V241.026ZM67.4697 252.159L46.2104 258.794L32.3186 256.433C32.791 258.295 33.3445 260.254 33.9497 262.224L46.2104 258.85L67.4697 263.236V252.159ZM67.4697 263.236L46.2104 269.084L35.4682 266.891C35.9834 268.348 36.5593 269.788 37.1554 271.277L46.2104 269.14L67.4697 274.369V263.236ZM67.4697 274.369L46.2104 279.373L40.0238 277.912C40.431 278.764 40.8224 279.585 41.2611 280.442L46.2104 279.486L67.4697 285.446V274.369ZM67.4697 285.502L46.604 289.607C46.6782 289.719 46.7548 289.832 46.829 289.944L67.4697 296.579V285.502ZM67.4697 296.579L53.4093 298.828C55.0178 300.749 56.7591 302.663 58.5835 304.507L67.4697 307.712V296.579ZM67.4697 307.712L62.5205 308.331C64.0817 309.732 65.76 311.048 67.4697 312.379V307.712Z" fill="#D3D3D3"/>
<path d="M54.084 218.047C48.2124 220.453 41.3306 223.616 35.1868 227.268L46.2102 227.887L67.4695 218.834L54.084 218.047ZM46.2102 227.943L28.8877 234.634C28.9214 235.228 28.9439 235.896 29.0002 236.602L46.2102 238.176L67.4695 229.911L46.2102 227.943ZM46.2102 238.233L29.8438 243.968C29.9585 244.757 30.0418 245.601 30.1813 246.442L46.2102 248.466L67.4695 241.044L46.2102 238.233ZM46.2102 248.579L31.5311 253.133C31.7741 254.219 32.0305 255.315 32.3184 256.45L46.2102 258.812L67.4695 252.177L46.2102 248.579ZM46.2102 258.868L33.9495 262.242C34.4174 263.771 34.9078 265.328 35.468 266.909L46.2102 269.102L67.4695 263.254L46.2102 258.868ZM46.2102 269.158L37.1552 271.294C38.0259 273.467 38.9662 275.718 40.0236 277.929L46.2102 279.391L67.4695 274.387L46.2102 269.158ZM46.2102 279.504L41.2609 280.46C42.8289 283.523 44.6219 286.582 46.6038 289.625L67.4695 285.464L46.2102 279.504ZM46.8288 289.962C48.804 292.969 50.9795 295.945 53.4091 298.846L67.4695 296.597L46.8288 289.962ZM58.5833 304.525C59.8567 305.814 61.1345 307.107 62.5203 308.349L67.4695 307.73L58.5833 304.525Z" fill="black"/>
<path d="M80.8553 218.047L67.4697 218.834L88.7291 227.887L99.7525 227.268C93.6109 223.616 86.7269 220.456 80.8553 218.047ZM88.7291 227.943L67.4697 229.911L88.7291 238.176L105.939 236.602C105.995 235.887 106.02 235.235 106.052 234.634L88.7291 227.943ZM88.7291 238.233L67.4697 241.044L88.7291 248.466L104.702 246.442C104.841 245.594 104.981 244.764 105.095 243.968L88.7291 238.233ZM88.7291 248.579L67.4697 252.177L88.7291 258.812L102.565 256.507C102.855 255.364 103.163 254.226 103.408 253.133L88.7291 248.579ZM88.7291 258.868L67.4697 263.254L88.7291 269.102L99.415 266.909C99.9752 265.323 100.517 263.78 100.99 262.242L88.7291 258.868ZM88.7291 269.158L67.4697 274.387L88.7291 279.391L94.8595 277.929C95.9213 275.712 96.9134 273.474 97.784 271.294L88.7291 269.158ZM88.7291 279.504L67.4697 285.464L88.2792 289.625C90.2611 286.582 92.0564 283.523 93.6221 280.46L88.7291 279.504ZM88.0542 290.018L67.4697 296.597L81.4739 298.846C83.8968 295.951 86.0835 293.016 88.0542 290.018ZM76.2997 304.525L67.4697 307.73L72.3628 308.292C73.7373 307.06 75.0354 305.805 76.2997 304.525Z" fill="black"/>
<path d="M67.4697 200.054V211.58H68.3696V209.725C69.1547 210.186 70.1626 210.456 71.2942 210.456C71.9601 210.456 72.6215 210.325 73.2626 210.175L73.2064 208.713C72.7925 208.926 71.9848 209.05 71.2942 209.05C69.4247 209.05 68.3134 207.683 68.3134 205.901C68.3134 204.104 69.4314 202.753 71.2379 202.753C71.8678 202.753 72.4842 202.825 73.1501 203.202L73.2626 201.741C72.6237 201.489 71.8723 201.347 71.2942 201.347C70.1356 201.347 69.1412 201.646 68.3696 202.134V200.054H67.4697Z" fill="#D3D3D3"/>
<path d="M66.6261 200.054L66.6824 202.19C65.8927 201.639 64.8219 201.347 63.5891 201.347C63.011 201.347 62.2595 201.491 61.6206 201.741L61.7331 203.202C62.3967 202.827 63.0154 202.753 63.6453 202.753C65.454 202.753 66.7386 204.107 66.7386 205.901C66.7386 207.685 65.4608 209.05 63.5891 209.05C62.8985 209.05 62.0908 208.926 61.6768 208.713L61.6206 210.175C62.2618 210.325 62.9232 210.456 63.5891 210.456C64.7904 210.456 65.8747 210.188 66.6824 209.669L66.6261 211.58H67.4697V200.054H66.6261Z" fill="#D3D3D3"/>
<path d="M137.974 259.16L146.629 275.934H160.28L149.209 255.263L167.779 236.875H154.984L138.789 252.778L140.708 236.875H128.612L123.959 275.934H135.935L137.974 259.16ZM172.383 275.941H188.675C194.371 275.941 197.198 273.73 197.838 268.772L199.936 251.565C200.232 249.103 199.936 247.368 198.949 246.303C197.961 245.239 196.005 244.445 192.95 244.445H176.602C172.514 244.445 168.093 245.141 167.292 251.684L165.191 268.896C164.869 271.35 165.191 273.093 166.185 274.228C167.18 275.36 169.163 275.941 172.379 275.941H172.383ZM179.137 253.652C179.227 252.573 179.706 249.362 183.805 249.362H188.147C188.147 249.362 187.75 253.195 187.511 254.758L186.164 265.614C185.947 267.188 185.499 270.22 181.329 270.22H176.923L179.137 253.652ZM211.58 275.941H228.16C233.804 275.941 236.481 273.842 237.166 268.84L237.391 267.09H225.366C224.663 269.776 222.149 270.219 220.732 270.219H216.416L217.265 262.949H237.888L239.291 251.489C239.579 249.125 239.242 247.439 238.262 246.333C237.162 245.096 235.177 244.445 232.024 244.445H216.233C209.927 244.445 207.264 246.577 206.632 251.692L204.451 268.896C204.152 271.309 204.451 273.033 205.484 274.157C206.512 275.282 208.452 275.941 211.58 275.941ZM218.412 253.652C218.555 251.196 220.618 249.297 223.073 249.362H227.493L226.514 257.504L217.892 257.59L218.412 253.652ZM387.392 275.941H403.975C409.615 275.941 412.293 273.842 412.978 268.84L413.202 267.09H401.177C400.478 269.776 397.96 270.219 396.543 270.219H392.227L393.076 262.949H413.696L415.095 251.489C415.383 249.125 415.039 247.439 414.066 246.333C412.959 245.096 410.977 244.445 407.82 244.445H392.018C385.712 244.445 383.045 246.577 382.417 251.692L380.228 268.896C379.933 271.309 380.269 273.033 381.268 274.157C382.264 275.282 384.269 275.941 387.392 275.941ZM394.225 253.652C394.402 251.218 396.45 249.349 398.885 249.399H403.31L402.326 257.542L393.705 257.624L394.225 253.652ZM257.594 255.188C257.594 255.188 260.328 252.951 262.134 251.636C263.559 250.756 265.152 250.182 266.81 249.95C266.81 249.95 266.286 253.952 266.193 254.889L263.627 275.941H275.682L278.606 251.566C278.92 249.092 278.606 247.368 277.604 246.222C276.602 245.075 274.765 244.446 271.919 244.446H269.114C266.858 244.459 264.651 245.102 262.741 246.305L258.215 249.887L258.87 244.446H246.815L242.941 275.931H255.003L257.594 255.188ZM282.256 275.941H294.299L298.073 244.445H286.068L282.252 275.941H282.256ZM312.282 244.441C306.952 244.441 304.327 246.652 303.773 251.606L301.671 268.533C301.372 270.939 301.709 272.655 302.707 273.775C303.702 274.892 305.564 275.941 308.313 275.941H312.828C318.999 275.941 322.028 270.219 322.028 270.219L320.671 280.644H300.347L299.73 286.479H323.113C327.571 286.479 332.224 285.669 332.927 279.67L337.131 244.449L312.282 244.441ZM323.922 254.551L322.646 265.111C322.646 265.111 320.264 270.219 314.841 270.219H313.464L315.521 253.652C315.779 251.441 317.111 249.368 320.208 249.368H324.476C324.476 249.368 324.048 253.596 323.922 254.551ZM430.074 244.441C424.748 244.441 422.119 246.652 421.565 251.606L419.463 268.533C419.167 270.939 419.504 272.655 420.491 273.775C421.479 274.892 423.36 275.941 426.098 275.941H430.59C436.765 275.941 439.794 270.219 439.794 270.219L438.432 280.644H418.108L417.514 286.472H440.893C445.352 286.472 450.004 285.662 450.703 279.667L454.911 244.442L430.074 244.441ZM441.713 254.551L440.404 265.111C440.404 265.111 438.025 270.219 432.595 270.219H431.256L433.317 253.652C433.579 251.441 434.91 249.368 438.007 249.368H442.275C442.275 249.368 441.803 253.596 441.713 254.551ZM469.162 244.441C463.836 244.441 461.215 246.652 460.653 251.606L458.551 268.533C458.248 270.939 458.592 272.655 459.58 273.775C460.567 274.892 462.441 275.941 465.186 275.941H469.701C475.883 275.941 478.909 270.219 478.909 270.219L477.514 280.644H457.19L456.595 286.472H479.982C484.441 286.472 489.093 285.662 489.792 279.667L494 244.441H469.162ZM480.801 254.551L479.492 265.111C479.492 265.111 477.117 270.219 471.683 270.219H470.344L472.405 253.652C472.659 251.441 473.991 249.368 477.087 249.368H481.362C481.362 249.368 480.913 253.596 480.801 254.551ZM348.479 275.945H364.554C370.329 275.945 373.287 273.498 373.863 268.559L374.368 264.362C374.66 262.121 374.368 260.513 373.44 259.427C371.93 257.651 368.877 257.392 366.196 257.328H354.373L354.77 253.772C354.951 251.238 357.105 249.304 359.639 249.399H363.679L363.316 253.689H375.422L375.755 251.441C376.036 249.035 375.67 247.307 374.641 246.176C373.609 245.04 371.754 244.441 369.076 244.482H351.68C346.418 244.482 343.796 246.693 343.171 251.655L342.591 255.942C342.266 258.61 342.591 260.468 343.612 261.619C345.12 263.339 348.119 263.381 351.029 263.422H362.459L362.226 265.228C362.13 266.431 361.456 270.257 356.916 270.257H352.827L353.202 267.132H340.934L340.766 268.78C340.452 271.209 340.766 272.933 341.757 274.056C343.205 275.667 345.985 275.945 348.479 275.945Z" fill="white"/>
</svg>
