<svg width="512" height="512" viewBox="0 0 512 512" fill="none" xmlns="http://www.w3.org/2000/svg">
<path fill-rule="evenodd" clip-rule="evenodd" d="M123.237 230.218C124.506 230.253 124.371 231.14 124.161 231.446C120.417 237.245 111.571 247.455 105.13 258.657C104.064 260.472 103.269 261.808 103.269 263.799C103.269 266.5 104.963 269.693 108.364 271.063C110.602 271.955 112.011 271.983 114.426 272.018C132.356 272.57 139.544 272.087 155.588 271.545C156.515 271.543 157.377 270.921 157.686 270.546C160.788 267.325 162.576 261.537 162.576 256.429C162.576 245.053 154.347 234.805 141.51 229.877L139.449 232.508C150.701 237.138 156.515 246.386 156.515 256.29C156.515 258.518 156.135 260.676 155.448 262.738C154.939 264.175 154.312 265 152.489 265.028C139.414 265.306 132.011 265.51 118.902 265.167C117.211 265.132 116.664 264.518 116.389 263.185C116.179 262.394 116.354 261.738 116.901 260.746C123.854 248.482 135.967 234.465 138.345 231.14C138.797 230.526 138.585 229.288 137.034 228.877C132.496 227.542 127.403 227 122.241 227C98.8661 227.094 82.3795 240.184 82 256.429C82.9366 275.929 99.9674 286 122.241 286C135.87 286 148.355 281.203 155.661 273.597L148.912 273.868C142.681 279.385 132.698 282.335 122.373 282.335C103.554 282.335 88.2314 273.017 88.2314 256.29C88.2314 241.902 103.551 230.183 122.373 230.183L123.237 230.218ZM277.842 265.438L290.572 257.115L271.303 242.825V246.323H242.801C239.082 246.323 236.022 248.957 235.468 252.386L268.511 252.351V258.587L243.248 258.622C239.257 258.622 235.988 261.641 235.813 265.438H277.842ZM398.884 246.219H428.103V240.087H398.719C387.73 240.087 378.751 248.447 378.301 258.931L413.722 258.893C416.022 258.893 417.88 260.403 417.88 262.22C417.88 264.071 416.02 265.545 413.722 265.545L374.725 265.542V240.087H363.159V265.376H339.931C336.522 264.824 335.453 262.36 335.453 257.56L335.456 240.087H316.804L300.035 250.911L285.444 240.087H240.563C230.615 240.087 222.323 246.903 220.498 255.981H229.514C226.112 258.279 223.495 261.537 222.048 265.379L193.511 265.376C190.147 264.824 189.043 262.36 189.043 257.56L189.046 240.087H177.512V256.394C177.027 267.194 182.912 271.063 189.625 271.677L279.285 271.674L295.807 261.052L310.23 271.816H327.878L305.41 254.992L323.887 243.069L323.922 256.394C323.447 267.194 329.911 271.063 336.627 271.677L420.533 271.674C426.314 271.674 431 267.465 431 262.22C431 257.008 426.312 252.799 420.533 252.799H391.553C391.826 249.131 394.998 246.219 398.884 246.219Z" fill="black"/>
</svg>
