<svg width="512" height="512" viewBox="0 0 512 512" fill="none" xmlns="http://www.w3.org/2000/svg">
<path fill-rule="evenodd" clip-rule="evenodd" d="M240.359 337.997C233.735 339.023 228.123 343.226 225.688 348.984C224.568 351.632 224.379 352.686 224.393 356.209C224.408 359.952 224.704 361.34 226.072 364.091C227.828 367.62 230.627 370.348 234.355 372.166C237.819 373.855 241.561 374.52 245.527 374.15C250.649 373.674 254.553 371.881 258.526 368.181L260.11 366.705L257.429 364.272C255.955 362.934 254.679 361.814 254.595 361.783C254.51 361.753 253.818 362.266 253.056 362.925C249.871 365.678 247.668 366.684 244.28 366.931C240.376 367.215 236.414 365.222 234.244 361.881C233.169 360.226 232.731 358.772 232.619 356.488C232.508 354.209 232.784 352.81 233.731 350.861C234.551 349.171 236.729 347.03 238.477 346.195C242.891 344.086 248.17 344.952 252.307 348.462C253.071 349.11 253.837 349.745 254.01 349.873C254.282 350.074 254.699 349.744 257.138 347.401L259.952 344.697L258.937 343.791C254.959 340.238 251.161 338.429 246.621 337.924C244.345 337.671 242.309 337.695 240.359 337.997ZM308.838 338.18C305.948 338.729 303.053 339.883 300.889 341.349C299.747 342.123 297.641 344.15 296.648 345.431C292.023 351.397 291.868 360.167 296.279 366.343C297.216 367.654 299.458 369.852 300.761 370.737C302.064 371.621 304.901 372.92 306.478 373.354C309.868 374.286 314.146 374.344 317.461 373.503C324.22 371.786 329.175 367.205 331.133 360.863C331.605 359.335 331.643 358.967 331.643 355.928C331.643 352.889 331.605 352.52 331.134 350.994C329.195 344.717 324.42 340.234 317.867 338.539C315.574 337.946 311.021 337.765 308.838 338.18ZM50 355.928V373.568H63.5514H77.1028V369.909V366.249H67.598H58.0932V352.268V338.287H54.0466H50V355.928ZM112.675 351.846C112.674 359.303 112.619 367.242 112.551 369.487L112.427 373.568H116.598H120.768V355.928V338.287H116.722H112.675L112.675 351.846ZM158.725 338.412C158.656 338.481 158.599 346.419 158.599 356.053V373.568H162.644H166.69L166.738 362.721L166.787 351.874L175.162 361.709C179.769 367.118 183.947 371.913 184.447 372.364C184.947 372.815 185.667 373.27 186.047 373.375C186.427 373.48 187.817 373.567 189.137 373.567L191.537 373.568V356.021V338.474H187.492H183.447L183.398 348.919L183.349 359.363L175.124 349.699C170.6 344.384 166.562 339.733 166.15 339.361C165.739 338.99 165.078 338.597 164.683 338.488C163.901 338.272 158.929 338.208 158.725 338.412ZM368.206 347.06C368.138 351.783 368.082 359.678 368.081 364.607L368.081 373.568H381.731H395.38L395.329 369.956L395.278 366.343L385.82 366.295L376.363 366.246V352.36V338.474H372.347H368.331L368.206 347.06ZM429.063 356.009V373.568H433.108H437.153L437.201 362.76L437.25 351.952L446.027 362.25C453.396 370.895 454.955 372.629 455.746 373.058C456.644 373.545 456.808 373.568 459.343 373.568H462V356.021V338.474H457.955H453.91L453.861 348.965L453.813 359.455L445.36 349.514C440.711 344.047 436.61 339.347 436.247 339.071C435.598 338.577 435.53 338.567 432.325 338.509L429.063 338.45V356.009ZM309.507 345.522C305.934 346.386 302.95 349.18 301.803 352.737C301.2 354.608 301.24 357.434 301.896 359.356C303.061 362.765 305.468 365.172 308.803 366.261C310.765 366.901 314.089 366.917 316.073 366.295C321.522 364.587 324.566 358.927 323.102 353.222C322.579 351.184 321.91 350.044 320.279 348.413C318.709 346.844 317.223 346 315.183 345.521C313.696 345.172 310.954 345.172 309.507 345.522Z" fill="#040404"/>
<path fill-rule="evenodd" clip-rule="evenodd" d="M251.43 86.3359C246.093 86.596 238.24 87.6361 236.203 88.3525C234.252 89.039 233.324 90.2942 232.755 93.0162C231.985 96.7053 229.598 112.677 228.521 121.349C222.78 167.579 222.516 209.376 227.674 255.415C229.297 269.911 232.31 290.153 233.231 292.758C233.958 294.814 235.454 295.708 239.226 296.338C249.191 298.002 258.463 298.212 268.197 296.993C276.55 295.947 278.001 295.309 278.913 292.279C279.638 289.869 282.12 273.718 283.57 261.976C288.899 218.81 289.407 178.786 285.165 136.374C283.455 119.272 279.886 94.2713 278.708 91.1428C277.83 88.81 276.383 88.1544 270.214 87.2929C263.47 86.3511 257.43 86.0434 251.43 86.3359ZM250.848 89.7837C250.24 90.346 250.252 90.2982 249.512 94.895C249.213 96.7573 248.886 98.4796 248.787 98.7219C248.631 99.1024 248.304 99.1983 246.41 99.4196C243.652 99.7417 242.187 100.15 241.391 100.818C240.186 101.828 239.637 103.741 238.074 112.365C234.367 132.822 231.762 158.468 231.25 179.546C231.15 183.681 231.035 185.383 230.834 185.705C230.66 185.982 229.825 186.412 228.614 186.848C227.3 187.32 226.565 187.709 226.341 188.05C226.159 188.327 226.046 188.585 226.091 188.623C226.238 188.746 240.755 187.7 243.184 187.391C245.932 187.041 247.45 186.464 248.368 185.422C249.117 184.571 249.372 183.985 249.633 182.509C249.736 181.927 249.921 173.832 250.044 164.521C250.445 134.092 251.283 95.3997 251.642 90.7153C251.702 89.9298 251.669 89.2868 251.569 89.2868C251.468 89.2868 251.144 89.5103 250.848 89.7837ZM260.451 91.0254C260.452 91.9898 260.544 95.4928 260.657 98.8101C261.153 113.423 261.629 137.085 261.936 162.404C262.058 172.531 262.254 181.467 262.371 182.263C262.759 184.908 263.759 186.112 266.198 186.869C267.847 187.381 269.812 187.592 277.854 188.125C281.415 188.36 284.686 188.606 285.124 188.671C285.685 188.755 285.92 188.711 285.92 188.523C285.92 187.969 285.172 187.478 283.329 186.82C282.151 186.4 281.321 185.974 281.151 185.701C280.953 185.383 280.839 183.639 280.744 179.438C280.336 161.376 278.31 139.45 275.293 120.446C274.155 113.282 272.669 105.381 272.133 103.65C271.228 100.731 270.258 100.051 266.232 99.5148C264.822 99.3269 263.56 99.107 263.429 99.0264C263.298 98.9456 262.879 97.0308 262.497 94.771C261.779 90.5198 261.58 89.8747 260.87 89.4959C260.468 89.2811 260.45 89.3442 260.451 91.0254ZM226.067 195.486C226.067 195.999 226.946 196.601 228.466 197.128C231.297 198.111 231.069 197.519 231.239 204.348C231.734 224.218 233.861 246.366 237.216 266.581C239.407 279.788 240.102 282.38 241.741 283.458C242.475 283.941 244.231 284.334 247.454 284.734C248.176 284.823 248.634 284.996 248.749 285.222C248.847 285.415 249.192 287.239 249.517 289.276C250.163 293.328 250.44 294.174 251.237 294.537L251.766 294.777L251.649 293.243C251.261 288.153 250.44 250.538 250.046 219.862C249.827 202.789 249.733 200.781 249.09 199.545C248.734 198.86 247.788 197.99 246.931 197.559C245.235 196.706 244.395 196.602 233.071 195.844C230.445 195.668 227.794 195.47 227.181 195.403C226.526 195.332 226.067 195.366 226.067 195.486ZM276.683 195.952C268.522 196.555 266.934 196.765 265.335 197.459C263.524 198.245 262.72 199.424 262.37 201.802C262.254 202.598 262.058 211.629 261.935 221.872C261.627 247.614 261.233 267.156 260.632 286.475C260.497 290.813 260.441 294.416 260.507 294.481C260.737 294.711 261.456 294.154 261.681 293.569C261.807 293.245 262.198 291.226 262.55 289.084C262.902 286.942 263.266 285.114 263.359 285.023C263.452 284.932 264.626 284.711 265.969 284.532C270.074 283.986 270.844 283.593 271.7 281.609C272.864 278.912 275.688 262.511 277.431 248.326C279.334 232.838 280.816 212.473 280.824 201.705C280.826 198.089 280.846 198.055 283.479 197.142C285.019 196.608 285.92 196.003 285.92 195.501C285.92 195.266 286.123 195.256 276.683 195.952Z" fill="#040404"/>
</svg>
