<svg width="512" height="512" viewBox="0 0 512 512" fill="none" xmlns="http://www.w3.org/2000/svg">
<path fill-rule="evenodd" clip-rule="evenodd" d="M240.359 238.243C233.735 239.255 228.123 243.4 225.688 249.079C224.568 251.691 224.379 252.731 224.393 256.206C224.408 259.897 224.704 261.267 226.072 263.981C227.828 267.461 230.627 270.152 234.355 271.945C237.819 273.611 241.561 274.267 245.527 273.902C250.649 273.432 254.553 271.664 258.526 268.015L260.11 266.559L257.429 264.159C255.955 262.839 254.679 261.734 254.595 261.704C254.51 261.674 253.818 262.181 253.056 262.83C249.871 265.546 247.668 266.538 244.28 266.781C240.376 267.062 236.414 265.096 234.244 261.801C233.169 260.168 232.731 258.734 232.619 256.482C232.508 254.233 232.784 252.853 233.731 250.931C234.551 249.264 236.729 247.153 238.477 246.329C242.891 244.249 248.17 245.103 252.307 248.565C253.071 249.204 253.837 249.83 254.01 249.956C254.282 250.155 254.699 249.829 257.138 247.518L259.952 244.852L258.937 243.958C254.959 240.454 251.161 238.669 246.621 238.171C244.345 237.921 242.309 237.945 240.359 238.243ZM308.838 238.423C305.948 238.965 303.053 240.103 300.889 241.549C299.747 242.312 297.641 244.312 296.648 245.575C292.023 251.46 291.868 260.11 296.279 266.202C297.216 267.495 299.458 269.663 300.761 270.536C302.064 271.408 304.901 272.689 306.478 273.117C309.868 274.037 314.146 274.094 317.461 273.263C324.22 271.57 329.175 267.052 331.133 260.796C331.605 259.289 331.643 258.926 331.643 255.928C331.643 252.932 331.605 252.567 331.134 251.062C329.195 244.871 324.42 240.449 317.867 238.777C315.574 238.192 311.021 238.014 308.838 238.423ZM50 255.928V273.328H63.5514H77.1028V269.719V266.109H67.598H58.0932V252.319V238.528H54.0466H50V255.928ZM112.675 251.902C112.674 259.258 112.619 267.088 112.551 269.302L112.427 273.328H116.598H120.768V255.928V238.528H116.722H112.675L112.675 251.902ZM158.725 238.652C158.656 238.72 158.599 246.55 158.599 256.052V273.328H162.644H166.69L166.738 262.629L166.787 251.93L175.162 261.63C179.769 266.966 183.947 271.695 184.447 272.14C184.947 272.585 185.667 273.034 186.047 273.138C186.427 273.241 187.817 273.327 189.137 273.327L191.537 273.328V256.021V238.714H187.492H183.447L183.398 249.015L183.349 259.317L175.124 249.785C170.6 244.543 166.562 239.954 166.15 239.589C165.739 239.223 165.078 238.835 164.683 238.727C163.901 238.513 158.929 238.451 158.725 238.652ZM368.206 247.182C368.138 251.84 368.082 259.628 368.081 264.49L368.081 273.328H381.731H395.38L395.329 269.765L395.278 266.202L385.82 266.154L376.363 266.106V252.41V238.714H372.347H368.331L368.206 247.182ZM429.063 256.009V273.328H433.108H437.153L437.201 262.668L437.25 252.007L446.027 262.164C453.396 270.691 454.955 272.402 455.746 272.825C456.644 273.305 456.808 273.328 459.343 273.328H462V256.021V238.714H457.955H453.91L453.861 249.061L453.813 259.408L445.36 249.603C440.711 244.21 436.61 239.574 436.247 239.302C435.598 238.815 435.53 238.805 432.325 238.748L429.063 238.69V256.009ZM309.507 245.664C305.934 246.517 302.95 249.273 301.803 252.782C301.2 254.627 301.24 257.414 301.896 259.31C303.061 262.673 305.468 265.046 308.803 266.12C310.765 266.752 314.089 266.768 316.073 266.154C321.522 264.469 324.566 258.887 323.102 253.26C322.579 251.25 321.91 250.126 320.279 248.517C318.709 246.969 317.223 246.137 315.183 245.664C313.696 245.319 310.954 245.32 309.507 245.664Z" fill="#040404"/>
</svg>
