<svg width="512" height="512" viewBox="0 0 512 512" fill="none" xmlns="http://www.w3.org/2000/svg">
<path fill-rule="evenodd" clip-rule="evenodd" d="M465.071 249.256C462.621 249.256 460.138 249.256 457.688 249.256C457.859 248.882 458.029 248.542 458.199 248.202C459.424 245.787 460.682 245.005 463.404 245.005C464.663 245.005 465.921 245.005 467.18 245.005C466.5 246.4 465.785 247.828 465.071 249.256Z" fill="black"/>
<path fill-rule="evenodd" clip-rule="evenodd" d="M457.111 265.681C459.356 261.124 461.635 256.567 463.881 252.011C461.431 252.011 458.948 252.011 456.498 252.011C454.559 255.955 452.586 259.866 450.647 263.811C449.966 265.137 449.082 265.681 447.517 265.681C441.529 265.681 435.542 265.681 429.554 265.681C432.004 260.818 434.419 255.955 436.834 251.058C437.855 249.018 438.229 248.882 440.645 248.882C441.359 248.882 442.074 248.882 442.788 248.882C444.863 248.882 445.85 248.304 446.7 246.638C447.041 245.957 447.347 245.277 447.687 244.631C445.135 244.631 442.584 244.631 440.032 244.631C441.121 242.421 442.244 240.21 443.332 238C441.733 238 440.1 238 438.501 238C436.392 238 435.406 238.544 434.589 240.21C433.875 241.673 433.126 243.169 432.412 244.631C431.051 244.631 429.724 244.631 428.363 244.631C427.683 246.06 426.969 247.454 426.254 248.882C427.615 248.882 428.942 248.882 430.303 248.882C429.452 250.548 423.669 262.145 422.852 263.811C422.206 265.137 421.287 265.681 419.756 265.681C414.415 265.681 409.108 265.681 403.801 265.681C406.624 260.512 409.448 255.343 412.272 250.174C410.333 250.174 408.359 250.174 406.42 250.174C405.059 250.174 404.481 250.616 403.597 251.671C403.597 250.548 403.188 250.174 402.134 250.174C400.773 250.174 399.412 250.174 398.085 250.174C391.417 250.174 387.675 252.249 384.783 257.52C383.627 259.628 382.47 261.736 381.347 263.845C380.599 265.171 379.714 265.681 378.217 265.681C374.815 265.681 371.379 265.681 367.943 265.715C364.235 265.715 362.772 265.171 362.364 263.199C361.922 261.124 362.84 259.39 367.841 256.091C368.794 255.479 369.712 254.867 370.665 254.221C371.958 253.371 372.502 252.895 372.332 251.977C372.162 251.126 371.652 250.174 367.603 250.174C361.139 250.208 354.709 250.208 348.246 250.208C346.204 250.208 345.252 250.718 344.333 252.419C342.258 256.227 340.149 260.036 338.073 263.845C337.359 265.171 336.475 265.715 334.978 265.715C324.635 265.715 314.293 265.715 303.951 265.715C304.393 264.423 304.836 263.097 305.278 261.804C310.449 261.804 315.586 261.804 320.757 261.804C323.819 261.804 325.078 261.022 326.2 258.438C326.677 257.282 327.187 256.091 327.663 254.935C328.037 254.085 328.344 252.827 327.731 251.875C326.983 250.786 325.112 250.208 322.322 250.208C317.355 250.208 312.388 250.208 307.421 250.208C302.658 250.208 300.515 251.535 298.848 255.445C297.793 257.86 296.773 260.308 295.752 262.723C294.698 265.205 293.031 265.715 290.649 265.715C287.111 265.715 283.573 265.715 280.001 265.715C280.239 265.375 280.477 265.035 280.681 264.695C282.79 261.532 282.382 258.03 279.593 255.037C276.803 252.113 273.163 251.092 269.897 250.208C267.141 250.208 264.385 250.208 261.63 250.174C259.725 253.643 257.854 257.112 255.948 260.58C253.567 264.933 250.981 265.681 246.423 265.681C243.089 265.681 239.755 265.681 236.421 265.681C239.244 260.512 242.068 255.343 244.892 250.174C242.953 250.174 240.979 250.174 239.04 250.174C237.645 250.174 237.067 250.616 236.217 251.671C236.217 250.548 235.808 250.174 234.72 250.174C233.393 250.174 232.032 250.174 230.705 250.174C224.037 250.174 220.295 252.249 217.403 257.52C216.247 259.628 215.09 261.736 213.967 263.845C213.219 265.171 212.368 265.681 210.837 265.681C205.768 265.681 200.665 265.681 195.596 265.681C199.917 257.792 204.204 249.902 208.524 242.013C209.273 240.652 208.286 238.952 206.721 238.952C186.513 238.952 166.305 238.952 146.097 238.952C141.98 238.952 139.939 240.006 138 243.305C146.743 243.305 155.452 243.305 164.196 243.305C159.331 252.215 154.466 261.124 149.601 270C152.118 270 154.636 270 157.153 270C162.018 261.124 166.883 252.215 171.748 243.339C175.252 243.339 178.756 243.339 182.226 243.339C177.361 252.215 172.497 261.124 167.632 270C170.149 270 172.667 270 175.184 270C180.049 261.124 184.914 252.215 189.779 243.339C193.283 243.339 196.787 243.339 200.257 243.339C196.243 250.684 192.228 258.03 188.214 265.375C187.67 266.361 187.125 267.756 187.704 268.742C188.214 269.558 189.439 270 191.276 270C197.876 270 204.51 270 211.144 270C212.13 270 212.539 269.694 213.151 268.98C213.151 269.762 213.797 270 214.58 270C225.977 270 237.373 270 248.77 270C255.54 270 259.146 268.028 262.072 262.689C263.569 259.968 265.066 257.214 266.563 254.459C266.631 254.493 266.971 254.561 267.039 254.561C272.414 255.581 275.136 257.588 275.374 260.648C275.476 261.906 275.068 263.063 274.251 263.981C273.231 265.069 271.7 265.681 269.999 265.715C266.563 265.715 265.168 267.041 263.841 270C273.469 270 283.131 270 292.792 270C293.745 270 294.187 269.694 294.766 268.98C294.8 269.762 295.446 270 296.228 270C310.483 270 324.737 270 339.026 270C341.918 270 343.176 269.252 344.605 266.599C346.272 263.573 347.939 260.512 349.606 257.452C350.763 255.377 352.192 254.561 354.675 254.561C357.193 254.561 359.71 254.561 362.228 254.561C360.935 255.445 359.54 256.567 358.452 257.656C357.023 259.152 355.628 261.158 355.39 263.777C355.186 265.613 355.662 267.177 356.683 268.334C357.669 269.422 359.166 270 360.935 270C366.821 270 372.672 270 378.558 270C379.51 270 379.952 269.694 380.531 268.98C380.531 269.762 381.211 270 381.994 270C394.309 270 406.658 270 419.008 270C419.994 270 420.403 269.694 421.015 268.98C421.015 269.762 421.661 270 422.444 270C440.679 270 458.948 270 477.217 270C480.517 270 482.184 268.946 482.796 266.429C482.864 266.157 482.932 265.919 483 265.647C474.359 265.647 465.718 265.647 457.111 265.681ZM307.081 256.499C307.829 254.357 309.564 254.153 311.129 254.153C313.953 254.153 316.743 254.153 319.566 254.153C319.362 254.731 319.192 255.309 318.988 255.887C318.308 257.894 316.743 258.064 315.348 258.064C312.422 258.064 309.462 258.064 306.537 258.064C306.741 257.554 306.911 257.01 307.081 256.499ZM230.365 262.757C229.174 264.899 227.814 265.681 225.296 265.681C223.901 265.681 222.506 265.681 221.112 265.681C222.609 262.927 224.139 260.206 225.636 257.452C226.793 255.343 228.188 254.527 230.671 254.527C232.066 254.527 233.461 254.527 234.856 254.527C233.359 257.282 231.862 260.036 230.365 262.757ZM397.711 262.757C396.554 264.899 395.194 265.681 392.676 265.681C391.281 265.681 389.886 265.681 388.492 265.681C389.988 262.927 391.519 260.206 393.016 257.452C394.139 255.343 395.568 254.527 398.051 254.527C399.446 254.527 400.841 254.527 402.236 254.527C400.739 257.282 399.242 260.036 397.711 262.757Z" fill="black"/>
<path fill-rule="evenodd" clip-rule="evenodd" d="M55.2725 281.777C55.2725 280.444 55.2725 279.111 55.2725 277.778C58.731 277.778 62.1535 277.778 65.5761 277.778C68.9986 277.778 72.4211 277.778 75.8436 277.778C75.8436 279.111 75.8436 280.444 75.8436 281.777C72.4211 281.777 68.9986 281.777 65.5761 281.777C62.1535 281.777 58.731 281.777 55.2725 281.777Z" fill="black"/>
<path fill-rule="evenodd" clip-rule="evenodd" d="M65.5756 290.098C67.7372 290.098 69.8988 290.098 72.0604 290.098C72.0604 288.009 72.0604 285.955 72.0604 283.865C69.8988 283.865 67.7372 283.865 65.5756 283.865C63.414 283.865 61.2524 283.865 59.0908 283.865C59.0908 285.955 59.0908 288.009 59.0908 290.098C61.2524 290.098 63.414 290.098 65.5756 290.098Z" fill="black"/>
<path fill-rule="evenodd" clip-rule="evenodd" d="M59.0907 275.687C59.0547 272.265 58.1901 268.878 55.416 266.609C58.8025 266.609 62.189 266.609 65.5755 266.609C68.962 266.609 72.3485 266.609 75.735 266.609C72.961 268.878 72.0603 272.265 72.0603 275.687C69.8987 275.687 67.7371 275.687 65.5755 275.687C63.4139 275.687 61.2523 275.687 59.0907 275.687Z" fill="black"/>
<path fill-rule="evenodd" clip-rule="evenodd" d="M41.9062 259.98C41.9062 259.008 41.9062 257.999 41.9062 257.026C49.7961 257.026 57.6859 257.026 65.5757 257.026C73.4655 257.026 81.3554 257.026 89.2092 257.026C89.2092 257.999 89.2092 259.008 89.2092 259.98C81.3554 259.98 73.4655 259.98 65.5757 259.98C57.6859 259.98 49.7961 259.98 41.9062 259.98Z" fill="black"/>
<path fill-rule="evenodd" clip-rule="evenodd" d="M44.0317 270.68C46.8058 270.067 49.7599 268.518 51.7414 266.609C49.0034 266.609 46.2654 266.609 43.5273 266.609C43.7075 267.942 43.8516 269.311 44.0317 270.68Z" fill="black"/>
<path fill-rule="evenodd" clip-rule="evenodd" d="M87.1197 270.68C84.3457 270.067 81.3555 268.518 79.374 266.609C82.1481 266.609 84.8861 266.609 87.6241 266.609C87.444 267.942 87.2638 269.311 87.1197 270.68Z" fill="black"/>
<path fill-rule="evenodd" clip-rule="evenodd" d="M41.1137 250.505C38.5198 235.158 33.5121 219.162 28 208.642C33.9444 211.848 40.2851 216.964 47.0941 223.917C44.248 223.161 41.4379 222.584 38.6278 222.152C42.5547 231.447 45.7971 240.922 48.7513 250.505C46.1934 250.505 43.6716 250.505 41.1137 250.505Z" fill="black"/>
<path fill-rule="evenodd" clip-rule="evenodd" d="M90.038 250.505C92.5959 235.158 97.6036 219.162 103.116 208.642C97.2073 211.848 90.8666 216.964 84.0576 223.917C86.8677 223.161 89.7138 222.584 92.5239 222.152C88.597 231.447 85.3546 240.922 82.4004 250.505C84.9223 250.505 87.4801 250.505 90.038 250.505Z" fill="black"/>
<path fill-rule="evenodd" clip-rule="evenodd" d="M39.4209 255.477C39.4209 254.468 39.4209 253.459 39.4209 252.487C48.1393 252.487 56.8578 252.487 65.5762 252.487C74.2946 252.487 83.0131 252.487 91.7315 252.487C91.7315 253.459 91.7315 254.468 91.7315 255.477C83.0131 255.477 74.2946 255.477 65.5762 255.477C56.8578 255.477 48.1393 255.477 39.4209 255.477Z" fill="black"/>
<path fill-rule="evenodd" clip-rule="evenodd" d="M56.7489 207.021C60.7839 200.068 64.2425 192.178 65.5754 184C66.8724 192.178 70.331 200.068 74.402 207.021C72.9609 206.373 71.4118 205.688 69.7185 204.967C68.2774 204.283 67.665 204.679 67.701 206.192C68.2054 220.963 70.367 237.752 78.0767 250.505C75.0504 250.505 72.0242 250.505 68.998 250.505C67.5569 247.119 66.4401 243.768 65.5754 240.454C64.7108 243.768 63.558 247.119 62.1529 250.505C59.1267 250.505 56.1005 250.505 53.0742 250.505C60.7839 237.752 62.9455 220.963 63.4499 206.192C63.4859 204.679 62.8735 204.283 61.3964 204.967C59.7031 205.688 58.19 206.373 56.7489 207.021Z" fill="black"/>
<path fill-rule="evenodd" clip-rule="evenodd" d="M39.4209 264.52C39.4209 263.511 39.4209 262.538 39.4209 261.53C48.1393 261.53 56.8578 261.53 65.5762 261.53C74.2946 261.53 83.0131 261.53 91.7315 261.53C91.7315 262.538 91.7315 263.511 91.7315 264.52C83.0131 264.52 74.2946 264.52 65.5762 264.52C56.8578 264.52 48.1393 264.52 39.4209 264.52Z" fill="black"/>
</svg>
