<svg width="512" height="512" viewBox="0 0 512 512" fill="none" xmlns="http://www.w3.org/2000/svg">
<g clip-path="url(#clip0_1536_27543)">
<path d="M251.776 235V246.581H275.474C280.767 246.618 281.708 248.284 281.708 249.903V250.685H264.573C260.722 250.685 259.434 250.92 257.571 251.387C255.706 251.855 254.584 252.332 253.345 253.314C252.026 254.361 251.096 255.598 250.461 257.284C249.958 258.62 249.473 260.932 249.375 262.78L249.392 248.849C249.392 246.587 249.079 244.537 248.416 242.776C247.754 241.014 246.741 239.54 245.345 238.433C243.887 237.277 242.461 236.437 240.266 235.885C238.071 235.334 235.107 235.073 230.573 235.073H183.001V277.996H198.013V247.331H209.035V277.993H223.901V247.332H229.615C234.163 247.332 234.605 249.375 234.733 253.31V277.994H249.357L249.371 265.762C249.47 267.63 250.077 270.026 250.593 271.397C251.227 273.082 252.158 274.32 253.477 275.366C254.716 276.348 255.838 276.825 257.702 277.293C259.565 277.762 260.853 277.994 264.705 277.994H303.134L344.382 245.844V277.994H370.692C376.705 277.994 383.959 278.318 388.478 273.85C390.712 271.64 391.828 268.649 392.388 265.138L392.414 264.969V265.258C392.414 267.178 392.803 269.432 393.398 271.015C394.069 272.799 395.053 274.107 396.449 275.214C397.76 276.254 398.947 276.758 400.918 277.253C402.89 277.748 407.651 277.996 411.725 277.996H439V250.097C439 247.653 438.66 245.438 437.944 243.534C437.227 241.629 436.306 239.955 434.626 238.623C433.05 237.374 431.508 236.613 429.136 236.018C426.764 235.422 423.562 234.999 418.661 234.999H394.581V246.58H418.813C423.883 246.616 424.444 248.687 424.444 249.608V250.684H407.38C403.529 250.684 402.241 250.919 400.377 251.386C398.513 251.854 397.391 252.331 396.152 253.313C394.833 254.36 394.155 255.597 393.52 257.283C393.273 257.969 393.073 258.672 392.921 259.385C392.94 258.794 392.946 258.294 392.946 257.949V255.118C392.946 247.673 391.597 242.598 388.478 239.513C385.408 236.477 380.15 235.072 370.693 235.072H336.73L296.194 267.181V248.97C296.194 246.709 295.88 244.659 295.217 242.897C294.553 241.135 293.7 239.586 292.146 238.354C290.688 237.197 289.262 236.494 287.067 235.943C284.872 235.392 281.908 235 277.374 235H251.776ZM298.507 235.073V247.332H316.206L331.82 235.073H298.507ZM358.901 247.332H371.151C377.878 247.332 378.391 251.227 378.391 256.535C378.391 261.841 377.878 265.735 371.151 265.735H358.901V247.332ZM266.624 260.721H281.708V266.92H267.853C264.002 266.92 263.396 265.505 263.396 263.593C263.396 262.07 264.309 260.758 266.624 260.721ZM410.604 260.721H424.443V266.92H410.554C406.703 266.92 406.427 265.505 406.427 263.593C406.427 262.07 407.045 260.721 410.604 260.721ZM324.045 265.735L308.007 277.994H341.432V265.735H324.045Z" fill="#0080C5"/>
</g>
<path d="M164.701 234.824C158.468 228.1 148.411 225.019 133.078 225C117.746 225.019 107.689 228.1 101.455 234.824C96.8346 239.813 93.9219 246.719 93.9219 256.085C93.9219 261.264 95.1932 274.456 105.554 281.266C111.759 285.339 119.767 287.981 133.078 288C146.399 287.981 154.397 285.348 160.603 281.266C170.963 274.456 172.235 261.264 172.235 256.085C172.235 246.747 169.312 239.794 164.701 234.824ZM133.078 282.573C128.04 282.563 123.951 282.153 120.573 281.304C117.271 280.474 114.53 279.206 112.177 277.403C110.421 276.058 108.894 274.37 107.632 272.367C106.56 270.659 105.668 268.704 104.994 266.568C103.618 262.228 103.467 258.279 103.467 256.781C103.467 254.578 103.618 252.48 103.913 250.553C107.518 252.508 110.943 253.491 113.96 254.359C114.197 254.425 114.425 254.492 114.662 254.559C118.875 255.77 122.215 257.373 124.89 259.443C126.446 260.644 127.794 262.037 128.904 263.582C130.109 265.251 131.067 267.159 131.759 269.238C132.073 270.192 132.405 270.774 133.078 270.774C133.752 270.774 134.084 270.183 134.397 269.238C135.09 267.159 136.057 265.251 137.253 263.582C138.363 262.037 139.71 260.644 141.266 259.443C143.942 257.373 147.282 255.77 151.494 254.559C151.731 254.492 151.959 254.425 152.196 254.359C155.213 253.491 158.639 252.508 162.244 250.553C162.538 252.48 162.69 254.578 162.69 256.781C162.69 258.279 162.538 262.247 161.172 266.568C160.498 268.704 159.606 270.659 158.534 272.367C157.272 274.37 155.745 276.068 153.98 277.403C151.627 279.196 148.876 280.474 145.574 281.295C142.206 282.144 138.116 282.563 133.078 282.573ZM133.078 259.376C132.955 259.376 132.737 259.233 132.357 258.527C130.735 255.503 128.562 252.909 125.905 250.801C123.894 249.208 121.588 247.882 119.055 246.871C118.685 246.719 118.306 246.575 117.926 246.423C114.624 245.116 111.199 243.762 108.021 241.911C107.66 241.701 107.309 241.492 106.977 241.282C107.613 240.166 108.343 239.098 109.159 238.125C110.336 236.713 111.712 235.463 113.249 234.414C114.805 233.355 116.579 232.468 118.533 231.763C122.509 230.341 127.262 229.645 133.078 229.636C138.894 229.645 143.657 230.341 147.633 231.763C149.578 232.459 151.361 233.355 152.917 234.414C154.454 235.463 155.83 236.703 157.007 238.125C157.823 239.098 158.553 240.166 159.189 241.282C158.857 241.492 158.506 241.701 158.145 241.911C154.967 243.762 151.542 245.116 148.24 246.423C147.86 246.575 147.49 246.719 147.111 246.871C144.568 247.882 142.263 249.208 140.261 250.801C137.604 252.909 135.441 255.503 133.809 258.527C133.42 259.223 133.202 259.376 133.078 259.376Z" fill="black"/>
<path d="M169.986 243.895C168.743 240.528 166.902 237.533 164.54 234.977C161.428 231.619 157.405 229.206 152.234 227.613C147.072 226.021 140.81 225.238 133.078 225.229C125.345 225.238 119.083 226.011 113.922 227.613C108.751 229.216 104.728 231.619 101.616 234.977C99.2346 237.543 97.4035 240.547 96.1606 243.895C94.8228 247.51 94.1396 251.612 94.1396 256.095C94.1396 260.177 94.9746 274.055 105.677 281.085C109.007 283.279 112.622 284.862 116.702 285.94C121.351 287.17 126.711 287.771 133.068 287.771C139.435 287.762 144.786 287.161 149.435 285.94C153.524 284.862 157.13 283.269 160.46 281.085C171.162 274.055 171.997 260.177 171.997 256.095C172.016 251.621 171.333 247.52 169.986 243.895ZM106.711 241.282C107.375 240.109 108.134 239.012 108.988 237.981C113.846 232.154 121.503 229.426 133.087 229.416C144.672 229.426 152.329 232.154 157.186 237.981C158.04 239.002 158.799 240.109 159.464 241.282C159.483 241.31 159.492 241.339 159.511 241.368C159.483 241.387 159.454 241.406 159.435 241.415C158.828 241.797 158.202 242.169 157.547 242.531C154.558 244.181 151.389 245.44 148.325 246.652C147.945 246.804 147.575 246.947 147.196 247.1C141.313 249.437 136.882 253.319 134.027 258.632C133.666 259.309 133.381 259.605 133.097 259.605C132.812 259.605 132.528 259.309 132.167 258.632C129.302 253.319 124.871 249.437 118.998 247.1C118.628 246.957 118.258 246.804 117.888 246.661L117.878 246.652C114.814 245.44 111.645 244.181 108.656 242.531C108.001 242.169 107.375 241.797 106.768 241.415C106.74 241.396 106.711 241.377 106.692 241.368C106.673 241.329 106.692 241.31 106.711 241.282ZM154.122 277.584C149.34 281.218 143.05 282.783 133.087 282.792H133.078C123.097 282.773 116.797 281.218 112.034 277.584C103.656 271.194 103.229 259.128 103.229 256.772C103.229 254.454 103.39 252.279 103.703 250.267C103.713 250.238 103.713 250.2 103.722 250.171C103.751 250.19 103.779 250.2 103.808 250.219C107.48 252.251 110.886 253.224 114.026 254.12C114.263 254.187 114.501 254.254 114.728 254.32C118.96 255.541 122.328 257.144 125.023 259.233C126.598 260.454 127.964 261.856 129.083 263.42C130.298 265.108 131.266 267.025 131.968 269.133C132.3 270.135 132.603 270.507 133.068 270.507C133.533 270.507 133.827 270.135 134.169 269.133C134.871 267.025 135.839 265.108 137.053 263.42C138.173 261.865 139.539 260.454 141.114 259.233C143.809 257.144 147.177 255.532 151.408 254.32C151.646 254.254 151.873 254.187 152.11 254.12C155.251 253.224 158.657 252.241 162.329 250.219C162.357 250.2 162.386 250.19 162.414 250.171C162.424 250.2 162.424 250.238 162.433 250.267C162.756 252.289 162.908 254.454 162.908 256.772C162.927 259.128 162.5 271.213 154.122 277.584Z" fill="white"/>
<path fill-rule="evenodd" clip-rule="evenodd" d="M124.264 282.172C116.076 281.028 103.409 276.678 103.409 255.761C103.409 243.266 107.461 229.502 133.23 229.502C155.441 229.502 162.889 240.996 162.889 255.723C162.889 261.083 161.978 265.356 160.602 268.771C156.864 278.033 149.074 280.961 142.196 282.105C137.623 282.849 129.605 282.926 124.264 282.172ZM168.249 255.894C168.249 239.956 160.783 226.755 133.315 226.755C104.463 226.755 98.3809 242.741 98.3809 255.932C98.3809 278.004 113.116 283.364 123.827 284.633C129.254 285.282 137.11 285.234 142.139 284.643C152.756 283.393 168.249 278.071 168.249 255.894Z" fill="url(#paint0_linear_1536_27543)"/>
<path fill-rule="evenodd" clip-rule="evenodd" d="M124.264 282.172C116.076 281.028 103.334 276.678 103.409 255.761C103.457 242.836 108.846 229.502 133.23 229.502C155.479 229.502 162.557 241.043 162.889 255.723C163.003 260.997 162.006 265.232 160.65 268.628C156.845 278.157 149.426 280.904 142.196 282.096C137.623 282.849 129.605 282.926 124.264 282.172ZM168.249 255.894C168.249 239.956 160.783 226.755 133.315 226.755C104.463 226.755 98.3809 242.741 98.3809 255.932C98.3809 278.004 113.116 283.517 123.827 284.795C129.254 285.444 137.091 285.491 142.12 284.9C152.737 283.641 168.249 278.071 168.249 255.894Z" fill="url(#paint1_linear_1536_27543)"/>
<path fill-rule="evenodd" clip-rule="evenodd" d="M133.353 227.222V229.225C111.009 229.273 103.324 241.158 103.324 256.209C103.324 269.648 109.463 276.945 115.99 279.997C123.486 283.498 132.205 282.888 128.106 284.461C127.11 284.843 126.275 285.472 122.67 285.053C112.053 283.803 98.4756 278.538 98.4756 256.362C98.4756 240.433 105.924 227.241 133.353 227.222Z" fill="url(#paint2_linear_1536_27543)"/>
<path fill-rule="evenodd" clip-rule="evenodd" d="M171.969 256.543C171.874 264.631 169.103 273.95 162.538 279.425C155.649 285.167 145.07 287.666 133.106 287.666C121.246 287.666 111.019 285.625 103.276 279.091C97.1283 273.893 94.1396 264.66 94.1396 256.448C94.1396 247.51 97.005 238.029 104.462 232.297C111.597 226.822 123.22 225.134 133.059 225.134C144.046 225.134 154.701 226.936 161.807 232.64C169.189 238.563 172.073 247.424 171.969 256.543ZM168.088 256.247C168.088 241.434 159.492 227.108 133.154 227.108C104.301 227.108 98.2194 243.094 98.2194 256.285C98.2194 278.777 113.523 283.908 124.283 285.053C130.099 285.673 135.915 285.739 142.262 285.034C148.951 284.28 168.088 281.008 168.088 256.247Z" fill="url(#paint3_linear_1536_27543)"/>
<path opacity="0.74" fill-rule="evenodd" clip-rule="evenodd" d="M99.0264 248.931C100.364 245.088 102.044 238.726 106.968 234.328C112.518 229.378 122.281 227.623 125.137 227.299C124.017 226.641 123.429 226.498 121.788 225.973C113.761 227.156 106.949 229.359 102.091 234.491C96.958 239.899 95.4685 244.315 94.5576 250.362C96.2275 249.733 96.9106 249.58 99.0264 248.931Z" fill="url(#paint4_linear_1536_27543)"/>
<path fill-rule="evenodd" clip-rule="evenodd" d="M132.879 228.424C142.186 228.424 151.048 230.017 156.608 237.199C148.097 226.602 119.339 226.354 109.852 237.199C115.402 230.828 123.562 228.424 132.879 228.424Z" fill="url(#paint5_linear_1536_27543)"/>
<path fill-rule="evenodd" clip-rule="evenodd" d="M169.179 270.078C169.663 268.99 169.635 269.067 169.843 268.389C169.929 268.084 169.767 268.571 169.559 268.952C169.303 269.448 169.35 269.41 168.961 269.973C168.553 270.545 168.43 270.602 167.68 271.079C167.082 271.461 166.333 271.709 165.147 272.367C164.843 272.539 164.691 272.653 164.065 273.473C163.619 274.055 163.135 274.732 162.879 275.018C162.101 275.915 160.166 277.641 159.037 278.633C158.059 279.492 158.278 279.482 159.663 278.996C160.906 278.567 162.746 277.794 163.838 277.346C164.521 277.06 165.09 276.583 165.318 276.316C166.655 274.732 168.24 272.176 169.179 270.078Z" fill="url(#paint6_linear_1536_27543)"/>
<path opacity="0.9" fill-rule="evenodd" clip-rule="evenodd" d="M98.3814 256.219C98.3814 249.084 100.896 239.803 106.939 234.405C112.49 229.454 121.987 227.604 124.853 227.27C123.733 226.612 123.145 226.469 121.503 225.944C113.477 227.127 106.664 229.473 101.797 234.605C96.2277 240.481 94.1973 248.445 94.0645 255.074C95.4687 255.484 96.5218 255.78 98.3814 256.219Z" fill="url(#paint7_linear_1536_27543)"/>
<path opacity="0.2" fill-rule="evenodd" clip-rule="evenodd" d="M153.249 230.732C154.9 230.961 160.83 232.249 162.832 233.479C164.739 234.643 164.416 234.691 164.416 234.691L160.858 236.055C160.868 236.045 158.363 233.241 153.249 230.732Z" fill="url(#paint8_linear_1536_27543)"/>
<path opacity="0.2" fill-rule="evenodd" clip-rule="evenodd" d="M112.717 230.637C109.188 231.476 104.444 232.697 102.575 233.918C101.693 234.491 99.2637 237.686 99.2637 237.686L102.708 234.805C104.387 234.367 104.473 234.271 105.753 233.966C107.177 233.623 107.992 233.508 109.558 232.449C111.123 231.391 116.247 229.798 112.717 230.637Z" fill="url(#paint9_linear_1536_27543)" fill-opacity="0.42"/>
<path fill-rule="evenodd" clip-rule="evenodd" d="M96.8442 269.067C97.0814 269.572 97.3091 270.316 98.2294 270.726C98.941 271.041 99.5008 271.279 100.212 271.556C101.351 272.004 102.224 273.53 102.964 274.513C103.694 275.476 106.009 277.632 107.167 278.586C108.894 280.007 112.082 281.924 114.52 282.916C114.7 282.983 121.342 285.768 120.611 286.417C120.393 286.607 114.283 284.862 113.998 284.776C108.751 283.174 103.211 279.978 99.5197 274.656C99.0169 273.931 97.1857 270.574 96.7683 269.219C96.5026 268.351 96.55 268.418 96.8442 269.067Z" fill="url(#paint10_linear_1536_27543)"/>
<path opacity="0.9" fill-rule="evenodd" clip-rule="evenodd" d="M167.339 249.027C166.001 245.183 164.322 238.821 159.398 234.424C153.847 229.473 144.094 227.718 141.229 227.394C142.348 226.736 142.936 226.593 144.578 226.068C152.604 227.251 159.417 229.597 164.284 234.729C168.364 239.04 170.157 244.067 171.077 248.178C169.664 248.578 169.189 248.578 167.339 249.027Z" fill="url(#paint11_linear_1536_27543)"/>
<path fill-rule="evenodd" clip-rule="evenodd" d="M162.548 238.544L159.445 240.967L158.401 239.384C159.151 238.344 160.346 236.494 160.489 236.293C160.631 236.093 160.992 235.826 161.295 235.731C161.589 235.635 162.908 234.977 163.971 234.576L165.318 236.169L162.548 238.544Z" fill="url(#paint12_linear_1536_27543)"/>
<path fill-rule="evenodd" clip-rule="evenodd" d="M103.666 238.735L106.768 241.167L107.907 239.355C107.157 238.315 105.971 236.465 105.82 236.265C105.677 236.064 105.317 235.797 105.013 235.702C104.719 235.607 103.296 234.977 102.243 234.576L100.99 236.131L103.666 238.735Z" fill="url(#paint13_linear_1536_27543)"/>
<path d="M103.837 250.105C103.818 250.105 103.808 250.095 103.799 250.086C103.789 250.066 102.793 248.235 102.366 247.234C101.939 246.223 101.019 243.657 101.009 243.628C101 243.6 101.009 243.58 101.038 243.571C101.066 243.561 101.085 243.571 101.095 243.6C101.104 243.628 102.025 246.194 102.452 247.195C102.879 248.197 103.865 250.028 103.875 250.047C103.884 250.066 103.884 250.095 103.856 250.105C103.856 250.105 103.846 250.105 103.837 250.105Z" fill="#1A1A1A"/>
<path d="M103.694 250.105C103.675 250.105 103.666 250.095 103.656 250.086C103.647 250.066 102.651 248.235 102.224 247.234C101.797 246.223 100.876 243.657 100.867 243.628C100.857 243.6 100.867 243.58 100.895 243.571C100.924 243.561 100.943 243.571 100.952 243.6C100.962 243.628 101.882 246.194 102.309 247.195C102.736 248.197 103.723 250.028 103.732 250.047C103.742 250.066 103.742 250.095 103.713 250.105C103.704 250.105 103.704 250.105 103.694 250.105Z" fill="#1A1A1A"/>
<path fill-rule="evenodd" clip-rule="evenodd" d="M107.936 239.365C107.936 239.365 107.48 240.004 107.272 240.357C107.072 240.681 106.693 241.377 106.693 241.377C106.693 241.377 104.852 240.194 103.353 238.869C101.968 237.638 101.285 236.837 100.772 236.207C101.048 235.854 101.048 235.854 102.215 234.615C102.215 234.615 102.158 234.777 102.404 235.053C103.154 235.931 106.133 238.477 107.385 239.288C107.718 239.498 107.936 239.365 107.936 239.365Z" fill="url(#paint14_linear_1536_27543)"/>
<path fill-rule="evenodd" clip-rule="evenodd" d="M158.212 239.326C158.212 239.326 158.658 239.975 158.876 240.328C159.075 240.652 159.502 241.377 159.502 241.377C159.502 241.377 161.267 240.252 162.766 238.926C164.151 237.695 164.901 236.799 165.413 236.169C165.138 235.816 164.721 235.378 163.971 234.595C163.971 234.595 164 234.681 163.762 234.958C163.013 235.835 159.948 238.487 158.696 239.298C158.354 239.498 158.212 239.326 158.212 239.326Z" fill="url(#paint15_linear_1536_27543)"/>
<path d="M144.113 251.287C144.075 251.306 144.046 251.316 144.018 251.335C142.168 252.26 133.24 262.104 133.021 262.333C132.803 262.552 123.258 254.778 123.078 254.473C122.898 254.158 106.655 248.283 106.655 248.283L102.727 247.93C102.727 247.93 102.992 248.951 104.007 250.372C108.087 252.966 115.526 254.321 120.355 256.505C125.45 258.813 129.302 262.905 130.782 266.396C132.224 269.782 132.262 270.564 133.116 270.564C133.98 270.564 134.425 268.485 135.033 267.169C137.927 260.95 142.965 256.629 153.781 253.691C161.362 251.631 162.272 249.981 162.272 249.981L163.885 246.137C163.895 246.127 146.399 250.276 144.113 251.287Z" fill="url(#paint16_linear_1536_27543)"/>
<path fill-rule="evenodd" clip-rule="evenodd" d="M102.12 246.833C102.774 248.55 103.723 250.171 103.723 250.171C103.723 250.171 105.915 251.43 108.325 252.232C111.664 253.338 115.545 254.149 118.505 254.836C122.035 255.646 124.122 256.591 126.513 258.212C130.355 260.816 131.143 262.771 132.452 264.975C131.722 263.115 131.665 261.865 129.103 258.67C125.403 254.053 123.031 252.985 117.727 251.02C115.905 250.343 113.363 249.332 110.289 248.178C107.215 247.024 103.268 244.992 100.886 243.38C100.848 243.352 101.579 245.431 102.12 246.833Z" fill="url(#paint17_linear_1536_27543)"/>
<path fill-rule="evenodd" clip-rule="evenodd" d="M137.746 253.357C139.245 251.707 140.668 250.534 143.059 249.065C147.471 246.356 153.382 245.259 159.483 241.368C163.202 239.002 165.403 236.16 165.403 236.16C165.403 236.16 165.555 237.428 165.612 238.907C165.64 239.737 165.621 240.604 165.517 241.539C165.422 242.407 165.299 242.884 165.28 242.903C162.861 244.534 159.843 246.718 156.731 247.892C153.61 249.065 150.688 250.076 148.837 250.772C140.839 253.786 137.367 258.346 134.757 263.038C133.534 265.223 133.078 265.499 133.078 265.471C133.088 265.385 133.211 260.272 133.211 259.528C133.268 259.528 133.515 259.366 133.752 258.946C134.852 257.02 135.991 255.284 137.746 253.357Z" fill="url(#paint18_linear_1536_27543)"/>
<path fill-rule="evenodd" clip-rule="evenodd" d="M165.347 243.342C162.946 244.954 158.809 246.871 155.716 248.025C152.623 249.179 150.802 249.685 148.961 250.362C143.781 252.27 140.488 254.254 136.674 258.994C134.094 262.199 133.686 263.906 133.088 265.337C133.088 266.167 133.088 270.412 133.088 270.507C133.316 270.507 133.486 270.383 133.61 270.183C133.695 270.049 133.648 268.761 133.648 267.665C133.648 266.835 133.657 266.606 134.094 265.785C134.435 265.146 134.834 264.441 135.099 264.021C137.272 260.654 141.333 258.26 145.375 256.4C148.971 254.75 154.227 253.691 157.699 252.403C160.147 251.497 162.358 250.305 162.358 250.305C162.358 250.305 163.126 248.931 163.876 247.205C164.512 245.746 165.385 243.313 165.347 243.342Z" fill="url(#paint19_linear_1536_27543)"/>
<path fill-rule="evenodd" clip-rule="evenodd" d="M132.434 259.013C132.785 259.643 133.098 259.557 133.221 259.557C133.221 260.482 133.24 265.356 133.24 265.442C133.24 265.471 133.136 265.127 131.931 262.943C127.111 254.263 122.471 252.604 118.126 250.963C116.276 250.267 112.841 248.941 109.72 247.768C106.598 246.604 103.097 244.62 100.668 242.999C100.526 242.903 100.706 242.398 100.602 241.53C100.497 240.585 100.516 239.546 100.545 238.706C100.592 237.218 100.896 236.131 100.896 236.131C100.896 236.131 102.974 238.993 106.665 241.358C108.913 242.798 111.219 243.857 113.904 244.992C117.319 246.423 120.08 247.262 123.439 249.332C126.134 250.982 127.538 252.26 128.98 253.901C130.792 255.952 131.76 257.792 132.434 259.013Z" fill="url(#paint20_linear_1536_27543)"/>
<path fill-rule="evenodd" clip-rule="evenodd" d="M125.772 250.982C127.974 253.319 129.046 254.549 130.573 257.506C131.626 259.528 131.835 259.691 133.163 264.832L132.831 259.767C132.831 259.767 131.218 256.886 130.07 255.437C128.201 253.071 127.803 252.585 125.772 250.982Z" fill="black"/>
<path d="M133.078 259.815H133.249L133.078 264.536V259.815Z" fill="white"/>
<path d="M162.282 250.467C162.576 252.413 162.737 254.511 162.737 256.781C162.737 261.14 161.57 271.671 154.009 277.441C149.379 280.97 143.164 282.601 133.078 282.611C122.993 282.592 116.778 280.961 112.148 277.441C104.558 271.671 103.419 261.14 103.419 256.781C103.419 254.511 103.571 252.413 103.875 250.467C103.846 250.448 103.818 250.439 103.789 250.419C103.486 252.394 103.334 254.511 103.334 256.781C103.334 259.128 103.761 271.175 112.101 277.518C116.864 281.142 123.135 282.697 133.088 282.706C143.05 282.687 149.322 281.142 154.075 277.518C162.415 271.156 162.842 259.128 162.842 256.781C162.842 254.511 162.69 252.394 162.386 250.419C162.348 250.429 162.32 250.448 162.282 250.467Z" fill="black"/>
<path d="M109.122 238.096C113.837 232.43 121.456 229.607 133.078 229.597C144.692 229.607 152.31 232.43 157.035 238.096C157.851 239.078 158.591 240.147 159.246 241.301C159.274 241.282 159.303 241.263 159.331 241.253C158.686 240.109 157.946 239.04 157.111 238.048C152.272 232.24 144.635 229.531 133.088 229.521C121.522 229.521 113.894 232.23 109.055 238.039C108.22 239.04 107.48 240.109 106.835 241.244C106.863 241.263 106.892 241.282 106.92 241.291C107.566 240.147 108.306 239.088 109.122 238.096Z" fill="black"/>
<path d="M152.149 254.216C151.912 254.282 151.675 254.349 151.447 254.416C147.225 255.637 143.866 257.239 141.181 259.319C139.615 260.53 138.259 261.932 137.139 263.487C135.934 265.165 134.966 267.083 134.264 269.172C133.913 270.221 133.591 270.612 133.078 270.612C132.566 270.612 132.243 270.221 131.892 269.172C131.19 267.073 130.223 265.165 129.018 263.487C127.898 261.932 126.541 260.53 124.976 259.319C122.291 257.239 118.932 255.637 114.71 254.416C114.473 254.349 114.245 254.282 114.008 254.216C110.896 253.329 107.518 252.356 103.884 250.372C103.875 250.4 103.875 250.438 103.865 250.467C107.765 252.594 111.37 253.557 114.681 254.511C122.044 256.629 128.904 260.52 131.797 269.2C132.12 270.183 132.452 270.707 133.069 270.707C133.686 270.707 134.018 270.183 134.34 269.2C137.244 260.511 144.094 256.629 151.456 254.511C154.768 253.557 158.373 252.604 162.272 250.467C162.263 250.438 162.263 250.4 162.254 250.372C158.639 252.356 155.261 253.319 152.149 254.216Z" fill="black"/>
<path d="M162.282 250.467C162.31 250.448 162.339 250.438 162.367 250.419C162.358 250.391 162.358 250.353 162.348 250.324C162.32 250.343 162.291 250.353 162.263 250.372C162.272 250.4 162.282 250.429 162.282 250.467Z" fill="black"/>
<path d="M103.884 250.362C103.855 250.343 103.827 250.334 103.798 250.314C103.789 250.343 103.789 250.381 103.779 250.41C103.808 250.429 103.836 250.438 103.865 250.458C103.874 250.429 103.884 250.4 103.884 250.362Z" fill="black"/>
<path d="M106.911 241.301C106.883 241.282 106.854 241.263 106.826 241.253C106.807 241.282 106.797 241.31 106.778 241.329C106.807 241.349 106.835 241.368 106.864 241.377C106.883 241.358 106.902 241.329 106.911 241.301Z" fill="black"/>
<path d="M159.294 241.377C159.322 241.358 159.35 241.339 159.379 241.329C159.36 241.301 159.35 241.272 159.331 241.253C159.303 241.272 159.275 241.291 159.246 241.301C159.256 241.329 159.275 241.358 159.294 241.377Z" fill="black"/>
<path d="M108.628 242.531C111.617 244.181 114.786 245.44 117.85 246.652C118.23 246.804 118.6 246.948 118.979 247.1C124.862 249.437 129.293 253.319 132.149 258.632C132.509 259.309 132.794 259.605 133.078 259.605C133.363 259.605 133.648 259.309 134.008 258.632C136.874 253.319 141.304 249.437 147.177 247.1C147.547 246.957 147.917 246.804 148.287 246.661L148.297 246.652C151.362 245.44 154.53 244.181 157.519 242.531C158.174 242.169 158.8 241.797 159.407 241.415C159.436 241.396 159.464 241.377 159.483 241.368C159.464 241.339 159.455 241.31 159.436 241.282C158.772 240.109 158.012 239.012 157.159 237.982C152.301 232.154 144.644 229.426 133.059 229.416C121.475 229.426 113.818 232.154 108.96 237.982C108.106 239.002 107.347 240.109 106.683 241.282C106.664 241.31 106.655 241.339 106.636 241.368C106.664 241.387 106.693 241.406 106.712 241.415C107.347 241.797 107.974 242.169 108.628 242.531ZM109.055 238.039C113.894 232.23 121.522 229.521 133.078 229.512C144.635 229.521 152.263 232.23 157.102 238.039C157.956 239.059 158.705 240.156 159.369 241.33C158.762 241.711 158.136 242.083 157.481 242.445C154.492 244.096 151.333 245.355 148.268 246.566C147.889 246.719 147.519 246.862 147.139 247.014C141.238 249.361 136.798 253.262 133.923 258.584C133.581 259.214 133.316 259.509 133.078 259.509C132.841 259.509 132.576 259.214 132.234 258.584C129.359 253.252 124.919 249.361 119.017 247.014C118.647 246.862 118.268 246.719 117.888 246.566C114.824 245.355 111.655 244.096 108.676 242.445C108.021 242.083 107.395 241.711 106.788 241.33C107.442 240.156 108.201 239.059 109.055 238.039Z" fill="#666666"/>
<path d="M162.443 250.267C162.434 250.238 162.434 250.2 162.425 250.171C162.396 250.19 162.368 250.2 162.339 250.219C158.667 252.251 155.261 253.224 152.121 254.12C151.884 254.187 151.646 254.254 151.419 254.321C147.187 255.541 143.819 257.144 141.124 259.233C139.549 260.454 138.183 261.856 137.063 263.42C135.849 265.108 134.881 267.025 134.179 269.133C133.847 270.135 133.543 270.507 133.079 270.507C132.614 270.507 132.32 270.135 131.978 269.133C131.276 267.025 130.308 265.108 129.094 263.42C127.974 261.865 126.608 260.454 125.033 259.233C122.338 257.144 118.97 255.532 114.739 254.321C114.501 254.254 114.274 254.187 114.036 254.12C110.896 253.224 107.49 252.241 103.818 250.219C103.79 250.2 103.761 250.19 103.733 250.171C103.723 250.2 103.723 250.238 103.714 250.267C103.391 252.289 103.239 254.454 103.239 256.772C103.239 259.128 103.666 271.213 112.044 277.584C116.826 281.218 123.116 282.783 133.079 282.792H133.088C143.069 282.773 149.369 281.218 154.132 277.584C162.51 271.194 162.937 259.128 162.937 256.772C162.927 254.454 162.766 252.289 162.443 250.267ZM154.066 277.517C149.312 281.142 143.041 282.697 133.079 282.706C123.135 282.687 116.854 281.142 112.091 277.517C103.752 271.175 103.325 259.128 103.325 256.781C103.325 254.473 103.486 252.327 103.799 250.324C107.471 252.346 110.877 253.319 114.008 254.216C114.245 254.282 114.482 254.349 114.71 254.416C118.932 255.637 122.291 257.239 124.976 259.319C126.541 260.53 127.898 261.932 129.018 263.487C130.223 265.165 131.19 267.083 131.893 269.172C132.244 270.221 132.566 270.612 133.079 270.612C133.591 270.612 133.914 270.221 134.265 269.172C134.967 267.073 135.934 265.165 137.139 263.487C138.259 261.932 139.616 260.53 141.181 259.319C143.866 257.239 147.225 255.637 151.447 254.416C151.684 254.349 151.912 254.282 152.149 254.216C155.29 253.319 158.696 252.346 162.358 250.324C162.671 252.327 162.832 254.483 162.832 256.781C162.832 259.118 162.406 271.146 154.066 277.517Z" fill="#666666"/>
<path fill-rule="evenodd" clip-rule="evenodd" d="M100.753 236.312C100.819 235.998 100.905 236.045 100.848 236.303C100.667 237.133 100.591 238.726 100.62 240.338C100.639 241.492 100.876 242.732 100.876 242.732C100.724 242.722 100.516 242.77 100.459 242.961C100.278 241.091 100.174 238.897 100.753 236.312Z" fill="white"/>
<path fill-rule="evenodd" clip-rule="evenodd" d="M165.498 236.417C165.432 236.102 165.346 236.15 165.403 236.408C165.583 237.238 165.631 238.811 165.602 240.423C165.583 241.577 165.299 242.836 165.299 242.836C165.451 242.827 165.65 243.027 165.707 243.228C165.878 241.368 166.077 239.002 165.498 236.417Z" fill="#CCCCCC"/>
<path d="M172.197 256.085C172.197 261.255 170.925 274.437 160.574 281.237C154.379 285.31 146.38 287.943 133.078 287.962C119.776 287.943 111.778 285.31 105.583 281.237C95.2313 274.437 93.96 261.255 93.96 256.085C93.96 246.757 96.8822 239.813 101.484 234.844C107.708 228.129 117.756 225.057 133.078 225.038C148.401 225.057 158.449 228.129 164.673 234.853C169.294 239.832 172.197 246.728 172.197 256.085ZM133.078 287.867C139.454 287.857 144.815 287.256 149.473 286.026C153.572 284.948 157.187 283.355 160.527 281.152C171.267 274.093 172.102 260.177 172.102 256.085C172.102 251.593 171.419 247.482 170.081 243.857C168.838 240.5 166.988 237.486 164.607 234.91C161.485 231.543 157.443 229.121 152.263 227.518C147.092 225.916 140.82 225.134 133.078 225.134C125.336 225.143 119.065 225.925 113.894 227.518C108.714 229.121 104.672 231.543 101.55 234.91C99.1688 237.476 97.3281 240.49 96.0852 243.867C94.738 247.501 94.0548 251.612 94.0548 256.095C94.0548 260.187 94.8898 274.103 105.63 281.161C108.97 283.355 112.594 284.948 116.683 286.035C121.342 287.256 126.712 287.857 133.078 287.867Z" fill="black"/>
<path d="M133.078 287.866C126.712 287.857 121.351 287.256 116.683 286.026C112.584 284.948 108.97 283.355 105.63 281.152C94.8896 274.093 94.0547 260.177 94.0547 256.085C94.0547 251.612 94.7378 247.501 96.0851 243.857C97.3375 240.481 99.1781 237.476 101.55 234.901C104.672 231.534 108.713 229.111 113.894 227.509C119.065 225.906 125.336 225.124 133.078 225.124C140.82 225.134 147.092 225.916 152.263 227.509C157.443 229.111 161.485 231.534 164.606 234.901C166.997 237.476 168.838 240.49 170.081 243.848C171.428 247.472 172.102 251.583 172.102 256.076C172.102 260.167 171.267 274.084 160.527 281.142C157.187 283.336 153.563 284.929 149.473 286.016C144.815 287.256 139.445 287.857 133.078 287.866ZM133.078 287.771C139.435 287.762 144.796 287.161 149.445 285.94C153.534 284.862 157.139 283.269 160.47 281.085C171.172 274.055 172.007 260.177 172.007 256.095C172.007 251.612 171.324 247.51 169.986 243.895C168.743 240.547 166.912 237.543 164.53 234.977C161.418 231.62 157.396 229.206 152.225 227.614C147.063 226.021 140.801 225.238 133.069 225.229C125.336 225.238 119.074 226.011 113.913 227.614C108.742 229.216 104.719 231.62 101.607 234.977C99.2351 237.533 97.4039 240.538 96.161 243.895C94.8137 247.52 94.1401 251.621 94.1401 256.085C94.1401 260.167 94.975 274.046 105.677 281.075C109.008 283.269 112.622 284.852 116.702 285.93C121.361 287.161 126.712 287.762 133.078 287.771Z" fill="url(#paint21_linear_1536_27543)"/>
<path d="M165.261 243.676C165.271 243.647 165.261 243.628 165.233 243.619C165.205 243.609 165.186 243.619 165.176 243.647C165.167 243.676 164.256 246.242 163.838 247.253C163.411 248.254 162.434 250.085 162.425 250.105C162.415 250.124 162.425 250.152 162.444 250.162C162.453 250.162 162.453 250.162 162.463 250.162C162.482 250.162 162.491 250.152 162.501 250.143C162.501 250.143 163.373 248.588 163.914 247.281C164.446 245.975 165.261 243.676 165.261 243.676Z" fill="#1A1A1A"/>
<path d="M100.905 243.676C100.895 243.647 100.905 243.628 100.933 243.619C100.962 243.609 100.981 243.619 100.99 243.647C101 243.676 101.911 246.242 102.328 247.253C102.755 248.254 103.732 250.085 103.742 250.105C103.751 250.124 103.742 250.152 103.723 250.162C103.713 250.162 103.713 250.162 103.704 250.162C103.685 250.162 103.675 250.152 103.666 250.143C103.666 250.143 102.793 248.588 102.252 247.281C101.721 245.975 100.905 243.676 100.905 243.676Z" fill="#1A1A1A"/>
<path fill-rule="evenodd" clip-rule="evenodd" d="M155.204 276.688C155.745 276.211 155.631 276.23 154.958 276.793C153.999 277.584 153.183 278.252 151.514 279.177C150.935 279.473 150.385 279.807 149.768 280.064C144.293 282.315 140.584 282.554 134.065 282.754C133.895 282.764 133.733 282.764 133.572 282.764C133.411 282.764 133.24 282.764 133.079 282.764C127.671 282.764 121.968 282.258 117.31 280.513C116.684 280.274 116.057 279.969 115.469 279.692C114.217 278.996 113.164 278.347 112.092 277.508C111.399 276.964 111.219 276.898 111.769 277.365C111.38 277.088 111.446 277.155 111.968 277.632C116.057 281.39 120.631 282.907 127.519 283.384C129.407 283.555 131.418 283.603 133.591 283.555C135.754 283.536 137.766 283.422 139.654 283.202C146.523 282.506 151.039 280.856 155.015 276.974C155.517 276.468 155.584 276.402 155.204 276.688Z" fill="url(#paint22_linear_1536_27543)"/>
<path d="M166.476 245.173C166.257 244.525 166.011 243.876 165.745 243.256C165.65 243.046 165.489 242.922 165.29 242.922C165.185 242.922 165.09 242.961 164.995 243.018C160.166 246.318 155.109 248.111 151.039 249.551C147.395 250.839 143.951 252.06 141.684 253.701C140.023 254.902 138.335 256.572 136.684 258.651C135.498 260.148 134.245 262.218 133.078 264.65C131.902 262.218 130.659 260.139 129.473 258.651C127.813 256.572 126.133 254.902 124.473 253.701C122.205 252.06 118.771 250.839 115.118 249.551C111.057 248.111 106 246.318 101.161 243.018C101.066 242.951 100.962 242.922 100.867 242.922C100.668 242.922 100.506 243.046 100.412 243.256C100.146 243.876 99.8993 244.525 99.681 245.173C98.4951 248.645 97.9258 252.537 97.9258 257.058C97.9258 261.818 98.941 273.588 108.315 280.007C111.218 281.991 114.501 283.422 118.334 284.356C122.367 285.339 127.148 285.835 132.945 285.844H133.202C138.999 285.825 143.781 285.339 147.813 284.356C151.656 283.422 154.929 281.991 157.832 280.007C167.216 273.588 168.221 261.818 168.221 257.058C168.24 252.537 167.662 248.655 166.476 245.173ZM157.794 279.931C154.9 281.915 151.627 283.326 147.803 284.271C143.752 285.263 138.951 285.749 133.116 285.759H133.078H133.04C127.205 285.749 122.404 285.263 118.353 284.271C114.52 283.336 111.256 281.915 108.362 279.931C99.0169 273.54 98.0112 261.808 98.0112 257.058C98.0112 252.546 98.5804 248.664 99.7664 245.202C99.9846 244.553 100.231 243.905 100.497 243.285C100.573 243.104 100.706 243.008 100.867 243.008C100.952 243.008 101.028 243.037 101.114 243.094C105.953 246.404 111.019 248.197 115.089 249.637C118.723 250.925 122.167 252.146 124.416 253.777C126.2 255.065 127.879 256.791 129.397 258.708C130.735 260.387 132.006 262.609 133.078 264.86C134.15 262.609 135.422 260.387 136.76 258.708C138.287 256.791 139.966 255.065 141.741 253.777C143.999 252.146 147.433 250.925 151.067 249.637C155.138 248.197 160.204 246.404 165.043 243.094C165.119 243.037 165.204 243.008 165.29 243.008C165.451 243.008 165.584 243.113 165.66 243.285C165.925 243.905 166.172 244.544 166.39 245.202C167.567 248.664 168.145 252.546 168.145 257.058C168.145 261.808 167.13 273.531 157.794 279.931Z" fill="url(#paint23_linear_1536_27543)"/>
<path d="M105.734 236.207C105.706 236.207 105.677 236.198 105.658 236.179C105.563 236.083 105.43 235.988 105.307 235.912C105.269 235.893 105.25 235.855 105.25 235.816C105.241 235.721 105.184 235.721 105.468 235.444C105.487 235.425 105.497 235.416 105.506 235.416C105.905 235.006 106.417 234.529 106.892 234.128C107.736 233.394 108.647 232.707 109.596 232.087C111.455 230.876 113.571 229.855 115.886 229.054C118.23 228.243 120.848 227.623 123.685 227.213C126.503 226.803 129.625 226.593 132.955 226.593H133.239C136.579 226.602 139.701 226.812 142.518 227.213C145.346 227.623 147.974 228.243 150.318 229.054C152.633 229.855 154.748 230.876 156.608 232.087C157.557 232.707 158.468 233.384 159.312 234.128C159.777 234.529 160.299 235.015 160.697 235.425C160.707 235.435 160.716 235.444 160.735 235.463C160.991 235.711 160.925 235.731 160.915 235.816C160.915 235.855 160.887 235.893 160.859 235.912C160.754 235.969 160.64 236.064 160.507 236.198C160.489 236.217 160.46 236.227 160.432 236.227C160.318 236.227 160.242 235.998 160.118 235.864C154.397 230.151 145.564 227.365 133.107 227.356C120.639 227.365 111.806 230.151 106.104 235.855C105.905 236.026 105.838 236.207 105.734 236.207Z" fill="#B3B3B3"/>
<path opacity="0.9" d="M165.29 243.523L165.242 243.418L165.147 243.485C163.487 244.62 161.627 245.641 158.733 247.005C156.352 248.13 153.743 249.055 151.228 249.952C147.623 251.23 144.217 252.441 142.025 254.044C138.657 256.495 135.517 260.539 133.41 265.137C133.258 265.471 133.192 265.557 133.078 265.557C132.964 265.557 132.898 265.471 132.746 265.137C130.64 260.539 127.499 256.495 124.131 254.044C121.939 252.441 118.533 251.23 114.928 249.952C112.404 249.055 109.795 248.13 107.423 247.005C104.529 245.641 102.679 244.62 101.009 243.485L100.914 243.418L100.867 243.523C99.2445 247.377 98.457 251.793 98.457 257.029C98.457 261.713 99.4438 273.283 108.619 279.559C114.34 283.479 121.883 285.234 133.059 285.263H133.088H133.116C144.293 285.243 151.836 283.479 157.557 279.559C166.732 273.273 167.718 261.703 167.718 257.029C167.709 251.793 166.921 247.377 165.29 243.523ZM157.443 279.406C151.75 283.307 144.236 285.053 133.078 285.072C121.921 285.053 114.406 283.307 108.713 279.406C99.6146 273.168 98.6373 261.674 98.6373 257.029C98.6373 251.869 99.4058 247.51 100.99 243.704C102.641 244.82 104.491 245.832 107.328 247.176C109.719 248.302 112.328 249.237 114.852 250.133C118.438 251.411 121.835 252.623 124.008 254.197C127.348 256.629 130.469 260.644 132.566 265.223C132.727 265.547 132.832 265.766 133.078 265.766C133.325 265.766 133.429 265.537 133.581 265.213C135.678 260.644 138.799 256.619 142.139 254.187C144.312 252.604 147.708 251.402 151.295 250.124C153.819 249.227 156.437 248.292 158.819 247.167C161.665 245.822 163.515 244.811 165.157 243.695C166.741 247.501 167.51 251.86 167.51 257.02C167.519 261.675 166.542 273.168 157.443 279.406Z" fill="url(#paint24_linear_1536_27543)"/>
<path d="M165.29 243.523L165.242 243.418L165.147 243.485C163.487 244.62 161.627 245.641 158.733 247.005C156.352 248.13 153.743 249.055 151.228 249.952C147.623 251.23 144.217 252.441 142.025 254.044C138.657 256.495 135.517 260.539 133.41 265.137C133.258 265.471 133.192 265.557 133.078 265.557C132.964 265.557 132.898 265.471 132.746 265.137C130.64 260.539 127.499 256.495 124.131 254.044C121.939 252.441 118.533 251.23 114.928 249.952C112.404 249.055 109.795 248.13 107.423 247.005C104.529 245.641 102.679 244.62 101.009 243.485L100.914 243.418L100.867 243.523C99.2445 247.377 98.457 251.793 98.457 257.029C98.457 261.713 99.4438 273.283 108.619 279.559C114.34 283.479 121.883 285.234 133.059 285.263H133.088H133.116C144.293 285.243 151.836 283.479 157.557 279.559C166.732 273.273 167.718 261.703 167.718 257.029C167.709 251.793 166.921 247.377 165.29 243.523ZM157.443 279.406C151.75 283.307 144.236 285.053 133.078 285.072C121.921 285.053 114.406 283.307 108.713 279.406C99.6146 273.168 98.6373 261.674 98.6373 257.029C98.6373 251.869 99.4058 247.51 100.99 243.704C102.641 244.82 104.491 245.832 107.328 247.176C109.719 248.302 112.328 249.237 114.852 250.133C118.438 251.411 121.835 252.623 124.008 254.197C127.348 256.629 130.469 260.644 132.566 265.223C132.727 265.547 132.832 265.766 133.078 265.766C133.325 265.766 133.429 265.537 133.581 265.213C135.678 260.644 138.799 256.619 142.139 254.187C144.312 252.604 147.708 251.402 151.295 250.124C153.819 249.227 156.437 248.292 158.819 247.167C161.665 245.822 163.515 244.811 165.157 243.695C166.741 247.501 167.51 251.86 167.51 257.02C167.519 261.675 166.542 273.168 157.443 279.406Z" fill="url(#paint25_linear_1536_27543)"/>
<path d="M166.39 245.03C166.172 244.382 165.925 243.733 165.659 243.113C165.583 242.932 165.45 242.836 165.289 242.836C165.204 242.836 165.128 242.865 165.042 242.922C160.204 246.251 155.137 248.054 151.067 249.494C147.433 250.791 143.989 252.012 141.74 253.653C139.957 254.95 138.277 256.686 136.759 258.603C135.421 260.291 134.15 262.523 133.078 264.784C132.006 262.523 130.734 260.291 129.397 258.603C127.869 256.676 126.19 254.95 124.415 253.653C122.157 252.012 118.723 250.791 115.089 249.494C111.019 248.044 105.952 246.242 101.113 242.922C101.037 242.865 100.952 242.836 100.867 242.836C100.705 242.836 100.572 242.941 100.497 243.113C100.231 243.733 99.9842 244.382 99.766 245.03C98.5895 248.512 98.0107 252.403 98.0107 256.934C98.0107 261.703 99.0165 273.483 108.362 279.902C111.256 281.895 114.529 283.317 118.353 284.261C122.404 285.253 127.205 285.749 133.04 285.758H133.078H133.116C138.951 285.749 143.752 285.253 147.803 284.261C151.636 283.317 154.9 281.895 157.794 279.902C167.139 273.483 168.145 261.703 168.145 256.934C168.145 252.403 167.566 248.512 166.39 245.03ZM157.538 279.549C151.816 283.469 144.264 285.234 133.078 285.243C121.882 285.224 114.339 283.469 108.618 279.549C99.4529 273.263 98.4567 261.703 98.4567 257.02C98.4567 251.745 99.2631 247.3 100.914 243.428C102.593 244.582 104.481 245.622 107.413 247.005C109.795 248.13 112.404 249.055 114.918 249.952C118.523 251.23 121.92 252.441 124.121 254.044C127.49 256.495 130.63 260.539 132.736 265.137C132.879 265.442 132.945 265.537 133.04 265.556H133.078H133.116C133.211 265.537 133.287 265.442 133.419 265.137C135.526 260.539 138.666 256.495 142.034 254.044C144.226 252.451 147.632 251.24 151.238 249.952C153.761 249.055 156.371 248.13 158.743 247.005C161.674 245.622 163.553 244.582 165.242 243.428C166.893 247.3 167.699 251.745 167.699 257.02C167.699 261.703 166.703 273.273 157.538 279.549Z" fill="white"/>
<path d="M163.904 234.538C163.392 234.758 161.731 235.32 161.029 235.549L161.01 235.559C160.963 235.578 160.915 235.578 160.868 235.578C160.763 235.578 160.669 235.54 160.602 235.482C160.194 235.072 159.682 234.586 159.217 234.185C158.373 233.451 157.462 232.764 156.522 232.154C154.672 230.952 152.556 229.931 150.251 229.13C147.917 228.319 145.298 227.699 142.471 227.299C139.634 226.889 136.484 226.679 133.116 226.679H133.068H133.011C129.643 226.688 126.493 226.898 123.656 227.299C120.829 227.709 118.21 228.319 115.876 229.13C113.571 229.931 111.465 230.942 109.605 232.154C108.656 232.764 107.755 233.451 106.91 234.185C106.436 234.595 105.933 235.063 105.535 235.473C105.478 235.53 105.345 235.597 105.24 235.597C105.193 235.597 105.155 235.587 105.108 235.568L105.089 235.559C104.396 235.33 102.745 234.777 102.242 234.557L102.214 234.595C102.375 234.662 102.688 234.834 103.058 235.006C103.808 235.339 104.738 235.759 104.918 235.826C105.003 235.854 105.089 235.893 105.184 235.95C105.316 236.026 105.459 236.131 105.554 236.236C105.592 236.274 105.62 236.312 105.648 236.341C105.734 236.455 107.546 238.897 107.897 239.384L107.926 239.336C107.907 239.317 106.426 237.094 105.971 236.436C105.838 236.236 105.857 235.921 105.99 235.778C111.721 230.055 120.573 227.261 133.068 227.251C145.554 227.261 154.416 230.065 160.147 235.788C160.28 235.931 160.28 236.236 160.147 236.436C159.729 237.047 158.448 238.954 158.202 239.326L158.24 239.374L158.268 239.336C158.619 238.849 160.374 236.446 160.46 236.322C160.479 236.293 160.517 236.255 160.555 236.217C160.659 236.122 160.782 235.998 160.925 235.921C161.02 235.864 161.143 235.788 161.228 235.759C161.409 235.702 162.319 235.282 163.06 234.948C163.43 234.777 163.79 234.653 163.951 234.586L163.904 234.538Z" fill="white"/>
<path d="M159.417 241.415C159.445 241.396 159.474 241.377 159.493 241.368C159.474 241.339 159.464 241.31 159.445 241.282C158.781 240.109 158.022 239.012 157.168 237.982C152.311 232.154 144.654 229.426 133.069 229.416C121.485 229.426 113.828 232.154 108.97 237.982C108.116 239.002 107.357 240.109 106.693 241.282C106.674 241.31 106.664 241.339 106.646 241.368C106.674 241.387 106.702 241.406 106.721 241.415C107.329 241.797 107.955 242.169 108.609 242.531C111.598 244.181 114.767 245.44 117.832 246.652L117.841 246.661C118.211 246.804 118.581 246.957 118.951 247.1C124.834 249.437 129.265 253.319 132.12 258.632C132.481 259.309 132.766 259.605 133.05 259.605C133.335 259.605 133.619 259.309 133.98 258.632C136.845 253.319 141.276 249.437 147.149 247.1C147.519 246.948 147.899 246.804 148.278 246.652C151.343 245.44 154.512 244.181 157.5 242.531C158.184 242.169 158.81 241.797 159.417 241.415ZM159.37 241.33C158.762 241.711 158.136 242.083 157.481 242.445C154.493 244.096 151.333 245.355 148.269 246.566C147.889 246.719 147.519 246.862 147.14 247.014C141.238 249.361 136.798 253.262 133.923 258.584C133.582 259.214 133.316 259.509 133.079 259.509C132.841 259.509 132.576 259.214 132.234 258.584C129.359 253.252 124.919 249.361 119.018 247.014C118.648 246.862 118.268 246.719 117.889 246.566C114.824 245.355 111.655 244.096 108.676 242.445C108.021 242.083 107.395 241.711 106.788 241.33C107.442 240.156 108.202 239.059 109.055 238.039C113.894 232.23 121.532 229.521 133.079 229.512C144.625 229.521 152.263 232.23 157.102 238.039C157.956 239.059 158.715 240.156 159.37 241.33Z" fill="#4D4D4D"/>
<path d="M103.229 256.772C103.229 259.128 103.656 271.194 112.034 277.584C116.797 281.218 123.097 282.783 133.078 282.792H133.088C143.05 282.773 149.35 281.218 154.122 277.584C162.5 271.213 162.927 259.128 162.927 256.772C162.927 254.454 162.766 252.279 162.453 250.267C162.443 250.238 162.443 250.2 162.434 250.171C162.405 250.19 162.377 250.2 162.348 250.219C158.677 252.251 155.27 253.224 152.13 254.12C151.893 254.187 151.656 254.254 151.428 254.321C147.196 255.541 143.828 257.144 141.133 259.233C139.558 260.454 138.192 261.856 137.073 263.42C135.858 265.108 134.89 267.025 134.188 269.133C133.856 270.135 133.553 270.507 133.088 270.507C132.623 270.507 132.329 270.135 131.987 269.133C131.285 267.025 130.317 265.108 129.103 263.42C127.983 261.865 126.617 260.454 125.042 259.233C122.348 257.144 118.979 255.532 114.748 254.321C114.511 254.254 114.283 254.187 114.046 254.12C110.905 253.224 107.499 252.241 103.827 250.219C103.799 250.2 103.77 250.19 103.742 250.171C103.732 250.2 103.732 250.238 103.723 250.267C103.391 252.289 103.229 254.454 103.229 256.772ZM103.324 256.772C103.324 254.464 103.486 252.317 103.799 250.314C107.471 252.337 110.877 253.309 114.008 254.206C114.245 254.273 114.482 254.34 114.71 254.406C118.932 255.627 122.291 257.23 124.976 259.309C126.541 260.52 127.898 261.922 129.017 263.477C130.222 265.156 131.19 267.073 131.892 269.162C132.243 270.211 132.566 270.602 133.078 270.602C133.591 270.602 133.913 270.211 134.264 269.162C134.966 267.064 135.934 265.156 137.139 263.477C138.259 261.922 139.615 260.52 141.181 259.309C143.866 257.23 147.225 255.627 151.447 254.406C151.684 254.34 151.912 254.273 152.149 254.206C155.289 253.309 158.696 252.337 162.358 250.314C162.671 252.317 162.832 254.473 162.832 256.772C162.832 259.118 162.405 271.165 154.065 277.508C149.303 281.132 143.031 282.687 133.078 282.697C123.116 282.678 116.845 281.132 112.091 277.508C103.751 271.146 103.324 259.118 103.324 256.772Z" fill="#4D4D4D"/>
<path d="M133.078 287.866C126.702 287.857 121.342 287.256 116.683 286.026C112.584 284.948 108.97 283.355 105.63 281.152C94.8896 274.093 94.0547 260.177 94.0547 256.085C94.0547 251.593 94.7378 247.482 96.0756 243.857C97.3185 240.5 99.1686 237.486 101.55 234.91C104.672 231.543 108.713 229.121 113.894 227.518C119.065 225.916 125.336 225.134 133.078 225.134C140.82 225.143 147.092 225.925 152.263 227.518C157.443 229.121 161.485 231.543 164.606 234.91C166.988 237.476 168.828 240.49 170.071 243.867C171.419 247.501 172.102 251.612 172.102 256.095C172.102 260.187 171.267 274.103 160.527 281.161C157.187 283.355 153.563 284.948 149.473 286.035C144.815 287.256 139.445 287.857 133.078 287.866ZM133.078 287.771C139.445 287.762 144.796 287.161 149.445 285.94C153.534 284.862 157.139 283.269 160.47 281.085C171.172 274.055 172.007 260.177 172.007 256.095C172.007 251.631 171.324 247.529 169.986 243.905C168.743 240.538 166.902 237.543 164.54 234.987C161.428 231.629 157.405 229.216 152.234 227.623C147.073 226.03 140.811 225.248 133.078 225.238C125.346 225.248 119.084 226.021 113.922 227.623C108.751 229.225 104.729 231.629 101.617 234.987C99.2351 237.552 97.4039 240.557 96.161 243.905C94.8232 247.52 94.1401 251.621 94.1401 256.104C94.1401 260.187 94.975 274.065 105.677 281.094C109.008 283.288 112.622 284.871 116.702 285.949C121.361 287.161 126.712 287.762 133.078 287.771Z" fill="url(#paint26_linear_1536_27543)"/>
<defs>
<linearGradient id="paint0_linear_1536_27543" x1="125.519" y1="226.658" x2="141.329" y2="285.351" gradientUnits="userSpaceOnUse">
<stop offset="0.2121"/>
<stop offset="0.3594" stop-color="#0B0B0B"/>
<stop offset="0.5939" stop-color="#262626"/>
<stop offset="0.8496" stop-color="#B2B2B2"/>
<stop offset="1" stop-color="white"/>
</linearGradient>
<linearGradient id="paint1_linear_1536_27543" x1="125.517" y1="226.658" x2="141.384" y2="285.56" gradientUnits="userSpaceOnUse">
<stop/>
<stop offset="0.5636" stop-color="#1A1A1A"/>
<stop offset="0.6183" stop-color="#202020"/>
<stop offset="0.7091" stop-color="#262626"/>
<stop offset="0.8364" stop-color="white"/>
<stop offset="0.8909" stop-color="white"/>
<stop offset="1" stop-color="#808080"/>
</linearGradient>
<linearGradient id="paint2_linear_1536_27543" x1="125.106" y1="225.002" x2="109.745" y2="282.027" gradientUnits="userSpaceOnUse">
<stop stop-opacity="0"/>
<stop offset="0.6061" stop-color="#1A1A1A"/>
<stop offset="0.6637" stop-color="#1D1D1D"/>
<stop offset="0.7091" stop-color="#262626"/>
<stop offset="0.8667" stop-color="#EEEEEE"/>
<stop offset="1" stop-color="#DCDCDC" stop-opacity="0"/>
</linearGradient>
<linearGradient id="paint3_linear_1536_27543" x1="144.514" y1="287.788" x2="121.48" y2="224.837" gradientUnits="userSpaceOnUse">
<stop offset="0.0364"/>
<stop offset="0.1939"/>
<stop offset="0.2857" stop-color="#343434"/>
<stop offset="0.448" stop-color="#8A8A8A"/>
<stop offset="0.5807" stop-color="#C9C9C9"/>
<stop offset="0.6771" stop-color="#F0F0F0"/>
<stop offset="0.7273" stop-color="white"/>
<stop offset="1" stop-color="#4D4D4D"/>
</linearGradient>
<linearGradient id="paint4_linear_1536_27543" x1="105.469" y1="253.499" x2="114.047" y2="223.74" gradientUnits="userSpaceOnUse">
<stop stop-color="white" stop-opacity="0"/>
<stop offset="0.4606" stop-color="white"/>
<stop offset="0.5396" stop-color="#F0F0F0" stop-opacity="0.8536"/>
<stop offset="1" stop-color="#9A9A9A" stop-opacity="0"/>
</linearGradient>
<linearGradient id="paint5_linear_1536_27543" x1="109.847" y1="232.813" x2="156.603" y2="232.813" gradientUnits="userSpaceOnUse">
<stop/>
<stop offset="0.00346498" stop-color="#020202" stop-opacity="0.9965"/>
<stop offset="0.0735" stop-color="#272727" stop-opacity="0.9265"/>
<stop offset="0.1469" stop-color="#464646" stop-opacity="0.8531"/>
<stop offset="0.2233" stop-color="#5E5E5E" stop-opacity="0.7767"/>
<stop offset="0.3043" stop-color="#6F6F6F" stop-opacity="0.6957"/>
<stop offset="0.3928" stop-color="#797979" stop-opacity="0.6072"/>
<stop offset="0.503" stop-color="#7C7C7C" stop-opacity="0.497"/>
<stop offset="1"/>
</linearGradient>
<linearGradient id="paint6_linear_1536_27543" x1="163.058" y1="270.776" x2="165.309" y2="276.929" gradientUnits="userSpaceOnUse">
<stop offset="0.2364" stop-opacity="0"/>
<stop offset="0.4424"/>
<stop offset="0.6909" stop-opacity="0.7394"/>
<stop offset="1" stop-opacity="0"/>
</linearGradient>
<linearGradient id="paint7_linear_1536_27543" x1="117.219" y1="223.017" x2="98.102" y2="257.322" gradientUnits="userSpaceOnUse">
<stop stop-color="white" stop-opacity="0"/>
<stop offset="0.3697" stop-color="white"/>
<stop offset="1" stop-color="#808080" stop-opacity="0"/>
</linearGradient>
<linearGradient id="paint8_linear_1536_27543" x1="153.251" y1="233.389" x2="164.447" y2="233.389" gradientUnits="userSpaceOnUse">
<stop/>
<stop offset="0.0896" stop-opacity="0.9104"/>
<stop offset="1" stop-opacity="0"/>
</linearGradient>
<linearGradient id="paint9_linear_1536_27543" x1="106.596" y1="230.404" x2="106.596" y2="237.688" gradientUnits="userSpaceOnUse">
<stop/>
<stop offset="1" stop-opacity="0"/>
</linearGradient>
<linearGradient id="paint10_linear_1536_27543" x1="110.06" y1="273.499" x2="106.871" y2="282.215" gradientUnits="userSpaceOnUse">
<stop offset="0.0485" stop-opacity="0"/>
<stop offset="0.2606"/>
<stop offset="0.5333" stop-opacity="0.8517"/>
<stop offset="0.5997" stop-color="#040404" stop-opacity="0.8155"/>
<stop offset="0.6665" stop-color="#101010" stop-opacity="0.7791"/>
<stop offset="0.7333" stop-color="#242424" stop-opacity="0.7427"/>
<stop offset="0.7394" stop-color="#262626" stop-opacity="0.7394"/>
<stop offset="0.7412" stop-color="#252525" stop-opacity="0.7344"/>
<stop offset="0.7705" stop-color="#141414" stop-opacity="0.6512"/>
<stop offset="0.8068" stop-color="#090909" stop-opacity="0.5481"/>
<stop offset="0.858" stop-color="#020202" stop-opacity="0.403"/>
<stop offset="1" stop-opacity="0"/>
</linearGradient>
<linearGradient id="paint11_linear_1536_27543" x1="160.051" y1="251.343" x2="152.134" y2="223.881" gradientUnits="userSpaceOnUse">
<stop stop-color="white" stop-opacity="0"/>
<stop offset="0.09" stop-color="#E3E3E3" stop-opacity="0.1953"/>
<stop offset="0.2828" stop-color="#9C9C9C" stop-opacity="0.6139"/>
<stop offset="0.4606" stop-color="#565656"/>
<stop offset="0.4727" stop-color="#404040"/>
<stop offset="0.5792" stop-color="#444444" stop-opacity="0.7981"/>
<stop offset="0.6903" stop-color="#505050" stop-opacity="0.5875"/>
<stop offset="0.8034" stop-color="#656565" stop-opacity="0.373"/>
<stop offset="0.9174" stop-color="#828282" stop-opacity="0.1569"/>
<stop offset="0.9717" stop-color="#939393" stop-opacity="0.054"/>
<stop offset="1" stop-color="#9A9A9A" stop-opacity="0"/>
</linearGradient>
<linearGradient id="paint12_linear_1536_27543" x1="158.403" y1="237.778" x2="165.316" y2="237.778" gradientUnits="userSpaceOnUse">
<stop/>
<stop offset="0.3075" stop-color="#060606"/>
<stop offset="0.7008" stop-color="#151515"/>
<stop offset="1" stop-color="#262626"/>
</linearGradient>
<linearGradient id="paint13_linear_1536_27543" x1="107.908" y1="237.869" x2="100.997" y2="237.869" gradientUnits="userSpaceOnUse">
<stop/>
<stop offset="0.3075" stop-color="#060606"/>
<stop offset="0.7008" stop-color="#151515"/>
<stop offset="1" stop-color="#262626"/>
</linearGradient>
<linearGradient id="paint14_linear_1536_27543" x1="100.773" y1="237.996" x2="107.939" y2="237.996" gradientUnits="userSpaceOnUse">
<stop stop-color="#B2B2B2"/>
<stop offset="0.00266789" stop-color="#B1B1B1"/>
<stop offset="0.2557" stop-color="#676767"/>
<stop offset="0.4368" stop-color="#383838"/>
<stop offset="0.5273" stop-color="#262626"/>
</linearGradient>
<linearGradient id="paint15_linear_1536_27543" x1="165.411" y1="237.977" x2="158.215" y2="237.977" gradientUnits="userSpaceOnUse">
<stop stop-color="#B2B2B2"/>
<stop offset="0.00266789" stop-color="#B1B1B1"/>
<stop offset="0.2557" stop-color="#676767"/>
<stop offset="0.4368" stop-color="#383838"/>
<stop offset="0.5273" stop-color="#262626"/>
</linearGradient>
<linearGradient id="paint16_linear_1536_27543" x1="102.731" y1="258.337" x2="163.896" y2="258.337" gradientUnits="userSpaceOnUse">
<stop/>
<stop offset="0.0332" stop-color="#171717"/>
<stop offset="0.0963" stop-color="#3C3C3C"/>
<stop offset="0.1623" stop-color="#5B5B5B"/>
<stop offset="0.2312" stop-color="#737373"/>
<stop offset="0.3041" stop-color="#838383"/>
<stop offset="0.3838" stop-color="#8D8D8D"/>
<stop offset="0.483" stop-color="#919191"/>
<stop offset="0.497" stop-color="white" stop-opacity="0.7679"/>
<stop offset="0.498" stop-opacity="0.9"/>
<stop offset="0.5163" stop-color="#090909" stop-opacity="0.9342"/>
<stop offset="0.546" stop-color="#212121" stop-opacity="0.9897"/>
<stop offset="0.5515" stop-color="#262626"/>
<stop offset="0.5573" stop-color="#323232"/>
<stop offset="0.5654" stop-color="#393939"/>
<stop offset="0.5879" stop-color="#3B3B3B"/>
<stop offset="1"/>
</linearGradient>
<linearGradient id="paint17_linear_1536_27543" x1="103.466" y1="256.749" x2="129.881" y2="251.641" gradientUnits="userSpaceOnUse">
<stop/>
<stop offset="0.5569" stop-color="#181818"/>
<stop offset="1" stop-color="#262626"/>
</linearGradient>
<linearGradient id="paint18_linear_1536_27543" x1="133.081" y1="250.816" x2="165.627" y2="250.816" gradientUnits="userSpaceOnUse">
<stop/>
<stop offset="0.031" stop-color="#292929"/>
<stop offset="0.0661" stop-color="#4F4F4F"/>
<stop offset="0.1052" stop-color="#717171"/>
<stop offset="0.1478" stop-color="#8D8D8D"/>
<stop offset="0.1952" stop-color="#A4A4A4"/>
<stop offset="0.2495" stop-color="#B6B6B6"/>
<stop offset="0.3148" stop-color="#C3C3C3"/>
<stop offset="0.4024" stop-color="#CACACA"/>
<stop offset="0.6061" stop-color="#CCCCCC"/>
<stop offset="0.8242" stop-color="white"/>
</linearGradient>
<linearGradient id="paint19_linear_1536_27543" x1="146.818" y1="249.034" x2="151.667" y2="264.81" gradientUnits="userSpaceOnUse">
<stop/>
<stop offset="0.0304"/>
<stop offset="0.3394"/>
<stop offset="0.4177" stop-color="#090909"/>
<stop offset="0.5697" stop-color="#171717"/>
<stop offset="0.8061"/>
</linearGradient>
<linearGradient id="paint20_linear_1536_27543" x1="133.241" y1="250.793" x2="100.524" y2="250.793" gradientUnits="userSpaceOnUse">
<stop/>
<stop offset="0.0381" stop-color="#1F1F1F"/>
<stop offset="0.0845" stop-color="#3E3E3E"/>
<stop offset="0.1299" stop-color="#545454"/>
<stop offset="0.1731" stop-color="#616161"/>
<stop offset="0.2121" stop-color="#666666"/>
<stop offset="0.2408" stop-color="#737373"/>
<stop offset="0.3455" stop-color="#9E9E9E"/>
<stop offset="0.4522" stop-color="#C1C1C1"/>
<stop offset="0.5594" stop-color="#DCDCDC"/>
<stop offset="0.6676" stop-color="#F0F0F0"/>
<stop offset="0.7774" stop-color="#FBFBFB"/>
<stop offset="0.8909" stop-color="white"/>
<stop offset="1" stop-color="#ADADAD"/>
</linearGradient>
<linearGradient id="paint21_linear_1536_27543" x1="115.485" y1="225.598" x2="150.985" y2="286.761" gradientUnits="userSpaceOnUse">
<stop stop-color="#F2F2F2"/>
<stop offset="0.9717" stop-color="#262626"/>
</linearGradient>
<linearGradient id="paint22_linear_1536_27543" x1="111.447" y1="279.961" x2="155.547" y2="279.961" gradientUnits="userSpaceOnUse">
<stop/>
<stop offset="0.2378" stop-color="#262626"/>
<stop offset="0.503" stop-color="#565656"/>
<stop offset="1"/>
</linearGradient>
<linearGradient id="paint23_linear_1536_27543" x1="133.078" y1="285.849" x2="133.078" y2="242.92" gradientUnits="userSpaceOnUse">
<stop offset="0.1213" stop-color="#333333"/>
<stop offset="0.1777" stop-color="#3C3C3C"/>
<stop offset="0.2711" stop-color="#555555"/>
<stop offset="0.3899" stop-color="#7E7E7E"/>
<stop offset="0.5294" stop-color="#B7B7B7"/>
<stop offset="0.6698" stop-color="#F8F8F8"/>
<stop offset="0.7273" stop-color="white"/>
</linearGradient>
<linearGradient id="paint24_linear_1536_27543" x1="101.643" y1="272.021" x2="167.072" y2="248.332" gradientUnits="userSpaceOnUse">
<stop stop-color="#4D4D4D"/>
<stop offset="0.2075" stop-color="#999999"/>
<stop offset="0.3726" stop-color="#F2F2F2"/>
<stop offset="0.6339" stop-color="#F0F0F0"/>
<stop offset="0.728" stop-color="#EAEAEA"/>
<stop offset="0.795" stop-color="#DEDEDE"/>
<stop offset="0.8493" stop-color="#CDCDCD"/>
<stop offset="0.8957" stop-color="#B7B7B7"/>
<stop offset="0.9361" stop-color="#9C9C9C"/>
<stop offset="0.9725" stop-color="#7D7D7D"/>
<stop offset="0.9764" stop-color="#797979"/>
<stop offset="0.9981" stop-color="#505050"/>
<stop offset="1" stop-color="#4D4D4D"/>
</linearGradient>
<linearGradient id="paint25_linear_1536_27543" x1="133.078" y1="285.26" x2="133.078" y2="243.419" gradientUnits="userSpaceOnUse">
<stop offset="0.3632" stop-color="#F2F2F2" stop-opacity="0"/>
<stop offset="0.4287" stop-color="#E0E0E0" stop-opacity="0.1956"/>
<stop offset="0.5605" stop-color="#B1B1B1" stop-opacity="0.5892"/>
<stop offset="0.6981" stop-color="#797979"/>
<stop offset="0.7897" stop-color="#515151"/>
<stop offset="0.8753" stop-color="#323232"/>
<stop offset="0.9482" stop-color="#202020"/>
<stop offset="1" stop-color="#1A1A1A"/>
</linearGradient>
<linearGradient id="paint26_linear_1536_27543" x1="150.672" y1="225.598" x2="115.172" y2="286.761" gradientUnits="userSpaceOnUse">
<stop stop-color="#E6E6E6"/>
<stop offset="1" stop-color="#333333"/>
</linearGradient>
<clipPath id="clip0_1536_27543">
<rect width="256" height="43" fill="white" transform="translate(183 235)"/>
</clipPath>
</defs>
</svg>
