<svg width="512" height="512" viewBox="0 0 512 512" fill="none" xmlns="http://www.w3.org/2000/svg">
<g clip-path="url(#clip0_1536_27543)">
<path d="M251.015 235V246.581H274.451C279.685 246.618 280.615 248.284 280.615 249.903V250.685H263.67C259.862 250.685 258.588 250.92 256.745 251.387C254.901 251.855 253.792 252.332 252.567 253.314C251.262 254.361 250.342 255.598 249.715 257.284C249.217 258.62 248.737 260.932 248.64 262.78L248.657 248.849C248.657 246.587 248.348 244.537 247.692 242.776C247.037 241.014 246.036 239.54 244.655 238.433C243.213 237.277 241.803 236.437 239.633 235.885C237.461 235.334 234.53 235.073 230.047 235.073H183.001V277.996H197.847V247.331H208.747V277.993H223.448V247.332H229.099C233.596 247.332 234.034 249.375 234.16 253.31V277.994H248.622L248.637 265.762C248.735 267.63 249.334 270.026 249.845 271.397C250.472 273.082 251.392 274.32 252.697 275.366C253.922 276.348 255.032 276.825 256.875 277.293C258.718 277.762 259.991 277.994 263.801 277.994H301.804L342.596 245.844V277.994H368.615C374.561 277.994 381.734 278.318 386.203 273.85C388.413 271.64 389.517 268.649 390.07 265.138L390.096 264.969V265.258C390.096 267.178 390.481 269.432 391.069 271.015C391.733 272.799 392.706 274.107 394.087 275.214C395.383 276.254 396.556 276.758 398.506 277.253C400.456 277.748 405.164 277.996 409.193 277.996H436.166V250.097C436.166 247.653 435.83 245.438 435.122 243.534C434.414 241.629 433.502 239.955 431.84 238.623C430.282 237.374 428.758 236.613 426.412 236.018C424.066 235.422 420.899 234.999 416.053 234.999H392.239V246.58H416.203C421.217 246.616 421.772 248.687 421.772 249.608V250.684H404.897C401.088 250.684 399.815 250.919 397.971 251.386C396.128 251.854 395.018 252.331 393.793 253.313C392.488 254.36 391.817 255.597 391.19 257.283C390.945 257.969 390.748 258.672 390.598 259.385C390.616 258.794 390.623 258.294 390.623 257.949V255.118C390.623 247.673 389.288 242.598 386.203 239.513C383.168 236.477 377.968 235.072 368.616 235.072H335.028L294.941 267.181V248.97C294.941 246.709 294.631 244.659 293.975 242.897C293.319 241.135 292.475 239.586 290.938 238.354C289.496 237.197 288.086 236.494 285.916 235.943C283.744 235.392 280.813 235 276.33 235H251.015ZM297.228 235.073V247.332H314.732L330.172 235.073H297.228ZM356.954 247.332H369.068C375.721 247.332 376.228 251.227 376.228 256.535C376.228 261.841 375.721 265.735 369.068 265.735H356.954V247.332ZM265.699 260.721H280.615V266.92H266.914C263.105 266.92 262.506 265.505 262.506 263.593C262.506 262.07 263.409 260.758 265.699 260.721ZM408.085 260.721H421.771V266.92H408.036C404.227 266.92 403.954 265.505 403.954 263.593C403.954 262.07 404.565 260.721 408.085 260.721ZM322.483 265.735L306.623 277.994H339.678V265.735H322.483Z" fill="#0080C5"/>
</g>
<path d="M165.248 234.824C158.973 228.1 148.848 225.019 133.413 225C117.978 225.019 107.854 228.1 101.579 234.824C96.9274 239.813 93.9951 246.719 93.9951 256.085C93.9951 261.264 95.275 274.456 105.705 281.266C111.952 285.339 120.013 287.981 133.413 288C146.823 287.981 154.875 285.348 161.122 281.266C171.552 274.456 172.831 261.264 172.831 256.085C172.831 246.747 169.89 239.794 165.248 234.824ZM133.413 282.573C128.342 282.563 124.225 282.153 120.825 281.304C117.501 280.474 114.741 279.206 112.372 277.403C110.605 276.058 109.067 274.37 107.797 272.367C106.717 270.659 105.82 268.704 105.141 266.568C103.757 262.228 103.604 258.279 103.604 256.781C103.604 254.578 103.757 252.48 104.053 250.553C107.682 252.508 111.13 253.491 114.167 254.359C114.406 254.425 114.635 254.492 114.874 254.559C119.115 255.77 122.477 257.373 125.171 259.443C126.737 260.644 128.093 262.037 129.211 263.582C130.424 265.251 131.388 267.159 132.086 269.238C132.401 270.192 132.735 270.774 133.413 270.774C134.091 270.774 134.426 270.183 134.741 269.238C135.438 267.159 136.412 265.251 137.616 263.582C138.733 262.037 140.09 260.644 141.656 259.443C144.35 257.373 147.712 255.77 151.952 254.559C152.191 254.492 152.42 254.425 152.659 254.359C155.696 253.491 159.144 252.508 162.774 250.553C163.07 252.48 163.223 254.578 163.223 256.781C163.223 258.279 163.07 262.247 161.695 266.568C161.017 268.704 160.119 270.659 159.039 272.367C157.769 274.37 156.231 276.068 154.455 277.403C152.086 279.196 149.316 280.474 145.992 281.295C142.602 282.144 138.485 282.563 133.413 282.573ZM133.413 259.376C133.289 259.376 133.069 259.233 132.687 258.527C131.054 255.503 128.867 252.909 126.193 250.801C124.168 249.208 121.847 247.882 119.296 246.871C118.924 246.719 118.542 246.575 118.16 246.423C114.836 245.116 111.388 243.762 108.188 241.911C107.825 241.701 107.472 241.492 107.138 241.282C107.778 240.166 108.513 239.098 109.334 238.125C110.519 236.713 111.904 235.463 113.451 234.414C115.018 233.355 116.804 232.468 118.771 231.763C122.773 230.341 127.558 229.645 133.413 229.636C139.268 229.645 144.063 230.341 148.065 231.763C150.023 232.459 151.819 233.355 153.385 234.414C154.932 235.463 156.317 236.703 157.502 238.125C158.323 239.098 159.058 240.166 159.698 241.282C159.364 241.492 159.011 241.701 158.648 241.911C155.448 243.762 152 245.116 148.676 246.423C148.294 246.575 147.922 246.719 147.54 246.871C144.98 247.882 142.659 249.208 140.644 250.801C137.969 252.909 135.792 255.503 134.149 258.527C133.757 259.223 133.537 259.376 133.413 259.376Z" fill="black"/>
<path d="M170.568 243.895C169.317 240.528 167.464 237.533 165.085 234.977C161.953 231.619 157.903 229.206 152.697 227.613C147.501 226.021 141.198 225.238 133.413 225.229C125.629 225.238 119.325 226.011 114.129 227.613C108.924 229.216 104.874 231.619 101.741 234.977C99.3439 237.543 97.5005 240.547 96.2493 243.895C94.9025 247.51 94.2148 251.612 94.2148 256.095C94.2148 260.177 95.0554 274.055 105.829 281.085C109.182 283.279 112.821 284.862 116.928 285.94C121.608 287.17 127.004 287.771 133.404 287.771C139.813 287.762 145.2 287.161 149.88 285.94C153.996 284.862 157.626 283.269 160.978 281.085C171.752 274.055 172.593 260.177 172.593 256.095C172.612 251.621 171.924 247.52 170.568 243.895ZM106.87 241.282C107.539 240.109 108.303 239.012 109.163 237.981C114.053 232.154 121.761 229.426 133.423 229.416C145.085 229.426 152.793 232.154 157.683 237.981C158.543 239.002 159.307 240.109 159.975 241.282C159.995 241.31 160.004 241.339 160.023 241.368C159.995 241.387 159.966 241.406 159.947 241.415C159.336 241.797 158.705 242.169 158.046 242.531C155.037 244.181 151.847 245.44 148.762 246.652C148.38 246.804 148.008 246.947 147.626 247.1C141.704 249.437 137.243 253.319 134.368 258.632C134.006 259.309 133.719 259.605 133.432 259.605C133.146 259.605 132.859 259.309 132.496 258.632C129.612 253.319 125.151 249.437 119.239 247.1C118.867 246.957 118.494 246.804 118.122 246.661L118.112 246.652C115.027 245.44 111.837 244.181 108.828 242.531C108.169 242.169 107.539 241.797 106.928 241.415C106.899 241.396 106.87 241.377 106.851 241.368C106.832 241.329 106.851 241.31 106.87 241.282ZM154.598 277.584C149.784 281.218 143.452 282.783 133.423 282.792H133.413C123.365 282.773 117.023 281.218 112.229 277.584C103.795 271.194 103.365 259.128 103.365 256.772C103.365 254.454 103.527 252.279 103.843 250.267C103.852 250.238 103.852 250.2 103.862 250.171C103.89 250.19 103.919 250.2 103.948 250.219C107.644 252.251 111.073 253.224 114.234 254.12C114.473 254.187 114.712 254.254 114.941 254.32C119.201 255.541 122.592 257.144 125.304 259.233C126.89 260.454 128.265 261.856 129.392 263.42C130.615 265.108 131.589 267.025 132.296 269.133C132.63 270.135 132.936 270.507 133.404 270.507C133.872 270.507 134.168 270.135 134.512 269.133C135.219 267.025 136.193 265.108 137.415 263.42C138.542 261.865 139.918 260.454 141.503 259.233C144.216 257.144 147.607 255.532 151.866 254.32C152.105 254.254 152.334 254.187 152.573 254.12C155.735 253.224 159.164 252.241 162.86 250.219C162.889 250.2 162.917 250.19 162.946 250.171C162.955 250.2 162.955 250.238 162.965 250.267C163.29 252.289 163.443 254.454 163.443 256.772C163.462 259.128 163.032 271.213 154.598 277.584Z" fill="white"/>
<path fill-rule="evenodd" clip-rule="evenodd" d="M124.54 282.172C116.298 281.028 103.547 276.678 103.547 255.761C103.547 243.266 107.625 229.502 133.566 229.502C155.926 229.502 163.424 240.996 163.424 255.723C163.424 261.083 162.507 265.356 161.122 268.771C157.359 278.033 149.517 280.961 142.592 282.105C137.989 282.849 129.918 282.926 124.54 282.172ZM168.82 255.894C168.82 239.956 161.303 226.755 133.652 226.755C104.607 226.755 98.4844 242.741 98.4844 255.932C98.4844 278.004 113.318 283.364 124.101 284.633C129.564 285.282 137.473 285.234 142.535 284.643C153.223 283.393 168.82 278.071 168.82 255.894Z" fill="url(#paint0_linear_1536_27543)"/>
<path fill-rule="evenodd" clip-rule="evenodd" d="M124.54 282.172C116.298 281.028 103.47 276.678 103.547 255.761C103.594 242.836 109.019 229.502 133.566 229.502C155.964 229.502 163.089 241.043 163.424 255.723C163.538 260.997 162.535 265.232 161.169 268.628C157.339 278.157 149.87 280.904 142.592 282.096C137.989 282.849 129.918 282.926 124.54 282.172ZM168.82 255.894C168.82 239.956 161.303 226.755 133.652 226.755C104.607 226.755 98.4844 242.741 98.4844 255.932C98.4844 278.004 113.318 283.517 124.101 284.795C129.564 285.444 137.454 285.491 142.516 284.9C153.204 283.641 168.82 278.071 168.82 255.894Z" fill="url(#paint1_linear_1536_27543)"/>
<path fill-rule="evenodd" clip-rule="evenodd" d="M133.691 227.222V229.225C111.197 229.273 103.461 241.158 103.461 256.209C103.461 269.648 109.64 276.945 116.212 279.997C123.757 283.498 132.535 282.888 128.409 284.461C127.406 284.843 126.565 285.472 122.936 285.053C112.248 283.803 98.5801 278.538 98.5801 256.362C98.5801 240.433 106.078 227.241 133.691 227.222Z" fill="url(#paint2_linear_1536_27543)"/>
<path fill-rule="evenodd" clip-rule="evenodd" d="M172.564 256.543C172.469 264.631 169.68 273.95 163.07 279.425C156.136 285.167 145.486 287.666 133.442 287.666C121.503 287.666 111.207 285.625 103.413 279.091C97.2235 273.893 94.2148 264.66 94.2148 256.448C94.2148 247.51 97.0993 238.029 104.607 232.297C111.789 226.822 123.49 225.134 133.394 225.134C144.455 225.134 155.181 226.936 162.335 232.64C169.766 238.563 172.669 247.424 172.564 256.543ZM168.658 256.247C168.658 241.434 160.004 227.108 133.49 227.108C104.444 227.108 98.3219 243.094 98.3219 256.285C98.3219 278.777 113.728 283.908 124.559 285.053C130.414 285.673 136.269 285.739 142.659 285.034C149.393 284.28 168.658 281.008 168.658 256.247Z" fill="url(#paint3_linear_1536_27543)"/>
<path opacity="0.74" fill-rule="evenodd" clip-rule="evenodd" d="M99.1334 248.931C100.48 245.088 102.171 238.726 107.128 234.328C112.715 229.378 122.544 227.623 125.419 227.299C124.292 226.641 123.699 226.498 122.047 225.973C113.967 227.156 107.109 229.359 102.218 234.491C97.0512 239.899 95.5517 244.315 94.6348 250.362C96.3158 249.733 97.0035 249.58 99.1334 248.931Z" fill="url(#paint4_linear_1536_27543)"/>
<path fill-rule="evenodd" clip-rule="evenodd" d="M133.212 228.424C142.582 228.424 151.503 230.017 157.1 237.199C148.532 226.602 119.583 226.354 110.031 237.199C115.619 230.828 123.833 228.424 133.212 228.424Z" fill="url(#paint5_linear_1536_27543)"/>
<path fill-rule="evenodd" clip-rule="evenodd" d="M169.756 270.078C170.243 268.99 170.214 269.067 170.424 268.389C170.51 268.084 170.348 268.571 170.138 268.952C169.88 269.448 169.928 269.41 169.536 269.973C169.125 270.545 169.001 270.602 168.247 271.079C167.645 271.461 166.89 271.709 165.697 272.367C165.391 272.539 165.238 272.653 164.608 273.473C164.159 274.055 163.672 274.732 163.414 275.018C162.631 275.915 160.682 277.641 159.546 278.633C158.562 279.492 158.781 279.482 160.176 278.996C161.427 278.567 163.28 277.794 164.379 277.346C165.066 277.06 165.639 276.583 165.869 276.316C167.215 274.732 168.81 272.176 169.756 270.078Z" fill="url(#paint6_linear_1536_27543)"/>
<path opacity="0.9" fill-rule="evenodd" clip-rule="evenodd" d="M98.4845 256.219C98.4845 249.084 101.016 239.803 107.1 234.405C112.687 229.454 122.248 227.604 125.133 227.27C124.006 226.612 123.413 226.469 121.761 225.944C113.681 227.127 106.823 229.473 101.923 234.605C96.3164 240.481 94.2724 248.445 94.1387 255.074C95.5523 255.484 96.6125 255.78 98.4845 256.219Z" fill="url(#paint7_linear_1536_27543)"/>
<path opacity="0.2" fill-rule="evenodd" clip-rule="evenodd" d="M153.72 230.732C155.382 230.961 161.351 232.249 163.367 233.479C165.286 234.643 164.962 234.691 164.962 234.691L161.38 236.055C161.389 236.045 158.868 233.241 153.72 230.732Z" fill="url(#paint8_linear_1536_27543)"/>
<path opacity="0.2" fill-rule="evenodd" clip-rule="evenodd" d="M112.916 230.637C109.363 231.476 104.587 232.697 102.705 233.918C101.817 234.491 99.3721 237.686 99.3721 237.686L102.839 234.805C104.53 234.367 104.616 234.271 105.905 233.966C107.338 233.623 108.159 233.508 109.735 232.449C111.311 231.391 116.469 229.798 112.916 230.637Z" fill="url(#paint9_linear_1536_27543)" fill-opacity="0.42"/>
<path fill-rule="evenodd" clip-rule="evenodd" d="M96.9367 269.067C97.1754 269.572 97.4047 270.316 98.3311 270.726C99.0475 271.041 99.611 271.279 100.327 271.556C101.474 272.004 102.352 273.53 103.097 274.513C103.833 275.476 106.163 277.632 107.328 278.586C109.067 280.007 112.276 281.924 114.731 282.916C114.912 282.983 121.598 285.768 120.863 286.417C120.643 286.607 114.492 284.862 114.205 284.776C108.924 283.174 103.346 279.978 99.6301 274.656C99.1239 273.931 97.2805 270.574 96.8602 269.219C96.5928 268.351 96.6406 268.418 96.9367 269.067Z" fill="url(#paint10_linear_1536_27543)"/>
<path opacity="0.9" fill-rule="evenodd" clip-rule="evenodd" d="M167.903 249.027C166.557 245.183 164.866 238.821 159.909 234.424C154.321 229.473 144.503 227.718 141.618 227.394C142.745 226.736 143.337 226.593 144.99 226.068C153.07 227.251 159.928 229.597 164.828 234.729C168.935 239.04 170.74 244.067 171.667 248.178C170.243 248.578 169.766 248.578 167.903 249.027Z" fill="url(#paint11_linear_1536_27543)"/>
<path fill-rule="evenodd" clip-rule="evenodd" d="M163.079 238.544L159.956 240.967L158.905 239.384C159.66 238.344 160.863 236.494 161.007 236.293C161.15 236.093 161.513 235.826 161.818 235.731C162.115 235.635 163.442 234.977 164.512 234.576L165.868 236.169L163.079 238.544Z" fill="url(#paint12_linear_1536_27543)"/>
<path fill-rule="evenodd" clip-rule="evenodd" d="M103.804 238.735L106.927 241.167L108.073 239.355C107.319 238.315 106.125 236.465 105.972 236.265C105.829 236.064 105.466 235.797 105.16 235.702C104.864 235.607 103.431 234.977 102.371 234.576L101.11 236.131L103.804 238.735Z" fill="url(#paint13_linear_1536_27543)"/>
<path d="M103.976 250.105C103.957 250.105 103.947 250.095 103.938 250.086C103.928 250.066 102.925 248.235 102.495 247.234C102.066 246.223 101.139 243.657 101.13 243.628C101.12 243.6 101.13 243.58 101.158 243.571C101.187 243.561 101.206 243.571 101.216 243.6C101.225 243.628 102.152 246.194 102.581 247.195C103.011 248.197 104.004 250.028 104.014 250.047C104.024 250.066 104.024 250.095 103.995 250.105C103.995 250.105 103.985 250.105 103.976 250.105Z" fill="#1A1A1A"/>
<path d="M103.833 250.105C103.814 250.105 103.805 250.095 103.795 250.086C103.786 250.066 102.783 248.235 102.353 247.234C101.923 246.223 100.997 243.657 100.987 243.628C100.977 243.6 100.987 243.58 101.016 243.571C101.044 243.561 101.063 243.571 101.073 243.6C101.082 243.628 102.009 246.194 102.439 247.195C102.869 248.197 103.862 250.028 103.871 250.047C103.881 250.066 103.881 250.095 103.852 250.105C103.843 250.105 103.843 250.105 103.833 250.105Z" fill="#1A1A1A"/>
<path fill-rule="evenodd" clip-rule="evenodd" d="M108.103 239.365C108.103 239.365 107.644 240.004 107.434 240.357C107.234 240.681 106.852 241.377 106.852 241.377C106.852 241.377 104.999 240.194 103.49 238.869C102.095 237.638 101.407 236.837 100.892 236.207C101.169 235.854 101.169 235.854 102.343 234.615C102.343 234.615 102.286 234.777 102.534 235.053C103.289 235.931 106.288 238.477 107.549 239.288C107.883 239.498 108.103 239.365 108.103 239.365Z" fill="url(#paint14_linear_1536_27543)"/>
<path fill-rule="evenodd" clip-rule="evenodd" d="M158.715 239.326C158.715 239.326 159.164 239.975 159.383 240.328C159.584 240.652 160.014 241.377 160.014 241.377C160.014 241.377 161.79 240.252 163.299 238.926C164.694 237.695 165.449 236.799 165.964 236.169C165.687 235.816 165.267 235.378 164.512 234.595C164.512 234.595 164.541 234.681 164.302 234.958C163.548 235.835 160.463 238.487 159.202 239.298C158.858 239.498 158.715 239.326 158.715 239.326Z" fill="url(#paint15_linear_1536_27543)"/>
<path d="M144.521 251.287C144.483 251.306 144.454 251.316 144.426 251.335C142.563 252.26 133.575 262.104 133.356 262.333C133.136 262.552 123.527 254.778 123.346 254.473C123.164 254.158 106.813 248.283 106.813 248.283L102.858 247.93C102.858 247.93 103.126 248.951 104.148 250.372C108.255 252.966 115.743 254.321 120.605 256.505C125.734 258.813 129.612 262.905 131.102 266.396C132.553 269.782 132.592 270.564 133.451 270.564C134.32 270.564 134.769 268.485 135.381 267.169C138.294 260.95 143.365 256.629 154.254 253.691C161.885 251.631 162.802 249.981 162.802 249.981L164.426 246.137C164.436 246.127 146.823 250.276 144.521 251.287Z" fill="url(#paint16_linear_1536_27543)"/>
<path fill-rule="evenodd" clip-rule="evenodd" d="M102.247 246.833C102.906 248.55 103.861 250.171 103.861 250.171C103.861 250.171 106.068 251.43 108.494 252.232C111.856 253.338 115.762 254.149 118.742 254.836C122.295 255.646 124.396 256.591 126.803 258.212C130.672 260.816 131.464 262.771 132.782 264.975C132.047 263.115 131.99 261.865 129.411 258.67C125.686 254.053 123.298 252.985 117.959 251.02C116.125 250.343 113.565 249.332 110.471 248.178C107.376 247.024 103.403 244.992 101.005 243.38C100.967 243.352 101.703 245.431 102.247 246.833Z" fill="url(#paint17_linear_1536_27543)"/>
<path fill-rule="evenodd" clip-rule="evenodd" d="M138.112 253.357C139.621 251.707 141.054 250.534 143.461 249.065C147.902 246.356 153.853 245.259 159.994 241.368C163.738 239.002 165.954 236.16 165.954 236.16C165.954 236.16 166.107 237.428 166.164 238.907C166.193 239.737 166.174 240.604 166.069 241.539C165.973 242.407 165.849 242.884 165.83 242.903C163.395 244.534 160.357 246.718 157.224 247.892C154.082 249.065 151.14 250.076 149.278 250.772C141.226 253.786 137.73 258.346 135.104 263.038C133.872 265.223 133.413 265.499 133.413 265.471C133.423 265.385 133.547 260.272 133.547 259.528C133.604 259.528 133.852 259.366 134.091 258.946C135.199 257.02 136.345 255.284 138.112 253.357Z" fill="url(#paint18_linear_1536_27543)"/>
<path fill-rule="evenodd" clip-rule="evenodd" d="M165.897 243.342C163.481 244.954 159.316 246.871 156.203 248.025C153.089 249.179 151.255 249.685 149.402 250.362C144.187 252.27 140.873 254.254 137.033 258.994C134.435 262.199 134.025 263.906 133.423 265.337C133.423 266.167 133.423 270.412 133.423 270.507C133.652 270.507 133.824 270.383 133.948 270.183C134.034 270.049 133.986 268.761 133.986 267.665C133.986 266.835 133.996 266.606 134.435 265.785C134.779 265.146 135.18 264.441 135.448 264.021C137.635 260.654 141.723 258.26 145.792 256.4C149.412 254.75 154.703 253.691 158.199 252.403C160.663 251.497 162.889 250.305 162.889 250.305C162.889 250.305 163.662 248.931 164.417 247.205C165.057 245.746 165.935 243.313 165.897 243.342Z" fill="url(#paint19_linear_1536_27543)"/>
<path fill-rule="evenodd" clip-rule="evenodd" d="M132.764 259.013C133.117 259.643 133.433 259.557 133.557 259.557C133.557 260.482 133.576 265.356 133.576 265.442C133.576 265.471 133.471 265.127 132.258 262.943C127.406 254.263 122.735 252.604 118.361 250.963C116.498 250.267 113.041 248.941 109.898 247.768C106.756 246.604 103.232 244.62 100.786 242.999C100.643 242.903 100.825 242.398 100.72 241.53C100.614 240.585 100.634 239.546 100.662 238.706C100.71 237.218 101.016 236.131 101.016 236.131C101.016 236.131 103.107 238.993 106.823 241.358C109.086 242.798 111.407 243.857 114.11 244.992C117.549 246.423 120.328 247.262 123.709 249.332C126.422 250.982 127.836 252.26 129.287 253.901C131.112 255.952 132.086 257.792 132.764 259.013Z" fill="url(#paint20_linear_1536_27543)"/>
<path fill-rule="evenodd" clip-rule="evenodd" d="M126.059 250.982C128.274 253.319 129.354 254.549 130.892 257.506C131.952 259.528 132.162 259.691 133.499 264.832L133.165 259.767C133.165 259.767 131.541 256.886 130.385 255.437C128.504 253.071 128.103 252.585 126.059 250.982Z" fill="black"/>
<path d="M133.413 259.815H133.585L133.413 264.536V259.815Z" fill="white"/>
<path d="M162.812 250.467C163.108 252.413 163.27 254.511 163.27 256.781C163.27 261.14 162.096 271.671 154.483 277.441C149.822 280.97 143.566 282.601 133.413 282.611C123.26 282.592 117.004 280.961 112.343 277.441C104.702 271.671 103.556 261.14 103.556 256.781C103.556 254.511 103.709 252.413 104.014 250.467C103.985 250.448 103.957 250.439 103.928 250.419C103.623 252.394 103.47 254.511 103.47 256.781C103.47 259.128 103.9 271.175 112.295 277.518C117.09 281.142 123.403 282.697 133.423 282.706C143.451 282.687 149.765 281.142 154.55 277.518C162.946 271.156 163.375 259.128 163.375 256.781C163.375 254.511 163.223 252.394 162.917 250.419C162.879 250.429 162.85 250.448 162.812 250.467Z" fill="black"/>
<path d="M109.296 238.096C114.043 232.43 121.713 229.607 133.413 229.597C145.104 229.607 152.773 232.43 157.53 238.096C158.351 239.078 159.096 240.147 159.755 241.301C159.784 241.282 159.813 241.263 159.841 241.253C159.192 240.109 158.447 239.04 157.606 238.048C152.735 232.24 145.046 229.531 133.423 229.521C121.78 229.521 114.1 232.23 109.229 238.039C108.389 239.04 107.644 240.109 106.994 241.244C107.023 241.263 107.051 241.282 107.08 241.291C107.73 240.147 108.475 239.088 109.296 238.096Z" fill="black"/>
<path d="M152.611 254.216C152.373 254.282 152.134 254.349 151.905 254.416C147.654 255.637 144.273 257.239 141.57 259.319C139.994 260.53 138.628 261.932 137.501 263.487C136.288 265.165 135.314 267.083 134.607 269.172C134.254 270.221 133.929 270.612 133.413 270.612C132.898 270.612 132.573 270.221 132.219 269.172C131.513 267.073 130.538 265.165 129.325 263.487C128.198 261.932 126.832 260.53 125.257 259.319C122.553 257.239 119.172 255.637 114.922 254.416C114.683 254.349 114.454 254.282 114.215 254.216C111.082 253.329 107.682 252.356 104.024 250.372C104.014 250.4 104.014 250.438 104.005 250.467C107.93 252.594 111.56 253.557 114.893 254.511C122.305 256.629 129.211 260.52 132.124 269.2C132.449 270.183 132.783 270.707 133.404 270.707C134.025 270.707 134.359 270.183 134.684 269.2C137.606 260.511 144.502 256.629 151.914 254.511C155.248 253.557 158.877 252.604 162.803 250.467C162.793 250.438 162.793 250.4 162.784 250.372C159.144 252.356 155.744 253.319 152.611 254.216Z" fill="black"/>
<path d="M162.812 250.467C162.84 250.448 162.869 250.438 162.897 250.419C162.888 250.391 162.888 250.353 162.878 250.324C162.85 250.343 162.821 250.353 162.793 250.372C162.802 250.4 162.812 250.429 162.812 250.467Z" fill="black"/>
<path d="M104.023 250.362C103.995 250.343 103.966 250.334 103.938 250.314C103.928 250.343 103.928 250.381 103.919 250.41C103.947 250.429 103.976 250.438 104.004 250.458C104.014 250.429 104.023 250.4 104.023 250.362Z" fill="black"/>
<path d="M107.07 241.301C107.042 241.282 107.013 241.263 106.985 241.253C106.966 241.282 106.956 241.31 106.938 241.329C106.966 241.349 106.994 241.368 107.023 241.377C107.042 241.358 107.061 241.329 107.07 241.301Z" fill="black"/>
<path d="M159.803 241.377C159.832 241.358 159.86 241.339 159.889 241.329C159.87 241.301 159.86 241.272 159.841 241.253C159.813 241.272 159.784 241.291 159.756 241.301C159.765 241.329 159.784 241.358 159.803 241.377Z" fill="black"/>
<path d="M108.799 242.531C111.807 244.181 114.998 245.44 118.083 246.652C118.465 246.804 118.837 246.948 119.219 247.1C125.141 249.437 129.601 253.319 132.476 258.632C132.839 259.309 133.126 259.605 133.412 259.605C133.699 259.605 133.985 259.309 134.348 258.632C137.233 253.319 141.693 249.437 147.606 247.1C147.978 246.957 148.351 246.804 148.723 246.661L148.733 246.652C151.818 245.44 155.008 244.181 158.017 242.531C158.676 242.169 159.306 241.797 159.917 241.415C159.946 241.396 159.975 241.377 159.994 241.368C159.975 241.339 159.965 241.31 159.946 241.282C159.277 240.109 158.513 239.012 157.654 237.982C152.763 232.154 145.055 229.426 133.393 229.416C121.731 229.426 114.023 232.154 109.133 237.982C108.273 239.002 107.509 240.109 106.841 241.282C106.822 241.31 106.812 241.339 106.793 241.368C106.822 241.387 106.85 241.406 106.869 241.415C107.509 241.797 108.14 242.169 108.799 242.531ZM109.229 238.039C114.1 232.23 121.779 229.521 133.412 229.512C145.046 229.521 152.725 232.23 157.596 238.039C158.456 239.059 159.21 240.156 159.879 241.33C159.268 241.711 158.637 242.083 157.978 242.445C154.97 244.096 151.789 245.355 148.704 246.566C148.322 246.719 147.949 246.862 147.567 247.014C141.627 249.361 137.157 253.262 134.262 258.584C133.919 259.214 133.651 259.509 133.412 259.509C133.174 259.509 132.906 259.214 132.562 258.584C129.668 253.252 125.198 249.361 119.257 247.014C118.885 246.862 118.503 246.719 118.121 246.566C115.036 245.355 111.846 244.096 108.846 242.445C108.187 242.083 107.557 241.711 106.946 241.33C107.605 240.156 108.369 239.059 109.229 238.039Z" fill="#666666"/>
<path d="M162.974 250.267C162.965 250.238 162.965 250.2 162.955 250.171C162.926 250.19 162.898 250.2 162.869 250.219C159.173 252.251 155.744 253.224 152.582 254.12C152.343 254.187 152.105 254.254 151.875 254.321C147.616 255.541 144.225 257.144 141.512 259.233C139.927 260.454 138.551 261.856 137.424 263.42C136.202 265.108 135.228 267.025 134.521 269.133C134.186 270.135 133.881 270.507 133.413 270.507C132.945 270.507 132.649 270.135 132.305 269.133C131.598 267.025 130.624 265.108 129.401 263.42C128.274 261.865 126.899 260.454 125.313 259.233C122.601 257.144 119.21 255.532 114.95 254.321C114.711 254.254 114.482 254.187 114.243 254.12C111.082 253.224 107.653 252.241 103.957 250.219C103.928 250.2 103.899 250.19 103.871 250.171C103.861 250.2 103.861 250.238 103.852 250.267C103.527 252.289 103.374 254.454 103.374 256.772C103.374 259.128 103.804 271.213 112.238 277.584C117.051 281.218 123.384 282.783 133.413 282.792H133.422C143.47 282.773 149.812 281.218 154.607 277.584C163.041 271.194 163.471 259.128 163.471 256.772C163.461 254.454 163.299 252.289 162.974 250.267ZM154.54 277.517C149.755 281.142 143.442 282.697 133.413 282.706C123.403 282.687 117.08 281.142 112.285 277.517C103.89 271.175 103.46 259.128 103.46 256.781C103.46 254.473 103.622 252.327 103.938 250.324C107.634 252.346 111.063 253.319 114.215 254.216C114.454 254.282 114.692 254.349 114.922 254.416C119.172 255.637 122.553 257.239 125.256 259.319C126.832 260.53 128.198 261.932 129.325 263.487C130.538 265.165 131.512 267.083 132.219 269.172C132.572 270.221 132.897 270.612 133.413 270.612C133.929 270.612 134.253 270.221 134.607 269.172C135.314 267.073 136.288 265.165 137.501 263.487C138.628 261.932 139.994 260.53 141.57 259.319C144.273 257.239 147.654 255.637 151.904 254.416C152.143 254.349 152.372 254.282 152.611 254.216C155.772 253.319 159.201 252.346 162.888 250.324C163.203 252.327 163.366 254.483 163.366 256.781C163.366 259.118 162.936 271.146 154.54 277.517Z" fill="#666666"/>
<path fill-rule="evenodd" clip-rule="evenodd" d="M100.872 236.312C100.939 235.998 101.025 236.045 100.967 236.303C100.786 237.133 100.709 238.726 100.738 240.338C100.757 241.492 100.996 242.732 100.996 242.732C100.843 242.722 100.633 242.77 100.576 242.961C100.394 241.091 100.289 238.897 100.872 236.312Z" fill="white"/>
<path fill-rule="evenodd" clip-rule="evenodd" d="M166.05 236.417C165.983 236.102 165.897 236.15 165.955 236.408C166.136 237.238 166.184 238.811 166.155 240.423C166.136 241.577 165.85 242.836 165.85 242.836C166.002 242.827 166.203 243.027 166.26 243.228C166.432 241.368 166.633 239.002 166.05 236.417Z" fill="#CCCCCC"/>
<path d="M172.793 256.085C172.793 261.255 171.513 274.437 161.093 281.237C154.856 285.31 146.804 287.943 133.413 287.962C120.022 287.943 111.971 285.31 105.734 281.237C95.3131 274.437 94.0332 261.255 94.0332 256.085C94.0332 246.757 96.975 239.813 101.607 234.844C107.873 228.129 117.988 225.057 133.413 225.038C148.838 225.057 158.953 228.129 165.219 234.853C169.87 239.832 172.793 246.728 172.793 256.085ZM133.413 287.867C139.832 287.857 145.228 287.256 149.918 286.026C154.044 284.948 157.683 283.355 161.045 281.152C171.857 274.093 172.698 260.177 172.698 256.085C172.698 251.593 172.01 247.482 170.663 243.857C169.412 240.5 167.549 237.486 165.152 234.91C162.01 231.543 157.941 229.121 152.726 227.518C147.52 225.916 141.207 225.134 133.413 225.134C125.619 225.143 119.306 225.925 114.1 227.518C108.885 229.121 104.817 231.543 101.674 234.91C99.2769 237.476 97.4239 240.49 96.1727 243.867C94.8164 247.501 94.1287 251.612 94.1287 256.095C94.1287 260.187 94.9692 274.103 105.781 281.161C109.143 283.355 112.792 284.948 116.909 286.035C121.598 287.256 127.004 287.857 133.413 287.867Z" fill="black"/>
<path d="M133.413 287.866C127.004 287.857 121.608 287.256 116.909 286.026C112.783 284.948 109.144 283.355 105.781 281.152C94.9694 274.093 94.1289 260.177 94.1289 256.085C94.1289 251.612 94.8166 247.501 96.1729 243.857C97.4337 240.481 99.2866 237.476 101.674 234.901C104.817 231.534 108.886 229.111 114.101 227.509C119.306 225.906 125.62 225.124 133.413 225.124C141.207 225.134 147.521 225.916 152.726 227.509C157.941 229.111 162.01 231.534 165.152 234.901C167.559 237.476 169.412 240.49 170.663 243.848C172.02 247.472 172.698 251.583 172.698 256.076C172.698 260.167 171.857 274.084 161.045 281.142C157.683 283.336 154.035 284.929 149.918 286.016C145.228 287.256 139.822 287.857 133.413 287.866ZM133.413 287.771C139.813 287.762 145.209 287.161 149.889 285.94C154.006 284.862 157.635 283.269 160.988 281.085C171.762 274.055 172.602 260.177 172.602 256.095C172.602 251.612 171.915 247.51 170.568 243.895C169.317 240.547 167.473 237.543 165.076 234.977C161.943 231.62 157.893 229.206 152.688 227.614C147.492 226.021 141.188 225.238 133.404 225.229C125.62 225.238 119.316 226.011 114.12 227.614C108.914 229.216 104.865 231.62 101.732 234.977C99.3439 237.533 97.5005 240.538 96.2493 243.895C94.893 247.52 94.2149 251.621 94.2149 256.085C94.2149 260.167 95.0554 274.046 105.829 281.075C109.182 283.269 112.821 284.852 116.928 285.93C121.618 287.161 127.004 287.762 133.413 287.771Z" fill="url(#paint21_linear_1536_27543)"/>
<path d="M165.812 243.676C165.821 243.647 165.812 243.628 165.783 243.619C165.754 243.609 165.735 243.619 165.726 243.647C165.716 243.676 164.799 246.242 164.379 247.253C163.949 248.254 162.965 250.085 162.956 250.105C162.946 250.124 162.956 250.152 162.975 250.162C162.985 250.162 162.985 250.162 162.994 250.162C163.013 250.162 163.023 250.152 163.032 250.143C163.032 250.143 163.911 248.588 164.455 247.281C164.99 245.975 165.812 243.676 165.812 243.676Z" fill="#1A1A1A"/>
<path d="M101.025 243.676C101.016 243.647 101.025 243.628 101.054 243.619C101.082 243.609 101.101 243.619 101.111 243.647C101.121 243.676 102.038 246.242 102.458 247.253C102.888 248.254 103.871 250.085 103.881 250.105C103.89 250.124 103.881 250.152 103.862 250.162C103.852 250.162 103.852 250.162 103.843 250.162C103.824 250.162 103.814 250.152 103.804 250.143C103.804 250.143 102.926 248.588 102.381 247.281C101.846 245.975 101.025 243.676 101.025 243.676Z" fill="#1A1A1A"/>
<path fill-rule="evenodd" clip-rule="evenodd" d="M155.687 276.688C156.232 276.211 156.117 276.23 155.439 276.793C154.474 277.584 153.653 278.252 151.972 279.177C151.389 279.473 150.835 279.807 150.214 280.064C144.703 282.315 140.969 282.554 134.407 282.754C134.235 282.764 134.073 282.764 133.91 282.764C133.748 282.764 133.576 282.764 133.414 282.764C127.97 282.764 122.229 282.258 117.54 280.513C116.909 280.274 116.279 279.969 115.687 279.692C114.426 278.996 113.366 278.347 112.286 277.508C111.589 276.964 111.408 276.898 111.962 277.365C111.57 277.088 111.637 277.155 112.162 277.632C116.279 281.39 120.882 282.907 127.817 283.384C129.717 283.555 131.742 283.603 133.93 283.555C136.107 283.536 138.132 283.422 140.033 283.202C146.948 282.506 151.494 280.856 155.496 276.974C156.003 276.468 156.069 276.402 155.687 276.688Z" fill="url(#paint22_linear_1536_27543)"/>
<path d="M167.033 245.173C166.814 244.525 166.565 243.876 166.298 243.256C166.202 243.046 166.04 242.922 165.84 242.922C165.734 242.922 165.639 242.961 165.543 243.018C160.682 246.318 155.591 248.111 151.494 249.551C147.826 250.839 144.359 252.06 142.076 253.701C140.404 254.902 138.704 256.572 137.042 258.651C135.848 260.148 134.588 262.218 133.413 264.65C132.229 262.218 130.977 260.139 129.783 258.651C128.112 256.572 126.421 254.902 124.75 253.701C122.467 252.06 119.01 250.839 115.332 249.551C111.244 248.111 106.154 246.318 101.282 243.018C101.187 242.951 101.082 242.922 100.986 242.922C100.786 242.922 100.623 243.046 100.528 243.256C100.26 243.876 100.012 244.525 99.7924 245.173C98.5985 248.645 98.0254 252.537 98.0254 257.058C98.0254 261.818 99.0474 273.588 108.484 280.007C111.407 281.991 114.711 283.422 118.57 284.356C122.63 285.339 127.443 285.835 133.279 285.844H133.537C139.373 285.825 144.187 285.339 148.246 284.356C152.114 283.422 155.41 281.991 158.332 280.007C167.778 273.588 168.791 261.818 168.791 257.058C168.81 252.537 168.227 248.655 167.033 245.173ZM158.294 279.931C155.381 281.915 152.086 283.326 148.237 284.271C144.158 285.263 139.325 285.749 133.451 285.759H133.413H133.375C127.501 285.749 122.668 285.263 118.589 284.271C114.731 283.336 111.445 281.915 108.532 279.931C99.1238 273.54 98.1114 261.808 98.1114 257.058C98.1114 252.546 98.6844 248.664 99.8783 245.202C100.098 244.553 100.346 243.905 100.614 243.285C100.69 243.104 100.824 243.008 100.986 243.008C101.072 243.008 101.149 243.037 101.235 243.094C106.106 246.404 111.206 248.197 115.304 249.637C118.962 250.925 122.429 252.146 124.693 253.777C126.488 255.065 128.179 256.791 129.707 258.708C131.054 260.387 132.334 262.609 133.413 264.86C134.492 262.609 135.772 260.387 137.119 258.708C138.657 256.791 140.347 255.065 142.133 253.777C144.406 252.146 147.864 250.925 151.522 249.637C155.62 248.197 160.72 246.404 165.591 243.094C165.668 243.037 165.754 243.008 165.84 243.008C166.002 243.008 166.136 243.113 166.212 243.285C166.479 243.905 166.728 244.544 166.948 245.202C168.132 248.664 168.714 252.546 168.714 257.058C168.714 261.808 167.692 273.531 158.294 279.931Z" fill="url(#paint23_linear_1536_27543)"/>
<path d="M105.887 236.207C105.858 236.207 105.829 236.198 105.81 236.179C105.715 236.083 105.581 235.988 105.457 235.912C105.419 235.893 105.4 235.855 105.4 235.816C105.39 235.721 105.333 235.721 105.619 235.444C105.638 235.425 105.648 235.416 105.658 235.416C106.059 235.006 106.574 234.529 107.052 234.128C107.902 233.394 108.819 232.707 109.774 232.087C111.646 230.876 113.776 229.855 116.107 229.054C118.466 228.243 121.102 227.623 123.958 227.213C126.795 226.803 129.937 226.593 133.289 226.593H133.576C136.938 226.602 140.08 226.812 142.917 227.213C145.763 227.623 148.409 228.243 150.768 229.054C153.099 229.855 155.229 230.876 157.101 232.087C158.056 232.707 158.973 233.384 159.823 234.128C160.291 234.529 160.816 235.015 161.217 235.425C161.227 235.435 161.237 235.444 161.256 235.463C161.514 235.711 161.447 235.731 161.437 235.816C161.437 235.855 161.408 235.893 161.38 235.912C161.275 235.969 161.16 236.064 161.026 236.198C161.007 236.217 160.979 236.227 160.95 236.227C160.835 236.227 160.759 235.998 160.635 235.864C154.875 230.151 145.983 227.365 133.442 227.356C120.892 227.365 112 230.151 106.259 235.855C106.059 236.026 105.992 236.207 105.887 236.207Z" fill="#B3B3B3"/>
<path opacity="0.9" d="M165.84 243.523L165.792 243.418L165.697 243.485C164.025 244.62 162.153 245.641 159.24 247.005C156.843 248.13 154.216 249.055 151.685 249.952C148.055 251.23 144.626 252.441 142.42 254.044C139.029 256.495 135.868 260.539 133.747 265.137C133.595 265.471 133.528 265.557 133.413 265.557C133.299 265.557 133.232 265.471 133.079 265.137C130.959 260.539 127.797 256.495 124.406 254.044C122.2 252.441 118.771 251.23 115.142 249.952C112.601 249.055 109.974 248.13 107.587 247.005C104.673 245.641 102.811 244.62 101.13 243.485L101.034 243.418L100.987 243.523C99.3533 247.377 98.5605 251.793 98.5605 257.029C98.5605 261.713 99.5539 273.283 108.79 279.559C114.549 283.479 122.143 285.234 133.394 285.263H133.423H133.451C144.703 285.243 152.296 283.479 158.056 279.559C167.292 273.273 168.285 261.703 168.285 257.029C168.275 251.793 167.483 247.377 165.84 243.523ZM157.941 279.406C152.21 283.307 144.646 285.053 133.413 285.072C122.181 285.053 114.616 283.307 108.885 279.406C99.7258 273.168 98.742 261.674 98.742 257.029C98.742 251.869 99.5157 247.51 101.111 243.704C102.773 244.82 104.635 245.832 107.491 247.176C109.898 248.302 112.525 249.237 115.065 250.133C118.676 251.411 122.095 252.623 124.282 254.197C127.644 256.629 130.787 260.644 132.897 265.223C133.06 265.547 133.165 265.766 133.413 265.766C133.662 265.766 133.767 265.537 133.919 265.213C136.03 260.644 139.173 256.619 142.535 254.187C144.722 252.604 148.141 251.402 151.752 250.124C154.292 249.227 156.928 248.292 159.326 247.167C162.191 245.822 164.054 244.811 165.706 243.695C167.301 247.501 168.075 251.86 168.075 257.02C168.084 261.675 167.101 273.168 157.941 279.406Z" fill="url(#paint24_linear_1536_27543)"/>
<path d="M165.84 243.523L165.792 243.418L165.697 243.485C164.025 244.62 162.153 245.641 159.24 247.005C156.843 248.13 154.216 249.055 151.685 249.952C148.055 251.23 144.626 252.441 142.42 254.044C139.029 256.495 135.868 260.539 133.747 265.137C133.595 265.471 133.528 265.557 133.413 265.557C133.299 265.557 133.232 265.471 133.079 265.137C130.959 260.539 127.797 256.495 124.406 254.044C122.2 252.441 118.771 251.23 115.142 249.952C112.601 249.055 109.974 248.13 107.587 247.005C104.673 245.641 102.811 244.62 101.13 243.485L101.034 243.418L100.987 243.523C99.3533 247.377 98.5605 251.793 98.5605 257.029C98.5605 261.713 99.5539 273.283 108.79 279.559C114.549 283.479 122.143 285.234 133.394 285.263H133.423H133.451C144.703 285.243 152.296 283.479 158.056 279.559C167.292 273.273 168.285 261.703 168.285 257.029C168.275 251.793 167.483 247.377 165.84 243.523ZM157.941 279.406C152.21 283.307 144.646 285.053 133.413 285.072C122.181 285.053 114.616 283.307 108.885 279.406C99.7258 273.168 98.742 261.674 98.742 257.029C98.742 251.869 99.5157 247.51 101.111 243.704C102.773 244.82 104.635 245.832 107.491 247.176C109.898 248.302 112.525 249.237 115.065 250.133C118.676 251.411 122.095 252.623 124.282 254.197C127.644 256.629 130.787 260.644 132.897 265.223C133.06 265.547 133.165 265.766 133.413 265.766C133.662 265.766 133.767 265.537 133.919 265.213C136.03 260.644 139.173 256.619 142.535 254.187C144.722 252.604 148.141 251.402 151.752 250.124C154.292 249.227 156.928 248.292 159.326 247.167C162.191 245.822 164.054 244.811 165.706 243.695C167.301 247.501 168.075 251.86 168.075 257.02C168.084 261.675 167.101 273.168 157.941 279.406Z" fill="url(#paint25_linear_1536_27543)"/>
<path d="M166.947 245.03C166.728 244.382 166.479 243.733 166.212 243.113C166.136 242.932 166.002 242.836 165.84 242.836C165.754 242.836 165.677 242.865 165.591 242.922C160.72 246.251 155.62 248.054 151.522 249.494C147.864 250.791 144.397 252.012 142.133 253.653C140.338 254.95 138.647 256.686 137.119 258.603C135.772 260.291 134.492 262.523 133.413 264.784C132.334 262.523 131.054 260.291 129.707 258.603C128.169 256.676 126.479 254.95 124.693 253.653C122.419 252.012 118.962 250.791 115.304 249.494C111.206 248.044 106.106 246.242 101.235 242.922C101.158 242.865 101.072 242.836 100.986 242.836C100.824 242.836 100.69 242.941 100.614 243.113C100.346 243.733 100.098 244.382 99.8783 245.03C98.694 248.512 98.1113 252.403 98.1113 256.934C98.1113 261.703 99.1238 273.483 108.532 279.902C111.445 281.895 114.74 283.317 118.589 284.261C122.668 285.253 127.501 285.749 133.375 285.758H133.413H133.451C139.325 285.749 144.158 285.253 148.236 284.261C152.095 283.317 155.381 281.895 158.294 279.902C167.702 273.483 168.714 261.703 168.714 256.934C168.714 252.403 168.132 248.512 166.947 245.03ZM158.036 279.549C152.277 283.469 144.674 285.234 133.413 285.243C122.142 285.224 114.549 283.469 108.79 279.549C99.5631 273.263 98.5602 261.703 98.5602 257.02C98.5602 251.745 99.3721 247.3 101.034 243.428C102.725 244.582 104.625 245.622 107.577 247.005C109.974 248.13 112.601 249.055 115.132 249.952C118.761 251.23 122.181 252.441 124.396 254.044C127.787 256.495 130.949 260.539 133.069 265.137C133.212 265.442 133.279 265.537 133.375 265.556H133.413H133.451C133.547 265.537 133.623 265.442 133.757 265.137C135.877 260.539 139.039 256.495 142.429 254.044C144.636 252.451 148.065 251.24 151.694 249.952C154.235 249.055 156.861 248.13 159.249 247.005C162.2 245.622 164.092 244.582 165.792 243.428C167.454 247.3 168.266 251.745 168.266 257.02C168.266 261.703 167.263 273.273 158.036 279.549Z" fill="white"/>
<path d="M164.445 234.538C163.929 234.758 162.258 235.32 161.551 235.549L161.532 235.559C161.484 235.578 161.437 235.578 161.389 235.578C161.284 235.578 161.188 235.54 161.121 235.482C160.711 235.072 160.195 234.586 159.727 234.185C158.877 233.451 157.96 232.764 157.014 232.154C155.152 230.952 153.022 229.931 150.701 229.13C148.351 228.319 145.715 227.699 142.869 227.299C140.013 226.889 136.842 226.679 133.451 226.679H133.404H133.346C129.956 226.688 126.785 226.898 123.929 227.299C121.082 227.709 118.446 228.319 116.097 229.13C113.776 229.931 111.655 230.942 109.783 232.154C108.828 232.764 107.921 233.451 107.071 234.185C106.593 234.595 106.087 235.063 105.686 235.473C105.628 235.53 105.495 235.597 105.39 235.597C105.342 235.597 105.304 235.587 105.256 235.568L105.237 235.559C104.54 235.33 102.878 234.777 102.371 234.557L102.343 234.595C102.505 234.662 102.82 234.834 103.193 235.006C103.947 235.339 104.883 235.759 105.065 235.826C105.151 235.854 105.237 235.893 105.332 235.95C105.466 236.026 105.609 236.131 105.705 236.236C105.743 236.274 105.772 236.312 105.8 236.341C105.886 236.455 107.711 238.897 108.064 239.384L108.093 239.336C108.074 239.317 106.584 237.094 106.125 236.436C105.991 236.236 106.01 235.921 106.144 235.778C111.913 230.055 120.825 227.261 133.404 227.251C145.973 227.261 154.894 230.065 160.663 235.788C160.797 235.931 160.797 236.236 160.663 236.436C160.243 237.047 158.953 238.954 158.705 239.326L158.743 239.374L158.772 239.336C159.125 238.849 160.892 236.446 160.978 236.322C160.997 236.293 161.035 236.255 161.074 236.217C161.179 236.122 161.303 235.998 161.446 235.921C161.542 235.864 161.666 235.788 161.752 235.759C161.933 235.702 162.85 235.282 163.595 234.948C163.968 234.777 164.331 234.653 164.493 234.586L164.445 234.538Z" fill="white"/>
<path d="M159.928 241.415C159.957 241.396 159.985 241.377 160.004 241.368C159.985 241.339 159.976 241.31 159.957 241.282C159.288 240.109 158.524 239.012 157.664 237.982C152.774 232.154 145.066 229.426 133.404 229.416C121.742 229.426 114.034 232.154 109.144 237.982C108.284 239.002 107.52 240.109 106.851 241.282C106.832 241.31 106.823 241.339 106.804 241.368C106.832 241.387 106.861 241.406 106.88 241.415C107.491 241.797 108.122 242.169 108.781 242.531C111.789 244.181 114.98 245.44 118.065 246.652L118.074 246.661C118.447 246.804 118.819 246.957 119.192 247.1C125.114 249.437 129.574 253.319 132.449 258.632C132.812 259.309 133.098 259.605 133.385 259.605C133.671 259.605 133.958 259.309 134.321 258.632C137.205 253.319 141.666 249.437 147.578 247.1C147.951 246.948 148.333 246.804 148.715 246.652C151.8 245.44 154.99 244.181 157.999 242.531C158.686 242.169 159.317 241.797 159.928 241.415ZM159.88 241.33C159.269 241.711 158.639 242.083 157.98 242.445C154.971 244.096 151.79 245.355 148.705 246.566C148.323 246.719 147.951 246.862 147.569 247.014C141.628 249.361 137.158 253.262 134.264 258.584C133.92 259.214 133.652 259.509 133.414 259.509C133.175 259.509 132.907 259.214 132.564 258.584C129.669 253.252 125.199 249.361 119.259 247.014C118.886 246.862 118.504 246.719 118.122 246.566C115.037 245.355 111.847 244.096 108.848 242.445C108.189 242.083 107.558 241.711 106.947 241.33C107.606 240.156 108.37 239.059 109.23 238.039C114.101 232.23 121.79 229.521 133.414 229.512C145.038 229.521 152.726 232.23 157.597 238.039C158.457 239.059 159.221 240.156 159.88 241.33Z" fill="#4D4D4D"/>
<path d="M103.365 256.772C103.365 259.128 103.795 271.194 112.229 277.584C117.024 281.218 123.366 282.783 133.414 282.792H133.423C143.452 282.773 149.794 281.218 154.598 277.584C163.032 271.213 163.462 259.128 163.462 256.772C163.462 254.454 163.3 252.279 162.984 250.267C162.975 250.238 162.975 250.2 162.965 250.171C162.937 250.19 162.908 250.2 162.879 250.219C159.183 252.251 155.754 253.224 152.593 254.12C152.354 254.187 152.115 254.254 151.886 254.321C147.626 255.541 144.235 257.144 141.523 259.233C139.937 260.454 138.562 261.856 137.435 263.42C136.212 265.108 135.238 267.025 134.531 269.133C134.197 270.135 133.891 270.507 133.423 270.507C132.955 270.507 132.659 270.135 132.315 269.133C131.608 267.025 130.634 265.108 129.412 263.42C128.285 261.865 126.909 260.454 125.324 259.233C122.611 257.144 119.22 255.532 114.96 254.321C114.722 254.254 114.492 254.187 114.254 254.12C111.092 253.224 107.663 252.241 103.967 250.219C103.938 250.2 103.91 250.19 103.881 250.171C103.871 250.2 103.871 250.238 103.862 250.267C103.528 252.289 103.365 254.454 103.365 256.772ZM103.461 256.772C103.461 254.464 103.623 252.317 103.938 250.314C107.635 252.337 111.064 253.309 114.215 254.206C114.454 254.273 114.693 254.34 114.922 254.406C119.173 255.627 122.554 257.23 125.257 259.309C126.833 260.52 128.199 261.922 129.326 263.477C130.539 265.156 131.513 267.073 132.22 269.162C132.573 270.211 132.898 270.602 133.414 270.602C133.929 270.602 134.254 270.211 134.608 269.162C135.314 267.064 136.289 265.156 137.502 263.477C138.629 261.922 139.994 260.52 141.57 259.309C144.273 257.23 147.655 255.627 151.905 254.406C152.144 254.34 152.373 254.273 152.612 254.206C155.773 253.309 159.202 252.337 162.889 250.314C163.204 252.317 163.366 254.473 163.366 256.772C163.366 259.118 162.937 271.165 154.541 277.508C149.746 281.132 143.433 282.687 133.414 282.697C123.385 282.678 117.071 281.132 112.286 277.508C103.891 271.146 103.461 259.118 103.461 256.772Z" fill="#4D4D4D"/>
<path d="M133.413 287.866C126.995 287.857 121.598 287.256 116.909 286.026C112.783 284.948 109.144 283.355 105.781 281.152C94.9694 274.093 94.1289 260.177 94.1289 256.085C94.1289 251.593 94.8166 247.482 96.1633 243.857C97.4146 240.5 99.2771 237.486 101.674 234.91C104.817 231.543 108.886 229.121 114.101 227.518C119.306 225.916 125.62 225.134 133.413 225.134C141.207 225.143 147.521 225.925 152.726 227.518C157.941 229.121 162.01 231.543 165.152 234.91C167.55 237.476 169.403 240.49 170.654 243.867C172.01 247.501 172.698 251.612 172.698 256.095C172.698 260.187 171.857 274.103 161.045 281.161C157.683 283.355 154.035 284.948 149.918 286.035C145.228 287.256 139.822 287.857 133.413 287.866ZM133.413 287.771C139.822 287.762 145.209 287.161 149.889 285.94C154.006 284.862 157.635 283.269 160.988 281.085C171.762 274.055 172.602 260.177 172.602 256.095C172.602 251.631 171.915 247.529 170.568 243.905C169.317 240.538 167.464 237.543 165.085 234.987C161.953 231.629 157.903 229.216 152.697 227.623C147.502 226.03 141.198 225.248 133.413 225.238C125.629 225.248 119.325 226.021 114.129 227.623C108.924 229.225 104.874 231.629 101.741 234.987C99.3439 237.552 97.5005 240.557 96.2493 243.905C94.9026 247.52 94.2149 251.621 94.2149 256.104C94.2149 260.187 95.0554 274.065 105.829 281.094C109.182 283.288 112.821 284.871 116.928 285.949C121.618 287.161 127.004 287.762 133.413 287.771Z" fill="url(#paint26_linear_1536_27543)"/>
<defs>
<linearGradient id="paint0_linear_1536_27543" x1="125.804" y1="226.658" x2="141.523" y2="285.404" gradientUnits="userSpaceOnUse">
<stop offset="0.2121"/>
<stop offset="0.3594" stop-color="#0B0B0B"/>
<stop offset="0.5939" stop-color="#262626"/>
<stop offset="0.8496" stop-color="#B2B2B2"/>
<stop offset="1" stop-color="white"/>
</linearGradient>
<linearGradient id="paint1_linear_1536_27543" x1="125.802" y1="226.658" x2="141.578" y2="285.613" gradientUnits="userSpaceOnUse">
<stop/>
<stop offset="0.5636" stop-color="#1A1A1A"/>
<stop offset="0.6183" stop-color="#202020"/>
<stop offset="0.7091" stop-color="#262626"/>
<stop offset="0.8364" stop-color="white"/>
<stop offset="0.8909" stop-color="white"/>
<stop offset="1" stop-color="#808080"/>
</linearGradient>
<linearGradient id="paint2_linear_1536_27543" x1="125.389" y1="225.002" x2="110.116" y2="282.078" gradientUnits="userSpaceOnUse">
<stop stop-opacity="0"/>
<stop offset="0.6061" stop-color="#1A1A1A"/>
<stop offset="0.6637" stop-color="#1D1D1D"/>
<stop offset="0.7091" stop-color="#262626"/>
<stop offset="0.8667" stop-color="#EEEEEE"/>
<stop offset="1" stop-color="#DCDCDC" stop-opacity="0"/>
</linearGradient>
<linearGradient id="paint3_linear_1536_27543" x1="144.926" y1="287.788" x2="122.009" y2="224.739" gradientUnits="userSpaceOnUse">
<stop offset="0.0364"/>
<stop offset="0.1939"/>
<stop offset="0.2857" stop-color="#343434"/>
<stop offset="0.448" stop-color="#8A8A8A"/>
<stop offset="0.5807" stop-color="#C9C9C9"/>
<stop offset="0.6771" stop-color="#F0F0F0"/>
<stop offset="0.7273" stop-color="white"/>
<stop offset="1" stop-color="#4D4D4D"/>
</linearGradient>
<linearGradient id="paint4_linear_1536_27543" x1="105.619" y1="253.499" x2="114.149" y2="223.71" gradientUnits="userSpaceOnUse">
<stop stop-color="white" stop-opacity="0"/>
<stop offset="0.4606" stop-color="white"/>
<stop offset="0.5396" stop-color="#F0F0F0" stop-opacity="0.8536"/>
<stop offset="1" stop-color="#9A9A9A" stop-opacity="0"/>
</linearGradient>
<linearGradient id="paint5_linear_1536_27543" x1="110.027" y1="232.813" x2="157.095" y2="232.813" gradientUnits="userSpaceOnUse">
<stop/>
<stop offset="0.00346498" stop-color="#020202" stop-opacity="0.9965"/>
<stop offset="0.0735" stop-color="#272727" stop-opacity="0.9265"/>
<stop offset="0.1469" stop-color="#464646" stop-opacity="0.8531"/>
<stop offset="0.2233" stop-color="#5E5E5E" stop-opacity="0.7767"/>
<stop offset="0.3043" stop-color="#6F6F6F" stop-opacity="0.6957"/>
<stop offset="0.3928" stop-color="#797979" stop-opacity="0.6072"/>
<stop offset="0.503" stop-color="#7C7C7C" stop-opacity="0.497"/>
<stop offset="1"/>
</linearGradient>
<linearGradient id="paint6_linear_1536_27543" x1="163.594" y1="270.776" x2="165.834" y2="276.939" gradientUnits="userSpaceOnUse">
<stop offset="0.2364" stop-opacity="0"/>
<stop offset="0.4424"/>
<stop offset="0.6909" stop-opacity="0.7394"/>
<stop offset="1" stop-opacity="0"/>
</linearGradient>
<linearGradient id="paint7_linear_1536_27543" x1="117.448" y1="223.017" x2="98.3982" y2="257.43" gradientUnits="userSpaceOnUse">
<stop stop-color="white" stop-opacity="0"/>
<stop offset="0.3697" stop-color="white"/>
<stop offset="1" stop-color="#808080" stop-opacity="0"/>
</linearGradient>
<linearGradient id="paint8_linear_1536_27543" x1="153.721" y1="233.389" x2="164.992" y2="233.389" gradientUnits="userSpaceOnUse">
<stop/>
<stop offset="0.0896" stop-opacity="0.9104"/>
<stop offset="1" stop-opacity="0"/>
</linearGradient>
<linearGradient id="paint9_linear_1536_27543" x1="106.753" y1="230.404" x2="106.753" y2="237.688" gradientUnits="userSpaceOnUse">
<stop/>
<stop offset="1" stop-opacity="0"/>
</linearGradient>
<linearGradient id="paint10_linear_1536_27543" x1="110.241" y1="273.499" x2="107.068" y2="282.228" gradientUnits="userSpaceOnUse">
<stop offset="0.0485" stop-opacity="0"/>
<stop offset="0.2606"/>
<stop offset="0.5333" stop-opacity="0.8517"/>
<stop offset="0.5997" stop-color="#040404" stop-opacity="0.8155"/>
<stop offset="0.6665" stop-color="#101010" stop-opacity="0.7791"/>
<stop offset="0.7333" stop-color="#242424" stop-opacity="0.7427"/>
<stop offset="0.7394" stop-color="#262626" stop-opacity="0.7394"/>
<stop offset="0.7412" stop-color="#252525" stop-opacity="0.7344"/>
<stop offset="0.7705" stop-color="#141414" stop-opacity="0.6512"/>
<stop offset="0.8068" stop-color="#090909" stop-opacity="0.5481"/>
<stop offset="0.858" stop-color="#020202" stop-opacity="0.403"/>
<stop offset="1" stop-opacity="0"/>
</linearGradient>
<linearGradient id="paint11_linear_1536_27543" x1="160.566" y1="251.343" x2="152.694" y2="223.853" gradientUnits="userSpaceOnUse">
<stop stop-color="white" stop-opacity="0"/>
<stop offset="0.09" stop-color="#E3E3E3" stop-opacity="0.1953"/>
<stop offset="0.2828" stop-color="#9C9C9C" stop-opacity="0.6139"/>
<stop offset="0.4606" stop-color="#565656"/>
<stop offset="0.4727" stop-color="#404040"/>
<stop offset="0.5792" stop-color="#444444" stop-opacity="0.7981"/>
<stop offset="0.6903" stop-color="#505050" stop-opacity="0.5875"/>
<stop offset="0.8034" stop-color="#656565" stop-opacity="0.373"/>
<stop offset="0.9174" stop-color="#828282" stop-opacity="0.1569"/>
<stop offset="0.9717" stop-color="#939393" stop-opacity="0.054"/>
<stop offset="1" stop-color="#9A9A9A" stop-opacity="0"/>
</linearGradient>
<linearGradient id="paint12_linear_1536_27543" x1="158.907" y1="237.778" x2="165.866" y2="237.778" gradientUnits="userSpaceOnUse">
<stop/>
<stop offset="0.3075" stop-color="#060606"/>
<stop offset="0.7008" stop-color="#151515"/>
<stop offset="1" stop-color="#262626"/>
</linearGradient>
<linearGradient id="paint13_linear_1536_27543" x1="108.074" y1="237.869" x2="101.117" y2="237.869" gradientUnits="userSpaceOnUse">
<stop/>
<stop offset="0.3075" stop-color="#060606"/>
<stop offset="0.7008" stop-color="#151515"/>
<stop offset="1" stop-color="#262626"/>
</linearGradient>
<linearGradient id="paint14_linear_1536_27543" x1="100.892" y1="237.996" x2="108.106" y2="237.996" gradientUnits="userSpaceOnUse">
<stop stop-color="#B2B2B2"/>
<stop offset="0.00266789" stop-color="#B1B1B1"/>
<stop offset="0.2557" stop-color="#676767"/>
<stop offset="0.4368" stop-color="#383838"/>
<stop offset="0.5273" stop-color="#262626"/>
</linearGradient>
<linearGradient id="paint15_linear_1536_27543" x1="165.962" y1="237.977" x2="158.718" y2="237.977" gradientUnits="userSpaceOnUse">
<stop stop-color="#B2B2B2"/>
<stop offset="0.00266789" stop-color="#B1B1B1"/>
<stop offset="0.2557" stop-color="#676767"/>
<stop offset="0.4368" stop-color="#383838"/>
<stop offset="0.5273" stop-color="#262626"/>
</linearGradient>
<linearGradient id="paint16_linear_1536_27543" x1="102.863" y1="258.337" x2="164.436" y2="258.337" gradientUnits="userSpaceOnUse">
<stop/>
<stop offset="0.0332" stop-color="#171717"/>
<stop offset="0.0963" stop-color="#3C3C3C"/>
<stop offset="0.1623" stop-color="#5B5B5B"/>
<stop offset="0.2312" stop-color="#737373"/>
<stop offset="0.3041" stop-color="#838383"/>
<stop offset="0.3838" stop-color="#8D8D8D"/>
<stop offset="0.483" stop-color="#919191"/>
<stop offset="0.497" stop-color="white" stop-opacity="0.7679"/>
<stop offset="0.498" stop-opacity="0.9"/>
<stop offset="0.5163" stop-color="#090909" stop-opacity="0.9342"/>
<stop offset="0.546" stop-color="#212121" stop-opacity="0.9897"/>
<stop offset="0.5515" stop-color="#262626"/>
<stop offset="0.5573" stop-color="#323232"/>
<stop offset="0.5654" stop-color="#393939"/>
<stop offset="0.5879" stop-color="#3B3B3B"/>
<stop offset="1"/>
</linearGradient>
<linearGradient id="paint17_linear_1536_27543" x1="103.602" y1="256.749" x2="130.181" y2="251.575" gradientUnits="userSpaceOnUse">
<stop/>
<stop offset="0.5569" stop-color="#181818"/>
<stop offset="1" stop-color="#262626"/>
</linearGradient>
<linearGradient id="paint18_linear_1536_27543" x1="133.416" y1="250.816" x2="166.18" y2="250.816" gradientUnits="userSpaceOnUse">
<stop/>
<stop offset="0.031" stop-color="#292929"/>
<stop offset="0.0661" stop-color="#4F4F4F"/>
<stop offset="0.1052" stop-color="#717171"/>
<stop offset="0.1478" stop-color="#8D8D8D"/>
<stop offset="0.1952" stop-color="#A4A4A4"/>
<stop offset="0.2495" stop-color="#B6B6B6"/>
<stop offset="0.3148" stop-color="#C3C3C3"/>
<stop offset="0.4024" stop-color="#CACACA"/>
<stop offset="0.6061" stop-color="#CCCCCC"/>
<stop offset="0.8242" stop-color="white"/>
</linearGradient>
<linearGradient id="paint19_linear_1536_27543" x1="147.245" y1="249.034" x2="152.067" y2="264.828" gradientUnits="userSpaceOnUse">
<stop/>
<stop offset="0.0304"/>
<stop offset="0.3394"/>
<stop offset="0.4177" stop-color="#090909"/>
<stop offset="0.5697" stop-color="#171717"/>
<stop offset="0.8061"/>
</linearGradient>
<linearGradient id="paint20_linear_1536_27543" x1="133.577" y1="250.793" x2="100.641" y2="250.793" gradientUnits="userSpaceOnUse">
<stop/>
<stop offset="0.0381" stop-color="#1F1F1F"/>
<stop offset="0.0845" stop-color="#3E3E3E"/>
<stop offset="0.1299" stop-color="#545454"/>
<stop offset="0.1731" stop-color="#616161"/>
<stop offset="0.2121" stop-color="#666666"/>
<stop offset="0.2408" stop-color="#737373"/>
<stop offset="0.3455" stop-color="#9E9E9E"/>
<stop offset="0.4522" stop-color="#C1C1C1"/>
<stop offset="0.5594" stop-color="#DCDCDC"/>
<stop offset="0.6676" stop-color="#F0F0F0"/>
<stop offset="0.7774" stop-color="#FBFBFB"/>
<stop offset="0.8909" stop-color="white"/>
<stop offset="1" stop-color="#ADADAD"/>
</linearGradient>
<linearGradient id="paint21_linear_1536_27543" x1="115.702" y1="225.598" x2="151.085" y2="286.966" gradientUnits="userSpaceOnUse">
<stop stop-color="#F2F2F2"/>
<stop offset="0.9717" stop-color="#262626"/>
</linearGradient>
<linearGradient id="paint22_linear_1536_27543" x1="111.638" y1="279.961" x2="156.033" y2="279.961" gradientUnits="userSpaceOnUse">
<stop/>
<stop offset="0.2378" stop-color="#262626"/>
<stop offset="0.503" stop-color="#565656"/>
<stop offset="1"/>
</linearGradient>
<linearGradient id="paint23_linear_1536_27543" x1="133.413" y1="285.849" x2="133.413" y2="242.92" gradientUnits="userSpaceOnUse">
<stop offset="0.1213" stop-color="#333333"/>
<stop offset="0.1777" stop-color="#3C3C3C"/>
<stop offset="0.2711" stop-color="#555555"/>
<stop offset="0.3899" stop-color="#7E7E7E"/>
<stop offset="0.5294" stop-color="#B7B7B7"/>
<stop offset="0.6698" stop-color="#F8F8F8"/>
<stop offset="0.7273" stop-color="white"/>
</linearGradient>
<linearGradient id="paint24_linear_1536_27543" x1="101.768" y1="272.021" x2="167.532" y2="248.052" gradientUnits="userSpaceOnUse">
<stop stop-color="#4D4D4D"/>
<stop offset="0.2075" stop-color="#999999"/>
<stop offset="0.3726" stop-color="#F2F2F2"/>
<stop offset="0.6339" stop-color="#F0F0F0"/>
<stop offset="0.728" stop-color="#EAEAEA"/>
<stop offset="0.795" stop-color="#DEDEDE"/>
<stop offset="0.8493" stop-color="#CDCDCD"/>
<stop offset="0.8957" stop-color="#B7B7B7"/>
<stop offset="0.9361" stop-color="#9C9C9C"/>
<stop offset="0.9725" stop-color="#7D7D7D"/>
<stop offset="0.9764" stop-color="#797979"/>
<stop offset="0.9981" stop-color="#505050"/>
<stop offset="1" stop-color="#4D4D4D"/>
</linearGradient>
<linearGradient id="paint25_linear_1536_27543" x1="133.413" y1="285.26" x2="133.413" y2="243.419" gradientUnits="userSpaceOnUse">
<stop offset="0.3632" stop-color="#F2F2F2" stop-opacity="0"/>
<stop offset="0.4287" stop-color="#E0E0E0" stop-opacity="0.1956"/>
<stop offset="0.5605" stop-color="#B1B1B1" stop-opacity="0.5892"/>
<stop offset="0.6981" stop-color="#797979"/>
<stop offset="0.7897" stop-color="#515151"/>
<stop offset="0.8753" stop-color="#323232"/>
<stop offset="0.9482" stop-color="#202020"/>
<stop offset="1" stop-color="#1A1A1A"/>
</linearGradient>
<linearGradient id="paint26_linear_1536_27543" x1="151.125" y1="225.598" x2="115.742" y2="286.966" gradientUnits="userSpaceOnUse">
<stop stop-color="#E6E6E6"/>
<stop offset="1" stop-color="#333333"/>
</linearGradient>
<clipPath id="clip0_1536_27543">
<rect width="253.167" height="43" fill="white" transform="translate(183 235)"/>
</clipPath>
</defs>
</svg>
