<svg width="512" height="512" viewBox="0 0 512 512" fill="none" xmlns="http://www.w3.org/2000/svg">
<path d="M95.1816 203.222L74.3939 236.613L116.133 309.452L160 309.288L137.739 273.278H53.6061L32 309.779H72.9207L116.788 235.958L95.1816 203.222Z" fill="white"/>
<path d="M208.276 248.126V219.191L198.376 240.195L188.848 219.191V248.126H181V203.772H189.645L198.376 223.973L207.473 203.772H216.177V248.126" fill="white"/>
<path d="M223.312 248.126H231.23V203.771H223.312V248.126Z" fill="white"/>
<path d="M252.179 210.5V248.126H244.278V210.5H234.792V203.772H261.707V210.5" fill="white"/>
<path d="M276.355 249.333C266.056 249.333 262.51 242.573 262.101 234.233H269.635C269.635 238.243 271.623 242.158 276.355 242.158C280.306 242.158 282.688 240.195 282.688 237.052C282.688 234.233 280.726 233.057 272.4 228.334C266.455 224.744 262.51 221.196 262.51 214.856C262.51 208.111 266.875 203.388 275.978 203.388C285.852 203.388 289.425 209.702 289.818 217.217H281.928C281.928 213.659 279.96 210.074 275.978 210.074C272.4 210.074 270.432 211.702 270.432 214.452C270.432 217.611 272.798 219.191 279.115 222.387C286.25 226.377 290.6 229.499 290.6 236.674C290.6 244.961 283.9 249.333 276.355 249.333Z" fill="white"/>
<path d="M309.342 248.892C302.243 248.892 293.917 246.126 293.917 234.233V203.777H301.839V234.233C301.839 238.993 304.216 241.791 309.342 241.791C313.723 241.791 316.137 238.993 316.137 234.233V203.777H324.017V234.233C324.017 245.743 316.137 248.892 309.342 248.892Z" fill="white"/>
<path d="M343.014 228.717H339.861V221.601H343.014C346.981 221.601 349.331 220.021 349.331 216.069C349.331 212.112 346.571 210.5 343.014 210.5H337.086V241.408H343.402C347.746 241.408 350.527 239.424 350.527 234.669C350.527 230.297 347.746 228.717 343.014 228.717ZM345.38 248.126H329.185V203.777H343.828C352.111 203.777 357.242 207.723 357.242 214.856C357.242 220.776 352.936 224.366 350.926 224.744C353.712 225.563 358.832 228.717 358.832 235.845C358.832 242.951 353.313 248.126 345.38 248.126Z" fill="white"/>
<path d="M433.233 248.126V228.717H417.086V248.126H408.743V203.772H417.086V221.196H432.861V203.772H441.177V248.126" fill="white"/>
<path d="M363.197 248.126H371.12V203.771H363.197V248.126Z" fill="white"/>
<path d="M448.7 248.126H456.617V203.771H448.7V248.126Z" fill="white"/>
<path d="M390.517 248.493C380.207 248.493 376.66 242.158 376.262 233.451H383.769C383.769 237.419 385.747 241.786 390.517 241.786C394.494 241.786 396.881 239.802 396.881 236.669C396.881 233.84 394.908 232.233 386.587 227.505C380.638 224.361 376.66 220.771 376.66 214.452C376.66 207.718 381.01 203 390.134 203C400.029 203 403.591 209.303 403.995 216.792H396.482C396.052 212.872 394.068 209.697 390.134 209.697C386.975 209.697 384.583 211.261 384.583 214.043C384.583 216.792 386.975 218.42 393.313 222.005C400.422 225.909 404.782 228.712 404.782 236.286C404.782 244.142 398.045 248.493 390.517 248.493Z" fill="white"/>
<path d="M276.703 270.993C270.765 270.993 267.141 277.714 267.141 286.922C267.141 296.07 270.765 302.422 276.703 302.422C282.69 302.422 286.297 296.07 286.297 286.922C286.297 277.714 282.69 270.993 276.703 270.993ZM276.703 309.982C264.399 309.982 258.809 299.289 258.809 286.922C258.809 274.549 264.399 263.85 276.703 263.85C289.061 263.85 294.619 274.549 294.619 286.922C294.619 299.289 289.061 309.982 276.703 309.982Z" fill="white"/>
<path d="M379.496 308.807L366.374 284.949H368.736C371.532 284.949 376.321 284.142 376.321 277.72C376.321 272.165 371.532 270.994 368.346 270.994H363.573V308.807H355.599V264.225H370.356C379.084 264.225 385.044 268.593 385.044 276.95C385.044 284.949 380.303 288.082 377.502 289.312L389.052 308.807" fill="white"/>
<path d="M402.666 309.196C392.313 309.196 388.737 302.871 388.31 294.065H395.889C395.889 298.059 397.882 302.422 402.666 302.422C406.648 302.422 409.08 300.438 409.08 297.3C409.08 294.482 407.027 292.872 398.695 288.082C392.724 284.948 388.737 281.387 388.737 274.971C388.737 268.218 393.104 263.449 402.26 263.449C412.228 263.449 415.83 269.785 416.189 277.383H408.241C408.241 273.356 406.263 270.229 402.26 270.229C399.08 270.229 396.674 271.79 396.674 274.549C396.674 277.383 399.08 278.944 405.445 282.542C412.613 286.504 417.017 289.311 417.017 296.909C417.017 304.812 410.256 309.196 402.666 309.196Z" fill="white"/>
<path d="M334.669 270.993C328.699 270.993 325.107 277.714 325.107 286.922C325.107 296.07 328.699 302.422 334.669 302.422C340.655 302.422 344.204 296.07 344.204 286.922C344.204 277.714 340.655 270.993 334.669 270.993ZM334.669 309.982C322.349 309.982 316.801 299.289 316.801 286.922C316.801 274.549 322.349 263.85 334.669 263.85C347.021 263.85 352.547 274.549 352.547 286.922C352.547 299.289 347.021 309.982 334.669 309.982Z" fill="white"/>
<path d="M309.462 270.993V308.801H301.492V270.993H291.957V264.224H319.029V270.993" fill="white"/>
<path d="M248.081 308.807V279.72L238.107 300.888L228.545 279.72V308.807H220.565V264.225H229.342L238.107 284.532L247.258 264.225H256.066V308.807" fill="white"/>
</svg>
