<svg width="512" height="512" viewBox="0 0 512 512" fill="none" xmlns="http://www.w3.org/2000/svg">
<path d="M334.11 261.382C338.424 251.075 342.628 241.103 342.741 240.833C342.989 240.266 343.422 240.014 344.103 239.942C344.409 239.914 345.113 239.9 345.828 239.9C346.506 239.9 347.193 239.914 347.434 239.942C348.035 240.028 348.575 240.298 348.819 240.947C349.874 243.83 353.463 252.537 357.145 261.382H334.11ZM363.068 236.188C358.839 226.358 360.427 227.446 351.091 227.122C350.235 227.087 348.362 227.052 345.574 227.046C342.779 227.046 342.047 227.066 339.916 227.108C331.126 227.263 332.504 226.655 329.497 233.022C329.5 233.022 314.389 267.68 307.83 282.086L307.534 282.694C306.304 285.131 307.208 285.218 309.16 285.218L322.859 285.207C323.729 285.207 324.306 284.671 324.529 284.188C324.529 284.188 326.413 279.677 329.002 273.58H362.256C364.742 279.521 366.598 283.935 366.698 284.153C366.986 284.827 367.622 285.238 368.368 285.238L382.483 285.214C384.58 285.214 385.03 285.484 384.229 283.579C381.716 277.586 365.419 241.684 363.068 236.188ZM150.395 227.087H136.531C135.438 227.087 135.129 227.627 135.129 228.574V283.445C135.129 284.955 135.469 285.218 136.992 285.218H150.12C151.595 285.218 151.904 284.869 151.904 283.452V228.605C151.904 227.533 151.571 227.087 150.395 227.087ZM119.352 227.074H108.011C106.502 227.074 106.227 227.426 106.227 228.857L106.22 272.305C106.22 272.305 83.4158 236.593 80.4596 231.982C77.0323 226.656 75.8189 227.005 65.8982 227.005C55.9603 227.005 52.7944 227.074 52.7944 227.074C51.2784 227.081 51 227.426 51 228.844L51.0309 283.445C51.0309 284.928 51.3575 285.225 52.8253 285.225L64.1898 285.218C65.7263 285.218 66.0151 284.869 66.0151 283.452L66.0013 240.616C66.0013 240.616 84.7393 270.207 91.054 280.148C94.2475 285.18 94.8147 285.211 104.003 285.218L119.355 285.211C120.85 285.211 121.17 284.928 121.17 283.431V228.85C121.17 227.413 120.902 227.074 119.352 227.074ZM458.425 227.074H447.095C445.589 227.074 445.304 227.426 445.304 228.857L445.297 272.305C445.297 272.305 422.527 236.593 419.55 231.982C416.126 226.656 414.919 227.005 404.971 227.005C395.064 227.005 391.874 227.074 391.874 227.074C390.369 227.081 390.083 227.426 390.083 228.844L390.114 283.445C390.118 284.928 390.441 285.225 391.909 285.225L403.277 285.218C404.813 285.218 405.092 284.869 405.092 283.452L405.081 240.616C405.081 240.616 423.819 270.207 430.137 280.148C433.331 285.18 433.884 285.211 443.1 285.218L458.432 285.211C459.93 285.211 460.253 284.928 460.253 283.431V228.85C460.253 227.413 459.982 227.074 458.425 227.074ZM209.946 249.372C204.48 248.833 189.544 247.409 184.649 246.963C182.858 246.787 182.359 245.739 182.212 244.564C182.143 244.039 182.143 243.607 182.143 243.254C182.143 242.722 182.167 242.438 182.212 242.041C182.373 240.392 183.219 239.718 184.968 239.718C186.093 239.718 225.452 239.725 225.452 239.725C226.923 239.732 227.291 239.449 227.291 237.935V228.689C227.291 227.289 226.868 227.047 225.456 227.04H184.343C173.635 227.04 167.595 230.97 165.949 239.096C165.584 240.921 165.509 243.147 165.509 244.72C165.509 246.624 165.629 248.581 165.835 250.088C166.471 254.747 169.286 260.222 181.61 261.442C191.407 262.413 205.497 263.609 210.231 264.021C212.376 264.204 212.757 265.832 212.891 266.748C212.946 267.1 212.974 267.626 212.974 268.32C212.974 268.936 212.974 269.585 212.891 270.481C212.781 271.77 212.197 272.378 210.52 272.378H167.581C166.076 272.378 165.766 272.689 165.766 274.169V283.384C165.766 284.88 166.124 285.177 167.571 285.177H209.966C220.468 285.177 227.343 283.39 229.189 274.22C229.581 272.285 229.653 269.751 229.653 267.978C229.653 265.237 229.467 262.78 229.288 261.86C227.394 252.241 220.186 250.385 209.946 249.372ZM284.35 249.372C278.877 248.833 263.951 247.409 259.053 246.963C257.262 246.787 256.757 245.739 256.605 244.564C256.557 244.039 256.557 243.607 256.557 243.254C256.557 242.722 256.585 242.438 256.605 242.041C256.777 240.392 257.613 239.718 259.4 239.718C260.5 239.718 299.87 239.725 299.87 239.725C301.324 239.732 301.685 239.449 301.685 237.935V228.689C301.685 227.289 301.269 227.047 299.87 227.04H258.747C248.039 227.04 241.996 230.97 240.356 239.096C239.992 240.921 239.913 243.147 239.913 244.72C239.913 246.624 240.03 248.581 240.236 250.088C240.882 254.747 243.687 260.222 256.004 261.442C265.797 262.413 279.908 263.609 284.638 264.021C286.77 264.204 287.162 265.832 287.299 266.748C287.351 267.1 287.375 267.626 287.375 268.32C287.375 268.936 287.375 269.585 287.299 270.481C287.186 271.77 286.605 272.378 284.934 272.378H241.986C240.47 272.378 240.174 272.689 240.171 274.169L240.177 283.384C240.171 284.88 240.535 285.177 241.979 285.177H284.367C294.868 285.177 301.733 283.39 303.589 274.22C303.971 272.285 304.057 269.751 304.057 267.978C304.057 265.237 303.864 262.78 303.679 261.86C301.781 252.241 294.587 250.385 284.35 249.372Z" fill="#C90C41"/>
</svg>
