<svg width="512" height="512" viewBox="0 0 512 512" fill="none" xmlns="http://www.w3.org/2000/svg">
<path d="M292.927 234.913C300.961 234.913 307.173 236.717 311.558 240.324C315.943 243.934 318.179 249.222 318.26 256.194H307.07C306.987 247.911 302.191 243.77 292.681 243.77C288.746 243.77 285.629 244.569 283.336 246.168C281.04 247.765 279.893 249.92 279.893 252.625C279.893 254.432 280.321 255.906 281.184 257.053C282.046 258.202 283.171 259.144 284.566 259.882C285.957 260.623 287.599 261.216 289.485 261.665C291.371 262.12 293.377 262.549 295.507 262.958C298.297 263.533 301.167 264.17 304.119 264.865C307.07 265.562 309.713 266.607 312.049 268.001C314.389 269.396 316.312 271.282 317.829 273.661C319.347 276.041 320.104 279.196 320.104 283.133C320.104 286.004 319.449 288.605 318.135 290.942C316.823 293.281 315.021 295.269 312.726 296.91C310.432 298.551 307.703 299.821 304.547 300.723C301.392 301.626 297.968 302.075 294.28 302.075C285.427 302.075 278.619 300.15 273.868 296.294C269.271 292.57 266.867 287.311 266.635 280.529H278.08C278.226 284.675 279.639 287.825 282.354 289.959C285.221 292.216 289.281 293.341 294.525 293.341C298.871 293.341 302.212 292.542 304.55 290.942C306.885 289.343 308.053 286.986 308.053 283.868C308.053 281.901 307.601 280.324 306.702 279.133C305.799 277.947 304.589 276.963 303.072 276.182C301.554 275.404 299.815 274.787 297.845 274.336C295.878 273.886 293.828 273.455 291.696 273.045C288.894 272.549 286.106 271.974 283.336 271.321C280.547 270.668 278.026 269.662 275.772 268.31C273.518 266.955 271.672 265.09 270.24 262.713C268.803 260.334 268.086 257.22 268.086 253.365C268.086 250.657 268.681 248.176 269.869 245.921C271.058 243.667 272.74 241.72 274.913 240.079C277.083 238.439 279.687 237.166 282.72 236.266C285.755 235.362 289.157 234.913 292.927 234.913ZM233.286 234.913C243.204 234.913 250.48 238.154 255.114 244.627C259.745 251.108 262.064 260.252 262.064 272.061H214.716C214.878 275.179 215.452 278.026 216.438 280.609C217.421 283.194 218.753 285.407 220.433 287.254C222.057 289.056 224.022 290.519 226.214 291.557C228.384 292.583 230.782 293.096 233.408 293.096C237.508 293.096 241.011 292.153 243.922 290.267C246.83 288.381 249.395 284.996 250.09 280.529H262.06C260.651 288.351 257.202 293.362 251.915 296.847C246.625 300.331 240.334 302.076 233.038 302.076C223.281 302.076 215.824 299.103 210.66 293.156C205.494 287.211 202.91 278.992 202.91 268.492C202.91 263.739 203.605 259.309 205 255.209C206.394 251.108 208.421 247.542 211.088 244.506C213.737 241.483 217.009 239.07 220.68 237.433C224.409 235.753 228.612 234.913 233.284 234.913H233.286ZM143.826 234.913C148.582 234.913 152.865 235.733 156.678 237.372C160.489 239.013 163.728 241.329 166.393 244.322C169.056 247.316 171.107 250.863 172.54 254.963C173.975 259.064 174.695 263.572 174.695 268.492C174.695 273.414 173.975 277.945 172.54 282.087C171.104 286.228 169.057 289.774 166.392 292.728C163.729 295.679 160.468 297.975 156.616 299.615C152.762 301.253 148.457 302.076 143.706 302.076C139.033 302.076 134.809 301.253 131.038 299.614C127.266 297.975 124.048 295.677 121.383 292.728C118.721 289.774 116.691 286.228 115.298 282.087C113.903 277.947 113.206 273.414 113.206 268.492C113.206 263.572 113.924 259.064 115.361 254.964C116.792 250.863 118.821 247.316 121.446 244.322C124.069 241.329 127.287 239.013 131.099 237.372C134.912 235.733 139.155 234.913 143.825 234.913H143.826ZM389.695 234.913C395.679 234.913 400.351 235.816 403.711 237.618C407.075 239.424 409.572 241.718 411.214 244.506C412.852 247.296 413.858 250.391 414.226 253.793C414.59 257.082 414.776 260.388 414.783 263.697V281.04C414.783 284.73 414.882 288.136 415.088 291.249C415.277 294.273 415.709 297.276 416.379 300.231H405.805C405.606 299.109 405.442 297.981 405.312 296.849C405.147 295.494 405.024 293.752 404.941 291.62C402.238 295.23 399.12 297.791 395.598 299.307C392.071 300.825 388.013 301.585 383.422 301.585C376.37 301.585 370.941 299.8 367.128 296.232C363.317 292.665 361.41 288.053 361.41 282.393C361.41 278.95 362.087 276.059 363.44 273.722C364.775 271.403 366.626 269.424 368.851 267.938C371.103 266.424 373.708 265.233 376.659 264.371C379.642 263.504 382.683 262.847 385.758 262.404C388.873 261.954 391.991 261.605 395.105 261.36C398.22 261.114 401.088 260.826 403.713 260.497V258.283C403.713 253.53 402.606 249.858 400.394 247.274C398.178 244.692 394.613 243.4 389.695 243.4C385.268 243.4 381.702 244.487 378.997 246.659C376.291 248.833 374.938 252.051 374.938 256.316H363.748C363.748 253.036 364.38 250.084 365.652 247.46C366.909 244.852 368.739 242.56 371.004 240.756C373.298 238.91 376.025 237.475 379.181 236.45C382.335 235.424 385.84 234.912 389.695 234.912V234.913ZM344.047 221.383V236.757H357.822V246.105H344.047V277.72C344.047 279.933 344.11 281.922 344.233 283.685C344.355 285.449 344.664 286.923 345.155 288.113C345.646 289.304 346.406 290.204 347.429 290.821C348.453 291.435 349.866 291.743 351.671 291.743C352.572 291.743 353.537 291.724 354.562 291.68C355.587 291.64 356.753 291.455 358.065 291.126V300.231C354.706 300.968 351.59 301.336 348.719 301.336C346.26 301.336 344.027 301.031 342.017 300.414C340.01 299.8 338.329 298.798 336.976 297.403C335.623 296.005 334.578 294.122 333.842 291.743C333.101 289.367 332.734 286.454 332.734 283.009V246.105H321.052V236.757H332.734V221.382H344.047V221.383ZM454.868 236.019C457.244 236.019 459.621 236.266 462 236.755V246.719C460.692 246.489 459.38 246.284 458.065 246.103C456.883 245.944 455.692 245.862 454.5 245.858C451.057 245.858 448.247 246.454 446.075 247.642C443.93 248.806 442.161 250.556 440.972 252.687C439.745 254.859 438.883 257.504 438.389 260.622C437.898 263.739 437.653 267.224 437.653 271.076V300.229H426.338V236.757H437.036V246.105C439.496 242.251 442.202 239.608 445.152 238.172C448.105 236.738 451.342 236.018 454.867 236.018V236.019L454.868 236.019ZM194.429 210.926V300.229H183.117V210.925H194.429V210.926ZM77.0536 210.926C80.8231 210.926 84.7597 211.091 88.8597 211.417C92.9583 211.745 96.9752 212.892 100.912 214.861C104.846 216.993 107.815 220.088 109.828 224.149C111.835 228.208 112.84 232.78 112.84 237.865C112.84 243.276 111.75 247.887 109.58 251.701C107.407 255.514 104.477 258.532 100.789 260.743C98.2464 262.222 94.9279 263.309 90.8267 264.003C86.7267 264.7 81.8882 265.051 76.3177 265.051H62.0509V300.229H50V210.925H77.0536V210.926ZM403.71 269.232C401.332 269.56 398.383 269.828 394.857 270.031C391.414 270.225 387.996 270.74 384.649 271.57C381.37 272.389 378.582 273.64 376.288 275.322C373.992 277.001 372.845 279.442 372.845 282.641C372.845 285.757 374.013 288.316 376.348 290.327C378.689 292.339 381.902 293.341 386.001 293.341C388.295 293.341 390.511 293.057 392.644 292.479C394.759 291.916 396.701 290.839 398.299 289.343C399.939 287.828 401.25 285.736 402.235 283.07C403.22 280.405 403.711 276.981 403.711 272.8V269.232H403.71ZM143.826 244.015C140.954 244.015 138.355 244.59 136.02 245.735C133.679 246.886 131.692 248.525 130.054 250.657C128.414 252.788 127.143 255.354 126.241 258.346C125.338 261.339 124.889 264.682 124.889 268.372C124.889 272.061 125.319 275.424 126.181 278.457C127.04 281.492 128.289 284.096 129.931 286.269C131.569 288.442 133.557 290.123 135.895 291.312C138.233 292.501 140.833 293.096 143.702 293.096C146.656 293.096 149.338 292.501 151.76 291.312C154.147 290.147 156.231 288.441 157.845 286.331C159.483 284.2 160.754 281.638 161.656 278.639C162.559 275.651 163.009 272.306 163.009 268.616C163.009 264.925 162.557 261.586 161.656 258.592C160.753 255.599 159.464 253.015 157.785 250.842C156.103 248.668 154.095 246.988 151.76 245.798C149.422 244.61 146.778 244.015 143.825 244.015H143.827H143.826ZM232.795 244.015C227.958 244.015 223.979 245.553 220.863 248.627C217.748 251.702 215.781 256.439 214.962 262.835H250.009C249.352 256.439 247.467 251.702 244.352 248.627C241.237 245.553 237.383 244.015 232.792 244.015H232.795ZM77.5447 220.762H62.0509V255.212H77.5474C80.6611 255.212 83.4899 255.067 86.0309 254.781C88.5733 254.493 90.5376 254.022 91.9346 253.367C94.7205 251.972 96.832 249.881 98.2651 247.091C99.7023 244.305 100.419 241.23 100.419 237.866C100.419 234.505 99.7023 231.449 98.2651 228.701C96.8294 225.956 94.7205 223.883 91.9346 222.49C90.5376 221.751 88.5733 221.282 86.0309 221.077C83.4899 220.871 80.6611 220.767 77.5474 220.767L77.5447 220.762Z" fill="white"/>
</svg>
