<svg width="512" height="512" viewBox="0 0 512 512" fill="none" xmlns="http://www.w3.org/2000/svg">
<path d="M290.418 357.38C297.906 357.38 303.695 359.061 307.782 362.423C311.869 365.788 313.953 370.717 314.029 377.214H303.599C303.522 369.494 299.052 365.635 290.188 365.635C286.52 365.635 283.616 366.379 281.478 367.869C279.338 369.359 278.269 371.366 278.269 373.888C278.269 375.572 278.668 376.946 279.473 378.015C280.276 379.086 281.325 379.964 282.624 380.652C283.921 381.343 285.452 381.895 287.209 382.314C288.967 382.738 290.837 383.137 292.822 383.519C295.423 384.055 298.098 384.649 300.849 385.296C303.599 385.946 306.062 386.92 308.24 388.219C310.421 389.519 312.213 391.277 313.627 393.495C315.042 395.712 315.748 398.653 315.748 402.322C315.748 404.999 315.137 407.423 313.912 409.601C312.69 411.781 311.01 413.634 308.871 415.163C306.733 416.693 304.189 417.877 301.248 418.717C298.307 419.559 295.116 419.977 291.679 419.977C283.428 419.977 277.082 418.184 272.653 414.589C268.369 411.118 266.128 406.217 265.912 399.895H276.579C276.715 403.76 278.032 406.696 280.563 408.685C283.235 410.788 287.019 411.837 291.907 411.837C295.958 411.837 299.072 411.092 301.251 409.601C303.427 408.11 304.516 405.914 304.516 403.008C304.516 401.175 304.094 399.704 303.256 398.594C302.414 397.489 301.287 396.572 299.873 395.844C298.458 395.119 296.837 394.544 295.001 394.123C293.168 393.704 291.257 393.303 289.27 392.92C286.658 392.458 284.06 391.922 281.478 391.314C278.879 390.705 276.529 389.767 274.428 388.507C272.328 387.244 270.607 385.506 269.272 383.291C267.933 381.073 267.264 378.171 267.264 374.578C267.264 372.054 267.819 369.741 268.927 367.64C270.034 365.539 271.602 363.724 273.627 362.195C275.65 360.666 278.077 359.48 280.905 358.64C283.733 357.799 286.903 357.38 290.418 357.38ZM234.829 357.38C244.073 357.38 250.855 360.4 255.174 366.434C259.491 372.474 261.652 380.997 261.652 392.003H217.521C217.672 394.909 218.207 397.563 219.127 399.97C220.043 402.38 221.284 404.442 222.851 406.163C224.364 407.843 226.195 409.207 228.238 410.174C230.261 411.131 232.496 411.609 234.943 411.609C238.764 411.609 242.029 410.729 244.743 408.972C247.453 407.214 249.844 404.059 250.491 399.895H261.648C260.335 407.186 257.12 411.857 252.192 415.104C247.262 418.352 241.398 419.978 234.599 419.978C225.504 419.978 218.554 417.207 213.741 411.665C208.926 406.124 206.518 398.463 206.518 388.677C206.518 384.247 207.166 380.118 208.466 376.297C209.765 372.474 211.655 369.15 214.14 366.32C216.609 363.503 219.659 361.254 223.08 359.728C226.556 358.163 230.473 357.38 234.828 357.38H234.829ZM151.449 357.38C155.882 357.38 159.874 358.144 163.428 359.672C166.98 361.201 169.998 363.36 172.483 366.15C174.965 368.94 176.877 372.246 178.212 376.067C179.549 379.89 180.22 384.091 180.22 388.677C180.22 393.264 179.549 397.487 178.212 401.348C176.874 405.207 174.966 408.512 172.482 411.266C170 414.016 166.96 416.156 163.37 417.685C159.778 419.211 155.766 419.978 151.337 419.978C146.982 419.978 143.045 419.211 139.53 417.683C136.015 416.156 133.015 414.014 130.532 411.266C128.05 408.512 126.158 405.207 124.86 401.348C123.561 397.489 122.911 393.264 122.911 388.677C122.911 384.091 123.579 379.89 124.919 376.068C126.253 372.246 128.144 368.94 130.591 366.15C133.035 363.36 136.035 361.201 139.588 359.672C143.141 358.144 147.096 357.38 151.448 357.38H151.449ZM380.609 357.38C386.186 357.38 390.541 358.221 393.673 359.901C396.808 361.584 399.135 363.723 400.665 366.32C402.192 368.921 403.13 371.805 403.473 374.977C403.812 378.042 403.986 381.123 403.992 384.207V400.372C403.992 403.811 404.084 406.985 404.276 409.887C404.453 412.705 404.855 415.505 405.479 418.258H395.624C395.439 417.213 395.285 416.162 395.164 415.107C395.011 413.843 394.896 412.22 394.819 410.233C392.299 413.598 389.394 415.985 386.111 417.398C382.824 418.812 379.041 419.521 374.762 419.521C368.189 419.521 363.13 417.857 359.575 414.532C356.023 411.207 354.246 406.908 354.246 401.633C354.246 398.424 354.877 395.73 356.138 393.551C357.382 391.39 359.108 389.546 361.182 388.161C363.281 386.749 365.709 385.639 368.459 384.836C371.24 384.028 374.073 383.415 376.939 383.002C379.843 382.583 382.749 382.258 385.651 382.03C388.554 381.8 391.228 381.532 393.674 381.225V379.161C393.674 374.731 392.642 371.309 390.581 368.901C388.516 366.494 385.193 365.29 380.609 365.29C376.483 365.29 373.159 366.303 370.638 368.327C368.116 370.354 366.855 373.353 366.855 377.328H356.425C356.425 374.271 357.015 371.52 358.2 369.074C359.372 366.643 361.077 364.507 363.188 362.826C365.326 361.105 367.868 359.768 370.81 358.813C373.749 357.856 377.016 357.378 380.609 357.378V357.38ZM338.063 344.77V359.098H350.903V367.811H338.063V397.277C338.063 399.34 338.122 401.194 338.236 402.837C338.35 404.481 338.638 405.855 339.096 406.964C339.553 408.074 340.262 408.913 341.216 409.488C342.17 410.061 343.487 410.348 345.169 410.348C346.009 410.348 346.908 410.33 347.863 410.289C348.819 410.252 349.906 410.08 351.128 409.773V418.258C347.998 418.946 345.093 419.289 342.418 419.289C340.126 419.289 338.044 419.004 336.171 418.429C334.3 417.857 332.734 416.923 331.473 415.623C330.212 414.32 329.238 412.565 328.552 410.348C327.861 408.133 327.52 405.418 327.52 402.207V367.811H316.631V359.098H327.52V344.768H338.063V344.77ZM441.353 358.411C443.568 358.411 445.783 358.64 448 359.097V368.383C446.781 368.169 445.558 367.978 444.332 367.81C443.231 367.661 442.121 367.585 441.01 367.581C437.801 367.581 435.182 368.136 433.158 369.244C431.158 370.329 429.509 371.959 428.401 373.946C427.257 375.97 426.454 378.435 425.994 381.341C425.536 384.247 425.308 387.495 425.308 391.085V418.257H414.762V359.098H424.733V367.811C427.025 364.219 429.547 361.756 432.297 360.418C435.05 359.081 438.066 358.41 441.351 358.41V358.411L441.353 358.411ZM198.613 335.023V418.257H188.07V335.022H198.613V335.023ZM89.215 335.023C92.7283 335.023 96.3974 335.176 100.219 335.481C104.039 335.786 107.783 336.855 111.452 338.691C115.119 340.678 117.886 343.562 119.762 347.347C121.632 351.13 122.569 355.392 122.569 360.131C122.569 365.174 121.554 369.472 119.531 373.026C117.506 376.581 114.774 379.393 111.337 381.455C108.968 382.833 105.875 383.846 102.052 384.493C98.2308 385.143 93.721 385.469 88.5291 385.469H75.2319V418.257H64V335.022H89.215V335.023ZM393.671 389.367C391.455 389.672 388.706 389.922 385.42 390.111C382.211 390.292 379.025 390.772 375.906 391.546C372.85 392.309 370.251 393.475 368.113 395.043C365.973 396.608 364.904 398.883 364.904 401.864C364.904 404.768 365.993 407.154 368.169 409.028C370.351 410.903 373.345 411.837 377.166 411.837C379.304 411.837 381.369 411.572 383.357 411.034C385.328 410.509 387.139 409.505 388.628 408.11C390.157 406.698 391.379 404.749 392.297 402.264C393.215 399.78 393.673 396.589 393.673 392.692V389.367H393.671ZM151.449 365.863C148.773 365.863 146.35 366.399 144.174 367.467C141.992 368.539 140.14 370.067 138.614 372.054C137.085 374.04 135.9 376.431 135.059 379.22C134.218 382.01 133.8 385.125 133.8 388.565C133.8 392.003 134.2 395.137 135.003 397.965C135.804 400.793 136.969 403.22 138.499 405.246C140.026 407.271 141.879 408.837 144.058 409.946C146.236 411.054 148.66 411.609 151.334 411.609C154.087 411.609 156.587 411.054 158.844 409.946C161.069 408.86 163.011 407.27 164.516 405.303C166.042 403.317 167.227 400.929 168.068 398.134C168.91 395.349 169.329 392.231 169.329 388.792C169.329 385.352 168.907 382.24 168.068 379.449C167.226 376.659 166.025 374.251 164.46 372.226C162.892 370.2 161.02 368.634 158.844 367.525C156.665 366.418 154.201 365.863 151.448 365.863H151.451H151.449ZM234.372 365.863C229.863 365.863 226.156 367.297 223.251 370.162C220.348 373.028 218.514 377.443 217.751 383.404H250.416C249.804 377.443 248.047 373.028 245.143 370.162C242.24 367.297 238.648 365.863 234.369 365.863H234.372ZM89.6727 344.191H75.2319V376.299H89.6752C92.5774 376.299 95.2139 376.164 97.5822 375.897C99.9518 375.629 101.783 375.19 103.085 374.579C105.681 373.28 107.649 371.33 108.985 368.73C110.324 366.133 110.993 363.267 110.993 360.132C110.993 356.999 110.324 354.151 108.985 351.59C107.647 349.031 105.681 347.099 103.085 345.801C101.783 345.113 99.9518 344.675 97.5822 344.484C95.2139 344.292 92.5774 344.195 89.6752 344.195L89.6727 344.191Z" fill="black"/>
<path fill-rule="evenodd" clip-rule="evenodd" d="M255.238 192.439V283.162L251.533 287.668L236.224 211.425L255.238 192.439Z" fill="black"/>
<path fill-rule="evenodd" clip-rule="evenodd" d="M256.748 188.243V97.5058L260.453 93L275.762 169.229L256.748 188.243Z" fill="black"/>
<path fill-rule="evenodd" clip-rule="evenodd" d="M236.224 211.425L160 196.143L164.501 192.439H255.238L236.224 211.425Z" fill="black"/>
<path fill-rule="evenodd" clip-rule="evenodd" d="M275.776 169.233L352 184.566L347.499 188.271H256.748L275.776 169.233Z" fill="black"/>
</svg>
