<svg width="512" height="512" viewBox="0 0 512 512" fill="none" xmlns="http://www.w3.org/2000/svg">
<path d="M290.418 357.379C297.906 357.379 303.695 359.06 307.782 362.423C311.869 365.788 313.953 370.716 314.029 377.214H303.599C303.522 369.494 299.052 365.634 290.188 365.634C286.52 365.634 283.616 366.379 281.478 367.869C279.338 369.358 278.269 371.366 278.269 373.888C278.269 375.572 278.668 376.946 279.473 378.015C280.276 379.086 281.325 379.964 282.624 380.651C283.921 381.342 285.452 381.895 287.209 382.314C288.967 382.738 290.837 383.137 292.822 383.518C295.423 384.055 298.098 384.648 300.849 385.296C303.599 385.945 306.062 386.919 308.24 388.219C310.421 389.519 312.213 391.277 313.627 393.495C315.042 395.712 315.748 398.653 315.748 402.322C315.748 404.998 315.137 407.423 313.912 409.6C312.69 411.78 311.01 413.634 308.871 415.163C306.733 416.693 304.189 417.876 301.248 418.717C298.307 419.559 295.116 419.977 291.679 419.977C283.428 419.977 277.082 418.183 272.653 414.589C268.369 411.118 266.128 406.217 265.912 399.895H276.579C276.715 403.76 278.032 406.696 280.563 408.685C283.235 410.788 287.019 411.836 291.907 411.836C295.958 411.836 299.072 411.092 301.251 409.6C303.427 408.11 304.516 405.914 304.516 403.008C304.516 401.175 304.094 399.704 303.256 398.594C302.414 397.489 301.287 396.571 299.873 395.844C298.458 395.118 296.837 394.543 295.001 394.123C293.168 393.704 291.257 393.302 289.27 392.92C286.658 392.458 284.06 391.922 281.478 391.313C278.879 390.705 276.529 389.767 274.428 388.507C272.328 387.244 270.607 385.505 269.272 383.29C267.933 381.073 267.264 378.171 267.264 374.578C267.264 372.053 267.819 369.741 268.927 367.64C270.034 365.538 271.602 363.724 273.627 362.195C275.65 360.666 278.077 359.48 280.905 358.64C283.733 357.798 286.903 357.379 290.418 357.379ZM234.829 357.379C244.073 357.379 250.855 360.4 255.174 366.434C259.491 372.474 261.652 380.997 261.652 392.003H217.521C217.672 394.909 218.207 397.563 219.127 399.97C220.043 402.379 221.284 404.442 222.851 406.163C224.364 407.843 226.195 409.206 228.238 410.174C230.261 411.131 232.496 411.608 234.943 411.608C238.764 411.608 242.029 410.729 244.743 408.972C247.453 407.213 249.844 404.059 250.491 399.895H261.648C260.335 407.186 257.12 411.856 252.192 415.104C247.262 418.352 241.398 419.978 234.599 419.978C225.504 419.978 218.554 417.207 213.741 411.664C208.926 406.123 206.518 398.463 206.518 388.677C206.518 384.247 207.166 380.117 208.466 376.296C209.765 372.474 211.655 369.15 214.14 366.32C216.609 363.503 219.659 361.254 223.08 359.728C226.556 358.163 230.473 357.379 234.828 357.379H234.829ZM151.449 357.379C155.882 357.379 159.874 358.144 163.428 359.672C166.98 361.201 169.998 363.359 172.483 366.149C174.965 368.939 176.877 372.245 178.212 376.067C179.549 379.889 180.22 384.091 180.22 388.677C180.22 393.264 179.549 397.487 178.212 401.348C176.874 405.207 174.966 408.512 172.482 411.265C170 414.015 166.96 416.155 163.37 417.684C159.778 419.211 155.766 419.978 151.337 419.978C146.982 419.978 143.045 419.211 139.53 417.683C136.015 416.155 133.015 414.014 130.532 411.265C128.05 408.512 126.158 405.207 124.86 401.348C123.561 397.489 122.911 393.264 122.911 388.677C122.911 384.091 123.579 379.889 124.919 376.068C126.253 372.245 128.144 368.939 130.591 366.149C133.035 363.359 136.035 361.201 139.588 359.672C143.141 358.144 147.096 357.379 151.448 357.379H151.449ZM380.609 357.379C386.186 357.379 390.541 358.221 393.673 359.901C396.808 361.583 399.135 363.722 400.665 366.32C402.192 368.92 403.13 371.805 403.473 374.977C403.812 378.042 403.986 381.123 403.992 384.207V400.371C403.992 403.811 404.084 406.985 404.276 409.887C404.453 412.705 404.855 415.504 405.479 418.258H395.624C395.439 417.212 395.285 416.161 395.164 415.107C395.011 413.843 394.896 412.219 394.819 410.233C392.299 413.597 389.394 415.985 386.111 417.398C382.824 418.812 379.041 419.52 374.762 419.52C368.189 419.52 363.13 417.856 359.575 414.532C356.023 411.207 354.246 406.908 354.246 401.632C354.246 398.423 354.877 395.729 356.138 393.551C357.382 391.39 359.108 389.545 361.182 388.16C363.281 386.749 365.709 385.639 368.459 384.835C371.24 384.028 374.073 383.415 376.939 383.002C379.843 382.583 382.749 382.258 385.651 382.029C388.554 381.8 391.228 381.532 393.674 381.225V379.161C393.674 374.731 392.642 371.309 390.581 368.901C388.516 366.494 385.193 365.29 380.609 365.29C376.483 365.29 373.159 366.303 370.638 368.327C368.116 370.353 366.855 373.353 366.855 377.328H356.425C356.425 374.271 357.015 371.52 358.2 369.074C359.372 366.643 361.077 364.507 363.188 362.826C365.326 361.105 367.868 359.768 370.81 358.812C373.749 357.856 377.016 357.378 380.609 357.378V357.379ZM338.063 344.769V359.098H350.903V367.811H338.063V397.277C338.063 399.34 338.122 401.193 338.236 402.837C338.35 404.481 338.638 405.855 339.096 406.964C339.553 408.074 340.262 408.913 341.216 409.488C342.17 410.061 343.487 410.347 345.169 410.347C346.009 410.347 346.908 410.33 347.863 410.289C348.819 410.251 349.906 410.079 351.128 409.772V418.258C347.998 418.945 345.093 419.288 342.418 419.288C340.126 419.288 338.044 419.004 336.171 418.429C334.3 417.856 332.734 416.922 331.473 415.623C330.212 414.32 329.238 412.565 328.552 410.347C327.861 408.132 327.52 405.417 327.52 402.207V367.811H316.631V359.098H327.52V344.768H338.063V344.769ZM441.353 358.411C443.568 358.411 445.783 358.64 448 359.097V368.383C446.781 368.169 445.558 367.977 444.332 367.809C443.231 367.661 442.121 367.584 441.01 367.581C437.801 367.581 435.182 368.136 433.158 369.244C431.158 370.328 429.509 371.959 428.401 373.945C427.257 375.969 426.454 378.435 425.994 381.341C425.536 384.247 425.308 387.494 425.308 391.085V418.257H414.762V359.098H424.733V367.811C427.025 364.219 429.547 361.756 432.297 360.417C435.05 359.08 438.066 358.409 441.351 358.409V358.411L441.353 358.411ZM198.613 335.023V418.257H188.07V335.021H198.613V335.023ZM89.215 335.023C92.7283 335.023 96.3974 335.176 100.219 335.48C104.039 335.786 107.783 336.855 111.452 338.691C115.119 340.677 117.886 343.562 119.762 347.347C121.632 351.13 122.569 355.391 122.569 360.131C122.569 365.174 121.554 369.472 119.531 373.026C117.506 376.581 114.774 379.393 111.337 381.454C108.968 382.833 105.875 383.845 102.052 384.493C98.2308 385.142 93.721 385.469 88.5291 385.469H75.2319V418.257H64V335.021H89.215V335.023ZM393.671 389.366C391.455 389.672 388.706 389.921 385.42 390.111C382.211 390.291 379.025 390.771 375.906 391.545C372.85 392.308 370.251 393.475 368.113 395.042C365.973 396.607 364.904 398.882 364.904 401.864C364.904 404.768 365.993 407.153 368.169 409.028C370.351 410.902 373.345 411.836 377.166 411.836C379.304 411.836 381.369 411.572 383.357 411.033C385.328 410.508 387.139 409.504 388.628 408.11C390.157 406.698 391.379 404.749 392.297 402.263C393.215 399.78 393.673 396.589 393.673 392.691V389.366H393.671ZM151.449 365.862C148.773 365.862 146.35 366.399 144.174 367.466C141.992 368.539 140.14 370.067 138.614 372.053C137.085 374.04 135.9 376.431 135.059 379.22C134.218 382.009 133.8 385.125 133.8 388.564C133.8 392.003 134.2 395.137 135.003 397.964C135.804 400.793 136.969 403.22 138.499 405.245C140.026 407.271 141.879 408.837 144.058 409.946C146.236 411.053 148.66 411.608 151.334 411.608C154.087 411.608 156.587 411.053 158.844 409.946C161.069 408.859 163.011 407.27 164.516 405.303C166.042 403.317 167.227 400.929 168.068 398.134C168.91 395.349 169.329 392.231 169.329 388.791C169.329 385.352 168.907 382.24 168.068 379.449C167.226 376.659 166.025 374.251 164.46 372.225C162.892 370.2 161.02 368.634 158.844 367.525C156.665 366.417 154.201 365.862 151.448 365.862H151.451H151.449ZM234.372 365.862C229.863 365.862 226.156 367.297 223.251 370.161C220.348 373.027 218.514 377.442 217.751 383.404H250.416C249.804 377.442 248.047 373.027 245.143 370.161C242.24 367.297 238.648 365.862 234.369 365.862H234.372ZM89.6727 344.191H75.2319V376.299H89.6752C92.5774 376.299 95.2139 376.164 97.5822 375.897C99.9518 375.629 101.783 375.19 103.085 374.579C105.681 373.279 107.649 371.33 108.985 368.73C110.324 366.133 110.993 363.267 110.993 360.132C110.993 356.999 110.324 354.15 108.985 351.59C107.647 349.031 105.681 347.099 103.085 345.801C101.783 345.112 99.9518 344.674 97.5822 344.484C95.2139 344.292 92.5774 344.194 89.6752 344.194L89.6727 344.191Z" fill="white"/>
<path fill-rule="evenodd" clip-rule="evenodd" d="M255.238 192.438V283.162L251.533 287.667L236.224 211.425L255.238 192.438Z" fill="white"/>
<path fill-rule="evenodd" clip-rule="evenodd" d="M256.748 188.243V97.5058L260.453 93L275.762 169.229L256.748 188.243Z" fill="white"/>
<path fill-rule="evenodd" clip-rule="evenodd" d="M236.224 211.425L160 196.143L164.501 192.438H255.238L236.224 211.425Z" fill="white"/>
<path fill-rule="evenodd" clip-rule="evenodd" d="M275.776 169.233L352 184.566L347.499 188.271H256.748L275.776 169.233Z" fill="white"/>
</svg>
