<svg width="512" height="512" viewBox="0 0 512 512" fill="none" xmlns="http://www.w3.org/2000/svg">
<path d="M367.945 243.086C372.937 243.086 376.797 244.207 379.521 246.449C382.246 248.692 383.635 251.978 383.686 256.31H376.733C376.681 251.163 373.701 248.59 367.792 248.59C365.347 248.59 363.411 249.086 361.985 250.08C360.559 251.072 359.846 252.411 359.846 254.092C359.846 255.215 360.112 256.131 360.649 256.843C361.184 257.558 361.883 258.143 362.75 258.601C363.614 259.062 364.634 259.43 365.806 259.709C366.978 259.992 368.225 260.258 369.548 260.512C371.282 260.87 373.065 261.266 374.899 261.697C376.733 262.13 378.375 262.78 379.826 263.646C381.281 264.513 382.475 265.685 383.418 267.163C384.361 268.641 384.832 270.602 384.832 273.048C384.832 274.832 384.424 276.449 383.608 277.9C382.793 279.354 381.673 280.589 380.247 281.609C378.822 282.629 377.126 283.418 375.165 283.978C373.205 284.539 371.077 284.818 368.786 284.818C363.285 284.818 359.055 283.622 356.102 281.226C353.246 278.912 351.752 275.645 351.608 271.43H358.72C358.81 274.007 359.688 275.964 361.375 277.29C363.157 278.692 365.68 279.391 368.938 279.391C371.638 279.391 373.715 278.895 375.167 277.9C376.618 276.907 377.344 275.443 377.344 273.505C377.344 272.283 377.063 271.303 376.504 270.563C375.943 269.826 375.191 269.214 374.248 268.73C373.306 268.246 372.225 267.862 371.001 267.582C369.779 267.303 368.505 267.035 367.18 266.78C365.439 266.472 363.707 266.115 361.985 265.709C360.253 265.303 358.686 264.678 357.285 263.838C355.885 262.996 354.738 261.837 353.848 260.36C352.955 258.882 352.51 256.947 352.51 254.552C352.51 252.869 352.88 251.328 353.618 249.927C354.356 248.526 355.401 247.316 356.752 246.297C358.1 245.277 359.718 244.486 361.603 243.927C363.489 243.366 365.602 243.086 367.945 243.086ZM330.886 243.086C337.049 243.086 341.57 245.1 344.45 249.123C347.327 253.149 348.768 258.831 348.768 266.169H319.348C319.448 268.106 319.805 269.875 320.418 271.48C321.029 273.086 321.856 274.462 322.9 275.609C323.909 276.729 325.13 277.638 326.492 278.283C327.841 278.921 329.331 279.239 330.962 279.239C333.51 279.239 335.686 278.653 337.495 277.481C339.302 276.309 340.896 274.206 341.328 271.43H348.766C347.89 276.291 345.747 279.404 342.462 281.57C339.175 283.735 335.266 284.819 330.733 284.819C324.67 284.819 320.036 282.971 316.828 279.276C313.617 275.582 312.012 270.476 312.012 263.951C312.012 260.998 312.444 258.245 313.311 255.698C314.177 253.149 315.437 250.933 317.094 249.047C318.739 247.169 320.773 245.669 323.053 244.652C325.371 243.608 327.982 243.086 330.885 243.086H330.886ZM275.3 243.086C278.255 243.086 280.916 243.596 283.286 244.615C285.654 245.634 287.666 247.073 289.322 248.933C290.976 250.793 292.251 252.997 293.141 255.545C294.033 258.093 294.48 260.894 294.48 263.951C294.48 267.009 294.033 269.825 293.141 272.399C292.249 274.971 290.977 277.175 289.321 279.01C287.666 280.844 285.64 282.27 283.247 283.29C280.852 284.307 278.177 284.819 275.225 284.819C272.321 284.819 269.697 284.307 267.354 283.289C265.01 282.27 263.01 280.843 261.355 279.01C259.7 277.175 258.439 274.971 257.573 272.399C256.707 269.826 256.274 267.009 256.274 263.951C256.274 260.894 256.719 258.093 257.612 255.545C258.502 252.997 259.763 250.793 261.394 248.933C263.023 247.073 265.023 245.634 267.392 244.615C269.761 243.596 272.397 243.086 275.299 243.086H275.3ZM428.072 243.086C431.791 243.086 434.694 243.648 436.782 244.768C438.872 245.889 440.423 247.315 441.444 249.047C442.461 250.78 443.086 252.704 443.315 254.818C443.542 256.861 443.657 258.916 443.661 260.971V271.748C443.661 274.041 443.723 276.157 443.851 278.092C443.969 279.97 444.237 281.836 444.653 283.672H438.083C437.959 282.975 437.857 282.274 437.776 281.571C437.674 280.729 437.597 279.646 437.546 278.322C435.866 280.565 433.929 282.156 431.741 283.099C429.549 284.041 427.027 284.514 424.175 284.514C419.793 284.514 416.42 283.404 414.05 281.188C411.682 278.971 410.497 276.105 410.497 272.588C410.497 270.449 410.918 268.653 411.759 267.201C412.588 265.76 413.739 264.53 415.121 263.607C416.52 262.666 418.139 261.926 419.972 261.39C421.826 260.852 423.716 260.444 425.626 260.168C427.562 259.889 429.499 259.672 431.434 259.52C433.369 259.367 435.152 259.188 436.783 258.983V257.607C436.783 254.654 436.095 252.373 434.721 250.767C433.344 249.163 431.129 248.36 428.072 248.36C425.322 248.36 423.106 249.035 421.425 250.385C419.744 251.736 418.903 253.735 418.903 256.385H411.95C411.95 254.347 412.343 252.513 413.133 250.883C413.915 249.262 415.051 247.838 416.459 246.717C417.884 245.57 419.578 244.679 421.54 244.042C423.499 243.404 425.677 243.086 428.072 243.086V243.086ZM399.709 234.68V244.232H408.268V250.041H399.709V269.685C399.709 271.06 399.748 272.296 399.824 273.391C399.9 274.487 400.092 275.404 400.397 276.143C400.702 276.883 401.174 277.442 401.811 277.826C402.447 278.207 403.325 278.398 404.446 278.398C405.006 278.398 405.605 278.387 406.242 278.359C406.879 278.334 407.604 278.22 408.419 278.015V283.672C406.332 284.13 404.395 284.359 402.612 284.359C401.084 284.359 399.696 284.169 398.447 283.786C397.2 283.404 396.156 282.782 395.315 281.915C394.475 281.047 393.825 279.877 393.368 278.398C392.908 276.922 392.68 275.112 392.68 272.972V250.041H385.42V244.232H392.68V234.679H399.709V234.68ZM468.568 243.774C470.045 243.774 471.522 243.927 473 244.231V250.422C472.187 250.279 471.372 250.152 470.555 250.04C469.821 249.941 469.081 249.89 468.34 249.888C466.2 249.888 464.454 250.258 463.105 250.996C461.772 251.719 460.673 252.806 459.934 254.13C459.172 255.48 458.636 257.124 458.329 259.061C458.024 260.998 457.872 263.163 457.872 265.557V283.671H450.841V244.232H457.489V250.041C459.017 247.646 460.698 246.004 462.531 245.112C464.366 244.22 466.378 243.773 468.568 243.773V243.774L468.568 243.774ZM306.742 228.182V283.671H299.713V228.181H306.742V228.182ZM233.81 228.182C236.152 228.182 238.598 228.284 241.146 228.487C243.693 228.691 246.188 229.403 248.635 230.627C251.079 231.952 252.924 233.875 254.174 236.398C255.422 238.92 256.046 241.761 256.046 244.921C256.046 248.283 255.369 251.148 254.021 253.518C252.67 255.887 250.85 257.762 248.558 259.136C246.978 260.055 244.916 260.73 242.368 261.162C239.82 261.595 236.814 261.813 233.353 261.813H224.488V283.671H217V228.181H233.81V228.182ZM436.781 264.411C435.303 264.615 433.471 264.781 431.28 264.907C429.141 265.028 427.017 265.348 424.937 265.864C422.9 266.372 421.167 267.15 419.742 268.195C418.315 269.238 417.603 270.755 417.603 272.743C417.603 274.679 418.329 276.269 419.78 277.519C421.234 278.768 423.23 279.391 425.778 279.391C427.203 279.391 428.58 279.215 429.905 278.856C431.219 278.506 432.426 277.836 433.419 276.907C434.438 275.966 435.253 274.666 435.865 273.009C436.477 271.354 436.782 269.226 436.782 266.628V264.411H436.781ZM275.3 248.742C273.515 248.742 271.9 249.099 270.449 249.811C268.995 250.526 267.76 251.545 266.742 252.869C265.723 254.194 264.933 255.787 264.373 257.647C263.812 259.506 263.533 261.583 263.533 263.876C263.533 266.169 263.8 268.258 264.335 270.143C264.869 272.029 265.646 273.647 266.666 274.997C267.684 276.347 268.919 277.392 270.372 278.131C271.824 278.869 273.44 279.239 275.222 279.239C277.058 279.239 278.724 278.869 280.229 278.131C281.713 277.406 283.008 276.347 284.011 275.035C285.028 273.712 285.818 272.119 286.379 270.256C286.94 268.4 287.219 266.321 287.219 264.028C287.219 261.735 286.938 259.66 286.379 257.799C285.817 255.94 285.017 254.334 283.973 252.984C282.928 251.634 281.68 250.589 280.229 249.85C278.777 249.112 277.134 248.742 275.299 248.742H275.3H275.3ZM330.581 248.742C327.576 248.742 325.104 249.698 323.167 251.608C321.232 253.518 320.009 256.462 319.501 260.436H341.278C340.869 256.462 339.698 253.518 337.762 251.608C335.827 249.698 333.432 248.742 330.58 248.742H330.581ZM234.115 234.294H224.488V255.699H234.117C236.052 255.699 237.809 255.609 239.388 255.432C240.968 255.253 242.188 254.96 243.056 254.553C244.788 253.686 246.1 252.387 246.99 250.653C247.883 248.922 248.329 247.012 248.329 244.921C248.329 242.833 247.883 240.934 246.99 239.227C246.098 237.521 244.788 236.233 243.056 235.367C242.188 234.908 240.968 234.616 239.388 234.489C237.809 234.361 236.052 234.296 234.117 234.296L234.115 234.294Z" fill="black"/>
<path fill-rule="evenodd" clip-rule="evenodd" d="M122.493 257.292V317.774L120.023 320.778L109.816 269.95L122.493 257.292Z" fill="black"/>
<path fill-rule="evenodd" clip-rule="evenodd" d="M123.499 254.495V194.004L125.969 191L136.175 241.819L123.499 254.495Z" fill="black"/>
<path fill-rule="evenodd" clip-rule="evenodd" d="M109.816 269.95L59 259.762L62.0008 257.292H122.492L109.816 269.95Z" fill="black"/>
<path fill-rule="evenodd" clip-rule="evenodd" d="M136.184 241.822L187 252.044L184 254.514H123.499L136.184 241.822Z" fill="black"/>
</svg>
