<svg width="512" height="512" viewBox="0 0 512 512" fill="none" xmlns="http://www.w3.org/2000/svg">
<path d="M290.418 357.369C297.906 357.369 303.695 359.051 307.782 362.415C311.869 365.782 313.953 370.713 314.029 377.214H303.599C303.522 369.49 299.052 365.628 290.188 365.628C286.52 365.628 283.616 366.373 281.478 367.865C279.338 369.354 278.269 371.363 278.269 373.886C278.269 375.571 278.668 376.946 279.473 378.015C280.276 379.087 281.325 379.966 282.624 380.653C283.921 381.344 285.452 381.897 287.209 382.316C288.967 382.741 290.837 383.14 292.822 383.522C295.423 384.058 298.098 384.652 300.849 385.3C303.599 385.95 306.062 386.925 308.24 388.225C310.421 389.525 312.213 391.284 313.627 393.503C315.042 395.722 315.748 398.664 315.748 402.335C315.748 405.013 315.137 407.438 313.912 409.617C312.69 411.798 311.01 413.652 308.871 415.182C306.733 416.713 304.189 417.897 301.248 418.738C298.307 419.581 295.116 419.999 291.679 419.999C283.428 419.999 277.082 418.204 272.653 414.608C268.369 411.136 266.128 406.232 265.912 399.907H276.579C276.715 403.774 278.032 406.711 280.563 408.701C283.235 410.805 287.019 411.854 291.907 411.854C295.958 411.854 299.072 411.109 301.251 409.617C303.427 408.126 304.516 405.929 304.516 403.021C304.516 401.187 304.094 399.716 303.256 398.605C302.414 397.5 301.287 396.581 299.873 395.854C298.458 395.128 296.837 394.552 295.001 394.132C293.168 393.713 291.257 393.311 289.27 392.928C286.658 392.466 284.06 391.93 281.478 391.321C278.879 390.712 276.529 389.773 274.428 388.513C272.328 387.249 270.607 385.51 269.272 383.294C267.933 381.075 267.264 378.171 267.264 374.576C267.264 372.051 267.819 369.737 268.927 367.635C270.034 365.532 271.602 363.717 273.627 362.187C275.65 360.657 278.077 359.471 280.905 358.631C283.733 357.789 286.903 357.369 290.418 357.369ZM234.829 357.369C244.073 357.369 250.855 360.391 255.174 366.428C259.491 372.471 261.652 380.999 261.652 392.011H217.521C217.672 394.918 218.207 397.573 219.127 399.982C220.043 402.392 221.284 404.456 222.851 406.178C224.364 407.859 226.195 409.223 228.238 410.191C230.261 411.148 232.496 411.626 234.943 411.626C238.764 411.626 242.029 410.746 244.743 408.988C247.453 407.229 249.844 404.073 250.491 399.907H261.648C260.335 407.201 257.12 411.874 252.192 415.124C247.262 418.373 241.398 420 234.599 420C225.505 420 218.554 417.227 213.741 411.682C208.926 406.138 206.518 398.474 206.518 388.683C206.518 384.251 207.166 380.119 208.466 376.296C209.765 372.471 211.655 369.146 214.14 366.315C216.609 363.496 219.659 361.246 223.08 359.719C226.556 358.153 230.473 357.369 234.828 357.369H234.829ZM151.449 357.369C155.882 357.369 159.874 358.134 163.428 359.663C166.98 361.193 169.998 363.352 172.483 366.144C174.965 368.935 176.877 372.243 178.212 376.066C179.549 379.891 180.22 384.095 180.22 388.683C180.22 393.272 179.549 397.497 178.212 401.36C176.874 405.221 174.966 408.528 172.482 411.283C170 414.034 166.96 416.175 163.37 417.705C159.778 419.233 155.766 420 151.337 420C146.982 420 143.045 419.233 139.53 417.704C136.015 416.175 133.015 414.033 130.532 411.283C128.05 408.528 126.158 405.221 124.86 401.36C123.561 397.5 122.911 393.272 122.911 388.683C122.911 384.095 123.579 379.891 124.919 376.068C126.253 372.243 128.144 368.935 130.591 366.144C133.035 363.352 136.035 361.193 139.588 359.663C143.141 358.134 147.096 357.369 151.448 357.369H151.449ZM380.609 357.369C386.186 357.369 390.541 358.212 393.673 359.892C396.808 361.576 399.135 363.716 400.665 366.315C402.192 368.916 403.13 371.803 403.473 374.976C403.812 378.042 403.986 381.125 403.992 384.211V400.383C403.992 403.825 404.084 407 404.276 409.904C404.453 412.723 404.855 415.524 405.479 418.279H395.624C395.439 417.233 395.285 416.182 395.164 415.126C395.011 413.862 394.896 412.237 394.819 410.25C392.299 413.616 389.394 416.005 386.111 417.418C382.824 418.833 379.041 419.542 374.762 419.542C368.189 419.542 363.13 417.877 359.575 414.551C356.023 411.224 354.246 406.923 354.246 401.645C354.246 398.434 354.877 395.739 356.138 393.559C357.382 391.397 359.108 389.552 361.182 388.166C363.281 386.754 365.709 385.643 368.459 384.84C371.24 384.031 374.073 383.419 376.939 383.005C379.843 382.586 382.749 382.26 385.651 382.032C388.554 381.802 391.228 381.534 393.674 381.227V379.162C393.674 374.73 392.642 371.306 390.581 368.896C388.516 366.488 385.193 365.284 380.609 365.284C376.483 365.284 373.159 366.297 370.638 368.322C368.116 370.35 366.855 373.351 366.855 377.328H356.425C356.425 374.269 357.015 371.517 358.2 369.07C359.372 366.637 361.077 364.501 363.188 362.818C365.326 361.096 367.868 359.759 370.81 358.803C373.749 357.846 377.016 357.368 380.609 357.368V357.369ZM338.063 344.753V359.089H350.902V367.806H338.063V397.288C338.063 399.351 338.122 401.206 338.236 402.85C338.35 404.495 338.638 405.87 339.096 406.979C339.553 408.09 340.262 408.93 341.216 409.505C342.17 410.078 343.487 410.365 345.169 410.365C346.009 410.365 346.908 410.347 347.863 410.306C348.819 410.268 349.906 410.096 351.128 409.789V418.279C347.998 418.967 345.093 419.31 342.418 419.31C340.126 419.31 338.044 419.025 336.171 418.45C334.3 417.878 332.734 416.943 331.473 415.643C330.212 414.339 329.238 412.583 328.552 410.365C327.861 408.148 327.52 405.432 327.52 402.22V367.806H316.631V359.089H327.52V344.752H338.063V344.753ZM441.353 358.401C443.568 358.401 445.783 358.631 448 359.087V368.379C446.781 368.164 445.558 367.973 444.332 367.805C443.231 367.656 442.121 367.58 441.01 367.576C437.801 367.576 435.182 368.132 433.158 369.24C431.158 370.325 429.509 371.956 428.401 373.944C427.257 375.969 426.454 378.436 425.994 381.343C425.536 384.251 425.308 387.5 425.308 391.092V418.278H414.762V359.089H424.733V367.806C427.025 364.212 429.547 361.748 432.297 360.409C435.05 359.071 438.066 358.4 441.351 358.4V358.401L441.353 358.401ZM198.613 335.001V418.278H188.07V335H198.613V335.001ZM89.215 335.001C92.7283 335.001 96.3974 335.155 100.219 335.459C104.039 335.765 107.783 336.834 111.452 338.671C115.119 340.659 117.886 343.545 119.762 347.332C121.632 351.117 122.569 355.38 122.569 360.122C122.569 365.168 121.554 369.468 119.531 373.024C117.506 376.58 114.774 379.394 111.337 381.457C108.968 382.836 105.875 383.849 102.052 384.496C98.2308 385.147 93.721 385.473 88.5291 385.473H75.2319V418.278H64V335H89.215V335.001ZM393.671 389.373C391.455 389.679 388.706 389.928 385.42 390.118C382.211 390.298 379.025 390.779 375.906 391.553C372.85 392.316 370.251 393.483 368.113 395.052C365.973 396.618 364.904 398.894 364.904 401.877C364.904 404.782 365.993 407.169 368.169 409.044C370.351 410.92 373.345 411.854 377.166 411.854C379.304 411.854 381.369 411.59 383.357 411.051C385.328 410.526 387.139 409.521 388.628 408.126C390.157 406.713 391.379 404.763 392.297 402.276C393.215 399.792 393.673 396.599 393.673 392.699V389.373H393.671ZM151.449 365.857C148.773 365.857 146.35 366.393 144.174 367.461C141.992 368.535 140.14 370.063 138.614 372.051C137.085 374.039 135.9 376.431 135.059 379.221C134.217 382.012 133.8 385.129 133.8 388.57C133.8 392.011 134.2 395.146 135.003 397.975C135.804 400.805 136.969 403.233 138.499 405.26C140.026 407.286 141.879 408.853 144.058 409.963C146.236 411.071 148.66 411.626 151.334 411.626C154.087 411.626 156.587 411.071 158.844 409.963C161.069 408.876 163.011 407.285 164.516 405.317C166.042 403.331 167.227 400.941 168.068 398.145C168.91 395.358 169.329 392.239 169.329 388.798C169.329 385.356 168.907 382.243 168.068 379.45C167.226 376.659 166.025 374.249 164.46 372.223C162.892 370.197 161.02 368.629 158.844 367.52C156.665 366.412 154.201 365.857 151.448 365.857H151.451H151.449ZM234.372 365.857C229.863 365.857 226.156 367.292 223.251 370.158C220.348 373.025 218.514 377.443 217.751 383.407H250.416C249.804 377.443 248.047 373.025 245.143 370.158C242.24 367.292 238.648 365.857 234.369 365.857H234.372ZM89.6728 344.174H75.2319V376.298H89.6752C92.5774 376.298 95.2139 376.164 97.5822 375.897C99.9518 375.628 101.783 375.189 103.085 374.578C105.681 373.277 107.649 371.327 108.985 368.725C110.324 366.128 110.993 363.26 110.993 360.123C110.993 356.989 110.324 354.139 108.985 351.577C107.647 349.017 105.681 347.084 103.085 345.785C101.783 345.096 99.9518 344.658 97.5822 344.467C95.2139 344.275 92.5774 344.178 89.6752 344.178L89.6728 344.174Z" fill="black"/>
<path fill-rule="evenodd" clip-rule="evenodd" d="M255.238 192.439V283.162L251.533 287.668L236.224 211.425L255.238 192.439Z" fill="black"/>
<path fill-rule="evenodd" clip-rule="evenodd" d="M256.748 188.243V97.5058L260.453 93L275.762 169.229L256.748 188.243Z" fill="black"/>
<path fill-rule="evenodd" clip-rule="evenodd" d="M236.224 211.425L160 196.143L164.501 192.439H255.238L236.224 211.425Z" fill="black"/>
<path fill-rule="evenodd" clip-rule="evenodd" d="M275.776 169.233L352 184.566L347.499 188.271H256.748L275.776 169.233Z" fill="black"/>
</svg>
