<svg width="512" height="512" viewBox="0 0 512 512" fill="none" xmlns="http://www.w3.org/2000/svg">
<path fill-rule="evenodd" clip-rule="evenodd" d="M192.318 256.401H225.003C226.483 256.401 227.682 255.205 227.682 253.741V239.259C227.682 237.797 226.483 236.6 225.003 236.6H192.318C190.838 236.6 189.64 237.797 189.64 239.259V253.741C189.641 255.205 190.838 256.401 192.318 256.401ZM194.396 240.442H223.074C223.566 240.442 223.967 240.841 223.967 241.328V251.673C223.967 252.16 223.566 252.56 223.074 252.56H194.396C193.905 252.56 193.504 252.16 193.504 251.673V241.328C193.504 240.84 193.905 240.442 194.396 240.442Z" fill="white"/>
<path fill-rule="evenodd" clip-rule="evenodd" d="M146.4 256.401H150.263V251.673H181.617C183.17 251.673 184.441 250.409 184.441 248.866V239.407C184.441 237.864 183.17 236.6 181.617 236.6H150.263H149.223H146.4V239.407V248.866V256.401ZM150.263 247.83V240.442H151.302H176.563H179.387C180.039 240.442 180.575 240.973 180.575 241.624V246.649C180.575 247.299 180.041 247.831 179.387 247.831H176.563H151.304L150.263 247.83Z" fill="white"/>
<path fill-rule="evenodd" clip-rule="evenodd" d="M232.733 256.401H236.598V251.674H264.448L266.889 256.401H271.065L268.586 251.601C269.836 251.313 270.772 250.192 270.772 248.865V239.406C270.772 237.863 269.503 236.599 267.95 236.599H236.598H235.557H232.733V239.406V248.865V256.401ZM236.598 247.83V240.442H237.637H262.897H265.72C266.374 240.442 266.91 240.974 266.91 241.625V246.649C266.91 247.299 266.375 247.832 265.72 247.832H262.897H237.637L236.598 247.83Z" fill="white"/>
<path fill-rule="evenodd" clip-rule="evenodd" d="M362.011 256.401H365.875V248.421H394.256V256.401H398.12V236.599H394.256V244.58H365.875V236.599H362.011V256.401Z" fill="white"/>
<path fill-rule="evenodd" clip-rule="evenodd" d="M323.083 256.401H356.217V252.509C356.124 252.541 356.023 252.559 355.919 252.559H325.161C324.672 252.559 324.268 252.159 324.268 251.672V241.327C324.268 240.84 324.671 240.441 325.161 240.441H355.919C356.023 240.441 356.124 240.46 356.217 240.493V236.599H323.083C321.604 236.599 320.405 237.796 320.405 239.258V253.74C320.405 255.205 321.604 256.401 323.083 256.401Z" fill="white"/>
<path fill-rule="evenodd" clip-rule="evenodd" d="M404.064 256.401H406.295H407.929H442.401V252.559H407.929V248.421H442.401V244.58H407.929V240.442H442.401V236.599H407.929H406.295H404.064V256.401Z" fill="white"/>
<path fill-rule="evenodd" clip-rule="evenodd" d="M281.474 242.215V241.327C281.474 240.84 281.875 240.441 282.365 240.441H313.125C313.229 240.441 313.33 240.46 313.421 240.493V236.599H280.287C278.807 236.599 277.608 237.796 277.608 239.258V240.441V242.214V245.76C277.608 247.222 278.807 248.419 280.287 248.419H283.108V248.47C283.201 248.439 283.3 248.419 283.404 248.419H308.665C309.156 248.419 309.557 248.819 309.557 249.307V250.784V251.672C309.557 252.159 309.156 252.559 308.665 252.559H277.906C277.802 252.559 277.702 252.541 277.608 252.509V256.401H310.743C312.223 256.401 313.421 255.204 313.421 253.741V252.559V250.786V247.24C313.421 245.776 312.223 244.579 310.743 244.579H307.925V244.528C307.83 244.561 307.731 244.579 307.626 244.579H282.364C281.874 244.579 281.473 244.179 281.473 243.691L281.474 242.215Z" fill="white"/>
<path d="M113.077 214.966C109.762 213.64 106.348 212.513 102.867 211.651C98.0605 210.491 93.1876 209.696 88.2816 209.298C85.8617 209.099 83.707 209 81.254 209H81.0551C78.6352 209.033 76.4474 209.099 74.0275 209.298C69.0883 209.696 64.2154 210.458 59.4419 211.618C55.9613 212.513 52.5469 213.607 49.232 214.932C49.0663 214.999 49 215.032 49 215.032C49 215.032 49.3978 239.922 49.7293 252.218C49.7956 255.863 50.4586 259.443 51.6851 262.856C53.0773 266.734 54.9668 270.446 57.2541 273.893C59.6408 277.439 62.5579 280.62 65.8728 283.338C67.1656 284.432 68.5579 285.426 69.9833 286.354C72.2374 287.713 74.5579 288.906 76.9777 289.9C77.7733 290.232 78.4695 290.563 79.0993 290.762C79.7623 291.027 80.4252 291.226 81.1214 291.392C81.8175 291.226 82.4805 291.027 83.1435 290.762C83.7733 290.563 84.4694 290.232 85.265 289.9C87.6849 288.906 90.0384 287.713 92.2594 286.354C93.6848 285.459 95.0439 284.432 96.3699 283.338C99.6848 280.62 102.602 277.439 104.989 273.893C107.276 270.446 109.165 266.734 110.558 262.856C111.784 259.443 112.447 255.83 112.513 252.218C112.812 239.889 113.243 215.032 113.243 215.032C113.21 214.999 113.143 214.966 113.077 214.966Z" fill="#CECECE"/>
<path d="M80.3586 278.268H62.1267C63.4858 279.759 64.9443 281.118 66.4692 282.411C67.7288 283.471 69.0217 284.432 70.4139 285.327C72.5686 286.653 74.8227 287.78 77.1432 288.774C77.9056 289.106 78.5686 289.404 79.1984 289.636C79.6293 289.802 80.0271 289.934 80.3586 290.034V278.268ZM80.3586 264.647C77.6072 264.415 75.0216 263.321 72.9001 261.564C72.7675 261.465 72.6349 261.332 72.5023 261.233H52.3809C52.5135 261.664 52.6461 262.095 52.8118 262.525C53.5742 264.68 54.5024 266.768 55.5632 268.789H80.3586V264.647ZM111.519 243.8H93.7508V245.192V251.589H111.386C111.419 249.302 111.452 246.617 111.519 243.8ZM111.85 227.461H81.4525V235.017H111.718C111.751 232.366 111.784 229.814 111.85 227.461Z" fill="#666666"/>
<path d="M92.0937 258.713L92.392 258.647L94.1489 258.249C94.2152 258.249 94.2815 258.15 94.2815 258.117C94.4804 257.255 94.8451 256.46 95.3423 255.731C95.7401 255.2 96.3036 254.803 96.9334 254.604C97.7953 254.272 98.7566 254.339 99.5191 254.803C99.6185 254.869 99.6185 254.968 99.5522 255.068C99.5191 255.101 99.5191 255.101 99.4859 255.134C98.9887 255.333 98.5577 255.698 98.2263 256.128C97.8616 256.493 97.5964 256.957 97.4638 257.421C97.4638 257.487 97.4307 257.553 97.497 257.587C97.5633 257.653 98.4251 257.587 98.7566 257.653C98.8229 257.653 98.8229 257.62 98.8892 257.553C99.1544 256.659 99.6848 255.83 100.414 255.234C101.177 254.637 102.171 254.471 103.099 254.77C103.663 254.902 104.127 255.267 104.392 255.797C104.425 255.83 104.425 255.929 104.326 255.929C103.696 256.029 103.132 256.294 102.635 256.692C102.204 256.99 101.839 257.388 101.607 257.852C101.607 257.885 101.508 257.984 101.674 258.017C102.105 258.117 102.536 258.249 102.933 258.382C102.967 258.448 103.099 258.382 103.132 258.349C103.63 257.62 104.359 257.089 105.254 256.924C106.547 256.725 107.773 257.288 107.972 258.15C108.005 258.283 108.038 258.415 107.939 258.415C107.243 258.448 106.547 258.713 106.016 259.144C105.884 259.244 105.751 259.343 105.652 259.443C105.552 259.509 105.585 259.575 105.585 259.575C105.884 259.873 106.845 260.569 106.911 261.531C106.944 262.127 106.878 262.757 106.646 263.287C106.613 263.32 106.58 263.353 106.547 263.353C106.447 263.353 106.447 263.287 106.414 263.254C105.751 262.492 104.956 261.829 104.06 261.332C102.337 260.404 100.414 259.94 98.4583 259.973C95.3091 260.006 90.1379 261.862 88.8782 262.193L88.8119 262.227C88.7125 262.26 89.4086 261.497 92.0937 258.713ZM100.281 265.11C99.6185 265.408 99.055 265.905 98.7235 266.535C98.6903 266.568 98.6572 266.701 98.5909 266.668C98.2926 266.634 97.7622 266.568 97.4638 266.535C97.3312 266.535 97.3644 266.402 97.3975 266.369C97.5301 265.972 97.7622 265.574 98.0605 265.276C98.4914 264.812 98.9887 264.414 99.5854 264.182C99.6185 264.182 99.6517 264.149 99.6517 264.116V264.082C99.2539 263.619 98.6903 263.32 98.0605 263.287C97.2649 263.254 96.5025 263.552 95.939 264.116C95.276 264.812 94.8782 265.706 94.7788 266.668C94.7456 266.734 94.7125 266.767 94.6462 266.767C94.3147 266.833 94.0163 266.833 93.6848 266.866C93.6517 266.866 93.6517 266.8 93.6517 266.734C93.6517 266.237 93.7843 265.773 94.0163 265.342C94.4473 264.513 95.1102 263.817 95.9058 263.353C96.0384 263.254 96.0384 263.088 96.0053 263.055C95.044 262.657 93.9169 262.757 93.055 263.353C92.4583 263.685 91.9942 264.149 91.6959 264.778C91.3644 265.64 91.1655 266.535 91.0992 267.43C91.0661 267.496 91.0329 267.529 90.9666 267.562C90.5688 267.629 90.2042 267.728 89.8064 267.861C89.7733 267.861 89.7401 267.828 89.7401 267.794C89.6075 266.933 89.8064 266.038 90.2373 265.309C90.4362 264.977 90.6683 264.646 90.9998 264.414C91.0661 264.381 91.0661 264.281 91.0329 264.248C90.9998 264.215 90.9666 264.182 90.9335 264.182C90.171 264.049 89.3755 264.182 88.7125 264.58C87.8506 265.044 87.2871 265.905 87.1545 266.866C87.0882 267.562 87.1213 268.225 87.2871 268.921C87.2871 268.954 87.3202 269.021 87.2208 269.021C86.9556 269.153 86.2595 269.518 85.9943 269.65C85.9943 269.65 85.928 269.684 85.928 269.617C85.7954 269.087 85.4639 268.656 84.9998 268.391C84.5026 268.192 83.939 268.225 83.475 268.457C83.1435 268.623 82.9114 268.921 82.7457 269.22C82.5136 269.783 82.6794 270.446 83.1766 270.777C83.2098 270.81 83.2429 270.844 83.1766 270.877C82.8783 271.042 82.8783 271.076 82.6131 271.44C82.381 271.937 82.4473 272.534 82.7788 272.965C83.044 273.362 83.475 273.594 83.939 273.661C84.4031 273.694 84.8341 273.561 85.1655 273.263C85.1655 273.263 85.2318 273.296 85.265 273.329C85.3976 273.528 85.5633 273.694 85.7622 273.859C86.2595 274.125 86.823 274.125 87.3202 273.859C87.8175 273.561 88.1158 272.998 88.0495 272.434C88.0495 272.103 87.9169 271.771 87.6849 271.54C87.6517 271.473 87.6849 271.473 87.7843 271.374C89.8727 270.181 92.16 269.418 94.5136 269.087C95.7401 268.888 96.9997 268.921 98.1931 269.153C98.9887 269.352 99.718 269.717 100.348 270.214C100.845 270.612 101.309 271.076 101.74 271.606C101.873 271.639 102.038 271.606 102.138 271.506C102.403 270.943 102.403 270.313 102.171 269.717C101.873 268.954 101.442 268.258 100.845 267.695C100.845 267.695 100.845 267.662 100.845 267.629C100.845 267.529 100.911 267.463 101.011 267.364C101.541 266.866 102.204 266.502 102.933 266.336C103.033 266.336 103.066 266.27 103 266.17C102.502 265.176 101.309 264.712 100.281 265.11ZM113.276 215.065C113.276 215.065 112.878 239.922 112.547 252.251C112.48 255.863 111.817 259.476 110.591 262.889C109.199 266.767 107.309 270.479 105.022 273.926C102.635 277.472 99.718 280.654 96.4031 283.371C95.1102 284.465 93.718 285.459 92.2926 286.387C90.0385 287.746 87.718 288.939 85.2981 289.933C84.5026 290.265 83.8064 290.596 83.1766 290.795C82.5136 291.06 81.8507 291.259 81.1545 291.425C80.4584 291.259 79.7954 291.06 79.1324 290.795C78.5026 290.596 77.8065 290.265 77.0109 289.933C74.591 288.939 72.2374 287.746 70.0165 286.387C68.5911 285.492 67.2319 284.465 65.906 283.371C62.5911 280.654 59.674 277.472 57.2872 273.926C55 270.479 53.1105 266.767 51.7182 262.889C50.4917 259.476 49.8287 255.863 49.7624 252.251C49.3978 239.922 49 215.065 49 215.065C49 215.065 49.0663 215.032 49.1989 214.999C52.5138 213.673 55.9281 212.546 59.4088 211.685C64.2154 210.525 69.0883 209.729 73.9943 209.331C76.4142 209.133 78.5689 209.033 81.0219 209.033H81.2208C83.6407 209.066 85.8285 209.133 88.2484 209.331C93.1545 209.729 98.0605 210.525 102.834 211.685C106.315 212.579 109.729 213.673 113.044 214.999C113.143 214.999 113.21 215.032 113.276 215.065ZM52.116 260.337H71.6408C69.8176 258.382 68.7899 255.797 68.7568 253.146V252.847H50.9558C51.0552 255.366 51.453 257.885 52.116 260.337ZM80.3589 278.267H62.127C63.4861 279.759 64.9447 281.118 66.4695 282.41C67.7292 283.471 69.022 284.432 70.4142 285.327C72.5689 286.652 74.8231 287.779 77.1435 288.773C77.9059 289.105 78.5689 289.403 79.1987 289.635C79.6297 289.801 80.0275 289.933 80.3589 290.033V278.267ZM80.3589 269.75H56.0939C56.7237 270.91 57.4198 272.07 58.1823 273.23C59.1104 274.655 60.1381 276.014 61.2651 277.306H80.3589V269.75ZM80.3589 264.646C77.6076 264.414 75.022 263.32 72.9004 261.564C72.7678 261.464 72.6352 261.332 72.5026 261.232H52.3812C52.5138 261.663 52.6464 262.094 52.8121 262.525C53.5746 264.679 54.5027 266.767 55.5635 268.789H80.3589V264.646ZM80.3589 219.142C78.3037 219.175 76.3811 219.241 74.2927 219.44C69.5524 219.838 64.8784 220.567 60.2707 221.694C56.9226 222.555 53.6409 223.616 50.4254 224.908C50.4254 224.908 50.3923 224.908 50.3923 224.941C50.5249 232.929 50.7569 244.529 50.9226 251.853H68.7899V245.158C68.7237 245.158 68.7237 245.158 68.6242 245.158C66.6684 245.059 64.7126 245.291 62.8231 245.854C60.8342 246.451 58.9115 247.279 57.1215 248.34C56.9889 248.406 57.0221 248.406 57.1215 248.539C57.3535 248.804 57.5193 249.135 57.6187 249.467C57.7182 249.931 57.4861 250.428 57.0552 250.627C56.6906 250.859 56.2596 250.958 55.8287 250.826C55.5304 250.726 55.2652 250.527 55.0663 250.295C55 250.196 54.9337 250.328 54.8342 250.395C54.569 250.56 54.3038 250.693 54.0386 250.826C53.4751 251.091 52.8453 250.892 52.4806 250.395C52.1492 249.898 52.1492 249.235 52.5138 248.771C52.6795 248.605 52.9447 248.472 53.1436 248.307C53.1768 248.274 53.2099 248.207 53.1768 248.141C53.0442 247.975 52.9447 247.81 52.8453 247.611C52.6795 247.081 52.8453 246.484 53.2431 246.119C53.674 245.821 54.2375 245.755 54.7016 245.987C55 246.119 55.232 246.55 55.4309 246.815C55.4641 246.882 55.5304 246.915 55.5966 246.882L56.0607 246.617C56.127 246.583 56.0939 246.451 56.0607 246.385C55.4641 244.926 55.3315 243.965 55.895 242.938C56.2265 242.275 56.8232 241.811 57.5193 241.645C57.9502 241.513 58.4143 241.546 58.8121 241.711C58.8453 241.745 58.8453 241.811 58.8121 241.844C58.3812 242.308 58.0497 242.905 57.8839 243.534C57.7845 244.098 57.7845 244.661 57.9502 245.225C57.9834 245.324 58.0497 245.357 58.116 245.324C58.3149 245.258 58.9447 245.026 59.2099 244.959C59.2762 244.926 59.243 244.794 59.243 244.727C59.011 243.833 59.0441 242.871 59.3425 242.01C59.9392 240.817 61.1657 240.121 62.4916 240.187C62.7237 240.187 63.022 240.386 62.8563 240.551C61.6298 241.281 60.9668 242.673 61.1988 244.098C61.1988 244.164 61.2651 244.197 61.3314 244.197C61.7624 244.065 62.2596 243.932 62.6574 243.799C62.7237 243.766 62.7237 243.667 62.7237 243.567C62.7237 242.474 63.1215 241.413 63.7844 240.551C64.5469 239.69 65.7071 239.226 66.8673 239.292C67.0994 239.358 67.2982 239.458 67.4308 239.624C67.464 239.69 67.464 239.789 67.3977 239.856C66.2706 240.618 65.3756 241.711 64.9115 242.971C64.9115 243.004 64.9778 243.07 65.011 243.07C65.6739 243.004 66.3701 242.905 67.0331 242.871C67.1325 242.871 67.1325 242.838 67.1656 242.805C67.4308 242.01 67.9281 241.347 68.6574 240.916C68.6905 240.883 68.7236 240.85 68.7568 240.85V237.635C68.7236 237.635 68.6905 237.602 68.6905 237.602C68.1933 237.403 67.6629 237.304 67.1325 237.237C63.3204 237.27 59.6077 238.331 56.2928 240.22C56.2265 240.253 56.1602 240.353 56.1602 240.419C56.558 241.413 56.3259 241.977 55.7624 242.341C55.1326 242.739 54.337 242.54 53.9392 241.91C53.9061 241.844 53.8066 241.844 53.7403 241.877C53.3757 242.142 52.9116 242.275 52.4806 242.242C52.0166 242.209 51.6188 241.943 51.453 241.513C51.1878 240.75 51.6188 239.922 52.3812 239.69H52.4143C52.4806 239.657 52.4806 239.624 52.4143 239.557C51.9834 239.027 52.0497 238.232 52.5801 237.801C52.6132 237.768 52.6795 237.734 52.7127 237.701C53.3425 237.337 54.1712 237.536 54.5359 238.165C54.6022 238.265 54.6353 238.364 54.6685 238.464C54.7016 238.53 54.7016 238.497 54.7679 238.497C55 238.464 55.1989 238.364 55.3978 238.265C55.4972 238.232 55.5966 237.933 55.5966 237.834C55.6629 236.177 55.5635 235.149 56.6574 234.056C57.1215 233.592 58.7127 233.227 59.0773 233.724C59.1104 233.757 59.1104 233.79 59.0773 233.824C58.7127 234.022 58.4475 234.321 58.2486 234.652C57.7845 235.348 57.6187 236.177 57.7513 236.972C57.7513 237.005 57.7513 237.138 57.8176 237.105C58.2817 236.939 58.7458 236.773 59.1767 236.608C59.2099 236.574 59.1767 236.508 59.1767 236.442C59.1104 235.315 59.4419 234.221 60.1049 233.326C60.8342 232.531 62.5911 231.736 63.4861 232.498C63.5524 232.564 63.4861 232.664 63.3867 232.73C62.9226 232.962 62.5248 233.326 62.2264 233.724C61.8287 234.254 61.5303 234.851 61.3977 235.514C61.3977 235.58 61.4972 235.746 61.5635 235.713C61.9613 235.646 62.6574 235.547 63.0552 235.414C63.2541 235.348 63.1878 235.315 63.2209 235.083C63.3535 233.326 64.7458 231.935 66.4695 231.769C67.0662 231.669 67.6629 231.736 68.1933 232.034C68.3259 232.133 68.4585 232.233 68.5579 232.365C68.5911 232.432 68.5911 232.498 68.5248 232.564L68.4916 232.597C67.8618 232.664 67.2319 232.862 66.7016 233.227C66.1049 233.592 65.6739 234.188 65.5082 234.884C65.5082 234.95 65.5413 235.083 65.6408 235.083C66.138 235.083 66.7679 235.083 67.2651 235.05C67.3314 235.05 67.3977 235.017 67.3977 234.95C67.7623 233.956 68.5579 233.194 69.5524 232.896C70.6794 232.498 71.906 232.796 72.7347 233.625C72.8341 233.757 72.801 233.79 72.7347 233.824C71.8397 233.989 71.0109 234.354 70.2817 234.884C70.1822 234.984 70.0828 235.05 70.2485 235.05H80.3921L80.3589 219.142ZM88.7125 262.26C87.9169 262.823 87.055 263.287 86.16 263.685H86.1932L86.3258 263.917C86.4252 264.149 86.4584 264.381 86.4252 264.613C86.4252 264.977 86.16 265.309 85.8285 265.408C85.3644 265.607 84.8672 265.508 84.5026 265.176C84.2374 265.474 83.8396 265.64 83.4418 265.541C83.1103 265.474 82.8451 265.276 82.6794 264.977C82.6131 264.812 82.5799 264.679 82.5799 264.646C82.2153 264.679 81.8507 264.712 81.486 264.712V289.768V290.165C81.8838 290.066 82.4473 289.867 83.1103 289.635C83.707 289.436 84.4031 289.105 85.1655 288.773C87.486 287.812 89.7401 286.652 91.8948 285.327C93.2871 284.432 94.5799 283.471 95.8395 282.41C99.0218 279.759 101.839 276.677 104.127 273.23C106.348 269.882 108.138 266.303 109.497 262.525C110.624 259.31 111.254 255.929 111.386 252.516H93.7843V253.112C93.6185 256.791 91.7622 260.205 88.7125 262.26ZM111.519 243.799H93.7511V245.191V251.588H111.386C111.42 249.301 111.486 246.617 111.519 243.799ZM111.685 236.077H93.7511V237.569V240.783V242.706H111.552C111.585 240.551 111.652 238.298 111.685 236.077ZM111.85 227.46H81.4529V235.017H111.718C111.751 232.365 111.784 229.813 111.85 227.46ZM111.884 224.941C111.884 224.941 111.85 224.941 111.85 224.908C108.635 223.616 105.353 222.555 102.005 221.694C97.3975 220.567 92.6904 219.804 87.9832 219.407C85.7291 219.208 83.707 219.142 81.4529 219.108V226.466H111.85C111.884 225.969 111.884 225.439 111.884 224.941ZM112.049 216.126C111.983 216.093 111.917 216.059 111.85 216.026C108.635 214.734 105.353 213.673 102.005 212.811C97.3975 211.685 92.6904 210.922 87.9832 210.525C85.6628 210.326 83.5744 210.259 81.254 210.226H81.0551C78.7346 210.259 76.6463 210.326 74.3258 210.525C69.5524 210.922 64.8784 211.685 60.2707 212.811C56.9226 213.673 53.6409 214.734 50.4254 216.026L50.2265 216.093C50.2265 216.093 50.2928 219.274 50.3591 223.914C50.3923 223.914 50.3923 223.881 50.4254 223.881C53.6409 222.622 56.9226 221.561 60.2707 220.699C64.8784 219.572 69.5524 218.81 74.2927 218.412C76.6131 218.214 78.7015 218.081 81.0551 218.048H81.254C83.5744 218.081 85.6628 218.214 87.9832 218.412C92.7235 218.81 97.3975 219.572 102.005 220.699C105.353 221.561 108.635 222.622 111.85 223.914C111.884 223.914 111.884 223.947 111.917 223.947C111.983 219.307 112.049 216.126 112.049 216.126ZM95.5412 275.45C95.0439 275.815 94.6462 276.279 94.3478 276.809C94.3147 276.842 94.3147 276.942 94.2484 276.909L93.5191 276.677C93.5191 276.677 93.5191 276.61 93.5191 276.577C94.0163 275.616 94.8782 274.92 95.9058 274.622C95.9721 274.589 95.939 274.555 95.939 274.522C95.5743 273.594 93.6517 273.694 92.7567 274.257C91.8948 274.821 91.2981 275.715 91.0661 276.71C91.0661 276.776 91.0992 276.842 91.0329 276.842C90.7677 276.942 90.5025 277.008 90.2373 277.041C90.2042 277.041 90.171 277.008 90.171 276.975C90.1047 276.511 90.171 276.047 90.4031 275.616C90.7014 275.086 91.0992 274.622 91.497 274.224C91.5633 274.158 91.5633 274.058 91.497 274.025C90.9666 273.694 90.2705 273.694 89.7401 274.025C88.9777 274.423 88.381 275.119 88.1158 275.947C87.9501 276.577 87.9832 277.273 88.149 277.903C88.149 277.936 88.1821 277.969 88.149 278.002C87.8838 278.102 87.6849 278.234 87.4197 278.334C87.4197 278.334 87.3534 278.367 87.3202 278.334C86.8561 277.505 86.9887 276.478 87.6186 275.815C87.6849 275.749 87.718 275.682 87.5854 275.649C86.8893 275.55 86.2263 275.782 85.7622 276.312C85.2318 276.942 85.0993 277.803 85.3644 278.566C85.4307 278.864 85.5302 279.195 85.6959 279.46C85.6959 279.46 85.7954 279.527 85.7622 279.56C85.5633 279.692 85.4307 279.825 85.2318 279.958C85.2318 279.958 85.1987 279.991 85.1655 279.958C84.9667 279.56 84.602 279.262 84.1711 279.129C83.7733 279.03 83.3755 279.162 83.0772 279.427C82.5799 279.924 82.5799 280.687 83.0772 281.184C83.2098 281.316 83.4087 281.449 83.6075 281.482C83.6407 281.482 83.6738 281.515 83.6407 281.548C83.3755 281.747 83.1435 281.979 82.9777 282.278C82.7788 282.775 82.9114 283.305 83.2761 283.67C83.5413 283.902 83.9059 284.034 84.2705 283.968C84.8009 283.802 85.265 283.404 85.497 282.907C85.497 282.907 85.5633 282.841 85.5965 282.874C85.8285 283.206 86.1269 283.438 86.4915 283.57C86.8893 283.703 87.2871 283.603 87.6186 283.338C88.0495 283.007 88.1821 282.443 88.0164 281.979C87.8506 281.681 87.6186 281.416 87.3202 281.25C87.2871 281.217 87.3202 281.118 87.3865 281.051C88.7788 279.924 90.4362 279.195 92.1931 278.93C93.3865 278.765 94.613 278.963 95.7069 279.494C96.1379 279.759 96.5357 280.057 96.8671 280.422C96.9003 280.455 97.0329 280.488 97.066 280.455C97.5964 279.958 97.6627 279.129 97.1986 278.566C96.9997 278.334 96.7677 278.135 96.5025 278.002C96.5025 278.002 96.4694 277.969 96.4694 277.936C96.6682 277.406 97.0329 276.942 97.497 276.577C97.8285 276.378 98.16 276.213 98.5246 276.08C98.5909 276.047 98.5909 276.014 98.5577 275.914C98.1268 274.953 96.3699 274.92 95.5412 275.45ZM74.6905 223.682C75.5192 223.748 76.2153 224.279 76.5137 225.041C76.5137 225.074 76.4474 225.14 76.4142 225.14C75.7181 225.14 75.022 225.207 74.3258 225.306C73.8949 225.472 73.4971 225.737 73.1656 226.068C73.1325 226.101 73.1656 226.168 73.1988 226.201C73.9943 226.367 74.7236 226.797 75.2872 227.394C75.9501 227.957 76.2153 228.885 75.9833 229.714C75.9501 229.813 75.8838 229.88 75.7844 229.913C75.6849 229.913 75.6186 229.88 75.5855 229.813C74.8562 229.184 74.0275 228.687 73.0993 228.388C72.3037 228.09 71.475 227.924 70.6131 227.924C65.6076 228.057 60.6684 229.316 56.1933 231.603C56.1602 231.636 56.127 231.736 56.1602 231.769C56.3922 232.067 56.5248 232.432 56.4585 232.796C56.2928 233.293 56.1602 233.36 55.7624 233.625C55.1989 234.089 54.337 233.989 53.8729 233.426C53.8398 233.393 53.8398 233.393 53.8066 233.36C53.7735 233.326 53.7403 233.326 53.7072 233.36C53.442 233.525 53.1436 233.691 52.8453 233.79C52.3149 234.022 51.6851 233.824 51.3867 233.326C51.0221 232.564 51.3204 231.669 52.0829 231.305C52.0829 231.305 52.0829 231.305 52.116 231.305C52.1823 231.272 52.1823 231.205 52.1492 231.172C51.8177 230.576 52.0497 229.813 52.6132 229.482C53.1436 229.184 54.337 228.985 54.6685 229.979C54.6685 230.012 54.7348 230.045 54.7679 230.045C55.0331 229.946 55.2983 229.847 55.5635 229.747C55.6298 229.714 55.6629 229.581 55.6298 229.449C55.2983 228.123 55.5304 226.731 56.3259 225.571C57.453 224.312 58.779 223.715 60.2044 224.279C60.2707 224.312 60.2044 224.411 60.1712 224.444C59.6077 225.008 58.8453 225.372 58.4475 226.068C58.0165 226.731 57.8176 227.527 57.8508 228.322C57.8508 228.355 57.9502 228.355 57.9834 228.355C58.6795 228.123 59.5745 227.825 60.4364 227.56C60.5027 227.527 60.6021 227.527 60.6021 227.493C60.6021 227.029 60.6353 226.565 60.7016 226.068C60.9005 224.743 61.7955 223.616 63.022 223.086C63.8839 222.721 64.8784 222.688 65.7734 223.052C65.8397 223.086 65.8728 223.185 65.8065 223.218C65.2099 223.616 64.6463 224.08 64.1159 224.577C63.5856 225.14 63.2872 225.836 63.2209 226.599C63.2209 226.632 63.2541 226.665 63.2541 226.665C64.0165 226.466 64.8121 226.333 65.5745 226.234C65.6408 226.234 65.7071 226.168 65.7071 226.101C65.8397 225.372 66.4032 223.384 67.3977 222.721C68.4253 221.992 69.7513 221.727 70.9778 222.058C71.243 222.191 71.475 222.39 71.6739 222.655C71.7071 222.721 71.6408 222.82 71.5745 222.82C70.7126 223.119 69.917 223.55 69.254 224.146C68.7899 224.643 68.4916 225.24 68.3922 225.936C68.3922 225.969 68.4585 226.002 68.5248 225.969C69.1877 225.969 69.8839 225.969 70.58 226.002C70.6131 226.002 70.6794 225.969 70.6794 225.936C71.0109 225.14 71.6076 224.444 72.4032 224.047C73.0662 223.715 73.8949 223.616 74.6905 223.682Z" fill="#CECECE"/>
<path fill-rule="evenodd" clip-rule="evenodd" d="M103.066 213.839C105.585 214.502 108.071 215.33 110.525 216.258C110.591 216.291 110.591 216.358 110.591 216.424C110.624 216.954 110.591 216.987 110.591 217.551C110.591 217.683 110.525 217.683 110.392 217.65C108.9 217.12 106.779 216.358 104.856 215.861C104.823 215.861 104.79 215.861 104.79 215.894V216.557C104.79 216.59 104.823 216.623 104.856 216.623C106.845 217.153 108.701 217.783 110.491 218.413C110.525 218.413 110.558 218.446 110.558 218.512C110.591 219.042 110.591 219.572 110.558 220.103C110.558 220.136 110.558 220.169 110.525 220.169C108.801 219.539 106.779 218.877 104.79 218.313C104.757 218.313 104.723 218.313 104.723 218.346L104.69 218.976C104.69 219.009 104.723 219.042 104.757 219.075C106.679 219.606 108.602 220.202 110.458 220.931C110.491 220.964 110.525 220.998 110.558 221.031C110.591 221.495 110.558 221.992 110.558 222.456C110.558 222.489 110.558 222.555 110.458 222.522C108.038 221.594 105.552 220.799 103.033 220.103C103 220.103 102.967 220.036 102.967 220.003C103 217.915 103.033 215.993 103.099 213.905C103.033 213.872 103.033 213.839 103.066 213.839ZM94.4473 218.346C94.9776 218.446 95.5743 218.512 96.0053 218.611C96.0384 218.611 96.1379 218.578 96.1379 218.545C96.1379 217.849 96.1379 217.021 96.1379 216.358C96.1379 216.325 96.171 216.291 96.2042 216.325C97.497 216.557 98.7235 216.789 99.9831 217.087C100.016 217.087 100.149 217.12 100.149 217.186C100.149 217.915 100.116 218.545 100.116 219.307C100.116 219.374 100.149 219.407 100.215 219.44C100.712 219.539 101.177 219.672 101.674 219.771C101.806 219.804 101.806 219.771 101.806 219.738C101.873 218.181 101.906 215.695 101.939 213.607C101.939 213.574 101.939 213.541 101.906 213.541C101.375 213.408 100.878 213.309 100.348 213.176C100.315 213.176 100.281 213.242 100.281 213.309C100.215 214.071 100.248 214.767 100.182 215.562C100.182 215.595 100.182 215.595 100.149 215.595C98.8892 215.33 97.5301 215.032 96.2705 214.8C96.2373 214.8 96.2373 214.734 96.2373 214.701C96.2373 213.938 96.2373 213.209 96.2373 212.447C96.2373 212.414 96.2042 212.347 96.1379 212.347C95.6406 212.248 95.2097 212.182 94.7125 212.115C94.6793 212.115 94.6462 212.149 94.6462 212.215C94.613 213.143 94.4804 217.219 94.4804 218.313L94.4473 218.346ZM87.9169 211.254C87.2208 211.221 86.6241 211.718 86.4915 212.381L86.4584 216.523C86.4915 216.987 86.823 217.418 87.2871 217.518C89.3755 217.717 91.4307 217.915 93.7843 218.247C93.8174 218.247 93.8837 218.214 93.8837 218.181V216.755C93.8837 216.722 93.8174 216.689 93.7843 216.656C92.2263 216.457 90.171 216.192 88.3147 215.993C88.2152 215.96 88.1158 215.861 88.1158 215.761V212.944C88.1158 212.811 88.2815 212.778 88.4141 212.778C90.2373 212.911 92.0274 213.242 93.8506 213.441C93.8837 213.441 93.9832 213.408 93.9832 213.375L94.0163 212.049C94.0163 211.983 93.9832 211.95 93.9169 211.95C91.8948 211.685 90.3699 211.519 87.9169 211.254ZM85.1324 211.088C83.1435 210.989 80.9556 210.956 78.9335 211.022C78.5026 211.055 77.9391 211.386 77.9391 211.817L77.9059 214.038C77.9059 214.502 78.5026 214.866 78.9667 214.866C80.5578 214.899 81.9501 214.866 83.5081 214.966C83.6075 214.966 83.707 215.032 83.707 215.165V215.629C83.707 215.695 83.6407 215.794 83.5744 215.794C83.5744 215.794 83.5744 215.794 83.5412 215.794C81.7512 215.794 79.8617 215.695 78.0717 215.861C77.9722 215.861 77.9722 215.827 77.9722 215.927L77.9059 217.253V217.352C80.0606 217.219 82.2153 217.219 84.37 217.352C84.9003 217.352 85.3313 216.954 85.4307 216.457L85.4639 214.303C85.4639 213.872 84.9335 213.541 84.5689 213.507C83.044 213.408 81.3203 213.474 79.7954 213.408C79.696 213.408 79.6297 213.342 79.6297 213.242L79.6628 212.745C79.6628 212.646 79.7291 212.613 79.8286 212.613C81.3534 212.546 83.6407 212.646 85.1987 212.679C85.3313 212.646 85.3976 212.546 85.3976 212.447V211.32C85.3313 211.254 85.2318 211.088 85.1324 211.088ZM75.9833 215.065C76.4142 214.899 76.6794 214.469 76.6463 214.005C76.6794 213.342 76.6463 212.712 76.58 212.049C76.4805 211.552 76.0496 211.221 75.5523 211.188C74.0938 211.221 70.9446 211.618 69.1546 211.85V218.048V218.114L70.7789 217.915C70.812 217.915 70.812 217.882 70.812 217.849V216.059L74.0606 215.695C74.359 215.629 74.6905 215.861 74.9225 216.258C75.1214 216.623 75.254 217.021 75.3203 217.418L76.9114 217.286C76.9446 217.286 77.0109 217.286 77.0109 217.253C77.0109 216.457 76.6131 215.629 75.9833 215.065ZM74.8562 213.706C74.8562 213.971 74.6573 214.237 74.3921 214.27L70.7457 214.634L70.7126 214.601V213.209H70.7457L74.5579 212.845C74.6905 212.811 74.8231 212.911 74.8562 213.077C74.8562 213.077 74.8562 213.077 74.8562 213.11V213.706ZM68.1933 213.11C68.1601 212.845 68.0275 212.579 67.8286 212.447C67.6297 212.248 67.3314 212.149 67.033 212.182C65.1767 212.48 63.2872 212.878 61.3977 213.275C61.0994 213.375 60.8342 213.541 60.6021 213.773C60.4032 213.971 60.2706 214.203 60.2375 214.469V218.313C60.2375 218.645 60.3701 218.976 60.6021 219.241C60.7679 219.473 61.0331 219.606 61.2983 219.606C63.1878 219.208 65.0773 218.81 66.9004 218.512C67.2651 218.413 67.5966 218.214 67.8286 217.949C68.0275 217.717 68.1601 217.451 68.1601 217.153L68.1933 213.11ZM66.3369 216.689C66.3369 216.822 66.2706 216.954 66.1712 217.054C66.0386 217.153 65.906 217.186 65.7734 217.219C64.7789 217.418 63.3535 217.683 62.359 217.882C62.2596 217.915 62.1601 217.882 62.0607 217.816C61.9944 217.717 61.9281 217.584 61.9612 217.485V214.999C61.9612 214.866 62.0275 214.767 62.0938 214.667C62.1933 214.568 62.359 214.502 62.4916 214.469C63.4861 214.27 64.7789 214.038 65.8065 213.872C65.9391 213.839 66.0717 213.872 66.1712 213.938C66.3038 214.005 66.3701 214.17 66.3701 214.303L66.3369 216.689ZM59.6077 214.966C59.5745 214.701 59.4419 214.435 59.2099 214.303C58.9115 214.104 58.5469 214.038 58.2154 214.104C55.9944 214.667 53.7403 215.529 51.4862 216.358C51.4199 216.391 51.3867 216.457 51.3867 216.523V221.561V222.688C51.3867 222.688 53.011 222.091 53.3425 221.959C53.3757 221.959 53.3757 221.892 53.3757 221.859L53.3425 220.07C53.3425 220.003 53.3425 219.937 53.4088 219.937L58.9778 218.214C59.1767 218.147 59.3425 218.015 59.4419 217.882C59.5745 217.717 59.6408 217.551 59.6077 217.352V214.966ZM57.8176 216.822C57.8176 216.987 57.5856 217.153 57.453 217.219L53.3757 218.545C53.3425 218.545 53.2762 218.545 53.2762 218.512V217.286C53.2762 217.219 53.3425 217.186 53.4088 217.153C54.7679 216.623 56.127 216.159 57.5524 215.761C57.685 215.728 57.7845 215.861 57.8176 215.96C57.8176 216.258 57.8176 216.557 57.8176 216.822Z" fill="#050505"/>
<path fill-rule="evenodd" clip-rule="evenodd" d="M53.3757 217.452C53.3094 217.452 53.2431 217.518 53.2431 217.584V217.286C53.2431 217.22 53.3094 217.187 53.3757 217.153C54.7348 216.623 56.0939 216.159 57.4862 215.761C57.6188 215.728 57.7182 215.861 57.7514 215.96L57.7845 216.259C57.7845 216.159 57.6519 216.027 57.5193 216.06C56.1271 216.457 54.7348 216.921 53.3757 217.452ZM59.6409 217.319C59.6409 217.518 59.5746 217.684 59.4751 217.849C59.3425 218.015 59.1768 218.115 59.011 218.181L53.442 219.904C53.4089 219.904 53.3757 219.97 53.3757 220.037V220.335C53.3757 220.302 53.3757 220.202 53.4089 220.202L58.9779 218.512C59.1768 218.446 59.3425 218.313 59.442 218.181C59.5746 218.015 59.6409 217.849 59.6077 217.651L59.6409 217.319ZM53.4089 221.826C53.4089 221.86 53.4089 221.926 53.3757 221.926C53.0442 222.025 51.4199 222.655 51.4199 222.655V222.92C51.4199 222.953 51.4199 222.953 51.4199 222.986C51.4199 222.986 53.0442 222.39 53.3757 222.257C53.4089 222.257 53.4089 222.191 53.4089 222.158V221.826ZM66.1712 213.939C66.0718 213.872 65.906 213.839 65.8066 213.872C64.779 214.005 63.4862 214.27 62.4917 214.469C62.3259 214.502 62.1933 214.568 62.0939 214.668C61.9945 214.767 61.9613 214.867 61.9613 214.999V215.331C61.9613 215.198 62.0276 215.099 62.0939 214.999C62.1933 214.9 62.3591 214.833 62.4917 214.8C63.4862 214.601 64.779 214.369 65.8066 214.204C65.9392 214.171 66.0718 214.204 66.1712 214.27C66.3038 214.336 66.3701 214.502 66.3701 214.635V214.303C66.3701 214.137 66.3038 214.005 66.1712 213.939ZM66.9668 218.479C65.1105 218.811 63.221 219.175 61.3646 219.573C61.0663 219.573 60.8342 219.44 60.6685 219.208C60.4696 218.976 60.337 218.678 60.3039 218.347V218.313V218.28V218.612C60.337 218.943 60.4696 219.241 60.6685 219.473C60.9005 219.739 61.1657 219.904 61.3646 219.871C63.221 219.473 65.1105 219.109 66.9668 218.811C67.3314 218.711 67.6629 218.512 67.895 218.247C68.0939 218.048 68.2265 217.75 68.2265 217.452V217.12C68.2265 217.419 68.0939 217.684 67.895 217.916C67.6298 218.181 67.2983 218.38 66.9668 218.479ZM74.5579 212.845L70.7458 213.209H70.7126V213.541H70.7458L74.5579 213.176C74.6905 213.143 74.8231 213.243 74.8563 213.375C74.8563 213.375 74.8563 213.375 74.8563 213.408V213.077C74.8563 212.944 74.7237 212.812 74.5579 212.845ZM76.6795 214.336V213.939C76.7126 214.403 76.4474 214.833 76.0165 215.032C76.0828 215.099 76.1822 215.165 76.2485 215.231C76.5137 215.032 76.6795 214.701 76.6795 214.336ZM76.9446 217.352L75.3535 217.485C75.3203 217.087 75.1546 216.689 74.9557 216.325C74.6905 215.894 74.359 215.695 74.0938 215.761L70.8452 216.126V216.457L74.0938 216.093C74.3922 216.027 74.7237 216.259 74.9557 216.656C75.1546 217.021 75.2872 217.419 75.3535 217.816L76.9446 217.684C76.9778 217.684 77.0441 217.684 77.0441 217.651V217.319C77.0441 217.352 76.9778 217.352 76.9446 217.352ZM70.7789 217.949L69.1546 218.148V218.479L70.7789 218.28C70.8121 218.28 70.8121 218.247 70.8121 218.214V217.883C70.8121 217.916 70.8121 217.916 70.7789 217.949ZM85.1324 212.977C85.265 212.944 85.3313 212.845 85.3313 212.745V212.414C85.3313 212.547 85.2319 212.646 85.1324 212.646C83.5744 212.613 81.2872 212.513 79.7623 212.58C79.6629 212.58 79.5966 212.613 79.5966 212.712L79.5634 213.011C79.5634 212.911 79.6629 212.911 79.7623 212.878C81.2872 212.845 83.5744 212.911 85.1324 212.977ZM78.9667 215.165C80.5579 215.198 81.9501 215.165 83.5081 215.264C83.6076 215.264 83.707 215.331 83.707 215.43V215.132C83.707 215.032 83.6076 214.966 83.5081 214.933C81.9833 214.833 80.5579 214.867 78.9667 214.833C78.5026 214.833 77.906 214.469 77.906 214.005V214.336C77.906 214.8 78.5026 215.165 78.9667 215.165ZM84.3369 217.319C82.1822 217.187 80.0275 217.187 77.8728 217.319V217.651C80.0275 217.518 82.1822 217.518 84.3369 217.651C84.8673 217.651 85.2982 217.253 85.3976 216.756V216.424C85.2982 216.921 84.8673 217.286 84.3369 217.319ZM93.8506 213.475C92.0274 213.276 90.2374 212.944 88.4142 212.812C88.2816 212.812 88.1159 212.878 88.1159 212.977V213.309C88.1159 213.176 88.2816 213.143 88.4142 213.143C90.2374 213.276 92.0274 213.607 93.8506 213.806C93.8838 213.806 93.9832 213.773 93.9832 213.74V213.408C93.9832 213.441 93.9169 213.475 93.8506 213.475ZM93.7843 218.247C91.4308 217.883 89.3755 217.717 87.2871 217.518C86.823 217.419 86.4916 216.988 86.4584 216.524V216.855C86.4916 217.319 86.823 217.75 87.2871 217.849C89.3755 218.048 91.4308 218.214 93.7512 218.579C93.7843 218.579 93.8506 218.545 93.8506 218.512L93.8838 218.214C93.8838 218.214 93.8175 218.247 93.7843 218.247ZM100.149 217.485C100.149 217.352 100.149 217.286 100.149 217.153C100.149 217.054 99.9832 217.054 99.9832 217.054C98.7235 216.789 97.4639 216.524 96.2042 216.292C96.1711 216.292 96.1379 216.292 96.1379 216.325C96.1379 216.457 96.1379 216.524 96.1379 216.656C96.1379 216.623 96.1711 216.59 96.2042 216.623C97.497 216.855 98.7235 217.087 99.9832 217.385C99.9832 217.385 100.149 217.419 100.149 217.485ZM96.0053 218.612C95.5744 218.512 94.9777 218.446 94.4473 218.347V218.612C94.9777 218.711 95.5412 218.777 95.9722 218.844C96.0053 218.844 96.1048 218.811 96.1048 218.777V218.545C96.1048 218.579 96.0385 218.612 96.0053 218.612ZM101.641 219.772C101.177 219.672 100.679 219.54 100.182 219.44C100.116 219.407 100.083 219.374 100.083 219.308V219.639C100.083 219.705 100.116 219.739 100.182 219.772C100.679 219.871 101.143 220.004 101.607 220.103C101.74 220.136 101.74 220.103 101.74 220.07L101.773 219.739C101.773 219.772 101.773 219.805 101.641 219.772ZM110.392 217.617C108.9 217.087 106.779 216.325 104.856 215.828C104.823 215.828 104.79 215.828 104.79 215.861V216.159C104.79 216.126 104.856 216.126 104.856 216.126C106.779 216.623 108.9 217.352 110.392 217.916C110.525 217.949 110.591 217.949 110.591 217.816L110.624 217.551C110.591 217.651 110.491 217.684 110.392 217.617ZM110.491 220.169C108.768 219.54 106.746 218.877 104.757 218.313C104.723 218.313 104.69 218.313 104.69 218.347V218.645C104.724 218.645 104.757 218.612 104.79 218.645C106.812 219.208 108.768 219.871 110.525 220.501C110.558 220.501 110.558 220.468 110.558 220.434L110.591 220.103C110.525 220.136 110.525 220.169 110.491 220.169ZM110.392 222.522C107.972 221.594 105.486 220.799 102.967 220.103C102.933 220.103 102.9 220.037 102.9 220.004V220.335C102.9 220.368 102.933 220.434 102.967 220.434C105.486 221.097 107.939 221.893 110.359 222.821C110.458 222.854 110.458 222.788 110.458 222.754L110.491 222.456C110.491 222.489 110.458 222.522 110.392 222.522Z" fill="#432918"/>
<path d="M110.325 216.921C110.325 217.054 110.325 217.286 110.325 217.418L109.928 217.286L109.662 217.186H109.629C108.966 216.954 108.303 216.722 107.673 216.524C107.044 216.325 106.48 216.126 105.917 215.993L105.419 215.861L104.922 215.728L104.491 215.629V215.596V215.894V216.192V216.325V216.756L104.756 216.822L104.955 216.888L105.287 216.988L105.618 217.087C106.314 217.286 107.044 217.518 107.74 217.717C108.436 217.949 109.132 218.181 109.828 218.413L109.994 218.479L110.325 218.578V218.744C110.325 218.877 110.325 219.805 110.325 219.805H110.292L109.928 219.705L109.662 219.639C108.933 219.374 108.171 219.142 107.408 218.877C106.646 218.645 105.85 218.38 105.055 218.181L104.425 218.015V218.612V219.175L104.69 219.241L105.187 219.374L105.651 219.506L105.85 219.573L106.049 219.639C106.745 219.838 107.375 220.07 108.005 220.269C108.635 220.467 109.298 220.666 109.861 220.898L109.928 220.931L109.994 220.965L110.093 220.998L110.292 221.064C110.292 221.429 110.292 221.826 110.259 222.191L109.894 222.058L109.828 222.025L109.762 221.992C108.602 221.561 107.475 221.23 106.447 220.898C105.419 220.567 104.16 220.169 103.231 219.937V219.904C103.231 219.407 103.265 218.446 103.265 217.518C103.265 216.59 103.331 214.17 103.331 214.071C103.43 214.071 105.618 214.701 106.646 215.032C107.707 215.364 108.734 215.728 109.795 216.126H109.828L109.994 216.258L110.325 216.391C110.325 216.524 110.325 216.789 110.325 216.921ZM101.607 213.773C101.441 213.74 101.309 213.706 101.143 213.64C100.977 213.574 100.679 213.541 100.546 213.508V213.541C100.546 213.574 100.546 213.64 100.546 213.673V213.74V213.839V213.938V214.137C100.546 214.204 100.546 214.27 100.546 214.336V214.402C100.546 214.601 100.546 214.767 100.546 214.966C100.546 215.165 100.513 215.364 100.513 215.562V215.695V215.927L100.215 215.861L100.016 215.828L99.8503 215.794L99.6845 215.761L98.3254 215.496C97.8613 215.397 97.3972 215.297 96.9332 215.231H96.8669H96.8006L96.4691 215.165C96.3696 215.132 96.237 215.132 96.1376 215.098L96.0381 215.065V214.402V213.74V213.508V212.745V212.613C95.9718 212.613 95.8392 212.58 95.7398 212.58L95.5409 212.546C95.4415 212.546 95.3752 212.513 95.2757 212.513C95.1763 212.513 95.0105 212.48 94.9111 212.447V212.613V212.712C94.9111 213.044 94.8779 213.541 94.8779 214.071C94.8779 214.601 94.8448 215.198 94.8116 215.794C94.8116 215.96 94.8116 216.126 94.8116 216.292C94.8116 216.457 94.8116 216.623 94.7785 216.756C94.7785 217.021 94.7453 217.253 94.7453 217.452C94.7453 217.684 94.7453 218.015 94.7453 218.181C94.8116 218.181 94.9774 218.214 95.0437 218.247L95.2094 218.28L95.5078 218.313C95.6072 218.346 95.8392 218.38 95.9718 218.38H96.005V217.949V217.617C96.005 217.617 96.005 217.418 96.005 217.186C96.005 216.954 96.005 216.656 96.005 216.457V216.325C96.005 216.258 96.005 216.093 96.005 216.06C96.0381 216.06 96.1376 216.093 96.2039 216.093H96.237H96.2702C96.4691 216.126 96.9995 216.225 97.6624 216.358C98.3254 216.49 99.0878 216.656 99.784 216.789L99.8834 216.822L99.9829 216.855L100.215 216.921L100.447 216.988C100.447 217.054 100.447 217.352 100.447 217.418V217.584V217.75C100.447 217.882 100.447 218.015 100.447 218.148C100.447 218.28 100.447 218.38 100.447 218.512V218.678V218.844V218.91V219.142L100.812 219.241L101.044 219.307L101.276 219.374L101.607 219.44V219.109V218.91C101.64 218.214 101.64 217.452 101.673 216.623C101.673 215.794 101.707 214.933 101.707 214.071V213.773H101.607ZM90.0713 211.685C89.11 211.585 88.3476 211.486 87.9829 211.453C87.6846 211.42 87.3862 211.552 87.1542 211.751C86.9222 211.917 86.7564 212.149 86.7233 212.447C86.6901 212.679 86.7233 214.436 86.7233 214.436V216.524C86.7233 216.623 86.7564 216.722 86.7896 216.822C86.8227 216.921 86.889 216.988 86.9553 217.054C87.0548 217.153 87.2205 217.253 87.3531 217.286C87.4525 217.319 87.5188 217.319 87.6183 217.319H87.6846H87.7509C88.6128 217.385 89.5409 217.485 90.4691 217.584C91.3973 217.684 92.2923 217.783 93.2536 217.916L93.6846 217.982V217.418V216.921L93.1873 216.855L92.8227 216.789H92.7895H92.7564C92.0271 216.689 91.2647 216.623 90.4691 216.524C89.6735 216.424 88.9443 216.325 88.1487 216.258C88.1155 216.258 88.0492 216.225 88.0492 216.192C88.0161 216.159 88.0161 216.126 88.0161 216.06V212.944C88.0161 212.845 88.0492 212.745 88.1155 212.646C88.215 212.58 88.3144 212.546 88.447 212.546C88.9443 212.58 93.2205 213.143 93.8835 213.242V212.712C93.8835 212.58 93.8835 212.414 93.8835 212.281V212.149C92.889 212.016 91.331 211.817 90.0713 211.685ZM76.6128 216.093C76.7786 216.424 76.878 216.789 76.9112 217.186L75.5521 217.253C75.4526 216.855 75.32 216.49 75.1543 216.126C74.9554 215.728 74.5576 215.463 74.0935 215.496C73.4968 215.562 70.646 215.861 70.6129 215.861V217.717L69.983 217.816L69.3532 217.882V214.933V212.016C69.3532 212.016 74.8891 211.386 75.5189 211.42C76.1487 211.453 76.2813 211.784 76.3145 212.116C76.3808 212.812 76.4139 213.474 76.3808 214.17C76.2813 214.535 76.0493 214.866 75.751 215.032C76.0824 215.33 76.3808 215.695 76.6128 216.093ZM75.1211 213.077C75.1211 212.944 75.088 212.845 74.9885 212.745C74.8559 212.646 74.7233 212.613 74.5576 212.613L70.5466 213.01V213.905V214.8L72.4692 214.634L74.3918 214.469C74.5907 214.469 74.7565 214.369 74.9222 214.237C75.0548 214.104 75.1211 213.905 75.1211 213.74V213.077ZM67.8946 213.11C67.8946 213.375 67.9278 216.789 67.9278 217.087C67.8615 217.617 67.4969 218.048 66.9996 218.181C66.4692 218.28 61.9278 219.175 61.53 219.274C61.1323 219.374 60.6019 218.844 60.6019 218.38C60.6019 217.916 60.6019 214.436 60.6019 214.436C60.6019 214.005 61.066 213.64 61.4969 213.541C61.8947 213.441 66.7013 212.513 66.9996 212.447C67.3974 212.381 67.8283 212.679 67.8946 213.11ZM66.635 214.17C66.635 213.839 66.5024 213.541 65.972 213.607C65.309 213.706 63.1543 214.104 62.4582 214.237C61.8615 214.336 61.6295 214.568 61.6295 215.065V217.584C61.6295 217.949 61.8615 218.214 62.2262 218.148C62.5908 218.081 65.74 217.485 66.1046 217.385C66.4361 217.319 66.6681 217.021 66.635 216.689C66.6681 216.358 66.635 214.336 66.635 214.17ZM84.5686 213.673C84.1045 213.64 83.6073 213.64 83.11 213.607C82.6128 213.607 82.0824 213.607 81.5852 213.607C81.2537 213.607 79.5631 213.607 79.5299 213.607C79.4968 213.607 79.4636 213.574 79.4305 213.541C79.3973 213.474 79.3642 213.408 79.3642 213.342C79.3642 213.276 79.3642 213.209 79.3642 213.11V212.944C79.3642 212.778 79.3642 212.613 79.3973 212.447C79.4305 212.381 79.4968 212.348 79.6625 212.314C79.7951 212.314 81.8835 212.314 83.2758 212.348H83.6073H83.8062C84.2039 212.348 84.668 212.381 85.0327 212.381V211.32C84.4028 211.287 84.0051 211.254 83.3752 211.254H83.2758C82.9443 211.254 82.5465 211.221 82.1819 211.221C80.7233 211.188 79.099 211.221 78.9333 211.221C78.7675 211.254 78.6018 211.32 78.4692 211.42C78.3366 211.486 78.2703 211.618 78.2371 211.751V212.944V214.137C78.2703 214.27 78.3366 214.402 78.4692 214.469C78.6018 214.568 78.8007 214.634 78.9664 214.634C79.2316 214.634 79.4968 214.634 79.762 214.634H80.5244C81.0548 214.634 81.5852 214.634 82.1156 214.668C82.6459 214.668 83.2095 214.701 83.7399 214.734C83.9056 214.734 83.9388 214.8 83.9719 214.9C84.0051 215.032 84.0051 215.132 83.9719 215.264V215.397V215.529C83.9719 215.662 83.9719 215.794 83.9388 215.894C83.9056 215.96 83.8062 215.993 83.6073 215.993C83.6073 215.993 83.0769 215.993 82.878 215.993H82.215H81.4526C81.1874 215.993 80.9553 215.993 80.6902 215.993C80.2592 215.993 79.8283 215.993 79.4305 215.993C79.0327 215.993 78.5686 216.026 78.2371 216.06L78.204 217.087C78.7675 217.054 79.3973 217.054 79.8614 217.021C80.3255 217.021 80.7896 216.988 81.1542 216.988C81.552 216.988 81.8835 216.988 82.1819 216.988C82.4802 216.988 82.7785 217.021 83.11 217.021L83.7399 217.054L84.4691 217.087C84.6349 217.087 84.8006 217.021 84.9332 216.888C85.0658 216.789 85.1653 216.656 85.1984 216.49V215.364V214.237C85.1653 214.104 85.099 213.972 84.9995 213.872C84.8338 213.773 84.7012 213.706 84.5686 213.673ZM59.3754 214.999L59.4417 217.352C59.4417 217.518 59.3754 217.684 59.2428 217.816C59.1765 217.916 59.0439 217.982 58.9444 218.015L53.1433 219.838L53.1765 221.826C53.1765 221.826 51.7179 222.357 51.6516 222.357C51.6516 222.257 51.6516 220.037 51.6516 219.573C51.6516 218.545 51.6185 216.689 51.6185 216.623C51.6185 216.557 51.6516 216.557 51.7179 216.524C51.7842 216.49 53.5743 215.861 55.7621 215.098C56.4251 214.866 57.9499 214.402 58.2483 214.369C58.5135 214.303 58.7787 214.369 58.9776 214.502C59.1765 214.568 59.3422 214.767 59.3754 214.999ZM58.0494 216.789C58.0494 216.623 58.0162 216.126 58.0162 215.96C58.0162 215.861 57.9499 215.761 57.8837 215.662C57.8174 215.562 57.6848 215.529 57.5853 215.529H57.519C57.519 215.529 56.2262 215.894 55.5301 216.126C54.8339 216.358 53.077 217.021 53.077 217.021C53.077 217.021 53.1102 218.744 53.1102 218.777L57.5522 217.352C57.6848 217.319 57.8174 217.22 57.9168 217.153C57.9831 217.054 58.0494 216.921 58.0494 216.789ZM77.3421 237.635V239.259C77.3421 239.425 77.309 239.624 77.2095 239.789C77.1101 239.922 76.9443 239.988 76.7786 239.988C76.6128 239.988 76.4471 239.922 76.3476 239.789C76.2482 239.624 76.215 239.458 76.215 239.259V237.635C76.215 237.503 76.1156 237.436 76.0161 237.436C75.8836 237.436 75.8173 237.536 75.8173 237.635V239.127C75.7841 239.458 75.8836 239.756 76.0161 240.021C76.215 240.253 76.4802 240.386 76.8117 240.386C77.1101 240.419 77.4084 240.287 77.6073 240.021C77.773 239.756 77.8393 239.425 77.8062 239.127V237.635C77.8062 237.503 77.7067 237.403 77.5741 237.403C77.4416 237.403 77.3421 237.536 77.3421 237.635ZM79.5299 237.834C79.6294 237.834 79.7288 237.735 79.7288 237.635C79.7288 237.536 79.6294 237.436 79.5299 237.436H78.3034C78.204 237.436 78.1045 237.536 78.1045 237.635C78.1045 237.735 78.204 237.834 78.3034 237.834H78.7012V240.187C78.7012 240.32 78.8007 240.386 78.9001 240.386C79.0327 240.386 79.099 240.287 79.099 240.187V237.834H79.5299ZM81.4526 237.834C81.552 237.834 81.6515 237.735 81.6515 237.635C81.6515 237.536 81.552 237.436 81.4526 237.436H80.2261C80.1266 237.436 80.0272 237.536 80.0272 237.635C80.0272 237.735 80.1266 237.834 80.2261 237.834H80.6239V240.187C80.6239 240.32 80.7233 240.386 80.8228 240.419C80.9553 240.419 81.0216 240.32 81.0548 240.22V237.867H81.4526V237.834ZM83.773 238.663H83.11C82.9443 238.663 82.9111 238.762 82.9111 238.828C82.9111 238.928 82.9774 239.027 83.0769 239.027C83.0769 239.027 83.0769 239.027 83.11 239.027H83.5741V239.16C83.6073 239.524 83.3752 239.889 83.0106 239.988C82.7785 239.988 82.5796 239.856 82.4802 239.624C82.3808 239.392 82.3145 239.127 82.3145 238.828C82.3145 238.563 82.3808 238.298 82.5133 238.066C82.5796 237.867 82.7785 237.735 82.9774 237.735C83.1763 237.768 83.3421 237.867 83.4415 238.033C83.5078 238.099 83.6073 238.132 83.6736 238.099C83.773 238.066 83.8062 238 83.773 237.9C83.6404 237.569 83.3421 237.337 82.9774 237.37C82.6459 237.337 82.3476 237.503 82.215 237.801C82.0161 238.132 81.9498 238.464 81.9498 238.828C81.9498 239.193 82.0161 239.557 82.215 239.889C82.3476 240.187 82.6459 240.386 83.0106 240.386C83.1763 240.386 83.3752 240.32 83.541 240.253C83.8062 240.055 83.9719 239.756 84.0382 239.458C84.0714 239.292 84.0714 239.093 84.0714 238.928C84.0382 238.795 84.0051 238.663 83.773 238.663ZM90.8669 237.834C90.9663 237.834 91.0658 237.735 91.0658 237.635C91.0658 237.536 90.9663 237.436 90.8669 237.436H89.6404C89.5409 237.436 89.4415 237.536 89.4415 237.635C89.4415 237.735 89.5409 237.834 89.6404 237.834H90.0382V240.187C90.0382 240.32 90.1376 240.386 90.2371 240.419C90.3697 240.419 90.436 240.32 90.4691 240.22V237.867H90.8669V237.834ZM88.3476 239.292L88.4139 239.259C88.5796 239.193 88.7122 239.127 88.8117 238.994C89.0106 238.828 89.0768 238.563 89.0437 238.331C89.0437 238.066 88.878 237.801 88.6791 237.635C88.4802 237.503 88.215 237.436 87.9498 237.436H87.2868C87.2205 237.436 87.1542 237.469 87.1211 237.503C87.0879 237.536 87.0548 237.602 87.0548 237.668V240.154C87.0548 240.253 87.1211 240.386 87.2205 240.386H87.2537C87.3531 240.386 87.4525 240.32 87.4857 240.187V240.154V239.359H87.8835L88.5133 240.253C88.5465 240.32 88.6128 240.353 88.7122 240.353C88.8448 240.353 88.9111 240.287 88.9111 240.187C88.9111 240.121 88.878 240.055 88.8448 239.988L88.3476 239.292ZM87.5188 238.961V237.834H88.0492C88.215 237.834 88.3807 237.867 88.4802 238C88.5796 238.099 88.6459 238.232 88.6459 238.364C88.6459 238.696 88.3476 238.961 88.0161 238.961C87.9829 238.961 87.9829 238.961 87.9498 238.961H87.5188ZM85.7951 237.635C85.7619 237.503 85.6294 237.403 85.4968 237.403C85.3642 237.403 85.2316 237.536 85.1984 237.668L84.4028 240.187C84.3697 240.253 84.4028 240.32 84.436 240.353C84.4691 240.419 84.5354 240.452 84.6017 240.452C84.7012 240.452 84.8006 240.452 84.8338 240.287L84.9664 239.856H86.0934L86.226 240.287C86.2592 240.386 86.3586 240.452 86.4249 240.452C86.4912 240.452 86.5575 240.419 86.6238 240.353C86.657 240.287 86.657 240.187 86.6238 240.121L85.7951 237.635ZM85.9277 239.491H85.0327L85.4968 237.867L85.994 239.491H85.9277ZM73.3311 238.895C73.0659 238.729 72.7344 238.629 72.4029 238.629C72.204 238.596 72.0383 238.397 72.0714 238.165C72.1377 237.933 72.3698 237.801 72.6018 237.834C72.8007 237.834 72.9996 237.9 73.1322 238.066C73.2648 238.199 73.4637 238.066 73.4637 237.933C73.4637 237.801 73.2648 237.436 72.635 237.403C72.4029 237.403 72.204 237.469 72.0051 237.569C71.8062 237.701 71.6736 237.9 71.6736 238.132C71.6405 238.397 71.7399 238.629 71.9057 238.795C72.0714 238.961 72.2703 239.027 72.5024 239.027C72.7675 239.027 73.0327 239.16 73.1653 239.359C73.2316 239.491 73.1985 239.657 73.099 239.756C72.9664 239.889 72.7675 239.922 72.6018 239.922C72.4029 239.922 72.204 239.856 72.0714 239.723C72.0051 239.657 71.9057 239.624 71.8062 239.624C71.6405 239.69 71.6736 239.856 71.6736 239.889C71.8725 240.187 72.204 240.386 72.5687 240.386C72.867 240.419 73.1985 240.287 73.4305 240.088C73.5963 239.922 73.6626 239.723 73.6626 239.491C73.6294 239.259 73.53 239.027 73.3311 238.895ZM75.2206 237.834C75.32 237.834 75.4195 237.768 75.4526 237.635C75.4526 237.536 75.3863 237.436 75.2537 237.403H75.2206H73.9941C73.8946 237.403 73.7952 237.469 73.762 237.602C73.762 237.701 73.8283 237.801 73.9609 237.834H73.9941H74.3918V240.187C74.3918 240.32 74.4913 240.386 74.5907 240.386C74.7233 240.386 74.7896 240.287 74.7896 240.187V237.834H75.2206ZM57.8174 226.499C58.1488 225.77 58.6792 225.141 59.3754 224.71C59.7068 224.511 59.7068 224.411 59.7068 224.411C59.7068 224.378 59.6405 224.345 59.2096 224.345C58.5466 224.411 57.9168 224.677 57.4196 225.107C56.7897 225.638 56.3588 226.334 56.1599 227.129C56.0273 228.024 56.0273 228.952 56.2262 229.88C56.2262 229.88 55.0991 230.41 54.7345 230.609C54.635 230.311 54.5025 230.012 54.3036 229.78C53.9389 229.482 53.4748 229.449 53.0439 229.648C52.6793 229.814 52.4804 230.178 52.5467 230.576C52.5798 230.874 52.7124 231.139 52.8782 231.371C52.5798 231.471 52.2815 231.636 52.0826 231.868C51.7842 232.167 51.6848 232.598 51.7842 232.995C51.9168 233.36 52.2815 233.559 52.6793 233.492C53.1433 233.393 53.5743 233.161 53.9389 232.83C54.1047 233.028 54.2704 233.194 54.4362 233.36C54.635 233.492 54.8339 233.592 55.066 233.559C55.2649 233.559 55.4306 233.526 55.5964 233.426C55.9279 233.227 56.1268 232.863 56.0605 232.498C55.9942 231.968 55.4969 231.769 55.5301 231.57C58.0494 230.145 60.7676 229.084 63.5853 228.422C65.5079 227.924 67.4306 227.626 69.4195 227.494C70.6792 227.361 71.9388 227.494 73.1322 227.858C74.1267 228.123 75.0217 228.62 75.751 229.316H75.7841C75.751 228.388 75.2537 227.56 74.425 227.162C73.762 226.765 72.9996 226.499 72.2372 226.433C72.4361 226.102 72.6349 225.837 72.9001 225.571C73.3311 225.174 73.8615 224.875 74.425 224.776C74.9222 224.71 75.4526 224.677 75.9499 224.677C75.7841 224.246 75.3532 223.981 74.9222 223.981C74.3255 223.881 73.7289 223.947 73.1653 224.146C72.1709 224.577 71.3753 225.406 70.9444 226.4C69.9167 226.334 68.856 226.334 67.8283 226.4C67.9278 225.571 68.2593 224.776 68.7234 224.08C69.2869 223.417 70.0162 222.953 70.8449 222.721C70.9775 222.688 71.0769 222.622 71.2095 222.555C71.0438 222.39 70.8118 222.224 69.9167 222.191C68.7897 222.224 67.7289 222.787 67.1322 223.715C66.635 224.544 66.3366 225.472 66.2372 226.466C64.5797 226.765 62.6571 227.262 62.6571 227.262C62.6903 226.599 62.8229 225.903 63.088 225.306C63.4858 224.511 64.0825 223.848 64.8449 223.417C64.8449 223.417 65.1433 223.218 65.2096 223.185C64.9775 223.086 64.7455 223.053 64.4803 223.086C63.9168 223.119 63.3864 223.251 62.8891 223.517C61.8615 224.08 61.2317 225.174 61.2317 226.334C61.1986 226.599 61.2648 227.593 61.2317 227.825C59.9389 228.156 58.6792 228.554 57.4527 229.018C57.3201 228.19 57.4527 227.295 57.8174 226.499ZM71.6736 233.658C71.6736 233.658 72.1046 233.526 72.2703 233.492C72.1709 233.426 72.1046 233.327 71.972 233.294C71.6073 233.095 71.1764 232.995 70.7455 232.995C70.3145 232.995 69.8836 233.095 69.4858 233.26C68.6571 233.724 68.0604 234.487 67.7952 235.381C67.7952 235.381 66.8007 235.415 66.4361 235.448L65.0107 235.547C65.0107 235.315 65.077 235.083 65.1101 234.818C65.2427 234.354 65.4748 233.89 65.8063 233.526C66.3366 232.896 67.0991 232.465 67.9278 232.299C67.9941 232.266 68.0935 232.266 68.1267 232.233C67.8615 232.067 67.53 231.968 67.1985 231.968C65.3753 231.968 63.8505 233.393 63.7179 235.249L63.6516 235.647C63.6516 235.647 62.9554 235.812 62.624 235.879C62.0604 235.978 61.4637 236.111 60.9334 236.309C60.9665 235.613 61.1323 234.951 61.4306 234.354C61.7289 233.791 62.1267 233.26 62.624 232.863C62.7566 232.763 62.8891 232.664 63.0217 232.564C62.856 232.531 62.6571 232.498 62.4914 232.498C61.4306 232.498 60.5024 233.161 60.1046 234.155C59.7731 235.017 59.6405 235.945 59.6737 236.84C59.1433 236.972 57.9499 237.436 57.4527 237.635C57.3201 236.972 57.3201 236.309 57.4859 235.647C57.6185 235.083 57.8837 234.553 58.2814 234.155C58.3809 234.056 58.5135 233.923 58.6461 233.824C58.6129 233.824 58.5135 233.758 58.0162 233.857C57.1544 234.089 56.4582 234.752 56.1931 235.613C55.9942 236.508 55.9279 237.436 55.961 238.331C55.6627 238.497 54.7013 238.928 54.5025 238.994C54.4693 238.762 54.3699 238.53 54.2373 238.298C54.0715 238.033 53.7732 237.9 53.4748 237.9C53.3091 237.9 53.1433 237.933 52.9776 238.033C52.8119 238.099 52.7124 238.265 52.6461 238.431C52.5798 238.663 52.5798 238.895 52.7124 239.093C52.7787 239.226 52.8782 239.325 52.9445 239.458C53.0107 239.557 53.1765 239.756 53.1765 239.756C52.845 239.856 52.5467 239.988 52.3146 240.187C51.9168 240.452 51.7842 240.983 52.0163 241.413C52.1489 241.679 52.4472 241.844 52.7456 241.844C53.2428 241.811 53.7069 241.579 54.0384 241.215C54.0384 241.215 54.3699 241.745 54.4362 241.811C54.6019 242.043 54.8671 242.176 55.1323 242.176C55.298 242.176 55.4306 242.143 55.5632 242.076C55.8616 241.877 56.0605 241.579 56.0273 241.215C55.9942 240.916 55.8947 240.618 55.6627 240.386L55.6295 240.187L56.3256 239.823C57.4527 239.193 58.6461 238.663 59.8394 238.199C61.7952 237.503 63.8173 237.039 65.8726 236.807C66.3035 236.74 66.7344 236.707 67.1322 236.74C67.6626 236.773 68.193 236.873 68.6571 237.072V234.951H69.5189C70.1156 234.288 70.8449 233.824 71.6736 233.658ZM68.7234 241.546V244.661C68.425 244.628 68.0272 244.595 67.7289 244.595C64.9444 244.761 62.193 245.424 59.6405 246.584C58.4803 247.081 57.3864 247.677 56.2925 248.34C56.6571 248.539 56.9555 248.87 57.1212 249.268C57.287 249.865 56.9223 250.461 56.0936 250.461C55.3643 250.494 55.1986 249.832 54.9665 249.6C54.9002 249.633 54.3036 250.229 54.0715 250.329C53.9058 250.428 53.6737 250.494 53.4748 250.494C53.2096 250.494 52.9113 250.395 52.7456 250.163C52.5798 249.964 52.5135 249.699 52.5798 249.434C52.6461 249.102 52.8782 248.837 53.1433 248.705C53.3422 248.605 53.5743 248.473 53.74 248.307C53.7069 248.108 53.3091 247.777 53.1765 247.478C53.0439 247.048 53.1765 246.617 53.508 246.318C53.8395 246.12 54.2704 246.12 54.5688 246.352C54.9665 246.584 55.1986 247.346 55.2649 247.412C55.4969 247.246 56.1599 246.816 56.5908 246.517C56.1268 245.689 55.8947 244.761 55.9279 243.833C56.1268 242.408 57.6185 241.413 58.3477 241.778C57.7511 242.375 57.4196 243.203 57.3864 244.065C57.287 244.694 57.4196 245.357 57.6848 245.921C57.6848 245.921 59.2759 245.291 59.8394 245.125C59.4417 244.131 59.4085 243.004 59.74 241.977C60.2372 241.016 61.2648 240.386 62.3588 240.386C60.9665 241.314 60.3698 243.037 60.8339 244.628C61.1654 244.562 62.9886 243.965 63.1875 243.899C63.1212 242.805 63.4195 241.745 64.0825 240.883C64.6129 240.154 65.4085 239.657 66.3035 239.524C66.5024 239.524 66.6681 239.524 66.867 239.591C66.867 239.657 66.867 239.657 66.7344 239.756L66.635 239.823C65.8726 240.419 65.2427 241.115 64.7123 241.944C64.4472 242.441 64.3146 242.971 64.3477 243.534V243.601C64.3477 243.601 65.2759 243.435 66.0052 243.369C66.7344 243.302 67.4637 243.269 67.4637 243.269C67.5632 242.971 67.7289 242.673 67.8946 242.375C68.1598 242.043 68.425 241.778 68.7234 241.546ZM98.9221 254.969C98.3254 255.167 97.795 255.565 97.4635 256.095C96.9 256.957 96.7011 257.951 97.0326 257.951C97.2646 257.951 97.6293 257.951 97.7287 257.951C98.1265 257.951 98.5243 257.951 98.9221 258.018C98.9884 258.018 99.0878 257.951 99.121 257.918C99.1873 257.852 99.2204 257.753 99.2867 257.686C99.5851 256.725 100.182 255.863 101.01 255.267C101.342 255.035 101.707 254.902 102.138 254.902C102.734 254.869 103.331 255.134 103.729 255.598C103.861 255.797 103.066 255.399 101.806 256.692C101.408 257.09 101.11 257.587 100.878 258.084C100.878 258.117 100.911 258.217 100.944 258.217C101.508 258.382 102.535 258.614 103.033 258.846C103.132 258.879 103.265 258.846 103.331 258.747C103.596 258.316 103.961 257.951 104.392 257.653C104.856 257.355 105.386 257.222 105.95 257.222H106.049C107.209 257.355 107.309 257.951 107.342 258.018C107.408 258.117 107.077 258.117 106.944 258.15C106.149 258.316 105.419 258.78 104.889 259.443C104.823 259.575 105.121 259.84 105.121 259.84C106.016 260.338 106.48 261.299 106.314 262.293C106.281 262.459 106.314 262.558 106.149 262.558C105.983 262.459 105.817 262.359 105.684 262.227C105.154 261.763 104.624 261.365 104.06 260.967C103.132 260.371 102.104 259.973 101.01 259.774C100.182 259.608 99.3199 259.542 98.4912 259.509C96.6017 259.542 94.7122 259.807 92.889 260.338C92.5575 260.437 91.3641 260.768 90.3365 261.1L89.7067 261.299L90.1376 260.934C90.6017 260.503 91.0326 260.039 91.4304 259.542L91.7288 259.178L92.226 259.045L94.3144 258.581C94.5464 258.515 94.7122 258.349 94.7453 258.117C94.8448 257.289 95.2094 256.526 95.7398 255.93C96.1707 255.234 96.9 254.77 97.7287 254.67C98.6901 254.571 99.0878 254.902 98.9221 254.969ZM83.773 270.811C83.4415 270.545 83.2095 270.148 83.1763 269.717C83.1763 269.286 83.4084 268.921 83.8062 268.756C84.2371 268.59 84.7012 268.623 85.099 268.855C85.5631 269.187 85.5962 269.518 85.762 270.015C85.7951 270.015 85.7951 270.048 85.8282 270.048C86.226 269.849 86.9553 269.518 87.4525 269.253L87.7177 269.12C87.7177 269.12 87.8172 269.087 87.784 268.921C87.6183 268.391 87.552 267.861 87.552 267.331C87.5851 266.734 87.784 266.138 88.1155 265.64C88.878 264.348 90.3034 264.48 90.1708 264.58C89.6735 265.143 89.342 265.839 89.2094 266.601C89.1431 267.032 89.1431 267.463 89.2094 267.861C89.2426 268.06 89.2426 268.259 89.3752 268.325C89.4746 268.391 89.9387 268.159 90.2371 268.06C90.6017 267.927 91.0989 267.861 91.3973 267.761C91.5962 267.695 91.5299 267.596 91.5299 267.563C91.4967 266.403 91.8282 265.243 92.458 264.282C92.9553 263.619 93.7177 263.188 94.5133 263.122C94.8116 263.088 95.2426 263.221 95.11 263.32C94.9442 263.42 94.7785 263.552 94.6127 263.685C94.1486 264.05 93.784 264.48 93.4525 264.978C93.0879 265.707 92.9553 266.502 93.0879 267.331C93.7509 267.331 94.3807 267.264 95.0105 267.065C95.11 267.032 95.1763 266.933 95.2094 266.833C95.4415 266.104 95.7066 264.679 96.4691 264.182C96.8337 263.851 97.3309 263.685 97.8282 263.652C98.1928 263.619 99.1541 263.917 98.9221 264.016C98.3254 264.282 97.795 264.679 97.3972 265.176C97.0989 265.574 96.9 266.038 96.8337 266.535C96.7674 266.8 97.0658 266.9 97.0658 266.9C97.5961 266.933 98.1265 266.999 98.6238 267.099C98.7895 267.132 98.889 266.933 98.9221 266.867C99.1541 266.502 99.4525 266.138 99.784 265.872C100.115 265.541 100.546 265.342 101.01 265.309C101.972 265.309 102.469 266.005 102.336 266.071C101.508 266.27 100.778 266.767 100.248 267.463C100.215 267.496 100.115 267.563 100.281 267.662C101.143 268.391 101.74 269.385 101.906 270.512C101.906 270.612 101.972 271.009 101.839 271.043C101.209 270.313 100.48 269.651 99.6845 269.12C98.5575 268.557 97.3309 268.259 96.0713 268.292C94.5464 268.292 93.0216 268.524 91.563 268.955C89.9387 269.452 88.3807 270.148 86.9222 271.009C87.1542 271.175 87.32 271.407 87.4194 271.672C87.6183 272.136 87.4857 272.667 87.0879 272.998C86.8559 273.197 86.5244 273.23 86.226 273.131C85.5299 273.031 85.331 272.302 85.2316 272.103C85.1321 272.335 84.9664 272.534 84.7343 272.667C84.2702 273.031 83.6404 272.965 83.2758 272.501C83.2426 272.468 83.2426 272.435 83.2095 272.401C82.9111 271.971 82.9774 271.407 83.3752 271.076C83.7399 270.877 83.773 270.811 83.773 270.811ZM86.226 279.527C86.0934 279.295 85.994 279.063 85.9277 278.798C85.7288 278.268 85.6625 277.704 85.7288 277.141C85.8614 276.445 86.4581 275.914 87.1542 275.881C86.8227 276.246 86.657 276.743 86.7564 277.24C86.7896 277.737 86.9553 278.201 87.1874 278.632C87.2537 278.698 87.2868 278.665 87.32 278.665C87.7177 278.466 88.1155 278.268 88.5133 278.102C88.5465 278.102 88.5465 278.069 88.5465 278.036C88.2813 277.108 88.3807 276.113 88.8448 275.285C89.2094 274.622 89.8393 274.191 90.6017 274.059C90.6349 274.059 91.0989 274.059 91.0989 274.224C90.6017 274.589 90.2039 275.086 89.9387 275.649C89.7398 276.213 89.6735 276.842 89.8061 277.439C89.8061 277.472 89.8724 277.472 89.8724 277.472C90.3365 277.34 90.7674 277.24 91.2647 277.141C91.2978 277.108 91.331 277.074 91.3641 277.041C91.5299 276.18 91.994 275.384 92.6238 274.821C93.121 274.423 93.7177 274.158 94.3475 274.092C95.1763 274.059 95.2757 274.357 95.3752 274.456C95.4415 274.523 95.2094 274.423 94.8116 274.589C94.3475 274.821 93.9166 275.152 93.5851 275.55C93.2868 275.914 93.0879 276.345 93.0216 276.842C93.0216 276.876 93.0216 276.942 93.0547 276.942C93.5188 277.008 93.9829 277.141 94.447 277.273C94.4801 277.273 94.5133 277.273 94.5133 277.24C94.7785 276.743 95.11 276.279 95.5078 275.881C95.9055 275.517 96.4028 275.351 96.9332 275.318C97.2647 275.318 97.563 275.417 97.8282 275.583C97.8282 275.583 98.1597 275.848 98.0602 275.881C97.4967 276.047 96.9995 276.345 96.6348 276.776C96.0713 277.439 96.0713 277.605 96.0381 277.737C96.005 277.903 96.005 277.936 96.1707 278.069C97.0326 278.632 97.1652 279.096 97.1983 279.428C97.2646 279.759 97.0326 280.256 96.7674 279.892C96.4028 279.394 95.8724 279.063 95.3089 278.864C94.5133 278.533 93.6514 278.367 92.7564 278.367C91.9608 278.367 91.1321 278.5 90.3697 278.765C89.342 279.063 88.3807 279.56 87.4857 280.19C87.3531 280.289 87.2205 280.389 87.0879 280.488C86.8227 280.687 86.5575 280.919 86.3255 281.151C86.226 281.25 86.3918 281.317 86.4912 281.35C87.4857 281.781 87.5188 282.477 87.2537 282.775C87.0216 283.007 86.657 283.073 86.3918 282.907C85.6294 282.41 85.762 281.98 85.4305 282.079C85.1984 282.145 84.9664 282.709 84.8006 282.941C84.5354 283.272 84.0382 283.338 83.7067 283.073C83.3421 282.775 83.2758 282.245 83.541 281.847C83.7399 281.681 83.9388 281.516 84.1376 281.35C84.1045 281.317 83.5741 280.985 83.3752 280.82C83.0437 280.488 83.0437 279.958 83.3752 279.626C83.3752 279.593 83.4084 279.593 83.4415 279.593C83.8393 279.295 84.4028 279.394 84.7012 279.792C84.7012 279.792 85.0658 280.289 85.099 280.322C85.1321 280.356 85.1653 280.356 85.1984 280.322C85.331 280.19 86.1266 279.593 86.1597 279.56C86.226 279.56 86.2592 279.527 86.226 279.527ZM90.9 251.091C90.8006 251.124 90.668 251.124 90.5686 251.091C90.4691 251.058 90.3365 250.991 90.2702 250.892C90.2039 250.826 90.1376 250.726 90.1045 250.594C90.1045 250.528 90.1708 250.461 90.2371 250.428C90.4028 250.296 90.5686 250.13 90.668 249.964C90.7674 249.798 90.8006 249.6 90.8006 249.401C90.8006 249.368 90.7343 249.334 90.7012 249.368C90.5686 249.467 90.5023 249.633 90.3697 249.732C90.2371 249.832 90.1045 249.865 89.9387 249.865C89.8393 249.865 89.7398 249.798 89.6735 249.732C89.6072 249.633 89.5741 249.533 89.5409 249.434C89.5078 249.334 89.6404 249.268 89.7398 249.268C89.9387 249.268 90.1376 249.202 90.3034 249.102C90.4028 249.036 90.5023 248.937 90.5686 248.804C90.6017 248.705 90.6349 248.605 90.6349 248.506C90.6349 248.473 90.668 248.44 90.6017 248.44C90.5023 248.473 90.436 248.539 90.3365 248.572C90.1708 248.638 89.9719 248.605 89.8061 248.539C89.6404 248.406 89.5078 248.274 89.4083 248.075C89.3752 248.042 89.4083 247.976 89.4415 247.976C89.6072 247.942 89.7398 247.777 89.8724 247.545C89.9056 247.512 89.9387 247.445 89.9387 247.412C89.9719 247.346 90.0382 247.28 90.0382 247.246C90.0713 247.114 90.0713 246.981 90.0713 246.849C90.0713 246.749 90.005 246.65 89.9056 246.55C89.8724 246.517 89.8061 246.517 89.773 246.55C89.7067 246.683 89.7398 246.849 89.6735 246.981C89.5741 247.114 89.4746 247.246 89.342 247.346C89.2757 247.412 89.1763 247.478 89.11 247.445C88.9774 247.379 88.878 247.246 88.8448 247.114C88.8117 246.948 88.878 246.782 88.9443 246.65C89.11 246.352 89.2757 246.053 89.4746 245.788C89.6404 245.589 89.773 245.457 89.9387 245.258C90.0382 245.125 90.1045 244.827 89.9719 244.761C89.8393 244.694 89.773 245.026 89.6404 245.092C89.2094 245.258 88.7785 245.49 88.4139 245.755C88.2481 245.987 88.1155 246.252 88.0492 246.517C87.9829 246.683 88.0161 246.915 87.9829 247.048C87.9498 247.114 87.8503 247.147 87.784 247.114C87.6514 246.981 87.552 246.816 87.4857 246.617C87.4525 246.484 87.4525 246.352 87.5188 246.219C87.552 246.153 87.4857 246.12 87.4525 246.153C87.2868 246.252 87.1542 246.418 87.0879 246.584C87.0216 246.849 87.0216 247.114 87.1542 247.346C87.3531 247.71 87.5851 248.042 87.8503 248.373C88.0492 248.672 88.2813 249.003 88.447 249.301C88.6128 249.533 88.6791 249.865 88.6459 250.13C88.5796 250.428 88.4139 250.726 88.1818 250.925C88.1487 250.958 88.0824 250.958 88.0492 250.958C87.8172 250.726 87.552 250.528 87.32 250.329C87.0216 250.13 86.657 249.997 86.2923 249.931C85.8282 249.865 85.3973 249.865 84.9332 249.931C84.4691 249.931 83.9719 250.03 83.5078 249.997C83.11 250.03 82.7454 249.964 82.3476 249.832C82.0824 249.732 81.8504 249.533 81.6846 249.268C81.552 249.003 81.4857 248.672 81.552 248.373C81.5852 248.141 81.6515 247.876 81.7509 247.677C81.8504 247.478 82.0161 247.313 82.1819 247.213C82.3808 247.081 82.6459 247.048 82.878 247.114C83.0106 247.18 83.11 247.246 83.2095 247.313C83.3089 247.379 83.4084 247.478 83.4747 247.578H83.541C83.5741 247.246 83.541 246.915 83.4084 246.617C83.2758 246.385 83.1432 246.153 82.9774 245.954C82.9774 245.888 83.11 245.921 83.1763 245.888C83.4415 245.888 83.6736 245.954 83.9056 246.086C84.0382 246.186 84.1708 246.318 84.2702 246.451H84.3365C84.3697 246.053 84.2371 245.689 83.9719 245.39C83.8725 245.225 83.7067 245.092 83.5078 244.993C83.4084 244.96 83.5741 244.86 83.6736 244.86C83.8725 244.827 84.0714 244.86 84.2702 244.96C84.3365 244.993 84.4028 245.026 84.4691 245.092C84.5023 245.125 84.5354 245.158 84.6017 245.192C84.6349 245.225 84.668 245.158 84.668 245.125C84.6349 245.026 84.6017 244.893 84.5354 244.794C84.2371 244.496 83.9056 244.23 83.5741 243.965C83.541 243.932 83.4747 243.899 83.4747 243.899C83.3752 243.766 83.3089 243.634 83.2758 243.468C83.2426 243.402 83.1763 243.369 83.1432 243.269C83.11 243.203 83.1432 243.104 83.1763 243.037C83.2758 242.839 83.3752 242.839 83.5741 242.739C83.7399 242.673 83.9056 242.64 84.0714 242.64C84.1377 242.64 84.1708 242.673 84.2371 242.673C84.2702 242.673 84.2702 242.607 84.2039 242.54C84.0051 242.408 83.773 242.341 83.541 242.341C83.2095 242.275 82.9111 242.308 82.5796 242.408C82.3476 242.54 82.1156 242.607 81.8504 242.607C81.6846 242.607 81.5189 242.573 81.3531 242.507C81.2537 242.441 81.1542 242.341 81.1542 242.242C81.1542 242.043 81.1874 241.844 81.2868 241.679C81.3531 241.546 81.4857 241.447 81.6183 241.413C81.7178 241.38 81.7841 241.347 81.7509 241.281C81.7509 241.215 81.6183 241.248 81.5852 241.281C81.2868 241.347 81.0216 241.447 80.7896 241.612C80.5907 241.778 80.4581 241.977 80.2924 242.176C80.2592 242.209 80.2261 242.242 80.1598 242.275C80.0935 242.308 80.0603 242.275 79.994 242.308C79.7951 242.375 79.5962 242.474 79.3973 242.573C79.1984 242.673 79.0327 242.839 78.8338 242.905C78.6681 242.938 78.5023 242.971 78.3366 242.971C78.0051 242.938 77.5741 242.938 77.5079 243.336C77.4747 243.402 77.5079 243.501 77.6073 243.534C77.6736 243.568 77.7067 243.601 77.773 243.634L77.9719 243.7C78.0051 243.7 78.0714 243.733 78.1045 243.766V243.8V243.833C78.1045 243.833 78.1045 243.833 78.1045 243.866C78.0714 243.932 78.0382 243.965 77.9719 243.965C77.8062 243.998 77.6073 243.965 77.4416 243.899L77.4084 243.866C77.3421 243.833 77.2427 243.833 77.1764 243.899C76.8117 244.197 76.4471 244.462 76.0824 244.694C76.0493 244.728 76.0161 244.761 75.983 244.794C75.9498 244.827 75.9499 244.86 75.9499 244.86C75.9499 244.893 75.9499 244.926 75.9499 244.926C75.9499 245.026 75.8504 245.059 75.7841 245.059C75.7178 245.092 75.6515 245.158 75.6515 245.225C75.6515 245.291 75.6515 245.357 75.6515 245.424C75.6847 245.556 75.7841 245.622 75.9167 245.622C75.9498 245.622 75.9498 245.622 75.983 245.589C76.0824 245.556 76.1819 245.523 76.2813 245.49C76.3476 245.457 76.3808 245.49 76.4471 245.523C76.4471 245.523 76.4471 245.523 76.4802 245.556V245.589C76.4802 245.622 76.4802 245.656 76.4471 245.656C76.4139 245.722 76.3808 245.788 76.3145 245.821C76.2813 245.888 76.2482 245.987 76.3145 246.02C76.4471 246.12 76.646 246.12 76.7786 245.987C76.8449 245.921 76.878 245.854 76.9112 245.788C76.9443 245.689 77.0106 245.622 77.1101 245.589C77.2758 245.523 77.4416 245.49 77.6073 245.49C77.7399 245.49 77.8393 245.523 77.9719 245.589C78.0051 245.622 78.0382 245.622 78.0382 245.656V245.689V245.722C78.0382 245.722 78.0382 245.722 78.0382 245.755C78.0051 245.888 77.9719 245.987 77.9056 246.086C77.8725 246.153 77.8725 246.252 77.8062 246.352C77.773 246.451 77.7067 246.55 77.7067 246.617C77.6736 246.683 77.6736 246.683 77.6073 246.749C77.4416 246.882 77.2427 247.014 77.1101 247.147C76.8449 247.412 76.6128 247.677 76.4139 248.009C76.3476 248.108 76.3145 248.208 76.2813 248.34C76.215 248.605 76.1819 248.937 75.8504 248.771C75.5521 248.605 75.2537 248.406 74.9554 248.208C74.8559 248.141 74.7565 248.042 74.6902 247.909C74.425 247.512 74.0604 247.876 73.8615 248.174C73.5631 248.638 73.2316 249.069 72.9001 249.5C72.8338 249.566 72.8007 249.633 72.7675 249.732C72.7344 249.832 72.6681 249.964 72.5687 250.03C72.4692 250.163 72.4361 250.329 72.4361 250.494C72.4361 250.76 72.3698 251.058 72.204 251.257C72.0714 251.389 72.0051 251.555 72.0051 251.721C72.0051 251.886 72.0051 252.019 72.0051 252.185C72.0051 252.284 72.0714 252.383 72.1709 252.383C72.204 252.383 72.2372 252.383 72.2703 252.35C72.5024 252.251 72.7344 252.151 72.9333 251.986C72.9664 251.953 72.9996 251.953 72.9996 251.919C73.0659 251.853 73.0659 251.754 73.0327 251.687C73.0327 251.654 72.9996 251.654 72.9996 251.621L72.9664 251.588C72.9333 251.555 72.867 251.522 72.867 251.455V251.422C72.867 251.356 72.867 251.323 72.867 251.257C72.867 251.19 72.9001 251.124 72.9001 251.058C72.9001 250.991 72.9333 250.892 72.9996 250.859C73.099 250.76 73.1985 250.693 73.3311 250.594C73.4968 250.461 73.53 250.262 73.4637 250.064C73.4637 250.03 73.4305 249.997 73.4305 249.964C73.4305 249.931 73.4305 249.931 73.4305 249.898C73.4305 249.798 73.4968 249.732 73.53 249.666C73.5963 249.566 73.6626 249.467 73.7289 249.368C73.8283 249.202 73.9941 249.069 74.193 249.036C74.425 249.003 74.657 249.069 74.8559 249.235C75.0548 249.467 75.1874 249.765 75.2206 250.064C75.2869 250.296 75.3863 250.528 75.5189 250.76C75.6184 250.925 75.8173 250.991 75.983 250.892C76.0161 250.892 76.0161 250.859 76.0493 250.859L76.0824 250.826H76.1156C76.1819 250.793 76.2482 250.826 76.2813 250.892C76.3808 250.991 76.4802 251.091 76.5797 251.19C76.7123 251.257 76.6128 251.356 76.4802 251.356C76.3808 251.356 76.3145 251.356 76.215 251.356C76.1487 251.356 76.0824 251.356 76.0161 251.389C75.5189 251.555 74.9885 251.621 74.4581 251.621C74.425 251.621 74.3918 251.621 74.3587 251.621C74.2924 251.621 74.2261 251.687 74.2261 251.721C74.2261 251.754 74.193 251.754 74.193 251.787C74.1598 251.82 74.1598 251.886 74.1267 251.953C74.0935 252.085 74.0935 252.218 74.1267 252.317C74.3255 253.046 74.3918 253.775 74.2924 254.505C74.2261 254.77 74.2924 255.035 74.4581 255.267C74.5244 255.333 74.6239 255.399 74.6902 255.433C74.7233 255.433 74.7565 255.466 74.7896 255.499C74.8559 255.565 74.8891 255.665 74.8891 255.764C74.8891 255.897 74.9554 256.029 75.0548 256.162C75.1874 256.327 75.3532 256.46 75.5521 256.559C75.5852 256.559 75.5852 256.593 75.6184 256.593C75.7178 256.626 75.8504 256.593 75.8836 256.493C75.983 256.261 76.0493 255.996 76.0493 255.731C76.0493 255.598 75.9498 255.499 75.8504 255.466H75.8173C75.7841 255.466 75.7178 255.466 75.6847 255.499C75.6515 255.499 75.6515 255.532 75.6184 255.532H75.5852H75.5521H75.5189H75.4858C75.4195 255.499 75.3863 255.433 75.3532 255.366C75.2869 255.234 75.2869 255.068 75.32 254.902C75.32 254.869 75.3532 254.803 75.3532 254.77C75.3532 254.703 75.3863 254.637 75.3532 254.571C75.3532 254.505 75.32 254.438 75.2869 254.372C75.2206 254.239 75.2206 254.206 75.1211 254.173H75.088C75.0548 254.173 74.9885 254.14 74.9554 254.107C74.9554 254.107 74.9554 254.107 74.9222 254.074C74.8891 254.041 74.8891 254.007 74.9222 253.974C74.9885 253.643 74.9885 253.278 74.9554 252.914C74.9554 252.814 74.9222 252.682 75.0217 252.582C75.2537 252.383 75.6515 252.549 75.9167 252.649C76.2482 252.748 76.5797 252.847 76.9112 252.914C77.4747 252.98 78.0382 252.814 78.5023 252.483C78.5355 252.45 78.5355 252.45 78.6018 252.45C78.8007 252.549 78.9001 252.682 79.0659 252.814C79.4636 253.079 79.9277 253.278 80.3918 253.444C81.0216 253.51 81.6846 253.51 82.3145 253.411C82.4802 253.411 82.6459 253.444 82.7785 253.51C82.8117 253.51 82.8448 253.543 82.8448 253.61C82.8448 253.842 82.7454 254.074 82.7454 254.306C82.7454 254.438 82.8117 254.571 82.878 254.67C82.9443 254.77 82.9774 254.935 83.0437 255.035L83.11 255.167C83.4747 255.631 83.4747 256.261 83.1432 256.758C82.9111 256.99 82.6459 257.189 82.3808 257.388C82.1156 257.587 81.8172 257.719 81.4857 257.719C81.2537 257.719 81.0548 257.819 80.889 257.951C80.7233 258.15 80.4913 258.316 80.2592 258.415C80.1598 258.449 80.0935 258.515 80.0603 258.614C79.9609 258.879 79.8614 259.144 79.8283 259.443C79.7951 259.608 79.9277 259.642 80.0603 259.642C80.2924 259.608 80.5244 259.542 80.7565 259.443C80.889 259.41 80.9553 259.277 80.9222 259.144C80.9222 259.144 80.9222 259.111 80.889 259.111L80.8228 258.912C80.8228 258.879 80.8228 258.879 80.8228 258.846V258.813V258.78C80.8228 258.747 80.8559 258.747 80.8559 258.714C80.889 258.681 80.9553 258.614 80.9885 258.581C81.0548 258.548 81.1211 258.515 81.2205 258.515C81.2868 258.515 81.32 258.548 81.3863 258.548C81.6846 258.647 81.983 258.548 82.1487 258.283C82.1819 258.25 82.1819 258.217 82.215 258.183C82.2813 258.084 82.3476 258.018 82.4139 257.951C83.0106 257.554 83.6736 257.222 84.3697 256.99C84.436 256.99 84.4691 256.924 84.5023 256.858C84.5023 256.758 84.5023 256.692 84.5023 256.593C84.4691 256.361 84.4691 256.095 84.5023 255.863C84.5023 255.698 84.5686 255.399 84.8006 255.399C84.9001 255.399 84.9664 255.466 84.9995 255.532C85.2316 255.797 85.4968 256.029 85.8282 256.129C85.9277 256.162 86.0271 256.195 86.1266 256.228C86.3918 256.361 86.5575 256.593 86.6238 256.858C86.657 257.023 86.6238 257.156 86.5244 257.289C86.2923 257.587 86.0603 257.918 85.8614 258.25C85.7619 258.415 85.6294 258.581 85.4636 258.681C85.1984 258.846 84.9664 259.045 84.7343 259.244C84.5354 259.376 84.4028 259.542 84.2702 259.741C84.1376 260.072 84.0382 260.404 83.9388 260.735C83.8725 260.934 84.0051 260.967 84.1708 260.934C84.436 260.868 84.668 260.768 84.9001 260.636C84.9332 260.603 84.9664 260.603 84.9995 260.57C85.0327 260.536 85.0658 260.47 85.0327 260.437C85.0327 260.338 84.9995 260.271 84.9332 260.205C84.8669 260.139 84.8338 260.006 84.8669 259.907C84.8669 259.907 84.8669 259.874 84.9001 259.874C84.9332 259.807 84.9995 259.774 85.0658 259.774C85.2647 259.708 85.4305 259.675 85.6294 259.608C85.8614 259.575 86.0934 259.443 86.2923 259.277C86.3255 259.244 86.3586 259.178 86.3586 259.144V259.111C86.5907 258.349 87.0879 257.686 87.784 257.289C87.8835 257.255 87.9166 257.156 87.9498 257.057C87.9829 256.957 87.9498 256.858 87.9166 256.758L87.3863 255.93C87.2205 255.731 87.1211 255.466 87.0879 255.201C87.0879 254.935 87.1542 254.67 87.2868 254.405C87.32 254.339 87.3863 254.273 87.4194 254.206C87.5188 254.007 87.6846 253.941 87.8172 253.742C87.9498 253.577 88.0824 253.378 88.215 253.179C88.3476 252.914 88.4139 252.649 88.4802 252.383C88.5465 252.185 88.447 251.953 88.447 251.721C88.447 251.654 88.4802 251.555 88.5465 251.522C88.6459 251.389 88.7785 251.29 88.9111 251.223C89.0768 251.19 89.2094 251.19 89.3752 251.257C89.6404 251.323 89.8393 251.455 90.1045 251.522C90.2371 251.555 90.4028 251.555 90.5354 251.489C90.7012 251.455 90.8337 251.356 90.9332 251.257C90.9332 251.19 90.9332 251.091 90.9 251.091ZM81.2868 246.65C81.32 246.948 81.0879 247.213 80.7896 247.213C80.7565 247.213 80.7565 247.213 80.7233 247.213C80.6239 247.213 80.5907 247.048 80.5576 246.816C80.5576 246.65 80.5576 246.584 80.5576 246.55C80.5576 246.451 80.5576 246.318 80.5576 246.219C80.5576 246.153 80.5576 246.053 80.5576 245.987C80.5576 245.921 80.5576 245.788 80.5576 245.722C80.5576 245.523 80.5576 245.324 80.5244 245.125C80.4913 244.893 80.425 244.628 80.3587 244.396C80.3255 244.23 80.2592 244.131 80.1929 243.965C80.1598 243.899 80.1266 243.833 80.0935 243.766C80.0603 243.7 80.0272 243.667 79.9609 243.601C79.8946 243.534 79.7951 243.501 79.7288 243.435C79.6957 243.402 79.7288 243.369 79.762 243.369C80.0272 243.203 80.3918 243.269 80.6239 243.468C80.9885 243.766 81.2205 244.23 81.2537 244.728C81.3863 245.324 81.3863 245.987 81.2868 246.65ZM52.1157 260.304H71.6405C69.8173 258.349 68.7897 255.764 68.7565 253.113V252.814H50.9224C51.0218 255.333 51.4196 257.852 52.1157 260.304ZM80.3255 269.717H56.0605C56.6903 270.877 57.3864 272.037 58.1488 273.197C59.077 274.622 60.1046 275.981 61.2317 277.273H80.3255V269.717ZM111.651 236.044H93.7509V237.536V240.751V242.673H111.552C111.585 240.485 111.618 238.265 111.651 236.044ZM111.85 224.909C111.85 224.909 111.817 224.909 111.817 224.875C108.602 223.583 105.32 222.522 101.972 221.661C97.3641 220.534 92.6569 219.771 87.9498 219.374C85.6957 219.175 83.6736 219.109 81.4194 219.075V226.433H111.817C111.85 225.903 111.85 225.406 111.85 224.909ZM92.6238 235.812H69.7178C69.6847 235.812 69.6515 235.845 69.6515 235.879L69.6847 252.847C69.751 255.93 71.1101 258.813 73.4968 260.802C75.6515 262.658 78.4029 263.718 81.2537 263.751C83.3752 263.718 85.4305 263.155 87.2205 262.061C89.5078 260.735 91.2647 258.614 92.1597 256.129C92.458 255.3 92.6238 254.405 92.6569 253.51V235.879C92.6901 235.812 92.6569 235.812 92.6238 235.812ZM92.1597 253.345C92.1597 254.206 91.994 255.068 91.6956 255.863C90.8337 258.25 89.1763 260.271 86.9885 261.564C85.2647 262.591 83.3089 263.155 81.2868 263.188C78.5686 263.155 75.9498 262.16 73.8946 260.338C71.6405 258.449 70.3145 255.631 70.2814 252.682L70.2151 236.409C70.2151 236.376 70.2151 236.343 70.2482 236.343H92.0934C92.1266 236.343 92.1597 236.376 92.1597 236.376V253.345ZM85.5299 263.851C84.7675 264.149 83.9719 264.348 83.1432 264.48C83.1763 264.547 83.1763 264.613 83.2095 264.679C83.2758 264.845 83.4415 264.978 83.6404 264.978C83.9056 265.011 84.1045 264.845 84.3034 264.414C84.3365 264.381 84.436 264.315 84.4691 264.381C84.668 264.712 85.1321 265.011 85.4636 264.845C85.7288 264.679 85.7951 264.348 85.6294 264.116C85.6294 264.116 85.6294 264.083 85.5962 264.083C85.6294 264.05 85.5631 263.884 85.5299 263.851Z" fill="black"/>
</svg>
