<svg width="512" height="512" viewBox="0 0 512 512" fill="none" xmlns="http://www.w3.org/2000/svg">
<path fill-rule="evenodd" clip-rule="evenodd" d="M421.517 285.468V251.647H419.34L401.148 285.468H373.733L355.541 251.647H353.876V285.468H312.881V225H377.064L388.337 243.832L400.379 225H462V285.468H421.517Z" fill="black"/>
<path fill-rule="evenodd" clip-rule="evenodd" d="M140.829 264.714C140.829 264.714 158.124 261.127 158.124 247.419C158.124 225.128 130.965 225.128 130.965 225.128H50V286.108H94.1977V265.995H100.987L116.104 285.724H163.12L140.829 264.714ZM104.19 251.775H93.8134V237.555H105.215C109.443 237.811 112.774 241.398 112.774 245.626C112.774 251.647 104.318 251.775 104.318 251.775H104.19Z" fill="black"/>
<path fill-rule="evenodd" clip-rule="evenodd" d="M270.22 225.128H203.988L172.217 285.596H216.927L223.076 270.991H250.363L256.256 285.468H301.607L270.22 225.128ZM227.304 257.155L236.912 238.323L246.392 257.155H227.304Z" fill="black"/>
</svg>
