<svg width="512" height="512" viewBox="0 0 512 512" fill="none" xmlns="http://www.w3.org/2000/svg">
<g clip-path="url(#clip0_4094_3931)">
<path d="M499 231.869H488.839V268.307L459.48 231.869H447.43V280.922H457.591V244.484L486.945 280.922H499V231.869ZM400.3 231.869H389.089L364.987 280.917H376.198L379.212 274.613C380.471 271.951 382.435 270.757 385.379 270.757H403.598L401.425 266.133C400.094 263.258 397.921 261.93 394.701 261.93H385.384L394.701 242.591L413.196 280.918H424.409L400.3 231.869ZM341.996 231.869H331.483V280.917H341.996V231.869ZM308.303 231.869H297.092L279.295 269.849L261.496 231.869H250.285L273.688 280.922H284.899L308.303 231.869ZM227.293 231.869H216.781V280.917H227.293V231.869ZM189.502 248.2C189.502 239.933 183.896 231.874 171.843 231.874H140.662V280.922H151.175V240.701H170.306C176.194 240.701 178.994 243.576 178.994 248.2C178.994 252.894 176.189 255.768 170.306 255.768H162.168C158.48 255.768 156.408 257.84 156.408 261.527V264.6H162.247C164.978 264.6 167.01 265.512 168.695 267.683L179.063 280.926H191.955L177.522 262.568C185.229 260.809 189.502 255.763 189.502 248.2Z" fill="white"/>
<path d="M67.5975 266.82C70.1154 264.521 74.5512 260.219 76.2017 258.291C76.9549 257.438 76.9054 256.373 76.9054 256.373C76.9054 256.373 76.9549 255.307 76.2017 254.455C74.5512 252.527 70.1154 248.224 67.5975 245.925C66.5667 244.963 66.3188 244.359 66.3188 243.179V230.139C66.3188 229.52 66.9086 229.247 67.4094 229.683C73.0247 234.883 85.5343 247.278 89.7271 252.081C91.7294 254.207 91.5461 256.373 91.5461 256.373C91.5461 256.373 91.7294 258.534 89.7271 260.665C85.5292 265.468 73.0196 277.863 67.4094 283.062C66.9086 283.498 66.3188 283.226 66.3188 282.606V269.566C66.3239 268.382 66.5667 267.782 67.5975 266.82ZM60.2127 266.81C57.695 264.511 53.2592 260.209 51.6088 258.281C50.8553 257.428 50.9048 256.363 50.9048 256.363C50.9048 256.363 50.8553 255.297 51.6088 254.445C53.2592 252.516 57.695 248.215 60.2127 245.915C61.2435 244.953 61.4914 244.349 61.4914 243.169V230.09C61.4914 229.564 60.8769 229.237 60.4011 229.678C54.7858 234.877 42.2762 247.273 38.0831 252.075C36.0758 254.202 36.2642 256.368 36.2642 256.368C36.2642 256.368 36.0808 258.529 38.0831 260.66C42.281 265.462 54.7906 277.858 60.4011 283.057C60.9016 283.493 61.4914 283.221 61.4914 282.601V269.561C61.4914 268.372 61.2435 267.767 60.2127 266.81ZM14.1935 260.144C19.8386 265.968 50.3793 297.47 56.1023 302.014C58.0998 303.615 60.672 304.79 63.8984 304.79C67.13 304.79 69.7022 303.615 71.6948 302.014C77.4193 297.469 107.958 265.966 113.604 260.144C114.064 259.614 113.648 258.781 112.954 258.781C110.134 258.781 103.597 258.771 99.6568 258.771C98.2689 258.771 97.8577 259.014 96.9851 259.951C96.1129 260.888 91.7714 265.546 91.7714 265.546C86.2499 271.499 72.7839 284.643 67.8623 288.786C66.0138 290.343 63.9222 290.293 63.8924 290.293C63.8625 290.293 61.771 290.343 59.9224 288.786C55.0009 284.638 41.5348 271.494 36.0134 265.546C36.0134 265.546 31.6716 260.888 30.7994 259.951C29.9271 259.014 29.5157 258.771 28.128 258.771C24.1927 258.771 17.6505 258.781 14.8303 258.781C14.1463 258.781 13.73 259.614 14.1909 260.144H14.1935ZM113.611 252.645C107.966 246.822 77.4253 215.32 71.7023 210.775C69.7049 209.175 67.1327 208 63.9062 208C60.6746 208 58.1024 209.175 56.1101 210.775C50.3854 215.32 19.8393 246.823 14.1939 252.645C13.733 253.176 14.1493 254.008 14.8432 254.008C17.6632 254.008 24.2006 254.018 28.1409 254.018C29.5287 254.018 29.94 253.776 30.8123 252.839C31.6846 251.902 36.0263 247.243 36.0263 247.243C41.5476 241.291 55.0138 228.147 59.9354 224.003C61.7839 222.447 63.8755 222.497 63.9053 222.497C63.9349 222.497 66.0265 222.447 67.8753 224.003C72.7968 228.152 86.2629 241.295 91.7841 247.243C91.7841 247.243 96.1258 251.902 96.9981 252.839C97.8704 253.776 98.2819 254.018 99.6695 254.018C103.605 254.018 110.147 254.008 112.967 254.008C113.661 254.013 114.072 253.176 113.611 252.645Z" fill="white"/>
</g>
<defs>
<clipPath id="clip0_4094_3931">
<rect width="485" height="97" fill="white" transform="translate(14 208)"/>
</clipPath>
</defs>
</svg>
