<svg width="512" height="512" viewBox="0 0 512 512" fill="none" xmlns="http://www.w3.org/2000/svg">
<path d="M256.569 107C298.52 107 343.496 115.517 379.291 138.145C402.537 152.961 424.178 175.412 424.178 204.673C424.178 238.84 394.884 263.685 366.821 278.227C333.429 295.448 293.97 302.267 256.559 302.267C214.617 302.267 169.731 293.848 133.926 271.132C110.679 256.316 88.9502 233.865 88.9502 204.673C88.9502 170.349 118.166 145.592 146.307 131.04C179.797 113.829 219.168 107 256.569 107ZM256.214 117.382C217.208 117.382 175.168 124.653 141.323 144.964C120.037 157.652 99.017 177.62 99.017 204.143C99.017 235.298 127.513 257.101 152.986 269.621C184.516 284.958 221.384 290.924 256.214 290.924C295.299 290.924 337.349 283.634 371.194 263.322C392.392 250.546 413.5 230.676 413.5 204.153C413.5 172.93 385.083 151.097 359.532 138.684C327.992 123.318 291.123 117.382 256.214 117.382ZM108.995 182.585L173.208 171.674L192.534 129.883L211.781 171.674L275.983 182.585L211.781 193.595L192.534 235.474L173.208 193.595L108.995 182.585ZM250.157 214.426L278.476 209.471L286.937 190.572L295.398 209.471L323.727 214.426L295.398 219.303L286.937 238.212L278.476 219.303L250.157 214.426ZM308.765 164.04L337.084 159.163L345.545 140.186L354.006 159.163L382.325 164.04L354.006 169.005L345.545 187.913L337.074 169.005L308.765 164.04ZM278.476 253.48L306.706 248.603L315.167 229.616L323.717 248.603L352.036 253.48L323.717 258.445L315.167 277.354L306.706 258.445L278.476 253.48ZM191.47 260.309L219.789 255.433L228.339 236.426L236.79 255.433L265.119 260.309L236.79 265.274L228.339 284.183L219.789 265.274L191.47 260.309ZM333.882 213.651L362.113 208.676L370.574 189.778L379.124 208.676L407.443 213.651L379.124 218.528L370.564 237.407L362.103 218.518L333.882 213.651Z" fill="#14478A"/>
<path d="M105.885 347.416H122.1V386.758C122.1 390.376 124.159 391.838 127.632 391.838H155.252C158.72 391.838 160.783 390.376 160.783 386.758V347.416H176.99V389.341C176.99 398.239 169.437 404.98 160.779 404.98H122.096C113.476 404.98 105.881 398.2 105.881 389.341V347.416H105.885Z" fill="#14478A"/>
<path d="M28.5397 387.227H44.6644C44.93 390.504 46.836 391.846 50.0407 391.846H79.6672C82.4123 391.846 83.9345 389.464 83.9345 386.878C83.9345 383.413 81.4214 381.598 78.1787 381.598H45.883C35.2443 381.598 28 376.356 28 365.029C28 359.135 30.2897 352.892 35.4762 349.73C38.7146 347.723 42.6783 347.416 46.4185 347.416H84.4658C92.7052 347.416 99.3339 353.31 99.258 361.786V364.829H82.602C82.4502 362.208 80.9238 360.516 78.1829 360.516H50.0828C47.2239 360.516 44.8204 361.978 44.8204 365.178C44.8204 368.34 47.2619 369.533 50.0449 369.533H84.4742C95.6063 369.533 101.366 377.05 101.366 387.994C101.366 398.473 96.5593 404.98 85.8067 404.98H44.6686C35.2864 404.98 28.6536 401.171 28.5777 391.075L28.5397 387.227Z" fill="#14478A"/>
<path d="M412.899 347.416H429.142V386.758C429.142 390.376 431.204 391.838 434.671 391.838H462.27C465.736 391.838 467.798 390.376 467.798 386.758V347.416H484V389.341C484 398.196 476.413 404.98 467.798 404.98H429.134C420.481 404.98 412.891 398.239 412.891 389.341L412.899 347.416Z" fill="#14478A"/>
<path d="M275.998 393.618L269.591 404.98H251.485L282.6 347.416H303.891L335.01 404.98H316.896L310.489 393.618H275.998ZM293.224 361.983L282.943 381.174H303.548L293.224 361.983Z" fill="#14478A"/>
<path d="M182.634 347.416H232.674C243.404 347.416 251.351 351.192 251.351 363.33C251.351 368.572 249.293 373.157 244.71 375.74C249.745 378.438 252.614 383.441 252.614 389.22C252.614 397.352 247.452 404.98 238.787 404.98H182.634V347.416ZM199.249 391.841H230.114C233.126 391.841 235.918 390.188 235.918 386.872C235.918 383.595 233.092 381.903 230.114 381.903H199.249V391.841ZM199.249 369.999H230.114C232.898 369.999 234.66 368.035 234.66 365.299C234.66 362.563 232.94 360.525 230.114 360.525H199.249V369.999Z" fill="#14478A"/>
<path d="M337.268 347.416H392.027C402.954 347.416 408.223 356.356 408.223 366.336C408.223 372.804 405.88 378.855 399.955 381.944C405.727 384.753 408.376 389.184 408.376 395.661V404.98H392.027V395.665C392.027 390.194 388.995 388.23 383.721 388.23H354.119V404.98H337.272L337.268 347.416ZM354.114 375.118H384.763C388.718 375.118 391.377 371.573 391.377 367.836C391.377 363.059 387.838 360.515 383.261 360.515H354.114V375.118Z" fill="#14478A"/>
</svg>
