<svg width="512" height="512" viewBox="0 0 512 512" fill="none" xmlns="http://www.w3.org/2000/svg">
<path d="M124.002 219.221C140.02 219.221 157.193 222.473 170.861 231.113C179.737 236.77 188 245.343 188 256.515C188 269.561 176.815 279.048 166.099 284.6C153.349 291.176 138.283 293.78 123.998 293.78C107.984 293.78 90.8444 290.565 77.173 281.891C68.2969 276.234 60 267.662 60 256.515C60 243.409 71.1553 233.956 81.9006 228.4C94.6882 221.828 109.721 219.221 124.002 219.221ZM123.866 223.185C108.973 223.185 92.9205 225.961 79.9975 233.717C71.8699 238.561 63.8438 246.186 63.8438 256.313C63.8438 268.209 74.7245 276.534 84.4506 281.314C96.4898 287.17 110.567 289.448 123.866 289.448C138.79 289.448 154.846 286.665 167.769 278.909C175.863 274.031 183.923 266.444 183.923 256.317C183.923 244.395 173.072 236.058 163.316 231.319C151.273 225.451 137.196 223.185 123.866 223.185ZM67.6537 248.081L92.1721 243.915L99.5513 227.958L106.9 243.915L131.415 248.081L106.9 252.285L99.5513 268.276L92.1721 252.285L67.6537 248.081ZM121.553 260.239L132.366 258.347L135.597 251.131L138.828 258.347L149.645 260.239L138.828 262.101L135.597 269.321L132.366 262.101L121.553 260.239ZM143.932 241L154.745 239.138L157.975 231.892L161.206 239.138L172.019 241L161.206 242.896L157.975 250.116L154.741 242.896L143.932 241ZM132.366 275.151L143.146 273.289L146.376 266.039L149.641 273.289L160.454 275.151L149.641 277.047L146.376 284.267L143.146 277.047L132.366 275.151ZM99.1451 277.759L109.958 275.897L113.223 268.639L116.45 275.897L127.266 277.759L116.45 279.655L113.223 286.874L109.958 279.655L99.1451 277.759ZM153.522 259.943L164.302 258.044L167.532 250.828L170.797 258.044L181.61 259.943L170.797 261.805L167.529 269.014L164.298 261.802L153.522 259.943Z" fill="#14478A"/>
<path d="M256.514 240.002H265.629V261.898C265.629 263.911 266.786 264.725 268.738 264.725H284.263C286.213 264.725 287.372 263.911 287.372 261.898V240.002H296.482V263.335C296.482 268.287 292.237 272.039 287.37 272.039H265.626C260.781 272.039 256.512 268.266 256.512 263.335V240.002H256.514Z" fill="#14478A"/>
<path d="M213.304 262.157H222.373C222.522 263.98 223.594 264.727 225.397 264.727H242.061C243.605 264.727 244.461 263.402 244.461 261.962C244.461 260.034 243.047 259.023 241.223 259.023H223.058C217.075 259.023 213 256.106 213 249.802C213 246.522 214.288 243.048 217.205 241.288C219.027 240.171 221.256 240 223.36 240H244.76C249.394 240 253.122 243.28 253.08 247.997V249.691H243.711C243.626 248.232 242.767 247.291 241.226 247.291H225.421C223.813 247.291 222.461 248.104 222.461 249.885C222.461 251.645 223.834 252.309 225.399 252.309H244.764C251.026 252.309 254.265 256.493 254.265 262.583C254.265 268.415 251.562 272.037 245.514 272.037H222.375C217.098 272.037 213.368 269.917 213.325 264.298L213.304 262.157Z" fill="#14478A"/>
<path d="M429.011 240.002H438.146V261.898C438.146 263.911 439.306 264.725 441.256 264.725H456.779C458.728 264.725 459.888 263.911 459.888 261.898V240.002H469V263.335C469 268.263 464.733 272.039 459.888 272.039H438.142C433.275 272.039 429.006 268.287 429.006 263.335L429.011 240.002Z" fill="#14478A"/>
<path d="M352.132 265.714L348.551 272.037H338.431L355.822 240.002H367.724L385.118 272.037H374.993L371.412 265.714H352.132ZM361.761 248.108L356.015 258.788H367.532L361.761 248.108Z" fill="#14478A"/>
<path d="M299.961 240.002H328.054C334.078 240.002 338.539 242.103 338.539 248.858C338.539 251.775 337.384 254.327 334.811 255.764C337.638 257.266 339.248 260.05 339.248 263.266C339.248 267.791 336.35 272.037 331.486 272.037H299.961V240.002ZM309.289 264.725H326.617C328.308 264.725 329.875 263.804 329.875 261.959C329.875 260.135 328.289 259.194 326.617 259.194H309.289V264.725ZM309.289 252.57H326.617C328.18 252.57 329.169 251.476 329.169 249.954C329.169 248.431 328.203 247.297 326.617 247.297H309.289V252.57Z" fill="#14478A"/>
<path d="M386.851 240.002H417.386C423.479 240.002 426.418 244.978 426.418 250.532C426.418 254.133 425.111 257.5 421.807 259.22C425.026 260.783 426.503 263.249 426.503 266.854V272.041H417.386V266.857C417.386 263.812 415.695 262.718 412.754 262.718H396.247V272.041H386.853L386.851 240.002ZM396.245 255.42H413.335C415.541 255.42 417.023 253.447 417.023 251.367C417.023 248.708 415.05 247.293 412.498 247.293H396.245V255.42Z" fill="#14478A"/>
</svg>
