<svg width="512" height="512" viewBox="0 0 512 512" fill="none" xmlns="http://www.w3.org/2000/svg">
<path d="M50 229.13C51.2005 233.813 55.2544 238.598 60.8163 239.797H77.6261L78.4836 240.136V282.554H88.9806V240.136L89.9342 239.797H106.759C112.383 238.348 116.349 233.813 117.529 229.13V229.027H50V229.13Z" fill="#E82127"/>
<path d="M153.892 282.673H193.826C199.382 281.569 203.511 276.673 204.669 271.935H143.049C144.199 276.675 148.389 281.569 153.892 282.673Z" fill="#E82127"/>
<path d="M153.892 260.915H193.826C199.382 259.819 203.511 254.923 204.669 250.178H143.049C144.199 254.924 148.389 259.819 153.892 260.915Z" fill="#E82127"/>
<path d="M153.892 239.741H193.826C199.382 238.633 203.511 233.741 204.669 229H143.049C144.199 233.741 148.389 238.633 153.892 239.741Z" fill="#E82127"/>
<path d="M244.968 239.639H281.861C287.423 238.023 292.094 233.786 293.232 229.089H234.627V260.75H282.593V271.86L244.968 271.89C239.072 273.534 234.072 277.493 231.578 282.722L234.627 282.666H292.899V250.223H244.968V239.639Z" fill="#E82127"/>
<path d="M370.518 282.679C375.756 280.459 378.574 276.618 379.653 272.123H333.057L333.087 229.074L322.642 229.104V282.679H370.518Z" fill="#E82127"/>
<path d="M411.214 239.783H451.161C456.71 238.68 460.836 233.784 462 229.047H400.377C401.529 233.785 405.716 238.68 411.214 239.783Z" fill="#E82127"/>
<path d="M401.982 250.263V282.658H412.371V261.089H450.183V282.658H460.564V250.319L401.982 250.263Z" fill="#E82127"/>
</svg>
