<svg width="512" height="512" viewBox="0 0 512 512" fill="none" xmlns="http://www.w3.org/2000/svg">
<path d="M117 400.189C117.812 403.356 120.554 406.593 124.316 407.404H135.686L136.266 407.633V436.324H143.366V407.633L144.011 407.404H155.391C159.195 406.424 161.878 403.356 162.676 400.189V400.119H117V400.189Z" fill="#E82127"/>
<path d="M187.271 436.405H214.282C218.04 435.658 220.833 432.347 221.616 429.142H179.937C180.715 432.348 183.549 435.658 187.271 436.405Z" fill="#E82127"/>
<path d="M187.271 421.688H214.282C218.04 420.947 220.833 417.635 221.616 414.426H179.937C180.715 417.636 183.549 420.947 187.271 421.688Z" fill="#E82127"/>
<path d="M187.271 407.366H214.282C218.04 406.617 220.833 403.308 221.616 400.101H179.937C180.715 403.308 183.549 406.617 187.271 407.366Z" fill="#E82127"/>
<path d="M248.874 407.297H273.828C277.59 406.204 280.749 403.338 281.519 400.161H241.879V421.576H274.323V429.091L248.874 429.111C244.886 430.223 241.504 432.901 239.817 436.438L241.879 436.4H281.294V414.456H248.874V407.297Z" fill="#E82127"/>
<path d="M333.795 436.409C337.338 434.907 339.244 432.309 339.974 429.269H308.457L308.477 400.151L301.412 400.171V436.409H333.795Z" fill="#E82127"/>
<path d="M361.321 407.395H388.341C392.094 406.649 394.885 403.337 395.672 400.133H353.991C354.77 403.338 357.602 406.649 361.321 407.395Z" fill="#E82127"/>
<path d="M355.077 414.483V436.395H362.104V421.806H387.679V436.395H394.701V414.521L355.077 414.483Z" fill="#E82127"/>
<path d="M256.35 328.502L291.826 128.983C325.641 128.983 336.307 132.691 337.847 147.826C337.847 147.826 360.531 139.368 371.972 122.19C327.326 101.502 282.467 100.569 282.467 100.569L256.291 132.451L256.35 132.447L230.174 100.564C230.174 100.564 185.314 101.498 140.674 122.186C152.105 139.364 174.798 147.822 174.798 147.822C176.347 132.686 187 128.978 220.588 128.954L256.35 328.502Z" fill="#E82127"/>
<path d="M256.336 91.36C292.426 91.084 333.735 96.943 376.023 115.374C381.675 105.201 383.128 100.705 383.128 100.705C336.901 82.416 293.61 76.157 256.331 76C219.054 76.157 175.765 82.417 129.544 100.705C129.544 100.705 131.606 106.243 136.644 115.374C178.924 96.943 220.24 91.084 256.331 91.36H256.336Z" fill="#E82127"/>
</svg>
