<svg width="512" height="512" viewBox="0 0 512 512" fill="none" xmlns="http://www.w3.org/2000/svg">
<path fill-rule="evenodd" clip-rule="evenodd" d="M101.378 285.993C96.0042 282.626 92.0436 271.009 92.0436 257.204C92.0436 256.697 92.0457 256.197 92.0586 255.699L92.0628 255.705C77.1137 253.356 66.3134 246.921 66.0355 239.307L65.9927 239.397C62.3356 243.943 60.2474 249.199 60.2474 254.799C60.2474 271.279 78.3363 284.781 101.282 285.976L101.378 285.993ZM53.335 256C53.335 237.563 76.2823 222.612 104.588 222.612C132.896 222.612 155.843 237.563 155.843 256C155.843 274.44 132.896 289.391 104.588 289.391C76.2823 289.391 53.335 274.44 53.335 256ZM104.59 227.43C110.056 227.43 114.704 235.721 116.427 247.288L116.432 247.269C127.065 245.615 134.508 241.797 134.508 237.354C134.508 231.392 121.112 226.564 104.59 226.564C88.0701 226.564 74.6749 231.392 74.6749 237.354C74.6749 241.797 82.1174 245.613 92.7489 247.269L92.7554 247.288C94.4781 235.721 99.127 227.43 104.59 227.43ZM107.899 285.973C130.844 284.779 148.935 271.277 148.935 254.797C148.935 249.197 146.845 243.941 143.19 239.395L143.145 239.305C142.869 246.919 132.069 253.354 117.118 255.703L117.124 255.697C117.135 256.195 117.139 256.695 117.139 257.202C117.139 271.007 113.176 282.624 107.805 285.99L107.899 285.973ZM104.59 248.145C106.963 248.148 109.334 248.047 111.697 247.842L111.695 247.844C110.562 240.431 107.809 235.197 104.592 235.197C101.376 235.197 98.6247 240.431 97.4897 247.844L97.4876 247.842C99.8496 248.046 102.219 248.147 104.59 248.145ZM104.59 275.603C108.705 275.603 112.063 267.04 112.24 256.304L112.261 256.31C107.159 256.78 102.024 256.78 96.9212 256.31L96.9426 256.304C97.12 267.04 100.476 275.603 104.59 275.603ZM314.874 256C314.874 241.908 326.3 230.482 340.392 230.482C354.491 230.482 365.915 241.908 365.915 256C365.915 270.097 354.488 281.519 340.392 281.519C326.3 281.519 314.874 270.097 314.874 256ZM340.392 272.161C348.262 272.161 354.645 264.924 354.645 255.998C354.645 247.075 348.262 239.837 340.392 239.837C332.522 239.837 326.144 247.075 326.144 255.998C326.144 264.926 332.524 272.161 340.392 272.161ZM394.873 241.113V280.361H384.117V241.113H384.156H369.119V232.241H409.871V241.113H394.873ZM422.879 269.535L422.871 269.545L418.746 280.363H406.184L426.039 232.241H439.423L459.273 280.363H446.716L442.591 269.545L442.578 269.535H422.879ZM432.731 261.412H439.498L439.494 261.414L432.776 243.802H432.684L425.966 261.414L425.962 261.412H432.731ZM196.664 241.113V280.361H185.91V241.113H185.949H170.91V232.241H211.664V241.113H196.664ZM214.415 256C214.415 241.908 225.842 230.482 239.938 230.482C254.032 230.482 265.459 241.908 265.459 256C265.459 270.097 254.032 281.519 239.938 281.519C225.842 281.519 214.415 270.097 214.415 256ZM239.938 272.161C247.806 272.161 254.188 264.924 254.188 255.998C254.188 247.075 247.806 239.837 239.938 239.837C232.068 239.837 225.688 247.075 225.688 255.998C225.688 264.926 232.068 272.161 239.938 272.161ZM290.163 280.361H295.615V262.09L314.376 232.241H301.818L290.163 252.467L278.512 232.241H265.955L284.713 262.09V280.361H290.163Z" fill="#D71920"/>
</svg>
