<svg width="512" height="512" viewBox="0 0 512 512" fill="none" xmlns="http://www.w3.org/2000/svg">
<g clip-path="url(#clip0_1563_15750)">
<path fill-rule="evenodd" clip-rule="evenodd" d="M196.508 434.141C190.858 427.766 182.769 425.241 181.571 416.171H170.314V461.866H181.399V434.141C181.399 435.852 189.36 440.43 192.485 445.137C194.59 447.735 195.951 450.855 196.422 454.165C196.73 456.734 196.83 459.324 196.722 461.909H207.55V416.213H196.508V434.141Z" fill="#3C3C3C"/>
<path fill-rule="evenodd" clip-rule="evenodd" d="M320.758 416.177H309.544C306.077 427.686 301.883 441.078 298.33 452.545C297.389 455.668 296.533 458.578 295.505 461.872H304.065C307.19 461.872 307.19 461.872 308.346 458.749C309.501 455.625 309.501 455.069 313.567 455.069C317.633 455.069 319.388 455.54 321.1 452.459L322.555 449.678C323.497 453.7 324.481 457.765 325.466 461.915H338.991C338.691 460.888 330.431 433.591 326.151 419.856C325.841 418.7 325.126 417.692 324.136 417.017C323.147 416.342 321.948 416.044 320.758 416.177ZM314.808 445.1C313.995 445.1 312.326 445.485 311.984 446.597L312.454 445.1L316.734 430.596C317.034 431.537 319.602 440.308 321.015 445.1H314.808Z" fill="#3C3C3C"/>
<path fill-rule="evenodd" clip-rule="evenodd" d="M390.006 436.752C383.929 433.885 379.049 433.628 379.049 429.82C379.049 427.381 380.933 425.798 384.1 425.798C387.909 425.798 391.547 427.424 391.547 430.077C392.657 430.076 393.741 429.735 394.651 429.1C395.562 428.465 396.256 427.567 396.64 426.526C396.957 425.22 396.881 423.851 396.425 422.589C395.968 421.326 395.15 420.225 394.072 419.423C391.12 417.61 387.775 416.532 384.32 416.279C380.864 416.026 377.398 416.605 374.213 417.969C371.907 418.814 369.932 420.375 368.577 422.423C367.222 424.47 366.557 426.898 366.68 429.35C366.68 435.725 373.442 439.404 375.925 440.773C378.407 442.143 381.874 443.683 383.8 444.71C385.726 445.737 387.181 447.79 386.839 449.331C386.497 450.871 383.971 451.769 382.559 451.727C379.822 451.619 377.151 450.856 374.769 449.502C371.759 448.023 369.023 446.04 366.68 443.64V451.769C366.68 454.978 369.548 457.16 372.116 458.829C375.476 460.88 379.35 461.934 383.287 461.867C385.455 461.979 387.624 461.659 389.666 460.924C391.709 460.189 393.586 459.055 395.185 457.588C397.528 455.195 398.861 451.994 398.909 448.646C398.909 443.426 396.555 440.089 389.835 436.752" fill="#3C3C3C"/>
<path fill-rule="evenodd" clip-rule="evenodd" d="M80.1316 416.305C81.0732 426.873 75.0811 435.687 72.7271 445.313C70.6727 439.751 66.307 426.06 64.5094 420.583C63.8246 418.487 62.9686 416.305 60.2293 416.305C56.8053 416.305 53.3812 416.305 50 416.305C50 416.561 50 416.732 50 416.861C55.2645 431.579 60.8285 447.282 66.1358 462H75.2951C76.2673 461.845 77.1789 461.428 77.9327 460.795C78.6865 460.162 79.2542 459.336 79.5752 458.406C81.116 453.913 88.1353 434.874 90.1895 428.456C91.6033 424.614 92.2012 420.519 91.9444 416.433L80.1316 416.305Z" fill="#3C3C3C"/>
<path fill-rule="evenodd" clip-rule="evenodd" d="M242.561 461.909H255.016V444.067H261.607C265.887 444.067 267.984 441.799 267.984 438.248V433.97C263.704 433.97 259.424 433.97 255.144 433.97V426.525H269.568V416.171H242.561V461.909Z" fill="#3C3C3C"/>
<path fill-rule="evenodd" clip-rule="evenodd" d="M443.98 416.173H426.089V425.8H436.875V461.911H449.373C449.373 449.845 449.373 437.865 449.373 425.8C456.735 425.8 457.505 426.056 459.987 424.045C462.47 422.034 461.956 421.093 461.956 413.948C458.618 416.515 449.801 416.173 443.937 416.173" fill="#3C3C3C"/>
<path fill-rule="evenodd" clip-rule="evenodd" d="M130.852 416.171H123.233V461.909H135.56C135.56 454.892 135.56 448.132 135.56 441.372C135.56 434.611 135.56 427.595 135.56 420.663C135.604 420.064 135.514 419.462 135.295 418.902C135.076 418.342 134.734 417.838 134.295 417.428C133.855 417.017 133.33 416.711 132.756 416.53C132.183 416.35 131.576 416.3 130.98 416.385" fill="#3C3C3C"/>
<path d="M420.739 50.4811C414.661 47.7428 405.673 57.5408 402.634 58.5677C393.555 60.3516 385.161 64.6512 378.409 70.9756C366.682 82.5278 293.15 193.044 275.517 213.581C266.1 224.577 258.396 234.375 256 234.375C253.603 234.375 245.899 224.577 236.482 213.581C218.849 193.001 145.232 82.5278 133.547 70.9756C126.795 64.6512 118.401 60.3516 109.322 58.5677C106.283 57.5408 97.3379 47.7428 91.2174 50.4811C86.552 52.6204 91.6026 62.504 91.6026 62.504C93.6998 68.6652 119.295 128.865 144.889 184.658C168.002 234.974 189.744 278.359 198.262 295.303C232.502 363.247 251.334 370.306 255.914 370.392C260.494 370.392 279.54 363.289 313.566 295.303C322.126 278.188 343.869 234.974 366.981 184.658C392.662 129.036 418.342 68.6652 420.182 62.504C420.311 62.504 425.404 52.6204 420.739 50.4811ZM412.179 64.5149C400.922 77.3079 321.313 242.547 303.337 273.097C285.361 303.646 262.42 341.554 256.042 341.554C249.708 341.255 226.981 303.774 208.962 273.097C190.943 242.419 111.248 77.3079 99.9915 64.5149C97.0383 61.0493 89.7622 54.2891 92.373 52.8344C96.1823 50.7379 105.213 60.8353 110.52 62.2045C117.95 63.3454 124.787 66.9285 129.952 72.3875C139.582 81.5437 157.259 110.382 188.503 156.976C208.02 186.156 224.284 208.618 233.401 220.085C244.743 234.461 252.575 241.478 256 241.478C259.424 241.478 267.213 234.589 278.555 220.085C287.672 208.661 303.936 186.198 323.453 156.976C354.698 110.382 372.331 81.5437 382.047 72.3875C387.206 66.9206 394.046 63.336 401.479 62.2045C406.871 60.8353 415.817 50.7379 419.583 52.8344C422.322 54.2891 415.046 61.0493 412.008 64.5149H412.179Z" fill="#3C3C3C"/>
<path d="M394.117 73.4976C389.837 80.5145 373.145 113.289 351.83 151.967C328.161 195.224 299.87 244.128 294.22 253.669C283.649 271.511 262.591 301.932 256 302.146C249.451 301.889 228.393 271.511 217.821 253.626C212.215 244.128 184.095 195.224 160.255 151.967C138.854 113.46 121.991 80.5145 117.968 73.4976C113.945 66.4807 115.186 64.0847 123.532 73.4976C135.987 87.9165 165.862 139.859 165.862 139.859C165.862 139.859 217.393 225.773 225.44 237.154C233.486 248.535 249.965 269.8 255.914 270.013C261.949 269.8 278.812 247.936 286.431 237.154C294.049 226.372 346.095 139.859 346.095 139.859C346.095 139.859 376.055 88.0448 388.51 73.7543C396.856 64.0847 398.183 65.8817 394.117 73.4976Z" fill="#3C3C3C"/>
</g>
<defs>
<clipPath id="clip0_1563_15750">
<rect width="412" height="412" fill="white" transform="translate(50 50)"/>
</clipPath>
</defs>
</svg>
