<svg width="512" height="512" viewBox="0 0 512 512" fill="none" xmlns="http://www.w3.org/2000/svg">
<path fill-rule="evenodd" clip-rule="evenodd" d="M186.152 251.597C179.552 244.147 170.102 241.197 168.702 230.597H155.552V283.997H168.502V251.597C168.502 253.597 177.802 258.947 181.452 264.447C183.911 267.483 185.501 271.129 186.052 274.997C186.411 278 186.528 281.026 186.402 284.047H199.052V230.647H186.152V251.597Z" fill="#3C3C3C"/>
<path fill-rule="evenodd" clip-rule="evenodd" d="M331.302 230.604H318.202C314.152 244.054 309.252 259.704 305.102 273.104C304.002 276.754 303.002 280.154 301.802 284.004H311.802C315.452 284.004 315.452 284.004 316.802 280.354C318.152 276.704 318.152 276.054 322.902 276.054C327.652 276.054 329.702 276.604 331.702 273.004L333.402 269.754C334.502 274.454 335.652 279.204 336.802 284.054H352.602C352.252 282.854 342.602 250.954 337.602 234.904C337.24 233.553 336.405 232.375 335.249 231.586C334.093 230.797 332.693 230.449 331.302 230.604ZM324.352 264.404C323.402 264.404 321.452 264.854 321.052 266.154L321.602 264.404L326.602 247.454C326.952 248.554 329.952 258.804 331.602 264.404H324.352Z" fill="#3C3C3C"/>
<path fill-rule="evenodd" clip-rule="evenodd" d="M412.198 254.648C405.098 251.298 399.398 250.999 399.398 246.549C399.398 243.699 401.598 241.848 405.298 241.848C409.748 241.848 413.998 243.748 413.998 246.848C415.295 246.847 416.561 246.448 417.624 245.706C418.688 244.965 419.499 243.915 419.948 242.699C420.318 241.173 420.23 239.573 419.697 238.097C419.163 236.621 418.207 235.335 416.948 234.398C413.499 232.28 409.592 231.02 405.555 230.724C401.518 230.428 397.47 231.105 393.748 232.699C391.055 233.687 388.748 235.51 387.165 237.903C385.581 240.296 384.805 243.133 384.948 245.998C384.948 253.448 392.848 257.748 395.748 259.348C398.648 260.948 402.698 262.749 404.948 263.949C407.198 265.149 408.898 267.548 408.498 269.348C408.098 271.148 405.148 272.198 403.498 272.148C400.301 272.022 397.18 271.131 394.398 269.549C390.881 267.82 387.685 265.504 384.948 262.699V272.199C384.948 275.949 388.298 278.499 391.298 280.449C395.224 282.846 399.75 284.076 404.348 283.998C406.881 284.129 409.415 283.755 411.801 282.896C414.188 282.038 416.38 280.713 418.248 278.998C420.985 276.202 422.543 272.461 422.598 268.549C422.598 262.449 419.848 258.548 411.998 254.648" fill="#3C3C3C"/>
<path fill-rule="evenodd" clip-rule="evenodd" d="M50.2 230.754C51.3 243.104 44.3 253.404 41.55 264.654C39.15 258.154 34.05 242.154 31.95 235.754C31.15 233.304 30.15 230.754 26.95 230.754C22.95 230.754 18.95 230.754 15 230.754C15 231.054 15 231.254 15 231.404C21.15 248.604 27.65 266.954 33.85 284.154H44.55C45.6856 283.972 46.7506 283.485 47.6312 282.746C48.5118 282.006 49.175 281.041 49.55 279.954C51.35 274.704 59.55 252.454 61.9498 244.954C63.6013 240.464 64.2998 235.679 63.9998 230.904L50.2 230.754Z" fill="#3C3C3C"/>
<path fill-rule="evenodd" clip-rule="evenodd" d="M239.951 284.047H254.501V263.197H262.201C267.201 263.197 269.651 260.547 269.651 256.397V251.397C264.651 251.397 259.651 251.397 254.651 251.397V242.697H271.501V230.597H239.951V284.047Z" fill="#3C3C3C"/>
<path fill-rule="evenodd" clip-rule="evenodd" d="M475.251 230.6H454.351V241.85H466.951V284.05H481.551C481.551 269.95 481.551 255.95 481.551 241.85C490.151 241.85 491.051 242.15 493.951 239.8C496.851 237.45 496.251 236.35 496.251 228C492.351 231 482.051 230.6 475.201 230.6" fill="#3C3C3C"/>
<path fill-rule="evenodd" clip-rule="evenodd" d="M109.452 230.597H100.552V284.047H114.952C114.952 275.847 114.952 267.947 114.952 260.047C114.952 252.147 114.952 243.947 114.952 235.847C115.004 235.147 114.898 234.444 114.642 233.789C114.386 233.135 113.987 232.546 113.474 232.067C112.96 231.587 112.346 231.228 111.676 231.017C111.006 230.806 110.297 230.748 109.602 230.847" fill="#3C3C3C"/>
</svg>
