<svg width="512" height="512" viewBox="0 0 512 512" fill="none" xmlns="http://www.w3.org/2000/svg">
<path d="M230.422 240.939C222.439 240.939 215.872 246.924 215.872 256.879C215.872 266.21 220.323 272.061 229.407 272.061C237.476 272.061 243.965 266.032 243.965 256.078C243.965 245.764 238.358 240.939 230.422 240.939ZM310.28 240.939C303.138 240.939 298.955 244.643 298.955 250.001C298.955 259.823 311.519 257.281 311.519 263.042C311.519 265.81 309.183 267.012 306.273 267.012C304.112 267.012 301.733 266.522 300.056 265.941L299.704 271.339C301.557 271.831 303.667 272.061 305.783 272.061C313.104 272.061 317.564 267.904 317.564 262.233C317.564 252.903 304.949 254.82 304.949 249.418C304.949 247.276 306.717 245.762 310.022 245.762C311.831 245.762 313.678 246.071 315.354 246.563L315.663 241.479C313.9 241.165 311.958 240.939 310.28 240.939ZM411.051 240.982C400.733 240.982 394.378 247.727 394.378 257.192C394.378 266.389 399.981 272.009 409.418 272.009C412.99 272.009 416.653 271.343 419.607 270.137V255.764H413.872V266.255C412.727 266.612 411.491 266.786 410.08 266.786C404.039 266.786 400.595 263.036 400.595 256.652C400.595 249.911 404.834 246.162 410.699 246.162C413.477 246.162 416.203 246.739 418.584 247.677L419.47 242.279C416.911 241.52 414.006 240.982 411.051 240.982ZM185.845 241.426L196.206 271.565H202.776L213.181 241.426H207.316L201.452 258.707C200.57 261.25 200.087 262.948 199.646 265.001H199.551C199.022 262.813 198.361 260.76 197.789 259.064L192.019 241.426H185.845ZM250.973 241.426V271.565H266.365V266.472H256.709V241.426H250.973ZM272.539 241.426V271.565H278.266V257.096L287.88 271.565H295.378L284.002 255.982L294.897 241.426H287.923L278.266 255.094V241.426H272.539ZM322.061 241.426L329.645 271.565H336.258L340.574 254.824C341.105 252.817 341.505 250.803 341.727 248.704H341.77C342.079 250.849 342.429 253.034 342.913 254.955L347.239 271.565H354.247L361.831 241.426H356.104L352.045 258.263C351.605 260.048 351.209 261.962 350.902 264.061H350.85C350.586 261.962 350.104 259.82 349.663 258.167L345.072 241.426H339.035L334.495 258.263C333.966 260.183 333.609 262.236 333.3 264.244H333.257C332.992 262.145 332.642 260.044 332.156 258.08L328.097 241.426H322.061ZM373.655 241.426L363.25 271.565H369.02L371.092 265.401H382.426L384.498 271.565H390.767L380.138 241.426H373.655ZM429.083 241.426V271.565H445.267V266.611H434.819V258.437H444.742V253.71H434.819V246.293H445.267V241.426H429.083ZM453.694 241.426V271.565H459.249V260.805C459.249 257.19 459.158 252.103 458.982 249.514C459.864 251.478 461.23 253.846 462.508 256.121L471.33 271.565H478.338V241.426H472.783V250.802C472.783 254.508 472.872 260.225 473.093 263.26C471.99 260.983 470.495 258.303 469.172 255.982L460.788 241.426H453.694ZM229.897 246.162C235.012 246.162 237.834 249.826 237.834 256.522C237.834 263.755 233.682 266.786 229.803 266.786C224.465 266.786 222.003 262.636 222.003 256.252C222.003 249.465 225.796 246.162 229.897 246.162ZM376.647 248.077H376.742C377.139 249.774 377.58 251.248 378.152 252.9L380.929 260.805H372.554L375.237 253.127C375.854 251.387 376.294 249.641 376.647 248.077Z" fill="#001E50"/>
<g clip-path="url(#clip0_1536_27706)">
<path d="M133.051 294.791C111.745 294.791 94.2892 277.25 94.2892 255.944C94.2892 251.153 95.1449 246.618 96.7706 242.339L119.446 287.946C119.702 288.545 120.13 289.059 120.815 289.059C121.499 289.059 121.927 288.545 122.184 287.946L132.623 264.587C132.709 264.33 132.88 264.073 133.136 264.073C133.393 264.073 133.479 264.33 133.65 264.587L144.089 287.946C144.346 288.545 144.773 289.059 145.458 289.059C146.143 289.059 146.57 288.545 146.827 287.946L169.502 242.339C171.128 246.618 171.984 251.153 171.984 255.944C171.812 277.25 154.357 294.791 133.051 294.791ZM133.051 247.131C132.794 247.131 132.709 246.874 132.537 246.618L120.387 219.236C124.323 217.782 128.601 217.012 133.051 217.012C137.5 217.012 141.779 217.782 145.715 219.236L133.564 246.618C133.393 246.96 133.308 247.131 133.051 247.131ZM120.644 275.282C120.387 275.282 120.301 275.026 120.13 274.769L100.45 235.066C103.958 229.675 108.664 225.14 114.397 221.974L128.601 253.548C128.773 254.062 129.2 254.233 129.628 254.233H136.474C136.987 254.233 137.329 254.147 137.586 253.548L151.79 221.974C157.437 225.14 162.229 229.675 165.737 235.066L145.886 274.769C145.8 275.026 145.629 275.282 145.372 275.282C145.116 275.282 145.03 275.026 144.859 274.769L137.415 257.827C137.158 257.228 136.816 257.142 136.302 257.142H129.457C128.944 257.142 128.601 257.228 128.345 257.827L121.157 274.769C121.072 275.026 120.9 275.282 120.644 275.282ZM133.051 298.728C156.753 298.728 175.834 279.646 175.834 255.944C175.834 232.242 156.753 213.161 133.051 213.161C109.349 213.161 90.2676 232.242 90.2676 255.944C90.2676 279.646 109.349 298.728 133.051 298.728Z" fill="#001E50"/>
</g>
<defs>
<clipPath id="clip0_1536_27706">
<rect width="86" height="86" fill="white" transform="translate(90 213)"/>
</clipPath>
</defs>
</svg>
