<svg width="512" height="512" viewBox="0 0 512 512" fill="none" xmlns="http://www.w3.org/2000/svg">
<path fill-rule="evenodd" clip-rule="evenodd" d="M50 230.446V238.01H62.3389L86.4857 283.547H116.2L140.346 237.935L152.683 237.857L152.71 230.446H115.797V237.883H125.627L108.576 270.256L90.1355 237.995L103.586 237.935L103.562 230.446H50Z" fill="#0D3896"/>
<path fill-rule="evenodd" clip-rule="evenodd" d="M288.139 230.446V238.01H300.474L324.621 283.547H354.336L378.483 237.935L390.821 237.857L390.844 230.446H353.937V237.883H363.763L346.713 270.256L328.27 237.995L341.724 237.935L341.699 230.446H288.139Z" fill="#0D3896"/>
<path fill-rule="evenodd" clip-rule="evenodd" d="M227.425 230.446V238.01H239.762L239.783 275.187H226.776V283.474L239.791 283.548H301.392V258.83H293.367C292.928 271.917 281.638 275.205 276.882 275.205C272.525 275.205 264.082 275.188 264.082 275.188V237.995L276.233 237.934L276.217 230.445L227.425 230.446Z" fill="#0D3896"/>
<path fill-rule="evenodd" clip-rule="evenodd" d="M185.346 276.747C177.953 276.747 171.963 267.842 171.963 256.852C171.963 245.859 177.953 236.948 185.346 236.948C192.737 236.948 198.729 245.859 198.729 256.852C198.729 267.842 192.737 276.747 185.346 276.747ZM185.89 228.92C164.919 228.92 147.919 241.477 147.919 256.96C147.919 272.445 164.919 285 185.89 285C206.859 285 223.861 272.445 223.861 256.96C223.861 241.477 206.859 228.92 185.89 228.92Z" fill="#0D3896"/>
<path fill-rule="evenodd" clip-rule="evenodd" d="M423.486 276.606C416.095 276.606 410.106 267.553 410.106 256.381C410.106 245.214 416.096 236.159 423.486 236.159C430.877 236.159 436.865 245.214 436.865 256.381C436.866 267.553 430.877 276.606 423.486 276.606ZM424.032 228C403.057 228 386.062 240.761 386.062 256.497C386.062 272.233 403.056 284.992 424.032 284.992C445 284.992 462 272.233 462 256.497C462 240.761 445 228 424.032 228Z" fill="#0D3896"/>
</svg>
